<?xml version="1.0" encoding="UTF-8"?>
<svg width="72px" height="72px" viewBox="0 0 72 72" version="1.1" xmlns="http://www.w3.org/2000/svg" xmlns:xlink="http://www.w3.org/1999/xlink">
    <title>transport/funroad_72</title>
    <g id="transport/funroad_72" stroke="none" stroke-width="1" fill="none" fill-rule="evenodd">
        <g id="transport/12/bounding-night" fill="#64828C">
            <path d="M18,0 L54,0 C63.9411255,0 72,8.0588745 72,18 L72,54 C72,63.9411255 63.9411255,72 54,72 L18,72 C8.0588745,72 0,63.9411255 0,54 L0,18 C0,8.0588745 8.0588745,0 18,0 Z" id="transport/12/bounding"></path>
        </g>
        <g id="Page-1" transform="translate(11.000000, 11.000000)" fill="#202122">
            <polygon id="Fill-1" points="0 47.2727273 0 52 50 43.7260909 50 39"></polygon>
            <path d="M4,6 L4,25 L9,25 L9,8 L41,8 L41,25 L46,25 L46,6 C46,5.7702381 39.0107059,0 26,0 C10.9967059,0 4,5.7702381 4,6" id="Fill-2"></path>
            <polygon id="Fill-4" points="46 35.6666667 4 43 4 21 46 21"></polygon>
        </g>
    </g>
</svg>