<svg width="28" height="28" viewBox="0 0 28 28" fill="none" xmlns="http://www.w3.org/2000/svg">
<path d="M24 0H4C1.79086 0 0 1.79086 0 4V24C0 26.2091 1.79086 28 4 28H24C26.2091 28 28 26.2091 28 24V4C28 1.79086 26.2091 0 24 0Z" fill="#4FAB8A"/>
<path d="M23.2857 1H4.71429C2.66294 1 1 2.66294 1 4.71429V23.2857C1 25.3371 2.66294 27 4.71429 27H23.2857C25.3371 27 27 25.3371 27 23.2857V4.71429C27 2.66294 25.3371 1 23.2857 1Z" fill="#CCCCCC"/>
<path d="M22.5714 2H5.42857C3.53502 2 2 3.53502 2 5.42857V22.5714C2 24.465 3.53502 26 5.42857 26H22.5714C24.465 26 26 24.465 26 22.5714V5.42857C26 3.53502 24.465 2 22.5714 2Z" fill="#4FAB8A"/>
</svg>
