<svg width="30" height="30" viewBox="0 0 30 30" fill="none" xmlns="http://www.w3.org/2000/svg">
<path fill-rule="evenodd" clip-rule="evenodd" d="M6.11264 12.8557H29.1444C29.6169 12.8557 30 13.2387 30 13.7113C30 13.7946 29.9878 13.8774 29.9639 13.9571L25.5265 28.7487C25.3093 29.4725 24.6431 29.9682 23.8874 29.9682H0.855629C0.383078 29.9682 0 29.5851 0 29.1126C0 29.0293 0.0121565 28.9465 0.036085 28.8667L4.47355 14.0752C4.6907 13.3513 5.35693 12.8557 6.11264 12.8557Z" fill="#ED9F2E"/>
<path d="M13.6158 18.6406L13.7733 18.4606L13.6158 18.6406Z" fill="white"/>
<path d="M22.1553 24.9637V15.8841H18.1387V17.7293H20.1864V24.9637H17.9812V26.8088H23.8767L24.6418 24.9637H22.1553Z" fill="#202122"/>
<path d="M15.2359 17.4254C14.2346 16.3791 12.8619 15.8728 11.1518 15.8728H6.28009L5.7963 17.6842H7.5402V26.7975H11.1518C12.8619 26.7975 14.2346 26.2913 15.2359 25.2674C16.226 24.2323 16.7098 22.9272 16.7098 21.3521C16.7098 19.7769 16.226 18.4605 15.2359 17.4254ZM13.6158 18.6406C14.2683 19.2256 14.6171 20.1144 14.6171 21.3408C14.6171 22.6009 14.2683 23.4897 13.6045 24.0861C12.9294 24.6824 12.0856 24.9974 11.0393 24.9974H9.54289V17.7067H11.0393C12.0969 17.7067 12.9407 18.033 13.6158 18.6406Z" fill="#202122"/>
</svg>
