<svg width="30" height="30" viewBox="0 0 30 30" fill="none" xmlns="http://www.w3.org/2000/svg">
<path fill-rule="evenodd" clip-rule="evenodd" d="M6.11264 12.86H29.1444C29.6169 12.86 30 13.2431 30 13.7156C30 13.7989 29.9878 13.8817 29.9639 13.9615L25.5265 28.753C25.3093 29.4768 24.6431 29.9725 23.8874 29.9725H0.855629C0.383078 29.9725 0 29.5894 0 29.1169C0 29.0336 0.0121565 28.9508 0.036085 28.871L4.47355 14.0795C4.6907 13.3557 5.35693 12.86 6.11264 12.86Z" fill="#D93E79"/>
<path d="M14.4216 17.4205C13.4316 16.386 12.0746 15.8855 10.3839 15.8855H5.74549L5.27832 17.6763H6.81332V26.6861H10.3839C12.0746 26.6861 13.4316 26.1855 14.4216 25.1733C15.4004 24.15 15.8787 22.8597 15.8787 21.3025C15.8787 19.7452 15.4004 18.4438 14.4216 17.4205ZM13.832 21.2913C13.832 22.5371 13.4872 23.4159 12.831 24.0054C12.1636 24.5949 11.3293 24.9064 10.2949 24.9064H8.81549V17.6986H10.2949C11.3405 17.6986 12.1858 17.9989 12.831 18.6107C13.4872 19.2002 13.832 20.0789 13.832 21.2913Z" fill="#202122"/>
<path d="M20.3143 24.873L22.0273 23.1934C22.8282 22.4036 23.4622 21.7029 23.9071 21.08C24.3632 20.4126 24.5967 19.7118 24.5967 18.9555C24.5967 18.1323 24.2742 17.3649 23.6402 16.7197C22.995 16.0412 22.0718 15.7186 20.9261 15.7186C20.1252 15.7186 19.38 15.8966 18.7015 16.2414C18.0563 16.5862 17.5335 16.9422 17.1665 17.3315L17.0107 17.4983L18.2899 18.7775L18.4568 18.6218C18.746 18.3548 19.1019 18.1101 19.5468 17.8876C19.9584 17.6652 20.4144 17.5428 20.9261 17.5428C21.4266 17.5428 21.8048 17.6763 22.1274 17.9544C22.4277 18.2213 22.5946 18.5773 22.5946 19.0333C22.5946 19.4449 22.4389 19.8787 22.1163 20.3458C21.7826 20.813 21.1374 21.5471 20.1697 22.5149L17.4668 25.1844V26.686H24.5411L25.2085 24.8618C25.2085 24.873 20.3143 24.873 20.3143 24.873Z" fill="#202122"/>
</svg>
