<svg width="116" height="116" viewBox="0 0 116 116" fill="none" xmlns="http://www.w3.org/2000/svg">
<path d="M58 116C90.0325 116 116 90.0325 116 58C116 25.9675 90.0325 0 58 0C25.9675 0 0 25.9675 0 58C0 90.0325 25.9675 116 58 116Z" fill="black" fill-opacity="0.02"/>
<path d="M58 114C88.9279 114 114 88.9279 114 58C114 27.0721 88.9279 2 58 2C27.0721 2 2 27.0721 2 58C2 88.9279 27.0721 114 58 114Z" fill="black" fill-opacity="0.02"/>
<path d="M58 112C87.8234 112 112 87.8234 112 58C112 28.1766 87.8234 4 58 4C28.1766 4 4 28.1766 4 58C4 87.8234 28.1766 112 58 112Z" fill="black" fill-opacity="0.02"/>
<path d="M58 110C86.7188 110 110 86.7188 110 58C110 29.2812 86.7188 6 58 6C29.2812 6 6 29.2812 6 58C6 86.7188 29.2812 110 58 110Z" fill="black" fill-opacity="0.02"/>
<path d="M58 108C85.6142 108 108 85.6142 108 58C108 30.3858 85.6142 8 58 8C30.3858 8 8 30.3858 8 58C8 85.6142 30.3858 108 58 108Z" fill="#A3894A"/>
<path fill-rule="evenodd" clip-rule="evenodd" d="M84.9937 41.3187C84.8177 45.7348 81.0956 49.1695 76.6828 48.9935C72.27 48.8202 68.8305 45.0974 69.0065 40.684C69.1824 36.2679 72.9046 32.8305 77.3174 33.0065C81.7301 33.1825 85.167 36.9052 84.9937 41.3187Z" fill="#202122"/>
<path fill-rule="evenodd" clip-rule="evenodd" d="M37 60L57.5 42L78 60H37Z" fill="#202122"/>
<path fill-rule="evenodd" clip-rule="evenodd" d="M67 50.6667L56.3333 40H35V48H53.6667L61.6667 56L67 50.6667Z" fill="#202122"/>
<path fill-rule="evenodd" clip-rule="evenodd" d="M77.1667 72.3333L67.3333 67L57.5 72.3333L47.6667 67L37.8333 72.3333L28 67V77.6667L37.8333 83L47.6667 77.6667L57.5 83L67.3333 77.6667L77.1667 83L87 77.6667V67L77.1667 72.3333Z" fill="#202122"/>
</svg>
