<svg width="116" height="116" viewBox="0 0 116 116" fill="none" xmlns="http://www.w3.org/2000/svg">
<path d="M58 116C90.0325 116 116 90.0325 116 58C116 25.9675 90.0325 0 58 0C25.9675 0 0 25.9675 0 58C0 90.0325 25.9675 116 58 116Z" fill="black" fill-opacity="0.02"/>
<path d="M58 114C88.9279 114 114 88.9279 114 58C114 27.0721 88.9279 2 58 2C27.0721 2 2 27.0721 2 58C2 88.9279 27.0721 114 58 114Z" fill="black" fill-opacity="0.02"/>
<path d="M58 112C87.8234 112 112 87.8234 112 58C112 28.1766 87.8234 4 58 4C28.1766 4 4 28.1766 4 58C4 87.8234 28.1766 112 58 112Z" fill="black" fill-opacity="0.02"/>
<path d="M58 110C86.7188 110 110 86.7188 110 58C110 29.2812 86.7188 6 58 6C29.2812 6 6 29.2812 6 58C6 86.7188 29.2812 110 58 110Z" fill="black" fill-opacity="0.02"/>
<path d="M58 108C85.6142 108 108 85.6142 108 58C108 30.3858 85.6142 8 58 8C30.3858 8 8 30.3858 8 58C8 85.6142 30.3858 108 58 108Z" fill="#59806E"/>
<path fill-rule="evenodd" clip-rule="evenodd" d="M43 32C43 36.4187 39.4187 40 35 40C30.5813 40 27 36.4187 27 32C27 27.5813 30.5813 24 35 24C39.4187 24 43 27.5813 43 32Z" fill="#202122"/>
<path fill-rule="evenodd" clip-rule="evenodd" d="M43.8672 39.9002C45.688 37.8174 47.8067 37.4122 49.4201 38.8563L65 56.8115L56.075 66L41.1256 48.7543C39.3048 46.6715 39.8438 44.2056 41.6646 42.1228L43.8672 39.9002Z" fill="#202122"/>
<path fill-rule="evenodd" clip-rule="evenodd" d="M24 81H92V72H24V81Z" fill="#202122"/>
<path fill-rule="evenodd" clip-rule="evenodd" d="M33 81H24V90H26.2265C28.7105 90 33 85.8305 33 83.3465V81Z" fill="#202122"/>
<path fill-rule="evenodd" clip-rule="evenodd" d="M92 81H83V83.2741C83 85.7581 87.3563 90 89.8403 90H92V81Z" fill="#202122"/>
<path fill-rule="evenodd" clip-rule="evenodd" d="M56 66H92V57H57.3004L56 66Z" fill="#202122"/>
<path fill-rule="evenodd" clip-rule="evenodd" d="M42.001 74L22 49.3333L27.5002 45L51 71.7089L42.001 74Z" fill="#202122"/>
</svg>
