<svg width="92" height="92" viewBox="0 0 92 92" fill="none" xmlns="http://www.w3.org/2000/svg">
<g filter="url(#filter0_d_1_448)">
<path d="M46 84C66.9868 84 84 66.9868 84 46C84 25.0132 66.9868 8 46 8C25.0132 8 8 25.0132 8 46C8 66.9868 25.0132 84 46 84Z" fill="#59806E"/>
</g>
<path fill-rule="evenodd" clip-rule="evenodd" d="M37 22L21 30V66H34V58H40V66H53V30L37 22ZM57 66H73V46L57 42V66ZM28 46H34V52H28V46ZM46 46H40V52H46V46ZM28 34H34V40H28V34ZM46 34H40V40H46V34Z" fill="#202122"/>
<defs>
<filter id="filter0_d_1_448" x="1" y="1" width="90" height="90" filterUnits="userSpaceOnUse" color-interpolation-filters="sRGB">
<feFlood flood-opacity="0" result="BackgroundImageFix"/>
<feColorMatrix in="SourceAlpha" type="matrix" values="0 0 0 0 0 0 0 0 0 0 0 0 0 0 0 0 0 0 127 0" result="hardAlpha"/>
<feOffset/>
<feGaussianBlur stdDeviation="3.5"/>
<feColorMatrix type="matrix" values="0 0 0 0 0 0 0 0 0 0 0 0 0 0 0 0 0 0 0.15 0"/>
<feBlend mode="normal" in2="BackgroundImageFix" result="effect1_dropShadow_1_448"/>
<feBlend mode="normal" in="SourceGraphic" in2="effect1_dropShadow_1_448" result="shape"/>
</filter>
</defs>
</svg>
