<svg width="116" height="116" viewBox="0 0 116 116" fill="none" xmlns="http://www.w3.org/2000/svg">
<path d="M58 116C90.0325 116 116 90.0325 116 58C116 25.9675 90.0325 0 58 0C25.9675 0 0 25.9675 0 58C0 90.0325 25.9675 116 58 116Z" fill="black" fill-opacity="0.02"/>
<path d="M58 114C88.9279 114 114 88.9279 114 58C114 27.0721 88.9279 2 58 2C27.0721 2 2 27.0721 2 58C2 88.9279 27.0721 114 58 114Z" fill="black" fill-opacity="0.02"/>
<path d="M58 112C87.8234 112 112 87.8234 112 58C112 28.1766 87.8234 4 58 4C28.1766 4 4 28.1766 4 58C4 87.8234 28.1766 112 58 112Z" fill="black" fill-opacity="0.02"/>
<path d="M58 110C86.7188 110 110 86.7188 110 58C110 29.2812 86.7188 6 58 6C29.2812 6 6 29.2812 6 58C6 86.7188 29.2812 110 58 110Z" fill="black" fill-opacity="0.02"/>
<path d="M58 108C85.6142 108 108 85.6142 108 58C108 30.3858 85.6142 8 58 8C30.3858 8 8 30.3858 8 58C8 85.6142 30.3858 108 58 108Z" fill="#8F6138"/>
<path fill-rule="evenodd" clip-rule="evenodd" d="M78.3077 53H70.6923V48H78.3077C82.5063 48 85.9231 44.635 85.9231 40.5V38H70.6923V33H91V40.5C91 47.3925 85.3088 53 78.3077 53Z" fill="#202122"/>
<path fill-rule="evenodd" clip-rule="evenodd" d="M85.9231 73H25C25 78.5225 29.5464 83 35.1538 83H75.7692C81.3767 83 85.9231 78.5225 85.9231 73Z" fill="#202122"/>
<path fill-rule="evenodd" clip-rule="evenodd" d="M30.0769 33L38.1264 60.7475C39.3728 65.04 43.3556 68 47.8919 68H63.0312C67.5675 68 71.5503 65.04 72.7967 60.7475L80.8462 33H30.0769Z" fill="#202122"/>
</svg>
