<svg width="116" height="116" viewBox="0 0 116 116" fill="none" xmlns="http://www.w3.org/2000/svg">
<path d="M58 116C90.0325 116 116 90.0325 116 58C116 25.9675 90.0325 0 58 0C25.9675 0 0 25.9675 0 58C0 90.0325 25.9675 116 58 116Z" fill="black" fill-opacity="0.02"/>
<path d="M58 114C88.9279 114 114 88.9279 114 58C114 27.0721 88.9279 2 58 2C27.0721 2 2 27.0721 2 58C2 88.9279 27.0721 114 58 114Z" fill="black" fill-opacity="0.02"/>
<path d="M58 112C87.8234 112 112 87.8234 112 58C112 28.1766 87.8234 4 58 4C28.1766 4 4 28.1766 4 58C4 87.8234 28.1766 112 58 112Z" fill="black" fill-opacity="0.02"/>
<path d="M58 110C86.7188 110 110 86.7188 110 58C110 29.2812 86.7188 6 58 6C29.2812 6 6 29.2812 6 58C6 86.7188 29.2812 110 58 110Z" fill="black" fill-opacity="0.02"/>
<path d="M58 108C85.6142 108 108 85.6142 108 58C108 30.3858 85.6142 8 58 8C30.3858 8 8 30.3858 8 58C8 85.6142 30.3858 108 58 108Z" fill="#A3894A"/>
<path fill-rule="evenodd" clip-rule="evenodd" d="M29 87H87V79H29V87Z" fill="#202122"/>
<path fill-rule="evenodd" clip-rule="evenodd" d="M29 73H36V49H29V73Z" fill="#202122"/>
<path fill-rule="evenodd" clip-rule="evenodd" d="M80 73H87V49H80V73Z" fill="#202122"/>
<path fill-rule="evenodd" clip-rule="evenodd" d="M58 24L29 35.6111V43H87V35.6111L58 24Z" fill="#202122"/>
<path fill-rule="evenodd" clip-rule="evenodd" d="M42 73H49V49H42V73Z" fill="#202122"/>
<path fill-rule="evenodd" clip-rule="evenodd" d="M67 73H74V49H67V73Z" fill="#202122"/>
<path fill-rule="evenodd" clip-rule="evenodd" d="M57.5714 69L49 59.7692V49L59 59.7692L57.5714 69Z" fill="#202122"/>
<path fill-rule="evenodd" clip-rule="evenodd" d="M58.4286 69L67 59.7692V49L57 59.7692L58.4286 69Z" fill="#202122"/>
</svg>
