<svg width="92" height="92" viewBox="0 0 92 92" fill="none" xmlns="http://www.w3.org/2000/svg">
<g filter="url(#filter0_d_1_206)">
<path d="M46 84C66.9868 84 84 66.9868 84 46C84 25.0132 66.9868 8 46 8C25.0132 8 8 25.0132 8 46C8 66.9868 25.0132 84 46 84Z" fill="#A1686A"/>
</g>
<path fill-rule="evenodd" clip-rule="evenodd" d="M26 32H66L62.5029 23.2572C62.1992 22.4979 61.4637 22 60.6459 22H31.3541C30.5363 22 29.8008 22.4979 29.4971 23.2572L26 32ZM26 66C26 67.1046 26.8954 68 28 68H64C65.1046 68 66 67.1046 66 66V36H26V66ZM38 27C38 26.4477 38.4477 26 39 26H53C53.5523 26 54 26.4477 54 27C54 27.5523 53.5523 28 53 28H39C38.4477 28 38 27.5523 38 27ZM46 63L36.4504 55.042C34.8977 53.7481 34 51.8314 34 49.8102V49.1803C34 45.767 36.767 43 40.1803 43C42.5213 43 44.6613 44.3226 45.7082 46.4164L46 47L46.2918 46.4164C47.3387 44.3226 49.4787 43 51.8197 43C55.233 43 58 45.767 58 49.1803V49.8102C58 51.8314 57.1023 53.7481 55.5496 55.042L46 63Z" fill="#202122"/>
<defs>
<filter id="filter0_d_1_206" x="1" y="1" width="90" height="90" filterUnits="userSpaceOnUse" color-interpolation-filters="sRGB">
<feFlood flood-opacity="0" result="BackgroundImageFix"/>
<feColorMatrix in="SourceAlpha" type="matrix" values="0 0 0 0 0 0 0 0 0 0 0 0 0 0 0 0 0 0 127 0" result="hardAlpha"/>
<feOffset/>
<feGaussianBlur stdDeviation="3.5"/>
<feColorMatrix type="matrix" values="0 0 0 0 0 0 0 0 0 0 0 0 0 0 0 0 0 0 0.15 0"/>
<feBlend mode="normal" in2="BackgroundImageFix" result="effect1_dropShadow_1_206"/>
<feBlend mode="normal" in="SourceGraphic" in2="effect1_dropShadow_1_206" result="shape"/>
</filter>
</defs>
</svg>
