<svg width="116" height="116" viewBox="0 0 116 116" fill="none" xmlns="http://www.w3.org/2000/svg">
<path d="M58 116C90.0325 116 116 90.0325 116 58C116 25.9675 90.0325 0 58 0C25.9675 0 0 25.9675 0 58C0 90.0325 25.9675 116 58 116Z" fill="black" fill-opacity="0.02"/>
<path d="M58 114C88.9279 114 114 88.9279 114 58C114 27.0721 88.9279 2 58 2C27.0721 2 2 27.0721 2 58C2 88.9279 27.0721 114 58 114Z" fill="black" fill-opacity="0.02"/>
<path d="M58 112C87.8234 112 112 87.8234 112 58C112 28.1766 87.8234 4 58 4C28.1766 4 4 28.1766 4 58C4 87.8234 28.1766 112 58 112Z" fill="black" fill-opacity="0.02"/>
<path d="M58 110C86.7188 110 110 86.7188 110 58C110 29.2812 86.7188 6 58 6C29.2812 6 6 29.2812 6 58C6 86.7188 29.2812 110 58 110Z" fill="black" fill-opacity="0.02"/>
<path d="M58 108C85.6142 108 108 85.6142 108 58C108 30.3858 85.6142 8 58 8C30.3858 8 8 30.3858 8 58C8 85.6142 30.3858 108 58 108Z" fill="#59806E"/>
<path fill-rule="evenodd" clip-rule="evenodd" d="M48.5 33C48.5 38.5228 52.9772 43 58.5 43C64.0228 43 68.5 38.5228 68.5 33C68.5 32.8374 68.4961 32.6756 68.4884 32.5149C72.2024 32.9605 75.3728 33.4554 78 34C82.5032 37.1652 86.8366 41.8319 91 48C91 48 87.6667 51 81 57L79.9752 55.9752C79.2562 55.2562 78.6488 54.6488 78.1529 54.1529L77.8388 53.8388C77.7397 53.7397 77.646 53.646 77.5579 53.5578L77.3099 53.3099C77.2713 53.2713 77.2342 53.2342 77.1983 53.1983L77 53L75.5 85C69.6667 87 63.8333 88 58 88C52.1667 88 46.3333 87 40.5 85L39 53C38.9091 53.0909 38.8058 53.1942 38.6901 53.3099L38.4422 53.5578C38.354 53.646 38.2603 53.7397 38.1612 53.8388L37.8471 54.1529C37.3512 54.6488 36.7438 55.2562 36.0248 55.9752L35.2686 56.7314C35.1804 56.8195 35.0909 56.9091 35 57C28.3333 51 25 48 25 48C29.4124 41.794 33.7458 37.1273 38 34C40.8254 33.3811 44.3318 32.8353 48.5194 32.3625C48.5067 32.5734 48.5 32.7859 48.5 33Z" fill="#202122"/>
</svg>
