<svg width="116" height="116" viewBox="0 0 116 116" fill="none" xmlns="http://www.w3.org/2000/svg">
<path d="M58 116C90.0325 116 116 90.0325 116 58C116 25.9675 90.0325 0 58 0C25.9675 0 0 25.9675 0 58C0 90.0325 25.9675 116 58 116Z" fill="black" fill-opacity="0.02"/>
<path d="M58 114C88.9279 114 114 88.9279 114 58C114 27.0721 88.9279 2 58 2C27.0721 2 2 27.0721 2 58C2 88.9279 27.0721 114 58 114Z" fill="black" fill-opacity="0.02"/>
<path d="M58 112C87.8234 112 112 87.8234 112 58C112 28.1766 87.8234 4 58 4C28.1766 4 4 28.1766 4 58C4 87.8234 28.1766 112 58 112Z" fill="black" fill-opacity="0.02"/>
<path d="M58 110C86.7188 110 110 86.7188 110 58C110 29.2812 86.7188 6 58 6C29.2812 6 6 29.2812 6 58C6 86.7188 29.2812 110 58 110Z" fill="black" fill-opacity="0.02"/>
<path d="M58 108C85.6142 108 108 85.6142 108 58C108 30.3858 85.6142 8 58 8C30.3858 8 8 30.3858 8 58C8 85.6142 30.3858 108 58 108Z" fill="#61788C"/>
<path fill-rule="evenodd" clip-rule="evenodd" d="M58 48.2857C52.6353 48.2857 48.2857 52.6353 48.2857 58C48.2857 63.3647 52.6353 67.7143 58 67.7143C63.3647 67.7143 67.7143 63.3647 67.7143 58C67.7143 52.6353 63.3647 48.2857 58 48.2857ZM58 53.1428C60.6787 53.1428 62.8571 55.3213 62.8571 58C62.8571 60.6787 60.6787 62.8571 58 62.8571C55.3213 62.8571 53.1429 60.6787 53.1429 58C53.1429 55.3213 55.3213 53.1428 58 53.1428Z" fill="#202122"/>
<path fill-rule="evenodd" clip-rule="evenodd" d="M58 28.8571C41.9059 28.8571 28.8571 41.9059 28.8571 58C28.8571 74.0941 41.9059 87.1429 58 87.1429C74.0941 87.1429 87.1429 74.0941 87.1429 58C87.1429 41.9059 74.0941 28.8571 58 28.8571ZM58 33.7143C71.3911 33.7143 82.2857 44.6089 82.2857 58C82.2857 71.3911 71.3911 82.2857 58 82.2857C44.6089 82.2857 33.7143 71.3911 33.7143 58C33.7143 44.6089 44.6089 33.7143 58 33.7143Z" fill="#202122"/>
<path fill-rule="evenodd" clip-rule="evenodd" d="M58 33.7143C55.3189 33.7143 53.1429 31.5383 53.1429 28.8571C53.1429 26.176 55.3189 24 58 24C60.6811 24 62.8571 26.176 62.8571 28.8571C62.8571 31.5383 60.6811 33.7143 58 33.7143Z" fill="#202122"/>
<path fill-rule="evenodd" clip-rule="evenodd" d="M38.5714 43.4286C35.8903 43.4286 33.7143 41.2526 33.7143 38.5714C33.7143 35.8903 35.8903 33.7143 38.5714 33.7143C41.2526 33.7143 43.4286 35.8903 43.4286 38.5714C43.4286 41.2526 41.2526 43.4286 38.5714 43.4286Z" fill="#202122"/>
<path fill-rule="evenodd" clip-rule="evenodd" d="M77.4286 43.4286C74.7474 43.4286 72.5714 41.2526 72.5714 38.5714C72.5714 35.8903 74.7474 33.7143 77.4286 33.7143C80.1097 33.7143 82.2857 35.8903 82.2857 38.5714C82.2857 41.2526 80.1097 43.4286 77.4286 43.4286Z" fill="#202122"/>
<path fill-rule="evenodd" clip-rule="evenodd" d="M38.5714 82.2857C35.8903 82.2857 33.7143 80.1097 33.7143 77.4286C33.7143 74.7474 35.8903 72.5714 38.5714 72.5714C41.2526 72.5714 43.4286 74.7474 43.4286 77.4286C43.4286 80.1097 41.2526 82.2857 38.5714 82.2857Z" fill="#202122"/>
<path fill-rule="evenodd" clip-rule="evenodd" d="M77.4286 82.2857C74.7474 82.2857 72.5714 80.1097 72.5714 77.4286C72.5714 74.7474 74.7474 72.5714 77.4286 72.5714C80.1097 72.5714 82.2857 74.7474 82.2857 77.4286C82.2857 80.1097 80.1097 82.2857 77.4286 82.2857Z" fill="#202122"/>
<path fill-rule="evenodd" clip-rule="evenodd" d="M87.1429 62.8571C89.824 62.8571 92 60.6811 92 58C92 55.3189 89.824 53.1429 87.1429 53.1429C84.4617 53.1429 82.2857 55.3189 82.2857 58C82.2857 60.6811 84.4617 62.8571 87.1429 62.8571Z" fill="#202122"/>
<path fill-rule="evenodd" clip-rule="evenodd" d="M58 82.2857C55.3189 82.2857 53.1429 84.4617 53.1429 87.1428C53.1429 89.824 55.3189 92 58 92C60.6811 92 62.8571 89.824 62.8571 87.1428C62.8571 84.4617 60.6811 82.2857 58 82.2857Z" fill="#202122"/>
<path fill-rule="evenodd" clip-rule="evenodd" d="M28.8571 62.8571C26.176 62.8571 24 60.6811 24 58C24 55.3189 26.176 53.1429 28.8571 53.1429C31.5383 53.1429 33.7143 55.3189 33.7143 58C33.7143 60.6811 31.5383 62.8571 28.8571 62.8571Z" fill="#202122"/>
<path fill-rule="evenodd" clip-rule="evenodd" d="M28.8571 60.4286H53.1429V55.5714H28.8571V60.4286Z" fill="#202122"/>
<path fill-rule="evenodd" clip-rule="evenodd" d="M62.8571 60.4286H87.1429V55.5714H62.8571V60.4286Z" fill="#202122"/>
<path fill-rule="evenodd" clip-rule="evenodd" d="M55.5714 53.1429H60.4286V28.8571H55.5714V53.1429Z" fill="#202122"/>
<path fill-rule="evenodd" clip-rule="evenodd" d="M55.5714 87.1429H60.4286V62.8571H55.5714V87.1429Z" fill="#202122"/>
<path fill-rule="evenodd" clip-rule="evenodd" d="M76.8902 35.6756L59.7177 52.848L63.1517 56.282L80.3242 39.1096L76.8902 35.6756Z" fill="#202122"/>
<path fill-rule="evenodd" clip-rule="evenodd" d="M52.8488 59.717L35.6763 76.8894L39.1103 80.3234L56.2828 63.151L52.8488 59.717Z" fill="#202122"/>
<path fill-rule="evenodd" clip-rule="evenodd" d="M80.3244 76.8901L63.152 59.7177L59.718 63.1517L76.8904 80.3241L80.3244 76.8901Z" fill="#202122"/>
<path fill-rule="evenodd" clip-rule="evenodd" d="M56.283 52.8488L39.1106 35.6763L35.6766 39.1103L52.849 56.2828L56.283 52.8488Z" fill="#202122"/>
</svg>
