<svg width="116" height="116" viewBox="0 0 116 116" fill="none" xmlns="http://www.w3.org/2000/svg">
<path d="M58 116C90.0325 116 116 90.0325 116 58C116 25.9675 90.0325 0 58 0C25.9675 0 0 25.9675 0 58C0 90.0325 25.9675 116 58 116Z" fill="black" fill-opacity="0.02"/>
<path d="M58 114C88.9279 114 114 88.9279 114 58C114 27.0721 88.9279 2 58 2C27.0721 2 2 27.0721 2 58C2 88.9279 27.0721 114 58 114Z" fill="black" fill-opacity="0.02"/>
<path d="M58 112C87.8234 112 112 87.8234 112 58C112 28.1766 87.8234 4 58 4C28.1766 4 4 28.1766 4 58C4 87.8234 28.1766 112 58 112Z" fill="black" fill-opacity="0.02"/>
<path d="M58 110C86.7188 110 110 86.7188 110 58C110 29.2812 86.7188 6 58 6C29.2812 6 6 29.2812 6 58C6 86.7188 29.2812 110 58 110Z" fill="black" fill-opacity="0.02"/>
<path d="M58 108C85.6142 108 108 85.6142 108 58C108 30.3858 85.6142 8 58 8C30.3858 8 8 30.3858 8 58C8 85.6142 30.3858 108 58 108Z" fill="#A3894A"/>
<path fill-rule="evenodd" clip-rule="evenodd" d="M42 24V33H52V42H64V33H74V24H42Z" fill="#202122"/>
<path fill-rule="evenodd" clip-rule="evenodd" d="M58 61.2222C45.4831 61.2222 35.3317 57.8896 35.3317 53.7778C35.3317 49.666 45.4831 46.3333 58 46.3333C70.5169 46.3333 80.6683 49.666 80.6683 53.7778C80.6683 57.8896 70.5169 61.2222 58 61.2222ZM24 53.7778V78.5926C24 84.2131 34.9064 89.39 48.946 90.9162V81.9493C48.946 79.2097 51.4232 75.9395 54.1043 75.9395H62.0009C64.682 75.9395 67.0376 79.2097 67.0376 81.9493V90.9162C81.0772 89.39 92 84.2131 92 78.5926V53.7778C92 46.9239 76.7777 41.3704 58 41.3704C39.2223 41.3704 24 46.9239 24 53.7778Z" fill="#202122"/>
</svg>
