<svg width="116" height="116" viewBox="0 0 116 116" fill="none" xmlns="http://www.w3.org/2000/svg">
<path d="M58 116C90.0325 116 116 90.0325 116 58C116 25.9675 90.0325 0 58 0C25.9675 0 0 25.9675 0 58C0 90.0325 25.9675 116 58 116Z" fill="black" fill-opacity="0.02"/>
<path d="M58 114C88.9279 114 114 88.9279 114 58C114 27.0721 88.9279 2 58 2C27.0721 2 2 27.0721 2 58C2 88.9279 27.0721 114 58 114Z" fill="black" fill-opacity="0.02"/>
<path d="M58 112C87.8234 112 112 87.8234 112 58C112 28.1766 87.8234 4 58 4C28.1766 4 4 28.1766 4 58C4 87.8234 28.1766 112 58 112Z" fill="black" fill-opacity="0.02"/>
<path d="M58 110C86.7188 110 110 86.7188 110 58C110 29.2812 86.7188 6 58 6C29.2812 6 6 29.2812 6 58C6 86.7188 29.2812 110 58 110Z" fill="black" fill-opacity="0.02"/>
<path d="M58 108C85.6142 108 108 85.6142 108 58C108 30.3858 85.6142 8 58 8C30.3858 8 8 30.3858 8 58C8 85.6142 30.3858 108 58 108Z" fill="#59806E"/>
<path fill-rule="evenodd" clip-rule="evenodd" d="M43 73.8571C37.48 73.8571 33 78.5931 33 84.4286C33 90.264 37.48 95 43 95C48.52 95 53 90.264 53 84.4286C53 78.5931 48.52 73.8571 43 73.8571ZM43 79.1429C45.76 79.1429 48 81.5109 48 84.4286C48 87.3463 45.76 89.7143 43 89.7143C40.24 89.7143 38 87.3463 38 84.4286C38 81.5109 40.24 79.1429 43 79.1429Z" fill="#202122"/>
<path fill-rule="evenodd" clip-rule="evenodd" d="M73 73.8571C67.48 73.8571 63 78.5931 63 84.4286C63 90.264 67.48 95 73 95C78.52 95 83 90.264 83 84.4286C83 78.5931 78.52 73.8571 73 73.8571ZM73 79.1429C75.76 79.1429 78 81.5109 78 84.4286C78 87.3463 75.76 89.7143 73 89.7143C70.24 89.7143 68 87.3463 68 84.4286C68 81.5109 70.24 79.1429 73 79.1429Z" fill="#202122"/>
<path fill-rule="evenodd" clip-rule="evenodd" d="M48 84.4286L73 21L78 36.8571L68 68.5714H60.5L52.025 88.9901L48 84.4286Z" fill="#202122"/>
<path fill-rule="evenodd" clip-rule="evenodd" d="M68 84.4286L43 21L38 36.8571L48 68.5714H55.5L63.975 88.9901L68 84.4286Z" fill="#202122"/>
</svg>
