<svg width="116" height="116" viewBox="0 0 116 116" fill="none" xmlns="http://www.w3.org/2000/svg">
<path d="M58 116C90.0325 116 116 90.0325 116 58C116 25.9675 90.0325 0 58 0C25.9675 0 0 25.9675 0 58C0 90.0325 25.9675 116 58 116Z" fill="black" fill-opacity="0.02"/>
<path d="M58 114C88.9279 114 114 88.9279 114 58C114 27.0721 88.9279 2 58 2C27.0721 2 2 27.0721 2 58C2 88.9279 27.0721 114 58 114Z" fill="black" fill-opacity="0.02"/>
<path d="M58 112C87.8234 112 112 87.8234 112 58C112 28.1766 87.8234 4 58 4C28.1766 4 4 28.1766 4 58C4 87.8234 28.1766 112 58 112Z" fill="black" fill-opacity="0.02"/>
<path d="M58 110C86.7188 110 110 86.7188 110 58C110 29.2812 86.7188 6 58 6C29.2812 6 6 29.2812 6 58C6 86.7188 29.2812 110 58 110Z" fill="black" fill-opacity="0.02"/>
<path d="M58 108C85.6142 108 108 85.6142 108 58C108 30.3858 85.6142 8 58 8C30.3858 8 8 30.3858 8 58C8 85.6142 30.3858 108 58 108Z" fill="#A1686A"/>
<path fill-rule="evenodd" clip-rule="evenodd" d="M76 69H58H40V74.3333C40 74.3333 44.5 85 58 85C71.5 85 76 74.3333 76 74.3333V69Z" fill="#202122"/>
<path fill-rule="evenodd" clip-rule="evenodd" d="M58 56C53.584 56 50 52.4187 50 48C50 43.5813 53.584 40 58 40C62.4187 40 66 43.5813 66 48C66 52.4187 62.4187 56 58 56ZM31 49.4286C31 59.1429 40 64 40 64H76C76 64 85 59.1429 85 49.4286C85 39.7143 76 30 58 30C40 30 31 39.7143 31 49.4286Z" fill="#202122"/>
</svg>
