<svg width="116" height="116" viewBox="0 0 116 116" fill="none" xmlns="http://www.w3.org/2000/svg">
<path d="M58 116C90.0325 116 116 90.0325 116 58C116 25.9675 90.0325 0 58 0C25.9675 0 0 25.9675 0 58C0 90.0325 25.9675 116 58 116Z" fill="black" fill-opacity="0.02"/>
<path d="M58 114C88.9279 114 114 88.9279 114 58C114 27.0721 88.9279 2 58 2C27.0721 2 2 27.0721 2 58C2 88.9279 27.0721 114 58 114Z" fill="black" fill-opacity="0.02"/>
<path d="M58 112C87.8234 112 112 87.8234 112 58C112 28.1766 87.8234 4 58 4C28.1766 4 4 28.1766 4 58C4 87.8234 28.1766 112 58 112Z" fill="black" fill-opacity="0.02"/>
<path d="M58 110C86.7188 110 110 86.7188 110 58C110 29.2812 86.7188 6 58 6C29.2812 6 6 29.2812 6 58C6 86.7188 29.2812 110 58 110Z" fill="black" fill-opacity="0.02"/>
<path d="M58 108C85.6142 108 108 85.6142 108 58C108 30.3858 85.6142 8 58 8C30.3858 8 8 30.3858 8 58C8 85.6142 30.3858 108 58 108Z" fill="#59806E"/>
<path fill-rule="evenodd" clip-rule="evenodd" d="M33 62V34H25V77H33V75C32.2857 71.9738 34.4617 69.8333 36 69H82C83.5383 69.8333 85.7143 71.9738 85 75V77H93V69V68V62H33Z" fill="#202122"/>
<path fill-rule="evenodd" clip-rule="evenodd" d="M43 54H35V59H93V53C93 48.8097 89.3536 45.0215 84 44C73.9483 43.0082 55.1739 40.8981 54 41C55.1739 50.0019 49.5303 52.501 43 54Z" fill="#202122"/>
<path fill-rule="evenodd" clip-rule="evenodd" d="M51 42C51 46.4187 47.4187 50 43 50C38.5813 50 35 46.4187 35 42C35 37.5813 38.5813 34 43 34C47.4187 34 51 37.5813 51 42Z" fill="#202122"/>
</svg>
