<svg width="116" height="116" viewBox="0 0 116 116" fill="none" xmlns="http://www.w3.org/2000/svg">
<g clip-path="url(#clip0_1_659)">
<path d="M58 118C90.0325 118 116 92.0325 116 60C116 27.9675 90.0325 2 58 2C25.9675 2 0 27.9675 0 60C0 92.0325 25.9675 118 58 118Z" fill="black" fill-opacity="0.02"/>
<path d="M58 116C88.9279 116 114 90.9279 114 60C114 29.0721 88.9279 4 58 4C27.0721 4 2 29.0721 2 60C2 90.9279 27.0721 116 58 116Z" fill="black" fill-opacity="0.02"/>
<path d="M58 114C87.8234 114 112 89.8234 112 60C112 30.1766 87.8234 6 58 6C28.1766 6 4 30.1766 4 60C4 89.8234 28.1766 114 58 114Z" fill="black" fill-opacity="0.02"/>
<path d="M58 112C86.7188 112 110 88.7188 110 60C110 31.2812 86.7188 8 58 8C29.2812 8 6 31.2812 6 60C6 88.7188 29.2812 112 58 112Z" fill="black" fill-opacity="0.02"/>
<path d="M58 110C85.6142 110 108 87.6142 108 60C108 32.3858 85.6142 10 58 10C30.3858 10 8 32.3858 8 60C8 87.6142 30.3858 110 58 110Z" fill="#A3894A"/>
<path fill-rule="evenodd" clip-rule="evenodd" d="M34 61H43V55H34V61ZM36 80C37.351 74.1125 40.4567 66.16 48.0455 64C48.0455 62.3822 48.0455 56.3822 48.0455 46C45.5619 46 46.5164 46 44 46C32.1305 46 27 39 27 39V71C27 79 32.1755 89 44 89C51.568 89 56.0862 86.51 59 82C54.5646 81.1525 51.5991 77.935 50 73C42.3246 74.245 37.351 79 36 80Z" fill="#202122"/>
<path fill-rule="evenodd" clip-rule="evenodd" d="M71 53H80V47H71V53ZM69 74C62.4 74 58 63.8907 58 58C58 58 62.4 63.3333 69 63.3333C75.6 63.3333 80 58 80 58C80 63.8907 75.6 74 69 74ZM58 53H67V47H58V53ZM69 35C56.8571 35 52 30 52 30V60C52 70 56.8571 80 69 80C81.1429 80 86 70 86 60V30C86 30 81.1429 35 69 35Z" fill="#202122"/>
</g>
<defs>
<clipPath id="clip0_1_659">
<rect width="116" height="116" fill="white"/>
</clipPath>
</defs>
</svg>
