<svg width="116" height="116" viewBox="0 0 116 116" fill="none" xmlns="http://www.w3.org/2000/svg">
<path d="M58 116C90.0325 116 116 90.0325 116 58C116 25.9675 90.0325 0 58 0C25.9675 0 0 25.9675 0 58C0 90.0325 25.9675 116 58 116Z" fill="black" fill-opacity="0.02"/>
<path d="M58 114C88.9279 114 114 88.9279 114 58C114 27.0721 88.9279 2 58 2C27.0721 2 2 27.0721 2 58C2 88.9279 27.0721 114 58 114Z" fill="black" fill-opacity="0.02"/>
<path d="M58 112C87.8234 112 112 87.8234 112 58C112 28.1766 87.8234 4 58 4C28.1766 4 4 28.1766 4 58C4 87.8234 28.1766 112 58 112Z" fill="black" fill-opacity="0.02"/>
<path d="M58 110C86.7188 110 110 86.7188 110 58C110 29.2812 86.7188 6 58 6C29.2812 6 6 29.2812 6 58C6 86.7188 29.2812 110 58 110Z" fill="black" fill-opacity="0.02"/>
<path d="M58 108C85.6142 108 108 85.6142 108 58C108 30.3858 85.6142 8 58 8C30.3858 8 8 30.3858 8 58C8 85.6142 30.3858 108 58 108Z" fill="#61788C"/>
<path fill-rule="evenodd" clip-rule="evenodd" d="M54 38.2308H63V23H54V38.2308Z" fill="#202122"/>
<path fill-rule="evenodd" clip-rule="evenodd" d="M58.5 33.1538C47.6391 33.1538 38.8333 42.2466 38.8333 53.4615H78.1667C78.1667 42.2466 69.3609 33.1538 58.5 33.1538Z" fill="#202122"/>
<path fill-rule="evenodd" clip-rule="evenodd" d="M29 53.0277V84.0292H43.9806V68.9753L58.5 56L73.0237 68.9753V83.9231H88V53.0277H29Z" fill="#202122"/>
<path fill-rule="evenodd" clip-rule="evenodd" d="M67.9703 71.0317L58.4796 62.9937L48.9889 71.0317V89H67.9703V71.0317Z" fill="#202122"/>
</svg>
