<svg width="116" height="116" viewBox="0 0 116 116" fill="none" xmlns="http://www.w3.org/2000/svg">
<path d="M58 116C90.0325 116 116 90.0325 116 58C116 25.9675 90.0325 0 58 0C25.9675 0 0 25.9675 0 58C0 90.0325 25.9675 116 58 116Z" fill="black" fill-opacity="0.02"/>
<path d="M58 114C88.9279 114 114 88.9279 114 58C114 27.0721 88.9279 2 58 2C27.0721 2 2 27.0721 2 58C2 88.9279 27.0721 114 58 114Z" fill="black" fill-opacity="0.02"/>
<path d="M58 112C87.8234 112 112 87.8234 112 58C112 28.1766 87.8234 4 58 4C28.1766 4 4 28.1766 4 58C4 87.8234 28.1766 112 58 112Z" fill="black" fill-opacity="0.02"/>
<path d="M58 110C86.7188 110 110 86.7188 110 58C110 29.2812 86.7188 6 58 6C29.2812 6 6 29.2812 6 58C6 86.7188 29.2812 110 58 110Z" fill="black" fill-opacity="0.02"/>
<path d="M58 108C85.6142 108 108 85.6142 108 58C108 30.3858 85.6142 8 58 8C30.3858 8 8 30.3858 8 58C8 85.6142 30.3858 108 58 108Z" fill="#A3894A"/>
<path fill-rule="evenodd" clip-rule="evenodd" d="M45.8571 68.8333C45.8571 64.8749 42.5956 61.6667 38.5714 61.6667C34.5473 61.6667 31.2857 64.8749 31.2857 68.8333C31.2857 72.7917 34.5473 76 38.5714 76C42.5956 76 45.8571 72.7917 45.8571 68.8333Z" fill="#202122"/>
<path fill-rule="evenodd" clip-rule="evenodd" d="M84.7143 68.8333C84.7143 64.8749 81.4527 61.6667 77.4285 61.6667C73.4044 61.6667 70.1428 64.8749 70.1428 68.8333C70.1428 72.7917 73.4044 76 77.4285 76C81.4527 76 84.7143 72.7917 84.7143 68.8333Z" fill="#202122"/>
<path fill-rule="evenodd" clip-rule="evenodd" d="M33.9632 50.8438C28.0132 52.7955 23.9988 58.2732 23.9988 64.4414V68.9772H28.9779C28.9779 63.7002 33.2055 58.8896 38.5702 58.8896C43.9374 58.8896 48.0408 63.7002 48.0408 68.9772H67.9671C67.9671 63.7002 72.0626 58.8896 77.4273 58.8896C82.7945 58.8896 87.0823 63.7002 87.0823 68.9772H91.9988V49.0473H77.0042V44.0444H72.0666L57.9988 59.0657H52.9663V49.0473L48.0408 44.0444L33.9632 50.8438Z" fill="#202122"/>
<path fill-rule="evenodd" clip-rule="evenodd" d="M46.984 39.8852L51.0446 35.9293L60.034 45.0273L56.0527 49.0111L46.984 39.8852Z" fill="#202122"/>
</svg>
