<svg width="116" height="116" viewBox="0 0 116 116" fill="none" xmlns="http://www.w3.org/2000/svg">
<path d="M58 116C90.0325 116 116 90.0325 116 58C116 25.9675 90.0325 0 58 0C25.9675 0 0 25.9675 0 58C0 90.0325 25.9675 116 58 116Z" fill="black" fill-opacity="0.02"/>
<path d="M58 114C88.9279 114 114 88.9279 114 58C114 27.0721 88.9279 2 58 2C27.0721 2 2 27.0721 2 58C2 88.9279 27.0721 114 58 114Z" fill="black" fill-opacity="0.02"/>
<path d="M58 112C87.8234 112 112 87.8234 112 58C112 28.1766 87.8234 4 58 4C28.1766 4 4 28.1766 4 58C4 87.8234 28.1766 112 58 112Z" fill="black" fill-opacity="0.02"/>
<path d="M58 110C86.7188 110 110 86.7188 110 58C110 29.2812 86.7188 6 58 6C29.2812 6 6 29.2812 6 58C6 86.7188 29.2812 110 58 110Z" fill="black" fill-opacity="0.02"/>
<path d="M58 108C85.6142 108 108 85.6142 108 58C108 30.3858 85.6142 8 58 8C30.3858 8 8 30.3858 8 58C8 85.6142 30.3858 108 58 108Z" fill="#A3894A"/>
<path fill-rule="evenodd" clip-rule="evenodd" d="M43.0645 77.9345C37.6998 77.9345 33.0909 73.2941 33.0909 67.9294V63.1178L72.9668 48.0385V67.9294C72.9668 73.2941 68.2708 77.9345 62.9061 77.9345H43.0645Z" fill="#202122"/>
<path fill-rule="evenodd" clip-rule="evenodd" d="M77.9993 67.9398L92 72.998V52.9796L77.9993 58V67.9398Z" fill="#202122"/>
<path fill-rule="evenodd" clip-rule="evenodd" d="M36.1429 33.7143C29.4351 33.7143 24 39.1519 24 45.8572C24 52.5624 29.4351 58 36.1429 58C42.8506 58 48.2857 52.5624 48.2857 45.8572C48.2857 39.1519 42.8506 33.7143 36.1429 33.7143ZM36.1429 38.5714C40.1597 38.5714 43.4286 41.8403 43.4286 45.8572C43.4286 49.874 40.1597 53.1429 36.1429 53.1429C32.126 53.1429 28.8571 49.874 28.8571 45.8572C28.8571 41.8403 32.126 38.5714 36.1429 38.5714Z" fill="#202122"/>
<path fill-rule="evenodd" clip-rule="evenodd" d="M60.4286 24C53.7209 24 48.2857 29.4376 48.2857 36.1429C48.2857 42.8481 53.7209 48.2857 60.4286 48.2857C67.1363 48.2857 72.5714 42.8481 72.5714 36.1429C72.5714 29.4376 67.1363 24 60.4286 24ZM60.4286 28.8571C64.4454 28.8571 67.7143 32.126 67.7143 36.1429C67.7143 40.1597 64.4454 43.4286 60.4286 43.4286C56.4117 43.4286 53.1429 40.1597 53.1429 36.1429C53.1429 32.126 56.4117 28.8571 60.4286 28.8571Z" fill="#202122"/>
<path fill-rule="evenodd" clip-rule="evenodd" d="M55.5714 77.4286H48.2857L38.5714 92H45.8571L55.5714 77.4286Z" fill="#202122"/>
<path fill-rule="evenodd" clip-rule="evenodd" d="M50.7143 77.4286H58L67.7143 92H60.4286L50.7143 77.4286Z" fill="#202122"/>
</svg>
