<svg width="116" height="116" viewBox="0 0 116 116" fill="none" xmlns="http://www.w3.org/2000/svg">
<path d="M58 116C90.0325 116 116 90.0325 116 58C116 25.9675 90.0325 0 58 0C25.9675 0 0 25.9675 0 58C0 90.0325 25.9675 116 58 116Z" fill="black" fill-opacity="0.02"/>
<path d="M58 114C88.9279 114 114 88.9279 114 58C114 27.0721 88.9279 2 58 2C27.0721 2 2 27.0721 2 58C2 88.9279 27.0721 114 58 114Z" fill="black" fill-opacity="0.02"/>
<path d="M58 112C87.8234 112 112 87.8234 112 58C112 28.1766 87.8234 4 58 4C28.1766 4 4 28.1766 4 58C4 87.8234 28.1766 112 58 112Z" fill="black" fill-opacity="0.02"/>
<path d="M58 110C86.7188 110 110 86.7188 110 58C110 29.2812 86.7188 6 58 6C29.2812 6 6 29.2812 6 58C6 86.7188 29.2812 110 58 110Z" fill="black" fill-opacity="0.02"/>
<path d="M58 108C85.6142 108 108 85.6142 108 58C108 30.3858 85.6142 8 58 8C30.3858 8 8 30.3858 8 58C8 85.6142 30.3858 108 58 108Z" fill="#61788C"/>
<path fill-rule="evenodd" clip-rule="evenodd" d="M50.9177 42.0011C53.5669 42.0011 56.1088 43.1237 57.9816 45.1237L66.9642 56.1034H77.0207L90.0124 42.0011H100L88.1997 63.0037C86.1971 66.5717 82.7463 68.9371 78.8735 69.3957L46.0386 73.2917C42.2682 73.7397 38.9372 72.4237 36.0564 69.9215L29.6292 64.005L29.6284 63.9991L23.9024 64V58H29.6292L37.107 46.7504C38.9623 43.7824 42.081 42.0011 45.4194 42.0011H50.9177ZM51.3736 45.9783H44.0893C42.3689 45.9783 40.7683 46.925 39.8544 48.485L34.4186 58H63.9734L54.9068 47.541C53.9704 46.541 52.6994 45.9783 51.3736 45.9783Z" fill="#202122"/>
<path fill-rule="evenodd" clip-rule="evenodd" d="M21 75H25.9V47H21V75Z" fill="#202122"/>
</svg>
