<svg width="116" height="116" viewBox="0 0 116 116" fill="none" xmlns="http://www.w3.org/2000/svg">
<path d="M58 116C90.0325 116 116 90.0325 116 58C116 25.9675 90.0325 0 58 0C25.9675 0 0 25.9675 0 58C0 90.0325 25.9675 116 58 116Z" fill="black" fill-opacity="0.02"/>
<path d="M58 114C88.9279 114 114 88.9279 114 58C114 27.0721 88.9279 2 58 2C27.0721 2 2 27.0721 2 58C2 88.9279 27.0721 114 58 114Z" fill="black" fill-opacity="0.02"/>
<path d="M58 112C87.8234 112 112 87.8234 112 58C112 28.1766 87.8234 4 58 4C28.1766 4 4 28.1766 4 58C4 87.8234 28.1766 112 58 112Z" fill="black" fill-opacity="0.02"/>
<path d="M58 110C86.7188 110 110 86.7188 110 58C110 29.2812 86.7188 6 58 6C29.2812 6 6 29.2812 6 58C6 86.7188 29.2812 110 58 110Z" fill="black" fill-opacity="0.02"/>
<path d="M58 108C85.6142 108 108 85.6142 108 58C108 30.3858 85.6142 8 58 8C30.3858 8 8 30.3858 8 58C8 85.6142 30.3858 108 58 108Z" fill="#A3894A"/>
<path fill-rule="evenodd" clip-rule="evenodd" d="M25 89H90V80H25V89Z" fill="#202122"/>
<path fill-rule="evenodd" clip-rule="evenodd" d="M84 80H90V24H84V80Z" fill="#202122"/>
<path fill-rule="evenodd" clip-rule="evenodd" d="M49 30H89V24H49V30Z" fill="#202122"/>
<path fill-rule="evenodd" clip-rule="evenodd" d="M74 43.5C74 47.0923 71.088 50 67.5 50C63.912 50 61 47.0923 61 43.5C61 39.9077 63.912 37 67.5 37C71.088 37 74 39.9077 74 43.5Z" fill="#202122"/>
<path fill-rule="evenodd" clip-rule="evenodd" d="M43 47H49V24H43V47Z" fill="#202122"/>
<path fill-rule="evenodd" clip-rule="evenodd" d="M73 80H61L53 58.3333L57 54H77L81 58.3333L73 80Z" fill="#202122"/>
<path fill-rule="evenodd" clip-rule="evenodd" d="M56.2829 54L46.8488 66.4583L39.3015 58.3125L35 62.625L46.8488 77L61 62.625L56.2829 54Z" fill="#202122"/>
<path fill-rule="evenodd" clip-rule="evenodd" d="M23 57H40V47H23V57Z" fill="#202122"/>
</svg>
