<?xml version="1.0" encoding="UTF-8"?>
<svg width="60px" height="60px" viewBox="0 0 60 60" version="1.1" xmlns="http://www.w3.org/2000/svg" xmlns:xlink="http://www.w3.org/1999/xlink">
    <title>parking/poi_parking_mix_green_6</title>
    <g id="parking/poi_parking_mix_green_6" stroke="none" stroke-width="1" fill="none" fill-rule="evenodd">
        <g id="Group-2">
            <path d="M60,60 C60,43.4314575 46.5685425,30 30,30 C13.4314575,30 0,43.4314575 0,60" id="Oval" fill="#4FA078" transform="translate(30.000000, 45.000000) scale(1, -1) translate(-30.000000, -45.000000) "></path>
            <path d="M60,30 C60,13.4314575 46.5685425,0 30,0 C13.4314575,0 0,13.4314575 0,30" id="Oval" fill="#5B7A90"></path>
        </g>
        <path d="M36.5,32.5 L19.5,32.5 L19.5,12.5 L36.5,12.5 C42.022,12.5 46.5,16.977 46.5,22.5 C46.5,28.023 42.022,32.5 36.5,32.5 Z" id="Stroke-1" stroke="#202122" stroke-width="5"></path>
        <line x1="19.5" y1="25" x2="19.5" y2="49" id="Stroke-3" stroke="#202122" stroke-width="5"></line>
    </g>
</svg>