<?xml version="1.0" encoding="UTF-8"?>
<svg width="60px" height="60px" viewBox="0 0 60 60" version="1.1" xmlns="http://www.w3.org/2000/svg" xmlns:xlink="http://www.w3.org/1999/xlink">
    <title>sight/poi_police_7</title>
    <g id="sight/poi_police_7" stroke="none" stroke-width="1" fill="none" fill-rule="evenodd">
        <g id="Page-1" transform="translate(6.000000, 7.000000)">
            <path d="M40,34 L24,34 L8,34 L8,38.6666667 C8,38.6666667 12,48 24,48 C36,48 40,38.6666667 40,38.6666667 L40,34 Z" id="Fill-1" stroke="#202122" stroke-width="5"></path>
            <circle id="Oval" fill="#FFFFFF" cx="24" cy="16" r="8"></circle>
            <path d="M24,23 C20.136,23 17,19.8663333 17,16 C17,12.1336667 20.136,9 24,9 C27.8663333,9 31,12.1336667 31,16 C31,19.8663333 27.8663333,23 24,23 M0,17.1428571 C0,25.7142857 8,30 8,30 L40,30 C40,30 48,25.7142857 48,17.1428571 C48,8.57142857 40,0 24,0 C8,0 0,8.57142857 0,17.1428571 Z" id="Fill-3" stroke="#202122" stroke-width="5"></path>
        </g>
        <g id="Page-1" transform="translate(6.000000, 7.000000)" fill="#646464">
            <path d="M40,34 L24,34 L8,34 L8,38.6666667 C8,38.6666667 12,48 24,48 C36,48 40,38.6666667 40,38.6666667 L40,34 Z" id="Fill-1"></path>
            <path d="M24,23 C20.136,23 17,19.8663333 17,16 C17,12.1336667 20.136,9 24,9 C27.8663333,9 31,12.1336667 31,16 C31,19.8663333 27.8663333,23 24,23 M0,17.1428571 C0,25.7142857 8,30 8,30 L40,30 C40,30 48,25.7142857 48,17.1428571 C48,8.57142857 40,0 24,0 C8,0 0,8.57142857 0,17.1428571 Z" id="Fill-3"></path>
        </g>
    </g>
</svg>