<svg width="116" height="116" viewBox="0 0 116 116" fill="none" xmlns="http://www.w3.org/2000/svg">
<path d="M58 116C90.0325 116 116 90.0325 116 58C116 25.9675 90.0325 0 58 0C25.9675 0 0 25.9675 0 58C0 90.0325 25.9675 116 58 116Z" fill="black" fill-opacity="0.02"/>
<path d="M58 114C88.9279 114 114 88.9279 114 58C114 27.0721 88.9279 2 58 2C27.0721 2 2 27.0721 2 58C2 88.9279 27.0721 114 58 114Z" fill="black" fill-opacity="0.02"/>
<path d="M58 112C87.8234 112 112 87.8234 112 58C112 28.1766 87.8234 4 58 4C28.1766 4 4 28.1766 4 58C4 87.8234 28.1766 112 58 112Z" fill="black" fill-opacity="0.02"/>
<path d="M58 110C86.7188 110 110 86.7188 110 58C110 29.2812 86.7188 6 58 6C29.2812 6 6 29.2812 6 58C6 86.7188 29.2812 110 58 110Z" fill="black" fill-opacity="0.02"/>
<path d="M58 108C85.6142 108 108 85.6142 108 58C108 30.3858 85.6142 8 58 8C30.3858 8 8 30.3858 8 58C8 85.6142 30.3858 108 58 108Z" fill="#61788C"/>
<path fill-rule="evenodd" clip-rule="evenodd" d="M70.1429 82.2857C55.3893 82.2857 43.4286 70.325 43.4286 55.5714C43.4286 40.8179 55.3893 28.8571 70.1429 28.8571C72.4961 28.8571 74.7644 29.1923 76.938 29.763C71.5247 26.125 65.0113 24 58 24C38.5714 24 24 38.5714 24 58C24 77.4286 38.5714 92 58 92C69.8271 92 80.236 85.9553 86.3269 76.7899C81.8316 80.2239 76.2361 82.2857 70.1429 82.2857Z" fill="#202122"/>
<path fill-rule="evenodd" clip-rule="evenodd" d="M77.4286 37.949L81.9311 47.0731L92 48.5351L84.7143 55.6387L86.4337 65.6663L77.4286 60.9305L68.4234 65.6663L70.1429 55.6387L62.8571 48.5351L72.926 47.0731L77.4286 37.949Z" fill="#202122"/>
</svg>
