<svg width="116" height="116" viewBox="0 0 116 116" fill="none" xmlns="http://www.w3.org/2000/svg">
<path d="M58 116C90.0325 116 116 90.0325 116 58C116 25.9675 90.0325 0 58 0C25.9675 0 0 25.9675 0 58C0 90.0325 25.9675 116 58 116Z" fill="black" fill-opacity="0.02"/>
<path d="M58 114C88.9279 114 114 88.9279 114 58C114 27.0721 88.9279 2 58 2C27.0721 2 2 27.0721 2 58C2 88.9279 27.0721 114 58 114Z" fill="black" fill-opacity="0.02"/>
<path d="M58 112C87.8234 112 112 87.8234 112 58C112 28.1766 87.8234 4 58 4C28.1766 4 4 28.1766 4 58C4 87.8234 28.1766 112 58 112Z" fill="black" fill-opacity="0.02"/>
<path d="M58 110C86.7188 110 110 86.7188 110 58C110 29.2812 86.7188 6 58 6C29.2812 6 6 29.2812 6 58C6 86.7188 29.2812 110 58 110Z" fill="black" fill-opacity="0.02"/>
<path d="M58 108C85.6142 108 108 85.6142 108 58C108 30.3858 85.6142 8 58 8C30.3858 8 8 30.3858 8 58C8 85.6142 30.3858 108 58 108Z" fill="#59806E"/>
<path fill-rule="evenodd" clip-rule="evenodd" d="M48.0864 70C42.6124 70 37.9392 66.3472 37.0404 61.3665L33 39H89L84.9568 61.3665C84.058 66.3472 79.3848 70 73.9108 70H48.0864Z" fill="#202122"/>
<path fill-rule="evenodd" clip-rule="evenodd" d="M39 39C39 32.9253 33.9255 28 28 28H22V33H28C30.7918 34.5 33.3333 35.9667 33 39H39Z" fill="#202122"/>
<path fill-rule="evenodd" clip-rule="evenodd" d="M47 87C49.2091 87 51 85.2091 51 83C51 80.7909 49.2091 79 47 79C44.7909 79 43 80.7909 43 83C43 85.2091 44.7909 87 47 87ZM47 92C42.0294 92 38 87.9706 38 83C38 78.0294 42.0294 74 47 74C51.9706 74 56 78.0294 56 83C56 87.9706 51.9706 92 47 92Z" fill="#202122"/>
<path fill-rule="evenodd" clip-rule="evenodd" d="M73 87C75.2091 87 77 85.2091 77 83C77 80.7909 75.2091 79 73 79C70.7909 79 69 80.7909 69 83C69 85.2091 70.7909 87 73 87ZM73 92C68.0294 92 64 87.9706 64 83C64 78.0294 68.0294 74 73 74C77.9706 74 82 78.0294 82 83C82 87.9706 77.9706 92 73 92Z" fill="#202122"/>
</svg>
