<svg width="116" height="116" viewBox="0 0 116 116" fill="none" xmlns="http://www.w3.org/2000/svg">
<path d="M58 116C90.0325 116 116 90.0325 116 58C116 25.9675 90.0325 0 58 0C25.9675 0 0 25.9675 0 58C0 90.0325 25.9675 116 58 116Z" fill="black" fill-opacity="0.02"/>
<path d="M58 114C88.9279 114 114 88.9279 114 58C114 27.0721 88.9279 2 58 2C27.0721 2 2 27.0721 2 58C2 88.9279 27.0721 114 58 114Z" fill="black" fill-opacity="0.02"/>
<path d="M58 112C87.8234 112 112 87.8234 112 58C112 28.1766 87.8234 4 58 4C28.1766 4 4 28.1766 4 58C4 87.8234 28.1766 112 58 112Z" fill="black" fill-opacity="0.02"/>
<path d="M58 110C86.7188 110 110 86.7188 110 58C110 29.2812 86.7188 6 58 6C29.2812 6 6 29.2812 6 58C6 86.7188 29.2812 110 58 110Z" fill="black" fill-opacity="0.02"/>
<path d="M58 108C85.6142 108 108 85.6142 108 58C108 30.3858 85.6142 8 58 8C30.3858 8 8 30.3858 8 58C8 85.6142 30.3858 108 58 108Z" fill="#A3894A"/>
<path fill-rule="evenodd" clip-rule="evenodd" d="M40.2308 22.9998L36.4231 28.1998L26.2692 30.8024L25 35.9998L27.5385 37.3024V35.9998H32.6128L35.1538 38.5998L40.2308 37.3024V43.7998L35.1538 56.8024V61.9998L32.6128 67.1998L30.0744 69.7998L32.5722 72.223L39.2002 79.4406L42.7692 80.2024V77.6024H40.2308L35.1538 72.4024L40.2308 64.5998L45.3077 61.9998L47.8462 75.0024V85.3998V87.9998H50.3846V85.3998V80.2024L52.9205 67.1998L58 61.9998H63.0769L69.4231 73.6998L65.6154 85.3998V87.9998H68.1538V85.3998L73.2308 75.0024V72.4024L70.6923 61.9998L75.7667 72.4024L80.8462 75.0024V87.9998H83.3846V85.3998V72.4024L80.8462 69.7998L78.3052 61.9998L80.8462 56.8024V51.5998L78.3052 49.0024L80.8462 46.3998L83.6664 50.4428V61.7112L91 69.2226V56.8024L88.4615 46.3998L80.8462 43.7998L75.7667 46.3998L70.6923 45.1024L65.6154 46.3998H55.459L50.3846 43.7998L46.5769 32.0998L40.2308 28.1998V22.9998Z" fill="#202122"/>
</svg>
