<svg width="116" height="116" viewBox="0 0 116 116" fill="none" xmlns="http://www.w3.org/2000/svg">
<g clip-path="url(#clip0_1_389)">
<path d="M58 114C90.0325 114 116 88.0325 116 56C116 23.9675 90.0325 -2 58 -2C25.9675 -2 0 23.9675 0 56C0 88.0325 25.9675 114 58 114Z" fill="black" fill-opacity="0.02"/>
<path d="M58 112C88.9279 112 114 86.9279 114 56C114 25.0721 88.9279 0 58 0C27.0721 0 2 25.0721 2 56C2 86.9279 27.0721 112 58 112Z" fill="black" fill-opacity="0.02"/>
<path d="M58 110C87.8234 110 112 85.8234 112 56C112 26.1766 87.8234 2 58 2C28.1766 2 4 26.1766 4 56C4 85.8234 28.1766 110 58 110Z" fill="black" fill-opacity="0.02"/>
<path d="M58 108C86.7188 108 110 84.7188 110 56C110 27.2812 86.7188 4 58 4C29.2812 4 6 27.2812 6 56C6 84.7188 29.2812 108 58 108Z" fill="black" fill-opacity="0.02"/>
<path d="M58 106C85.6142 106 108 83.6142 108 56C108 28.3858 85.6142 6 58 6C30.3858 6 8 28.3858 8 56C8 83.6142 30.3858 106 58 106Z" fill="#61788C"/>
<path fill-rule="evenodd" clip-rule="evenodd" d="M78 36V80H74H42C40.0233 80 37.9378 78.9744 37.9378 75.6258C37.9378 72.2771 40.0501 71 42 71H74V27H42C37.4784 27 33 31.4233 33 36V77C33 81.8482 37.4784 85 42 85H74H83V80V36H78Z" fill="#202122"/>
</g>
<defs>
<clipPath id="clip0_1_389">
<rect width="116" height="116" fill="white"/>
</clipPath>
</defs>
</svg>
