<svg width="116" height="116" viewBox="0 0 116 116" fill="none" xmlns="http://www.w3.org/2000/svg">
<path d="M58 116C90.0325 116 116 90.0325 116 58C116 25.9675 90.0325 0 58 0C25.9675 0 0 25.9675 0 58C0 90.0325 25.9675 116 58 116Z" fill="black" fill-opacity="0.02"/>
<path d="M58 114C88.9279 114 114 88.9279 114 58C114 27.0721 88.9279 2 58 2C27.0721 2 2 27.0721 2 58C2 88.9279 27.0721 114 58 114Z" fill="black" fill-opacity="0.02"/>
<path d="M58 112C87.8234 112 112 87.8234 112 58C112 28.1766 87.8234 4 58 4C28.1766 4 4 28.1766 4 58C4 87.8234 28.1766 112 58 112Z" fill="black" fill-opacity="0.02"/>
<path d="M58 110C86.7188 110 110 86.7188 110 58C110 29.2812 86.7188 6 58 6C29.2812 6 6 29.2812 6 58C6 86.7188 29.2812 110 58 110Z" fill="black" fill-opacity="0.02"/>
<path d="M58 108C85.6142 108 108 85.6142 108 58C108 30.3858 85.6142 8 58 8C30.3858 8 8 30.3858 8 58C8 85.6142 30.3858 108 58 108Z" fill="#A3894A"/>
<path fill-rule="evenodd" clip-rule="evenodd" d="M49 65V49L65 65H49ZM66.0376 24C54.465 24 44.8094 32.2313 42.5671 43.1752L42.4964 43.1044L39.1341 69.7569L24 85.2758V90H28.7067L44.1789 74.8177L65.851 72.0646C65.914 72.0672 65.9745 72.0748 66.0376 72.0748C79.2699 72.0748 90 61.3105 90 48.0361C90 34.7617 79.2699 24 66.0376 24Z" fill="#202122"/>
<path fill-rule="evenodd" clip-rule="evenodd" d="M67 89C67 84.5813 70.5813 81 75 81C79.416 81 83 84.5813 83 89C83 93.4187 79.416 97 75 97C70.5813 97 67 93.4187 67 89Z" fill="#202122"/>
</svg>
