<svg width="116" height="116" viewBox="0 0 116 116" fill="none" xmlns="http://www.w3.org/2000/svg">
<path d="M58 116C90.0325 116 116 90.0325 116 58C116 25.9675 90.0325 0 58 0C25.9675 0 0 25.9675 0 58C0 90.0325 25.9675 116 58 116Z" fill="black" fill-opacity="0.02"/>
<path d="M58 114C88.9279 114 114 88.9279 114 58C114 27.0721 88.9279 2 58 2C27.0721 2 2 27.0721 2 58C2 88.9279 27.0721 114 58 114Z" fill="black" fill-opacity="0.02"/>
<path d="M58 112C87.8234 112 112 87.8234 112 58C112 28.1766 87.8234 4 58 4C28.1766 4 4 28.1766 4 58C4 87.8234 28.1766 112 58 112Z" fill="black" fill-opacity="0.02"/>
<path d="M58 110C86.7188 110 110 86.7188 110 58C110 29.2812 86.7188 6 58 6C29.2812 6 6 29.2812 6 58C6 86.7188 29.2812 110 58 110Z" fill="black" fill-opacity="0.02"/>
<path d="M58 108C85.6142 108 108 85.6142 108 58C108 30.3858 85.6142 8 58 8C30.3858 8 8 30.3858 8 58C8 85.6142 30.3858 108 58 108Z" fill="#59806E"/>
<path fill-rule="evenodd" clip-rule="evenodd" d="M72 34.5C72 42.5064 65.5064 49 57.5 49C49.4936 49 43 42.5064 43 34.5C43 26.4936 49.4936 20 57.5 20C65.5064 20 72 26.4936 72 34.5Z" fill="#202122"/>
<path fill-rule="evenodd" clip-rule="evenodd" d="M86 53.5C86 61.5064 79.7303 68 72 68C64.2697 68 58 61.5064 58 53.5C58 45.4936 64.2697 39 72 39C79.7303 39 86 45.4936 86 53.5Z" fill="#202122"/>
<path fill-rule="evenodd" clip-rule="evenodd" d="M58 53.5C58 61.5064 51.7303 68 44 68C36.2697 68 30 61.5064 30 53.5C30 45.4936 36.2697 39 44 39C51.7303 39 58 45.4936 58 53.5Z" fill="#202122"/>
<path fill-rule="evenodd" clip-rule="evenodd" d="M68 85H48C45.24 85 43 87.688 43 91H73C73 87.688 70.76 85 68 85Z" fill="#202122"/>
<path fill-rule="evenodd" clip-rule="evenodd" d="M55 91H61V43H55V91Z" fill="#202122"/>
</svg>
