<svg width="116" height="116" viewBox="0 0 116 116" fill="none" xmlns="http://www.w3.org/2000/svg">
<path d="M58 116C90.0325 116 116 90.0325 116 58C116 25.9675 90.0325 0 58 0C25.9675 0 0 25.9675 0 58C0 90.0325 25.9675 116 58 116Z" fill="black" fill-opacity="0.02"/>
<path d="M58 114C88.9279 114 114 88.9279 114 58C114 27.0721 88.9279 2 58 2C27.0721 2 2 27.0721 2 58C2 88.9279 27.0721 114 58 114Z" fill="black" fill-opacity="0.02"/>
<path d="M58 112C87.8234 112 112 87.8234 112 58C112 28.1766 87.8234 4 58 4C28.1766 4 4 28.1766 4 58C4 87.8234 28.1766 112 58 112Z" fill="black" fill-opacity="0.02"/>
<path d="M58 110C86.7188 110 110 86.7188 110 58C110 29.2812 86.7188 6 58 6C29.2812 6 6 29.2812 6 58C6 86.7188 29.2812 110 58 110Z" fill="black" fill-opacity="0.02"/>
<path d="M58 108C85.6142 108 108 85.6142 108 58C108 30.3858 85.6142 8 58 8C30.3858 8 8 30.3858 8 58C8 85.6142 30.3858 108 58 108Z" fill="#61788C"/>
<path fill-rule="evenodd" clip-rule="evenodd" d="M75 48C75 58.2689 66.2689 67 56.5263 67C44.7311 67 36 58.2689 36 48C36 36.7311 44.7311 28 56.5263 28C66.2689 28 75 36.7311 75 48Z" fill="#202122"/>
<path fill-rule="evenodd" clip-rule="evenodd" d="M73 29.8413C78.1232 34.0401 80.4286 39.9132 80.4286 47.127C80.4286 61.559 70.1583 73 56.2857 73C48.9046 73 42.1751 69.0827 37.7143 62.4921L34 66.3333C39.3849 73.5743 47.5331 77.8571 56.2857 77.8571C72.8631 77.8571 86 64.3446 86 47.127C86 39.163 82.5593 31.4875 76.7143 26L73 29.8413Z" fill="#202122"/>
<path fill-rule="evenodd" clip-rule="evenodd" d="M49.0533 84C46.2187 84 42 87.584 42 92H71C71 87.584 65.8421 84 63.0074 84H49.0533Z" fill="#202122"/>
<path fill-rule="evenodd" clip-rule="evenodd" d="M53 92H60V76H53V92Z" fill="#202122"/>
</svg>
