<svg width="116" height="116" viewBox="0 0 116 116" fill="none" xmlns="http://www.w3.org/2000/svg">
<path d="M58 116C90.0325 116 116 90.0325 116 58C116 25.9675 90.0325 0 58 0C25.9675 0 0 25.9675 0 58C0 90.0325 25.9675 116 58 116Z" fill="black" fill-opacity="0.02"/>
<path d="M58 114C88.9279 114 114 88.9279 114 58C114 27.0721 88.9279 2 58 2C27.0721 2 2 27.0721 2 58C2 88.9279 27.0721 114 58 114Z" fill="black" fill-opacity="0.02"/>
<path d="M58 112C87.8234 112 112 87.8234 112 58C112 28.1766 87.8234 4 58 4C28.1766 4 4 28.1766 4 58C4 87.8234 28.1766 112 58 112Z" fill="black" fill-opacity="0.02"/>
<path d="M58 110C86.7188 110 110 86.7188 110 58C110 29.2812 86.7188 6 58 6C29.2812 6 6 29.2812 6 58C6 86.7188 29.2812 110 58 110Z" fill="black" fill-opacity="0.02"/>
<path d="M58 108C85.6142 108 108 85.6142 108 58C108 30.3858 85.6142 8 58 8C30.3858 8 8 30.3858 8 58C8 85.6142 30.3858 108 58 108Z" fill="#59806E"/>
<path fill-rule="evenodd" clip-rule="evenodd" d="M37 39H42V23H37V39Z" fill="#202122"/>
<path fill-rule="evenodd" clip-rule="evenodd" d="M56 39H61V23H56V39Z" fill="#202122"/>
<path fill-rule="evenodd" clip-rule="evenodd" d="M56.7143 71H41.2857C35.608 71 31 66.2213 31 60.3333V39H67V60.3333C67 66.2213 62.392 71 56.7143 71Z" fill="#202122"/>
<path fill-rule="evenodd" clip-rule="evenodd" d="M76.7652 39V76.1429C76.7652 81.3629 72.2357 85.7607 67.3419 85.7607H60.6766C57.1835 85.7607 51.3857 81.1716 51.3857 76.1429V68.7143H46V76.1429C46 84.0164 52.9069 91 60.4 91H67.6C75.0931 91 82 84.0164 82 76.1429V39H76.7652Z" fill="#202122"/>
</svg>
