<svg width="116" height="116" viewBox="0 0 116 116" fill="none" xmlns="http://www.w3.org/2000/svg">
<path d="M58 116C90.0325 116 116 90.0325 116 58C116 25.9675 90.0325 0 58 0C25.9675 0 0 25.9675 0 58C0 90.0325 25.9675 116 58 116Z" fill="black" fill-opacity="0.02"/>
<path d="M58 114C88.9279 114 114 88.9279 114 58C114 27.0721 88.9279 2 58 2C27.0721 2 2 27.0721 2 58C2 88.9279 27.0721 114 58 114Z" fill="black" fill-opacity="0.02"/>
<path d="M58 112C87.8234 112 112 87.8234 112 58C112 28.1766 87.8234 4 58 4C28.1766 4 4 28.1766 4 58C4 87.8234 28.1766 112 58 112Z" fill="black" fill-opacity="0.02"/>
<path d="M58 110C86.7188 110 110 86.7188 110 58C110 29.2812 86.7188 6 58 6C29.2812 6 6 29.2812 6 58C6 86.7188 29.2812 110 58 110Z" fill="black" fill-opacity="0.02"/>
<path d="M58 108C85.6142 108 108 85.6142 108 58C108 30.3858 85.6142 8 58 8C30.3858 8 8 30.3858 8 58C8 85.6142 30.3858 108 58 108Z" fill="#61788C"/>
<path fill-rule="evenodd" clip-rule="evenodd" d="M74.4545 72.5714C68.7312 72.5714 64.0909 76.921 64.0909 82.2857C64.0909 87.6504 68.7312 92 74.4545 92C80.1778 92 84.8182 87.6504 84.8182 82.2857C84.8182 76.921 80.1778 72.5714 74.4545 72.5714ZM74.4545 77.4286C77.3123 77.4286 79.6363 79.607 79.6363 82.2857C79.6363 84.9644 77.3123 87.1429 74.4545 87.1429C71.5967 87.1429 69.2727 84.9644 69.2727 82.2857C69.2727 79.607 71.5967 77.4286 74.4545 77.4286Z" fill="#202122"/>
<path fill-rule="evenodd" clip-rule="evenodd" d="M70 77.0367H78.8919L79 43.0947H70V77.0367Z" fill="#202122"/>
<path fill-rule="evenodd" clip-rule="evenodd" d="M88.9981 33.5258L82.8913 39.25C81.2046 40.831 78.4712 40.831 76.7819 39.25L73.7299 36.3891C72.0432 34.8081 72.0432 32.246 73.7299 30.665L79.8366 24.9408C80.0439 24.7465 80.3056 24.6494 80.5362 24.5037C79.4221 24.2098 78.2639 24.001 77.0462 24.001C69.8901 24.001 64.0917 29.4361 64.0917 36.1438C64.0917 42.8491 69.8901 48.2867 77.0462 48.2867C84.1997 48.2867 90.0008 42.8491 90.0008 36.1438C90.0008 35 89.7779 33.9168 89.4644 32.8677C89.3064 33.0887 89.2028 33.3315 88.9981 33.5258Z" fill="#202122"/>
<path fill-rule="evenodd" clip-rule="evenodd" d="M49.0587 92H38.1818L33 87.1404V63.0289H38.952V43.1789L33 38.5714L41.0673 24H45.9545L53.7273 38.5714L48.0389 43.1789V63.0289H53.9572V86.9543L49.0587 92Z" fill="#202122"/>
</svg>
