<svg width="116" height="116" viewBox="0 0 116 116" fill="none" xmlns="http://www.w3.org/2000/svg">
<path d="M58 116C90.0325 116 116 90.0325 116 58C116 25.9675 90.0325 0 58 0C25.9675 0 0 25.9675 0 58C0 90.0325 25.9675 116 58 116Z" fill="black" fill-opacity="0.02"/>
<path d="M58 114C88.9279 114 114 88.9279 114 58C114 27.0721 88.9279 2 58 2C27.0721 2 2 27.0721 2 58C2 88.9279 27.0721 114 58 114Z" fill="black" fill-opacity="0.02"/>
<path d="M58 112C87.8234 112 112 87.8234 112 58C112 28.1766 87.8234 4 58 4C28.1766 4 4 28.1766 4 58C4 87.8234 28.1766 112 58 112Z" fill="black" fill-opacity="0.02"/>
<path d="M58 110C86.7188 110 110 86.7188 110 58C110 29.2812 86.7188 6 58 6C29.2812 6 6 29.2812 6 58C6 86.7188 29.2812 110 58 110Z" fill="black" fill-opacity="0.02"/>
<path d="M58 108C85.6142 108 108 85.6142 108 58C108 30.3858 85.6142 8 58 8C30.3858 8 8 30.3858 8 58C8 85.6142 30.3858 108 58 108Z" fill="#A3894A"/>
<path fill-rule="evenodd" clip-rule="evenodd" d="M28.8571 62.8571L38.5714 53.1429L62.8571 77.4286L53.1428 87.1429L28.8571 62.8571Z" fill="#202122"/>
<path fill-rule="evenodd" clip-rule="evenodd" d="M53.1429 38.5714L62.8572 28.8571L87.1429 53.1429L77.4286 62.8571L53.1429 38.5714Z" fill="#202122"/>
<path fill-rule="evenodd" clip-rule="evenodd" d="M65.2857 43.4286L72.5714 50.7143L48.2857 75L41 67.7143L65.2857 43.4286Z" fill="#202122"/>
<path fill-rule="evenodd" clip-rule="evenodd" d="M77.4276 24.0002L72.5704 28.8574L87.1443 43.4288L91.999 38.5717L77.4276 24.0002Z" fill="#202122"/>
<path fill-rule="evenodd" clip-rule="evenodd" d="M24 77.4278L38.5714 91.9993L43.4286 87.1445L28.8571 72.5707L24 77.4278Z" fill="#202122"/>
</svg>
