<svg width="38" height="38" viewBox="0 0 38 38" fill="none" xmlns="http://www.w3.org/2000/svg">
<path d="M14.25 20H3.75C1.67893 20 0 21.6789 0 23.75V34.25C0 36.3211 1.67893 38 3.75 38H14.25C16.3211 38 18 36.3211 18 34.25V23.75C18 21.6789 16.3211 20 14.25 20Z" fill="#EC0003"/>
<path fill-rule="evenodd" clip-rule="evenodd" d="M6.22727 34.75L4.75 36.75H6.52273L8 34.75H6.22727Z" fill="white"/>
<path fill-rule="evenodd" clip-rule="evenodd" d="M10 34.75L11.4773 36.75H13.25L11.7727 34.75H10Z" fill="white"/>
<path fill-rule="evenodd" clip-rule="evenodd" d="M9.13889 24.5C8.30964 24.5 7.75 23.9404 7.75 23.3889C7.75 22.5596 8.30964 22 9.13889 22C9.69036 22 10.25 22.5596 10.25 23.3889C10.25 23.9404 9.69036 24.5 9.13889 24.5ZM9.13235 21C7.75736 21 6.75 22.0074 6.75 23.3824C6.75 24.4926 7.75736 25.5 9.13235 25.5C10.2426 25.5 11.25 24.4926 11.25 23.3824C11.25 22.0074 10.2426 21 9.13235 21Z" fill="white"/>
<path fill-rule="evenodd" clip-rule="evenodd" d="M14.25 29.5H13V25.5H8.5L10 24.75L10.5 23L14.25 23.75V29.5Z" fill="white"/>
<path fill-rule="evenodd" clip-rule="evenodd" d="M3.75 29.5H5V25.5H9.5L8 24.75L7.5 23L3.75 23.75V29.5Z" fill="white"/>
<path fill-rule="evenodd" clip-rule="evenodd" d="M3.75 29.5V32.2321C3.75 33.0703 4.44146 33.75 5.29412 33.75H12.7059C13.5585 33.75 14.25 33.0703 14.25 32.2321V29.5H3.75Z" fill="white"/>
<g clip-path="url(#clip0_2320_9588)">
<path d="M34.25 20H23.75C21.6789 20 20 21.6789 20 23.75V34.25C20 36.3211 21.6789 38 23.75 38H34.25C36.3211 38 38 36.3211 38 34.25V23.75C38 21.6789 36.3211 20 34.25 20Z" fill="#EB1C23"/>
<path d="M30.9563 26.5823L29.4447 24.266C29.4214 24.2312 29.4042 24.1679 29.4042 24.127V22.9113C29.4042 22.7093 29.2657 22.5442 29.0782 22.5H28.8763C28.6888 22.5442 28.5501 22.7093 28.5501 22.9113V24.127C28.5501 24.1679 28.5329 24.2312 28.5099 24.266L26.998 26.5823C26.975 26.6169 26.975 26.6749 27.0038 26.7034L27.3904 27.2423C27.4135 27.2769 27.4598 27.2769 27.4827 27.2423L28.504 25.818C28.5271 25.7834 28.5501 25.7887 28.5501 25.8352V27.6304C28.5501 27.6705 28.5157 27.7054 28.4751 27.7054H28.2907C28.2444 27.7054 28.2156 27.74 28.2156 27.7809V28.0992C28.2156 28.1396 28.2444 28.1745 28.2907 28.1745H29.664C29.7044 28.1745 29.7389 28.1396 29.7389 28.0992V27.7809C29.7389 27.74 29.7044 27.7054 29.664 27.7054H29.4792C29.4389 27.7054 29.4042 27.6705 29.4042 27.6304V25.8352C29.4042 25.795 29.4271 25.7887 29.4505 25.818L30.4716 27.2423C30.4947 27.2769 30.5356 27.2769 30.5639 27.2423L30.9509 26.7034C30.9739 26.6749 30.9794 26.6169 30.9563 26.5823" fill="white"/>
<path d="M26.698 26.8022L24.0379 27.5263C23.9976 27.5378 23.9283 27.5378 23.8878 27.5263L22.7396 27.1496C22.5146 27.0747 22.2723 27.1958 22.1973 27.422C22.1886 27.4502 22.183 27.4786 22.1801 27.5069V27.5952C22.1967 27.7609 22.3067 27.9099 22.4743 27.9659L23.6225 28.3365C23.6629 28.354 23.7207 28.3887 23.7436 28.4235L25.4747 30.583C25.4977 30.612 25.5555 30.6292 25.5901 30.612L26.2191 30.4093C26.2594 30.3978 26.2709 30.3572 26.2479 30.3225L25.215 28.904C25.192 28.8692 25.2035 28.8517 25.2439 28.8692L26.946 29.4193C26.9865 29.4367 27.0037 29.4772 26.9922 29.5177L26.9345 29.6914C26.923 29.7319 26.946 29.7783 26.9865 29.7898L27.2866 29.8882C27.3268 29.8998 27.3673 29.8767 27.3846 29.8361L27.8059 28.5276C27.8232 28.4872 27.8 28.4407 27.7597 28.4292L27.4597 28.3307C27.4191 28.3192 27.3731 28.3423 27.3616 28.3828L27.3038 28.5565C27.2923 28.5971 27.2462 28.6203 27.2114 28.6029L25.5092 28.0529C25.4689 28.0356 25.4689 28.0182 25.5092 28.0006L27.1711 27.4683C27.2114 27.4568 27.2229 27.4159 27.1999 27.3812L26.8134 26.8486C26.7903 26.8076 26.7383 26.7907 26.698 26.8022" fill="white"/>
<path d="M25.5902 30.9361L25.4517 33.6981C25.4517 33.7385 25.4285 33.8022 25.4056 33.8369L24.6901 34.8213C24.5517 35.0122 24.5978 35.2786 24.7882 35.4175C24.9786 35.5565 25.244 35.516 25.3825 35.325L26.0981 34.3408C26.1211 34.3059 26.1731 34.2653 26.2134 34.2538L28.7927 33.2695C28.833 33.2522 28.862 33.2057 28.8562 33.1653L28.862 32.5053C28.8562 32.459 28.8214 32.4358 28.7812 32.4473L27.1251 32.9974C27.0847 33.009 27.0732 32.9917 27.0962 32.9569L28.1464 31.5095C28.1753 31.4746 28.2214 31.4631 28.256 31.492L28.4004 31.5962C28.4348 31.6252 28.4869 31.6137 28.51 31.5789L28.6946 31.3241C28.7176 31.2894 28.7118 31.2431 28.6772 31.2199L27.5636 30.4093C27.5289 30.3803 27.4828 30.392 27.4598 30.4209L27.2751 30.6814C27.2463 30.7161 27.2578 30.7626 27.2924 30.7856L27.4367 30.8955C27.4713 30.9188 27.4828 30.971 27.4541 30.9998L26.4039 32.453C26.3808 32.4878 26.3576 32.4821 26.3576 32.4415L26.3691 30.6872C26.3633 30.6466 26.3345 30.6177 26.2942 30.6292L25.6652 30.8378C25.6249 30.8493 25.5902 30.8898 25.5902 30.9361" fill="white"/>
<path d="M29.162 33.2695L31.7409 34.2538C31.7755 34.2653 31.8278 34.3059 31.8562 34.3408L32.5662 35.325C32.7048 35.516 32.9762 35.5565 33.1662 35.4175C33.357 35.2786 33.397 35.0122 33.2585 34.8213L32.5492 33.8369C32.5262 33.8022 32.5032 33.7385 32.4972 33.6981L32.3639 30.9361C32.3639 30.8898 32.3293 30.8493 32.2894 30.8378L31.66 30.6292C31.6201 30.6177 31.5855 30.6466 31.5855 30.6872L31.597 32.4415C31.5909 32.4821 31.574 32.4878 31.5446 32.453L30.4947 31.0055C30.4716 30.971 30.4777 30.9188 30.5124 30.8955L30.6624 30.7856C30.697 30.7626 30.7024 30.7161 30.6793 30.6814L30.4947 30.4267C30.4663 30.392 30.4202 30.3803 30.3854 30.4093L29.2715 31.2199C29.237 31.2431 29.2313 31.2894 29.2542 31.3241L29.4448 31.5847C29.4678 31.6137 29.5138 31.6252 29.5485 31.5962L29.6984 31.492C29.7332 31.4631 29.7793 31.4746 29.8023 31.5095L30.8524 32.9569C30.8816 32.9917 30.864 33.009 30.8239 32.9974L29.1678 32.4473C29.1274 32.4358 29.0927 32.459 29.0927 32.5053V33.1653C29.0927 33.2057 29.1215 33.2522 29.162 33.2695" fill="white"/>
<path d="M32.4802 30.583L34.2047 28.4235C34.2339 28.3944 34.2856 28.354 34.3262 28.3423L35.4802 27.9659C35.7056 27.8907 35.8264 27.6474 35.7571 27.422C35.6825 27.1958 35.4401 27.0747 35.2149 27.1496L34.0664 27.5263C34.0263 27.5378 33.9571 27.5378 33.9163 27.5263L31.2562 26.8022C31.2163 26.7907 31.1641 26.8076 31.1409 26.8486L30.7488 27.3812C30.7254 27.4159 30.7433 27.4568 30.7832 27.4683L32.4448 28.0006C32.4855 28.0182 32.4855 28.0414 32.4448 28.0529L30.7433 28.6086C30.7025 28.6203 30.6624 28.5971 30.6448 28.5565L30.5931 28.3828C30.5755 28.3423 30.5356 28.3192 30.4948 28.3307L30.1946 28.4292C30.1548 28.4465 30.1316 28.4872 30.1433 28.5276L30.5701 29.842C30.5816 29.8825 30.6279 29.8998 30.6678 29.8882L30.9679 29.7898C31.0086 29.7783 31.0316 29.7319 31.0139 29.6971L30.9564 29.5177C30.9446 29.4772 30.9679 29.4367 31.0086 29.425L32.7109 28.8692C32.7509 28.8575 32.7624 28.875 32.7394 28.9097L31.7063 30.3225C31.6833 30.3572 31.6948 30.3978 31.7294 30.4093L32.3585 30.612C32.3985 30.6292 32.4508 30.612 32.4802 30.583" fill="white"/>
</g>
<defs>
<clipPath id="clip0_2320_9588">
<rect width="18" height="18" fill="white" transform="translate(20 20)"/>
</clipPath>
</defs>
</svg>
