<svg width="66" height="66" viewBox="0 0 66 66" fill="none" xmlns="http://www.w3.org/2000/svg">
<path d="M14.25 48H3.75C1.67893 48 0 49.6789 0 51.75V62.25C0 64.3211 1.67893 66 3.75 66H14.25C16.3211 66 18 64.3211 18 62.25V51.75C18 49.6789 16.3211 48 14.25 48Z" fill="#72B8EB"/>
<path fill-rule="evenodd" clip-rule="evenodd" d="M6.22727 62.75L4.75 64.75H6.52273L8 62.75H6.22727Z" fill="white"/>
<path fill-rule="evenodd" clip-rule="evenodd" d="M10 62.75L11.4773 64.75H13.25L11.7727 62.75H10Z" fill="white"/>
<path fill-rule="evenodd" clip-rule="evenodd" d="M9.13889 52.5C8.30964 52.5 7.75 51.9404 7.75 51.3889C7.75 50.5596 8.30964 50 9.13889 50C9.69036 50 10.25 50.5596 10.25 51.3889C10.25 51.9404 9.69036 52.5 9.13889 52.5ZM9.13235 49C7.75736 49 6.75 50.0074 6.75 51.3824C6.75 52.4926 7.75736 53.5 9.13235 53.5C10.2426 53.5 11.25 52.4926 11.25 51.3824C11.25 50.0074 10.2426 49 9.13235 49Z" fill="white"/>
<path fill-rule="evenodd" clip-rule="evenodd" d="M14.25 57.5H13V53.5H8.5L10 52.75L10.5 51L14.25 51.75V57.5Z" fill="white"/>
<path fill-rule="evenodd" clip-rule="evenodd" d="M3.75 57.5H5V53.5H9.5L8 52.75L7.5 51L3.75 51.75V57.5Z" fill="white"/>
<path fill-rule="evenodd" clip-rule="evenodd" d="M3.75 57.5V60.2321C3.75 61.0703 4.44146 61.75 5.29412 61.75H12.7059C13.5585 61.75 14.25 61.0703 14.25 60.2321V57.5H3.75Z" fill="white"/>
<g clip-path="url(#clip0_2320_9457)">
<path d="M22.8357 50.8848C23.0207 50.2424 23.6085 49.8 24.277 49.8H45.0023C46.0016 49.8 46.7215 50.7587 46.4428 51.7184L43.1315 63.1184C42.9453 63.7592 42.3583 64.2 41.691 64.2H20.9931C19.9952 64.2 19.2755 63.2437 19.5517 62.2848L22.8357 50.8848Z" fill="#FAA400" stroke="white" stroke-linejoin="round"/>
<path d="M38.3064 59.8043V52.7686H35.2084V54.1984H36.7878V59.8043H35.0869V61.2341H39.6341L40.2242 59.8043H38.3064Z" fill="white"/>
<path d="M32.9696 53.9631C32.1973 53.1523 31.1386 52.76 29.8195 52.76H26.062L25.6888 54.1636H27.0339V61.2254H29.8195C31.1386 61.2254 32.1973 60.8331 32.9696 60.0398C33.7332 59.2377 34.1064 58.2264 34.1064 57.0058C34.1064 55.7852 33.7332 54.7652 32.9696 53.9631ZM31.72 54.9047C32.2233 55.358 32.4923 56.0468 32.4923 56.9971C32.4923 57.9735 32.2233 58.6623 31.7113 59.1243C31.1906 59.5864 30.5398 59.8305 29.7327 59.8305H28.5786V54.1811H29.7327C30.5485 54.1811 31.1993 54.4339 31.72 54.9047Z" fill="white"/>
</g>
<g clip-path="url(#clip1_2320_9457)">
<path d="M62.25 48H51.75C49.6789 48 48 49.6789 48 51.75V62.25C48 64.3211 49.6789 66 51.75 66H62.25C64.3211 66 66 64.3211 66 62.25V51.75C66 49.6789 64.3211 48 62.25 48Z" fill="#EB1C23"/>
<path d="M58.9563 54.5823L57.4447 52.266C57.4214 52.2312 57.4042 52.1679 57.4042 52.127V50.9113C57.4042 50.7093 57.2657 50.5442 57.0782 50.5H56.8763C56.6888 50.5442 56.5501 50.7093 56.5501 50.9113V52.127C56.5501 52.1679 56.5329 52.2312 56.5099 52.266L54.998 54.5823C54.975 54.6169 54.975 54.6749 55.0038 54.7034L55.3904 55.2423C55.4135 55.2769 55.4598 55.2769 55.4827 55.2423L56.504 53.818C56.5271 53.7834 56.5501 53.7887 56.5501 53.8352V55.6304C56.5501 55.6705 56.5157 55.7054 56.4751 55.7054H56.2907C56.2444 55.7054 56.2156 55.74 56.2156 55.7809V56.0992C56.2156 56.1396 56.2444 56.1745 56.2907 56.1745H57.664C57.7044 56.1745 57.7389 56.1396 57.7389 56.0992V55.7809C57.7389 55.74 57.7044 55.7054 57.664 55.7054H57.4792C57.4389 55.7054 57.4042 55.6705 57.4042 55.6304V53.8352C57.4042 53.795 57.4271 53.7887 57.4505 53.818L58.4716 55.2423C58.4947 55.2769 58.5356 55.2769 58.5639 55.2423L58.9509 54.7034C58.9739 54.6749 58.9794 54.6169 58.9563 54.5823" fill="white"/>
<path d="M54.698 54.8022L52.0379 55.5263C51.9976 55.5378 51.9283 55.5378 51.8878 55.5263L50.7396 55.1496C50.5146 55.0747 50.2723 55.1958 50.1973 55.422C50.1886 55.4502 50.183 55.4786 50.1801 55.5069V55.5952C50.1967 55.7609 50.3067 55.9099 50.4743 55.9659L51.6225 56.3365C51.6629 56.354 51.7207 56.3887 51.7436 56.4235L53.4747 58.583C53.4977 58.612 53.5555 58.6292 53.5901 58.612L54.2191 58.4093C54.2594 58.3978 54.2709 58.3572 54.2479 58.3225L53.215 56.904C53.192 56.8692 53.2035 56.8517 53.2439 56.8692L54.946 57.4193C54.9865 57.4367 55.0037 57.4772 54.9922 57.5177L54.9345 57.6914C54.923 57.7319 54.946 57.7783 54.9865 57.7898L55.2866 57.8882C55.3268 57.8998 55.3673 57.8767 55.3846 57.8361L55.8059 56.5276C55.8232 56.4872 55.8 56.4407 55.7597 56.4292L55.4597 56.3307C55.4191 56.3192 55.3731 56.3423 55.3616 56.3828L55.3038 56.5565C55.2923 56.5971 55.2462 56.6203 55.2114 56.6029L53.5092 56.0529C53.4689 56.0356 53.4689 56.0182 53.5092 56.0006L55.1711 55.4683C55.2114 55.4568 55.2229 55.4159 55.1999 55.3812L54.8134 54.8486C54.7903 54.8076 54.7383 54.7907 54.698 54.8022" fill="white"/>
<path d="M53.5902 58.9361L53.4517 61.6981C53.4517 61.7385 53.4285 61.8022 53.4056 61.8369L52.6901 62.8213C52.5517 63.0122 52.5978 63.2786 52.7882 63.4175C52.9786 63.5565 53.244 63.516 53.3825 63.325L54.0981 62.3408C54.1211 62.3059 54.1731 62.2653 54.2134 62.2538L56.7927 61.2695C56.833 61.2522 56.862 61.2057 56.8562 61.1653L56.862 60.5053C56.8562 60.459 56.8214 60.4358 56.7812 60.4473L55.1251 60.9974C55.0847 61.009 55.0732 60.9917 55.0962 60.9569L56.1464 59.5095C56.1753 59.4746 56.2214 59.4631 56.256 59.492L56.4004 59.5962C56.4348 59.6252 56.4869 59.6137 56.51 59.5789L56.6946 59.3241C56.7176 59.2894 56.7118 59.2431 56.6772 59.2199L55.5636 58.4093C55.5289 58.3803 55.4828 58.392 55.4598 58.4209L55.2751 58.6814C55.2463 58.7161 55.2578 58.7626 55.2924 58.7856L55.4367 58.8955C55.4713 58.9188 55.4828 58.971 55.4541 58.9998L54.4039 60.453C54.3808 60.4878 54.3576 60.4821 54.3576 60.4415L54.3691 58.6872C54.3633 58.6466 54.3345 58.6177 54.2942 58.6292L53.6652 58.8378C53.6249 58.8493 53.5902 58.8898 53.5902 58.9361" fill="white"/>
<path d="M57.162 61.2695L59.7409 62.2538C59.7755 62.2653 59.8278 62.3059 59.8562 62.3408L60.5662 63.325C60.7048 63.516 60.9762 63.5565 61.1662 63.4175C61.357 63.2786 61.397 63.0122 61.2585 62.8213L60.5492 61.8369C60.5262 61.8022 60.5032 61.7385 60.4972 61.6981L60.3639 58.9361C60.3639 58.8898 60.3293 58.8493 60.2894 58.8378L59.66 58.6292C59.6201 58.6177 59.5855 58.6466 59.5855 58.6872L59.597 60.4415C59.5909 60.4821 59.574 60.4878 59.5446 60.453L58.4947 59.0055C58.4716 58.971 58.4777 58.9188 58.5124 58.8955L58.6624 58.7856C58.697 58.7626 58.7024 58.7161 58.6793 58.6814L58.4947 58.4267C58.4663 58.392 58.4202 58.3803 58.3854 58.4093L57.2715 59.2199C57.237 59.2431 57.2313 59.2894 57.2542 59.3241L57.4448 59.5847C57.4678 59.6137 57.5138 59.6252 57.5485 59.5962L57.6984 59.492C57.7332 59.4631 57.7793 59.4746 57.8023 59.5095L58.8524 60.9569C58.8816 60.9917 58.864 61.009 58.8239 60.9974L57.1678 60.4473C57.1274 60.4358 57.0927 60.459 57.0927 60.5053V61.1653C57.0927 61.2057 57.1215 61.2522 57.162 61.2695" fill="white"/>
<path d="M60.4802 58.583L62.2047 56.4235C62.2339 56.3944 62.2856 56.354 62.3262 56.3423L63.4802 55.9659C63.7056 55.8907 63.8264 55.6474 63.7571 55.422C63.6825 55.1958 63.4401 55.0747 63.2149 55.1496L62.0664 55.5263C62.0263 55.5378 61.9571 55.5378 61.9163 55.5263L59.2562 54.8022C59.2163 54.7907 59.1641 54.8076 59.1409 54.8486L58.7488 55.3812C58.7254 55.4159 58.7433 55.4568 58.7832 55.4683L60.4448 56.0006C60.4855 56.0182 60.4855 56.0414 60.4448 56.0529L58.7433 56.6086C58.7025 56.6203 58.6624 56.5971 58.6448 56.5565L58.5931 56.3828C58.5755 56.3423 58.5356 56.3192 58.4948 56.3307L58.1946 56.4292C58.1548 56.4465 58.1316 56.4872 58.1433 56.5276L58.5701 57.842C58.5816 57.8825 58.6279 57.8998 58.6678 57.8882L58.9679 57.7898C59.0086 57.7783 59.0316 57.7319 59.0139 57.6971L58.9564 57.5177C58.9446 57.4772 58.9679 57.4367 59.0086 57.425L60.7109 56.8692C60.7509 56.8575 60.7624 56.875 60.7394 56.9097L59.7063 58.3225C59.6833 58.3572 59.6948 58.3978 59.7294 58.4093L60.3585 58.612C60.3985 58.6292 60.4508 58.612 60.4802 58.583" fill="white"/>
</g>
<defs>
<clipPath id="clip0_2320_9457">
<rect width="28" height="16" fill="white" transform="translate(19 49)"/>
</clipPath>
<clipPath id="clip1_2320_9457">
<rect width="18" height="18" fill="white" transform="translate(48 48)"/>
</clipPath>
</defs>
</svg>
