<svg width="68" height="68" viewBox="0 0 68 68" fill="none" xmlns="http://www.w3.org/2000/svg">
<path opacity="0.4" d="M34 68C51.6731 68 66 53.6731 66 36C66 18.3269 51.6731 4 34 4C16.3269 4 2 18.3269 2 36C2 53.6731 16.3269 68 34 68Z" fill="black" fill-opacity="0.05"/>
<path d="M34 66C51.6731 66 66 51.6731 66 34C66 16.3269 51.6731 2 34 2C16.3269 2 2 16.3269 2 34C2 51.6731 16.3269 66 34 66Z" fill="black" fill-opacity="0.05"/>
<path d="M34 65C51.6731 65 66 50.6731 66 33C66 15.3269 51.6731 1 34 1C16.3269 1 2 15.3269 2 33C2 50.6731 16.3269 65 34 65Z" fill="black" fill-opacity="0.05"/>
<path d="M34 64C51.6731 64 66 49.6731 66 32C66 14.3269 51.6731 0 34 0C16.3269 0 2 14.3269 2 32C2 49.6731 16.3269 64 34 64Z" fill="white"/>
<path opacity="0.2" d="M34.0059 47.5566C45.6038 47.5566 55.0059 46.8851 55.0059 46.0566C55.0059 45.2282 45.6038 44.5566 34.0059 44.5566C22.4079 44.5566 13.0059 45.2282 13.0059 46.0566C13.0059 46.8851 22.4079 47.5566 34.0059 47.5566Z" fill="black"/>
<path opacity="0.2" d="M34.9785 47.5566C44.9196 47.5566 52.9785 46.8851 52.9785 46.0566C52.9785 45.2282 44.9196 44.5566 34.9785 44.5566C25.0374 44.5566 16.9785 45.2282 16.9785 46.0566C16.9785 46.8851 25.0374 47.5566 34.9785 47.5566Z" fill="black"/>
<path d="M37.3679 29.4849C35.9211 31.8253 34.4199 33.3572 35.0003 36.5061C35.5807 39.6551 36.8147 43.1019 37.1551 44.1657C37.4956 45.2295 31.3253 44.2934 31.2402 46.0593C40.0062 46.0593 41.1977 46.0593 41.1977 46.0593C41.1977 44.5912 39.07 37.7827 39.07 36.1231C39.07 34.4636 43.6232 31.0168 43.6232 31.0168L42.4743 26.6338L37.3679 29.4849Z" fill="#43352C"/>
<path d="M27.336 21.1078C26.3912 23.0236 24.9471 25.7652 25.3187 29.3416C25.6903 32.9181 28.0482 38.9516 29.0334 41.0609C29.9193 42.9576 30.2911 44.3864 31.9051 44.3607C32.8596 44.3456 33.6977 42.5272 32.1 41.0893C31.4936 40.5435 30.9265 39.7043 30.6271 38.768C29.9328 36.5971 29.8778 31.7252 30.0477 29.9658C30.2177 28.2064 28.8561 23.8218 28.8561 23.8218L27.336 21.1078Z" fill="#43352C"/>
<path d="M18.2192 27.357C17.6128 26.591 17.8043 24.8676 18.2192 23.8782C18.6341 22.8889 17.6767 22.4101 17.5171 21.9952C17.3575 21.5804 17.6281 21.8995 18.3226 20.8782C19.0171 19.857 19.5916 18.0059 24.8575 17.9421C30.1235 17.8782 38.8043 19.6974 41.0384 22.4101C43.2724 25.1229 45.5703 25.6335 46.2086 28.2187C46.8469 30.8038 45.6022 33.9314 45.6022 33.9314C47.9001 35.208 51.3469 37.3144 52.5277 37.5378C52.5597 39.6123 51.4426 42.0697 51.315 43.0272C51.1873 43.9846 52.049 45.2612 51.2192 46.0591C48.1554 44.8782 48.5703 41.591 48.7618 41.1123C48.9533 40.6335 48.666 40.0272 47.1341 39.6123C45.6022 39.1974 41.3575 37.091 41.1341 36.1655C40.9107 35.2399 39.9533 31.474 40.7192 29.3038C38.2937 30.7399 31.1767 31.4421 29.5171 29.8463C27.8575 28.2506 27.8894 30.7399 28.2086 32.1761C26.2299 35.7506 22.5277 40.0591 21.6022 40.8889C20.6767 41.7187 22.2086 43.4421 22.2086 45.0378C22.2086 45.5047 21.5802 46.0591 20.3674 46.0591C18.0909 46.0591 18.2831 44.724 18.2831 43.4846C18.2831 42.5706 18.1873 42.0697 18.8575 40.4421C19.5277 38.8144 23.0065 31.7293 24.1554 30.2931C23.3894 27.9633 23.2618 26.8144 23.549 25.6974C22.7831 26.2718 21.5065 28.3463 19.9745 28.1229C18.4426 27.8995 18.2192 27.357 18.2192 27.357Z" fill="#866B5A"/>
<path opacity="0.2" d="M18.22 23.8781C17.805 24.8675 17.6136 26.5909 18.22 27.3569C18.22 27.3569 18.4433 27.8994 19.9753 28.1228C21.5072 28.3462 22.7837 26.2718 23.5497 25.6973C23.2625 26.8143 23.3901 27.9633 24.1561 30.2931C23.0072 31.7292 19.5284 38.8143 18.8583 40.442C18.188 42.0697 18.2837 42.5705 18.2837 43.4845C18.2837 44.7239 18.0915 46.059 20.3681 46.059C21.5809 46.059 22.2093 45.5047 22.2093 45.0377C22.2093 43.442 20.6774 41.7186 21.6029 40.8888C22.5284 40.059 26.2306 35.7505 28.2093 32.176C27.8901 30.7398 27.8583 28.2505 29.5178 29.8462C31.1774 31.442 38.2944 30.7398 40.72 29.3037C39.954 31.4739 40.9114 35.2398 41.1348 36.1654C41.3583 37.0909 45.6029 39.1973 47.1348 39.6122C48.6667 40.0271 48.954 40.6334 48.7625 41.1122C48.571 41.5909 48.1561 44.8781 51.22 46.059C52.0497 45.2611 51.188 43.9845 51.3157 43.0271C51.4433 42.0697 52.5603 39.6122 52.5284 37.5377C51.3476 37.3143 47.9008 35.2079 45.6029 33.9314C45.6029 33.9314 45.88 33.2293 46.1058 32.2202C44.0249 31.5941 42.2838 29.1438 42.5904 27.0729C41.3333 27.2038 31.1774 26.2079 30.922 23.942C30.6667 21.676 27.0923 21.9633 25.337 23.2718C23.5816 24.5803 21.922 22.9526 23.1029 23.0803C24.2837 23.2079 23.837 21.7398 23.6774 20.9739C23.5178 20.2079 22.5923 19.6334 21.6667 20.0164C20.7412 20.3994 21.22 21.9314 20.1348 21.9314C19.0497 21.9314 18.4114 21.4526 17.6479 21.6276C17.4772 21.7562 17.4302 21.7674 17.5178 21.9951C17.6774 22.4101 18.6348 22.8888 18.22 23.8781Z" fill="black"/>
<path opacity="0.2" d="M47.1331 39.6119C48.6651 40.0268 48.9523 40.6332 48.7608 41.1119C48.5693 41.5906 48.1544 44.8779 51.2183 46.0587C51.3827 45.9007 51.4672 45.7202 51.5197 45.5308C49.4517 44.6808 49.8139 41.1729 49.7821 39.6758C49.7503 38.1821 43.6727 37.062 42.9087 36.0554C41.1627 33.7554 40.9368 30.913 41.4098 28.5481C40.4736 29.0162 29.3314 29.4737 29.0268 27.229C28.6225 24.2503 24.011 24.0029 23.5481 25.697C23.2608 26.814 23.3885 27.963 24.1544 30.2928C23.0055 31.729 19.5268 38.814 18.8566 40.4417C18.1864 42.0694 18.2821 42.5703 18.2821 43.4843C18.2821 44.7236 18.0899 46.0587 20.3665 46.0587C21.5792 46.0587 22.2076 45.5044 22.2076 45.0375C22.2076 43.4417 20.6757 41.7183 21.6012 40.8885C22.5268 40.0587 26.2289 35.7503 28.2076 32.1758C27.8885 30.7396 27.8566 28.2503 29.5161 29.846C31.1757 31.4417 38.2927 30.7396 40.7183 29.3034C39.9523 31.4736 40.9098 35.2396 41.1331 36.1651C41.3566 37.0906 45.6012 39.197 47.1331 39.6119Z" fill="black"/>
</svg>
