<svg width="68" height="68" viewBox="0 0 68 68" fill="none" xmlns="http://www.w3.org/2000/svg">
<g clip-path="url(#clip0_2883_12574)">
<path opacity="0.4" d="M34 68C51.6731 68 66 53.6731 66 36C66 18.3269 51.6731 4 34 4C16.3269 4 2 18.3269 2 36C2 53.6731 16.3269 68 34 68Z" fill="black" fill-opacity="0.05"/>
<path d="M34 66C51.6731 66 66 51.6731 66 34C66 16.3269 51.6731 2 34 2C16.3269 2 2 16.3269 2 34C2 51.6731 16.3269 66 34 66Z" fill="black" fill-opacity="0.05"/>
<path d="M34 65C51.6731 65 66 50.6731 66 33C66 15.3269 51.6731 1 34 1C16.3269 1 2 15.3269 2 33C2 50.6731 16.3269 65 34 65Z" fill="black" fill-opacity="0.05"/>
<path d="M34 64C51.6731 64 66 49.6731 66 32C66 14.3269 51.6731 0 34 0C16.3269 0 2 14.3269 2 32C2 49.6731 16.3269 64 34 64Z" fill="white"/>
<path opacity="0.2" d="M34 52.6816C40.6274 52.6816 46 52.0101 46 51.1816C46 50.3532 40.6274 49.6816 34 49.6816C27.3726 49.6816 22 50.3532 22 51.1816C22 52.0101 27.3726 52.6816 34 52.6816Z" fill="black"/>
<path opacity="0.19" d="M34 52.6816C45.598 52.6816 55 52.0101 55 51.1816C55 50.3532 45.598 49.6816 34 49.6816C22.402 49.6816 13 50.3532 13 51.1816C13 52.0101 22.402 52.6816 34 52.6816Z" fill="#020202"/>
<path d="M29.2824 33.461C28.958 32.4231 30.4176 30.7041 31.5852 30.4771C32.7528 30.2501 34.4171 30.1528 34.6672 33.2988C34.9173 36.4449 34.0927 36.153 34.6672 37.9693C35.2417 39.7856 35.3065 39.7856 35.2092 40.3694C35.1119 40.9532 33.9542 44.3194 34.4632 48.5428C33.2632 49.7428 33.1878 51.2672 33.1878 51.2672C29.1765 51.2672 28.3418 51.2672 28.3418 51.2672C28.3418 50.1969 29.5743 49.7752 30.8716 49.7752C32.169 49.7752 32.6231 44.1317 32.6879 42.056C32.7852 41.2776 32.2987 41.4397 32.2987 40.564C32.2987 39.6883 32.4609 37.2233 29.2824 33.461Z" fill="#95752C"/>
<path d="M22.3952 12.9137C22.4476 12.3809 23.4273 11.5474 24.3845 11.5317C26.2782 11.5006 27.3428 13.167 26.9424 15.2175C26.7049 16.4338 25.9136 18.7074 25.9243 21.2729C25.9388 24.7516 27.4963 27.2107 28.1505 26.7019C29.3181 25.7937 34.1008 23.9006 38.7675 24.7232C44.6824 25.7657 48.1785 30.807 47.5368 31.8929C46.6935 33.32 44.86 34.1193 42.4527 31.6745C41.7392 32.5502 38.0661 36.0877 32.574 35.5688C27.0818 35.0498 22.8845 32.2444 22.7569 23.9466C22.6939 19.8519 23.8027 17.1299 23.2675 15.3136C22.9756 14.2433 22.1824 15.0742 22.3952 12.9137Z" fill="#869193"/>
<path d="M44.7261 27.5012C43.2297 26.2673 41.2086 25.1531 38.7665 24.7227C34.0998 23.9002 29.3171 25.7933 28.1495 26.7014C27.5462 27.1707 26.1776 25.1133 25.9564 22.0625L25.9536 22.0627C25.7993 23.2158 23.1277 25.2985 22.7656 24.1498C22.9608 32.2842 27.1277 35.0538 32.573 35.5683C38.0651 36.0873 41.7382 32.5498 42.4517 31.674C44.0217 30.0825 45.8799 28.5538 44.7261 27.5012Z" fill="#5A6667"/>
<path d="M41.7068 29.3037C42.1942 31.1661 41.8986 33.118 41.11 33.9724C39.6472 34.3381 36.5967 33.1619 34.2903 31.6163C31.087 28.9864 41.1083 27.0168 41.7068 29.3037Z" fill="#869193"/>
<path d="M22.6762 12.3713C21.4118 12.7581 18.9262 13.4302 18.9653 13.8978C19.0041 14.3621 21.473 14.1922 22.7598 14.6191C23.6257 14.9063 23.5442 12.1058 22.6762 12.3713Z" fill="#D1993B"/>
<path opacity="0.19" d="M41.5971 25.585C48.4341 29.411 38.4799 31.2556 33.6968 31.4307C28.9095 31.6061 25.2162 30.6683 22.9277 26.2931C23.7592 32.7764 27.638 35.1026 32.5726 35.5688C35.5061 35.8461 37.9136 34.9645 39.6354 33.9509C40.2089 34.0511 40.7184 34.0703 41.1096 33.9725C41.4528 33.6007 41.6953 33.0143 41.8278 32.3246C42.1157 32.0541 42.3297 31.8238 42.4513 31.6746C44.8586 34.1194 46.6921 33.3201 47.5354 31.893C48.0663 30.9945 45.7585 27.3935 41.5971 25.585Z" fill="#020202"/>
<path d="M33.0579 35.8125C32.7335 34.7746 33.2292 33.7446 34.5483 33.3059C36.1071 32.7874 36.9313 33.4361 37.1095 34.5101C37.4538 36.585 36.286 38.9948 37.1228 40.9361C37.6547 42.1702 36.5483 44.9999 37.2533 49.1289C36.0533 50.3289 35.9779 51.8533 35.9779 51.8533C31.9666 51.8533 31.334 51.8533 31.334 51.8533C31.334 50.783 32.5665 50.3614 33.8638 50.3614C35.1612 50.3614 34.9287 44.7179 34.9935 42.6421C35.0908 41.8637 34.6043 42.0259 34.6043 41.1502C34.6043 40.2745 34.6455 39.2825 33.0579 35.8125Z" fill="#D1993B"/>
</g>
<defs>
<clipPath id="clip0_2883_12574">
<rect width="64" height="68" fill="white" transform="translate(2)"/>
</clipPath>
</defs>
</svg>
