<svg width="68" height="68" viewBox="0 0 68 68" fill="none" xmlns="http://www.w3.org/2000/svg">
<g clip-path="url(#clip0_2883_12598)">
<path opacity="0.4" d="M34 68C51.6731 68 66 53.6731 66 36C66 18.3269 51.6731 4 34 4C16.3269 4 2 18.3269 2 36C2 53.6731 16.3269 68 34 68Z" fill="black" fill-opacity="0.05"/>
<path d="M34 66C51.6731 66 66 51.6731 66 34C66 16.3269 51.6731 2 34 2C16.3269 2 2 16.3269 2 34C2 51.6731 16.3269 66 34 66Z" fill="black" fill-opacity="0.05"/>
<path d="M34 65C51.6731 65 66 50.6731 66 33C66 15.3269 51.6731 1 34 1C16.3269 1 2 15.3269 2 33C2 50.6731 16.3269 65 34 65Z" fill="black" fill-opacity="0.05"/>
<path d="M34 64C51.6731 64 66 49.6731 66 32C66 14.3269 51.6731 0 34 0C16.3269 0 2 14.3269 2 32C2 49.6731 16.3269 64 34 64Z" fill="white"/>
<path opacity="0.2" d="M37.4943 51.1094C44.6944 51.1094 50.5315 50.4701 50.5315 49.6812C50.5315 48.8925 44.6944 48.2529 37.4943 48.2529C30.294 48.2529 24.457 48.8925 24.457 49.6812C24.457 50.4701 30.294 51.1094 37.4943 51.1094Z" fill="black"/>
<path opacity="0.19" d="M33.9785 51.1816C45.5764 51.1816 54.9785 50.5099 54.9785 49.6816C54.9785 48.8531 45.5764 48.1816 33.9785 48.1816C22.3805 48.1816 12.9785 48.8531 12.9785 49.6816C12.9785 50.5099 22.3805 51.1816 33.9785 51.1816Z" fill="#020202"/>
<path d="M33.033 44.2891C32.7857 45.3723 31.6485 48.026 31.0257 47.9719C30.4029 47.9175 29.7327 47.5453 29.1234 47.8295C28.5142 48.114 26.053 49.4747 27.2347 49.4747C28.9 49.4747 33.7335 49.4747 34.627 49.4747C35.5206 49.4747 35.6018 48.6013 34.627 48.5201C33.6523 48.4389 33.3476 48.4794 33.3679 48.1952C33.3882 47.9109 34.2006 44.2891 34.2006 44.2891H33.033Z" fill="#E3AD0F"/>
<path opacity="0.19" d="M33.033 44.2891C32.7857 45.3723 31.6485 48.026 31.0257 47.9719C30.4029 47.9175 29.7327 47.5453 29.1234 47.8295C28.5142 48.114 26.053 49.4747 27.2347 49.4747C28.9 49.4747 33.7335 49.4747 34.627 49.4747C35.5206 49.4747 35.6018 48.6013 34.627 48.5201C33.6523 48.4389 33.3476 48.4794 33.3679 48.1952C33.3882 47.9109 34.2006 44.2891 34.2006 44.2891H33.033Z" fill="#020202"/>
<path d="M36.658 45.3711C36.4107 46.4544 35.2735 49.108 34.6507 49.0539C34.0279 48.9996 33.3577 48.6273 32.7484 48.9116C32.1392 49.196 29.678 50.5567 30.8597 50.5567C32.525 50.5567 37.3585 50.5567 38.2521 50.5567C39.1455 50.5567 39.2269 49.6833 38.2521 49.6021C37.2773 49.521 36.9726 49.5614 36.9928 49.2772C37.0133 48.993 37.8255 45.3711 37.8255 45.3711H36.658Z" fill="#D1993B"/>
<path d="M30.9648 35.2197C31.3024 36.9601 29.9119 44.5358 33.889 44.8113C37.8662 45.0867 36.1427 36.1277 36.1427 36.1277L30.9648 35.2197Z" fill="#7A716F"/>
<path d="M48.8609 46.5076C48.3554 44.7511 44.7757 36.3585 40.946 28.8266C37.1162 21.2947 31.5629 20.4649 30.2225 21.8692C28.8821 23.2734 27.2225 23.7203 26.8395 21.8692C26.4565 20.0181 28.2225 19.0607 28.1374 17.1458C28.0523 15.2309 25.6587 13.9756 24.4778 13.9756C23.7532 13.9756 20.7757 14.55 20.797 16.1883C20.8183 17.465 22.2119 18.6777 23.5044 18.6617C23.5044 18.6617 21.9884 18.9969 21.6693 21.6777C21.3502 24.3586 24.0311 24.8053 23.8395 26.6564C23.6481 28.5075 24.1902 31.5351 26.1695 34.7869C28.2566 38.216 31.0868 38.8122 33.7162 39.4533C36.7913 40.3172 33.373 44.7881 37.2423 45.7477C40.5696 46.5731 39.5976 41.1068 41.2247 42.4695C42.2024 43.5752 43.0868 44.1201 43.7864 46.0636C44.361 47.6593 44.7806 49.2589 46.9779 49.4747C49.7865 49.7506 49.3425 48.1811 48.8609 46.5076Z" fill="#CCBBB4"/>
<path d="M29.4501 20.7887C30.7455 19.642 33.813 20.9548 35.0281 21.897C36.2434 22.8392 41.0676 24.5993 43.6708 28.3693C46.2741 32.1391 50.0988 45.1257 47.8915 45.3673C45.6845 45.6086 37.3568 33.9229 33.199 30.4225C29.0411 26.9221 26.2274 23.6414 29.4501 20.7887Z" fill="#AFA19C"/>
<path d="M22.4142 14.7207C21.644 14.7207 20.5418 14.9228 20.0205 15.1781C19.4993 15.4335 18.1429 15.0957 17.9993 16.6356C17.8557 18.1755 18.5817 18.4388 18.5817 18.4388C18.3902 17.8803 18.6535 17.2021 18.6535 17.2021C19.236 17.5691 20.8716 17.6888 21.5977 17.5133C22.3237 17.3377 26.4548 14.7207 22.4142 14.7207Z" fill="#A39895"/>
<path opacity="0.19" d="M23.9707 29.1851C24.2567 30.8098 24.9324 32.7545 26.1694 34.7871C26.1703 34.7884 26.1713 34.7898 26.1721 34.7911C26.3171 35.0291 26.4662 35.2507 26.6181 35.4619C26.658 35.5175 26.6994 35.5683 26.7399 35.6225C26.858 35.7798 26.9773 35.9324 27.099 36.0754C27.1386 36.1221 27.1788 36.1667 27.2189 36.2121C27.3513 36.3612 27.4852 36.5044 27.6214 36.6386C27.6483 36.665 27.675 36.6919 27.702 36.7178C27.866 36.8751 28.0319 37.0243 28.2005 37.1625C28.2014 37.1631 28.2023 37.164 28.2032 37.1647C30.0635 38.5691 31.6364 38.9379 33.7161 39.4533C36.7912 40.3173 33.3729 44.7881 37.2422 45.748C40.5695 46.5732 39.5975 41.1071 41.2247 42.4695C42.2023 43.5755 43.087 44.1204 43.7863 46.0637C44.361 47.6593 44.7805 49.2589 46.9779 49.4748C49.7864 49.7509 49.3424 48.1812 48.8609 46.5076C48.7733 46.2036 48.5883 45.6894 48.3311 45.0266C49.4421 42.9397 46.0484 31.813 43.6706 28.3697C42.4498 26.6019 40.7422 25.2803 39.1461 24.2734C42.3053 27.6376 47.586 37.5903 38.3017 36.4041C27.705 35.0502 25.6626 32.6225 23.9707 29.1851Z" fill="#020202"/>
</g>
<defs>
<clipPath id="clip0_2883_12598">
<rect width="64" height="68" fill="white" transform="translate(2)"/>
</clipPath>
</defs>
</svg>
