<svg width="68" height="68" viewBox="0 0 68 68" fill="none" xmlns="http://www.w3.org/2000/svg">
<g clip-path="url(#clip0_2883_12606)">
<path opacity="0.4" d="M34 68C51.6731 68 66 53.6731 66 36C66 18.3269 51.6731 4 34 4C16.3269 4 2 18.3269 2 36C2 53.6731 16.3269 68 34 68Z" fill="black" fill-opacity="0.05"/>
<path d="M34 66C51.6731 66 66 51.6731 66 34C66 16.3269 51.6731 2 34 2C16.3269 2 2 16.3269 2 34C2 51.6731 16.3269 66 34 66Z" fill="black" fill-opacity="0.05"/>
<path d="M34 65C51.6731 65 66 50.6731 66 33C66 15.3269 51.6731 1 34 1C16.3269 1 2 15.3269 2 33C2 50.6731 16.3269 65 34 65Z" fill="black" fill-opacity="0.05"/>
<path d="M34 64C51.6731 64 66 49.6731 66 32C66 14.3269 51.6731 0 34 0C16.3269 0 2 14.3269 2 32C2 49.6731 16.3269 64 34 64Z" fill="white"/>
<path opacity="0.2" d="M38.5215 51.1816C47.6342 51.1816 55.0215 50.5101 55.0215 49.6816C55.0215 48.8532 47.6342 48.1816 38.5215 48.1816C29.4088 48.1816 22.0215 48.8532 22.0215 49.6816C22.0215 50.5101 29.4088 51.1816 38.5215 51.1816Z" fill="black"/>
<path opacity="0.19" d="M33.9785 51.1816C45.5765 51.1816 54.9785 50.5101 54.9785 49.6816C54.9785 48.8532 45.5765 48.1816 33.9785 48.1816C22.3805 48.1816 12.9785 48.8532 12.9785 49.6816C12.9785 50.5101 22.3805 51.1816 33.9785 51.1816Z" fill="#020202"/>
<path d="M38.4758 34.7051C38.4758 37.2275 37.0104 41.1366 36.9714 43.8066C36.9372 46.1479 36.8642 47.9692 37.4774 48.2978C38.0732 48.6169 38.2501 48.6017 38.2501 49.2599C36.2944 49.2599 29.9501 49.2599 29.9501 49.2599C28.865 49.2599 30.5908 48.0647 31.1926 47.8509C32.5903 47.3546 33.4236 48.2052 34.1203 47.9786C35.8501 47.416 34.4082 36.736 33.8065 35.1188C33.2047 33.5016 38.4758 33.5239 38.4758 34.7051Z" fill="#B88D0D"/>
<path d="M33.7274 36.2079C33.698 37.7393 34.4603 38.763 36.5669 38.6128C39.3312 38.4156 38.6918 35.7939 38.6918 35.7939L33.7274 36.2079Z" fill="#3A3F51"/>
<path d="M41.3137 35.4717C41.3137 37.9941 39.8483 41.9032 39.8093 44.5732C39.7751 46.9145 39.702 48.7358 40.3153 49.0644C40.9111 49.3835 41.088 49.3683 41.088 50.0265C39.1323 50.0265 32.788 50.0265 32.788 50.0265C31.7029 50.0265 33.4287 48.8313 34.0305 48.6175C35.4282 48.1212 36.2615 48.9718 36.9582 48.7452C38.688 48.1826 37.2461 37.5026 36.6444 35.8854C36.0426 34.2682 41.3137 34.2905 41.3137 35.4717Z" fill="#E3AD0F"/>
<path d="M39.5111 18.1805C32.1397 17.0773 23.4583 21.6719 21.0325 26.185C21.0325 26.185 20.7881 25.9405 21.3334 24.0037C21.8787 22.0668 20.6752 20.4496 19.3965 19.9231C18.1178 19.3965 15.8703 20.9739 16.6886 22.1796C17.6289 23.5649 18.2564 23.1468 18.381 24.0037C18.5315 25.0379 18.0636 24.9574 17.4408 26.5235C16.0105 30.1206 16.9958 33.5784 18.3246 33.6128C18.808 33.6253 19.2649 32.8606 18.8512 31.6947C21.1453 34.2522 22.6873 35.7566 30.3596 37.0353C32.7336 37.431 34.782 37.35 36.5769 37.0669C36.8424 38.3406 37.6593 39.1136 39.3106 38.9642C41.4624 38.7696 41.551 36.7167 41.485 35.814C43.0549 35.3316 44.3757 34.9631 45.5537 35.1548C48.7881 35.6813 53.6773 43.5041 53.9029 40.1944C55.1064 24.4738 46.8825 19.2837 39.5111 18.1805Z" fill="#6B7193"/>
<path d="M19.1905 19.858C18.9461 18.9554 19.3806 16.7493 19.6815 16.298C16.0751 15.5055 13.4022 18.1999 15.3557 21.9867C14.5158 22.3503 13.6996 24.0603 14.0569 24.3048C14.4142 24.5493 15.7646 23.3035 16.5819 23.2141C17.4417 23.1201 17.8282 23.2599 17.8282 23.2599C18.3359 22.7333 17.2929 21.6604 16.6911 21.5852C16.804 20.4005 18.219 19.6538 19.1905 19.858Z" fill="#E3AD0F"/>
<path opacity="0.19" d="M16.5817 23.2138C17.2539 23.1402 17.6285 23.208 17.7635 23.2417C17.8143 23.2732 17.8684 23.3077 17.9139 23.3357C18.0246 23.4039 18.1226 23.4678 18.1969 23.5519C18.288 23.6548 18.3505 23.7894 18.3817 24.0036C18.3827 24.0105 18.3822 24.0151 18.3832 24.0219C18.5049 24.8953 18.1755 24.971 17.6857 25.9716C17.6791 25.985 17.6735 25.9941 17.6668 26.0079C17.5947 26.1576 17.5193 26.3276 17.4415 26.5234C16.0111 30.1205 16.9964 33.5782 18.3253 33.6127C18.8086 33.6252 19.2655 32.8605 18.8518 31.6946C21.1459 34.2521 22.6879 35.7565 30.3602 37.0351C32.7342 37.4308 34.7827 37.3499 36.5776 37.0668C36.8431 38.3404 37.66 39.1135 39.3112 38.9641C41.463 38.7695 41.5516 36.7165 41.4856 35.8139C43.0555 35.3315 44.3763 34.9629 45.5543 35.1547C48.7888 35.6812 53.6779 43.504 53.9036 40.1943C54.0398 38.415 54.0495 36.7775 53.9591 35.2587C53.8869 34.6679 53.8387 34.1186 53.8218 33.6282C53.8207 33.6186 53.8202 33.6084 53.819 33.5989C53.6327 28.5254 43.9707 22.363 34.7451 24.0636C25.511 25.7657 24.1493 31.3402 21.4687 30.404C18.7881 29.4679 19.4658 27.8589 19.7663 24.3362C20.011 21.4679 17.3736 21.735 16.0642 22.3615C15.2242 22.725 14.4264 23.4057 14.0566 24.3044C14.4139 24.5489 15.7643 23.3031 16.5817 23.2138Z" fill="#020202"/>
<path opacity="0.19" d="M18.7539 30.5303C23.3839 37.1642 35.0186 34.0817 40.7881 31.8083C46.6179 29.5112 50.5434 36.2818 52.6148 40.6638C52.6147 40.6638 52.6148 40.6639 52.6148 40.6638C51.8235 40.1135 50.7428 38.9799 49.5869 37.8806C49.5641 37.8588 49.5411 37.8372 49.5182 37.8156C49.4197 37.7222 49.3214 37.6294 49.222 37.5372C49.1064 37.4299 48.9902 37.3237 48.8738 37.2189C48.8111 37.1626 48.7484 37.1079 48.6855 37.0526C48.6036 36.9803 48.5217 36.9092 48.4397 36.8391C48.3804 36.7885 48.3215 36.7383 48.2622 36.6889C48.1468 36.5927 48.0314 36.4993 47.9163 36.4088C47.8795 36.3799 47.8428 36.3511 47.8062 36.3228C47.682 36.2274 47.5584 36.1365 47.4352 36.0495C47.3892 36.0169 47.3433 35.9859 47.2974 35.9546C47.192 35.8828 47.0872 35.8152 46.9829 35.751C46.9456 35.7281 46.9082 35.7037 46.8712 35.6819C46.735 35.6016 46.6002 35.5286 46.4669 35.4637C46.4357 35.4486 46.4051 35.4363 46.374 35.4221C46.2667 35.3727 46.1606 35.3294 46.0558 35.2917C46.0182 35.2783 45.9807 35.2648 45.9434 35.2529C45.8118 35.2109 45.6816 35.1754 45.5548 35.1547C44.3768 34.963 43.056 35.3315 41.4861 35.8139C41.5521 36.7166 41.4635 38.7695 39.3117 38.9641C38.4261 39.0443 37.7293 38.8952 37.1636 38.3125C37.166 38.3409 37.1837 38.433 37.1933 38.5148C37.0072 38.5646 36.8007 38.5961 36.5662 38.6129C35.0142 38.7235 34.1961 38.1938 33.8824 37.2966C32.7917 37.3148 31.6254 37.246 30.3607 37.0352C22.6884 35.7565 21.1464 34.2521 18.8523 31.6946C18.7535 31.2236 18.7539 30.5303 18.7539 30.5303Z" fill="#020202"/>
</g>
<defs>
<clipPath id="clip0_2883_12606">
<rect width="64" height="68" fill="white" transform="translate(2)"/>
</clipPath>
</defs>
</svg>
