<svg width="68" height="68" viewBox="0 0 68 68" fill="none" xmlns="http://www.w3.org/2000/svg">
<path opacity="0.4" d="M34 68C51.6731 68 66 53.6731 66 36C66 18.3269 51.6731 4 34 4C16.3269 4 2 18.3269 2 36C2 53.6731 16.3269 68 34 68Z" fill="black" fill-opacity="0.05"/>
<path d="M34 66C51.6731 66 66 51.6731 66 34C66 16.3269 51.6731 2 34 2C16.3269 2 2 16.3269 2 34C2 51.6731 16.3269 66 34 66Z" fill="black" fill-opacity="0.05"/>
<path d="M34 65C51.6731 65 66 50.6731 66 33C66 15.3269 51.6731 1 34 1C16.3269 1 2 15.3269 2 33C2 50.6731 16.3269 65 34 65Z" fill="black" fill-opacity="0.05"/>
<path d="M34 64C51.6731 64 66 49.6731 66 32C66 14.3269 51.6731 0 34 0C16.3269 0 2 14.3269 2 32C2 49.6731 16.3269 64 34 64Z" fill="white"/>
<path opacity="0.2" d="M34.0059 42.8857C45.6038 42.8857 55.0059 42.2142 55.0059 41.3857C55.0059 40.5573 45.6038 39.8857 34.0059 39.8857C22.4079 39.8857 13.0059 40.5573 13.0059 41.3857C13.0059 42.2142 22.4079 42.8857 34.0059 42.8857Z" fill="black"/>
<path opacity="0.2" d="M34.0743 42.8857C41.6359 42.8857 47.7658 42.2142 47.7658 41.3857C47.7658 40.5573 41.6359 39.8857 34.0743 39.8857C26.5127 39.8857 20.3828 40.5573 20.3828 41.3857C20.3828 42.2142 26.5127 42.8857 34.0743 42.8857Z" fill="black"/>
<path d="M32.1885 33.7813C31.2005 35.035 29.8621 37.5699 29.628 38.8558C28.9046 39.4322 28.5714 40.8981 28.5289 41.3859C27.5076 41.3859 24.4863 41.3859 24.4863 41.3859C25.3587 40.4769 26.614 40.7429 27.0821 40.2995C27.5502 39.8561 28.1459 37.373 28.1885 36.3975C28.231 35.4219 26.8906 33.87 26.614 31.919C26.3374 29.9679 32.1885 33.7813 32.1885 33.7813Z" fill="#4C3C3C"/>
<path d="M44.1534 34.9952C44.8768 36.0884 46.6641 37.1185 46.7492 37.7701C46.8343 38.4218 45.3875 40.0195 44.43 40.2087C43.4726 40.3979 41.6641 40.1456 41.6641 41.386H46.3024C46.7385 40.955 48.2598 38.3167 49.3662 37.3707C47.8981 34.6378 47.717 33.5877 49.0574 32.1582L44.1534 34.9952Z" fill="#4C3C3C"/>
<path d="M17.4647 26.9389C17.3583 25.5346 21.9966 23.1304 23.486 22.79C23.8689 21.657 25.0604 21.7687 25.0179 22.4282C25.8264 22.6623 29.486 23.8112 31.4009 24.0665C33.3158 24.3219 37.1243 22.641 40.3583 22.641C43.5924 22.641 47.2306 23.8325 49.5498 26.407C51.8689 28.9814 49.5498 31.6836 48.2094 33.1304C46.8689 34.5772 45.5711 35.2368 47.0392 38.0027C45.9328 38.9602 44.4115 41.6304 43.9753 42.0665H39.337C39.337 40.8112 41.1455 41.0665 42.103 40.8751C43.0604 40.6836 44.5072 39.0665 44.4221 38.407C44.337 37.7474 42.5924 37.1517 41.8264 35.5985C41.8264 35.5985 36.9541 35.7048 36.1243 35.6836C35.2945 35.6623 35.4381 38.3485 35.6934 39.0665C35.087 39.8165 34.9115 42.0665 34.9115 42.0665C34.0179 42.0665 30.6668 42.0665 30.6668 42.0665C30.6668 41.3325 32.9009 41.0931 33.2838 40.8697C33.6668 40.6463 33.97 39.29 33.8583 38.5878C33.7466 37.8857 33.5551 37.5346 33.0126 36.1782C32.47 34.8219 30.3796 34.79 29.2306 34.4229C28.0817 34.0559 25.5604 32.3325 24.5711 31.008C23.5817 29.6836 21.7945 29.8272 20.7413 30.1144C19.6881 30.4017 17.9221 29.4921 17.4647 26.9389Z" fill="#916F6E"/>
<path opacity="0.2" d="M41.6645 30.0237C39.1408 31.3854 34.5956 29.3402 33.2126 27.6593C31.8296 25.9785 26.6349 27.3641 25.1243 24.3641C25.5073 24.2364 26.119 24.0024 25.6775 23.0662C25.3041 22.2746 24.2519 22.7897 24.3583 23.428C24.3583 23.428 23.6988 24.6194 23.2519 24.045C22.808 23.4742 20.8047 23.9415 19.6378 24.6183C18.4133 25.4012 17.4148 26.2795 17.4647 26.9386C17.9221 29.4918 19.6881 30.4014 20.7413 30.1141C21.7945 29.8269 23.5818 29.6833 24.5711 31.0078C25.5604 32.3322 28.0818 34.0556 29.2307 34.4226C30.3796 34.7897 32.47 34.8216 33.0126 36.178C33.5551 37.5344 33.7466 37.8854 33.8583 38.5875C33.97 39.2897 33.6668 40.6461 33.2838 40.8694C32.9009 41.0928 30.6668 41.3322 30.6668 42.0662C30.6668 42.0662 34.0179 42.0662 34.9115 42.0662C34.9115 42.0662 35.0871 39.8162 35.6934 39.0662C35.4381 38.3481 35.2945 35.662 36.1243 35.6833C36.9541 35.7045 41.8264 35.5981 41.8264 35.5981C42.5924 37.1514 44.3371 37.7471 44.4221 38.4067C44.5073 39.0662 43.0604 40.6833 42.103 40.8748C41.1455 41.0662 39.3371 40.8109 39.3371 42.0662H43.9754C44.4115 41.6301 45.9328 38.9598 47.0391 38.0024C45.5711 35.2365 46.869 34.5769 48.2094 33.1301C49.4759 31.7631 51.6106 29.2756 49.8869 26.8339C51.4159 28.9858 42.3534 32.5167 41.6645 30.0237Z" fill="black"/>
<path opacity="0.2" d="M47.0388 38.0027C45.5711 35.2372 46.8688 34.5775 48.2092 33.1307C48.7628 32.5331 49.4797 31.7195 49.9716 30.791C49.0004 32.6113 43.0476 35.5098 41.4219 33.4499C41.1028 34.152 35.9996 34.4851 34.9146 33.2132C32.9677 31.2072 27.4432 32.7478 25.4645 29.7797C24.4113 28.152 22.2092 28.8542 20.7092 28.9818C19.2111 29.1093 18.9542 26.5317 17.6975 26.2803C17.6235 26.3904 17.5675 26.4976 17.5269 26.6019C17.5239 26.6101 17.5183 26.6188 17.5155 26.627C17.4763 26.7354 17.457 26.8401 17.4645 26.9393C17.5217 27.2584 17.5993 27.5519 17.6934 27.8206C17.8817 28.3578 18.1359 28.796 18.4246 29.1418C18.5689 29.3147 18.7218 29.4645 18.8794 29.5922C19.1946 29.8475 19.5283 30.014 19.8491 30.0988C20.0095 30.1412 20.1668 30.1631 20.3167 30.1655C20.4667 30.1679 20.6094 30.1506 20.7411 30.1147C21.7943 29.8275 23.5815 29.6839 24.5709 31.0084C24.8182 31.3395 25.1613 31.6956 25.5548 32.0491C25.9482 32.4026 26.392 32.7537 26.8408 33.0749C27.0652 33.2355 27.2908 33.3886 27.5121 33.5308C27.9545 33.8151 28.3793 34.0558 28.741 34.2255C28.9218 34.3104 29.0869 34.3774 29.2305 34.4233C29.3741 34.4692 29.5324 34.5098 29.7006 34.5485C30.8778 34.8189 32.5376 34.9918 33.0124 36.1786C33.3515 37.0263 33.5534 37.4814 33.6845 37.8749C33.7631 38.111 33.8162 38.3249 33.8581 38.5882C33.8861 38.7637 33.888 38.9802 33.8693 39.2095C33.8132 39.8977 33.5709 40.7026 33.2836 40.8701C33.2358 40.898 33.1589 40.9262 33.0612 40.9556C32.6703 41.073 31.9442 41.2094 31.3937 41.4246C30.9808 41.5859 30.6666 41.7916 30.6666 42.0669C30.6666 42.0669 34.0177 42.0669 34.9113 42.0669C34.9113 42.0669 35.0869 39.8169 35.6932 39.0669C35.6454 38.9323 35.6014 38.7284 35.5671 38.4862C35.5442 38.3248 35.5256 38.1462 35.5129 37.9598C35.4432 36.9344 35.5536 35.6693 36.1241 35.6839C36.4871 35.6932 37.6238 35.6781 38.7879 35.6581C40.2845 35.6324 41.8262 35.5988 41.8262 35.5988C42.2092 36.3754 42.8368 36.9127 43.3794 37.3382C43.6506 37.551 43.9007 37.7358 44.0882 37.9087C44.2757 38.0816 44.4007 38.2424 44.4219 38.4073C44.4432 38.5722 44.3687 38.797 44.2301 39.0443C44.0915 39.2917 43.8887 39.5616 43.6533 39.8169C43.5356 39.9446 43.4099 40.0686 43.2798 40.1843C43.0197 40.4156 42.7429 40.6138 42.4808 40.7415C42.3498 40.8053 42.2225 40.8515 42.1028 40.8754C41.1453 41.0669 39.3369 40.8116 39.3369 42.0669H43.9752C44.1932 41.8488 44.6826 41.0723 45.2557 40.2305C45.8289 39.3887 46.4857 38.4814 47.0388 38.0027C47.0389 38.0029 47.0388 38.0026 47.0388 38.0027Z" fill="black"/>
</svg>
