<svg width="68" height="68" viewBox="0 0 68 68" fill="none" xmlns="http://www.w3.org/2000/svg">
<path opacity="0.4" d="M34 68C51.6731 68 66 53.6731 66 36C66 18.3269 51.6731 4 34 4C16.3269 4 2 18.3269 2 36C2 53.6731 16.3269 68 34 68Z" fill="black" fill-opacity="0.05"/>
<path d="M34 66C51.6731 66 66 51.6731 66 34C66 16.3269 51.6731 2 34 2C16.3269 2 2 16.3269 2 34C2 51.6731 16.3269 66 34 66Z" fill="black" fill-opacity="0.05"/>
<path d="M34 65C51.6731 65 66 50.6731 66 33C66 15.3269 51.6731 1 34 1C16.3269 1 2 15.3269 2 33C2 50.6731 16.3269 65 34 65Z" fill="black" fill-opacity="0.05"/>
<path d="M34 64C51.6731 64 66 49.6731 66 32C66 14.3269 51.6731 0 34 0C16.3269 0 2 14.3269 2 32C2 49.6731 16.3269 64 34 64Z" fill="white"/>
<path opacity="0.2" d="M35.7825 45.4161C45.9314 45.4161 54.1587 44.7832 54.1587 44.0025C54.1587 43.2218 45.9314 42.5889 35.7825 42.5889C25.6336 42.5889 17.4062 43.2218 17.4062 44.0025C17.4062 44.7832 25.6336 45.4161 35.7825 45.4161Z" fill="black"/>
<path opacity="0.2" d="M34.0061 45.4161C45.1361 45.4161 54.1588 44.7832 54.1588 44.0025C54.1588 43.2218 45.1361 42.5889 34.0061 42.5889C22.8762 42.5889 13.8535 43.2218 13.8535 44.0025C13.8535 44.7832 22.8762 45.4161 34.0061 45.4161Z" fill="black"/>
<path d="M26.4536 38.767C26.5376 37.0081 26.8262 35.8069 27.3428 34.1484C27.3876 33.9949 27.7673 33.7194 27.9424 33.7563C28.4455 33.8624 29.1834 33.6976 29.0472 34.1663C28.5104 36.014 28.4942 38.1745 28.8704 39.9585C28.4198 40.7873 28.1726 42.2465 28.0447 43.4455C27.3047 43.4594 26.1369 43.4421 25.3965 43.4382C25.538 42.8698 26.1758 42.5271 25.9649 41.8678C25.9562 41.8304 25.9817 41.7289 26.0315 41.7322C26.5957 41.7689 26.4934 40.6015 26.4536 38.767Z" fill="#785137"/>
<path d="M39.8945 32.4462C42.2099 31.781 43.5385 35.4887 44.6758 37.1644C45.3846 38.3117 45.9119 39.1098 46.6306 40.2067C46.1192 40.985 45.9554 42.117 45.7213 43.5287C44.534 43.5081 43.2378 43.4896 42.0507 43.458C42.1188 41.9283 43.5296 41.6083 44.0508 41.5746C44.3452 41.5555 44.0446 39.6842 43.4328 38.8535C42.9383 38.1821 41.6137 36.8089 40.9959 35.6629C40.3302 34.4277 40.1648 33.8626 39.8945 32.4462Z" fill="#785137"/>
<path d="M47.345 31.0728C47.2058 33.6936 48.0694 37.4938 48.8461 39.043C48.6641 39.701 48.2697 43.1062 48.2392 44.1962C47.2133 44.1999 45.5953 44.2062 44.5697 44.1888C44.588 43.1673 45.8871 42.5739 46.5634 42.5811C46.8654 42.5843 46.3915 40.2718 45.6646 39.7098C44.4764 38.4315 42.4059 36.8181 41.4847 35.3328C41.1085 34.7262 40.5549 33.9489 39.8953 32.446C36.9545 34.5198 30.1534 35.205 28.8777 34.8373C28.0991 35.5726 26.6124 39.8821 26.6256 41.6553C26.3205 41.9743 25.5258 43.1184 25.3732 44.2026C24.322 44.1978 22.8533 44.2098 21.8022 44.211C21.8685 43.4542 22.5523 42.6055 23.6697 42.6055C24.4707 42.6055 24.2891 38.7331 24.3695 37.8647C24.3564 37.0953 24.212 34.1323 23.3016 34.023C20.763 33.3168 21.1927 29.1118 18.0986 27.5795C17.5385 27.3022 16.7097 27.6877 16.3877 27.8071C15.8592 28.1146 15.2477 27.8909 14.8955 27.4011C14.441 26.7693 14.5323 26.5166 14.0981 25.8712C13.7725 25.4114 14.3348 25.0486 14.6591 24.7641C15.0938 24.3061 15.2033 23.8278 15.4729 23.1754C15.7907 22.3487 17.0891 22.2813 17.5147 21.5031C17.1846 20.4996 17.9631 19.686 18.3149 20.1191C18.6661 20.5516 18.9008 20.688 19.1366 21.0922C21.299 21.0489 22.3261 22.2932 23.9715 23.4686C25.0244 24.1756 26.0046 23.6537 27.2297 23.9899C28.4351 24.3207 28.7679 24.8911 29.9921 25.0711C32.6329 25.4594 36.2997 25.2614 38.0308 25.0386C41.9339 24.5838 45.315 23.9427 47.7342 27.9156C49.1109 30.4226 49.3669 35.3004 51.7672 34.821C53.1508 34.5446 53.5823 32.3531 52.4546 31.6027C51.5439 31.2321 51.9738 29.5417 52.9239 30.1514C54.2124 30.9782 53.7144 31.828 53.92 32.7384C54.3044 34.4411 53.2593 36.0464 51.733 36.0709C48.9232 36.1159 48.3487 33.5552 47.345 31.0728Z" fill="#CB8C59"/>
<path opacity="0.19" d="M52.9244 30.1518C51.9743 29.5421 51.5444 31.2325 52.4551 31.6031C53.5828 32.3535 53.1513 34.545 51.7677 34.8214C49.5076 35.2728 49.1479 30.9761 47.9645 28.3796C47.4029 30.3282 42.394 29.9799 41.259 28.1962C40.5778 28.9585 32.1118 29.8019 29.0638 28.7801C26.0157 27.7583 25.7866 26.3149 24.1972 26.5257C22.6078 26.7366 20.467 25.0336 20.4994 23.6551C21.5698 21.498 18.9587 21.7089 19.0884 22.9252C19.2182 24.1417 15.0825 26.1041 14.2049 26.0402L14.2031 26.0527C14.5012 26.5618 14.4902 26.8374 14.896 27.4015C15.2483 27.8913 15.8597 28.115 16.3882 27.8075C16.7102 27.688 17.539 27.3026 18.0991 27.5799C21.1932 29.1122 20.7635 33.3172 23.3021 34.0234C24.2125 34.1327 24.3569 37.0958 24.3699 37.865C24.2896 38.7335 24.4712 42.6059 23.6701 42.6059C22.5528 42.6059 21.869 43.4546 21.8027 44.2114C22.8539 44.2102 24.3226 44.1982 25.3736 44.203C25.5263 43.1188 26.321 41.9747 26.6261 41.6557C26.6129 39.8825 28.0996 35.573 28.8782 34.8377C30.1539 35.2054 36.955 34.5201 39.8958 32.4464C40.5554 33.9492 41.1089 34.7266 41.4852 35.3332C42.4064 36.8185 44.4769 38.4319 45.6651 39.7102C46.392 40.2721 46.8659 42.5847 46.5639 42.5815C45.8876 42.5744 44.5885 43.1676 44.5702 44.1891C45.5958 44.2066 47.2138 44.2003 48.2397 44.1966C48.2703 43.1066 48.6645 39.7014 48.8466 39.0434C48.0699 37.4941 47.2063 33.694 47.3455 31.0732C48.3492 33.5556 48.9237 36.1163 51.7335 36.0713C53.2598 36.0468 54.3049 34.4415 53.9205 32.7388C53.7149 31.8284 54.2129 30.9786 52.9244 30.1518Z" fill="#191000"/>
<path opacity="0.19" d="M23.2966 34.025C24.207 34.1343 24.3514 37.0974 24.3644 37.8667C24.284 38.7352 24.4657 42.6076 23.6646 42.6076C22.5472 42.6076 21.8634 43.4563 21.7971 44.2131C22.8483 44.2118 24.317 44.1998 25.3681 44.2047C25.5207 43.1205 26.3154 41.9763 26.6206 41.6574C26.6074 39.8842 28.094 35.5746 28.8727 34.8394C30.1483 35.207 36.9494 34.5218 39.8902 32.448C40.5498 33.9509 41.1034 34.7283 41.4797 35.3349C42.4009 36.8201 44.4713 38.4336 45.6596 39.7119C46.3864 40.2738 46.8604 42.5864 46.5583 42.5832C45.882 42.576 44.5829 43.1693 44.5646 44.1908C45.5902 44.2083 47.2083 44.202 48.2342 44.1982C48.2647 43.1083 48.659 39.703 48.8411 39.045C48.5229 38.4807 48.0751 36.8495 48.0751 36.8495C44.2274 36.2959 41.6094 31.8966 40.7012 29.9372C38.8633 31.1666 33.0566 31.7475 28.8727 31.2703C26.7308 31.026 26.2881 32.5802 23.6444 31.8666C22.5328 31.5665 21.1103 28.1399 18.5762 27.8418C21.1103 29.4815 20.9612 33.3572 23.2966 34.025Z" fill="#191000"/>
</svg>
