<svg width="68" height="68" viewBox="0 0 68 68" fill="none" xmlns="http://www.w3.org/2000/svg">
<g clip-path="url(#clip0_2883_12605)">
<path opacity="0.4" d="M34 68C51.6731 68 66 53.6731 66 36C66 18.3269 51.6731 4 34 4C16.3269 4 2 18.3269 2 36C2 53.6731 16.3269 68 34 68Z" fill="black" fill-opacity="0.05"/>
<path d="M34 66C51.6731 66 66 51.6731 66 34C66 16.3269 51.6731 2 34 2C16.3269 2 2 16.3269 2 34C2 51.6731 16.3269 66 34 66Z" fill="black" fill-opacity="0.05"/>
<path d="M34 65C51.6731 65 66 50.6731 66 33C66 15.3269 51.6731 1 34 1C16.3269 1 2 15.3269 2 33C2 50.6731 16.3269 65 34 65Z" fill="black" fill-opacity="0.05"/>
<path d="M34 64C51.6731 64 66 49.6731 66 32C66 14.3269 51.6731 0 34 0C16.3269 0 2 14.3269 2 32C2 49.6731 16.3269 64 34 64Z" fill="white"/>
<path opacity="0.19" d="M34 52.1152C45.598 52.1152 55 51.4437 55 50.6152C55 49.7868 45.598 49.1152 34 49.1152C22.402 49.1152 13 49.7868 13 50.6152C13 51.4437 22.402 52.1152 34 52.1152Z" fill="#020202"/>
<path opacity="0.2" d="M37.0859 52.1152C45.3702 52.1152 52.0859 51.4437 52.0859 50.6152C52.0859 49.7868 45.3702 49.1152 37.0859 49.1152C28.8017 49.1152 22.0859 49.7868 22.0859 50.6152C22.0859 51.4437 28.8017 52.1152 37.0859 52.1152Z" fill="black"/>
<path d="M46.9244 34.2168C45.9906 36.7577 47.3382 39.5108 49.8789 40.4451C49.9598 43.4112 50.0677 49.2087 50.6339 50.4491H47.4254C47.4254 48.8042 48.3961 47.5369 48.1534 44.7055C47.9107 41.8742 46.6115 41.8128 45.7658 41.3446C44.0469 40.393 43.27 39.1896 43.3722 37.2276C43.4449 35.8307 46.9244 34.2168 46.9244 34.2168Z" fill="#513A2B"/>
<path d="M32.6165 38.0438C32.3754 40.3298 32.0154 42.6016 31.5379 44.8501C30.974 46.6871 30.5237 48.557 30.1896 50.4493H27.2168C27.6162 49.5463 28.0757 48.6711 28.592 47.8295C29.2661 46.8021 29.4829 42.0195 29.4155 39.3997C29.2388 38.3709 30.0363 38.1952 31.0651 38.0185C31.3184 37.975 32.3666 37.9836 32.6165 38.0438Z" fill="#513A2B"/>
<path d="M46.1071 29.5087C44.228 28.0684 40.19 28.3022 38.2026 28.6079C35.7488 28.9855 31.0074 28.9765 28.7244 27.6642C26.4413 26.3519 25.2054 23.6104 25.3672 22.7295C26.4099 22.8734 27.857 21.633 27.6233 21.2015C27.3896 20.7701 24.9807 21.7948 24.6931 21.5431C24.5852 21.0038 23.5425 20.5004 22.446 20.6982C21.3494 20.8959 20.9719 21.5611 20.0731 22.1543C19.1742 22.7476 17.6282 22.8913 17.4125 23.2689C17.1968 23.6464 17.754 25.1025 18.3833 25.1924C19.0125 25.2823 20.7921 25.1924 21.4393 25.6598C22.0865 26.1271 22.0706 30.1615 22.8975 32.9299C23.7245 35.6984 24.9826 34.9112 25.6802 36.9197C26.0352 37.9418 21.7066 40.4001 21.8504 41.0473C21.9942 41.6945 23.8054 45.6134 24.493 46.7729C25.1806 47.9324 26.7773 48.0267 27.8154 47.9593C27.8154 47.9593 26.9772 46.8268 26.8154 46.3145C25.548 45.7483 24.1665 42.0741 24.2744 41.5078C24.3823 40.9415 28.51 40.2282 30.6802 38.6643C32.1094 39.1767 37.5792 38.097 39.7095 37.7464C41.0578 42.2496 43.7707 41.2816 42.9887 45.3803C42.2067 49.479 40.1034 49.9643 40.1034 51.3665C40.1034 51.3665 42.3013 51.3665 42.9215 51.3665C43.0293 50.234 44.7551 45.8656 46.0764 42.6028C43.7304 38.8817 45.0248 37.7491 45.6719 36.6705C46.2668 35.679 47.5461 33.9712 47.145 31.4833C47.3928 31.7183 47.6415 32.0324 47.6763 32.4011C47.76 33.2859 48.701 33.3898 49.3212 32.5808C50.5417 30.9888 47.4019 29.6073 46.1071 29.5087Z" fill="#91684C"/>
<path d="M32.0628 14.9997C31.5769 13.3504 30.3455 12.1255 29.9937 12.8437C29.8081 13.2568 31.0976 14.1573 31.0122 15.258C30.9767 16.7024 30.0569 18.1 29.8987 17.7369C29.9181 17.6288 30.2892 16.8025 30.3166 16.0262C30.3247 15.3581 29.9889 14.74 29.4289 14.7513C28.7414 14.8514 30.5716 15.8487 28.3575 18.2422C27.6232 19.2266 26.7695 19.6318 26.7195 19.288C26.6501 19.0524 28.1219 18.3116 28.2267 17.1028C28.3316 15.894 27.9571 15.4921 27.7215 15.5616C27.1228 15.7891 27.8136 16.9172 26.7356 17.9517C25.6769 18.8782 23.5209 20.9472 21.6326 20.2744C21.3082 20.2163 22.6266 17.216 23.1479 17.421C24.1711 17.939 25.1023 17.1013 25.1797 16.6688C25.2184 16.4525 24.4341 17.0933 23.9516 16.6721C23.9709 16.564 25.7752 15.2131 25.5976 14.9581C25.4201 14.7031 23.3802 16.1234 23.3108 15.8878C23.0138 15.0534 24.3969 14.1851 23.9643 14.1077C23.2962 14.0996 22.5813 14.976 22.349 16.2735C22.2909 16.5979 20.4173 17.7132 20.0381 19.2077C19.2118 18.8365 18.6598 18.1797 18.3241 17.5616C17.8996 16.816 17.5478 17.5342 17.8948 18.7123C18.2806 19.6742 19.6896 21.154 21.2728 21.6607C23.5048 22.2835 26.6954 21.2924 27.746 21.0342C28.7078 20.6484 32.5245 18.6535 33.094 14.8496C33.3457 13.4439 32.492 13.849 32.0628 14.9997Z" fill="#91684C"/>
<path opacity="0.19" d="M46.1055 29.5145C46.103 29.5098 46.0947 29.5042 46.0918 29.4994C45.7726 29.2575 45.3787 29.0769 44.9572 28.9226C46.6095 31.2244 41.9659 33.3518 41.2665 31.5334C41.2665 31.5334 35.0975 34.4786 32.6772 32.6553C30.7322 31.19 27.7313 31.7047 26.0485 31.0737C23.7624 30.2163 24.5436 23.6803 23.1454 24.0112C21.7805 24.3342 20.7405 24.4554 17.4922 24.105C17.5032 24.1363 17.5157 24.1674 17.528 24.1987C17.5551 24.2674 17.5831 24.3356 17.6152 24.402C17.6423 24.4581 17.6715 24.5126 17.702 24.566C17.73 24.6147 17.7596 24.6623 17.791 24.7089C17.8296 24.7665 17.869 24.8224 17.911 24.8725C17.9382 24.9042 17.9683 24.9332 17.9984 24.9621C18.0458 25.0093 18.0932 25.0572 18.1434 25.0911C18.1717 25.1116 18.2065 25.1184 18.2379 25.1336C18.2863 25.1565 18.3341 25.1852 18.3837 25.1922C18.8933 25.2651 20.1496 25.2248 20.9556 25.4534C20.9639 25.4557 20.972 25.4581 20.9803 25.4605C21.0648 25.4853 21.1442 25.5127 21.2166 25.5443C21.2361 25.5528 21.2518 25.5631 21.2704 25.5721C21.3285 25.6005 21.3927 25.6257 21.4397 25.6596C21.4989 25.7024 21.5511 25.7841 21.6003 25.8829C21.6024 25.887 21.6043 25.891 21.6063 25.8951C22.0332 26.776 22.132 29.6269 22.6629 32.0089C22.7209 32.2695 22.7846 32.5235 22.8541 32.7695C22.8691 32.8224 22.8824 32.8777 22.8979 32.9298C23.7249 35.6982 24.983 34.9111 25.6807 36.9195C25.7034 36.985 25.7058 37.0568 25.6925 37.1332C25.5223 38.1727 22.2103 40.1544 21.8734 40.9092C21.8511 40.9612 21.8421 41.0078 21.8508 41.0472C21.9947 41.6943 23.8058 45.6133 24.4935 46.7728C25.1798 47.93 26.7714 48.0261 27.8096 47.9594C27.7861 47.9275 26.9733 46.8252 26.8138 46.3203C25.5464 45.7541 24.1649 42.0799 24.2728 41.5136L24.2748 41.5104L24.2748 41.5077C24.3827 40.9414 28.5104 40.228 30.6807 38.6642C32.1098 39.1766 37.5797 38.0968 39.71 37.7463C41.0582 42.2494 43.7711 41.2814 42.9891 45.3801C42.8911 45.8942 42.7721 46.3512 42.6392 46.7606L42.6386 46.7626C42.6377 46.7654 42.6366 46.7675 42.6357 46.7703C42.5483 47.0383 42.4536 47.2796 42.3562 47.509C42.3286 47.5741 42.3011 47.6376 42.2728 47.6999C42.1827 47.8984 42.0906 48.0867 41.996 48.2586C41.9711 48.3039 41.9463 48.3461 41.9212 48.3898C41.8361 48.5376 41.7505 48.676 41.6647 48.8063C41.6207 48.8732 41.5777 48.9375 41.5339 49.0003C41.4728 49.0876 41.4128 49.1699 41.3528 49.2502C41.3192 49.2952 41.2844 49.3473 41.2512 49.3904C41.1769 49.4868 41.111 49.566 41.0401 49.6539C41.0301 49.6663 41.0202 49.6788 41.0103 49.691C40.9431 49.7739 40.871 49.8658 40.8085 49.9427C40.6715 50.1117 40.5474 50.2684 40.4427 50.4218C40.3383 50.5747 40.2535 50.7242 40.1945 50.8792L40.1931 50.8843C40.1368 51.0336 40.1069 51.1888 40.1049 51.356C40.1049 51.3595 40.1039 51.3628 40.1039 51.3663C40.1039 51.3663 42.2996 51.3663 42.9208 51.3663C42.9559 51.0107 43.1472 50.3428 43.4343 49.4921C44.0672 47.6161 45.1661 44.8517 46.0746 42.6083C44.6075 40.2811 44.5643 38.9665 44.8961 38.0443C45.0945 37.489 45.4291 37.0758 45.6723 36.6704C46.2655 35.6818 47.5375 33.9801 47.1472 31.5038C47.1456 31.4986 47.1449 31.4943 47.1434 31.4891L47.1462 31.4925C47.1457 31.4892 47.1459 31.4864 47.1454 31.4831C47.3932 31.7182 47.6419 32.0323 47.6768 32.4009C47.7604 33.2857 48.7014 33.3896 49.3216 32.5807C49.3976 32.4814 49.4567 32.383 49.5004 32.2857C50.1473 30.8241 47.318 29.6068 46.1055 29.5145Z" fill="black"/>
<path opacity="0.19" d="M44.8381 39.89C44.7624 39.5594 44.7268 39.2601 44.7293 38.9926C44.7329 38.6285 44.7984 38.3166 44.8977 38.0399C45.0963 37.4866 45.43 37.0745 45.6726 36.67C45.7771 36.4959 45.9036 36.2963 46.0368 36.0771L46.0531 36.0502C46.0606 36.038 46.0679 36.0258 46.0754 36.0135C46.0796 36.0065 46.0838 35.9996 46.088 35.9926C46.1538 35.8831 46.2212 35.7678 46.2885 35.6475C46.6729 34.9678 47.0542 34.1177 47.1761 33.0855C46.9002 34.8101 41.6318 37.8704 40.8481 34.8927C40.8481 34.8927 36.1483 36.469 32.9016 36.2483C31.5218 36.1545 30.9382 34.5562 28.7251 34.6123C25.1928 34.7018 23.4204 33.0784 22.521 31.3154C22.5209 31.3151 22.521 31.3157 22.521 31.3154C22.6183 31.8594 22.7443 32.3987 22.8983 32.9294C23.3408 34.4108 23.9065 34.8737 24.4439 35.292C24.5342 35.3623 24.624 35.4318 24.712 35.5042C24.7732 35.5544 24.8336 35.6064 24.893 35.6615C25.1903 35.937 25.463 36.2916 25.681 36.9192C25.8807 37.4942 24.5984 38.5236 23.4638 39.4294C22.9596 39.832 22.4845 40.2101 22.1816 40.5132C22.0302 40.6647 21.9218 40.7975 21.8744 40.9051C21.8506 40.9589 21.8422 41.0064 21.8512 41.0469C21.9051 41.2896 22.1935 41.9923 22.5692 42.8372C22.6944 43.1187 22.8294 43.4161 22.9685 43.7175C23.0381 43.8682 23.1089 44.0199 23.1798 44.1711C23.2988 44.4244 23.4183 44.6745 23.5362 44.9182C23.6295 45.111 23.722 45.3006 23.811 45.4797C23.9454 45.75 24.0731 46.0007 24.1887 46.2201C24.3043 46.4395 24.4079 46.6275 24.4938 46.7725C24.5797 46.9174 24.6799 47.0457 24.7914 47.1591C25.2188 47.5939 25.8133 47.8065 26.4124 47.9033C26.751 47.9581 27.0908 47.9783 27.4035 47.9748C27.5479 47.9732 27.6864 47.9673 27.8162 47.9589C27.8162 47.9589 26.9779 46.8264 26.8162 46.314C26.4994 46.1725 26.1753 45.8367 25.8693 45.4037C25.7162 45.1873 25.5677 44.9465 25.4268 44.6937C25.2859 44.4408 25.1525 44.1758 25.0299 43.9107C24.9073 43.6457 24.7956 43.3806 24.6976 43.1277C24.5996 42.8749 24.5155 42.6341 24.4485 42.4177C24.3478 42.093 24.2855 41.8228 24.272 41.6484C24.2675 41.5902 24.2684 41.5427 24.2752 41.5073C24.3426 41.1534 25.9803 40.7421 27.7288 40.1015C28.2534 39.9093 28.788 39.6966 29.2932 39.4585C29.7983 39.2205 30.274 38.9571 30.6809 38.6639C30.9489 38.7599 31.359 38.8 31.8624 38.7995C32.198 38.7991 32.5752 38.7807 32.9794 38.7487C33.3836 38.7167 33.8149 38.6711 34.2589 38.6165C36.257 38.371 38.512 37.9431 39.7103 37.746C40.0473 38.8718 40.4697 39.6556 40.9014 40.2621C41.1173 40.5654 41.3355 40.8243 41.5465 41.0596C41.652 41.1772 41.7558 41.2889 41.8565 41.3972C42.0581 41.6138 42.2476 41.8169 42.4159 42.0272C42.6682 42.3427 42.8725 42.6741 42.9966 43.0911C43.0793 43.3691 43.1264 43.6851 43.1284 44.0598C43.1294 44.247 43.1191 44.4489 43.0963 44.6681C43.0736 44.8873 43.0384 45.1237 42.9895 45.3798C42.8258 46.2377 42.6028 46.9302 42.3547 47.513C42.33 47.571 42.3054 47.6276 42.2802 47.6834C42.0778 48.1315 41.862 48.5093 41.6458 48.8345C41.6187 48.8752 41.5923 48.9147 41.5653 48.9539C41.2984 49.3409 41.0363 49.6586 40.8094 49.9384C40.6731 50.1066 40.5493 50.2628 40.445 50.4155C40.3405 50.5686 40.2555 50.7183 40.1965 50.8735C40.1963 50.874 40.1961 50.8745 40.196 50.8749C40.1371 51.03 40.1043 51.1906 40.1043 51.3654C40.1043 51.3651 40.1043 51.3656 40.1043 51.3654C40.1043 51.3654 42.302 51.366 42.9223 51.366C42.9762 50.7997 43.4345 49.4246 44.0446 47.7831C44.1971 47.3727 44.3592 46.9457 44.5267 46.5105C44.6105 46.2929 44.6956 46.0733 44.7816 45.8527C45.2118 44.7496 45.6642 43.622 46.0771 42.6024C45.3742 41.4874 45.0027 40.6083 44.8381 39.89Z" fill="black"/>
</g>
<defs>
<clipPath id="clip0_2883_12605">
<rect width="64" height="68" fill="white" transform="translate(2)"/>
</clipPath>
</defs>
</svg>
