<svg width="68" height="68" viewBox="0 0 68 68" fill="none" xmlns="http://www.w3.org/2000/svg">
<path opacity="0.4" d="M34 68C51.6731 68 66 53.6731 66 36C66 18.3269 51.6731 4 34 4C16.3269 4 2 18.3269 2 36C2 53.6731 16.3269 68 34 68Z" fill="black" fill-opacity="0.05"/>
<path d="M34 66C51.6731 66 66 51.6731 66 34C66 16.3269 51.6731 2 34 2C16.3269 2 2 16.3269 2 34C2 51.6731 16.3269 66 34 66Z" fill="black" fill-opacity="0.05"/>
<path d="M34 65C51.6731 65 66 50.6731 66 33C66 15.3269 51.6731 1 34 1C16.3269 1 2 15.3269 2 33C2 50.6731 16.3269 65 34 65Z" fill="black" fill-opacity="0.05"/>
<path d="M34 64C51.6731 64 66 49.6731 66 32C66 14.3269 51.6731 0 34 0C16.3269 0 2 14.3269 2 32C2 49.6731 16.3269 64 34 64Z" fill="white"/>
<path opacity="0.2" d="M35 52C46.598 52 56 51.3284 56 50.5C56 49.6716 46.598 49 35 49C23.402 49 14 49.6716 14 50.5C14 51.3284 23.402 52 35 52Z" fill="black"/>
<path opacity="0.2" d="M38 52C46.2843 52 53 51.3284 53 50.5C53 49.6716 46.2843 49 38 49C29.7157 49 23 49.6716 23 50.5C23 51.3284 29.7157 52 38 52Z" fill="black"/>
<path d="M24.2118 14.6877C24.3576 14.1044 28.0277 12.7676 30.5555 13.0349C33.0833 13.3023 33.0347 13.594 33.0347 13.594C33.5694 13.4481 34.7603 13.8613 34.3471 15.0523C35.368 16.1217 38.0173 23.6807 38.0173 25.139C38.0173 26.5973 40.3506 33.6945 40.2534 34.8612C40.1561 36.0278 38.813 43.8292 40.0589 45.4097C41.3714 47.0746 43.506 48.7166 45.6121 48.7166C50.4245 48.7166 48.8696 51 45.9287 51C43.1294 51 40.9339 50.1007 38.7464 47.5C36.0728 49.1527 34.9548 51 34.9548 51C31.8437 51 27.1284 51 27.1284 51C27.1284 49.5416 28.5868 49.6875 29.4131 49.7847C30.2395 49.8819 30.9201 48.8611 30.0937 46.9653C29.2673 45.0694 26.5451 40.1111 26.6909 36.5139C26.7235 35.7113 26.7512 34.9921 26.7746 34.3591C25.6762 35.0252 23.671 34.7883 23.671 34.7883C23.947 34.1448 24.076 33.9487 24.3872 33.4604C23.7106 33.8601 22.9441 34.0683 22 33.9862C22.8021 31.4584 23.7986 31.6043 24.8923 30.0001C25.9861 28.3959 27.3958 25.698 27.9305 24.4342C28.4652 23.1703 28.2222 19.6703 28.2222 19.6703C26.5208 19.1599 24.7951 17.4585 24.309 16.0974C23.8229 14.7363 24.2118 14.6877 24.2118 14.6877Z" fill="#B18350"/>
<path opacity="0.19" d="M45.9296 51C48.8705 51 50.4254 48.7166 45.613 48.7166C43.5069 48.7166 41.3723 47.0746 40.0598 45.4098C38.8138 43.8293 40.157 36.0279 40.2542 34.8612C40.3515 33.6945 38.0182 26.5973 38.0182 25.139C38.0182 23.6807 35.3689 16.1217 34.348 15.0523C34.7612 13.8613 33.5703 13.4481 33.0355 13.594C33.0355 13.594 33.0842 13.3023 30.5564 13.0349C28.0286 12.7675 24.3585 14.1044 24.2127 14.6877C24.2127 14.6877 23.8238 14.7363 24.3099 16.0974C24.3674 16.2583 24.4449 16.4245 24.5349 16.5924C26.1146 18.054 27.3264 18.2131 29.1588 18.7832C30.7995 19.2935 32.2942 24.179 30.7995 27.1685C30.3402 28.087 28.5583 28.7249 27.9058 29.4851C26.8782 30.6824 25.9046 31.6298 25.6224 32C25.3427 32.3669 24.8683 32.8969 24.3857 33.4641C24.261 33.6599 24.1675 33.8088 24.08 33.9588C24.0593 33.9944 24.0366 34.0305 24.0164 34.0669C23.9109 34.2572 23.8097 34.4669 23.6719 34.7883C23.6719 34.7883 25.6771 35.0252 26.7755 34.3591C26.7753 34.3629 26.7751 34.3675 26.775 34.3714C27.1484 34.1318 27.4789 33.833 27.737 33.4576C28.7395 31.9992 28.8854 32.2544 28.8854 32.2544C29.7786 33.3117 29.9244 33.6202 29.5234 34.7876C29.1224 35.9549 31.638 35.9185 32.0025 37.3039C32.3671 38.6893 30.402 41.6303 31.277 44.7293C32.152 47.8282 33.3029 49.3654 32.8046 49.7178C32.3064 50.0703 30.5078 49.0069 30.5078 51C31.9475 51 33.603 51 34.9557 51C34.9557 51 36.0737 49.1527 38.7473 47.5C40.9348 50.1006 43.1303 51 45.9296 51Z" fill="#191000"/>
<path d="M24.534 16.5924C25.8402 16.0974 25.9617 15.5384 25.8402 14.7849C25.7186 14.0314 31.2117 12.9377 32.111 14.2502C32.913 13.8613 34.3471 15.7202 32.111 15.7202C33.7394 18.4667 35.7139 21.3589 36.2 24.2269C36.6861 27.095 37.288 31.3774 38.0172 33.6135C38.7463 35.8497 36.7909 41.6927 37.52 43.8802C38.2492 46.0677 41.989 47.3043 41.989 47.3043C41.9869 47.2996 41.9853 47.2963 41.9831 47.2917C41.2472 46.7358 40.5851 46.0774 40.0589 45.4098C38.8129 43.8293 40.1561 36.0279 40.2532 34.8612C40.3505 33.6945 38.0172 26.5973 38.0172 25.139C38.0172 23.6807 35.3679 16.1217 34.3471 15.0523C34.7603 13.8613 33.5693 13.4481 33.0345 13.594C33.0345 13.594 33.0832 13.3023 30.5554 13.0349C28.0277 12.7675 24.3576 14.1044 24.2117 14.6877C24.2117 14.6877 23.8228 14.7363 24.309 16.0974C24.3664 16.2583 24.4439 16.4245 24.534 16.5924Z" fill="#7D5B35"/>
</svg>
