<svg width="68" height="68" viewBox="0 0 68 68" fill="none" xmlns="http://www.w3.org/2000/svg">
<path opacity="0.4" d="M34 68C51.6731 68 66 53.6731 66 36C66 18.3269 51.6731 4 34 4C16.3269 4 2 18.3269 2 36C2 53.6731 16.3269 68 34 68Z" fill="black" fill-opacity="0.05"/>
<path d="M34 66C51.6731 66 66 51.6731 66 34C66 16.3269 51.6731 2 34 2C16.3269 2 2 16.3269 2 34C2 51.6731 16.3269 66 34 66Z" fill="black" fill-opacity="0.05"/>
<path d="M34 65C51.6731 65 66 50.6731 66 33C66 15.3269 51.6731 1 34 1C16.3269 1 2 15.3269 2 33C2 50.6731 16.3269 65 34 65Z" fill="black" fill-opacity="0.05"/>
<path d="M34 64C51.6731 64 66 49.6731 66 32C66 14.3269 51.6731 0 34 0C16.3269 0 2 14.3269 2 32C2 49.6731 16.3269 64 34 64Z" fill="white"/>
<path opacity="0.2" d="M34 35.998C45.598 35.998 55 35.3265 55 34.498C55 33.6696 45.598 32.998 34 32.998C22.402 32.998 13 33.6696 13 34.498C13 35.3265 22.402 35.998 34 35.998Z" fill="black"/>
<path opacity="0.2" d="M35.0325 35.998C46.0607 35.998 55.0006 35.3265 55.0006 34.498C55.0006 33.6696 46.0607 32.998 35.0325 32.998C24.0045 32.998 15.0645 33.6696 15.0645 34.498C15.0645 35.3265 24.0045 35.998 35.0325 35.998Z" fill="black"/>
<path d="M36.1064 31.3072C36.1379 32.0374 37.3389 32.6814 37.8127 32.9442C37.0644 33.2301 33.4043 32.8533 33.4043 34.635C33.4043 34.635 40.8297 34.635 41.5958 34.635C41.5958 33.7618 40.3247 31.852 40.7994 31.0938L36.1064 31.3072Z" fill="#594B0E"/>
<path d="M24.413 31.5869C24.2687 31.8027 23.2963 33.1857 22.2242 32.9279C21.063 32.6487 19.5 33.4688 19.5 34.4982C19.5 34.4982 21.8669 34.4982 23.549 34.4982C25.2107 34.4982 26.0594 33.1469 27.0412 31.7349L24.413 31.5869Z" fill="#594B0E"/>
<path d="M54.8607 32.0307C54.3383 28.5372 50.8978 25.61 47.861 24.2825C43.502 22.377 38.7504 23.2225 36.1434 23.5821C33.266 23.979 25.9067 25.7057 25.0748 25.9426C24.2429 26.1795 23.575 25.4475 23.1416 25.6464C22.6993 25.8494 22.5787 25.9823 21.7616 25.7916C21.0546 25.6267 21.0103 26.5086 20.6775 26.6534C20.3447 26.7982 17.6232 27.7064 16.6367 27.9624C15.6503 28.2184 14.7708 28.0882 14.45 27.8644C14.1291 27.6406 13.1435 28.0952 13 29.1017C13.0872 30.1635 14.5623 30.3851 16.1772 30.497C17.7921 30.6089 18.1738 31.2165 19.0865 31.5394C19.9993 31.8623 21.5015 31.4447 22.0086 31.5676C23.7921 31.9492 25.6266 32.16 27.35 32.2872C27.1972 32.503 26.1678 33.886 25.0328 33.6282C23.8036 33.349 22.149 34.1691 22.149 35.1984C22.149 35.1984 24.6546 35.1984 26.4354 35.1984C28.1945 35.1984 29.0929 33.8472 30.1322 32.4351C31.411 32.4778 32.5476 32.4909 33.4178 32.5153C35.8894 32.5846 38.1144 32.5397 41.2997 32.0076C41.3292 32.7379 42.3643 33.3546 42.8085 33.6173C42.1069 33.9033 38.1277 33.5538 38.1277 35.3355C38.1277 35.3355 45.7285 35.3355 46.4468 35.3355C46.4468 34.4622 45.2549 32.5524 45.7001 31.7942C46.7991 31.8575 48.792 32.3659 50.0438 33.7349C51.6417 35.4823 50.8912 38.8518 48.9421 40.6798C46.6098 42.8673 41.3667 43.8432 42.6961 44.2259C45.3347 44.9854 49.0623 43.6481 51.4638 41.6787C54.5448 39.1523 55.3682 35.4247 54.8607 32.0307Z" fill="#BA9C1F"/>
<path opacity="0.19" d="M38.1277 35.3352C38.1277 35.3352 45.7285 35.3352 46.4468 35.3352C46.4468 34.4619 45.2549 32.5522 45.7001 31.7939C46.7991 31.8572 48.792 32.3656 50.0438 33.7346C51.3831 35.1993 51.059 37.7939 49.7757 39.6748L49.7843 39.6914C51.6176 38.7129 53.4211 35.1503 51 31.638C50.1317 30.3782 49.1757 30.605 47.2979 28.532C45.4202 26.459 43.0286 26.2766 41.766 28.2766C40.8505 29.7268 31.9272 30.2824 31.149 28.9894C29.9866 27.0583 26.9187 30.0759 25.8019 28.0975C25.4207 27.4224 24.7188 26.3476 23.9942 25.8213C23.994 25.8213 23.9944 25.8214 23.9942 25.8213C23.6544 25.689 23.3657 25.5432 23.1416 25.6461C22.6993 25.8491 22.5787 25.982 21.7616 25.7913C21.0546 25.6264 21.0103 26.5083 20.6775 26.6531C20.3447 26.7979 17.6232 27.7062 16.6367 27.9621C15.6503 28.2181 14.7708 28.0879 14.45 27.8641C14.1291 27.6403 13.1435 28.0949 13 29.1014C13.0872 30.1632 14.5623 30.3848 16.1772 30.4967C17.7921 30.6086 18.1738 31.2162 19.0865 31.5391C19.9993 31.862 21.5015 31.4444 22.0086 31.5673C23.7921 31.9489 25.6266 32.1598 27.35 32.2869C27.1972 32.5027 26.1678 33.8857 25.0328 33.6279C23.8036 33.3487 22.149 34.1688 22.149 35.1982C22.149 35.1982 24.6546 35.1982 26.4354 35.1982C28.1945 35.1982 29.0929 33.8469 30.1322 32.4348C31.411 32.4775 32.5476 32.4906 33.4178 32.515C35.8894 32.5843 38.1144 32.5394 41.2997 32.0074C41.3292 32.7376 42.3643 33.3543 42.8085 33.617C42.1069 33.903 38.1277 33.5535 38.1277 35.3352Z" fill="black"/>
<path opacity="0.19" d="M22.0086 31.5677C23.7921 31.9493 25.6266 32.1602 27.35 32.2873C27.1972 32.5031 26.1678 33.8861 25.0328 33.6283C23.8036 33.3491 22.149 34.1692 22.149 35.1985C22.149 35.1985 24.6546 35.1985 26.4354 35.1985C28.1945 35.1985 29.0929 33.8473 30.1322 32.4352C31.411 32.4779 32.5476 32.491 33.4178 32.5154C35.8894 32.5847 38.1144 32.5398 41.2997 32.0078C41.3292 32.738 42.3643 33.3547 42.8085 33.6174C42.1069 33.9034 38.1277 33.5539 38.1277 35.3356C38.1277 35.3356 45.7285 35.3356 46.4468 35.3356C46.4468 34.4623 45.2549 32.5526 45.7001 31.7943C44.7148 31.8597 42.149 32.0643 41.4894 30.1494C41.1091 31.3475 30.1259 32.6471 30.3192 31.3258C30.4415 30.4897 28.0958 29.5217 27.6171 31.0217C27.3213 31.9486 24.4468 30.9249 24.4468 29.5643C24.4468 28.2079 22.1745 27.3682 22.0426 28.511C21.9788 29.0643 21.1555 29.6979 19.3432 29.0697C18.2184 28.6798 16.427 30.5195 13.1867 28.5611C13.1865 28.5615 13.1863 28.562 13.186 28.5624C13.145 28.6376 13.1082 28.7175 13.0771 28.8019C13.0446 28.8965 13.0153 28.9944 13 29.1018C13.0872 30.1636 14.5623 30.3852 16.1772 30.4971C17.7921 30.609 18.1738 31.2166 19.0865 31.5395C19.9993 31.8624 21.5015 31.4448 22.0086 31.5677Z" fill="black"/>
</svg>
