<svg width="68" height="68" viewBox="0 0 68 68" fill="none" xmlns="http://www.w3.org/2000/svg">
<g clip-path="url(#clip0_2883_12619)">
<path opacity="0.4" d="M34 68C51.6731 68 66 53.6731 66 36C66 18.3269 51.6731 4 34 4C16.3269 4 2 18.3269 2 36C2 53.6731 16.3269 68 34 68Z" fill="black" fill-opacity="0.05"/>
<path d="M34 66C51.6731 66 66 51.6731 66 34C66 16.3269 51.6731 2 34 2C16.3269 2 2 16.3269 2 34C2 51.6731 16.3269 66 34 66Z" fill="black" fill-opacity="0.05"/>
<path d="M34 65C51.6731 65 66 50.6731 66 33C66 15.3269 51.6731 1 34 1C16.3269 1 2 15.3269 2 33C2 50.6731 16.3269 65 34 65Z" fill="black" fill-opacity="0.05"/>
<path d="M34 64C51.6731 64 66 49.6731 66 32C66 14.3269 51.6731 0 34 0C16.3269 0 2 14.3269 2 32C2 49.6731 16.3269 64 34 64Z" fill="white"/>
<path opacity="0.2" d="M37 43.8907C46.9411 43.8907 55 43.2578 55 42.4771C55 41.6964 46.9411 41.0635 37 41.0635C27.0589 41.0635 19 41.6964 19 42.4771C19 43.2578 27.0589 43.8907 37 43.8907Z" fill="black"/>
<path opacity="0.19" d="M34 43.8907C45.598 43.8907 55 43.2578 55 42.4771C55 41.6964 45.598 41.0635 34 41.0635C22.402 41.0635 13 41.6964 13 42.4771C13 43.2578 22.402 43.8907 34 43.8907Z" fill="#020202"/>
<path d="M50.199 30.5879C50.3009 32.473 48.8234 34.995 48.6451 37.0074C48.4667 39.0199 48.2884 40.9815 48.2884 40.9815C47.4478 41.8221 47.4223 42.408 47.4223 42.408C44.6711 42.408 41.3594 42.408 41.3594 42.408C41.3594 40.905 44.3908 40.3446 44.3908 40.3446C45.1551 38.3321 42.3274 34.7912 42.3274 34.7912L50.199 30.5879Z" fill="#393A3D"/>
<path d="M24.3781 30.6131C25.4902 30.7726 25.6263 32.6511 26.1103 33.4153C26.5943 34.1795 28.0464 38.663 27.2822 40.3189C27.2822 40.3189 24.2252 40.6755 24.2252 42.4078C24.2252 42.4078 28.5814 42.4078 30.39 42.4078C30.39 42.4078 31.0269 39.5292 32.0204 37.6695C31.9695 37.0072 31.7911 35.4023 32.5808 33.3134C33.0597 32.1823 30.8411 30.1599 28.3969 29.732C26.0377 29.319 23.4404 30.4787 24.3781 30.6131Z" fill="#393A3D"/>
<path d="M18.9258 22.8712C20.1585 21.5948 21.0013 21.3088 21.0013 21.3088C21.2688 20.2197 23.7718 20.9712 24.0185 20.9997C24.634 21.071 25.3983 21.1703 26.7076 20.9521C28.5418 20.6464 29.9174 19.7803 31.4119 20.052C31.8514 20.1319 32.4564 20.223 33.0307 20.2966C33.3723 20.6686 34.0716 20.7371 34.6047 20.7725C34.966 20.7965 35.5397 20.7933 35.7304 20.4981C36.1739 20.4984 36.6487 20.4774 36.9993 20.4257C38.4938 20.2049 41.7885 20.0011 43.3509 20.2388C44.9133 20.4766 47.7495 22.1579 48.5816 23.0071C49.4138 23.8562 50.9593 24.06 52.182 26.3527C53.4048 28.6454 53.6921 32.3639 53.0401 32.4909C52.5964 32.5773 52.4507 32.1521 52.4093 31.7524C52.3404 31.8679 52.1449 33.0659 51.7898 34.124C51.3962 35.2973 45.4183 36.5858 45.4183 36.5858C43.4012 37.9681 36.5168 37.37 34.3005 35.0264C32.4918 35.6887 28.1126 33.2468 27.6634 32.5948C27.4689 32.3125 26.7746 31.6397 26.4359 31.6166C25.315 31.5402 24.6076 32.3632 21.3073 31.6471C19.8625 31.3336 18.6101 32.7561 16.831 32.0649C15.9667 31.7291 15.4185 31.359 15.0063 30.1739C14.8705 29.7833 16.9623 27.436 16.9953 26.4874C17.0463 25.0237 18.1445 23.6802 18.9258 22.8712Z" fill="#D5DCE9"/>
<path d="M17.8423 25.9327C18.7155 25.4854 19.6005 27.5291 20.1099 28.0004C20.6194 28.4716 20.4152 29.4354 19.5746 29.2698C18.7339 29.1043 18.3263 28.5311 17.8423 27.7669C17.3583 27.0026 17.3201 26.2002 17.8423 25.9327Z" fill="#53545C"/>
<path d="M22.3598 24.2125C23.175 24.1956 25.1026 22.5482 24.644 21.8179C24.1855 21.0877 24.3129 21.4295 23.8225 20.8117C23.5413 20.4574 23.1849 20.0282 22.7939 20.0729C22.5373 20.1023 22.3195 20.2958 22.3641 20.5315C22.3161 20.4078 21.7183 19.8803 21.2845 20.0365C20.9377 20.1614 20.2352 20.6626 20.5126 21.3727C20.8353 21.9502 20.8059 21.7925 21.0267 22.3699C21.2938 23.0686 21.5447 24.2295 22.3598 24.2125Z" fill="#666770"/>
<path d="M35.0181 38.7944C36.0359 36.291 36.7667 34.7001 37.5309 32.6197C38.0264 31.2708 38.2432 29.5967 37.7677 28.0003C37.2921 26.4039 37.3567 24.6205 37.017 23.3809C36.7397 22.3689 36.242 21.5604 35.7312 20.4983C34.876 20.4937 33.9132 20.408 33.0315 20.2969C32.425 20.8299 31.891 21.7184 31.6844 22.4299C31.3787 23.4829 31.4127 24.4678 29.9182 25.283C28.4237 26.0982 26.9051 29.5454 27.6642 32.5951C27.6665 32.6041 27.8567 33.4247 28.1859 33.9444C28.6699 34.7086 30.1219 39.1921 29.3578 40.8479C29.3578 40.8479 26.3008 41.2045 26.3008 42.9368C26.3008 42.9368 31.7418 42.9368 33.5505 42.9368C33.5505 42.9368 34.3247 40.4997 35.0181 38.7944Z" fill="#666770"/>
<path d="M50.858 37.5362C51.0671 36.5001 51.3982 35.2918 51.7904 34.1242C49.2021 33.5876 49.3982 31.2779 46.9858 32.0592C44.8688 32.7447 44.5913 35.1331 45.4189 36.5859C45.4189 36.5859 47.3679 38.8608 46.6038 40.8733C46.6038 40.8733 43.5723 41.4337 43.5723 42.9367C43.5723 42.9367 47.7223 42.9367 50.4735 42.9367C50.4735 42.9367 50.395 39.8293 50.858 37.5362Z" fill="#666770"/>
<path opacity="0.19" d="M52.728 27.6406C51.3885 34.4442 46.8694 29.3179 42.8065 30.5876C41.1507 31.105 39.5371 30.9825 38.0032 30.4765C36.9422 30.1265 35.9198 29.591 34.949 28.9511C34.9258 28.9357 34.9028 28.9199 34.8796 28.9044C34.6733 28.767 34.4695 28.6245 34.268 28.4785C34.2216 28.4448 34.1753 28.411 34.1292 28.3769C33.9521 28.2462 33.7773 28.1122 33.6042 27.9763C33.5478 27.9319 33.491 27.8881 33.4351 27.8431C33.2688 27.71 33.1053 27.5743 32.943 27.4375C32.8898 27.3925 32.8355 27.3485 32.7827 27.3033C32.5735 27.1241 32.3671 26.9428 32.165 26.7599C32 26.6104 31.8355 26.4827 31.6713 26.3647C31.6364 26.3396 31.6014 26.3139 31.5665 26.2901C31.4075 26.1818 31.2491 26.0855 31.0918 26.0043C31.0651 25.9905 31.0387 25.9795 31.012 25.9665C30.8679 25.8959 30.7248 25.836 30.5829 25.7865C30.557 25.7775 30.531 25.7666 30.5052 25.7582C30.3509 25.7082 30.1985 25.6715 30.0476 25.6442C30.0141 25.6382 29.9809 25.6334 29.9475 25.6284C29.7948 25.6056 29.6433 25.5899 29.4951 25.5881C29.495 25.5881 29.4952 25.5881 29.4951 25.5881C27.6559 25.5665 26.1909 27.0846 25.8406 28.1355C25.3311 29.664 22.5798 30.683 20.8136 30.1395C19.0571 29.5991 16.6401 31.6052 15.2832 30.8063C15.2856 30.8106 15.2878 30.8153 15.2901 30.8196C15.3136 30.863 15.3391 30.908 15.3639 30.9524C15.7294 31.5486 16.1936 31.8172 16.8301 32.0645C18.6092 32.7557 19.8616 31.3332 21.3064 31.6467C24.6067 32.3628 25.3141 31.5398 26.435 31.6162C26.7738 31.6393 27.468 32.3121 27.6625 32.5944C27.6631 32.5967 27.6754 32.6497 27.6987 32.736C27.7686 32.9949 27.9373 33.554 28.1842 33.9437C28.6682 34.708 30.1203 39.1914 29.3561 40.8473C29.3561 40.8473 26.2991 41.2039 26.2991 42.9361C26.2991 42.9361 31.7401 42.9361 33.5488 42.9361C33.5488 42.9361 34.3231 40.4991 35.0164 38.7938C35.4122 37.8204 35.7639 36.9864 36.0917 36.2065C39.0514 37.5258 43.7984 37.6944 45.4171 36.5855C45.417 36.5856 45.4172 36.5855 45.4171 36.5855C45.4171 36.5855 46.7041 38.0871 46.7767 39.7298C46.7935 40.1088 46.7456 40.4954 46.6023 40.8728C46.6023 40.8728 43.5708 41.4332 43.5708 42.9361C43.5708 42.9361 46.9517 42.9361 49.6337 42.9361C49.9221 42.9361 50.2049 42.9361 50.472 42.9361C50.472 42.9361 50.3935 39.8288 50.8565 37.5356C51.0656 36.4995 51.3967 35.2912 51.789 34.1236C52.144 33.0656 52.3395 31.8675 52.4084 31.752C52.4498 32.1517 52.5956 32.5769 53.0392 32.4905C53.5788 32.3854 53.473 29.8215 52.728 27.6406Z" fill="black"/>
</g>
<defs>
<clipPath id="clip0_2883_12619">
<rect width="64" height="68" fill="white" transform="translate(2)"/>
</clipPath>
</defs>
</svg>
