<svg width="68" height="68" viewBox="0 0 68 68" fill="none" xmlns="http://www.w3.org/2000/svg">
<path opacity="0.4" d="M34 68C51.6731 68 66 53.6731 66 36C66 18.3269 51.6731 4 34 4C16.3269 4 2 18.3269 2 36C2 53.6731 16.3269 68 34 68Z" fill="black" fill-opacity="0.05"/>
<path d="M34 66C51.6731 66 66 51.6731 66 34C66 16.3269 51.6731 2 34 2C16.3269 2 2 16.3269 2 34C2 51.6731 16.3269 66 34 66Z" fill="black" fill-opacity="0.05"/>
<path d="M34 65C51.6731 65 66 50.6731 66 33C66 15.3269 51.6731 1 34 1C16.3269 1 2 15.3269 2 33C2 50.6731 16.3269 65 34 65Z" fill="black" fill-opacity="0.05"/>
<path d="M34 64C51.6731 64 66 49.6731 66 32C66 14.3269 51.6731 0 34 0C16.3269 0 2 14.3269 2 32C2 49.6731 16.3269 64 34 64Z" fill="white"/>
<path opacity="0.19" d="M34 47.9678C45.598 47.9678 55 47.2962 55 46.4678C55 45.6393 45.598 44.9678 34 44.9678C22.402 44.9678 13 45.6393 13 46.4678C13 47.2962 22.402 47.9678 34 47.9678Z" fill="#020202"/>
<path opacity="0.2" d="M34 48C43.3888 48 51 47.3284 51 46.5C51 45.6716 43.3888 45 34 45C24.6112 45 17 45.6716 17 46.5C17 47.3284 24.6112 48 34 48Z" fill="black"/>
<path d="M21.4452 31.5127C22.7031 35.3385 23.2766 41.3578 22.2626 44.2973C22.2626 44.2973 21.2829 43.1881 20.5062 43.7755C19.5013 44.5356 18.7408 46.2265 20.0482 46.2265C20.0482 46.2265 23.1337 46.2265 24.1796 46.2265C25.0036 44.927 27.1516 38.2715 27.0248 34.3099L21.4452 31.5127Z" fill="#A05E2D"/>
<path d="M38.9668 31.9646C38.793 35.3509 39.926 38.6624 40.581 40.1203C41.2359 41.5781 40.4965 42.961 39.5417 44.1672C39.5417 44.1672 38.2205 42.9141 37.164 43.6325C36.1076 44.372 35.7425 46.2264 36.4609 46.2264C37.1792 46.2264 39.1769 46.1942 40.9939 46.1942C42.0926 45.328 44.1275 42.7745 44.9482 40.2751C44.9482 40.2751 45.4332 35.0898 47.7833 32.5904C51.4604 28.6798 38.9668 31.9646 38.9668 31.9646Z" fill="#A05E2D"/>
<path d="M50.5805 33.3633C50.7422 35.5004 52.5336 35.2118 52.9089 33.4113C53.1342 32.3311 52.9177 30.261 52.5204 28.7749C51.7122 25.7515 49.6564 25.7677 49.1494 25.0071C48.6423 24.2465 47.0813 23.5148 45.391 23.0288C43.1167 22.375 41.7562 22.2816 38.7778 23.1134C35.0247 24.1616 31.0313 23.4446 29.2353 23.6347C28.5335 23.7091 27.228 22.9661 26.0156 22.8915C24.8867 22.8221 23.5722 20.7279 22.0054 19.9258C19.7076 18.7495 19.1445 18.0046 18.8531 16.5C17.5304 17.3267 18.0451 19.512 18.8719 20.504C16.4909 21.3969 15.9994 22.9512 15.9994 23.563C15.9994 24.5798 14.8786 25.4018 15.0108 26.3608C15.1431 27.3197 16.1044 27.3544 16.475 28.0768C16.8734 28.8532 17.2447 28.5246 19.0304 27.797C20.816 27.0696 21.1063 30.6812 21.445 31.513C21.5196 31.6961 21.8777 33.0862 24.0151 35.1756C26.6707 37.7716 26.5115 41.8729 25.4976 44.8124C25.4976 44.8124 24.5179 43.7032 23.7412 44.2906C22.7363 45.0507 21.9757 46.7416 23.2832 46.7416C23.2832 46.7416 26.3687 46.7416 27.4146 46.7416C28.2386 45.4422 30.3866 38.7867 30.2598 34.825C31.9078 35.5223 37.9095 35.5518 40.7268 34.2556C41.7726 38.8828 45.425 38.9588 46.597 40.675C47.4923 41.9859 47.2167 43.3865 46.0902 44.6143C46.0902 44.6143 45.0647 43.4296 44.0082 44.148C42.593 45.2261 42.6704 46.7416 43.3888 46.7416C44.1072 46.7416 45.8984 46.7416 47.7155 46.7416C48.8142 45.8753 50.2783 43.3399 51.2924 39.8748C46.4099 34.4435 50.2697 32.8891 49.7435 28.2899C50.7008 29.9066 50.4846 32.0948 50.5805 33.3633Z" fill="#DC843C"/>
<path opacity="0.1" d="M52.5196 28.7748C51.7114 25.7515 49.6557 25.7677 49.1486 25.0071C49.9992 29.6936 40.545 31.5702 41.664 26.4035C41.664 26.4035 34.4328 30.5264 29.5526 27.7411C26.0354 25.7336 26.0258 27.2163 22.5393 25.0551C18.5141 22.5598 16.8086 23.1506 15.9633 23.8738C15.9617 23.8752 15.9599 23.8762 15.9582 23.8777C15.9582 23.8776 15.9582 23.8777 15.9582 23.8777C15.9356 23.983 15.9023 24.0864 15.8625 24.1885C15.8603 24.1941 15.8589 24.1996 15.8566 24.2052C15.7058 24.5843 15.4649 24.945 15.2737 25.3062C15.2697 25.3138 15.2655 25.3214 15.2616 25.3291C15.2158 25.4165 15.1774 25.5043 15.1407 25.5922C15.1282 25.6227 15.114 25.653 15.1028 25.6836C15.0738 25.7625 15.0549 25.8424 15.0376 25.9225C15.0304 25.9555 15.019 25.9881 15.0143 26.0214C14.9982 26.133 14.9942 26.2457 15.01 26.3607C15.0101 26.3614 15.0104 26.3619 15.0105 26.3626C15.0267 26.4786 15.0555 26.5803 15.0935 26.6721C15.1034 26.6962 15.118 26.7149 15.1292 26.7376C15.1618 26.8035 15.1957 26.868 15.2376 26.9235C15.2487 26.9384 15.2621 26.9507 15.2738 26.9651C15.5885 27.3459 16.0889 27.5235 16.3833 27.9426C17.0435 28.1647 17.6069 28.3206 17.7875 28.3137C18.1058 28.1865 18.5002 28.0127 19.0296 27.797C19.476 27.6151 19.8289 27.7045 20.1126 27.9537C20.9634 28.7016 21.1903 30.8891 21.4442 31.5129C21.5002 31.6502 21.7155 32.4666 22.7215 33.7476C23.0568 34.1746 23.4799 34.6532 24.0143 35.1756C24.3462 35.5 24.6342 35.8481 24.882 36.2144C25.3776 36.9471 25.7127 37.753 25.9177 38.5905C26.4303 40.6842 26.1305 42.9752 25.4968 44.8124C25.4968 44.8124 24.5171 43.7032 23.7404 44.2906C22.7355 45.0507 21.9749 46.7416 23.2824 46.7416C23.2824 46.7416 26.3678 46.7416 27.4137 46.7416C27.8257 46.0918 28.5688 44.1031 29.1929 41.7816C29.271 41.4914 29.3471 41.196 29.4205 40.8974C29.5673 40.3001 29.7033 39.69 29.8212 39.0825C30.1161 37.564 30.2986 36.063 30.259 34.825C31.907 35.5222 37.9087 35.5517 40.726 34.2556C41.7718 38.8828 45.4242 38.9588 46.5962 40.6749C47.4915 41.9858 47.2159 43.3865 46.0894 44.6143C46.0894 44.6143 45.0639 43.4296 44.0074 44.1479C42.5922 45.226 42.6696 46.7416 43.388 46.7416C44.1064 46.7416 45.8976 46.7416 47.7147 46.7416C48.8134 45.8752 50.2775 43.3398 51.2916 39.8747C47.8469 36.0429 48.7522 34.1382 49.4002 31.7351C49.659 30.6843 49.8884 29.5637 49.7427 28.2898C50.7 29.9066 50.4838 32.0947 50.5798 33.3633C50.7414 35.5003 52.5328 35.2117 52.9081 33.4113C53.1334 32.3311 52.9169 30.2609 52.5196 28.7748Z" fill="black"/>
<path opacity="0.1" d="M46.5972 40.6751C47.4925 41.986 47.2169 43.3867 46.0904 44.6145C46.0904 44.6145 45.0648 43.4298 44.0084 44.1481C42.5932 45.2263 42.6706 46.7418 43.389 46.7418C44.1073 46.7418 45.8986 46.7418 47.7157 46.7418C48.8144 45.8755 50.2784 43.34 51.2926 39.875C47.9864 36.1971 48.6889 34.2959 49.3237 32.0242C49.5191 31.2381 49.7161 30.417 49.7669 29.5228C49.7669 29.5229 49.767 29.5226 49.7669 29.5228C46.8397 34.3093 41.8876 32.8605 40.8443 29.6666C37.1636 32.5996 29.3048 31.9562 27.365 30.1158C25.4266 28.2769 24.3727 32.601 20.748 28.9854C20.7486 28.9868 20.749 28.9927 20.7495 28.9945C20.7495 28.9943 20.7496 28.9947 20.7495 28.9945C20.7496 28.9946 20.7499 28.9956 20.75 28.9957C20.9913 29.622 21.1443 30.3476 21.271 30.8893C21.3094 31.0527 21.3459 31.2035 21.3814 31.3243C21.4027 31.3969 21.4239 31.4608 21.4452 31.5131C21.5011 31.6504 21.7165 32.4668 22.7224 33.7478C23.0578 34.1748 23.4809 34.6534 24.0152 35.1758C24.3472 35.5003 24.6351 35.8483 24.883 36.2147C25.3786 36.9474 25.7137 37.7532 25.9187 38.5907C26.4313 40.6845 26.1315 42.9754 25.4977 44.8126C25.4977 44.8126 24.5181 43.7034 23.7414 44.2908C22.7364 45.0509 21.9759 46.7418 23.2833 46.7418C23.2833 46.7418 26.3688 46.7418 27.4147 46.7418C27.8267 46.0921 28.5697 44.1033 29.1939 41.7818C29.2719 41.4916 29.3481 41.1962 29.4215 40.8976C29.5683 40.3004 29.7043 39.6902 29.8222 39.0828C30.1171 37.5643 30.2996 36.0632 30.26 34.8252C31.908 35.5224 37.9097 35.552 40.7269 34.2558C41.7728 38.883 45.4252 38.959 46.5972 40.6751Z" fill="black"/>
<path d="M46.5941 40.7226C47.2178 41.6359 47.2623 42.5917 46.8576 43.5033C46.8619 43.4966 46.8689 43.4926 46.8728 43.4856C50.1565 37.6337 41.5513 38.9405 40.7559 32.832C38.9529 34.1004 32.4484 35.1445 30.1348 34.0477C30.2362 34.4373 30.2373 34.5068 30.2599 34.8246C31.9079 35.5218 37.9096 35.5513 40.7268 34.2552C41.7727 38.8824 45.4221 39.0064 46.5941 40.7226Z" fill="#EEC89A"/>
<path d="M18.8712 20.504C19.1049 20.7859 19.3826 21.709 20.8235 22.705C21.948 23.4824 22.154 26.137 21.4452 27.7038C21.4079 25.7266 18.1251 23.8464 17.0433 24.7678C15.9656 25.6857 16.5099 27.3332 15.0645 26.5632C15.0673 26.5723 15.069 26.5827 15.0721 26.5916C15.1349 26.7454 15.216 26.8806 15.3095 27.0029C15.6604 27.3949 16.2126 27.5666 16.4744 28.0768C16.8728 28.8532 17.244 28.5246 19.0297 27.797C20.8153 27.0696 21.1057 30.6812 21.4444 31.513C21.5189 31.696 21.877 33.0862 24.0144 35.1756C25.7395 36.8619 26.2658 39.1812 26.1526 41.4068C26.1562 41.3923 26.1612 41.3821 26.1639 41.367C27.5631 33.6103 21.1697 33.2933 22.6319 28.3426C22.6525 28.2729 22.7064 28.1374 22.7337 28.07C23.7994 25.4459 23.9879 22.1136 21.3439 20.3921C19.1805 18.9836 18.7533 18.1203 18.8524 16.5C17.5298 17.3267 18.0395 19.5008 18.8712 20.504Z" fill="#EEC89A"/>
</svg>
