<svg width="68" height="68" viewBox="0 0 68 68" fill="none" xmlns="http://www.w3.org/2000/svg">
<g clip-path="url(#clip0_2866_12563)">
<path opacity="0.4" d="M34 68C51.6731 68 66 53.6731 66 36C66 18.3269 51.6731 4 34 4C16.3269 4 2 18.3269 2 36C2 53.6731 16.3269 68 34 68Z" fill="black" fill-opacity="0.05"/>
<path d="M34 66C51.6731 66 66 51.6731 66 34C66 16.3269 51.6731 2 34 2C16.3269 2 2 16.3269 2 34C2 51.6731 16.3269 66 34 66Z" fill="black" fill-opacity="0.05"/>
<path d="M34 65C51.6731 65 66 50.6731 66 33C66 15.3269 51.6731 1 34 1C16.3269 1 2 15.3269 2 33C2 50.6731 16.3269 65 34 65Z" fill="black" fill-opacity="0.05"/>
<path d="M34 64C51.6731 64 66 49.6731 66 32C66 14.3269 51.6731 0 34 0C16.3269 0 2 14.3269 2 32C2 49.6731 16.3269 64 34 64Z" fill="white"/>
<path opacity="0.2" d="M35 49C44.9411 49 53 48.3284 53 47.5C53 46.6716 44.9411 46 35 46C25.0589 46 17 46.6716 17 47.5C17 48.3284 25.0589 49 35 49Z" fill="black"/>
<path opacity="0.19" d="M34 49C45.598 49 55 48.3284 55 47.5C55 46.6716 45.598 46 34 46C22.402 46 13 46.6716 13 47.5C13 48.3284 22.402 49 34 49Z" fill="#020202"/>
<path d="M47.1712 29.224C46.6068 30.7096 46.5524 35.7153 48.4515 38.1695C50.3506 40.6237 51.7378 40.2826 51.7378 40.2826C51.5256 42.6414 51.7963 47.0902 52.0008 47.733C50.9198 47.733 49.2755 47.733 49.2755 47.733C49.2755 46.7396 50.276 46.8535 50.276 46.8535C50.3636 45.2174 50.0376 41.9733 48.117 40.6367C45.9482 39.1272 42.4402 39.274 43.1706 32.1292C43.9914 24.1005 47.1712 29.224 47.1712 29.224Z" fill="#AC7141"/>
<path d="M51.7371 40.2821C51.1692 40.3005 50.6588 40.2448 49.2493 39.0768C48.3048 39.4836 46.557 39.3273 44.2324 38.1689C45.3737 39.6136 47.1258 39.9039 48.1617 40.6248C50.0823 41.9615 50.3629 45.2168 50.2752 46.853C50.2752 46.853 49.2747 46.7391 49.2747 47.7324C49.2747 47.7324 50.919 47.7324 52.0001 47.7324C51.7955 47.0897 51.5249 42.6409 51.7371 40.2821Z" fill="#5E5F66"/>
<path opacity="0.19" d="M51.713 44.6506C51.6964 44.2788 51.6829 43.8935 51.6738 43.5064C51.6647 43.1192 51.66 42.7302 51.6606 42.3508C51.6619 41.592 51.6848 40.8717 51.7378 40.2819C51.7378 40.2819 50.3506 40.6231 48.4514 38.1688C46.5523 35.7146 46.6068 30.7089 47.1711 29.2233L47.1675 29.2176C47.1657 29.2147 47.1571 29.2012 47.1435 29.1806C47.1416 29.1775 47.1404 29.1759 47.1383 29.1725C47.0748 29.0763 46.922 28.8544 46.7116 28.6072L46.71 28.6055C46.2794 28.8948 45.8535 29.2279 45.4751 29.5391C44.9456 29.9746 44.23 30.0346 43.5595 29.7772L43.5586 29.781C43.4808 30.0869 43.4089 30.4308 43.3441 30.8174C43.3369 30.86 43.3308 30.908 43.3238 30.9517C43.299 31.1074 43.2744 31.2646 43.2519 31.434C43.2228 31.6541 43.1955 31.8847 43.1706 32.1285C42.4402 39.2733 45.9482 39.1266 48.117 40.636C50.0376 41.9727 50.3637 45.2167 50.276 46.8529C50.276 46.8529 49.2755 46.7389 49.2755 47.7323C49.2755 47.7323 50.9197 47.7323 52.0008 47.7323C51.8985 47.4109 51.7797 46.138 51.713 44.6506Z" fill="black"/>
<path d="M31.0325 30.1972C31.9167 31.8853 31.0583 33.8961 31.0597 33.8841C30.7967 36.1046 31.3592 42.4227 31.5052 43.3869C31.5052 43.3869 30.4973 46.6884 30.563 47.7329C29.0729 47.7329 27.8552 47.7329 27.8552 47.7329C27.8552 47.7329 27.8552 46.8272 29.2357 46.871C29.2357 46.871 30.1738 45.4646 29.4768 41.8968C28.7432 38.1419 26.9568 36.6672 26.9787 32.8982C27.0006 29.1292 30.6448 29.4569 31.0325 30.1972Z" fill="#AC7141"/>
<path d="M31.4846 43.2288C31.4807 43.1984 31.4776 43.1788 31.4734 43.1439C31.469 43.1081 31.4638 43.0584 31.4592 43.0181C31.4506 42.9438 31.4423 42.8731 31.4328 42.7841C31.43 42.758 31.4268 42.7248 31.4239 42.6976C31.4118 42.5818 31.3994 42.462 31.3861 42.3262C31.3821 42.2844 31.3776 42.235 31.3734 42.1914C31.3611 42.0629 31.3488 41.934 31.3359 41.7916C31.3355 41.7863 31.335 41.782 31.3345 41.7767C31.3224 42.0707 29.1182 40.4019 28.2975 38.1416C28.3418 38.2725 28.3678 38.387 28.406 38.5124C28.8103 39.4881 29.2124 40.5422 29.477 41.8965C30.174 45.4643 29.236 46.8707 29.236 46.8707C28.5458 46.8488 28.2006 47.0643 28.0281 47.2852C27.8555 47.5061 27.8555 47.7326 27.8555 47.7326C27.8555 47.7326 29.0731 47.7326 30.5632 47.7326C30.5433 47.417 30.6223 46.8943 30.741 46.3201C30.7696 46.1816 30.7999 46.041 30.8325 45.8985C31.1117 44.6762 31.5054 43.3865 31.5054 43.3865C31.4995 43.3473 31.4918 43.2852 31.4846 43.2288Z" fill="#5E5F66"/>
<path opacity="0.19" d="M31.5053 43.3869C31.3592 42.4227 30.7968 36.1046 31.0597 33.884C31.0583 33.8962 31.9167 31.8854 31.0326 30.1972C30.6449 29.4569 27.0007 29.1292 26.9787 32.8982C26.9568 36.6672 28.7432 38.1419 29.4768 41.8969C30.1738 45.4646 29.2358 46.8711 29.2358 46.8711C27.8553 46.8272 27.8553 47.7329 27.8553 47.7329C27.8553 47.7329 29.0729 47.7329 30.563 47.7329C30.4973 46.6885 31.5053 43.3869 31.5053 43.3869Z" fill="black"/>
<path d="M24.9939 29.6841C25.2085 30.2687 25.8575 30.226 25.9647 31.2617C26.2197 33.7252 26.2998 36.5508 25.9269 36.9771C25.0065 38.0289 21.7196 40.0779 21.1937 41.4365C20.6678 42.7951 19.4407 46.6079 20.0104 47.4406C20.0104 47.4406 20.7993 46.8709 21.7196 45.9943C21.7196 45.9943 22.0264 42.8827 22.7714 41.6994C23.5165 40.5161 29.0056 37.342 29.4439 36.6407C29.8821 35.9395 30.2456 33.6396 30.8592 32.281C31.33 33.1072 35.2274 33.0871 36.4642 32.8221C37.7171 32.5536 38.9737 32.024 39.6226 31.3416C39.6226 31.3416 39.1894 32.7364 38.8405 33.7225C38.0747 35.8871 38.8084 36.2651 39.2028 39.0699C39.5973 41.8747 38.414 46.8562 38.4432 48.0688C38.4432 48.0688 37.5229 48.0834 37.5229 48.7992C37.9903 48.7992 39.3389 48.7992 40.1716 48.7992C40.1716 48.7992 40.0839 44.6358 41.1358 42.4883C41.0481 41.305 41.3994 38.5021 41.9853 37.4591C43.304 35.1119 45.5861 33.8142 46.7847 30.4471C46.4341 31.5427 48.5815 36.7179 50.1592 37.6529C50.1592 37.6529 50.4514 36.9332 50.1592 32.9597C49.9157 29.6471 48.7063 26.8135 47.8249 25.872C47.1703 25.1729 46.5034 23.9249 44.0821 23.2012C42.604 22.7595 39.086 23.0843 36.7486 23.3181C34.4112 23.5518 28.4728 22.1322 27.6361 21.7404C26.7157 21.3094 24.1296 18.3254 23.8448 17.9967C23.5599 17.668 23.4942 16.0683 21.0838 15.1261C20.5359 15.3452 20.3935 15.8956 20.3935 15.8956C19.8895 15.0629 19.4441 15 19.4441 15C18.8305 15.3725 18.6722 17.0696 19.3088 17.909C18.52 18.654 18.3915 19.5963 18.5434 20.1003C17.8188 20.9768 16 21.8752 16 21.8752C16.4602 22.8832 17.4901 23.4529 17.9502 23.3215C18.4104 23.19 20.1387 22.3705 21.3483 23.5748C23.0991 25.3179 24.1393 27.3556 24.9939 29.6841Z" fill="#CB8C59"/>
<path opacity="0.19" d="M48.8278 27.533C48.0653 27.0208 46.7663 26.7059 45.3853 27.7711C44.119 28.7479 42.2105 29.3821 41.5971 27.2531C40.0635 28.0103 31.4842 31.1969 30.4395 27.8606C29.6518 25.3454 25.8 26.1418 24.2664 23.457C22.7328 20.7721 20.1975 21.8345 17.6416 22.3566C17.3445 22.4173 16.5973 22.3209 16.2227 22.2657C16.7363 23.0251 17.5538 23.4344 17.9502 23.3212C18.4103 23.1897 20.1386 22.3702 21.3483 23.5745C23.0991 25.3176 24.1393 27.3553 24.9939 29.6838C25.2084 30.2684 25.8575 30.2257 25.9647 31.2615C26.2197 33.7249 26.2997 36.5505 25.9268 36.9768C25.0065 38.0286 21.7196 40.0776 21.1936 41.4362C20.6677 42.7947 19.4406 46.6076 20.0104 47.4403C20.0104 47.4403 20.7992 46.8706 21.7196 45.994C21.7196 45.994 22.0264 42.8824 22.7714 41.6991C23.5164 40.5158 29.0056 37.3417 29.4438 36.6405C29.8821 35.9392 30.2456 33.6393 30.8591 32.2807C31.33 33.1069 35.2273 33.0868 36.4641 32.8218C37.7171 32.5533 38.9737 32.0237 39.6225 31.3412C39.6225 31.3412 39.1894 32.7361 38.8405 33.7222C38.0747 35.8868 38.8084 36.2647 39.2028 39.0696C39.5972 41.8744 38.414 46.8559 38.4432 48.0684C38.4432 48.0684 37.5228 48.083 37.5228 48.7989C37.9903 48.7989 39.3389 48.7989 40.1715 48.7989C40.1715 48.7989 40.0839 44.6354 41.1357 42.488C41.048 41.3047 41.3994 38.5017 41.9853 37.4589C43.3039 35.1116 45.586 33.8139 46.7846 30.4467C46.434 31.5424 48.5815 36.7176 50.1592 37.6526C50.1592 37.6526 50.4514 36.9329 50.1592 32.9594C50.002 30.8214 49.4419 28.892 48.8278 27.533Z" fill="black"/>
<path d="M50.16 32.9598C50.1065 32.2305 50 31.531 49.8665 30.8633C49.7354 33.3711 47.9999 33.7607 47.2891 32.9775C47.9723 34.8403 49.1766 37.0701 50.16 37.6529C50.16 37.6529 50.4522 36.9333 50.16 32.9598Z" fill="#CEC2B7"/>
<path d="M21.733 18.3326C22.3118 18.697 22.7455 17.8443 22.542 16.872C22.4687 16.5215 21.9156 15.4401 21.083 15.1261C20.5351 15.3452 20.3927 15.8956 20.3927 15.8956C19.8887 15.0629 19.4433 15 19.4433 15C18.8297 15.3725 18.6713 17.0696 19.308 17.909L19.3042 17.9131C20.1967 17.767 21.1996 17.9967 21.733 18.3326Z" fill="#CEC2B7"/>
<path d="M17.9503 23.3216C18.2408 23.2386 19.0975 22.8854 19.9003 22.9334C19.7613 22.3556 18.4128 21.915 19.3965 21.3713C20.5067 20.7578 20.3022 19.8229 19.7471 19.6768C19.3225 19.5651 18.9935 19.7229 18.5434 20.1004C18.4561 20.1825 18.0864 20.5458 17.9876 20.6256C17.9607 20.6491 17.9306 20.6754 17.9064 20.6963L17.9015 20.6969C17.0747 21.3419 16 21.8754 16 21.8754C16.4602 22.8833 17.4901 23.4531 17.9503 23.3216Z" fill="#5E5F66"/>
<path d="M27.269 23.2317C28.2701 24.0047 29.4339 25.0715 31.0335 24.4287C32.6331 23.7859 35.6128 23.398 36.3417 23.3417C36.353 23.3409 36.3543 23.3283 36.3636 23.325C34.1044 23.3851 28.4288 22.1114 27.637 21.7407C26.7167 21.3097 24.1306 18.3257 23.8457 17.9971C24.3351 19.2095 26.4517 22.6006 27.269 23.2317Z" fill="#5E5F66"/>
<path d="M38.8451 36.7578C38.9639 37.5278 39.0959 38.3052 39.2035 39.0704C39.5979 41.8752 38.4146 46.8568 38.4438 48.0693C38.4438 48.0693 37.5234 48.0839 37.5234 48.7997C37.9909 48.7997 39.3395 48.7997 40.1722 48.7997C40.1722 48.7997 40.0845 44.6363 41.1363 42.4888C41.1034 42.0438 41.135 41.1584 41.2173 40.1712C40.4161 40.1176 39.0527 38.0331 38.8451 36.7578Z" fill="#5E5F66"/>
<path d="M28.7436 37.2559C26.8937 38.209 26.0134 38.1819 25.6541 37.2559C23.8625 38.7311 21.5519 40.1387 21.1942 41.4365C20.6682 42.7951 19.4411 46.608 20.0109 47.4407C20.0109 47.4407 20.7997 46.8709 21.7201 45.9944C21.7201 45.9944 22.0268 42.8828 22.7719 41.6995C23.2979 40.8641 26.7706 39.406 28.7436 37.2559Z" fill="#5E5F66"/>
</g>
<defs>
<clipPath id="clip0_2866_12563">
<rect width="64" height="68" fill="white" transform="translate(2)"/>
</clipPath>
</defs>
</svg>
