<svg width="68" height="68" viewBox="0 0 68 68" fill="none" xmlns="http://www.w3.org/2000/svg">
<g clip-path="url(#clip0_2883_12612)">
<path opacity="0.4" d="M34 68C51.6731 68 66 53.6731 66 36C66 18.3269 51.6731 4 34 4C16.3269 4 2 18.3269 2 36C2 53.6731 16.3269 68 34 68Z" fill="black" fill-opacity="0.05"/>
<path d="M34 66C51.6731 66 66 51.6731 66 34C66 16.3269 51.6731 2 34 2C16.3269 2 2 16.3269 2 34C2 51.6731 16.3269 66 34 66Z" fill="black" fill-opacity="0.05"/>
<path d="M34 65C51.6731 65 66 50.6731 66 33C66 15.3269 51.6731 1 34 1C16.3269 1 2 15.3269 2 33C2 50.6731 16.3269 65 34 65Z" fill="black" fill-opacity="0.05"/>
<path d="M34 64C51.6731 64 66 49.6731 66 32C66 14.3269 51.6731 0 34 0C16.3269 0 2 14.3269 2 32C2 49.6731 16.3269 64 34 64Z" fill="white"/>
<path opacity="0.19" d="M34 48.9999C45.598 48.9999 55.0001 48.3285 55.0001 47.5C55.0001 46.6717 45.598 46 34 46C22.402 46 13 46.6717 13 47.5C13 48.3285 22.402 48.9999 34 48.9999Z" fill="#020202"/>
<path opacity="0.2" d="M33.5001 49C43.1651 49 51 48.3286 51 47.5001C51 46.6717 43.1651 46 33.5001 46C23.835 46 16 46.6717 16 47.5001C16 48.3286 23.835 49 33.5001 49Z" fill="black"/>
<path d="M25.452 41.6641C24.5948 43.8003 24.5079 45.4924 23.769 46.1043C23.03 46.7159 19.0291 45.7791 19.0273 47.2944C22.7185 47.2985 28.1823 47.3039 28.1823 47.3039C28.0403 46.8845 27.2897 46.3706 26.6291 46.3698C25.9686 46.369 27.1468 41.6653 27.1468 41.6653L25.452 41.6641Z" fill="#964C2F"/>
<path d="M27.6493 42.2041C26.7921 44.34 26.7052 46.0322 25.9662 46.6441C25.2273 47.256 21.2263 46.3189 21.2246 47.8342C24.9158 47.8383 30.6109 47.8439 30.6109 47.8439C30.3825 47.2703 29.7183 46.9104 29.0578 46.9096C28.3972 46.9088 29.5754 42.2051 29.5754 42.2051L27.6493 42.2041Z" fill="#A5633F"/>
<path d="M54.0009 42.7663C53.2878 40.3624 44.0462 37.8696 40.3194 35.9586C36.1957 33.8441 35.0078 31.2323 30.0497 28.3195C25.3968 25.5861 25.2641 26.0007 21.9949 24.1806C21.2489 23.577 21.3287 21.8638 21.3994 21.3049C21.4702 20.746 21.8167 18.4726 20.4365 17.1556C19.0508 15.7269 16.9693 15.9268 16.6916 16.2637C16.414 16.6007 16.334 16.9234 16.334 16.9234C15.8977 16.9661 14.4976 17.0435 14.25 18.2262C14.4256 18.3855 15.0721 17.919 15.6404 18.226C16.0056 18.8988 16.5515 19.5358 17.0691 19.8559C17.5867 20.1761 17.7887 20.4366 17.2813 21.3514C17.2088 21.4821 17.104 21.6594 16.9864 21.8638C16.9325 21.9584 16.879 22.0517 16.8197 22.1599C16.7983 22.1993 16.7767 22.2395 16.7546 22.281C16.7504 22.2889 16.7457 22.2993 16.7415 22.3074C16.7057 22.3752 16.6705 22.4506 16.6335 22.5239C16.5853 22.6201 16.5382 22.709 16.4888 22.8144C16.4659 22.8632 16.443 22.9157 16.4201 22.9666C16.4101 22.9889 16.4003 23.0162 16.3903 23.0387C16.3491 23.1321 16.3105 23.2309 16.2696 23.3311C16.2277 23.4329 16.1851 23.5251 16.1441 23.6351C16.1281 23.6779 16.1133 23.7256 16.0976 23.7697C16.0788 23.8222 16.0624 23.8843 16.0439 23.9386C16.0028 24.0594 15.9644 24.1823 15.9255 24.3112C15.9048 24.38 15.8818 24.4405 15.8619 24.5115C15.8474 24.5629 15.8317 24.6107 15.8176 24.6633C15.7879 24.7752 15.7659 24.9045 15.739 25.023C15.705 25.1685 15.6721 25.3118 15.6422 25.466C15.6338 25.5102 15.6225 25.5485 15.6144 25.5932C15.601 25.6676 15.5868 25.7409 15.5743 25.8172C15.5494 25.9708 15.5364 26.1436 15.5167 26.3057C15.4961 26.4724 15.4723 26.6319 15.4575 26.8074C15.4552 26.8346 15.4505 26.8581 15.4483 26.8855C15.4422 26.9642 15.4374 27.0447 15.4325 27.1252C15.4189 27.3517 15.4228 27.6005 15.4196 27.8404C15.4178 28.0077 15.4066 28.1621 15.4106 28.3361C15.4109 28.3491 15.4096 28.3601 15.41 28.3731C15.4116 28.4369 15.4166 28.5045 15.419 28.5694C15.4371 29.0433 15.4718 29.5357 15.539 30.0605C15.8222 32.2683 16.285 34.1736 17.1238 35.7354C17.9625 37.2972 19.1772 38.5154 20.9639 39.3495C22.6943 40.157 24.6832 40.8279 24.8376 40.8572C25.1104 40.9832 24.69 42.493 25.8754 42.7397C26.6815 42.9074 27.1536 42.8586 27.2568 42.3647C27.1536 42.8586 27.5507 43.1662 28.6479 43.3851C30.1405 43.683 30.2875 41.4077 30.6966 41.3797C32.9693 41.2236 36.6914 40.651 39.7171 40.4761C43.7794 40.2414 51.0541 41.5289 54.0009 42.7663Z" fill="#CB8C59"/>
<path opacity="0.19" d="M17.7103 36.6729C17.7465 36.7239 17.7796 36.7776 17.8169 36.8277C17.9371 36.9886 18.0639 37.144 18.1958 37.2953C18.2037 37.3044 18.2107 37.3143 18.2187 37.3233C18.9232 38.1243 19.7978 38.7892 20.887 39.3096C20.8871 39.3097 20.8872 39.3097 20.8874 39.3098C20.913 39.322 20.9385 39.3349 20.9642 39.3468C20.9739 39.3514 20.9814 39.3569 20.991 39.3616C20.9911 39.3616 20.9912 39.3616 20.9913 39.3617C22.7152 40.1635 24.684 40.8277 24.8376 40.8569C25.1104 40.9829 24.69 42.4927 25.8754 42.7393C26.6815 42.9071 27.1536 42.8582 27.2568 42.3644C27.1536 42.8582 27.5507 43.1659 28.6479 43.3848C30.1405 43.6827 30.2875 41.4074 30.6966 41.3794C32.9693 41.2233 36.6914 40.6506 39.7171 40.4758C43.7794 40.2411 51.0541 41.5286 54.0009 42.766C53.2878 40.3621 44.0462 37.8692 40.3194 35.9583C40.0343 35.8121 39.7645 35.6634 39.5054 35.5125C41.0264 36.6292 35.7864 39.7594 26.1028 37.4833C16.1945 35.1546 18.4417 23.1328 19.2088 20.0129C19.8124 17.5577 16.1505 16.4493 14.4049 18.0154C14.378 18.0485 14.32 18.1222 14.2564 18.2032C14.2547 18.2111 14.2517 18.2179 14.25 18.2259C14.2609 18.2358 14.2737 18.2433 14.2882 18.2487C14.2912 18.2498 14.2951 18.2499 14.2983 18.2509C14.3103 18.2545 14.3226 18.2578 14.3367 18.259C14.3389 18.2592 14.3416 18.2589 14.3439 18.259C14.5936 18.2744 15.1364 17.9667 15.6255 18.2189C15.6307 18.22 15.6359 18.2209 15.6406 18.2235C15.6422 18.2265 15.643 18.2297 15.6445 18.2328C15.8271 18.5678 16.0542 18.8937 16.3002 19.1757C16.3058 19.1822 16.3117 19.1879 16.3174 19.1943C16.3734 19.2579 16.4301 19.3198 16.4877 19.3784C16.5016 19.3925 16.5159 19.4047 16.5298 19.4185C16.5796 19.4677 16.6295 19.5166 16.6799 19.5614C16.7133 19.591 16.7469 19.6166 16.7804 19.6442C16.8118 19.6699 16.8431 19.6977 16.8744 19.7215C16.9395 19.7708 17.0045 19.8157 17.0691 19.8556C17.5867 20.1757 17.7887 20.4363 17.2813 21.3511C17.2088 21.4818 17.104 21.6591 16.9865 21.8635C16.9325 21.9581 16.879 22.0513 16.8197 22.1596C16.7983 22.1989 16.7767 22.2392 16.7546 22.2807C16.7504 22.2886 16.7457 22.299 16.7415 22.3071C16.7057 22.3749 16.6705 22.4502 16.6335 22.5236C16.5853 22.6198 16.5382 22.7087 16.4888 22.8141C16.4659 22.8629 16.443 22.9154 16.4201 22.9663C16.4101 22.9886 16.4003 23.0158 16.3903 23.0384C16.3491 23.1318 16.3105 23.2305 16.2696 23.3308C16.2277 23.4326 16.1851 23.5248 16.1441 23.6347C16.1282 23.6776 16.1133 23.7253 16.0976 23.7693C16.0788 23.8219 16.0624 23.884 16.0439 23.9382C16.0028 24.0591 15.9644 24.182 15.9255 24.3109C15.9048 24.3797 15.8818 24.4402 15.8619 24.5111C15.8474 24.5626 15.8317 24.6104 15.8176 24.663C15.7879 24.7748 15.7659 24.9042 15.739 25.0226C15.705 25.1682 15.6721 25.3114 15.6422 25.4657C15.6338 25.5099 15.6225 25.5482 15.6144 25.5929C15.601 25.6673 15.5868 25.7405 15.5743 25.8169C15.5494 25.9705 15.5364 26.1433 15.5167 26.3054C15.4961 26.4721 15.4723 26.6315 15.4575 26.807C15.4553 26.8343 15.4505 26.8578 15.4483 26.8852C15.4422 26.9639 15.4374 27.0444 15.4326 27.1248C15.4189 27.3514 15.4228 27.6002 15.4196 27.8401C15.4177 28.0073 15.4066 28.1617 15.4106 28.3358C15.4109 28.3488 15.4096 28.3598 15.41 28.3728C15.4116 28.4366 15.4166 28.5042 15.419 28.5691C15.4371 29.043 15.4718 29.5354 15.539 30.0601C15.8222 32.268 16.285 34.1733 17.1238 35.7351C17.2276 35.9283 17.3372 36.1161 17.4529 36.2987C17.5343 36.4272 17.6226 36.5498 17.7103 36.6729Z" fill="black"/>
<path d="M17.0682 19.8559C16.5507 19.5358 16.0047 18.8988 15.6394 18.2259C15.0712 17.919 14.1756 18.6905 14 18.5311C14.202 17.0615 15.5921 16.855 16.0282 16.8123C16.0282 16.8123 16.1524 16.4176 16.7164 16.17C17.2604 15.9312 19.0499 15.7268 20.4356 17.1556C21.8158 18.4726 21.4693 20.7459 21.3986 21.3049C21.3521 21.6721 21.3067 22.5341 21.4891 23.2557C21.3765 23.3367 21.2369 23.3802 21.0331 23.3666C20.7237 23.3458 18.0439 23.0377 16.4757 22.8561C16.7997 22.1583 17.1146 21.6501 17.2804 21.3514C17.7878 20.4365 17.5858 20.176 17.0682 19.8559Z" fill="#527D48"/>
<path d="M16.7558 22.2807C17.3459 22.1518 18.3473 22.2708 18.8485 22.3489C19.2076 22.4049 19.9808 22.5242 20.6226 22.7204C20.9701 22.8266 21.2638 22.9585 21.4502 23.0937C21.4777 23.2305 21.5136 23.3623 21.5575 23.4886C21.3995 23.5687 21.0575 23.5463 20.7089 23.7398C19.6464 24.3301 17.8892 24.0637 17.3198 23.6731C16.9547 23.4224 16.5054 23.4498 16.2559 23.367C16.4254 22.9472 16.5946 22.5835 16.7558 22.2807Z" fill="#FDF3E8"/>
<path d="M21.0691 28.5478C22.0826 31.4697 22.0278 34.9605 24.6076 35.8362C27.1875 36.7118 34.2173 39.1485 35.686 38.7427C37.1547 38.3366 32.567 32.3995 30.5356 31.0494C28.504 29.6993 19.6819 24.5488 21.0691 28.5478Z" fill="#FDF3E8"/>
</g>
<defs>
<clipPath id="clip0_2883_12612">
<rect width="64" height="68" fill="white" transform="translate(2)"/>
</clipPath>
</defs>
</svg>
