<svg width="68" height="68" viewBox="0 0 68 68" fill="none" xmlns="http://www.w3.org/2000/svg">
<path opacity="0.4" d="M34 68C51.6731 68 66 53.6731 66 36C66 18.3269 51.6731 4 34 4C16.3269 4 2 18.3269 2 36C2 53.6731 16.3269 68 34 68Z" fill="black" fill-opacity="0.05"/>
<path d="M34 66C51.6731 66 66 51.6731 66 34C66 16.3269 51.6731 2 34 2C16.3269 2 2 16.3269 2 34C2 51.6731 16.3269 66 34 66Z" fill="black" fill-opacity="0.05"/>
<path d="M34 65C51.6731 65 66 50.6731 66 33C66 15.3269 51.6731 1 34 1C16.3269 1 2 15.3269 2 33C2 50.6731 16.3269 65 34 65Z" fill="black" fill-opacity="0.05"/>
<path d="M34 64C51.6731 64 66 49.6731 66 32C66 14.3269 51.6731 0 34 0C16.3269 0 2 14.3269 2 32C2 49.6731 16.3269 64 34 64Z" fill="white"/>
<path opacity="0.2" d="M34 46.3662C45.598 46.3662 55 45.6946 55 44.8662C55 44.0378 45.598 43.3662 34 43.3662C22.402 43.3662 13 44.0378 13 44.8662C13 45.6946 22.402 46.3662 34 46.3662Z" fill="black"/>
<path opacity="0.2" d="M35.9941 46.3662C45.9353 46.3662 53.9941 45.6946 53.9941 44.8662C53.9941 44.0378 45.9353 43.3662 35.9941 43.3662C26.053 43.3662 17.9941 44.0378 17.9941 44.8662C17.9941 45.6946 26.053 46.3662 35.9941 46.3662Z" fill="black"/>
<path d="M51.2399 26.6914C51.9854 28.35 52.6954 32.4777 51.9854 34.3946C51.2754 36.3115 52.3759 38.1929 52.3759 38.1929C52.1274 40.6778 52.6599 44.8667 52.6599 44.8667C50.8139 44.8667 49.8555 44.8667 49.8555 44.8667C51.0624 43.6597 50.388 40.4648 49.323 39.0449C48.258 37.625 46.1991 35.6015 46.5896 32.6552C46.9801 29.7088 51.2399 26.6914 51.2399 26.6914Z" fill="#4E362E"/>
<path d="M29.4785 37.0663C31.6617 38.3709 31.4753 39.0897 31.7682 40.8203C32.061 42.5509 31.0759 44.1217 30.6233 44.8671C30.6233 44.8671 30.6233 44.8671 33.4721 44.8671C33.4721 44.8671 33.552 44.7074 33.7383 43.2963C33.9247 41.8853 35.5221 40.5807 35.3091 39.2229C35.0962 37.865 36.6137 36.7202 37.6521 37.0663H29.4785Z" fill="#4E362E"/>
<path d="M14.7031 35.6685C13.5209 34.418 14.184 33.997 14.1973 33.202C14.2106 32.407 13.4784 23.6478 16.3538 23.9673C19.2292 24.2868 20.8799 24.3134 21.2792 23.275C21.6786 22.2367 22.4451 21.3673 23.0202 20.6183C24.0053 19.3355 31.1519 18.0073 33.1907 18.5043C36.4043 19.2877 38.117 20.6071 41.4255 21.8515C45.4306 23.3579 48.6746 23.9183 50.1658 24.6373C52.4415 25.7345 52.7606 30.9366 54 33.9778C52.2961 32.2739 51.8189 29.7614 51.1246 28.2803C51.6305 31.8479 50.6667 33.202 49.3408 34.7233C47.0307 37.3739 48.4356 38.9831 48.4356 38.9831C48.4356 38.9831 45.72 44.5742 45.4537 45.719C43.4569 45.719 43.6699 45.719 42.4719 45.719C42.9245 44.5209 43.9095 44.441 44.3089 43.1098C44.9639 40.9266 45.9063 40.2345 44.6018 38.6637C43.2972 37.0928 42.8978 36.0811 42.8978 36.0811C40.3952 38.1578 34.3516 38.2643 33.3132 37.9182C32.2749 37.5721 30.7573 38.7169 30.9703 40.0747C31.1833 41.4325 29.5859 42.7371 29.3995 44.1482C29.2132 45.5592 29.1333 45.719 29.1333 45.719C26.2845 45.719 26.2845 45.719 26.2845 45.719C26.7371 44.9735 27.7222 43.4027 27.4294 41.6722C27.1365 39.9416 27.3229 39.2228 25.1397 37.9182C22.9565 36.6136 21.9715 35.8681 21.439 35.8149C20.9065 35.7617 19.7084 38.637 18.3772 38.6637C17.046 38.6903 16.5402 37.1195 16.4603 36.5071C16.3804 35.8948 15.3954 36.4006 14.7031 35.6685Z" fill="#8D6751"/>
<path opacity="0.2" d="M50.5141 24.8548C52.6344 31.337 45.7386 33.0585 43.6808 31.0007C42.4029 33.5566 25.2979 37.1603 22.5216 28.1474C24.6161 27.047 23.5157 24.7041 21.3147 26.834C21.2082 25.4496 19.9884 24.3061 18.6572 24.1564L18.6435 24.1506C18.3227 24.1405 17.9773 24.1207 17.6001 24.089C17.5918 24.0884 17.5838 24.0878 17.5754 24.0871C17.1935 24.0547 16.7929 24.0163 16.3538 23.9675C15.635 23.8876 15.1416 24.3752 14.8056 25.1639C14.5537 25.7554 14.3903 26.5163 14.2868 27.3342C14.2523 27.6068 14.2245 27.8858 14.2022 28.167C14.1355 29.0104 14.119 29.8735 14.1242 30.6438C14.1259 30.9006 14.13 31.1471 14.1355 31.3791C14.1573 32.3071 14.2006 33.0035 14.1973 33.2023C14.1906 33.5998 14.0215 33.9038 14.0019 34.2647C13.9822 34.6257 14.112 35.0435 14.7031 35.6687C15.3954 36.4009 16.3804 35.8951 16.4603 36.5074C16.5402 37.1197 17.046 38.6905 18.3772 38.6639C19.7084 38.6373 20.9065 35.762 21.4389 35.8152C21.7052 35.8418 22.0846 36.0415 22.6703 36.3976C22.8167 36.4866 22.9761 36.5854 23.1497 36.6937C23.6708 37.0187 24.321 37.4292 25.1397 37.9184C26.7771 38.8968 27.0815 39.5458 27.255 40.5392C27.3128 40.8703 27.3562 41.2398 27.4293 41.6724C27.5392 42.3214 27.4693 42.9479 27.3152 43.5168C27.161 44.0858 26.9227 44.5971 26.6955 45.0158C26.6198 45.1553 26.5453 45.2847 26.4757 45.4023C26.406 45.52 26.3412 45.626 26.2846 45.7192C26.2846 45.7192 26.2943 45.7192 29.1333 45.7192C29.1333 45.7192 29.1445 45.6968 29.1684 45.5943C29.2002 45.4576 29.2545 45.1788 29.3346 44.6211C29.3546 44.4817 29.3762 44.3248 29.3995 44.1484C29.4461 43.7956 29.5808 43.4495 29.7535 43.1076C30.0988 42.4237 30.5955 41.7565 30.8409 41.0859C30.9023 40.9183 30.948 40.7503 30.9716 40.582C30.9952 40.4136 30.9969 40.2447 30.9703 40.075C30.8106 39.0566 31.6243 38.1581 32.4792 37.9184C32.6217 37.8785 32.7652 37.8569 32.9057 37.8561C33.0461 37.8552 33.1834 37.8752 33.3133 37.9184C33.5728 38.005 34.1452 38.0632 34.8969 38.0694C35.0849 38.071 35.284 38.0693 35.4922 38.064C35.9087 38.0534 36.3617 38.0283 36.8345 37.9858C37.3072 37.9432 37.7998 37.8832 38.2954 37.8028C40.0302 37.5213 41.8029 36.9899 42.8978 36.0814C42.8978 36.0814 42.9227 36.1446 42.9806 36.264C43.0673 36.4431 43.2279 36.7486 43.4893 37.1565C43.6635 37.4285 43.8824 37.746 44.154 38.102C44.2898 38.28 44.4387 38.4676 44.6018 38.6639C45.091 39.253 45.2642 39.7184 45.2551 40.1854C45.2491 40.4966 45.162 40.8085 45.0334 41.1581C44.8405 41.6824 44.5545 42.2914 44.3089 43.1102C44.2091 43.4429 44.0726 43.6976 43.917 43.9109C43.6059 44.3378 43.2182 44.5998 42.8936 44.9933C42.7314 45.1901 42.585 45.4197 42.4718 45.7192C43.6699 45.7192 43.4569 45.7192 45.4537 45.7192C45.5036 45.5046 45.6396 45.1337 45.8277 44.6725C45.9531 44.3651 46.1017 44.0177 46.2633 43.6497C47.1519 41.6261 48.4356 38.9834 48.4356 38.9834C48.4356 38.9834 48.2984 38.8262 48.1802 38.5293C48.1566 38.4699 48.1338 38.4049 48.1129 38.3345C48.0503 38.1231 48.0059 37.8628 48.0133 37.557C48.0182 37.3531 48.0462 37.1291 48.1072 36.8861C48.1591 36.6796 48.2412 36.4564 48.347 36.2231C48.4 36.1061 48.4626 35.9853 48.5315 35.8617C48.7293 35.507 48.9873 35.1291 49.3408 34.7236C50.0038 33.9629 50.5762 33.2441 50.9196 32.2695C51.0914 31.7822 51.2058 31.2309 51.2458 30.5785C51.2657 30.2523 51.2671 29.9008 51.2476 29.5194C51.2281 29.138 51.1878 28.7265 51.1246 28.2806C51.8189 29.7616 52.2961 32.2742 54 33.9781C52.8274 31.1006 52.4759 26.2939 50.5141 24.8548Z" fill="black"/>
<path opacity="0.2" d="M16.4609 36.5068C16.5408 37.1192 17.0466 38.69 18.3778 38.6634C19.709 38.6368 20.907 35.7614 21.4395 35.8146C21.972 35.8679 22.9571 36.6133 25.1402 37.9179C27.3234 39.2225 27.1371 39.9413 27.4299 41.6719C27.7228 43.4025 26.7376 44.9733 26.2851 45.7188C26.2851 45.7188 26.2851 45.7188 29.1338 45.7188C29.1338 45.7188 29.2137 45.559 29.4001 44.1479C29.5864 42.7369 31.1839 41.4323 30.9709 40.0745C30.7579 38.7166 32.2754 37.5718 33.3138 37.9179C34.3521 38.264 40.3957 38.1575 42.8984 36.0809C42.8984 36.0809 43.2977 37.0926 44.6023 38.6634C45.9069 40.2342 44.9645 40.9263 44.3094 43.1096C43.9101 44.4408 42.925 44.5206 42.4724 45.7188C43.6705 45.7188 43.4575 45.7188 45.4543 45.7188C45.7205 44.5739 48.4361 38.9829 48.4361 38.9829C48.4361 38.9829 47.4061 37.793 48.5779 35.7782L48.5756 35.7791C45.5124 37.4092 43.8516 34.935 43.3835 33.5533C42.3941 35.5307 32.3415 37.579 31.4806 36.1801C30.7147 34.9354 26.2771 35.9789 24.3197 34.8386C22.3622 33.6983 21.0171 31.6203 20.2346 33.0931C18.724 35.9363 17.0644 33.7927 16.8516 33.2555C16.5304 32.4445 14.4474 32.6385 14.1708 33.4658L14.1688 33.4703C14.0522 34.1076 13.6617 34.566 14.7037 35.6682C15.3959 36.4004 16.381 35.8945 16.4609 36.5068Z" fill="black"/>
<path d="M20.1623 27.2171C20.7357 27.5038 21.7175 26.9383 21.7426 25.8217C21.7677 24.7052 20.6288 22.3749 19.5659 22.081C18.8996 21.8967 20.8927 24.6827 20.2876 25.8956C19.972 26.5283 19.8009 27.0363 20.1623 27.2171Z" fill="#C8B2A4"/>
</svg>
