<svg width="68" height="68" viewBox="0 0 68 68" fill="none" xmlns="http://www.w3.org/2000/svg">
<path opacity="0.4" d="M34 68C51.6731 68 66 53.6731 66 36C66 18.3269 51.6731 4 34 4C16.3269 4 2 18.3269 2 36C2 53.6731 16.3269 68 34 68Z" fill="black" fill-opacity="0.05"/>
<path d="M34 66C51.6731 66 66 51.6731 66 34C66 16.3269 51.6731 2 34 2C16.3269 2 2 16.3269 2 34C2 51.6731 16.3269 66 34 66Z" fill="black" fill-opacity="0.05"/>
<path d="M34 65C51.6731 65 66 50.6731 66 33C66 15.3269 51.6731 1 34 1C16.3269 1 2 15.3269 2 33C2 50.6731 16.3269 65 34 65Z" fill="black" fill-opacity="0.05"/>
<path d="M34 64C51.6731 64 66 49.6731 66 32C66 14.3269 51.6731 0 34 0C16.3269 0 2 14.3269 2 32C2 49.6731 16.3269 64 34 64Z" fill="white"/>
<path opacity="0.19" d="M34 44.9004C45.598 44.9004 55 44.2288 55 43.4004C55 42.572 45.598 41.9004 34 41.9004C22.402 41.9004 13 42.572 13 43.4004C13 44.2288 22.402 44.9004 34 44.9004Z" fill="#020202"/>
<path opacity="0.2" d="M34.0001 44.9004C43.3426 44.9004 50.9162 44.2288 50.9162 43.4004C50.9162 42.572 43.3426 41.9004 34.0001 41.9004C24.6576 41.9004 17.084 42.572 17.084 43.4004C17.084 44.2288 24.6576 44.9004 34.0001 44.9004Z" fill="black"/>
<path d="M44.5376 29.167L46.1459 31.3665C46.1459 31.3665 46.3553 37.2504 48.4661 38.3581C48.8179 40.432 47.9217 43.3857 46.0788 43.3857C44.2361 43.3857 44.6716 42.5374 44.8391 42.3645C45.0066 42.1916 45.6266 41.9089 46.1459 42.1602C46.8327 41.3747 46.9667 40.1492 46.6149 39.9136C46.2631 39.6778 43.9345 38.2167 43.1639 37.494C42.3932 36.7713 40.718 35.3101 40.7012 34.4617C40.6845 33.6133 44.5376 29.167 44.5376 29.167Z" fill="#5A4A3F"/>
<path d="M25.5076 34.4058C25.9432 35.88 26.7808 40.2023 26.8646 40.7216C26.9483 41.241 26.7305 41.8106 26.6971 41.8775C25.96 41.7268 24.938 41.9446 24.871 42.4807C24.804 43.0168 25.6249 43.3853 26.8143 43.3853C28.0876 43.3853 28.6739 42.045 28.6739 42.045C28.808 39.951 28.7912 37.5889 28.9587 36.7177C29.1262 35.8466 28.4059 32.8311 28.4059 32.8311L25.5076 34.4058Z" fill="#5A4A3F"/>
<path d="M54.1204 34.3674C53.3163 33.6638 52.4871 34.7694 52.7634 35.1212C53.0399 35.473 54.5224 38.7147 51.9593 38.9911C48.4161 39.3178 47.235 36.051 47.1093 32.0807C46.9837 28.1102 44.1525 26.9375 41.3715 26.2506C38.5906 25.5638 37.0661 26.2842 33.883 26.636C30.7457 26.9827 27.8086 26.1039 26.8541 25.4857C25.7167 24.749 22.2901 21.2918 21.1174 20.7725C21.1174 20.7725 21.3854 20.5212 20.9666 20.1694C20.5478 19.8176 19.9782 20.0521 19.6097 20.5212C19.6097 20.5212 19.3919 20.5379 18.3532 20.7892C17.3145 21.0406 16.1754 21.962 15.9073 22.6321C15.6392 23.3022 14.9524 23.5702 15.0026 24.0728C14.9508 24.3491 15.7565 25.9491 16.3931 25.9491C17.0297 25.9491 17.8338 25.3124 18.4872 25.2623C19.4377 25.0711 19.2699 26.1672 20.7143 29.1339C21.3808 30.5029 22.2795 31.509 22.958 33.2932C23.3936 34.7673 23.8653 39.524 23.9055 40.7217C23.9232 41.2474 23.7714 42.5861 23.738 42.653C23.0009 42.5022 21.9789 42.7201 21.9119 43.2562C21.8449 43.7922 22.665 44.1219 23.8544 44.1219C25.1277 44.1219 25.5218 42.7459 25.5218 42.7459C25.6559 40.6518 26.1262 37.6291 26.0887 36.7429C26.056 35.9702 26.075 34.8881 26.307 34.6152C26.7765 34.063 28.4131 34.3575 29.6446 34.6438C30.5345 34.8507 35.0557 35.5987 36.8483 34.7443C36.9153 36.8384 38.0545 39.8037 38.2053 40.7083C38.356 41.6129 37.6859 42.7857 36.3122 42.97C35.2903 42.6683 34.4693 43.1207 34.4693 43.4557C34.4693 43.7908 34.4861 44.1426 36.2452 44.1426C38.0042 44.1426 39.2439 43.4557 40.9192 41.0698C39.445 36.9752 44.6214 34.1412 44.9064 30.6063C45.476 39.9544 50.1751 40.9763 53.0901 40.0968C56.0051 39.2173 54.9246 35.071 54.1204 34.3674Z" fill="#A88972"/>
<path opacity="0.15" d="M38.5015 29.4028C38.5015 29.4028 37.5933 31.4239 33.642 31.6202C29.6905 31.8167 31.2135 29.3591 27.7757 29.0999C24.3379 28.8407 21.6967 25.4056 20.876 22.8525C22.3653 21.9102 20.2833 20.9984 19.9641 22.3806C20.2375 23.367 16.9904 25.2203 15.3652 24.9867C15.4313 25.0995 15.5046 25.2116 15.5812 25.3185C15.5883 25.3282 15.5948 25.3383 15.6019 25.3479C15.669 25.4395 15.7402 25.5219 15.8121 25.5993C15.83 25.6184 15.8472 25.6404 15.8653 25.6583C15.9314 25.7243 15.9988 25.7742 16.0661 25.8203C16.079 25.8291 16.0918 25.8412 16.1047 25.8491C16.1139 25.8564 16.1232 25.8645 16.1324 25.8697C16.2204 25.9195 16.308 25.9501 16.3927 25.9501C17.0293 25.9501 17.8334 25.3134 18.4868 25.2632C18.5337 25.2596 18.5683 25.2589 18.5972 25.2602C19.306 25.1981 19.3433 26.0233 20.2353 28.092C20.2383 28.099 20.2403 28.1045 20.2434 28.1115C20.3787 28.4245 20.5337 28.7654 20.7139 29.1355C21.3804 30.5044 22.2791 31.5105 22.9576 33.2947C23.3932 34.7688 23.8649 39.5256 23.9051 40.7232C23.9228 41.2489 23.771 42.5876 23.7376 42.6546C23.0005 42.5038 21.9785 42.7216 21.9115 43.2577C21.8445 43.7938 22.6646 44.1234 23.854 44.1234C25.1272 44.1234 25.5214 42.7475 25.5214 42.7475C25.6555 40.6534 26.1258 37.6307 26.0883 36.7444C26.0556 35.9718 26.0746 34.8897 26.3066 34.6168C26.7761 34.0645 28.4127 34.359 29.6442 34.6453C29.7284 34.6649 29.8541 34.6904 29.998 34.7178C31.3704 34.9797 35.2017 35.5156 36.8326 34.7518C36.8373 34.7495 36.8432 34.7475 36.8478 34.7453C36.8478 34.7451 36.8478 34.7455 36.8478 34.7453C36.8562 35.0069 36.8814 35.2827 36.9192 35.5658C37.1842 37.5486 38.0729 39.9178 38.2048 40.7093C38.2154 40.7732 38.2126 40.8411 38.2151 40.9072C38.2171 40.958 38.226 41.0072 38.2231 41.0588C38.2231 41.0587 38.2231 41.0588 38.2231 41.0588C38.2231 41.0604 38.2225 41.0621 38.2224 41.0637C38.216 41.1742 38.1972 41.2859 38.1693 41.3974C38.1599 41.4347 38.1446 41.471 38.1328 41.5082C38.109 41.5838 38.0835 41.6588 38.0498 41.7327C38.0304 41.7752 38.0066 41.8156 37.984 41.8572C37.9479 41.9239 37.9095 41.9892 37.8652 42.0528C37.8361 42.0946 37.8046 42.1343 37.7721 42.1743C37.7238 42.2338 37.6719 42.2906 37.616 42.3457C37.5779 42.3832 37.5394 42.4196 37.4978 42.4548C37.4357 42.5075 37.3681 42.5551 37.2982 42.6015C37.2536 42.6312 37.2107 42.6617 37.163 42.6885C37.0813 42.7344 36.9921 42.7723 36.9012 42.809C36.856 42.8273 36.8145 42.849 36.767 42.8648C36.6246 42.912 36.474 42.9498 36.3118 42.9715C36.0563 42.8961 35.8134 42.8678 35.5928 42.873C35.3224 42.8794 35.0918 42.9392 34.906 43.0212C34.7885 43.073 34.6851 43.1319 34.6131 43.1976C34.5306 43.273 34.4874 43.3526 34.4772 43.4283C34.476 43.4378 34.4689 43.4479 34.4689 43.4573C34.4689 43.7922 34.4866 44.1436 36.2447 44.1436C38.0038 44.1436 39.2435 43.4568 40.9187 41.0709C40.9006 41.0206 40.8952 40.9727 40.8791 40.9229C40.8191 40.7341 40.7634 40.5461 40.7294 40.3624C40.7294 40.3623 40.7294 40.3624 40.7294 40.3624C40.7155 40.2871 40.7118 40.2136 40.7022 40.1392C40.7022 40.1391 40.7022 40.1392 40.7022 40.1392C40.6818 39.9826 40.6649 39.8266 40.6622 39.6735C40.6622 39.6732 40.6622 39.6737 40.6622 39.6735C40.6607 39.5906 40.6658 39.5083 40.6692 39.4265C40.6692 39.4262 40.6692 39.4268 40.6692 39.4265C40.6752 39.2831 40.6857 39.1397 40.7055 38.999C40.7055 38.9989 40.7055 38.999 40.7055 38.999C40.7168 38.9192 40.7303 38.8397 40.7458 38.7606C40.7458 38.7605 40.7458 38.7607 40.7458 38.7606C40.774 38.616 40.8087 38.4726 40.8497 38.3305C40.8497 38.3307 40.8498 38.3303 40.8497 38.3305C40.8696 38.2614 40.8887 38.1915 40.9115 38.1229C40.9114 38.1232 40.9116 38.1227 40.9115 38.1229C40.9649 37.962 41.0268 37.802 41.094 37.6439C41.0943 37.6432 41.0947 37.6425 41.095 37.6417C41.1143 37.5964 41.1309 37.5505 41.1513 37.5054C41.1512 37.5055 41.1513 37.5053 41.1513 37.5054C41.1518 37.5042 41.1527 37.5026 41.1533 37.5015C41.2566 37.2729 41.3731 37.0473 41.4988 36.8237C41.5368 36.756 41.5792 36.6895 41.6188 36.6222C41.7097 36.4681 41.8012 36.3142 41.8993 36.1619C41.9705 36.0512 42.0448 35.9414 42.1188 35.8314C42.1854 35.7327 42.2508 35.6337 42.3191 35.5354C42.976 34.5874 43.6934 33.66 44.2082 32.709C44.21 32.7056 44.2119 32.7024 44.2137 32.6991C44.3365 32.4716 44.4476 32.2427 44.5433 32.0119C42.1212 32.9062 38.6149 31.7858 38.5015 29.4028Z" fill="black"/>
<path opacity="0.15" d="M52.7628 35.1201C53.0392 35.472 54.5219 38.7136 51.9587 38.99C48.4155 39.3167 47.2343 36.0499 47.1087 32.0795C47.0822 31.2424 46.9298 30.5359 46.6885 29.9258C46.4146 30.7952 45.7959 31.4149 45.0176 31.8105C45.9081 40.0235 50.3071 40.9352 53.0895 40.0957C56.0045 39.2162 54.9239 35.0699 54.1198 34.3663C53.3157 33.6626 52.4864 34.7683 52.7628 35.1201Z" fill="black"/>
<path opacity="0.15" d="M37.1296 32.3744C35.9721 33.4264 29.9028 34.3162 28.8086 32.461C28.206 31.4393 27.5074 30.3364 25.5328 30.827C23.23 31.3992 22.3285 30.3482 20.0254 27.5781C20.0256 27.5787 20.0259 27.5793 20.0261 27.5799C20.109 27.7845 20.2011 28.004 20.3011 28.2341C20.4241 28.5147 20.5557 28.8075 20.7138 29.1322C21.3803 30.5011 22.279 31.5072 22.9575 33.2914C23.3931 34.7656 23.8647 39.5223 23.905 40.7199C23.9227 41.2456 23.7709 42.5843 23.7375 42.6513C23.0004 42.5005 21.9784 42.7183 21.9114 43.2544C21.8444 43.7905 22.6644 44.1201 23.8539 44.1201C25.1271 44.1201 25.5213 42.7442 25.5213 42.7442C25.6554 40.6501 26.1256 37.6274 26.0882 36.7411C26.0555 35.9685 26.0745 34.8864 26.3065 34.6135C26.776 34.0612 28.4126 34.3558 29.6441 34.642C29.6996 34.6549 29.7693 34.6699 29.8515 34.6865C31.0815 34.9347 35.1268 35.5367 36.8219 34.7526C36.8299 34.7489 36.8399 34.7454 36.8477 34.7417C36.9148 36.8358 38.0539 39.8011 38.2048 40.7057C38.2236 40.819 38.2296 40.9364 38.223 41.0555C38.223 41.0555 38.223 41.0556 38.223 41.0555C38.2229 41.0569 38.2224 41.0584 38.2223 41.0598C38.2159 41.1705 38.1971 41.2825 38.1691 41.3942C38.1598 41.4313 38.1445 41.4675 38.1329 41.5045C38.1089 41.5803 38.0833 41.6554 38.0495 41.7296C38.0303 41.7719 38.0066 41.8121 37.9841 41.8535C37.9479 41.9204 37.9094 41.986 37.8649 42.0498C37.836 42.0914 37.8046 42.1308 37.7722 42.1707C37.7238 42.2305 37.6716 42.2874 37.6155 42.3427C37.5776 42.3801 37.5394 42.4164 37.4981 42.4514C37.4357 42.5042 37.3679 42.552 37.2977 42.5985C37.2533 42.628 37.2105 42.6584 37.1629 42.6851C37.0809 42.7312 36.9915 42.7692 36.9004 42.806C36.8555 42.8242 36.8142 42.8459 36.7671 42.8614C36.6246 42.9087 36.474 42.9464 36.3116 42.9682C36.0562 42.8928 35.8133 42.8645 35.5927 42.8697C35.5816 42.87 35.5723 42.8725 35.5614 42.8729C35.1354 42.8896 34.7943 43.029 34.613 43.1943C34.5334 43.2669 34.492 43.3434 34.4795 43.4167C34.4775 43.429 34.4688 43.4419 34.4688 43.454C34.4688 43.7888 34.487 44.14 36.2446 44.14C38.0036 44.14 39.2432 43.4532 40.9185 41.0675C40.9176 41.065 40.9172 41.0627 40.9166 41.0603C40.8098 40.7621 40.7472 40.4724 40.7064 40.1868C40.7064 40.1868 40.7064 40.1869 40.7064 40.1868C40.6832 40.0244 40.6692 39.8637 40.6651 39.7049C40.6651 39.7048 40.6651 39.7051 40.6651 39.7049C40.6634 39.6413 40.6601 39.5768 40.6614 39.5137C40.6614 39.5135 40.6614 39.514 40.6614 39.5137C40.6654 39.3076 40.681 39.1027 40.7133 38.9021C40.7251 38.8298 40.7473 38.7596 40.7624 38.688C40.7937 38.545 40.823 38.4017 40.8656 38.2611C40.8655 38.2612 40.8656 38.2609 40.8656 38.2611C40.8825 38.2053 40.9024 38.1496 40.9211 38.0942C40.9212 38.0938 40.9214 38.0933 40.9215 38.0928C40.9738 37.938 41.0321 37.7844 41.0971 37.6323C41.0973 37.6319 41.0975 37.6314 41.0977 37.631C41.1201 37.5788 41.1413 37.5263 41.165 37.4744C41.1651 37.4741 41.1653 37.4738 41.1654 37.4735C41.1674 37.469 41.17 37.4647 41.1721 37.4603C41.3521 37.0679 41.5676 36.6832 41.806 36.3041C41.8095 36.2986 41.8124 36.293 41.8158 36.2875C41.816 36.2873 41.8163 36.2869 41.8164 36.2866C41.8393 36.2504 41.8628 36.2145 41.886 36.1784C41.8865 36.1776 41.8871 36.1768 41.8876 36.176C41.9983 36.0036 42.112 35.8322 42.2291 35.6616C42.23 35.6604 42.2308 35.6592 42.2316 35.658C42.246 35.637 42.2602 35.616 42.2747 35.595C42.2752 35.5942 42.2757 35.5935 42.2762 35.5928C42.2795 35.5881 42.2829 35.5835 42.2861 35.5788C42.4787 35.3006 42.676 35.0243 42.8734 34.7487C43.0026 34.5676 43.1317 34.385 43.2585 34.2043C43.3132 34.1264 43.3671 34.0485 43.4207 33.9707C43.4875 33.8737 43.5533 33.7767 43.618 33.6796C43.6957 33.5627 43.7701 33.4455 43.8438 33.3283C43.884 33.2644 43.9264 33.2007 43.9652 33.1367C42.0104 36.1196 37.0486 34.6018 37.1296 32.3744Z" fill="black"/>
</svg>
