<svg width="68" height="68" viewBox="0 0 68 68" fill="none" xmlns="http://www.w3.org/2000/svg">
<g clip-path="url(#clip0_2883_12596)">
<path opacity="0.4" d="M34 68C51.6731 68 66 53.6731 66 36C66 18.3269 51.6731 4 34 4C16.3269 4 2 18.3269 2 36C2 53.6731 16.3269 68 34 68Z" fill="black" fill-opacity="0.05"/>
<path d="M34 66C51.6731 66 66 51.6731 66 34C66 16.3269 51.6731 2 34 2C16.3269 2 2 16.3269 2 34C2 51.6731 16.3269 66 34 66Z" fill="black" fill-opacity="0.05"/>
<path d="M34 65C51.6731 65 66 50.6731 66 33C66 15.3269 51.6731 1 34 1C16.3269 1 2 15.3269 2 33C2 50.6731 16.3269 65 34 65Z" fill="black" fill-opacity="0.05"/>
<path d="M34 64C51.6731 64 66 49.6731 66 32C66 14.3269 51.6731 0 34 0C16.3269 0 2 14.3269 2 32C2 49.6731 16.3269 64 34 64Z" fill="white"/>
<path opacity="0.2" d="M38.5215 51.7773C47.6342 51.7773 55.0215 51.1058 55.0215 50.2773C55.0215 49.4489 47.6342 48.7773 38.5215 48.7773C29.4088 48.7773 22.0215 49.4489 22.0215 50.2773C22.0215 51.1058 29.4088 51.7773 38.5215 51.7773Z" fill="black"/>
<path opacity="0.19" d="M33.9785 51.7773C45.5765 51.7773 54.9785 51.1058 54.9785 50.2773C54.9785 49.4489 45.5765 48.7773 33.9785 48.7773C22.3805 48.7773 12.9785 49.4489 12.9785 50.2773C12.9785 51.1058 22.3805 51.7773 33.9785 51.7773Z" fill="#020202"/>
<path d="M14 15.3831C15.8604 14.303 22.8281 16.1165 28.261 19.3399C29.0613 23.0248 31.2045 29.2012 32.3645 30.0944C32.6496 30.3139 32.8921 30.4747 33.0745 30.4084C33.6649 30.1936 35.196 29.6463 36.5365 31.1366C37.247 31.9267 37.6077 33.2769 37.2725 33.8473C36.961 34.6597 38.7497 35.0035 39.2584 35.1568C39.7594 35.3077 47.2879 36.9795 48.8509 36.3376C48.8751 36.3276 55.8805 45.1884 53.5106 48.9391C51.9067 47.7238 49.4444 48.1866 49.4444 48.1866C48.1199 45.3312 42.6928 43.6178 40.726 44.4945C41.0168 42.357 38.1333 40.8753 32.9963 42.0327C31.2102 42.4351 30.9902 42.0015 30.3866 41.5192C29.783 41.0369 28.3099 40.8126 28.3099 40.8126C27.9238 39.7864 27.5599 38.9429 27.1564 38.5783C26.5997 38.0751 25.1696 37.369 25.5425 36.339C26.1025 34.7924 25.5867 27.9917 21.1684 28.1673C21.5854 24.8984 17.8263 19.9328 15.1586 19.2565C15.5969 17.1785 14.2138 15.8967 14 15.3831Z" fill="#8E7F7E"/>
<path d="M15.1586 19.256C17.8263 19.9323 21.5854 24.8979 21.1684 28.1668C25.5867 27.9912 26.1025 34.792 25.5425 36.3386C25.1696 37.3685 26.5997 38.0746 27.1564 38.5778C27.5599 38.9425 27.9238 39.786 28.3099 40.8121C28.3099 40.8121 29.783 41.0364 30.3866 41.5187C30.9902 42.001 31.2102 42.4346 32.9963 42.0322C38.1332 40.8748 41.0168 42.3565 40.7259 44.494C42.6928 43.6174 48.1199 45.3307 49.4444 48.1861C49.4444 48.1861 51.9067 47.7234 53.5106 48.9387C54.2352 47.7917 54.081 46.1665 53.5201 44.4637C52.9773 44.9912 51.9879 45.9683 44.9501 43.5589C37.909 41.1484 37.4489 37.5409 41.1069 35.5688C40.1195 35.3668 39.4015 35.1994 39.2584 35.1563C38.7497 35.0031 36.961 34.6593 37.2725 33.8468C37.6077 33.2764 37.247 31.9262 36.5365 31.1362C35.196 29.6459 33.6649 30.1932 33.0745 30.4079C32.8921 30.4743 32.6495 30.3134 32.3645 30.0939C32.0094 29.8205 31.5618 29.0488 31.0892 28.0082C31.0891 28.0085 31.0893 28.0079 31.0892 28.0082C28.8316 35.1979 22.673 25.7437 21.4497 23.4621C20.0392 20.8314 17.5052 15.1161 19.6069 15.7009C17.0461 14.9884 14.9082 14.8554 14 15.3827C14.2138 15.8962 15.5969 17.1781 15.1586 19.256Z" fill="#7A6F6E"/>
<path d="M52.9253 43.6075C52.1708 41.7894 49.4148 37.3821 48.8711 36.9839C48.6748 36.8401 48.4773 36.7795 48.3384 36.762C44.0037 36.2171 40.809 37.2164 39.9492 37.0968C39.9492 37.0968 39.0239 36.1569 38.0267 35.3208C37.9625 35.267 37.0544 34.8123 37.0722 34.4578C37.0855 34.1947 33.1452 30.0285 32.7812 30.2871C32.5026 30.485 32.0778 30.1414 31.9773 30.0267C31.1905 29.1286 29.9755 28.3032 29.9755 28.3032C29.8414 27.2739 28.3952 20.858 27.8531 19.6749C27.7223 19.3895 22.311 16.9132 20.5161 16.2332C17.4279 15.0633 14.3358 15.1901 14.2997 15.4919C14.2313 16.0631 18.3532 16.1192 20.6903 16.9708C22.5771 17.6584 26.0309 19.3714 26.0309 19.3714C25.4241 19.2892 23.4795 18.7854 20.4977 18.5802C17.8859 18.4004 15.4385 18.452 15.4558 18.9472C15.4754 19.5104 17.0036 19.175 20.5187 19.3989C24.5451 19.6553 27.0936 20.1574 27.0936 20.1574C26.3494 20.7373 25.0858 22.3563 23.6966 24.104C22.2705 25.8981 21.2006 27.7545 21.4991 27.8552C21.7086 27.9258 22.9129 26.3885 24.3574 24.4551C25.3507 23.1257 26.3004 21.7759 27.5431 20.6646C28.2786 22.7592 28.7123 28.1066 29.0146 29.398C29.2421 29.6532 31.0072 30.3076 31.0693 30.6997C31.098 30.8807 31.2145 31.4827 30.9065 32.4007C30.135 34.6995 28.566 35.4291 27.4058 35.495C26.8222 35.5282 25.8778 36.0972 25.0719 36.625C24.5982 36.9352 24.6293 38.4765 25.2645 38.1949C25.7074 37.9985 25.299 37.6354 25.4813 37.3469C25.6636 37.0584 27.3489 36.1939 27.8753 36.4256C28.1436 36.5437 28.5569 36.8144 28.7251 37.2516C29.0361 38.0602 28.6543 38.7043 29.27 39.2581C30.0799 39.9865 30.8903 39.4997 31.8872 39.6334C32.4534 39.7093 32.7329 40.2062 32.747 40.4289C32.7792 40.9371 32.5251 42.3241 32.3169 42.3607C32.1088 42.3974 31.9233 42.398 31.6607 42.4676C31.3981 42.5371 31.0372 43.1883 32.6009 43.0354C33.5329 42.9442 33.5479 40.9614 33.5315 40.2488C33.4998 38.8747 34.1349 37.7687 34.7761 37.3008C35.7382 36.5987 36.8828 36.4611 37.1205 36.4444C37.5165 36.4167 39.0934 37.9941 39.3933 38.1584C39.6932 38.3227 45.1407 37.0201 48 37.3331C47.462 38.1865 45.8351 39.3731 44.4016 40.6386C42.5186 42.3008 40.5973 43.6489 40.9769 44.1488C41.3103 44.5878 43.1839 42.7413 45.0941 41.1151C46.6938 39.7531 48.2013 38.3622 48.4367 37.9531C48.4367 37.9531 48.9087 39.4653 49.3958 42.9537C49.9652 47.0309 48.9837 47.8186 49.5998 47.9655C50.216 48.1125 50.421 45.3384 50.014 42.6196C49.6488 40.1804 49.3775 38.7193 49.2047 38.4073C49.2047 38.4073 52.0462 42.7134 52.6068 44.2562C53.3739 46.3672 52.9594 48.5563 53.3801 48.6048C54.0399 48.6807 53.5647 45.148 52.9253 43.6075Z" fill="#CEC2B7"/>
<path d="M30.5731 32.5228C31.9156 29.9087 34.2576 29.4136 36.1999 30.7254C38.1073 32.0135 37.2511 35.0424 35.9851 36.344C34.7191 37.6455 31.0746 40.9118 29.2702 39.5072C27.4659 38.1026 29.2 35.1966 30.5731 32.5228Z" fill="#D9D8DE"/>
<path d="M34.156 29.6945C33.3916 30.917 34.1083 31.0803 33.8775 31.453C33.054 32.783 34.1121 34.0234 35.6148 33.5893C36.0952 33.4505 36.1925 34.1983 37.5618 33.8482C38.63 33.6485 38.8994 32.4899 38.7476 32.0912C38.7476 32.0912 37.7707 32.0068 37.1112 32.4648C37.1112 32.4648 36.8846 31.8139 36.515 31.3785C36.1573 30.9572 35.9019 30.8053 35.487 30.523C35.487 30.523 36.3919 29.5767 36.1415 29.0147C35.6327 28.8615 34.6955 28.8317 34.156 29.6945Z" fill="#7A6F6E"/>
</g>
<defs>
<clipPath id="clip0_2883_12596">
<rect width="64" height="68" fill="white" transform="translate(2)"/>
</clipPath>
</defs>
</svg>
