<svg width="68" height="68" viewBox="0 0 68 68" fill="none" xmlns="http://www.w3.org/2000/svg">
<path opacity="0.4" d="M34 68C51.6731 68 66 53.6731 66 36C66 18.3269 51.6731 4 34 4C16.3269 4 2 18.3269 2 36C2 53.6731 16.3269 68 34 68Z" fill="black" fill-opacity="0.05"/>
<path d="M34 66C51.6731 66 66 51.6731 66 34C66 16.3269 51.6731 2 34 2C16.3269 2 2 16.3269 2 34C2 51.6731 16.3269 66 34 66Z" fill="black" fill-opacity="0.05"/>
<path d="M34 65C51.6731 65 66 50.6731 66 33C66 15.3269 51.6731 1 34 1C16.3269 1 2 15.3269 2 33C2 50.6731 16.3269 65 34 65Z" fill="black" fill-opacity="0.05"/>
<path d="M34 64C51.6731 64 66 49.6731 66 32C66 14.3269 51.6731 0 34 0C16.3269 0 2 14.3269 2 32C2 49.6731 16.3269 64 34 64Z" fill="white"/>
<path opacity="0.2" d="M34.0059 47.5566C45.6038 47.5566 55.0059 46.8851 55.0059 46.0566C55.0059 45.2282 45.6038 44.5566 34.0059 44.5566C22.4079 44.5566 13.0059 45.2282 13.0059 46.0566C13.0059 46.8851 22.4079 47.5566 34.0059 47.5566Z" fill="black"/>
<path opacity="0.2" d="M34.8721 47.5566C41.9931 47.5566 47.7657 46.8851 47.7657 46.0566C47.7657 45.2282 41.9931 44.5566 34.8721 44.5566C27.7512 44.5566 21.9785 45.2282 21.9785 46.0566C21.9785 46.8851 27.7512 47.5566 34.8721 47.5566Z" fill="black"/>
<path d="M17.627 31.7275C17.5419 30.4297 20.2227 27.6637 24.0099 26.4935C27.7972 25.3233 27.861 25.1531 27.861 25.1531C28.4142 23.7914 30.218 22.9484 30.5171 22.8412C31.6671 22.4289 33.6058 22.8449 34.1376 23.3272C34.8078 23.935 34.361 24.6211 34.8238 25.052C35.2865 25.4828 37.0099 26.0254 37.6802 25.786C38.3504 25.5467 40.4248 24.7914 42.3504 25.5467C44.2759 26.302 44.6376 27.2275 44.3291 28.3658C44.0206 29.5041 43.6163 30.1956 43.127 30.185C44.7546 30.8126 46.2227 30.536 47.3823 30.3871C48.5419 30.2382 52.5099 31.0467 52.3717 33.419C52.2334 35.7914 49.0498 37.0201 48.1084 37.0759C47.1669 37.1318 45.8823 36.1983 44.6536 36.0467C43.4248 35.8951 42.6429 35.927 42.236 35.7515C44.1988 36.31 43.6057 38.9828 42.361 39.4297C41.1163 39.8765 39.5099 40.1637 37.2865 38.8552C35.0631 37.5467 34.9993 38.1637 34.3185 38.0148C33.6376 37.8658 33.244 37.9297 33.0099 37.919C33.4674 38.3233 33.0844 39.419 31.7759 39.1531C32.3504 40.1637 31.6057 40.7701 30.5525 41.2275C29.4993 41.685 28.3717 40.4297 28.0312 39.9722C27.6908 39.5148 26.7653 37.7488 26.7653 37.7488C25.5419 37.0892 23.7865 36.4828 22.7227 36.068C21.6589 35.6531 18.0738 33.9403 17.627 31.7275Z" fill="#F76D02"/>
<path d="M30.7448 38.8343C31.5319 39.1534 31.0156 41.4169 28.1211 40.0842C28.5348 40.6011 29.5721 41.6541 30.5533 41.2279C31.6065 40.7704 32.3512 40.1641 31.7767 39.1534C33.0852 39.4194 33.4682 38.3237 33.0107 37.9194L31.915 37.5684C32.1384 37.8237 32.298 39.0151 30.7448 38.8343Z" fill="#504A59"/>
<path d="M37.7012 39.0713C39.7079 40.1088 41.1961 39.848 42.3606 39.43C43.3995 39.0571 43.9783 37.1373 43.0022 36.1865C43.0995 37.3389 42.7103 38.048 41.8818 38.6428C41.0692 39.2261 38.4796 39.378 37.7012 39.0713Z" fill="#504A59"/>
<path d="M47.3815 30.3872C47.1093 30.4222 46.8188 30.4638 46.5145 30.4994L46.5155 30.4997C48.3835 30.6121 50.6049 32.4723 50.6049 33.4723C50.6049 34.4723 49.1581 35.6212 48.5836 36.0893C48.0092 36.5574 47.0942 36.5787 45.9453 36.4173L45.9455 36.4188C46.7379 36.7321 47.4955 37.1123 48.1075 37.076C49.0491 37.0202 52.2325 35.7915 52.3708 33.4191C52.5092 31.0468 48.5411 30.2382 47.3815 30.3872Z" fill="#504A59"/>
<path d="M43.6121 29.9414C43.889 29.6482 44.1293 29.1029 44.329 28.3663C44.6375 27.228 44.2758 26.3025 42.3503 25.5472C40.4247 24.7919 38.3503 25.5472 37.68 25.7865C37.6623 25.7929 37.6364 25.8842 37.6172 25.8894C37.794 25.9399 38.0121 25.8907 38.3112 25.9096C39.7184 25.9983 42.5311 26.8876 43.1215 27.3663C43.7109 27.8441 43.7437 29.3705 43.6121 29.9414Z" fill="#504A59"/>
<path d="M34.9997 27.2595L35.6283 25.6547C35.2374 25.5114 34.9919 25.2089 34.8235 25.052C34.3607 24.6212 34.8075 23.935 34.1373 23.3272C33.5127 22.7608 31.0586 22.2845 29.9395 23.1174C30.1694 23.0847 31.3991 22.9899 32.7118 23.4084C34.1798 23.8765 34.2437 24.5786 34.0624 25.1318C33.881 25.685 34.1585 26.2169 34.0624 26.9932L34.9997 27.2595Z" fill="#504A59"/>
<path d="M23.8663 26.543C22.8482 26.871 21.9152 27.3124 21.0957 27.808C22.0156 28.1591 23.7131 30.1119 23.8619 31.0256C23.5427 32.8554 23.0533 33.5788 22.6066 34.132C22.1597 34.6852 22.0067 35.4724 22.4768 35.6852C22.947 35.8979 24.1385 35.983 25.0746 34.0469C26.0108 32.1107 26.33 31.6213 26.2023 30.3873C26.0748 29.1544 25.3113 27.2299 23.8663 26.543Z" fill="#B8CCD1"/>
<path d="M39.201 25.3515C38.5395 25.47 37.966 25.6833 37.6794 25.7856C37.0092 26.025 35.2858 25.4824 34.823 25.0516C34.6556 24.8958 34.6083 24.7059 34.583 24.499C34.244 25.0676 34.7113 26.025 34.2858 26.642C33.8602 27.259 32.5623 29.5052 32.4772 31.9991C32.3922 34.4931 33.5202 36.3571 33.4349 37.9145C33.4349 37.9142 33.4349 37.9147 33.4349 37.9145C33.6575 37.9152 33.9401 37.9318 34.3177 38.0143C34.9533 38.1534 35.0743 37.6454 36.8936 38.6392C36.8875 38.6337 36.8876 38.6306 36.8812 38.6249C36.1368 37.9824 36.0305 36.7697 35.7539 34.4931C35.4772 32.2165 36.4985 29.259 36.8602 28.259C37.2209 27.262 37.4375 26.2491 39.201 25.3515Z" fill="#B8CCD1"/>
<path d="M46.3966 36.6013C46.3964 36.6012 46.3968 36.6014 46.3966 36.6013C45.6912 36.0898 45.5204 35.8978 45.5417 35.4084C45.563 34.9191 45.7758 33.7064 45.9034 32.6212C46.0311 31.5361 46.1162 30.6 47.4779 30.3872C47.4898 30.3854 47.4952 30.3809 47.5067 30.3789C47.4651 30.3817 47.4185 30.3826 47.3821 30.3872C46.4414 30.5081 45.2954 30.7046 44.028 30.4424L44.0152 30.4469C43.946 31.3659 44.563 33.6425 44.2226 34.4723C43.8822 35.3019 43.7751 35.7696 43.332 35.9235C43.6998 35.9518 44.1277 35.9819 44.6534 36.0468C45.2365 36.1187 45.8311 36.3665 46.3966 36.6013Z" fill="#B8CCD1"/>
<path d="M27.2871 31.9999C28.2658 31.3662 30.4999 28.9193 31.9467 29.8342C33.3935 30.7491 34.3935 32.3874 33.2446 34.0683C32.0956 35.7491 30.2446 36.1959 28.202 35.2598C28.9467 34.9832 29.2658 32.3357 27.2871 31.9999Z" fill="#F48806"/>
<path d="M30.7437 35.6882C31.7354 35.5458 32.6018 35.0073 33.244 34.0678C34.3929 32.387 33.3929 30.7487 31.9461 29.8337C31.2473 29.3918 30.3652 29.7363 29.5293 30.2798C30.6511 30.1761 32.3948 31.2346 32.4734 32.3231C32.5483 33.36 32.2858 35.0335 30.7437 35.6882Z" fill="#504A59"/>
<path opacity="0.2" d="M26.7653 37.7492C26.7653 37.7492 27.6908 39.5151 28.0313 39.9726C28.3717 40.4301 29.4993 41.6854 30.5525 41.2279C31.6057 40.7704 32.3504 40.1641 31.7759 39.1534C33.0844 39.4194 33.4674 38.3237 33.01 37.9194C33.244 37.9301 33.6376 37.8662 34.3185 38.0151C34.9993 38.1641 35.0631 37.5471 37.2866 38.8556C39.51 40.1641 41.1163 39.8768 42.361 39.4301C43.6057 38.9832 44.1988 36.3104 42.236 35.7518C42.643 35.9274 43.4249 35.8954 44.6536 36.0471C45.8823 36.1987 47.1669 37.1321 48.1084 37.0763C49.0499 37.0204 52.2334 35.7917 52.3717 33.4194C52.3972 32.9814 52.2813 32.5975 52.0704 32.2624C51.3013 34.22 48.3929 33.579 44.7759 33.2598C41.3562 32.9581 42.1483 35.1534 36.6908 34.4832C34.4486 34.2079 33.9621 33.4904 33.7175 32.2182C25.7849 34.9257 18.7719 30.8034 22.7307 26.9697H22.7235C19.6318 28.2961 17.5519 30.5828 17.627 31.7279C18.0738 33.9407 21.6589 35.6534 22.7227 36.0684C23.7866 36.4832 25.5419 37.0896 26.7653 37.7492Z" fill="black"/>
</svg>
