<svg width="68" height="68" viewBox="0 0 68 68" fill="none" xmlns="http://www.w3.org/2000/svg">
<g clip-path="url(#clip0_2883_12622)">
<path opacity="0.4" d="M34 68C51.6731 68 66 53.6731 66 36C66 18.3269 51.6731 4 34 4C16.3269 4 2 18.3269 2 36C2 53.6731 16.3269 68 34 68Z" fill="black" fill-opacity="0.05"/>
<path d="M34 66C51.6731 66 66 51.6731 66 34C66 16.3269 51.6731 2 34 2C16.3269 2 2 16.3269 2 34C2 51.6731 16.3269 66 34 66Z" fill="black" fill-opacity="0.05"/>
<path d="M34 65C51.6731 65 66 50.6731 66 33C66 15.3269 51.6731 1 34 1C16.3269 1 2 15.3269 2 33C2 50.6731 16.3269 65 34 65Z" fill="black" fill-opacity="0.05"/>
<path d="M34 64C51.6731 64 66 49.6731 66 32C66 14.3269 51.6731 0 34 0C16.3269 0 2 14.3269 2 32C2 49.6731 16.3269 64 34 64Z" fill="white"/>
<path opacity="0.19" d="M34 45.71C45.598 45.71 55 45.0384 55 44.21C55 43.3815 45.598 42.71 34 42.71C22.402 42.71 13 43.3815 13 44.21C13 45.0384 22.402 45.71 34 45.71Z" fill="#020202"/>
<path opacity="0.2" d="M37.2544 45.71C47.0546 45.71 54.9991 45.0384 54.9991 44.21C54.9991 43.3815 47.0546 42.71 37.2544 42.71C27.4543 42.71 19.5098 43.3815 19.5098 44.21C19.5098 45.0384 27.4543 45.71 37.2544 45.71Z" fill="black"/>
<path d="M36.0582 32.3112C35.646 33.5476 35.3713 34.1887 35.5545 35.1046C35.7376 36.0204 36.1498 38.6306 36.6077 40.0502C36.3329 41.3782 37.0198 44.4432 37.0198 44.4432C34.2265 44.4432 33.5854 44.4432 33.5854 44.4432C33.5854 44.4432 33.7698 43.3718 35.3026 43.4389C35.8292 41.653 32.7611 34.2803 31.8452 33.685C30.9294 33.0897 33.5396 31.7676 33.5396 31.7676L36.0582 32.3112Z" fill="#684F35"/>
<path d="M44.2109 34.0509C45.1726 36.249 48.8818 38.9507 50.7593 40.4161C52.6368 41.8815 52.0415 43.5758 52.0415 43.5758C50.7135 43.3927 50.4388 44.4428 50.4388 44.4428H53.8275C53.8275 44.4428 53.9648 42.7516 53.4153 41.8815C52.8658 41.0114 52.3163 39.4087 52.3621 38.9507C51.1257 38.7218 46.8211 31.8986 46.4548 30.4333C46.0884 28.9679 44.2109 34.0509 44.2109 34.0509Z" fill="#684F35"/>
<path d="M21.9271 21.3398C23.7588 21.9809 25.8653 23.5378 29.1624 24.179C32.4594 24.8201 37.863 23.4005 41.7554 25.5069C45.6478 27.6134 46.6062 28.6427 47.22 29.323C48.1796 30.3865 49.4663 35.8079 49.4642 37.5788C49.4608 40.4233 48.9942 40.6186 48.2921 39.5501C47.5899 38.4816 47.22 35.4288 47.2506 33.2002C45.9684 35.3066 44.0145 36.0088 43.7398 36.9857C43.465 37.9626 43.2818 40.4049 44.0756 41.4124C42.8544 43.0609 40.4427 44.9537 40.4427 44.9537C38.672 44.9537 38.5194 44.9537 38.5194 44.9537C38.5194 43.4578 40.4122 43.8547 40.4122 43.8547C41.4807 42.9999 42.3049 41.6566 41.5417 40.008C40.7785 38.3595 39.2826 35.673 40.3206 34.055C38.1225 34.6655 33.1463 34.4518 32.3221 33.7802C32.4442 35.154 32.1389 35.8562 32.1389 35.8562C30.3988 36.0088 26.2774 39.8859 25.6974 40.8628C25.1784 43.4273 25.1784 43.4273 25.1784 43.4273C24.0183 44.0378 23.6214 44.2515 22.3392 44.0378C22.3087 42.6335 23.8046 42.3893 23.8046 42.3893C24.5678 40.5881 24.2015 39.3975 25.331 38.2374C26.4606 37.0773 28.8723 35.1845 28.1702 33.8413C27.468 32.498 27.1322 31.2463 26.6132 30.6663C26.0942 30.0862 23.4382 29.3841 21.637 26.8807C21.2416 26.2554 17.9395 26.5727 16.5097 26.7438C15.0295 26.9209 14.0988 25.1072 14.159 25.0342C14.2751 24.7659 16.0823 24.332 16.5097 23.6299C16.9371 22.9277 18.9825 21.9203 19.6236 21.7371C19.5015 20.0275 18.8421 19.4471 19.1962 19.1727C21.3047 18.7131 22.8674 19.5182 21.9271 21.3398Z" fill="#A57F54"/>
<path d="M26.3503 25.1853C26.479 24.8918 26.2483 24.5071 25.8351 24.326C25.4219 24.1448 24.9827 24.2358 24.854 24.5292C24.7254 24.8227 24.9561 25.2074 25.3693 25.3886C25.7824 25.5697 26.2217 25.4787 26.3503 25.1853Z" fill="#684F35"/>
<path d="M32.3047 26.0052C32.8192 25.9165 33.1982 25.6237 33.1512 25.3511C33.1042 25.0786 32.6491 24.9295 32.1346 25.0182C31.6202 25.1068 31.2412 25.3997 31.2882 25.6722C31.3352 25.9448 31.7903 26.0938 32.3047 26.0052Z" fill="#684F35"/>
<path d="M30.3821 26.1556C30.439 25.5319 29.8241 24.966 29.0087 24.8916C28.1932 24.8172 27.4861 25.2626 27.4292 25.8863C27.3723 26.51 27.9872 27.0759 28.8026 27.1503C29.6181 27.2247 30.3252 26.7794 30.3821 26.1556Z" fill="#684F35"/>
<path d="M42.7169 27.4949C42.8907 26.9817 42.4457 26.3673 41.723 26.1226C41.0003 25.8779 40.2736 26.0956 40.0998 26.6088C39.926 27.122 40.371 27.7364 41.0937 27.9811C41.8164 28.2258 42.5431 28.0081 42.7169 27.4949Z" fill="#684F35"/>
<path d="M45.4175 29.2673C45.5993 29.0589 45.4905 28.6663 45.1743 28.3904C44.8582 28.1145 44.4545 28.0598 44.2726 28.2682C44.0908 28.4766 44.1996 28.8692 44.5158 29.1451C44.8319 29.421 45.2356 29.4757 45.4175 29.2673Z" fill="#684F35"/>
<path d="M16.5097 26.7442C17.1892 26.6629 18.2906 26.5496 19.303 26.5191C17.6529 25.845 16.431 23.964 16.9765 23.1562C16.7715 23.3205 16.5996 23.4826 16.5097 23.6303C16.0823 24.3324 14.2752 24.7663 14.159 25.0346C14.0988 25.1076 15.0295 26.9213 16.5097 26.7442Z" fill="#5B5651"/>
<path d="M49.4001 36.736C48.865 37.2784 47.3986 34.9304 47.252 33.4424C47.2494 35.6455 47.6138 38.5188 48.2915 39.5501C48.9936 40.6186 49.4601 40.4234 49.4635 37.5789C49.4638 37.3555 49.4376 37.0595 49.4001 36.736Z" fill="#494542"/>
<path opacity="0.25" d="M42.117 30.6784C41.0751 31.0181 33.5928 31.9489 32.8351 30.6784C32.0774 29.408 30.5146 29.3442 28.2414 28.9654C25.9683 28.5865 23.2217 25.6505 21.0906 24.3244C18.9605 22.9991 15.7424 25.9791 14.5781 25.7665C14.9804 26.2765 15.6473 26.8464 16.5088 26.7434C17.9386 26.5723 21.2407 26.2549 21.6361 26.8803C23.4373 29.3837 26.0933 30.0858 26.6123 30.6658C27.1312 31.2459 27.467 32.4976 28.1692 33.8409C28.8714 35.1841 26.4596 37.0769 25.33 38.237C24.2005 39.3971 24.5668 40.5876 23.8036 42.3889C23.8036 42.3889 22.3077 42.6331 22.3382 44.0374C23.6204 44.2511 24.0173 44.0374 25.1774 43.4268C25.1774 43.4268 25.1774 43.4268 25.6964 40.8624C26.2764 39.8855 30.3978 36.0083 32.138 35.8557C32.138 35.8557 32.4432 35.1536 32.3211 33.7798C33.1454 34.4514 38.1215 34.6651 40.3196 34.0545C39.2816 35.6726 40.7776 38.3591 41.5408 40.0076C42.304 41.6562 41.4797 42.9995 40.4112 43.8542C40.4112 43.8542 38.5184 43.4573 38.5184 44.9533C38.5184 44.9533 38.6711 44.9533 40.4417 44.9533C40.4417 44.9533 42.8535 43.0605 44.0746 41.4119C43.2809 40.4045 43.4641 37.9622 43.7388 36.9853C44.0136 36.0083 45.9674 35.3062 47.2496 33.1997C47.2191 35.4283 47.589 38.4812 48.2911 39.5496C48.9933 40.6181 49.4598 40.4229 49.4632 37.5784C49.4647 36.3557 48.8517 33.394 48.1563 31.3267C47.2813 33.3083 41.9276 32.3277 42.117 30.6784Z" fill="black"/>
</g>
<defs>
<clipPath id="clip0_2883_12622">
<rect width="64" height="68" fill="white" transform="translate(2)"/>
</clipPath>
</defs>
</svg>
