<svg width="68" height="68" viewBox="0 0 68 68" fill="none" xmlns="http://www.w3.org/2000/svg">
<g clip-path="url(#clip0_2883_12588)">
<path opacity="0.4" d="M34 68C51.6731 68 66 53.6731 66 36C66 18.3269 51.6731 4 34 4C16.3269 4 2 18.3269 2 36C2 53.6731 16.3269 68 34 68Z" fill="black" fill-opacity="0.05"/>
<path d="M34 66C51.6731 66 66 51.6731 66 34C66 16.3269 51.6731 2 34 2C16.3269 2 2 16.3269 2 34C2 51.6731 16.3269 66 34 66Z" fill="black" fill-opacity="0.05"/>
<path d="M34 65C51.6731 65 66 50.6731 66 33C66 15.3269 51.6731 1 34 1C16.3269 1 2 15.3269 2 33C2 50.6731 16.3269 65 34 65Z" fill="black" fill-opacity="0.05"/>
<path d="M34 64C51.6731 64 66 49.6731 66 32C66 14.3269 51.6731 0 34 0C16.3269 0 2 14.3269 2 32C2 49.6731 16.3269 64 34 64Z" fill="white"/>
<path opacity="0.2" d="M35.9996 44.0996C44.5048 44.0996 51.3996 43.428 51.3996 42.5996C51.3996 41.7712 44.5048 41.0996 35.9996 41.0996C27.4944 41.0996 20.5996 41.7712 20.5996 42.5996C20.5996 43.428 27.4944 44.0996 35.9996 44.0996Z" fill="black"/>
<path opacity="0.19" d="M34 44.0996C45.598 44.0996 55 43.428 55 42.5996C55 41.7712 45.598 41.0996 34 41.0996C22.402 41.0996 13 41.7712 13 42.5996C13 43.428 22.402 44.0996 34 44.0996Z" fill="#020202"/>
<path d="M17.0994 22.7999C17.3994 20.9999 21.9994 21.5999 21.9994 21.5999C24.5994 21.5999 32.5994 24.7999 34.3994 26.0999C36.1994 27.3999 38.4994 27.1999 39.7994 28.6999C40.9994 30.1999 43.0994 31.9999 45.1994 32.9999C47.2994 33.9999 47.5994 34.4999 47.5994 34.4999C48.6994 36.3999 44.9994 41.7999 38.4994 42.2999C30.0994 42.8999 30.7994 37.1999 27.6994 34.4999C24.5994 31.7999 22.1994 29.6999 21.4994 28.6999C20.6994 27.6999 20.0994 26.7999 19.2994 26.3999C18.3994 25.8999 16.7994 23.8999 17.0994 22.7999Z" fill="#C8BA97"/>
<path d="M48.9997 34.1996C48.9997 34.1996 47.9997 33.3996 45.8997 32.3996C43.7997 31.3996 41.8997 29.3996 40.6997 27.8996C39.4997 26.3996 36.8997 26.8996 35.0997 25.5996C33.2997 24.2996 27.8997 21.3996 25.9997 21.2996C26.1997 19.4996 21.6997 19.0996 21.5997 21.2996C21.5997 21.2996 17.3997 20.9996 17.0997 22.7996C16.9997 23.2996 17.1997 23.9996 17.5997 24.5996C18.6997 25.3996 21.3997 25.5996 22.9997 26.3996C24.5997 27.1996 34.6997 28.4996 35.9997 31.2996C37.3997 34.0996 36.4997 37.5996 40.6997 38.8996C42.0997 39.2996 43.9997 39.3996 45.8997 39.2996C48.2997 37.4996 49.5997 35.2996 48.9997 34.1996Z" fill="#8A9411"/>
<path d="M37.299 42.1993C37.099 41.4993 33.499 41.6993 33.899 41.0993C33.899 41.0993 35.899 36.9993 35.699 36.1993C35.299 33.5993 31.799 31.3993 30.899 32.0993C29.299 33.3993 31.299 34.6993 31.399 35.4993C31.399 36.0993 30.399 39.1993 29.199 40.4993C28.199 40.6993 26.599 41.4993 25.799 41.3993C24.499 41.0993 24.199 41.7993 24.299 42.0993C24.999 42.1993 35.399 42.1993 37.299 42.1993Z" fill="#70780E"/>
<path opacity="0.19" d="M17.3613 22.244C19.1176 21.3295 24.7742 20.9343 29.8524 23.9713C35.2211 27.2236 35.0191 27.4217 37.3181 27.5441C39.6179 27.5664 40.377 31.7741 45.2535 34.2216C45.8505 34.5274 47.3456 35.0419 48.9406 35.5575C49.0426 35.3585 49.0445 35.1585 49.0464 34.9585C49.0474 34.8585 49.0474 34.8585 49.0484 34.7585C49.0494 34.6585 49.0494 34.6585 49.0504 34.5585C49.0513 34.4608 48.96 34.2691 48.9565 34.1669C48.7551 34.0134 47.7619 33.2868 45.899 32.3997C43.799 31.3997 41.899 29.3997 40.699 27.8997C39.499 26.3997 36.899 26.8997 35.099 25.5996C33.299 24.2996 27.899 21.3997 25.999 21.2996C26.199 19.4996 21.699 19.0996 21.599 21.2996C21.599 21.2996 18.3425 21.0687 17.3613 22.244Z" fill="black"/>
<path d="M29.4004 42.6996C29.4004 41.1996 31.5004 42.3996 35.7004 41.8996C36.6004 41.8996 37.4004 41.2996 38.4004 41.1996C37.0004 40.3996 36.5004 37.1996 39.1004 35.3996C41.6004 33.5996 49.0004 32.9996 50.3004 34.4996C51.5004 35.7996 51.4004 37.9996 49.7004 39.5996C48.0004 41.0996 47.7004 42.1996 46.6004 42.6996C45.6004 42.6996 29.4004 42.6996 29.4004 42.6996Z" fill="#8A9411"/>
<path opacity="0.19" d="M50.2994 34.4996C48.9995 32.9996 41.5994 33.5996 39.0994 35.3996C38.3386 35.9263 37.8495 36.5738 37.5645 37.2451C37.6452 38.2319 38.4384 39.0729 39.8102 38.8093C41.9399 38.4 50.0329 34.5121 48.7551 37.7861C47.9487 39.82 42.9446 42.0348 38.2576 42.6996C42.2241 42.6996 46.1247 42.6996 46.5995 42.6996C47.6995 42.1996 47.9995 41.0996 49.6995 39.5996C51.3995 37.9996 51.4995 35.7996 50.2994 34.4996Z" fill="black"/>
<path opacity="0.1" d="M44.7227 31.7177C43.6921 31.0352 42.7421 30.1733 41.9357 29.3178C43.8398 34.6793 40.2474 40.0775 33.1994 37.0994C28.2994 35.0994 22.4531 27.7844 19.4531 26.4844C19.6039 26.5598 19.7239 26.6566 19.833 26.7631C20.3904 27.2319 20.8871 27.934 21.4994 28.6995C22.1994 29.6995 24.5994 31.7994 27.6994 34.4995C28.9289 35.5703 29.5644 37.1111 30.4032 38.5456C30.0555 39.2977 29.6413 40.0208 29.1994 40.4995C28.1994 40.6995 26.5994 41.4995 25.7994 41.3995C24.4994 41.0994 24.1994 41.7994 24.2994 42.0994C24.6176 42.1449 26.9417 42.1696 29.5594 42.1832C29.4568 42.3025 29.3994 42.4651 29.3994 42.6995C29.3994 42.6995 45.5994 42.6995 46.5994 42.6995C47.6994 42.1995 47.9994 41.0994 49.6994 39.5994C51.3994 37.9995 51.4994 35.7994 50.2994 34.4995C49.9755 34.1257 49.2724 33.8827 48.3613 33.7557C47.8544 33.4266 47.0468 32.9459 45.8994 32.3995C45.5497 32.233 45.2085 32.0311 44.8722 31.816C44.822 31.7833 44.7725 31.7515 44.7227 31.7177Z" fill="black"/>
</g>
<defs>
<clipPath id="clip0_2883_12588">
<rect width="64" height="68" fill="white" transform="translate(2)"/>
</clipPath>
</defs>
</svg>
