<svg width="68" height="68" viewBox="0 0 68 68" fill="none" xmlns="http://www.w3.org/2000/svg">
<path opacity="0.4" d="M34 68C51.6731 68 66 53.6731 66 36C66 18.3269 51.6731 4 34 4C16.3269 4 2 18.3269 2 36C2 53.6731 16.3269 68 34 68Z" fill="black" fill-opacity="0.05"/>
<path d="M34 66C51.6731 66 66 51.6731 66 34C66 16.3269 51.6731 2 34 2C16.3269 2 2 16.3269 2 34C2 51.6731 16.3269 66 34 66Z" fill="black" fill-opacity="0.05"/>
<path d="M34 65C51.6731 65 66 50.6731 66 33C66 15.3269 51.6731 1 34 1C16.3269 1 2 15.3269 2 33C2 50.6731 16.3269 65 34 65Z" fill="black" fill-opacity="0.05"/>
<path d="M34 64C51.6731 64 66 49.6731 66 32C66 14.3269 51.6731 0 34 0C16.3269 0 2 14.3269 2 32C2 49.6731 16.3269 64 34 64Z" fill="white"/>
<path opacity="0.2" d="M34 53.2012C45.598 53.2012 55 52.5296 55 51.7012C55 50.8727 45.598 50.2012 34 50.2012C22.402 50.2012 13 50.8727 13 51.7012C13 52.5296 22.402 53.2012 34 53.2012Z" fill="black"/>
<path opacity="0.2" d="M37 53.2012C46.3888 53.2012 54 52.5296 54 51.7012C54 50.8727 46.3888 50.2012 37 50.2012C27.6112 50.2012 20 50.8727 20 51.7012C20 52.5296 27.6112 53.2012 37 53.2012Z" fill="black"/>
<path d="M47.9738 35.6208C46.9739 37.0718 50.5202 41.1211 50.5202 41.1211C50.1601 42.5711 48.9045 46.9861 49.2485 48.0757C48.757 48.8814 48.5903 51.3354 48.5903 51.3354C46.8429 51.3354 45.8371 51.314 45.8371 51.314C46.0022 50.5668 47.1764 48.3072 47.4245 46.9418C47.9859 43.8531 48.1623 43.2976 46.8079 41.9736C45.3103 40.5097 40.8298 39.2307 40.2266 34.6016L47.9738 35.6208Z" fill="#845F34"/>
<path d="M23.8512 33.5059C24.6532 35.2733 23.9952 40.1289 24.3251 42.6903C24.6787 45.4356 22.9219 50.0472 22.9219 51.3367C22.9219 51.3367 24.3348 51.3367 25.596 51.3367C25.596 51.3367 25.4509 48.8671 25.9677 48.0769C25.8367 45.5274 27.1702 39.7951 27.2728 37.8389C27.3755 35.8827 27.6687 35.7278 31.6227 36.1086L23.8512 33.5059Z" fill="#845F34"/>
<path d="M15.1995 23.6337C14.7148 23.098 15.1995 22.1286 15.7352 21.8225C16.2709 21.5164 18.5157 19.9349 18.7197 19.4502C18.9238 18.9655 19.3702 17.4605 21.2196 17.5626C23.069 17.6646 23.0435 18.1748 23.0435 18.1748C22.967 17.2054 24.8036 16.1596 25.4668 16.6953C26.1301 17.2309 25.3775 19.4247 24.6505 19.5012C23.9235 19.5778 23.9618 19.5012 23.9618 19.5012C24.4847 20.241 25.3095 24.501 26.2789 25.1642C27.2482 25.8274 28.7787 26.1506 30.4113 26.0825C32.0439 26.0145 34.5778 27.2559 35.428 27.2219C36.2783 27.1879 42.5365 26.1335 44.7133 26.5077C46.89 26.8818 49.4425 28.2477 49.9171 29.5687C50.9375 32.4087 49.702 34.5549 49.3729 36.2861C48.9818 38.3438 52.9978 41.9303 52.9978 41.9303C52.5897 44.0391 52.775 48.3515 53.1577 49.0147C52.5454 49.933 52.7741 51.9996 52.7741 51.9996C51.466 51.9996 49.9188 51.9996 49.9188 51.9996C50.1316 50.5456 50.6425 49.8128 50.7438 48.4028C50.9686 45.2716 50.8458 43.4796 49.5194 42.1276C48.1929 40.7757 43.8564 39.1431 42.1983 35.929C40.1576 37.434 37.5708 38.5309 33.6679 37.7911C29.7651 37.0514 30.0803 37.1789 29.7997 39.1176C29.5191 41.0562 29.4023 46.3466 30.4257 49.0147C29.839 49.7545 30.8156 51.9996 30.8156 51.9996C29.5401 51.9996 27.9395 51.9996 27.9395 51.9996C27.9395 50.6986 27.9282 46.9679 27.4896 44.2633C27.0762 41.714 27.5203 37.6125 25.8112 36.4391C24.1021 35.2657 22.2314 31.3033 21.6532 30.5551C21.075 29.8068 20.2588 26.6947 20.4118 24.1609C20.4798 23.5827 19.1704 24.0588 17.6909 23.9568C16.2113 23.8548 16.2454 24.501 15.1995 23.6337Z" fill="#C8964F"/>
<path opacity="0.2" d="M53.1579 49.0158C52.7753 48.3526 52.5899 44.0402 52.9981 41.9314C52.9981 41.9314 48.9821 38.3449 49.3732 36.2872C49.4282 35.9981 49.5119 35.6924 49.6027 35.3789C49.6033 35.377 49.6037 35.3752 49.6043 35.3733C49.6584 35.1864 49.7134 34.9946 49.7718 34.7982C49.8018 34.6976 49.8311 34.5929 49.8609 34.4898C49.8752 34.4398 49.8896 34.3913 49.9039 34.3408C49.9358 34.2278 49.9657 34.1113 49.9959 33.9951C50.0234 33.8897 50.0477 33.7808 50.0729 33.6728C50.0812 33.6366 50.0905 33.6015 50.0986 33.5651C50.1248 33.4477 50.1493 33.3291 50.1717 33.2085C50.1996 33.0586 50.2205 32.9041 50.2409 32.7491C50.2566 32.6289 50.2733 32.5095 50.2835 32.3862C50.2901 32.3063 50.289 32.2226 50.2913 32.1406C50.2959 32.0457 50.2996 31.9505 50.3003 31.8537C50.3011 31.742 50.308 31.6333 50.3029 31.5191C50.3004 31.4627 50.2875 31.4024 50.2835 31.3454C50.2675 31.1079 50.2488 30.8694 50.2024 30.6204C50.2021 30.6186 50.2021 30.6169 50.2018 30.6151C49.1188 33.1936 44.3378 33.2916 42.9109 30.9813C40.0001 32.4313 34.0809 31.5542 32.3673 29.0087C30.9009 26.8305 27.8097 30.097 24.7486 27.5802C21.6876 25.0633 22.5038 18.8732 21.5515 17.9208L21.2459 17.5662C21.2361 17.5655 21.2298 17.5643 21.2198 17.5637C20.9534 17.549 20.723 17.5748 20.5113 17.6189C20.4438 17.6329 20.3854 17.6557 20.3229 17.6747C20.1878 17.716 20.06 17.764 19.947 17.8246C19.8902 17.8552 19.8351 17.8868 19.7835 17.9212C19.6802 17.9902 19.5868 18.0654 19.5027 18.1462C19.4665 18.1809 19.4261 18.2133 19.3932 18.2495C19.286 18.3673 19.1902 18.4904 19.113 18.6141C19.0174 18.7674 18.9462 18.9171 18.8856 19.0543C18.8666 19.0974 18.8466 19.1413 18.8303 19.181C18.7892 19.2813 18.7485 19.3837 18.72 19.4513C18.6945 19.5119 18.6371 19.5896 18.5551 19.6799C18.3092 19.9505 17.8424 20.3338 17.3521 20.7045C16.8618 21.0751 16.3482 21.4333 16.0091 21.6537C15.8961 21.7272 15.8024 21.7854 15.7354 21.8237C15.6685 21.8619 15.6023 21.9106 15.5387 21.9674C15.4116 22.0811 15.2948 22.2277 15.2027 22.39C15.1107 22.5524 15.0433 22.7303 15.015 22.907C14.9963 23.0235 15.0029 23.1378 15.0223 23.2483C15.0272 23.276 15.0339 23.3031 15.0415 23.33C15.0725 23.4394 15.1182 23.5447 15.1997 23.6348C15.3176 23.7326 15.4182 23.8056 15.5125 23.8682C15.541 23.8872 15.5672 23.9021 15.594 23.9182C15.6598 23.9578 15.7215 23.99 15.7789 24.0143C15.8016 24.0239 15.825 24.035 15.8469 24.0425C15.9204 24.068 15.9904 24.0857 16.0575 24.0912C16.2077 24.1038 16.3512 24.0748 16.5284 24.0395C16.6171 24.0219 16.7142 24.0027 16.8248 23.9863C16.9354 23.97 17.0595 23.9564 17.2023 23.9503C17.345 23.944 17.5062 23.9451 17.6911 23.9579C18.061 23.9834 18.4202 23.9728 18.75 23.9515C19.0798 23.9303 19.38 23.8984 19.6319 23.8813C19.8838 23.8644 20.0874 23.8622 20.2237 23.9005C20.2918 23.9196 20.3431 23.9488 20.3754 23.9914C20.4076 24.0339 20.4206 24.0896 20.4121 24.1619C20.3929 24.4786 20.3889 24.8045 20.3977 25.1335C20.4096 25.5764 20.4513 26.0239 20.5037 26.4647C20.5165 26.5721 20.5299 26.6787 20.5447 26.7849C20.6042 27.213 20.6736 27.6361 20.7586 28.0287C20.8229 28.3258 20.893 28.6089 20.9663 28.8723C21.0323 29.109 21.1015 29.3236 21.1711 29.5245C21.192 29.5848 21.213 29.6392 21.2341 29.6957C21.2854 29.8337 21.3369 29.9598 21.3881 30.0732C21.409 30.1194 21.4299 30.1677 21.4506 30.2094C21.5197 30.3486 21.588 30.471 21.6528 30.555C21.653 30.5553 21.6533 30.5559 21.6535 30.5562C21.7619 30.6964 21.9158 30.9498 22.1055 31.2765C22.1687 31.3854 22.236 31.5025 22.3068 31.6262C22.3777 31.75 22.452 31.8804 22.5298 32.0161C22.6853 32.2875 22.854 32.5797 23.0328 32.8812C23.174 33.1191 23.3233 33.3633 23.4759 33.607C23.499 33.6438 23.5216 33.6807 23.5449 33.7175C23.6933 33.952 23.8467 34.1847 24.0027 34.4124C24.0321 34.4553 24.0615 34.4977 24.0912 34.5402C24.2493 34.7669 24.4104 34.9869 24.5733 35.1941C24.5974 35.2249 24.6218 35.2535 24.646 35.2836C24.8182 35.498 24.9917 35.7021 25.1658 35.8812C25.3817 36.1034 25.5979 36.2936 25.8115 36.4402C25.9186 36.5137 26.0131 36.5961 26.0977 36.6851C26.2629 36.8562 26.4003 37.0647 26.5194 37.2973C26.5272 37.3126 26.5366 37.3258 26.5442 37.3413C26.6552 37.5667 26.7456 37.8188 26.8229 38.0878C26.8313 38.1173 26.8409 38.1453 26.849 38.1752C26.9214 38.4422 26.9796 38.7272 27.0277 39.0243C27.034 39.063 27.0407 39.1012 27.0466 39.1403C27.0917 39.4377 27.1276 39.7453 27.1568 40.0605C27.161 40.106 27.1652 40.1513 27.1691 40.197C27.1966 40.5158 27.2193 40.8388 27.2386 41.1637C27.2425 41.2296 27.2464 41.2944 27.2501 41.3604C27.264 41.6028 27.2775 41.8447 27.291 42.0843C27.2919 42.1027 27.293 42.1215 27.294 42.1399C27.2977 42.2038 27.3018 42.266 27.3056 42.3295C27.3248 42.6547 27.3459 42.9744 27.3728 43.2817C27.3749 43.3052 27.3776 43.3273 27.3797 43.3506C27.4088 43.6699 27.4434 43.978 27.4898 44.2644C27.9284 46.9691 27.9398 50.6997 27.9398 52.0006C27.9398 52.0006 29.5404 52.0006 30.8159 52.0006C30.8159 52.0006 29.8393 49.7556 30.426 49.0158C29.4026 46.3477 29.5194 41.0573 29.8 39.1187C30.0805 37.18 29.7654 37.0524 33.6682 37.7922C37.5711 38.532 40.1579 37.4351 42.1986 35.9301C43.8567 39.1442 48.1932 40.7768 49.5197 42.1287C50.8461 43.4807 50.9689 45.2727 50.7441 48.4039C50.6428 49.8139 50.1318 50.5467 49.9191 52.0006C49.9191 52.0006 51.4663 52.0006 52.7744 52.0006C52.7744 52.0006 52.5457 49.9342 53.1579 49.0158Z" fill="black"/>
<path d="M20.5286 17.5637C20.7538 16.7079 21.5719 14.0511 23.0544 13.4285C24.5203 12.8127 26.4939 13.6902 28.0133 12.7178C30.304 11.2518 30.334 9.9338 30.5549 10.0026C30.7678 10.0689 29.7666 13.4249 26.8264 14.3127C25.2743 14.7815 24.339 13.9722 23.224 14.9707C22.674 15.4633 22.4084 16.2396 22.4084 16.2396C23.5393 14.9929 25.3015 14.8885 27.732 15.0193C32.2024 15.26 32.9924 10.7221 33.1501 10.7887C33.307 10.8551 32.9126 16.7743 26.5171 15.9293C25.0784 15.8184 22.9008 16.924 22.6092 17.9219C22.3176 18.9198 20.3533 18.4306 20.5286 17.5637Z" fill="#8D6751"/>
<path d="M42.1982 35.9245C43.0117 37.5015 44.47 38.6963 45.9013 39.6655C43.9463 37.921 42.7915 34.4783 42.6215 33.1865C41.3661 35.2311 36.0826 36.8249 32.69 36.1361C29.3278 35.4535 30.0206 37.2024 29.8262 38.9191C30.0619 37.1716 29.9032 37.0731 33.6679 37.7867C37.5707 38.5264 40.1575 37.4295 42.1982 35.9245Z" fill="#B7AB9C"/>
</svg>
