<svg width="68" height="68" viewBox="0 0 68 68" fill="none" xmlns="http://www.w3.org/2000/svg">
<path opacity="0.4" d="M34 68C51.6731 68 66 53.6731 66 36C66 18.3269 51.6731 4 34 4C16.3269 4 2 18.3269 2 36C2 53.6731 16.3269 68 34 68Z" fill="black" fill-opacity="0.05"/>
<path d="M34 66C51.6731 66 66 51.6731 66 34C66 16.3269 51.6731 2 34 2C16.3269 2 2 16.3269 2 34C2 51.6731 16.3269 66 34 66Z" fill="black" fill-opacity="0.05"/>
<path d="M34 65C51.6731 65 66 50.6731 66 33C66 15.3269 51.6731 1 34 1C16.3269 1 2 15.3269 2 33C2 50.6731 16.3269 65 34 65Z" fill="black" fill-opacity="0.05"/>
<path d="M34 64C51.6731 64 66 49.6731 66 32C66 14.3269 51.6731 0 34 0C16.3269 0 2 14.3269 2 32C2 49.6731 16.3269 64 34 64Z" fill="white"/>
<path opacity="0.2" d="M34 46.5C45.598 46.5 55 45.8284 55 45C55 44.1716 45.598 43.5 34 43.5C22.402 43.5 13 44.1716 13 45C13 45.8284 22.402 46.5 34 46.5Z" fill="black"/>
<path opacity="0.2" d="M35.493 46.5C44.5587 46.5 51.9079 45.8284 51.9079 45C51.9079 44.1716 44.5587 43.5 35.493 43.5C26.4273 43.5 19.0781 44.1716 19.0781 45C19.0781 45.8284 26.4273 46.5 35.493 46.5Z" fill="black"/>
<path d="M29.3462 39.2119C29.1359 40.3684 27.8743 43.1019 27.2435 43.1019C26.6127 42.9968 25.8768 42.6814 25.2459 42.9968C24.6151 43.3122 21.9868 44.6789 23.2484 44.6789C25.0357 44.6789 30.0822 44.6789 31.0284 44.6789C31.9746 44.6789 32.0797 43.7327 31.0284 43.6276C29.977 43.5225 29.6616 43.6276 29.6616 43.3122C29.6616 42.9968 30.5027 39.2119 30.5027 39.2119H29.3462Z" fill="#B88D0D"/>
<path d="M31.9732 40.2627C31.7629 41.4192 30.5013 44.1527 29.8705 44.1527C29.2397 44.0476 28.5037 43.7322 27.8729 44.0476C27.2421 44.363 24.6137 45.7297 25.8753 45.7297C27.6626 45.7297 32.7091 45.7297 33.6553 45.7297C34.6015 45.7297 34.7067 44.7835 33.6553 44.6784C32.604 44.5732 32.2886 44.6784 32.2886 44.363C32.2886 44.0476 33.1297 40.2627 33.1297 40.2627H31.9732Z" fill="#E3AD0F"/>
<path d="M26.041 34.9608C27.3608 35.5648 27.7267 38.2834 27.8573 38.9282C28.0944 40.0987 28.412 41.079 30.4505 40.3945C31.504 40.0408 31.0986 35.5878 30.3157 33.9102L26.041 34.9608Z" fill="#5E4431"/>
<path d="M15.4974 24.7372C14.4042 23.6719 15.2262 21.7174 16.862 21.7174C16.7781 20.4088 19.6637 19.7209 20.6703 20.1068C21.6769 20.4927 22.9184 21.275 24.1096 22.4777C25.3007 23.6803 25.1162 22.573 28.3373 24.3849C30.0844 25.3676 36.5257 29.2061 42.7319 32.3092C47.9686 34.9275 53.1744 36.9299 53.8717 37.1856C56.556 38.1699 54.1234 39.2156 50.0131 38.7879C49.1946 38.7027 44.314 37.3438 40.9175 36.474C39.7062 36.1638 39.9302 36.6823 37.7521 36.5482C35.5055 36.4098 34.55 35.7515 33.893 36.0481C33.4992 36.226 34.4106 39.8364 33.3704 41.4302C32.7493 42.3819 30.491 42.4536 30.491 40.692C30.491 40.0341 29.1762 36.1343 27.8564 35.5303C26.5366 34.9264 25.9327 35.8211 23.0023 31.9065C20.0719 27.9919 19.8147 24.6701 17.5498 23.8313C16.3279 24.1794 16.0538 23.9842 15.5952 23.9394C15.4946 24.0401 15.4436 24.3563 15.4974 24.7372Z" fill="#846243"/>
<path opacity="0.12" d="M53.8718 37.1831C53.2212 36.9446 48.647 35.1854 43.7846 32.8248C43.7845 32.8249 43.7847 32.8247 43.7846 32.8248C42.6259 34.4031 38.031 33.9309 31.3874 32.5217C24.7438 31.1124 23.9049 27.6229 21.791 24.6366C19.6771 21.6504 18.5531 20.2914 17.1947 20.9451C16.9755 21.1688 16.8434 21.4256 16.862 21.7148C15.2262 21.7148 14.4041 23.6693 15.4975 24.7346C15.4436 24.3537 15.4946 24.0375 15.5953 23.9368C16.0538 23.9816 16.3279 24.1769 17.5499 23.8287C19.8147 24.6675 20.072 27.9894 23.0023 31.904C25.9327 35.8186 26.5366 34.9238 27.8564 35.5277C29.1762 36.1318 30.491 40.0315 30.491 40.6895C30.491 42.451 32.7493 42.3794 33.3704 41.4277C34.4106 39.8338 33.4992 36.2234 33.893 36.0456C34.55 35.7489 35.5055 36.4072 37.7521 36.5457C39.9302 36.6798 39.7062 36.1612 40.9175 36.4715C44.314 37.3413 49.1946 38.7001 50.0131 38.7854C54.1234 39.2131 56.5561 38.1673 53.8718 37.1831Z" fill="black"/>
<path d="M24.7951 24.6476C22.9889 26.7997 22.953 30.757 28.9715 32.0897C32.3541 32.8387 36.2775 33.4346 41.1028 33.9222C44.8632 34.3022 48.4409 32.9657 47.4276 32.6891C40.6864 30.849 28.0416 20.7795 24.7951 24.6476Z" fill="#A57F60"/>
</svg>
