<svg width="68" height="68" viewBox="0 0 68 68" fill="none" xmlns="http://www.w3.org/2000/svg">
<g clip-path="url(#clip0_2883_12637)">
<path opacity="0.4" d="M34 68C51.6731 68 66 53.6731 66 36C66 18.3269 51.6731 4 34 4C16.3269 4 2 18.3269 2 36C2 53.6731 16.3269 68 34 68Z" fill="black" fill-opacity="0.05"/>
<path d="M34 66C51.6731 66 66 51.6731 66 34C66 16.3269 51.6731 2 34 2C16.3269 2 2 16.3269 2 34C2 51.6731 16.3269 66 34 66Z" fill="black" fill-opacity="0.05"/>
<path d="M34 65C51.6731 65 66 50.6731 66 33C66 15.3269 51.6731 1 34 1C16.3269 1 2 15.3269 2 33C2 50.6731 16.3269 65 34 65Z" fill="black" fill-opacity="0.05"/>
<path d="M34 64C51.6731 64 66 49.6731 66 32C66 14.3269 51.6731 0 34 0C16.3269 0 2 14.3269 2 32C2 49.6731 16.3269 64 34 64Z" fill="white"/>
<path opacity="0.19" d="M34 44.2676C45.598 44.2676 55 43.596 55 42.7676C55 41.9392 45.598 41.2676 34 41.2676C22.402 41.2676 13 41.9392 13 42.7676C13 43.596 22.402 44.2676 34 44.2676Z" fill="#020202"/>
<path opacity="0.2" d="M37.2015 44.2676C46.6541 44.2676 54.317 43.596 54.317 42.7676C54.317 41.9392 46.6541 41.2676 37.2015 41.2676C27.7488 41.2676 20.0859 41.9392 20.0859 42.7676C20.0859 43.596 27.7488 44.2676 37.2015 44.2676Z" fill="black"/>
<path d="M46.6595 35.5487C45.5531 37.2759 45.2012 40.5193 45.2224 41.3249C42.9964 42.7665 43.1448 42.7665 41.7245 42.7665C40.3041 42.7665 38.9473 42.7665 38.9473 42.7665C38.9473 41.5793 40.3253 41.5369 41.3853 41.4945C42.4452 41.4521 43.3144 40.4133 43.06 39.4593C42.8056 38.5053 41.2581 39.2685 40.4525 37.085C39.6469 34.9014 46.6595 35.5487 46.6595 35.5487Z" fill="#4C2D14"/>
<path d="M30.0072 36.3857C31.5619 37.3468 33.3709 40.2017 33.7667 41.0497C33.2013 41.9542 33.1165 42.7669 33.1165 42.7669H29.6963C29.6963 41.502 31.4771 41.3889 31.9294 41.4454C32.7773 40.6257 28.1134 39.2407 27.3784 38.2513C26.6435 37.262 30.0072 36.3857 30.0072 36.3857Z" fill="#4C2D14"/>
<path d="M18.6591 29.4747C20.6848 30.0598 20.3975 30.5488 21.7119 33.1776C23.0263 35.8064 24.8636 36.7957 25.3865 37.3752C25.9095 37.9546 26.5031 40.2583 25.7681 41.8271C24.4961 41.7847 23.0404 42.237 23.0404 43.1274C23.0404 43.1274 23.0404 43.1274 26.8988 43.1274C26.8988 43.1274 28.0719 42.449 28.2697 41.5162C28.2697 41.5162 28.1425 39.4951 29.2166 38.1101C29.2166 38.1101 33.4849 38.5906 37.8379 38.5341C42.191 38.4775 43.6326 36.8098 45.159 36.6402C46.6853 36.4706 50.3515 40.3078 50.1395 42.025C50.1395 42.025 47.1467 42.025 47.1467 43.1274C47.1467 43.1274 51.8337 43.1274 52.9149 43.1274C52.4697 42.4914 52.2977 39.3984 52.2341 37.8508C52.2341 37.8508 51.0633 37.2498 50.9149 35.8082C50.7665 34.3666 50.2893 33.1634 48.9325 30.4075C49.6392 30.9304 50.6568 32.5981 52.1973 33.1776C53.7378 33.757 54.2325 32.3578 53.54 32.0752C52.8475 31.7925 52.1973 30.7043 50.9677 29.4747C49.7381 28.2451 46.7701 27.1427 43.9718 26.7611C41.1734 26.3795 36.7638 26.8459 34.9406 27.0579C33.1174 27.2699 32.1846 27.0155 29.7254 26.3795C27.2663 25.7435 23.8909 22.3243 21.855 22.3712C21.8619 21.8607 21.8451 21.183 20.8275 20.8721C19.5131 21.5929 19.7463 22.6635 19.7463 22.6635C18.3047 22.9391 16.3755 24.8046 16.6582 25.3982C17.0925 26.3103 15.526 27.3265 14.2838 28.2532C13.6947 28.6926 15.6443 30.4318 17.0011 29.8947C18.3579 29.3577 18.3717 29.3917 18.6591 29.4747Z" fill="#9F6329"/>
<path opacity="0.19" d="M50.1401 42.0253C50.1401 42.0253 47.1473 42.0253 47.1473 43.1277C47.1473 43.1277 51.8343 43.1277 52.9155 43.1277C52.4703 42.4917 52.2983 39.3987 52.2346 37.8511C52.2346 37.8511 51.0639 37.2501 50.9155 35.8085C50.7671 34.3669 50.2899 33.1637 48.9331 30.4077C49.6398 30.9307 50.6573 32.5984 52.1979 33.1779C53.7384 33.7574 54.2331 32.3581 53.5405 32.0755C52.848 31.7928 52.1979 30.7046 50.9683 29.4749C50.8329 29.3396 50.6686 29.2066 50.4936 29.075C50.4456 29.039 50.3969 29.0032 50.3461 28.9676C50.1789 28.85 49.9997 28.7342 49.8053 28.6213C49.7368 28.5817 49.6631 28.5434 49.5915 28.5045C49.4419 28.4228 49.2855 28.3429 49.1236 28.2646C49.0083 28.2091 48.892 28.154 48.7712 28.1004C48.6598 28.0507 48.543 28.0035 48.4274 27.9555C48.1667 27.8481 47.8977 27.7447 47.6188 27.6471C47.551 27.6233 47.4837 27.5993 47.415 27.5761C47.2237 27.5118 47.0301 27.449 46.8329 27.3899C49.0346 29.6042 44.191 32.1479 42.4671 30.4641C42.4671 30.4641 38.49 31.1277 34.4048 31.4506C30.3197 31.7735 29.1274 29.5334 26.5751 29.3436C25.0578 29.2307 24.1167 28.1051 23.3639 27.147C22.3511 25.8578 21.8413 24.3553 21.2772 24.0639C20.0006 23.4043 20.4048 25.2128 16.7543 24.8998C16.7063 24.9949 16.6717 25.0844 16.6524 25.166C16.6364 25.2531 16.6291 25.3362 16.6587 25.3985C17.0931 26.3106 15.5265 27.3268 14.2843 28.2535C14.2464 28.2817 14.2198 28.3156 14.2021 28.3537C14.1968 28.365 14.1976 28.379 14.194 28.3911C14.1855 28.4198 14.177 28.4485 14.1778 28.481C14.178 28.4947 14.1833 28.5103 14.1851 28.5246C14.1896 28.5589 14.1945 28.5935 14.2075 28.6308C14.2118 28.6432 14.2193 28.6565 14.2245 28.6692C14.2419 28.7112 14.2612 28.7538 14.2879 28.7983C14.2928 28.8064 14.2994 28.815 14.3045 28.8233C14.3366 28.8739 14.3725 28.9253 14.4151 28.9774C14.4176 28.9804 14.4204 28.9834 14.4229 28.9864C14.5693 29.1631 14.7719 29.3443 15.0087 29.5036C15.0133 29.5067 15.0179 29.5097 15.0226 29.5128C15.0238 29.5136 15.0252 29.5145 15.0265 29.5154C15.0992 29.5636 15.1743 29.609 15.2525 29.6523C15.2568 29.6546 15.261 29.657 15.2653 29.6593C15.2751 29.6646 15.2847 29.67 15.2945 29.6752C15.3649 29.7127 15.4364 29.747 15.5099 29.7793C15.5321 29.7892 15.5541 29.799 15.5766 29.8083C15.6431 29.8356 15.7104 29.8593 15.7785 29.8813C15.8003 29.8883 15.822 29.8957 15.8439 29.9021C15.8512 29.9044 15.8584 29.907 15.8659 29.9091C15.9292 29.9271 15.9928 29.9406 16.0568 29.9533C16.0905 29.9599 16.1239 29.9679 16.1576 29.973C16.2189 29.9821 16.2797 29.9856 16.3408 29.989C16.362 29.9903 16.3832 29.9914 16.4043 29.9928C16.4186 29.9931 16.4329 29.9953 16.4471 29.9953C16.5105 29.9951 16.5728 29.9877 16.6352 29.9804C16.6667 29.9767 16.6987 29.9766 16.7299 29.971C16.8224 29.9543 16.9133 29.93 17.0016 29.895C18.3584 29.3579 18.3723 29.3919 18.6597 29.4749C20.6853 30.0601 20.3981 30.5491 21.7124 33.1779C23.0268 35.8067 24.8642 36.796 25.3871 37.3755C25.91 37.9549 26.5036 40.2586 25.7687 41.8274C24.4967 41.785 23.0409 42.2373 23.0409 43.1277C23.0409 43.1277 23.0409 43.1277 26.8993 43.1277C26.8993 43.1277 28.0724 42.4493 28.2702 41.5165C28.2702 41.5165 28.1431 39.4955 29.2172 38.1104C29.2172 38.1104 33.4855 38.5909 37.8385 38.5344C42.1915 38.4778 43.6331 36.8101 45.1595 36.6405C45.2629 36.6291 45.3651 36.6358 45.4663 36.6541C47.125 36.9381 50.3389 40.4143 50.1401 42.0253Z" fill="black"/>
<path opacity="0.19" d="M50.1402 42.0255C50.1402 42.0255 47.1474 42.0255 47.1474 43.1278C47.1474 43.1278 51.8344 43.1278 52.9156 43.1278C52.4704 42.4918 52.2984 39.3988 52.2347 37.8513C52.2347 37.8513 51.4564 37.4388 51.0907 36.5008C51.0741 36.4666 51.0622 36.4293 51.0479 36.3931C51.0209 36.3133 51.0014 36.2271 50.9813 36.14C50.9694 36.0837 50.9445 36.0375 50.9383 35.9769C49.2045 36.9171 45.5539 34.8725 44.5327 33.329C42.405 35.9557 34.2029 37.5108 31.5858 36.3863C30.1022 35.7488 29.8199 32.9577 26.5433 32.7874C25.4956 32.733 23.0468 31.1376 21.7698 29.5122C21.2242 28.8178 20.7347 25.8778 18.9794 26.8831C17.4321 27.7694 16.0859 29.3938 14.7832 29.3376C14.8539 29.3949 14.9297 29.4504 15.0089 29.5037C15.0134 29.5069 15.0181 29.5099 15.0227 29.513L15.0267 29.5156C15.0991 29.5637 15.1748 29.6092 15.2526 29.6524C15.2569 29.6548 15.2612 29.6571 15.2654 29.6594C15.2752 29.6648 15.2849 29.6702 15.2947 29.6754C15.3647 29.7128 15.4368 29.7472 15.51 29.7795C15.5322 29.7892 15.5543 29.7993 15.5767 29.8084C15.643 29.8358 15.7107 29.8594 15.7787 29.8814C15.8004 29.8884 15.8221 29.8958 15.844 29.9022C15.8514 29.9046 15.8586 29.9072 15.866 29.9093C15.9293 29.9274 15.993 29.9408 16.0569 29.9534C16.0905 29.96 16.1241 29.9681 16.1578 29.9732C16.2189 29.9824 16.2799 29.9858 16.3409 29.9892C16.3621 29.9904 16.3833 29.9915 16.4045 29.9929C16.4187 29.9932 16.433 29.9954 16.4473 29.9954C16.5106 29.9953 16.5729 29.9878 16.6353 29.9805C16.6668 29.9768 16.6989 29.9768 16.73 29.9711C16.8224 29.9545 16.9135 29.9301 17.0018 29.8952C18.3585 29.3581 18.3724 29.3921 18.6598 29.4751C20.6855 30.0603 20.3982 30.5493 21.7126 33.1781C23.027 35.8068 24.8643 36.7962 25.3872 37.3756C25.9102 37.9551 26.5037 40.2588 25.7688 41.8276C24.4968 41.7852 23.0411 42.2374 23.0411 43.1278C23.0411 43.1278 23.0411 43.1278 26.8995 43.1278C26.8995 43.1278 28.0726 42.4494 28.2704 41.5167C28.2704 41.5167 28.1432 39.4956 29.2173 38.1106C29.2173 38.1106 33.4856 38.5911 37.8386 38.5346C42.1917 38.478 43.6332 36.8103 45.1597 36.6407C45.3522 36.6193 45.561 36.6568 45.7784 36.7411C47.4959 37.3477 50.3273 40.51 50.1402 42.0255Z" fill="black"/>
<path opacity="0.19" d="M48.9329 30.4079C49.6396 30.9308 50.6572 32.5986 52.1977 33.178C53.7382 33.7575 54.2329 32.3583 53.5403 32.0756C52.8478 31.793 52.1977 30.7047 50.9681 29.4751C50.2671 28.774 48.9933 28.1197 47.5156 27.6113C49.0014 28.2744 49.9903 30.8453 48.9329 30.4079Z" fill="black"/>
</g>
<defs>
<clipPath id="clip0_2883_12637">
<rect width="64" height="68" fill="white" transform="translate(2)"/>
</clipPath>
</defs>
</svg>
