<svg width="68" height="68" viewBox="0 0 68 68" fill="none" xmlns="http://www.w3.org/2000/svg">
<path opacity="0.4" d="M34 68C51.6731 68 66 53.6731 66 36C66 18.3269 51.6731 4 34 4C16.3269 4 2 18.3269 2 36C2 53.6731 16.3269 68 34 68Z" fill="black" fill-opacity="0.05"/>
<path d="M34 66C51.6731 66 66 51.6731 66 34C66 16.3269 51.6731 2 34 2C16.3269 2 2 16.3269 2 34C2 51.6731 16.3269 66 34 66Z" fill="black" fill-opacity="0.05"/>
<path d="M34 65C51.6731 65 66 50.6731 66 33C66 15.3269 51.6731 1 34 1C16.3269 1 2 15.3269 2 33C2 50.6731 16.3269 65 34 65Z" fill="black" fill-opacity="0.05"/>
<path d="M34 64C51.6731 64 66 49.6731 66 32C66 14.3269 51.6731 0 34 0C16.3269 0 2 14.3269 2 32C2 49.6731 16.3269 64 34 64Z" fill="white"/>
<path opacity="0.19" d="M34 48C45.598 48 55 47.3284 55 46.5C55 45.6716 45.598 45 34 45C22.402 45 13 45.6716 13 46.5C13 47.3284 22.402 48 34 48Z" fill="#020202"/>
<path opacity="0.2" d="M34.7441 48C44.6853 48 52.7441 47.3284 52.7441 46.5C52.7441 45.6716 44.6853 45 34.7441 45C24.803 45 16.7441 45.6716 16.7441 46.5C16.7441 47.3284 24.803 48 34.7441 48Z" fill="black"/>
<path d="M46.5869 29.8623C47.6181 32.1379 46.3381 34.3779 47.9025 36.2624C49.467 38.1468 50.6403 38.5379 51.1381 38.8224C51.7781 40.5291 51.8137 45.6169 51.387 46.2374C50.6403 46.2891 48.7559 46.2374 48.7559 46.2374C48.7559 45.5246 49.8581 45.1335 50.2848 45.1513C50.4803 43.5335 49.7692 41.2402 48.827 40.7068C47.8847 40.1735 44.5802 38.7475 42.9247 37.6846C41.2692 36.6217 40.2402 34.0757 40.2402 34.0757L46.5869 29.8623Z" fill="#785137"/>
<path d="M21.7344 31.0254C22.4051 31.3914 23.657 34.3809 23.9253 35.113C24.1936 35.8451 24.8867 44.3254 24.0148 45.0372C23.59 44.9355 23.061 45.139 22.7404 46.237C22.7404 46.237 22.964 46.237 25.535 46.237C25.535 46.237 25.7139 44.6508 26.3622 43.3492C26.2057 42.007 27.9495 35.3977 27.3235 32.1236L21.7344 31.0254Z" fill="#785137"/>
<path d="M14.0207 20.7633C14.1545 20.2623 14.7361 20.099 14.9299 19.6245C15.1236 19.15 15.1087 18.8653 15.7645 18.4585C16.4203 18.0518 17.1506 18.2281 17.5978 17.7671C18.0449 17.3061 18.3281 15.9097 19.2373 16.0046C20.1464 16.0995 20.6383 17.2609 20.5787 18.3817C20.519 19.5025 22.512 23.5263 23.6767 24.1021C24.9893 24.751 24.9567 25.4176 26.9005 25.5836C28.3215 25.7049 33.8169 25.7769 36.1654 25.5826C38.7432 25.3692 43.6709 24.3154 47.0843 28.5466C49.4206 31.4425 48.8633 33.1561 51.2088 33.5066C52.7555 33.7377 53.8357 33.4144 53.993 34.3244C54.179 35.401 50.6294 36.3614 48.9154 34.9288C47.7243 33.9333 46.6582 31.8975 46.5687 30.6977C45.6976 34.8992 38.4976 34.9822 40.8531 41.9955C40.7637 44.0699 37.3509 46.8134 36.6398 47.2489C35.8126 47.2489 34.2487 47.2489 34.2487 47.2489C34.2487 46.6592 34.8353 45.9245 35.8368 46.2534C37.022 45.0682 38.6657 42.8711 37.8832 41.5492C37.1007 40.2274 35.7183 37.317 35.7389 34.4539C32.8773 34.9623 25.8106 35.5016 24.5139 33.956C25.1399 37.2302 24.5726 43.0189 24.7291 44.3612C24.0808 45.6627 23.9019 47.2489 23.9019 47.2489C21.3309 47.2489 21.1073 47.2489 21.1073 47.2489C20.4143 46.6185 21.9569 45.9474 22.3817 46.0491C23.2536 45.3373 21.9302 36.7928 21.6619 36.0607C21.3936 35.3286 19.8689 32.6253 19.4709 31.9731C18.7542 30.7984 17.8219 28.191 17.6016 26.2042C17.4231 24.594 17.4663 22.0517 16.7789 22.3361C16.3023 22.5333 14.8174 22.8398 14.4604 22.0513C14.1617 21.3915 13.9276 21.112 14.0207 20.7633Z" fill="#CB8C59"/>
<path opacity="0.19" d="M14.0273 21.0807C14.0849 21.3222 14.2531 21.5939 14.4601 22.051C14.8171 22.8395 16.302 22.533 16.7786 22.3358C17.4659 22.0514 17.4228 24.5937 17.6013 26.2039C17.8215 28.1907 18.7539 30.7981 19.4706 31.9727C19.8686 32.625 21.3932 35.3282 21.6616 36.0604C21.9298 36.7925 23.2532 45.337 22.3813 46.0488C21.9565 45.9471 20.4139 46.6182 21.107 47.2486C21.107 47.2486 21.3306 47.2486 23.9016 47.2486C23.9016 47.2486 24.0804 45.6624 24.7288 44.3608C24.5723 43.0186 25.1395 37.2299 24.5136 33.9557C25.8103 35.5013 32.8769 34.962 35.7386 34.4536C35.718 37.3167 37.1004 40.227 37.8829 41.5489C38.6653 42.8708 37.0217 45.0678 35.8365 46.253C34.835 45.9241 34.2483 46.6588 34.2483 47.2486C34.2483 47.2486 35.8123 47.2486 36.6395 47.2486C37.3506 46.8131 40.7634 44.0695 40.8528 41.9952C38.4972 34.9818 45.6973 34.8989 46.5684 30.6973C46.6578 31.8972 47.724 33.933 48.9151 34.9285C50.6291 36.3611 54.1787 35.4006 53.9926 34.324C53.8353 33.4141 52.7551 33.7374 51.2084 33.5063C48.863 33.1558 49.4202 31.4422 47.084 28.5462C46.7552 28.1386 46.409 27.7938 46.0555 27.4789C45.2423 30.9408 37.9691 31.8856 37.3299 29.4707C32.4942 30.964 24.903 28.6529 23.8009 27.1062C22.6986 25.5595 20.3341 27.0351 19.9786 23.0707C19.6231 19.1062 17.3652 19.2395 16.5297 19.4084C15.6995 19.5762 14.5063 22.0718 14.0273 21.0807Z" fill="#191000"/>
<path opacity="0.19" d="M40.7499 37.5904C40.7465 37.582 40.7447 37.5763 40.7413 37.5678C39.2326 38.52 37.206 36.4755 36.0149 32.4932C34.5927 33.951 25.7037 33.9155 25.2415 32.4932C24.7792 31.071 23.0725 30.6799 20.7258 29.6488C18.3792 28.6177 18.2547 21.7821 18.1303 20.8398C17.2147 21.5776 15.3925 22.4073 14.5352 22.1519C14.9217 22.7156 15.9996 22.5778 16.5677 22.4092C16.6495 22.3847 16.7224 22.3597 16.7792 22.3361C17.4666 22.0517 17.4234 24.594 17.6019 26.2042C17.8221 28.191 18.7545 30.7984 19.4712 31.973C19.8692 32.6253 21.3939 35.3285 21.6622 36.0607C21.9304 36.7928 23.2538 45.3373 22.3819 46.0491C21.9572 45.9474 20.4146 46.6185 21.1076 47.2489C21.1076 47.2489 21.3312 47.2489 23.9022 47.2489C23.9022 47.2489 24.081 45.6627 24.7294 44.3612C24.5729 43.0189 25.1402 37.2302 24.5142 33.956C25.8109 35.5016 32.8775 34.9623 35.7392 34.454C35.7186 37.317 37.101 40.2273 37.8835 41.5492C38.666 42.8711 37.0223 45.0681 35.8371 46.2533C34.8356 45.9244 34.2489 46.6592 34.2489 47.2489C34.2489 47.2489 35.8129 47.2489 36.6401 47.2489C37.3512 46.8134 40.764 44.0699 40.8535 41.9956C40.2111 40.083 40.2931 38.6963 40.7499 37.5904Z" fill="#191000"/>
</svg>
