<svg width="68" height="68" viewBox="0 0 68 68" fill="none" xmlns="http://www.w3.org/2000/svg">
<path opacity="0.4" d="M34 68C51.6731 68 66 53.6731 66 36C66 18.3269 51.6731 4 34 4C16.3269 4 2 18.3269 2 36C2 53.6731 16.3269 68 34 68Z" fill="black" fill-opacity="0.05"/>
<path d="M34 66C51.6731 66 66 51.6731 66 34C66 16.3269 51.6731 2 34 2C16.3269 2 2 16.3269 2 34C2 51.6731 16.3269 66 34 66Z" fill="black" fill-opacity="0.05"/>
<path d="M34 65C51.6731 65 66 50.6731 66 33C66 15.3269 51.6731 1 34 1C16.3269 1 2 15.3269 2 33C2 50.6731 16.3269 65 34 65Z" fill="black" fill-opacity="0.05"/>
<path d="M34 64C51.6731 64 66 49.6731 66 32C66 14.3269 51.6731 0 34 0C16.3269 0 2 14.3269 2 32C2 49.6731 16.3269 64 34 64Z" fill="white"/>
<path opacity="0.19" d="M34 43.1963C45.598 43.1963 55 42.5247 55 41.6963C55 40.8679 45.598 40.1963 34 40.1963C22.402 40.1963 13 40.8679 13 41.6963C13 42.5247 22.402 43.1963 34 43.1963Z" fill="#020202"/>
<path opacity="0.2" d="M34.6055 43.1963C45.375 43.1963 54.1055 42.5247 54.1055 41.6963C54.1055 40.8679 45.375 40.1963 34.6055 40.1963C23.8359 40.1963 15.1055 40.8679 15.1055 41.6963C15.1055 42.5247 23.8359 43.1963 34.6055 43.1963Z" fill="black"/>
<path d="M28.9016 32.5631C29.6717 33.4779 30.7742 38.0838 30.7741 38.9695C30.774 39.4729 30.5673 40.3422 29.7222 41.0318C27.2494 41.0318 27.1663 41.0318 27.1663 41.0318C27.1663 40.0876 28.3451 39.7925 28.7433 39.6745C29.1414 39.5565 29.5171 38.5473 29.0105 37.8745C28.6953 37.456 25.8712 32.8486 26.1144 32.7205L26.9108 31.3828L28.9016 32.5631Z" fill="#735135"/>
<path d="M47.7459 25.8516C48.3746 27.0177 48.8241 30.753 49.1699 32.3857C49.5156 34.0183 51.1756 34.7676 51.8986 35.1008C52.0243 37.3165 51.6575 39.3859 50.0611 41.0316C48.7679 41.0316 47.6236 41.0316 47.6236 41.0316C47.6236 40.182 48.488 39.299 49.4467 39.1657C50.4055 39.0325 50.4212 36.5168 49.4153 35.8838C48.4094 35.2507 46.0642 35.5142 44.4925 33.565C42.9208 31.6158 47.7459 25.8516 47.7459 25.8516Z" fill="#735135"/>
<path d="M52.771 30.323C50.9479 25.0736 47.394 24.3806 44.5351 23.6043C42.2017 22.9707 36.4463 22.9758 34.6926 23.1696C31.4481 23.5282 28.4823 24.1683 27.4156 23.6726C25.6893 22.1941 24.2704 21.8863 23.5268 21.3965C22.4488 20.6865 21.876 19.493 20.8294 19.144C20.8294 19.144 20.7629 18.4962 20.4805 18.2968C20.1981 18.0974 19.517 18.2137 19.1183 18.8118C18.9189 18.7786 18.1713 18.845 17.0416 19.3268C15.9119 19.8086 15.2474 20.6393 14.965 21.3204C14.6826 22.0015 14.0513 22.1178 14.0015 22.666C13.9516 23.2143 15.181 24.8755 15.779 24.942C16.3771 25.0085 17.134 24.329 17.797 24.2846C19.4513 24.1738 20.2276 28.642 20.4013 29.1571C21.2793 31.7617 22.1205 30.8904 22.732 32.7674C23.0758 33.8225 21.7037 40.6105 20.7496 40.6105C19.571 40.6105 18.4105 41.208 18.4105 42.2348C18.7516 42.2348 20.7521 42.2348 21.6663 42.2348C24.846 39.3852 26.4934 33.2628 27.0908 32.8093C28.2969 32.8848 36.5145 33.447 39.8573 32.3882C41.7433 35.9913 45.2464 36.094 45.8149 36.8532C46.1594 37.3133 46.596 38.8805 45.6074 40.3632C45.4712 40.5675 43.1225 40.5688 43.1225 42.2348C43.6359 42.2348 44.7083 42.2348 45.6122 42.2348C46.9592 41.4337 48.1897 39.048 48.9938 36.2932C44.4359 32.8484 48.1061 31.6382 47.8096 26.6189C51.431 30.368 52.1995 36.3192 51.2744 40.051C50.7043 42.351 46.3184 43.1263 47.1962 45.1396C48.1922 47.4242 53.5278 43.3086 53.931 39.0007C54.2541 35.5473 53.3708 32.0497 52.771 30.323Z" fill="#CD9861"/>
<path d="M25.9339 28.7931C25.0144 29.0912 24.9141 30.3549 25.2009 30.5591C25.4877 30.7632 26.2108 30.5822 26.8161 30.1547C27.4214 29.7271 27.6795 29.215 27.3928 29.0109C27.1777 28.8576 26.4477 28.6267 25.9339 28.7931Z" fill="#564038"/>
<path d="M42.0436 27.4159C41.182 27.9853 40.4001 29.4851 40.9223 30.3084C41.4446 31.1317 43.0537 31.0148 43.2666 30.6965C43.7273 30.0068 42.9051 26.8466 42.0436 27.4159Z" fill="#564038"/>
<path d="M44.6732 29.2405C44.5374 29.8417 45.9501 31.8145 46.3959 31.19C46.8418 30.5653 46.9843 29.3167 46.4027 28.8848C45.8209 28.453 44.736 28.963 44.6732 29.2405Z" fill="#564038"/>
<path d="M35.5122 29.2174C34.856 29.3627 34.5541 30.4328 34.7105 30.6456C35.0492 31.106 37.2902 31.3149 37.1234 30.623C36.9567 29.931 36.1683 29.0723 35.5122 29.2174Z" fill="#564038"/>
<path d="M29.4252 28.7019C28.9601 28.8049 28.746 29.5636 28.8569 29.7144C29.097 30.0409 30.6857 30.189 30.5675 29.6985C30.4493 29.2078 29.8904 28.599 29.4252 28.7019Z" fill="#564038"/>
<path d="M22.5207 28.0124C22.818 28.4201 23.5677 28.7678 23.9579 28.4944C24.3478 28.2208 24.2545 27.4381 24.0942 27.3414C23.7472 27.132 22.2233 27.6047 22.5207 28.0124Z" fill="#564038"/>
<path d="M38.2258 23.8895C36.7187 23.8196 36.1457 28.0568 37.6646 28.5165C39.1834 28.9763 40.0165 27.9994 40.7735 27.1848C41.5186 26.3829 39.1517 23.9324 38.2258 23.8895ZM39.7566 26.6756C39.2911 27.1333 39.0278 27.4968 38.3316 27.286C37.6355 27.0753 37.8981 25.1332 38.5889 25.1652C39.0133 25.1848 40.1144 26.3239 39.7566 26.6756Z" fill="#564038"/>
<path d="M31.0602 26.4462C31.6122 30.9057 34.705 29.0482 35.0056 27.1549C35.3063 25.2617 30.7491 23.9355 31.0602 26.4462ZM32.0818 26.8523C31.9523 25.8068 33.8499 26.3591 33.7248 27.1474C33.5996 27.9358 32.3117 28.7093 32.0818 26.8523Z" fill="#564038"/>
<path d="M20.9278 23.2396C20.7016 24.4514 22.7068 26.7661 23.5599 26.2574C24.4129 25.7489 24.3387 24.2803 24.7874 23.6106C25.026 23.2544 25.1679 22.6502 25.131 22.1782C24.6238 21.93 24.1864 21.7531 23.8408 21.5762C22.3153 21.6033 21.1213 22.2034 20.9278 23.2396ZM23.9169 22.6739C24.2974 22.5991 23.8523 23.3604 23.6561 23.653C23.4601 23.9457 23.8669 24.5201 23.4943 24.7424C23.1215 24.9647 22.2453 23.9532 22.3441 23.4237C22.443 22.8942 23.3772 22.7799 23.9169 22.6739Z" fill="#564038"/>
<path d="M46.415 25.0198C46.0969 24.2666 44.0659 24.0494 43.6484 23.956C42.2253 23.6372 41.4386 24.7897 43.5746 26.769C45.7107 28.7484 46.7328 25.7731 46.415 25.0198ZM44.0275 26.1393C43.1156 25.2944 43.4515 24.8023 44.059 24.9385C44.2372 24.9783 45.1043 25.071 45.24 25.3926C45.3757 25.7141 44.9394 26.9843 44.0275 26.1393Z" fill="#564038"/>
<path d="M30.0638 26.8302C29.8209 25.8157 27.7697 23.8402 26.4675 24.1412C24.2222 24.6599 24.5145 26.8442 26.7915 27.7454C29.0686 28.6467 30.3066 27.8446 30.0638 26.8302ZM27.2163 26.8249C26.2259 26.433 26.0986 25.4828 27.0754 25.2572C27.6418 25.1261 28.5341 25.9855 28.6397 26.4269C28.7453 26.8682 28.2068 27.2169 27.2163 26.8249Z" fill="#564038"/>
<path d="M30.368 24.3229C30.5092 24.2432 30.6314 23.9815 30.7088 23.6826C29.9183 23.7802 29.2091 23.8484 28.6328 23.8498C28.9097 24.3658 29.9717 24.5465 30.368 24.3229Z" fill="#564038"/>
<path d="M41.3489 23.3825C41.4312 23.3172 41.4896 23.2496 41.5525 23.1824C40.8492 23.1305 40.108 23.0961 39.377 23.0762C39.8946 23.6001 40.5747 23.997 41.3489 23.3825Z" fill="#564038"/>
<path d="M34.545 24.47C35.1913 24.5212 36.3889 24.2106 36.5495 23.0693C35.7694 23.0879 35.1138 23.1231 34.6926 23.1697C34.1417 23.2305 33.605 23.2998 33.0781 23.37C33.3388 23.9099 34.0249 24.4287 34.545 24.47Z" fill="#564038"/>
<path d="M22.9051 20.8932C22.3384 20.3601 21.8818 19.7561 21.3101 19.3867C21.0732 19.8836 20.9214 20.2434 21.488 20.767C22.0445 21.2814 22.5672 21.2823 22.9051 20.8932Z" fill="#564038"/>
<path opacity="0.19" d="M53.9313 39.0004C53.9717 38.5687 53.9932 38.1363 53.9988 37.7068C54.038 34.7003 53.2961 31.8336 52.7714 30.3228C52.7711 30.322 52.7708 30.3214 52.7705 30.3206C52.6377 29.9383 52.4931 29.5866 52.3428 29.2509C52.297 29.1483 52.2485 29.0532 52.2011 28.9548C52.0895 28.7233 51.9746 28.5013 51.8552 28.2918C51.8018 28.198 51.7482 28.1045 51.6933 28.0148C51.5583 27.7947 51.419 27.5874 51.2758 27.3913C51.2378 27.3392 51.2014 27.2822 51.1628 27.2317C50.9753 26.9865 50.782 26.759 50.583 26.5497C50.5549 26.5201 50.5256 26.4946 50.4973 26.4658C50.3237 26.2887 50.1465 26.1233 49.9658 25.9701C49.9156 25.9275 49.8649 25.887 49.8141 25.846C49.6404 25.7059 49.4642 25.5745 49.2854 25.4532C49.2473 25.4272 49.2095 25.3998 49.1712 25.3748C48.7164 25.0773 48.2489 24.8328 47.7766 24.6286C47.7763 24.6284 47.7759 24.6283 47.7756 24.6281C46.6296 28.7706 41.5444 30.6761 39.7737 27.7115C33.8847 30.1874 27.8184 28.8686 27.2197 27.2632C26.621 25.6578 24.0922 26.1408 23.3587 24.5425C22.6179 22.9284 21.886 21.4382 20.1876 20.7918C20.4293 20.5023 20.5234 19.9077 20.1579 19.6307C19.8734 19.4153 18.6406 19.5422 18.7083 20.4671C18.6087 20.8815 14.7438 23.5524 14.0391 22.9163C14.2477 23.602 15.2555 24.8835 15.7793 24.9417C16.3774 25.0082 17.1343 24.3288 17.7973 24.2844C19.4514 24.1735 20.2276 28.6403 20.4015 29.1565C20.4015 29.1564 20.4015 29.1566 20.4015 29.1565C20.5113 29.4821 20.6206 29.7536 20.7288 29.9827C20.8911 30.3264 21.0513 30.5752 21.2081 30.7702C21.783 31.4852 22.3119 31.4766 22.7323 32.7671C22.7753 32.899 22.7915 33.1204 22.785 33.407C22.7397 35.4131 21.5848 40.6103 20.7499 40.6103C19.5713 40.6103 18.4109 41.2076 18.4109 42.2345C18.7519 42.2345 20.7524 42.2345 21.6666 42.2345C24.8464 39.3848 26.4937 33.2624 27.0911 32.809C28.2972 32.8845 36.5148 33.4467 39.8576 32.3879C41.7436 35.991 45.2467 36.0937 45.8152 36.8529C45.9875 37.0829 46.1827 37.5898 46.2114 38.2244C46.2401 38.8591 46.102 39.6215 45.6077 40.363C45.4715 40.5673 43.123 40.5685 43.1228 42.2345C43.6363 42.2345 44.7086 42.2345 45.6126 42.2345C46.9595 41.4333 48.1901 39.0477 48.9941 36.2929C47.2849 35.0011 46.7328 34.0236 46.6946 33.0415C46.6374 31.5685 47.7366 30.0854 47.822 27.5165C47.8314 27.2311 47.8284 26.9323 47.8099 26.6186C50.526 29.4304 51.6372 33.4809 51.6329 36.9048C51.6314 38.0461 51.506 39.1178 51.2747 40.0508C51.2181 40.2793 51.1154 40.4892 50.9923 40.6903C50.8831 40.8688 50.7597 41.041 50.6114 41.2019C50.2645 41.5784 49.8274 41.9111 49.3803 42.2261C49.1924 42.3586 49.0042 42.4882 48.8185 42.6159C48.3754 42.9208 47.9544 43.2178 47.6386 43.5303C47.6278 43.541 47.6202 43.5522 47.6096 43.5629C47.4697 43.7051 47.3578 43.852 47.2693 44.0035C47.2065 44.1108 47.1593 44.2213 47.1289 44.3352C47.0911 44.4765 47.0704 44.6213 47.0914 44.7756C47.1073 44.8924 47.1417 45.0134 47.1965 45.1392C48.1925 47.4238 53.5281 43.3083 53.9313 39.0004Z" fill="black"/>
<path opacity="0.19" d="M48.9934 36.2936C48.9918 36.2924 48.9907 36.2913 48.9891 36.2901C48.733 36.0964 48.5098 35.9114 48.3036 35.7306C48.2387 35.6738 48.1814 35.6187 48.1212 35.563C47.9845 35.4366 47.8579 35.3124 47.7441 35.1913C47.6908 35.1347 47.6373 35.0777 47.5887 35.0221C47.4747 34.8914 47.3744 34.7635 47.285 34.6379C47.2595 34.602 47.228 34.5647 47.2043 34.5292C47.0988 34.3703 47.0128 34.2149 46.9425 34.0619C46.9251 34.0239 46.9137 33.9866 46.8983 33.9488C46.85 33.8304 46.8096 33.7128 46.7797 33.5964C46.7682 33.5515 46.7581 33.5063 46.7492 33.4615C46.7251 33.3417 46.7094 33.2221 46.7019 33.1029C46.7001 33.0733 46.696 33.0436 46.6951 33.014C46.6631 31.9782 47.1911 30.9345 47.537 29.5128C46.0267 33.1561 40.8884 31.9859 39.6952 30.6434C38.423 31.7659 27.2573 31.9993 26.4041 29.6895C25.4651 27.1478 22.6292 28.7454 21.8808 27.1238C21.1325 25.5023 20.9902 23.7241 19.0663 23.2648C17.7811 22.958 16.9338 24.1241 15.0547 24.4509C15.3189 24.7197 15.5827 24.9206 15.7786 24.9424C16.3767 25.0089 17.1336 24.3295 17.7966 24.285C19.4506 24.1742 20.2269 28.641 20.4008 29.1572C20.4008 29.1571 20.4008 29.1573 20.4008 29.1572C20.5105 29.4828 20.6198 29.7543 20.728 29.9834C20.8904 30.3271 21.0506 30.5759 21.2073 30.7709C21.7822 31.4859 22.3112 31.4773 22.7316 32.7678C22.7746 32.8997 22.7908 33.1211 22.7843 33.4077C22.739 35.4138 21.584 40.611 20.7492 40.611C19.5706 40.611 18.4101 41.2083 18.4101 42.2352C18.7512 42.2352 20.7517 42.2352 21.6659 42.2352C24.8456 39.3855 26.493 33.2631 27.0904 32.8097C28.2965 32.8852 36.5141 33.4474 39.8569 32.3886C41.7428 35.9917 45.246 36.0943 45.8145 36.8536C45.9867 37.0836 46.182 37.5905 46.2107 38.2251C46.2393 38.8598 46.1013 39.6222 45.607 40.3637C45.4708 40.5679 43.1222 40.5692 43.1221 42.2352C43.6355 42.2352 44.7079 42.2352 45.6118 42.2352C46.9587 41.434 48.1893 39.0484 48.9934 36.2936Z" fill="black"/>
</svg>
