<svg width="68" height="68" viewBox="0 0 68 68" fill="none" xmlns="http://www.w3.org/2000/svg">
<g clip-path="url(#clip0_2883_12590)">
<path opacity="0.4" d="M34 68C51.6731 68 66 53.6731 66 36C66 18.3269 51.6731 4 34 4C16.3269 4 2 18.3269 2 36C2 53.6731 16.3269 68 34 68Z" fill="black" fill-opacity="0.05"/>
<path d="M34 66C51.6731 66 66 51.6731 66 34C66 16.3269 51.6731 2 34 2C16.3269 2 2 16.3269 2 34C2 51.6731 16.3269 66 34 66Z" fill="black" fill-opacity="0.05"/>
<path d="M34 65C51.6731 65 66 50.6731 66 33C66 15.3269 51.6731 1 34 1C16.3269 1 2 15.3269 2 33C2 50.6731 16.3269 65 34 65Z" fill="black" fill-opacity="0.05"/>
<path d="M34 64C51.6731 64 66 49.6731 66 32C66 14.3269 51.6731 0 34 0C16.3269 0 2 14.3269 2 32C2 49.6731 16.3269 64 34 64Z" fill="white"/>
<path opacity="0.2" d="M36 49.4004C45.9411 49.4004 54 48.7288 54 47.9004C54 47.072 45.9411 46.4004 36 46.4004C26.0589 46.4004 18 47.072 18 47.9004C18 48.7288 26.0589 49.4004 36 49.4004Z" fill="black"/>
<path opacity="0.19" d="M34.1992 49.4004C45.7972 49.4004 55.1992 48.7288 55.1992 47.9004C55.1992 47.072 45.7972 46.4004 34.1992 46.4004C22.6012 46.4004 13.1992 47.072 13.1992 47.9004C13.1992 48.7288 22.6012 49.4004 34.1992 49.4004Z" fill="#020202"/>
<path d="M29.6002 42C29.4002 43.1 28.2002 45.7 27.6002 45.7C27.0002 45.6 26.3002 45.3 25.7002 45.6C25.1002 45.9 22.6002 47.2 23.8002 47.2C25.5002 47.2 30.3002 47.2 31.2002 47.2C32.1002 47.2 32.2002 46.3 31.2002 46.2C30.2002 46.1 29.9002 46.2 29.9002 45.9C29.9002 45.6 30.7002 42 30.7002 42H29.6002Z" fill="#E3AD0F"/>
<path opacity="0.19" d="M29.6002 42C29.4002 43.1 28.2002 45.7 27.6002 45.7C27.0002 45.6 26.3002 45.3 25.7002 45.6C25.1002 45.9 22.6002 47.2 23.8002 47.2C25.5002 47.2 30.3002 47.2 31.2002 47.2C32.1002 47.2 32.2002 46.3 31.2002 46.2C30.2002 46.1 29.9002 46.2 29.9002 45.9C29.9002 45.6 30.7002 42 30.7002 42H29.6002Z" fill="#020202"/>
<path d="M27.399 43C27.199 44.1 25.999 46.7 25.399 46.7C24.799 46.6 24.099 46.3 23.499 46.6C22.899 46.9 20.399 48.2 21.599 48.2C23.299 48.2 28.099 48.2 28.999 48.2C29.899 48.2 29.999 47.3 28.999 47.2C27.999 47.1 27.699 47.2 27.699 46.9C27.699 46.6 28.499 43 28.499 43H27.399Z" fill="#D1993B"/>
<path d="M27.6992 33C27.7992 35.5 28.4992 36.9 28.5992 38.9C28.7992 41.1 28.5992 42.7 28.8992 42.9C32.8992 44.3 32.2992 38.3 32.2992 35.2L27.6992 33Z" fill="#474037"/>
<path d="M17.1991 19.5998C16.8991 18.4997 17.7991 16.9998 20.7991 15.9998C23.8991 14.9998 24.6991 19.0998 26.2991 20.7998C27.8991 22.4998 28.2991 22.9998 29.0991 23.3997C30.8991 24.1997 34.6991 26.3997 40.1991 34.2997C45.6991 42.1997 53.9991 45.1997 51.7991 47.2997C49.5991 49.3997 39.3991 39.9998 36.4991 39.1997C33.6991 38.3997 32.3991 38.9997 30.6991 38.5997C30.7991 41.6997 29.6991 45.0997 26.9991 43.6997C26.6991 43.4997 26.4991 39.2997 26.2991 36.7997C22.3991 35.7997 20.6991 29.8997 20.0991 26.4997C19.9991 25.0998 19.9991 21.8997 19.7991 21.5998C18.9991 20.3997 17.7991 21.3997 17.1991 19.5998Z" fill="#6E6458"/>
<path d="M38.5996 40.3C42.7996 43.1 49.9996 49 51.7996 47.3C53.5996 45.6 48.3996 43.3 43.2996 38C45.8996 40.9 41.5996 41.9 38.5996 40.3Z" fill="#D5DCE9"/>
<path d="M20.5984 15.4999C17.4984 16.4999 16.0984 17.3999 17.0984 19.7999C17.6984 21.5999 19.2984 20.5999 19.7984 21.7999C19.7984 21.8999 19.8984 22.1999 19.8984 22.6999C19.8984 22.9999 21.5984 22.7999 23.0984 22.1999C24.5984 21.5999 25.9984 20.4999 25.8984 20.3999C24.6984 18.3999 23.3984 14.5999 20.5984 15.4999Z" fill="#D5DCE9"/>
<path d="M16.8993 18C14.6993 18.5 12.8993 21.4 15.6993 23.6C15.6993 23.4 15.3993 22.6 15.7993 21.7C15.9993 21.4 16.9993 21.6 18.1993 20.9C19.0993 20.4 18.9993 19.4 18.9993 18.9C17.7993 19.3 16.9993 18.8 16.8993 18Z" fill="#D1993B"/>
<path d="M22.3998 23.5994C31.2998 19.7994 35.9998 29.7994 44.8998 36.3994C56.1998 44.6994 28.6998 36.9994 24.2998 30.2994C21.1998 25.3994 20.7998 24.2994 22.3998 23.5994Z" fill="#8D8479"/>
<path opacity="0.19" d="M15.8001 21.6996C16.0001 21.3996 17.0001 21.5996 18.2001 20.8996C18.9001 21.0996 19.6001 21.0996 19.8001 21.7996V21.8996V21.9996V22.0996C19.8001 22.0996 19.8001 22.0996 19.8001 22.1996C19.8001 22.2996 19.8001 22.4996 19.8001 22.7996C20.0001 23.7996 20.0001 25.5996 20.1001 26.4996C20.7001 29.8996 22.4001 35.7996 26.3001 36.7996C26.5001 39.2996 26.7001 43.4996 27.0001 43.6996C29.7001 45.0996 30.8001 41.6996 30.7001 38.5996C32.4001 38.9996 33.7001 38.3996 36.5001 39.1996C39.4001 39.9996 49.6001 49.3996 51.8001 47.2996C53.4001 45.7996 49.6001 43.7996 45.3001 39.9996C48.1001 40.1996 48.8001 39.2996 44.9001 36.3996C42.6001 34.6996 40.6001 32.7996 38.8001 30.9996C38.9001 32.3996 38.6001 36.6996 30.3001 32.8996C20.8001 28.4996 23.6001 17.1996 19.7001 18.6996C15.3001 19.8996 14.1001 20.6996 15.7001 23.5996C15.7001 23.3996 15.4001 22.5996 15.8001 21.6996Z" fill="#020202"/>
</g>
<defs>
<clipPath id="clip0_2883_12590">
<rect width="64" height="68" fill="white" transform="translate(2)"/>
</clipPath>
</defs>
</svg>
