<svg width="68" height="68" viewBox="0 0 68 68" fill="none" xmlns="http://www.w3.org/2000/svg">
<path opacity="0.4" d="M34 68C51.6731 68 66 53.6731 66 36C66 18.3269 51.6731 4 34 4C16.3269 4 2 18.3269 2 36C2 53.6731 16.3269 68 34 68Z" fill="black" fill-opacity="0.05"/>
<path d="M34 66C51.6731 66 66 51.6731 66 34C66 16.3269 51.6731 2 34 2C16.3269 2 2 16.3269 2 34C2 51.6731 16.3269 66 34 66Z" fill="black" fill-opacity="0.05"/>
<path d="M34 65C51.6731 65 66 50.6731 66 33C66 15.3269 51.6731 1 34 1C16.3269 1 2 15.3269 2 33C2 50.6731 16.3269 65 34 65Z" fill="black" fill-opacity="0.05"/>
<path d="M34 64C51.6731 64 66 49.6731 66 32C66 14.3269 51.6731 0 34 0C16.3269 0 2 14.3269 2 32C2 49.6731 16.3269 64 34 64Z" fill="white"/>
<path opacity="0.2" d="M34 51C45.598 51 55 50.3284 55 49.5C55 48.6716 45.598 48 34 48C22.402 48 13 48.6716 13 49.5C13 50.3284 22.402 51 34 51Z" fill="black"/>
<path opacity="0.2" d="M35.0113 51C43.3191 51 50.0539 50.3284 50.0539 49.5C50.0539 48.6716 43.3191 48 35.0113 48C26.7035 48 19.9688 48.6716 19.9688 49.5C19.9688 50.3284 26.7035 51 35.0113 51Z" fill="black"/>
<path d="M27.0353 36.9248C27.3375 39.0587 26.2856 48.2955 25.7701 47.9837C25.2545 47.672 24.1035 48.1995 24.1035 49.2666C24.1035 49.2666 26.2377 49.2666 27.7364 49.2666C27.7364 49.2666 28.3351 46.8107 28.395 45.9715C28.455 45.1322 29.6068 41.5693 30.1703 40.0106L27.0353 36.9248Z" fill="#89642F"/>
<path d="M32.1226 40.9473C32.0222 41.5436 31.7982 42.7562 32.7937 43.8767C33.7893 44.9972 36.0534 46.7456 35.7987 47.2169C35.5441 47.6881 33.8873 47.4714 32.1741 46.9374C30.4608 46.4033 29.4421 47.4505 28.7707 47.8275C28.0993 48.2045 28.2613 48.9794 28.9906 48.9794C29.7199 48.9794 38.0779 48.9794 38.7261 48.9794C39.3744 48.9794 39.1313 48.7281 39.1313 48.4872C39.1313 48.4872 39.3628 48.5082 40.0574 48.4872L37.7932 41.3501L32.1226 40.9473Z" fill="#89642F"/>
<path d="M26.8326 22.5698C26.8841 22.1861 26.8841 21.6106 27.734 20.6912C28.5838 19.7719 28.5581 17.5821 28.5581 16.1433C28.5581 14.7046 27.3477 14.7765 26.4978 15.5199C25.6479 16.2632 24.7466 18.5892 24.9783 19.8841C25.2101 21.179 25.5856 22.2059 25.0684 22.5515C25.0684 22.5515 26.7811 22.9534 26.8326 22.5698Z" fill="#A07735"/>
<path d="M21.0076 26.6081C20.8727 25.6946 22.5663 24.0183 22.926 23.4668C23.2857 22.9153 23.7413 22.8433 24.2209 22.6994C24.7004 22.5556 25.8275 22.4596 26.355 22.4117C26.8826 22.3637 27.1463 21.4046 26.9305 20.1097C26.7147 18.8148 27.554 16.4888 28.3453 15.7454C29.1366 15.0021 30.2636 14.9301 30.2636 16.3689C30.2636 17.8077 30.2876 19.9975 29.4963 20.9168C28.705 21.8362 28.705 22.4117 28.657 22.7954C28.6091 23.179 28.1295 23.6107 28.3213 24.1142C28.5132 24.6178 28.8968 25.6489 29.0887 26.4402C29.2805 27.2315 30.4981 27.4492 32.0088 27.785C33.5195 28.1207 42.7089 31.1162 45.0589 37.6386C47.4089 44.1609 44.4834 47.3742 44.4834 47.3742C47.0533 47.3742 47.1018 49.9999 45.7943 49.9999C41.3691 49.9999 42.1334 49.4124 41.414 49.4364C40.6946 49.4604 40.4549 49.4364 40.4549 49.4364C40.4549 49.7121 40.7066 49.9999 40.0352 49.9999C39.3638 49.9999 30.7073 49.9999 29.9519 49.9999C29.1966 49.9999 29.0287 49.1127 29.7241 48.681C30.4195 48.2494 31.4746 47.0504 33.2491 47.6619C35.0235 48.2734 37.0738 48.4772 37.3375 47.9377C37.6013 47.3981 34.922 45.4406 33.8909 44.1577C32.8598 42.8748 32.8016 42.3853 32.9055 41.7025C31.7308 41.3292 31.1509 40.7439 31.1509 40.7439C30.775 43.3646 28.717 49.9999 28.717 49.9999C27.2183 49.9999 25.0841 49.9999 25.0841 49.9999C25.0841 48.9328 26.2351 48.4053 26.7507 48.717C27.2662 49.0287 28.4948 41.2133 28.4144 40.0787C28.3139 38.6599 25.9414 38.1541 25.3479 36.3017C24.7544 34.4493 24.6285 32.3811 24.7364 31.0323C24.8443 29.6834 23.7113 28.6223 23.7113 28.6223C22.6502 28.8741 21.6791 28.3705 21.3733 27.9569C21.0676 27.5433 21.0587 26.9537 21.0076 26.6081Z" fill="#C59241"/>
<path opacity="0.19" d="M21.373 27.9574C21.6788 28.371 22.6499 28.8746 23.711 28.6228C23.711 28.6228 24.844 29.6839 24.7361 31.0327C24.6282 32.3816 24.7541 34.4497 25.3475 36.3021C25.9411 38.1546 28.3136 38.6603 28.4141 40.0791C28.4945 41.2137 27.2659 49.0292 26.7503 48.7174C26.2348 48.4057 25.0838 48.9333 25.0838 50.0003C25.0838 50.0003 27.2179 50.0003 28.7167 50.0003C28.7167 50.0003 30.7746 43.365 31.1505 40.7443C31.1505 40.7443 31.7305 41.3297 32.9052 41.703C32.8013 42.3858 32.8595 42.8752 33.8906 44.1581C34.9217 45.4411 37.601 47.3986 37.3372 47.9381C37.0735 48.4776 35.0232 48.2739 33.2487 47.6624C31.4743 47.0509 30.4192 48.2499 29.7238 48.6815C29.0284 49.1131 29.1963 50.0003 29.9516 50.0003C30.707 50.0003 39.3635 50.0003 40.0349 50.0003C40.7063 50.0003 40.4545 49.7126 40.4545 49.4369C40.4545 49.4369 40.6943 49.4608 41.4137 49.4369C42.1331 49.4129 41.3688 50.0003 45.794 50.0003C47.1014 50.0003 47.0529 47.3746 44.4831 47.3746C44.4831 47.3746 46.1077 45.5852 45.9605 41.9715C45.9605 41.9714 45.9605 41.9716 45.9605 41.9715C41.3878 47.2429 33.2799 42.0468 35.0173 39.7807C32.4267 39.2155 31.3869 37.9342 31.1161 35.8395C30.6504 32.2389 28.1434 33.8977 27.7656 29.869C27.6931 29.0962 28.0313 26.5694 26.8592 26.9482C25.5434 27.3735 24.1912 28.4318 22.6544 27.9428C21.9853 27.7299 21.9949 27.114 22.1526 26.809C22.354 26.4194 22.9204 26.6597 23.1327 25.8655C23.2662 25.3665 21.8896 25.9557 21.2491 25.724C21.0769 26.0497 20.9704 26.3584 21.0073 26.6086C21.0584 26.9542 21.0673 27.5437 21.373 27.9574Z" fill="black"/>
</svg>
