<svg width="68" height="68" viewBox="0 0 68 68" fill="none" xmlns="http://www.w3.org/2000/svg">
<g clip-path="url(#clip0_2883_12581)">
<path opacity="0.4" d="M34 68C51.6731 68 66 53.6731 66 36C66 18.3269 51.6731 4 34 4C16.3269 4 2 18.3269 2 36C2 53.6731 16.3269 68 34 68Z" fill="black" fill-opacity="0.05"/>
<path d="M34 66C51.6731 66 66 51.6731 66 34C66 16.3269 51.6731 2 34 2C16.3269 2 2 16.3269 2 34C2 51.6731 16.3269 66 34 66Z" fill="black" fill-opacity="0.05"/>
<path d="M34 65C51.6731 65 66 50.6731 66 33C66 15.3269 51.6731 1 34 1C16.3269 1 2 15.3269 2 33C2 50.6731 16.3269 65 34 65Z" fill="black" fill-opacity="0.05"/>
<path d="M34 64C51.6731 64 66 49.6731 66 32C66 14.3269 51.6731 0 34 0C16.3269 0 2 14.3269 2 32C2 49.6731 16.3269 64 34 64Z" fill="white"/>
<path opacity="0.2" d="M35.0859 52.5C43.3702 52.5 50.0859 51.8284 50.0859 51C50.0859 50.1716 43.3702 49.5 35.0859 49.5C26.8017 49.5 20.0859 50.1716 20.0859 51C20.0859 51.8284 26.8017 52.5 35.0859 52.5Z" fill="black"/>
<path opacity="0.19" d="M34 52.5C45.598 52.5 55 51.8284 55 51C55 50.1716 45.598 49.5 34 49.5C22.402 49.5 13 50.1716 13 51C13 51.8284 22.402 52.5 34 52.5Z" fill="#020202"/>
<path d="M47.6181 31.166C49.044 33.7894 47.5909 37.2649 47.2639 39.1697C46.937 41.0746 48.3174 43.347 48.6444 43.5475C48.0268 45.2519 47.7228 48.3097 47.9293 49.0616C47.5909 49.8135 47.4274 51.0918 47.4274 51.0918H45.166C45.166 51.0918 45.6564 50.1644 46.3376 49.3874C47.0187 48.6104 46.3103 44.9261 45.8744 43.5475C45.4385 42.169 43.5312 36.4545 43.5312 36.4545L47.6181 31.166Z" fill="#7A7168"/>
<path d="M23.9062 38.0508C25.1051 39.3223 26.2196 43.4788 26.5945 44.3556C27.2291 45.8398 27.6354 48.3355 27.1995 49.0257C26.7636 49.716 25.3468 49.8613 25.3468 50.6605C25.3468 50.6605 26.7999 50.6605 27.8897 50.6605C27.8897 50.6605 28.253 49.607 28.8706 48.5535C28.5436 47.8269 28.3157 45.8497 29.0648 44.4484C30.1263 42.4628 31.0628 40.5614 29.864 38.2364L23.9062 38.0508Z" fill="#7A7168"/>
<path d="M23.1254 14.4917C26.1769 14.8732 26.4494 18.3062 26.1769 21.7391C25.9045 25.1721 25.4685 25.2266 25.85 26.044C27.7027 25.0086 32.9884 26.5889 34.1327 26.6978C35.277 26.8068 38.492 24.6817 41.816 25.3901C45.14 26.0984 46.089 27.3877 46.089 27.3877C45.3501 25.2206 49.6843 23.9306 51.0001 26.4074C52.1625 28.5955 51.1807 31.7736 47.7236 30.7932C49.2493 37.6864 44.644 37.9994 44.4588 41.6558C44.3498 43.8082 45.3852 45.6609 45.3852 45.6609C44.2136 47.1322 43.1783 49.7205 42.9876 50.7559C42.3882 51.1373 42.1157 52.0001 42.1157 52.0001C40.2811 52.0001 40.2811 52.0001 40.2811 52.0001C40.2811 52.0001 40.6444 51.1645 41.1712 50.3835C41.6979 49.6025 42.9512 47.1322 42.2792 44.9525C41.6071 42.7728 39.7362 41.565 39.7726 38.4408C37.7019 39.6033 34.3222 40.366 31.0445 39.8487C32.2433 42.1737 31.0376 44.1049 30.9671 45.6922C30.8897 47.4336 31.063 49.1665 31.3899 49.8931C30.7724 50.9466 30.4091 52.0001 30.4091 52.0001C29.3193 52.0001 27.8662 52.0001 27.8662 52.0001C27.8662 51.2009 29.2829 51.0556 29.7189 50.3653C30.1548 49.6751 29.3804 45.6535 28.6451 44.1829C28.2187 43.3301 27.0963 42.2037 25.8975 40.9323C24.6987 39.6608 21.8342 37.1011 20.2737 33.6637C18.8027 30.4234 18.1667 28.4961 18.8569 25.0449C19.091 23.8744 20.0097 22.0613 20.1284 20.4313C20.3596 17.2555 20.0405 14.2637 23.1254 14.4917Z" fill="#C5B6A2"/>
<path d="M20.3456 14.3645C19.7462 13.8014 18.6927 12.6208 19.2921 12.4028C19.8915 12.1849 21.5081 14.1829 21.8169 14.201C22.1257 14.2192 20.8179 12.2757 21.4536 12.0395C22.0893 11.8034 23.1298 12.6048 23.3426 14.9821C23.4143 15.7832 23.1142 18.2996 22.0527 19.1577C21.7691 19.3871 20.866 19.7769 20.2004 19.1694C19.3728 18.4138 17.7691 18.9774 17.1124 18.96C15.3321 18.9126 16.1729 17.9701 16.3769 17.3776C16.7768 16.2166 18.7364 15.5821 19.3438 15.4943C19.4528 14.9312 20.3456 14.3645 20.3456 14.3645Z" fill="#D6C7B4"/>
<path opacity="0.1" d="M17.1124 18.9597C17.7691 18.9772 19.3727 18.4136 20.2004 19.1691C20.2004 19.169 20.2005 19.1692 20.2004 19.1691C20.1796 19.5818 20.1587 20.0044 20.1276 20.431C20.009 22.0609 19.0902 23.8741 18.8561 25.0447C18.1659 28.4958 18.8019 30.4231 20.2729 33.6633C21.8334 37.1007 24.6979 39.6605 25.8968 40.932C27.0956 42.2034 28.2179 43.3298 28.6444 44.1826C29.3797 45.6532 30.1541 49.6748 29.7181 50.365C29.2822 51.0552 27.8654 51.2006 27.8654 51.9997C27.8654 51.9997 29.3185 51.9997 30.4084 51.9997C30.4084 51.9997 30.7716 50.9463 31.3892 49.8928C31.0622 49.1662 30.8889 47.4333 30.9663 45.6919C31.0369 44.1046 32.2425 42.1734 31.0437 39.8484C34.3214 40.3656 37.7011 39.6029 39.7718 38.4405C39.7355 41.5647 41.6063 42.7726 42.2784 44.9522C42.9505 47.1319 41.6971 49.6021 41.1704 50.3832C40.6437 51.1642 40.2804 51.9997 40.2804 51.9997C40.2804 51.9997 40.2804 51.9997 42.1149 51.9997C42.1149 51.9997 42.3874 51.137 42.9868 50.7556C43.1775 49.7202 44.2128 47.1319 45.3844 45.6606C45.3844 45.6606 44.3491 43.8079 44.4581 41.6555C44.6432 37.9991 49.2486 37.6861 47.7229 30.7929C51.18 31.7732 52.1618 28.5952 50.9993 26.407C49.6836 23.9303 45.3493 25.2203 46.0883 27.3874C46.7757 30.4833 41.6342 28.458 39.0801 29.3869C36.526 30.3156 37.429 33.1148 31.3146 33.8114C25.2002 34.508 25.871 30.7413 22.5687 30.8445C20.6049 30.9059 20.2209 24.8333 21.3045 21.8922C22.3881 18.9511 21.8205 17.8675 20.5822 17.1968C19.5535 16.6396 18.5774 18.3835 16.0005 18.373C15.9874 18.6886 16.2223 18.9361 17.1124 18.9597Z" fill="black"/>
<path opacity="0.19" d="M40.525 33.239C36.7068 39.9253 24.5689 39.5743 19.3956 31.5664C19.394 31.5695 19.3923 31.573 19.3906 31.5761C19.6368 32.2255 19.9296 32.9064 20.273 33.6629C21.8336 37.1003 24.6981 39.66 25.897 40.9315C27.0957 42.2029 28.2181 43.3293 28.6445 44.1822C29.3798 45.6527 30.1542 49.6743 29.7182 50.3645C29.2823 51.0547 27.8656 51.2001 27.8656 51.9992C27.8656 51.9992 29.3187 51.9992 30.4085 51.9992C30.4085 51.9992 30.7718 50.9458 31.3894 49.8923C31.0624 49.1657 30.8891 47.4328 30.9665 45.6914C31.037 44.1041 32.2427 42.1729 31.0439 39.8479C34.3216 40.3652 37.7013 39.6024 39.772 38.44C39.7356 41.5642 41.6065 42.7721 42.2786 44.9517C42.9506 47.1314 41.6973 49.6017 41.1706 50.3827C40.6438 51.1638 40.2805 51.9992 40.2805 51.9992C40.2805 51.9992 40.2805 51.9992 42.1151 51.9992C42.1151 51.9992 42.3876 51.1365 42.987 50.7551C43.1777 49.7197 44.213 47.1314 45.3846 45.6601C45.3846 45.6601 44.3492 43.8074 44.4583 41.655C44.6287 38.2877 48.5362 37.743 47.9632 32.296C47.9185 32.2952 47.8668 32.2926 47.8248 32.2926C48.1221 34.3662 41.4538 38.5709 40.525 33.239Z" fill="black"/>
</g>
<defs>
<clipPath id="clip0_2883_12581">
<rect width="64" height="68" fill="white" transform="translate(2)"/>
</clipPath>
</defs>
</svg>
