<svg width="68" height="68" viewBox="0 0 68 68" fill="none" xmlns="http://www.w3.org/2000/svg">
<g clip-path="url(#clip0_2883_12589)">
<path opacity="0.4" d="M34 68C51.6731 68 66 53.6731 66 36C66 18.3269 51.6731 4 34 4C16.3269 4 2 18.3269 2 36C2 53.6731 16.3269 68 34 68Z" fill="black" fill-opacity="0.05"/>
<path d="M34 66C51.6731 66 66 51.6731 66 34C66 16.3269 51.6731 2 34 2C16.3269 2 2 16.3269 2 34C2 51.6731 16.3269 66 34 66Z" fill="black" fill-opacity="0.05"/>
<path d="M34 65C51.6731 65 66 50.6731 66 33C66 15.3269 51.6731 1 34 1C16.3269 1 2 15.3269 2 33C2 50.6731 16.3269 65 34 65Z" fill="black" fill-opacity="0.05"/>
<path d="M34 64C51.6731 64 66 49.6731 66 32C66 14.3269 51.6731 0 34 0C16.3269 0 2 14.3269 2 32C2 49.6731 16.3269 64 34 64Z" fill="white"/>
<path opacity="0.19" d="M34 51C45.598 51 55 50.3284 55 49.5C55 48.6716 45.598 48 34 48C22.402 48 13 48.6716 13 49.5C13 50.3284 22.402 51 34 51Z" fill="#020202"/>
<path opacity="0.2" d="M36.3203 51C45.9853 51 53.8203 50.3284 53.8203 49.5C53.8203 48.6716 45.9853 48 36.3203 48C26.6553 48 18.8203 48.6716 18.8203 49.5C18.8203 50.3284 26.6553 51 36.3203 51Z" fill="black"/>
<path d="M49.4746 24.0386C50.7798 23.8521 53.6886 24.2996 54.1734 29.7443C54.6582 35.1889 55.5159 42.4236 54.5836 42.4236C53.6513 42.4236 52.0478 42.4982 51.9359 42.088C51.824 41.6777 49.4746 24.0386 49.4746 24.0386Z" fill="#4A3932"/>
<path d="M50.2714 39.3554C49.6002 40.0515 48.2475 44.7491 48.3221 45.6938C47.4022 46.738 47.1389 49.0265 47.1389 49.0265H44.0449C44.0449 47.9575 45.288 47.7337 45.9344 46.0431C46.5808 44.3526 47.0325 41.5184 46.7093 39.9272C46.3861 38.3361 44.9755 36.7953 44.7162 31.3563C44.4755 26.3086 50.2714 39.3554 50.2714 39.3554Z" fill="#70492D"/>
<path d="M31.972 33.7948C31.7856 35.3534 32.4333 38.5342 32.9553 39.6225C32.4705 41.6232 34.3339 45.6936 34.3339 45.6936C33.7745 46.7581 33.6129 48.6462 33.6875 49.0263C32.8919 49.0263 30.5935 49.0263 30.5935 49.0263C31.0162 47.6838 32.3398 47.1161 32.1598 45.6936C32.0367 44.7206 30.954 42.4877 30.6432 42.2089C30.3325 41.9301 28.8439 40.0893 28.1074 35.1847C27.4223 30.6233 31.972 33.7948 31.972 33.7948Z" fill="#70492D"/>
<path d="M14.1407 24.4853C12.6736 23.9567 12.9846 22.8817 13.1338 22.6766C13.283 22.4715 15.968 17.4184 17.1613 16.2437C16.1731 15.069 16.2104 14.0062 16.2104 14.0062C16.7511 14.0994 16.7511 14.6588 17.3664 15.0131C16.9749 14.0062 17.087 14.0944 17.2203 14.0062C17.3537 13.918 17.7679 14.7955 18.0417 14.985C18.3154 15.1745 19.0525 15.7782 19.6632 15.7361C20.2739 15.694 23.9299 16.7285 27.3234 19.6C30.717 22.4715 32.0222 22.0799 33.8868 22.9563C35.7514 23.8327 39.3688 23.5157 41.0096 23.0122C42.6505 22.5088 45.9508 21.9308 49.158 23.2919C52.3651 24.6531 52.0605 28.9852 51.4887 30.9741C50.9169 32.963 50.9885 34.9404 51.6379 36.0956C52.7455 38.0658 53.403 38.706 53.403 38.706C52.9373 40.8576 52.9307 45.6908 53.403 46.96C52.7815 47.3826 52.1973 49.0421 52.2532 49.7507C51.3768 49.7507 49.4749 49.7507 49.4749 49.7507C49.4749 49.0421 50.6496 47.8115 50.8547 46.8419C51.0599 45.8723 51.2711 41.468 50.2581 40.7073C47.1206 38.3517 44.9747 34.5393 44.4203 32.4634C42.0709 34.1353 38.0876 35.4758 31.5055 34.5995C29.3323 36.1701 25.9387 36.7482 24.0204 37.922C24.0476 38.8958 25.4539 42.4539 26.9896 43.5385C27.421 44.5702 28.158 45.4605 28.158 45.4605C26.4182 45.5188 25.081 45.2414 24.3415 44.1733C23.7678 43.3445 21.505 38.0925 21.188 37.3839C20.8711 36.6754 24.7504 34.3423 25.3234 32.7952C25.3607 31.8443 24.4035 32.2296 23.7322 29.8616C23.1056 27.651 24.1984 27.5992 23.5831 26.4804C22.9678 25.3617 21.6711 23.4962 21.2075 22.4715C20.8533 21.6884 20.1369 21.5847 19.5791 21.7754C19.1808 21.9116 17.7421 22.233 16.3785 23.2077C15.527 23.8164 16.3404 25.2779 14.1407 24.4853Z" fill="#B57C44"/>
<path d="M19.7675 15.7391C20.0165 14.933 24.3156 17.126 25.7079 18.0707C27.1001 19.0154 29.3625 20.88 29.984 21.2281C30.4354 21.4809 33.1501 22.5768 34.4964 23.043C35.717 23.4657 32.8692 26.6013 28.1953 23.6677C26.6004 22.6666 25.5749 19.7113 23.8694 18.6984C21.7285 17.427 19.6947 15.9748 19.7675 15.7391Z" fill="#4A3932"/>
<path opacity="0.15" d="M21.207 22.4734C21.6705 23.4981 22.9672 25.3636 23.5825 26.4823C24.1978 27.6011 23.1051 27.6528 23.7317 29.8634C24.403 32.2315 25.3601 31.8462 25.3228 32.7971C24.7498 34.3442 20.8705 36.6773 21.1875 37.3858C21.5045 38.0944 23.7673 43.3464 24.341 44.1752C25.0804 45.2434 26.4176 45.5207 28.1575 45.4624C28.1575 45.4624 27.4205 44.5721 26.989 43.5404C25.4533 42.4557 24.0471 38.8977 24.0199 37.9239C25.9382 36.7501 29.3317 36.1721 31.505 34.6014C38.087 35.4777 42.0703 34.1372 44.4198 32.4653C44.9742 34.5412 47.12 38.3536 50.2576 40.7092C51.2706 41.4698 51.0593 45.8742 50.8542 46.8438C50.6491 47.8134 49.4744 49.044 49.4744 49.7526C49.4744 49.7526 51.3763 49.7526 52.2526 49.7526C52.1967 49.044 52.7809 47.3845 53.4025 46.9619C52.9301 45.6927 52.9367 40.8595 53.4025 38.7079C53.4025 38.7079 52.7449 38.0677 51.6374 36.0975C50.9879 34.9423 50.9163 32.9649 51.4882 30.976C51.5231 30.8545 51.5569 30.7236 51.5891 30.5858C51.6063 30.5125 51.6214 30.4323 51.6374 30.3548C51.6513 30.2878 51.666 30.2237 51.6789 30.1538C51.701 30.0334 51.7204 29.9068 51.7391 29.7789C51.7435 29.7489 51.7489 29.7207 51.7531 29.6904C51.7741 29.5369 51.792 29.3786 51.8066 29.2169C51.8072 29.2105 51.8081 29.2045 51.8087 29.1981C51.989 27.163 51.614 24.5744 49.4575 23.4483C49.4574 23.4483 49.4576 23.4483 49.4575 23.4483C49.4643 23.4633 49.4695 23.4749 49.4744 23.491C51.0544 28.6452 44.1926 24.7793 42.2535 25.6743C41.0414 26.2337 34.7083 31.0247 31.3131 26.7833C28.9029 23.7725 25.88 26.633 24.9268 24.697C22.4886 19.7449 21.2776 17.3792 17.9639 19.1233C14.9025 20.7346 15.1029 24.0498 13.8066 24.3305C13.9101 24.385 14.0102 24.4404 14.1401 24.4872C16.3399 25.2798 15.5264 23.8183 16.378 23.2096C17.7415 22.2348 19.1802 21.9135 19.5785 21.7773C20.1364 21.5865 20.8527 21.6903 21.207 22.4734Z" fill="black"/>
<path opacity="0.19" d="M51.489 30.9766C51.5288 30.8382 51.5667 30.6864 51.6027 30.5271C51.6117 30.4872 51.6196 30.4437 51.6284 30.4025C51.6554 30.2749 51.6811 30.1434 51.7044 30.0056C51.7071 29.9889 51.7096 29.9713 51.7124 29.9545C51.7165 29.9285 51.7205 29.9025 51.7247 29.8764C51.7484 29.7237 51.7696 29.5666 51.7872 29.4046C51.7889 29.3883 51.7907 29.3721 51.7924 29.3559C51.7938 29.3435 51.7951 29.3313 51.7964 29.3188C51.8986 28.2954 51.8648 27.1192 51.5338 26.0527C52.0871 30.0478 46.1078 31.2812 43.199 28.5216C40.0664 30.3861 33.2071 33.6329 30.8323 30.5343C29.1088 28.2854 25.0007 31.7241 23.5523 28.416L23.5445 28.4187C23.5206 28.7754 23.5508 29.2229 23.7325 29.8641C24.4038 32.2321 25.3609 31.8468 25.3236 32.7978C24.7506 34.3448 20.8714 36.6779 21.1883 37.3865C21.5053 38.095 23.7681 43.347 24.3418 44.1758C25.0812 45.244 26.4185 45.5213 28.1583 45.463C28.1583 45.463 27.4213 44.5727 26.9899 43.5411C25.4542 42.4564 24.0479 38.8983 24.0207 37.9245C25.939 36.7508 29.3325 36.1727 31.5058 34.602C38.0878 35.4784 42.0711 34.1378 44.4206 32.4659C44.975 34.5418 47.1208 38.3543 50.2584 40.7099C51.2715 41.4705 51.0601 45.8748 50.855 46.8444C50.6499 47.8141 49.4752 49.0447 49.4752 49.7532C49.4752 49.7532 51.3771 49.7532 52.2534 49.7532C52.1975 49.0447 52.7818 47.3852 53.4033 46.9625C52.931 45.6933 52.9375 40.8601 53.4033 38.7085C53.4033 38.7085 52.7457 38.0684 51.6382 36.0981C50.9887 34.943 50.9171 32.9656 51.489 30.9766Z" fill="black"/>
</g>
<defs>
<clipPath id="clip0_2883_12589">
<rect width="64" height="68" fill="white" transform="translate(2)"/>
</clipPath>
</defs>
</svg>
