<svg width="68" height="68" viewBox="0 0 68 68" fill="none" xmlns="http://www.w3.org/2000/svg">
<g clip-path="url(#clip0_2866_12564)">
<path opacity="0.4" d="M34 68C51.6731 68 66 53.6731 66 36C66 18.3269 51.6731 4 34 4C16.3269 4 2 18.3269 2 36C2 53.6731 16.3269 68 34 68Z" fill="black" fill-opacity="0.05"/>
<path d="M34 66C51.6731 66 66 51.6731 66 34C66 16.3269 51.6731 2 34 2C16.3269 2 2 16.3269 2 34C2 51.6731 16.3269 66 34 66Z" fill="black" fill-opacity="0.05"/>
<path d="M34 65C51.6731 65 66 50.6731 66 33C66 15.3269 51.6731 1 34 1C16.3269 1 2 15.3269 2 33C2 50.6731 16.3269 65 34 65Z" fill="black" fill-opacity="0.05"/>
<path d="M34 64C51.6731 64 66 49.6731 66 32C66 14.3269 51.6731 0 34 0C16.3269 0 2 14.3269 2 32C2 49.6731 16.3269 64 34 64Z" fill="white"/>
<path opacity="0.19" d="M34 49C45.598 49 55 48.3284 55 47.5C55 46.6716 45.598 46 34 46C22.402 46 13 46.6716 13 47.5C13 48.3284 22.402 49 34 49Z" fill="#020202"/>
<path opacity="0.2" d="M34.5 49C43.0604 49 50 48.3284 50 47.5C50 46.6716 43.0604 46 34.5 46C25.9396 46 19 46.6716 19 47.5C19 48.3284 25.9396 49 34.5 49Z" fill="black"/>
<path d="M33.4451 41.6445C33.3334 42.5943 32.4674 46.086 32.635 46.5609C32.8026 47.0358 33.1099 47.2593 32.9144 47.8738C30.9869 47.8738 24.293 47.8738 24.293 47.8738C25.346 45.9829 27.9151 46.7649 29.2559 46.8207C30.5968 46.8766 30.8856 43.9351 30.9414 43.5161C30.9973 43.0971 30.8856 41.6445 30.8856 41.6445L33.4451 41.6445Z" fill="#97663E"/>
<path d="M36.3022 42.0537C36.1904 43.0035 35.3245 46.4952 35.4921 46.9701C35.6597 47.445 35.967 47.6684 35.7714 48.283C33.844 48.283 27.3652 48.283 27.3652 48.283C28.4183 46.3921 30.7721 47.174 32.113 47.2299C33.4538 47.2858 33.7426 44.3443 33.7985 43.9253C33.8544 43.5063 33.7426 42.0537 33.7426 42.0537L36.3022 42.0537Z" fill="#BA7E4D"/>
<path d="M20.0826 19.3155C19.2428 18.341 20.2875 16.2986 21.5911 15.4047C22.8947 14.5109 25.5763 14.0267 27.1406 15.8889C28.7049 17.7512 28.9168 20.1349 28.4757 22.1462C28.0345 24.1574 28.0207 23.6549 27.8669 25.7776C27.5876 29.6325 43.4622 33.8998 49.1899 34.344C51.9799 34.5604 55.0001 36.9698 55.0001 36.9698C52.7654 39.0928 44.5913 40.7389 42.2064 41.104C38.3142 41.7 36.2657 42.6683 33.5096 42.6311C30.7534 42.5938 24.3845 41.1413 21.2559 37.0443C18.1273 32.9473 19.3936 30.6008 21.3304 27.7702C23.2671 24.9396 24.4776 22.7793 23.2112 21.3268C21.9449 19.8742 21.3024 20.7308 20.0826 19.3155Z" fill="#C7BAA5"/>
<path d="M21.5911 30.7965C22.5687 27.221 25.2784 26.7829 26.0046 23.1705L23.7247 22.6631C23.7639 23.9999 22.7428 25.7059 21.3303 27.7703C19.3936 30.6009 18.1273 32.9474 21.2559 37.0444C22.2166 38.3024 23.4839 39.309 24.8573 40.104C22.1777 37.5658 20.6139 34.3701 21.5911 30.7965Z" fill="#6D533A"/>
<path opacity="0.19" d="M49.1898 34.3437C48.2235 34.2687 46.9644 34.0828 45.5467 33.8105C44.942 34.1121 44.2412 34.3405 43.7148 34.8465C35.6139 42.6318 19.3613 38.0868 20.6425 28.8135C19.1456 31.2147 18.5185 33.4593 21.2559 37.0439C24.3845 41.141 30.7534 42.5935 33.5096 42.6307C36.2657 42.668 38.3142 41.6996 42.2064 41.1037C44.5913 40.7385 52.7654 39.0925 55.0001 36.9695C55.0001 36.9695 51.9799 34.5601 49.1898 34.3437Z" fill="black"/>
<path d="M25.1807 31.1215C25.0176 29.2337 28.9217 26.8982 33.049 28.1162C37.1764 29.3341 39.0001 31.1665 42.3796 32.1105C45.759 33.0545 50.544 33.5666 51.2783 34.1775C50.3248 35.8821 45.341 37.7645 37.6011 37.2454C30.4876 36.7683 25.5828 35.7759 25.1807 31.1215Z" fill="#6D533A"/>
<path d="M27.9509 24.7481C28.0508 23.6447 28.1148 23.7959 28.4766 22.1462C28.9177 20.1349 28.7059 17.7512 27.1416 15.8889C25.5773 14.0267 22.8956 14.5109 21.592 15.4047C20.7855 15.9578 20.0807 16.9502 19.8574 17.8576L20.9504 20.0436C21.6855 20.4375 22.2801 20.2576 23.2122 21.3268C23.8577 22.0672 23.8572 22.9926 23.4474 24.0959C24.5731 24.7481 26.2488 25.167 27.9509 24.7481Z" fill="#527D48"/>
<path d="M20.0117 17.3818C19.3832 17.9824 17.6107 19.2597 16.3537 19.8603C15.0966 20.4608 14.3703 20.5865 14.6217 21.4944C15.2465 21.6152 16.186 21.3547 16.8565 21.1452C17.5269 20.9357 20.0549 20.3351 20.6276 20.3491C21.2002 20.3631 22.1779 20.5055 22.1779 20.5055C22.1779 20.5055 21.1074 19.8776 20.5019 18.999C19.9339 18.1749 20.0117 17.3818 20.0117 17.3818Z" fill="#BA7E4D"/>
</g>
<defs>
<clipPath id="clip0_2866_12564">
<rect width="64" height="68" fill="white" transform="translate(2)"/>
</clipPath>
</defs>
</svg>
