<svg width="68" height="68" viewBox="0 0 68 68" fill="none" xmlns="http://www.w3.org/2000/svg">
<path opacity="0.4" d="M34 68C51.6731 68 66 53.6731 66 36C66 18.3269 51.6731 4 34 4C16.3269 4 2 18.3269 2 36C2 53.6731 16.3269 68 34 68Z" fill="black" fill-opacity="0.05"/>
<path d="M34 66C51.6731 66 66 51.6731 66 34C66 16.3269 51.6731 2 34 2C16.3269 2 2 16.3269 2 34C2 51.6731 16.3269 66 34 66Z" fill="black" fill-opacity="0.05"/>
<path d="M34 65C51.6731 65 66 50.6731 66 33C66 15.3269 51.6731 1 34 1C16.3269 1 2 15.3269 2 33C2 50.6731 16.3269 65 34 65Z" fill="black" fill-opacity="0.05"/>
<path d="M34 64C51.6731 64 66 49.6731 66 32C66 14.3269 51.6731 0 34 0C16.3269 0 2 14.3269 2 32C2 49.6731 16.3269 64 34 64Z" fill="white"/>
<path opacity="0.19" d="M34 48C45.598 48 55 47.3284 55 46.5C55 45.6716 45.598 45 34 45C22.402 45 13 45.6716 13 46.5C13 47.3284 22.402 48 34 48Z" fill="#020202"/>
<path opacity="0.2" d="M36.9851 48C45.3604 48 52.1499 47.3284 52.1499 46.5C52.1499 45.6716 45.3604 45 36.9851 45C28.6098 45 21.8203 45.6716 21.8203 46.5C21.8203 47.3284 28.6098 48 36.9851 48Z" fill="black"/>
<path d="M47.5623 33.1732C48.2325 34.9629 48.3548 37.0749 48.3548 37.0749C47.9562 38.7403 46.9612 42.7316 47.3654 43.7141C46.8335 44.0412 46.2803 45.1766 46.3282 45.7251C45.5782 45.7251 44.0888 45.7251 44.0888 45.7251C44.142 44.5319 45.5942 43.2666 45.7697 42.5161C45.9452 41.7656 46.5676 39.8364 45.8419 37.9174C44.7552 35.044 44.1112 32.3842 43.6367 30.7773L47.5623 33.1732Z" fill="#717270"/>
<path d="M32.1623 35.0273C31.8924 35.9746 31.747 37.0481 31.8857 39.2916C31.5506 40.112 32.005 42.7123 32.3242 43.7876C31.1433 44.4411 31.3348 45.7251 31.3348 45.7251C29.5795 45.7251 29.404 45.7251 29.404 45.7251C29.4601 44.7795 30.2899 43.389 30.524 42.6659C30.7582 41.9424 30.1357 40.0054 29.8644 39.477C29.5931 38.9486 30.1024 37.1443 28.7793 35.083L32.1623 35.0273Z" fill="#717270"/>
<path d="M21.6692 18.2559C21.6692 18.2559 21.2793 17.3525 21.3038 16.8313C21.3274 16.3311 21.0947 15.7878 22.6267 16.341C24.1586 16.8942 30.2011 23.3835 30.2011 23.3835L29.5203 25.575L21.6692 18.2559Z" fill="#A0A0A0"/>
<path d="M50.4128 25.2139C51.4128 25.299 53.2851 28.7245 53.5617 32.1926C53.8383 35.6607 53.2 41.4054 52.4128 41.4692C51.6255 41.533 51.6912 35.4266 52.02 32.8522C52.3489 30.2777 51.9447 27.682 50.7745 26.9798C49.6042 26.2777 50.4128 25.2139 50.4128 25.2139Z" fill="#717270"/>
<path d="M16.0943 26.2138C14.8676 25.6881 14.9733 24.5721 15.0304 24.3627C15.2219 23.6606 16.0943 22.5968 17.2432 21.384C17.723 20.8776 17.5671 20.0814 17.9453 19.5755C18.5276 18.7965 19.5504 18.6465 19.8602 18.3414C19.1012 18.0764 18.2186 16.46 18.7502 16.1204C19.5161 15.6311 20.4649 16.7882 20.6262 17.0232C20.8417 17.3372 20.9774 17.4451 22.2857 18.0861C22.7562 18.3166 24.5487 20.1995 27.2964 22.8308C30.5623 25.9585 30.7603 24.5664 32.4405 25.101C34.3129 25.6968 38.2432 25.0489 39.6474 24.618C41.0517 24.1872 46.2438 22.3754 48.9028 23.7244C53.2432 25.9266 51.2183 30.0827 50.1413 31.9381C49.2521 33.4698 49.5459 33.5022 49.9097 34.5764C50.58 36.5551 51.073 37.5232 51.073 37.5232C50.6744 39.3645 49.6794 43.7774 50.0836 44.8636C49.5517 45.2253 48.9985 46.4806 49.0464 47.087C48.2964 47.087 46.807 47.087 46.807 47.087C46.8602 45.7679 48.3123 44.3689 48.4879 43.5392C48.6634 42.7094 49.1028 41.2938 48.3771 39.1721C47.2904 35.9952 44.9092 34.9159 44.4347 33.1393C40.456 36.5968 36.5427 36.1268 30.9097 35.3768C30.6398 36.4639 23.4076 36.5845 22.9948 39.1296C22.8034 40.3104 22.6651 40.9594 23.7821 41.7253C23.9417 42.9062 24.5539 44.4745 24.5539 44.4745C22.7986 44.4745 22.1074 43.278 21.7076 42.2785C21.2395 41.1083 20.798 37.7572 21.5268 36.7892C22.0456 36.1 25.4683 34.6721 24.997 33.7892C24.5636 32.9771 24.2476 32.7507 24.0917 31.0019C23.9383 29.2809 22.5192 28.2294 22.1225 27.3524C21.8193 26.6822 21.4652 24.7314 20.9879 24.8946C20.647 25.0112 19.1974 24.8051 18.0304 25.6393C17.3017 26.1603 17.7326 26.9159 16.0943 26.2138Z" fill="#CBCEC8"/>
<path d="M24.0877 17.3583C23.2656 16.3447 22.1246 16.1816 22.1246 16.1816C22.1246 16.1816 22.4611 17.1249 22.0395 17.9642C22.0396 17.9641 22.0394 17.9644 22.0395 17.9642C22.1103 18.8907 22.3259 22.6221 21.707 23.9272C22.8447 22.4919 23.2859 20.0038 23.1721 18.8262C23.172 18.8255 23.1721 18.8245 23.172 18.8238C23.795 18.2831 24.129 17.8912 24.0877 17.3583Z" fill="#413E36"/>
<path d="M25.6893 18.8066C24.6685 19.3167 24.7778 20.3811 24.7778 20.3815C24.8197 21.2111 24.4197 26.6397 23.3984 27.6184C25.4197 25.7673 25.833 21.4153 25.833 21.4153C25.8329 21.4155 25.8331 21.415 25.833 21.4153C26.0372 20.5657 27.1309 20.2154 27.1309 20.2154L25.6893 18.8066Z" fill="#413E36"/>
<path d="M28.3193 21.416C27.4759 21.8001 27.2211 22.7558 27.2205 22.7579C27.4817 25.0969 26.5541 29.0239 25.0586 30.2734C27.3921 29.3266 28.5249 23.9163 28.5249 23.9163C28.525 23.915 28.5256 23.914 28.5256 23.9127C28.5841 23.0075 29.6559 22.806 29.6559 22.806L28.3193 21.416Z" fill="#413E36"/>
<path d="M31.5697 34.7681C30.4784 31.3613 31.6942 26.2604 32.3241 25.0703C31.9208 24.959 31.6018 24.9564 31.2974 24.9636C30.9958 24.9729 30.7054 24.9874 30.3621 24.916L30.3586 24.9161C29.7293 26.0872 29.6867 32.0872 31.5697 34.7681Z" fill="#413E36"/>
<path d="M35.8205 35.3773C34.8601 32.5859 38.8519 25.6375 42.1776 23.8721C41.2665 24.108 40.494 24.3525 39.9734 24.5166C39.8504 24.5555 39.7402 24.5903 39.648 24.6185C38.243 25.5185 36.0702 28.1763 35.7124 29.0397C34.6176 31.6818 35.3227 25.9852 35.5569 25.3003C34.9464 25.3423 34.3439 25.3538 33.7936 25.3204C33.382 26.6201 33.7499 32.5455 35.8205 35.3773Z" fill="#413E36"/>
<path d="M36.2207 27.1486C36.7587 26.3684 37.6184 25.358 38.1195 24.9727C37.6549 25.0585 37.1418 25.1376 36.6107 25.2009C36.5918 25.203 36.5716 25.2067 36.5528 25.2087C36.0047 26.0753 35.6493 27.9773 36.2207 27.1486Z" fill="#413E36"/>
<path d="M38.2276 34.8744C39.2199 29.0405 45.8071 24.2912 48.6471 23.6189C47.8329 23.2823 46.8281 23.1931 45.7744 23.2542C45.7745 23.2542 45.7743 23.2542 45.7744 23.2542C43.0437 24.2553 36.4858 30.1106 38.2276 34.8744Z" fill="#413E36"/>
<path d="M51.4572 26.7643C51.33 26.1398 51.0446 25.5313 50.5533 24.9709C48.5742 24.6732 43.6378 27.1909 42.6543 32.1291C43.5591 29.0033 50.0435 26.1279 51.4572 26.7643Z" fill="#413E36"/>
<path d="M45.2715 31.6937C47.3079 30.377 50.5201 29.4183 51.2443 29.5229C51.3427 29.2101 51.4265 28.8884 51.4822 28.5599C49.4335 28.5283 45.9786 30.5723 45.2715 31.6937Z" fill="#413E36"/>
<path d="M49.8197 32.5388C49.9045 32.3649 50.0051 32.1735 50.1418 31.938C50.176 31.8791 50.2133 31.8115 50.2491 31.748C49.0253 31.8358 46.2375 33.3439 45.9238 33.7146C47.1299 33.1675 48.9043 32.6815 49.8197 32.5388Z" fill="#413E36"/>
<path opacity="0.19" d="M50.1423 31.938C50.6124 31.128 51.2629 29.8795 51.4859 28.5466C50.6709 29.5701 46.4852 30.0443 45.2724 27.6191C44.0596 25.1938 31.4213 29.2784 28.8009 28.4273C26.1805 27.5763 22.1135 19.3205 19.9958 20.4699C17.882 21.617 17.3166 26.0683 15.293 25.5766C15.2929 25.5765 15.2931 25.5767 15.293 25.5766C15.3665 25.6834 15.4636 25.7867 15.5751 25.8849C15.588 25.896 15.6003 25.9073 15.6128 25.9186C15.6199 25.9242 15.6253 25.9304 15.6325 25.9361C15.7598 26.0383 15.9088 26.1338 16.0952 26.2137C16.3 26.3014 16.4725 26.3664 16.6189 26.412C16.7653 26.4574 16.8858 26.4835 16.9865 26.4934C17.3892 26.5328 17.4764 26.3137 17.6518 26.0475C17.7394 25.9143 17.8492 25.7694 18.0314 25.6392C19.1983 24.805 20.6479 25.0111 20.9888 24.8945C21.4662 24.7313 21.8203 26.6821 22.1235 27.3523C22.5202 28.2293 23.9392 29.2807 24.0927 31.0018C24.2485 32.7506 24.5645 32.977 24.998 33.7891C25.4692 34.672 22.0466 36.0998 21.5277 36.789C20.799 37.7571 21.2405 41.1082 21.7086 42.2784C22.1083 43.2779 22.7996 44.4744 24.5549 44.4744C24.5549 44.4744 23.9426 42.906 23.7831 41.7252C22.666 40.9593 22.8043 40.3103 22.9958 39.1295C23.4085 36.5844 30.6408 36.4638 30.9107 35.3767C36.5437 36.1267 40.4569 36.5967 44.4357 33.1392C44.9102 34.9158 47.2914 35.9951 48.3781 39.172C49.1038 41.2937 48.6644 42.7093 48.4888 43.539C48.3133 44.3688 46.8612 45.7677 46.808 47.0869C46.808 47.0869 48.2974 47.0869 49.0474 47.0869C48.9995 46.4805 49.5527 45.2252 50.0846 44.8635C49.6803 43.7773 50.6754 39.3644 51.074 37.5231C51.074 37.5231 50.5809 36.555 49.9107 34.5763C49.5469 33.5021 49.2531 33.4697 50.1423 31.938Z" fill="black"/>
<path opacity="0.19" d="M43.9948 30.151C43.6368 31.1267 35.4313 34.4489 32.0696 32.6936C28.7079 30.9382 29.5693 33.7999 27.9097 32.7255C26.2501 31.651 23.1437 25.6191 22.2927 24.0659C21.4417 22.5127 20.0587 24.7893 19.4629 25.0234L19.4663 25.0554C19.4662 25.0554 19.4664 25.0554 19.4663 25.0554C19.6435 25.0218 19.8115 24.9994 19.9715 24.9838C19.9714 24.9838 19.9716 24.9838 19.9715 24.9838C19.9731 24.9837 19.9747 24.9835 19.9763 24.9834C19.9762 24.9834 19.9764 24.9834 19.9763 24.9834C20.1668 24.965 20.3431 24.9534 20.4941 24.9459C20.5989 24.94 20.7007 24.9347 20.7792 24.9281C20.8665 24.9204 20.9402 24.9111 20.9879 24.8948C21.0313 24.88 21.045 24.8878 21.0464 24.9053C21.4938 24.9143 21.8322 26.7107 22.1225 27.3526C22.5192 28.2296 23.9382 29.281 24.0917 31.0021C24.2476 32.7509 24.5635 32.9772 24.997 33.7894C25.4683 34.6723 22.0456 36.1001 21.5267 36.7893C20.798 37.7574 21.2395 41.1085 21.7076 42.2787C22.1074 43.2782 22.7986 44.4747 24.5539 44.4747C24.5539 44.4747 23.9417 42.9063 23.7821 41.7255C22.665 40.9595 22.8033 40.3106 22.9948 39.1298C23.4075 36.5847 30.6398 36.4641 30.9097 35.377C36.5427 36.127 40.4559 36.5969 44.4347 33.1395C44.9092 34.9161 47.2904 35.9954 48.3771 39.1723C49.1028 41.294 48.6634 42.7095 48.4879 43.5393C48.3123 44.3691 46.8602 45.768 46.807 47.0872C46.807 47.0872 48.2964 47.0872 49.0464 47.0872C48.9985 46.4808 49.5517 45.2255 50.0836 44.8638C49.6793 43.7776 50.6744 39.3647 51.073 37.5234C51.073 37.5234 50.58 36.5553 49.9097 34.5766C49.5459 33.5024 49.2521 33.47 50.1413 31.9382C50.4263 31.4473 50.7754 30.7929 51.0576 30.0585C48.3765 34.1699 44.202 29.5865 43.9948 30.151Z" fill="black"/>
</svg>
