<svg width="68" height="68" viewBox="0 0 68 68" fill="none" xmlns="http://www.w3.org/2000/svg">
<g clip-path="url(#clip0_2883_12572)">
<path opacity="0.4" d="M34 68C51.6731 68 66 53.6731 66 36C66 18.3269 51.6731 4 34 4C16.3269 4 2 18.3269 2 36C2 53.6731 16.3269 68 34 68Z" fill="black" fill-opacity="0.05"/>
<path d="M34 66C51.6731 66 66 51.6731 66 34C66 16.3269 51.6731 2 34 2C16.3269 2 2 16.3269 2 34C2 51.6731 16.3269 66 34 66Z" fill="black" fill-opacity="0.05"/>
<path d="M34 65C51.6731 65 66 50.6731 66 33C66 15.3269 51.6731 1 34 1C16.3269 1 2 15.3269 2 33C2 50.6731 16.3269 65 34 65Z" fill="black" fill-opacity="0.05"/>
<path d="M34 64C51.6731 64 66 49.6731 66 32C66 14.3269 51.6731 0 34 0C16.3269 0 2 14.3269 2 32C2 49.6731 16.3269 64 34 64Z" fill="white"/>
<path opacity="0.19" d="M34 50.5C45.6 50.5 55 49.8 55 49C55 48.2 45.6 47.5 34 47.5C22.4 47.5 13 48.2 13 49C13 49.8 22.4 50.5 34 50.5Z" fill="#020202"/>
<path opacity="0.2" d="M33 50.5C39.6 50.5 45 49.8 45 49C45 48.2 39.6 47.5 33 47.5C26.4 47.5 21 48.2 21 49C21 49.8 26.4 50.5 33 50.5Z" fill="black"/>
<path d="M22.3984 49.3002C22.3984 49.3002 22.9984 48.5002 23.3984 48.3002C23.8984 48.1002 24.7984 48.6002 25.3984 48.3002C26.4984 47.7002 27.1984 44.5002 27.6984 43.3002C28.1984 42.2002 27.1984 40.5002 26.3984 39.5002L28.6984 39.2002C28.6984 39.2002 29.6984 40.8002 29.6984 41.8002C29.7984 42.8002 28.8984 44.9002 28.3984 45.9002C28.1984 46.4002 27.6984 47.7002 27.8984 48.5002C28.1984 48.8002 28.2984 48.9002 28.3984 49.3002H22.3984Z" fill="#97663E"/>
<path d="M24.8984 49.8002C24.8984 49.8002 25.4984 49.0002 25.8984 48.8002C26.3984 48.6002 27.2984 49.1002 27.8984 48.8002C28.9984 48.2002 29.6984 45.0002 30.1984 43.8002C30.6984 42.7002 29.6984 41.0002 28.8984 40.0002L31.1984 39.7002C31.1984 39.7002 32.1984 41.3002 32.1984 42.3002C32.2984 43.3002 31.3984 45.4002 30.8984 46.4002C30.6984 46.9002 30.2984 48.3002 30.4984 49.1002C30.7984 49.4002 30.8984 49.4002 30.8984 49.8002H24.8984Z" fill="#BA7E4D"/>
<path d="M33.3991 19.0999C34.3991 11.6999 44.6991 18.4999 42.8991 21.8999C47.5991 22.6999 49.1991 32.5999 46.1991 32.9999C48.8991 36.0999 45.8991 43.2999 40.0991 43.2999C34.2991 43.2999 32.3991 41.5999 27.9991 41.4999C25.5991 38.7999 25.9991 36.5999 25.7991 36.2999C25.5991 35.8999 25.8991 35.2999 26.5991 34.1999C27.4991 32.8999 31.8991 30.4999 33.3991 19.0999Z" fill="#005BCC"/>
<path opacity="0.19" d="M26.0988 38.0002C26.0988 38.0002 26.0988 38.1002 26.1989 38.1002C26.1989 38.2002 26.2988 38.3002 26.2988 38.3002C26.2988 38.3002 26.2988 38.4002 26.3989 38.4002C26.4988 38.5002 26.4988 38.6002 26.5988 38.7002L26.6989 38.8002C26.7988 38.9002 26.8989 39.0002 26.9988 39.1002L27.0988 39.2002C27.1989 39.4002 27.3989 39.5002 27.4988 39.7002C27.9714 40.1727 28.4935 40.9648 29.2275 41.5768C32.8058 41.9224 34.8704 43.3002 40.0988 43.3002C45.8989 43.3002 48.8989 36.1002 46.1989 33.0002C47.8723 32.777 48.1114 29.5982 47.1824 26.6914C46.0025 32.6316 40.1944 31.8912 30.9988 28.6002C30.7988 29.0002 30.5988 29.4002 30.3988 29.8002C30.3988 29.8002 30.3988 29.9002 30.2988 29.9002C30.0988 30.2002 29.8988 30.5002 29.6989 30.8002C28.7988 32.1002 27.9988 32.9002 27.3988 33.4002C27.2988 33.5002 27.2988 33.5002 27.1989 33.6002C27.0988 33.7002 27.0988 33.7002 27.0988 33.8002C26.9988 33.9002 26.8988 34.0002 26.8988 34.1002C26.5334 34.3925 26.3826 34.5781 26.2493 34.7739C26.1227 34.9886 26.0225 35.1791 25.9432 35.3492C25.9225 35.4055 25.8989 35.4647 25.8989 35.5002V35.6002C25.8989 35.7002 25.7988 35.9002 25.7988 36.0002C25.7988 36.1002 25.7988 36.1002 25.7988 36.2002V36.3002C25.8955 36.4452 25.8543 37.037 26.0546 37.9118C26.0764 37.9342 26.0988 37.956 26.0988 38.0002Z" fill="black"/>
<path d="M33.3991 19.0998C35.9991 17.1998 42.1991 21.6998 39.9991 24.6998C44.0991 25.4998 45.2991 31.6998 42.3991 33.6998C44.4991 36.8998 42.0991 41.3998 38.7991 40.9998C36.2991 40.6998 28.5991 39.9998 26.4991 37.2998C24.6991 34.8998 25.3991 34.6998 25.2991 34.3998C25.1991 34.0998 25.8991 33.7998 26.7991 32.7998C27.6991 31.5998 32.0991 28.5998 33.3991 19.0998Z" fill="#9EA63E"/>
<path opacity="0.19" d="M43.1369 27.0479C41.5987 31.4074 33.2504 32.7615 30.2504 28.5779C29.2421 30.2183 28.2341 31.2864 27.5383 32.0001H27.5997C26.9998 33.6001 26.4998 34.7001 26.5997 34.9001C26.6998 35.2001 24.7997 34.9001 26.6998 37.3001C27.2271 38.012 28.1607 38.6057 29.2876 39.1036C32.4509 40.3507 36.9877 40.7827 38.7997 41.0001C42.0997 41.4001 44.4998 36.9001 42.3998 33.7001C42.8275 33.4052 43.1555 33.0114 43.4087 32.5645C43.411 32.5563 43.4132 32.5556 43.4182 32.5468C44.2819 31.0032 44.1366 28.761 43.1369 27.0479Z" fill="black"/>
<path d="M35.6992 36.9999C37.4992 36.2999 34.9992 32.6999 32.5992 33.0999C32.0992 30.1999 26.0992 33.5999 25.4992 29.3999C25.1992 27.8999 25.5992 23.8999 25.7992 22.6999C25.9992 21.0999 24.9992 19.7999 23.3992 19.8999C22.4992 19.8999 21.7992 20.3999 21.4992 21.0999C21.0992 21.8999 21.2992 22.3999 21.2992 22.7999C21.2992 23.1999 20.2992 24.2999 20.4992 24.7999C20.5992 24.9999 20.5992 24.9999 20.7992 24.8999C20.9992 24.7999 22.0992 24.2999 22.2992 24.1999C22.4992 24.0999 22.8992 23.8999 22.7992 24.8999C22.6992 25.9999 21.7992 27.9999 21.1992 29.9999C20.4992 31.9999 19.9992 33.9999 20.4992 36.6999C20.9992 39.2999 22.7992 40.5999 23.9992 40.9999C25.1992 41.3999 32.2992 41.9999 33.3992 41.2999C34.1992 41.0999 34.6992 40.5999 34.3992 39.9999C36.4992 40.3999 37.9992 37.9999 35.6992 36.9999Z" fill="#005BCC"/>
<path opacity="0.19" d="M35.6993 36.9994C36.6529 36.6285 36.3938 35.4458 35.5877 34.473C35.8647 37.3698 25.0971 40.1952 22.9992 35.9994C21.3993 32.6994 23.5992 25.9994 23.7992 24.4994C23.8993 23.7994 23.5992 22.7994 22.9992 22.6994C22.3993 22.5994 22.0992 22.8994 21.6993 23.5994C21.5025 23.9929 20.6107 24.1997 20.4865 24.6823C20.4897 24.7219 20.4855 24.765 20.4992 24.7994C20.5992 24.9994 20.5992 24.9994 20.7992 24.8994C20.9992 24.7994 22.0992 24.2994 22.2992 24.1994C22.4992 24.0994 22.8993 23.8994 22.7992 24.8994C22.6993 25.9994 21.7992 27.9994 21.1993 29.9994C20.4992 31.9994 19.9992 33.9994 20.4992 36.6994C20.9992 39.2994 22.7992 40.5994 23.9992 40.9994C25.1993 41.3994 32.2992 41.9994 33.3993 41.2994C34.1993 41.0994 34.6993 40.5994 34.3993 39.9994C36.4992 40.3994 37.9992 37.9994 35.6993 36.9994Z" fill="black"/>
<path d="M24.6985 34.7001C23.9985 37.8001 27.8985 40.1001 33.2985 39.5001C31.0985 37.3001 32.4985 35.7001 29.8985 34.0001C27.2985 32.3001 24.9985 33.5001 24.6985 34.7001Z" fill="#BA7E4D"/>
</g>
<defs>
<clipPath id="clip0_2883_12572">
<rect width="64" height="68" fill="white" transform="translate(2)"/>
</clipPath>
</defs>
</svg>
