<svg width="68" height="68" viewBox="0 0 68 68" fill="none" xmlns="http://www.w3.org/2000/svg">
<path opacity="0.4" d="M34 68C51.6731 68 66 53.6731 66 36C66 18.3269 51.6731 4 34 4C16.3269 4 2 18.3269 2 36C2 53.6731 16.3269 68 34 68Z" fill="black" fill-opacity="0.05"/>
<path d="M34 66C51.6731 66 66 51.6731 66 34C66 16.3269 51.6731 2 34 2C16.3269 2 2 16.3269 2 34C2 51.6731 16.3269 66 34 66Z" fill="black" fill-opacity="0.05"/>
<path d="M34 65C51.6731 65 66 50.6731 66 33C66 15.3269 51.6731 1 34 1C16.3269 1 2 15.3269 2 33C2 50.6731 16.3269 65 34 65Z" fill="black" fill-opacity="0.05"/>
<path d="M34 64C51.6731 64 66 49.6731 66 32C66 14.3269 51.6731 0 34 0C16.3269 0 2 14.3269 2 32C2 49.6731 16.3269 64 34 64Z" fill="white"/>
<path opacity="0.2" d="M34.0059 47.25C45.6038 47.25 55.0059 46.5784 55.0059 45.75C55.0059 44.9216 45.6038 44.25 34.0059 44.25C22.4079 44.25 13.0059 44.9216 13.0059 45.75C13.0059 46.5784 22.4079 47.25 34.0059 47.25Z" fill="black"/>
<path opacity="0.2" d="M34 47.25C43.9411 47.25 52 46.5784 52 45.75C52 44.9216 43.9411 44.25 34 44.25C24.0589 44.25 16 44.9216 16 45.75C16 46.5784 24.0589 47.25 34 47.25Z" fill="black"/>
<path d="M14.6461 30.5425C13.6966 29.6633 14.0131 28.538 14.6461 26.6741C15.2791 24.8103 14.8923 24.6696 16.8968 23.7904C18.9013 22.9113 21.4685 20.3792 22.8752 20.8716C24.2819 21.3639 23.7895 22.8409 24.6687 23.1574C25.5479 23.4739 29.8031 18.7764 36.9771 20.8087C44.1512 22.8409 48.6174 28.327 50.0416 34.7625C51.4659 41.1981 50.5011 47.5 47.0004 49C41.4088 51.3959 36.9828 46.4041 40.0004 42.5C43.1654 39.4405 47.2564 42.1732 46.0004 45.5C45.7312 46.213 43.5004 47.1764 43.2691 46.1566C43.0004 45 45.0004 45.5 44.6317 44.4547C44.1187 43 42.0004 43 41.5004 44C41.0004 45 41.157 46.1566 42.0004 47C42.5004 47.5 45.2589 48.6534 47.4393 46.1566C49.6196 43.6597 47.6679 38.0067 46.903 37.3209C46.1381 36.6351 38.7707 33.9185 34.8495 32.4415C32.6919 31.6287 28.3142 31.3302 24.2557 31.0947C20.4286 30.8727 15.6484 32.0722 14.6461 30.5425Z" fill="#0D7A4E"/>
<path d="M19.4846 27.9574C20.7155 27.9574 21.7133 26.9596 21.7133 25.7287C21.7133 24.4978 20.7155 23.5 19.4846 23.5C18.2537 23.5 17.2559 24.4978 17.2559 25.7287C17.2559 26.9596 18.2537 27.9574 19.4846 27.9574Z" fill="#2FAD77"/>
<path opacity="0.2" d="M46.2982 31.3328C43.5496 25.9066 31.0296 24.572 24.6599 26.9162C23.2338 27.4411 24.0495 23.2002 21.7131 24.6186C17.1035 27.4171 15.6599 26.0654 16.8968 23.793C14.8923 24.6722 15.2791 24.8129 14.6461 26.6767C14.0131 28.5405 13.6967 29.6659 14.6461 30.545C15.6484 32.0748 20.4286 30.8752 24.2557 31.0973C28.3142 31.3328 32.6918 31.6313 34.8495 32.444C38.7706 33.9211 46.1381 36.6377 46.903 37.3235C47.63 37.9753 49.4216 43.1091 47.7259 45.7605C47.73 45.7569 47.7327 45.7549 47.7368 45.7513C50.3243 43.4586 49.2344 37.1292 46.2982 31.3328Z" fill="black"/>
<path opacity="0.2" d="M27.8943 29.4055C20.4901 27.8736 17.5114 30.8523 14.6465 30.5447C15.6487 32.0745 20.429 30.8749 24.256 31.097C28.3146 31.3325 32.6922 31.631 34.8499 32.4437C38.771 33.9207 46.1385 36.6374 46.9034 37.3232C47.0972 37.497 47.3672 37.9916 47.627 38.6713C47.6269 38.6715 47.627 38.6711 47.627 38.6713C46.4236 31.2981 35.2986 30.9374 27.8943 29.4055Z" fill="black"/>
<path d="M23.7153 32.9732C25.3886 33.2429 25.6921 33.2777 26.4907 33.2268C27.2894 33.1759 29.4042 33.2344 30.2595 33.5985C31.1147 33.9626 33.5672 34.225 34.1578 34.2008C34.7483 34.1766 38.9897 34.7194 39.5806 35.0762C40.1714 35.433 45.4751 35.1703 45.9027 35.3523C46.3303 35.5344 46.9266 35.6279 47.6014 35.4641C48.2762 35.3004 49.4971 35.6949 50.5769 35.6234C51.6567 35.552 52.7482 35.9064 53.4567 35.6869C54.1652 35.4673 54.1648 33.8146 53.1488 33.5895C52.1329 33.3644 51.9698 33.3802 50.8899 33.4517C49.8101 33.5231 49.0782 32.7004 48.3752 32.8471C47.6723 32.9939 45.8671 33.3128 44.7251 33.0421C43.5831 32.7714 41.5298 32.2931 40.8157 32.5854C40.1017 32.8777 37.3058 32.2938 35.6352 32.199C33.9647 32.1041 33.4412 31.6357 32.53 31.6187C31.6188 31.6016 25.7406 30.9081 24.5201 30.8946C23.2996 30.8811 22.4251 32.7653 23.7153 32.9732Z" fill="#776B53"/>
<path d="M36.4798 33.2803C35.2624 32.9643 26.5787 32.2983 23.5291 31.333C22.9639 31.8995 22.8301 32.8308 23.7152 32.9734C25.3885 33.2431 25.692 33.2779 26.4906 33.227C27.2893 33.1762 29.4041 33.2347 30.2594 33.5987C31.1146 33.9628 33.5671 34.2252 34.1577 34.201C34.7482 34.1768 38.9895 34.7196 39.5804 35.0764C40.1713 35.4332 45.475 35.1705 45.9026 35.3526C46.3302 35.5346 46.9265 35.6281 47.6013 35.4644C48.2761 35.3007 49.497 35.6951 50.5768 35.6236C51.6566 35.5522 52.7481 35.9066 53.4566 35.6871C53.7761 35.5881 53.942 35.1957 53.945 34.7761C50.8123 34.2484 47.0632 34.7071 46.2901 34.7108C45.289 34.7155 37.8074 33.6251 36.4798 33.2803Z" fill="#5E5442"/>
<path d="M43.5564 26.6899C42.3168 27.0521 42.2377 27.3916 42.264 29.0669C42.2904 30.7421 41.6389 31.8228 40.5437 32.3291C39.4486 32.8354 38.0331 34.4302 39.565 35.8504C40.4879 36.706 41.9552 35.6651 41.8627 35.272C41.2561 35.0682 42.0998 32.6939 43.6182 32.9382C44.4613 33.0738 45.4291 26.3277 43.5564 26.6899Z" fill="#19915D"/>
<path d="M27.5349 27.5012C28.2558 27.7397 31.5046 27.7411 31.5749 29.0422C31.6141 29.7673 29.7275 31.4706 29.0802 31.4226C28.4872 31.3786 27.8331 32.5342 28.0965 33.2385C28.3415 33.8933 26.2226 34.3911 25.6823 33.2371C25.5894 33.0388 25.1798 31.4579 26.5537 30.7657C27.0499 30.5156 27.6603 30.0062 28.2558 29.6992C26.3041 29.5409 24.419 29.7548 25.3546 28.187C26.0052 27.0968 27.0775 27.3499 27.5349 27.5012Z" fill="#19915D"/>
</svg>
