<svg width="68" height="68" viewBox="0 0 68 68" fill="none" xmlns="http://www.w3.org/2000/svg">
<path opacity="0.4" d="M34 68C51.6731 68 66 53.6731 66 36C66 18.3269 51.6731 4 34 4C16.3269 4 2 18.3269 2 36C2 53.6731 16.3269 68 34 68Z" fill="black" fill-opacity="0.05"/>
<path d="M34 66C51.6731 66 66 51.6731 66 34C66 16.3269 51.6731 2 34 2C16.3269 2 2 16.3269 2 34C2 51.6731 16.3269 66 34 66Z" fill="black" fill-opacity="0.05"/>
<path d="M34 65C51.6731 65 66 50.6731 66 33C66 15.3269 51.6731 1 34 1C16.3269 1 2 15.3269 2 33C2 50.6731 16.3269 65 34 65Z" fill="black" fill-opacity="0.05"/>
<path d="M34 64C51.6731 64 66 49.6731 66 32C66 14.3269 51.6731 0 34 0C16.3269 0 2 14.3269 2 32C2 49.6731 16.3269 64 34 64Z" fill="white"/>
<path opacity="0.2" d="M33.9996 50.8721C42.7594 50.8721 49.8605 50.2005 49.8605 49.3721C49.8605 48.5437 42.7594 47.8721 33.9996 47.8721C25.2399 47.8721 18.1387 48.5437 18.1387 49.3721C18.1387 50.2005 25.2399 50.8721 33.9996 50.8721Z" fill="black"/>
<path opacity="0.2" d="M34.0001 50.8721C40.2868 50.8721 45.3831 50.2005 45.3831 49.3721C45.3831 48.5437 40.2868 47.8721 34.0001 47.8721C27.7135 47.8721 22.6172 48.5437 22.6172 49.3721C22.6172 50.2005 27.7135 50.8721 34.0001 50.8721Z" fill="black"/>
<path d="M37.9904 28.8893C39.114 28.2851 40.0113 27.4074 40.7135 27.2586C41.1861 27.1585 42.8271 24.6612 43.7032 21.3178C44.5794 17.9743 43.7445 16.8905 44.4204 16.5286C45.0964 16.1667 45.1265 20.6187 44.3509 22.7624C43.5753 24.9062 42.4342 27.9167 41.5273 28.4966C40.6204 29.0765 37.9406 30.3479 36.7028 30.6571C35.465 30.9663 37.9904 28.8893 37.9904 28.8893Z" fill="#726256"/>
<path d="M36.7303 31.5905C37.2941 31.2072 41.0402 30.1312 41.7197 30.0245C42.3993 29.9178 47.4521 27.0081 47.8006 27.6701C48.1491 28.3322 42.8349 31.1026 41.8591 31.364C40.8834 31.6253 37.8517 32.8101 36.8411 32.8101C35.8305 32.8101 36.7303 31.5905 36.7303 31.5905Z" fill="#726256"/>
<path d="M36.2571 34.3685C36.9953 34.3529 40.9503 33.6644 41.5797 33.7515C42.2092 33.8386 47.4167 42.533 48.4272 42.4285C49.4378 42.3239 43.3221 32.5493 42.5903 32.4099C41.8585 32.2705 39.8976 32.5238 39.3535 32.6456C38.1861 32.9069 36.9236 33.1939 36.5249 33.2114C36.1261 33.2288 35.4849 34.3848 36.2571 34.3685Z" fill="#726256"/>
<path d="M35.9692 34.7653C36.148 35.143 37.154 36.6772 37.7115 36.5596C38.2691 36.4419 39.2274 35.7507 39.2274 35.7507C39.541 36.5007 40.7084 41.9865 41.0046 43.8837C41.3008 45.7809 40.7607 47.5311 41.4576 47.5752C42.1546 47.6193 42.294 44.4426 42.172 43.0601C42.05 41.6776 41.3083 34.9581 40.0637 34.4859C39.2013 34.1586 38.0382 34.5778 37.607 34.9418C37.0581 34.7212 36.5877 34.1366 36.1173 34.2248C35.6468 34.3131 35.9082 34.6365 35.9692 34.7653Z" fill="#726256"/>
<path d="M29.8572 28.9551C28.7481 28.3246 27.8717 27.4261 27.1733 27.2608C26.7032 27.1495 25.1214 24.6143 24.3242 21.2512C23.527 17.888 24.3872 16.8241 23.72 16.4464C23.0527 16.0687 22.9178 20.5188 23.6427 22.6802C24.3676 24.8416 25.4375 27.8781 26.3305 28.4792C27.2235 29.0803 29.8726 30.4144 31.1028 30.7527C32.333 31.091 29.8572 28.9551 29.8572 28.9551Z" fill="#726256"/>
<path d="M31.2683 31.5914C30.7045 31.2081 26.9584 30.1322 26.2789 30.0255C25.5994 29.9188 20.5465 27.009 20.198 27.6711C19.8496 28.3332 25.1638 31.1036 26.1395 31.3649C27.1152 31.6263 30.1469 32.8111 31.1575 32.8111C32.1681 32.8111 31.2683 31.5914 31.2683 31.5914Z" fill="#726256"/>
<path d="M31.7415 34.3685C31.0034 34.3529 27.0483 33.6644 26.4189 33.7515C25.7895 33.8386 20.582 42.533 19.5714 42.4285C18.5608 42.3239 24.6765 32.5493 25.4083 32.4099C26.1401 32.2705 28.101 32.5238 28.6451 32.6456C29.8125 32.9069 31.075 33.1939 31.4737 33.2114C31.8725 33.2288 32.5138 34.3848 31.7415 34.3685Z" fill="#726256"/>
<path d="M32.0295 34.7653C31.8506 35.143 30.8446 36.6772 30.2871 36.5596C29.7295 36.4419 28.7712 35.7507 28.7712 35.7507C28.4576 36.5007 27.2902 41.9865 26.994 43.8837C26.6978 45.7809 27.2379 47.5311 26.541 47.5752C25.8441 47.6193 25.7047 44.4426 25.8266 43.0601C25.9486 41.6776 26.6903 34.9581 27.9349 34.4859C28.7974 34.1586 29.9604 34.5778 30.3916 34.9418C30.9405 34.7212 31.4109 34.1366 31.8814 34.2248C32.3518 34.3131 32.0904 34.6365 32.0295 34.7653Z" fill="#726256"/>
<path d="M38.4171 27.821C38.4501 27.1296 36.244 21.6309 33.9021 21.6309C31.5602 21.6309 29.3542 27.1296 29.3871 27.821C29.42 28.5125 29.6505 29.632 31.231 31.0807C30.342 32.0356 31.103 34.2746 31.6444 34.538C31.0334 36.0855 32.655 38.0611 33.9021 38.0611C35.1492 38.0611 36.7708 36.0855 36.1598 34.538C36.7012 34.2746 37.4623 32.0356 36.5733 31.0807C38.1537 29.632 38.3842 28.5125 38.4171 27.821Z" fill="#99846D"/>
<path opacity="0.2" d="M31.231 31.0811C30.342 32.0359 31.103 34.2749 31.6444 34.5383C31.0334 36.0858 32.655 38.0614 33.9021 38.0614C34.7054 38.0614 35.6557 37.2396 36.073 36.2426C35.3094 36.6746 33.9503 34.9227 34.9981 34.2159C34.0194 33.2159 33.7853 31.2171 35.2534 30.4298C33.6045 29.3554 31.394 23.5339 32.4898 22.251C30.7466 23.7037 29.361 27.2725 29.3871 27.8213C29.42 28.5128 29.6505 29.6323 31.231 31.0811Z" fill="black"/>
<path opacity="0.2" d="M30.9703 24.1104C30.0101 25.6669 29.3693 27.4468 29.3871 27.821C29.42 28.5125 29.6505 29.632 31.231 31.0807C30.342 32.0356 31.103 34.2746 31.6444 34.538C31.0334 36.0855 32.655 38.0611 33.9021 38.0611C34.5735 38.0611 35.3428 37.4821 35.8244 36.712C34.53 38.0611 32.1189 35.6852 32.7275 34.2873C31.7802 33.4429 31.7164 30.8897 33.1685 30.4509C31.4247 30.2378 29.9604 26.0621 30.9703 24.1104Z" fill="black"/>
</svg>
