<svg width="68" height="68" viewBox="0 0 68 68" fill="none" xmlns="http://www.w3.org/2000/svg">
<path opacity="0.4" d="M34 68C51.6731 68 66 53.6731 66 36C66 18.3269 51.6731 4 34 4C16.3269 4 2 18.3269 2 36C2 53.6731 16.3269 68 34 68Z" fill="black" fill-opacity="0.05"/>
<path d="M34 66C51.6731 66 66 51.6731 66 34C66 16.3269 51.6731 2 34 2C16.3269 2 2 16.3269 2 34C2 51.6731 16.3269 66 34 66Z" fill="black" fill-opacity="0.05"/>
<path d="M34 65C51.6731 65 66 50.6731 66 33C66 15.3269 51.6731 1 34 1C16.3269 1 2 15.3269 2 33C2 50.6731 16.3269 65 34 65Z" fill="black" fill-opacity="0.05"/>
<path d="M34 64C51.6731 64 66 49.6731 66 32C66 14.3269 51.6731 0 34 0C16.3269 0 2 14.3269 2 32C2 49.6731 16.3269 64 34 64Z" fill="white"/>
<path opacity="0.2" d="M34 52.8477C44.4934 52.8477 53 52.1761 53 51.3477C53 50.5192 44.4934 49.8477 34 49.8477C23.5066 49.8477 15 50.5192 15 51.3477C15 52.1761 23.5066 52.8477 34 52.8477Z" fill="black"/>
<path opacity="0.2" d="M39 52.8477C46.1797 52.8477 52 52.1761 52 51.3477C52 50.5192 46.1797 49.8477 39 49.8477C31.8203 49.8477 26 50.5192 26 51.3477C26 52.1761 31.8203 52.8477 39 52.8477Z" fill="black"/>
<path d="M34.7511 35.9271C34.5742 37.7184 35.6822 41.2887 36.8056 43.3986C38.4727 46.5295 38.4984 50.4083 38.6138 51.3471C39.2602 51.3471 41.3223 51.3471 41.3223 51.3471C40.499 50.5238 39.214 44.8067 39.1909 43.1446C38.5446 41.9042 38.1291 36.9147 38.8447 34.4678L34.7511 35.9271Z" fill="#9E785E"/>
<path d="M44.2148 35.9273C44.5688 37.6355 46.1154 42.243 46.9156 43.6588C48.1282 45.804 47.9621 50.4085 48.0775 51.3473C48.7239 51.3473 50.786 51.3473 50.786 51.3473C49.9627 50.5239 48.67 42.9076 48.9162 41.1657C48.1776 39.7192 47.4697 36.7644 47.7417 34.2148L44.2148 35.9273Z" fill="#9E785E"/>
<path d="M46.3896 37.0333C46.8799 36.9547 47.3545 36.785 47.7448 36.5783C47.6745 35.7879 47.6595 34.984 47.7416 34.2148L44.2148 35.9273C44.2487 36.0905 44.2963 36.2869 44.3502 36.4976C45.0925 36.9425 45.7807 37.1309 46.3896 37.0333Z" fill="#68300B"/>
<path d="M49.046 43.8783C48.9059 42.686 48.8444 41.6732 48.9162 41.1654C48.5305 40.4101 48.157 39.2406 47.9232 37.9353C46.069 37.4422 45.6526 37.4111 44.7687 37.5977C44.7358 37.6046 44.6981 37.6159 44.6641 37.6238C45.2849 39.7094 46.3122 42.5908 46.9156 43.6585C46.9724 43.7589 47.3037 44.4547 47.4437 45.0209C48.2183 45.0957 48.5304 44.0213 49.046 43.8783Z" fill="#68300B"/>
<path d="M35.3887 38.4065C35.5605 39.0478 37.6844 40.5263 38.6339 40.7193C38.3918 38.7094 38.3784 36.0555 38.8427 34.4678L36.0328 35.4695C35.61 36.7002 35.2846 38.0172 35.3887 38.4065Z" fill="#68300B"/>
<path d="M38.4105 41.8842C37.6645 40.8326 36.4103 40.1226 35.4688 40.1172C35.8455 41.3092 36.32 42.4897 36.804 43.3987C37.6122 44.9167 38.0328 46.6083 38.2667 48.0575C38.8829 46.3139 39.1103 42.8707 38.4105 41.8842Z" fill="#68300B"/>
<path d="M39.5706 45.8232C39.358 46.5679 39.2166 47.4569 39.1664 48.467C39.0836 50.1381 39.1774 50.5535 39.7867 51.2172C39.8332 51.2679 39.8759 51.3026 39.9209 51.3473C40.6287 51.3473 41.3217 51.3473 41.3217 51.3473C40.7723 50.7979 40.0189 48.0718 39.5706 45.8232Z" fill="#68300B"/>
<path d="M48.3789 45.4385C48.1917 45.6421 47.9509 45.8947 47.6914 46.1635C48.0515 48.2938 47.9974 50.6974 48.0772 51.3469C48.1103 51.3469 48.1608 51.3469 48.2009 51.3469C48.3582 51.2787 48.4979 51.1783 48.6596 51.0336C49.0023 50.7271 49.6591 50.4593 50.1193 50.4384C50.1904 50.4351 50.2675 50.4229 50.3431 50.4132C49.9031 49.1094 49.4351 46.7608 49.1511 44.7031C48.8919 44.9242 48.6251 45.1705 48.3789 45.4385Z" fill="#68300B"/>
<path d="M35.4862 35.665L34.7501 35.9275C34.7148 36.2844 34.7424 36.7249 34.7991 37.1974C34.8588 37.0665 34.9191 36.9362 34.9802 36.8101C35.1926 36.3716 35.3523 36.004 35.4862 35.665Z" fill="#68300B"/>
<path d="M17.3072 18.5747C16.6274 18.1886 17.8513 16.6958 19.1748 15.5724C19.3163 15.4522 18.8836 14.6383 19.5858 14.2872C21.3017 13.4293 21.8398 12.1976 21.9086 12.0189C22.3087 11.8804 22.8473 12.5422 22.6934 12.7114C22.5395 12.8807 22.1548 13.5886 22.1548 13.5886C22.3856 13.7887 22.7203 13.8656 22.7203 13.8656C23.0166 13.3424 23.586 12.9115 23.9707 13.3732C24.3554 13.8348 23.4321 14.3889 23.4321 14.3889C24.4324 15.0506 27.3333 17.5052 28.5105 18.7286C29.6878 19.952 33.5428 22.7913 35.1125 23.2069C36.6822 23.6224 37.5132 22.9529 38.552 24.084C39.5907 25.2151 42.7532 27.5928 45.177 28.1929C47.6008 28.7931 48.3626 32.2557 48.7781 34.9565C49.1936 37.6573 49.0665 37.5269 49.0665 37.5269C49.3098 37.9093 50.639 38.7234 50.8943 42.1223C48.2773 40.1915 48.4929 37.805 48.5624 37.4922C48.5711 36.936 48.1779 33.7792 47.7162 33.1021C48.024 35.0257 46.4928 39.8272 47.8547 42.251C46.9314 43.9592 46.0542 49.612 46.3312 52C44.7923 52 44.0326 52 44.0326 52C45.1714 50.8612 45.5099 43.5052 45.0483 42.274C44.5866 41.0429 42.0877 39.0784 41.9408 36.4321C40.3403 37.2631 38.7612 37.1506 37.4685 36.7812C37.4975 38.6045 34.7321 42.5851 34.609 44.0515C33.8472 44.7209 32.9162 51.0613 32.8008 52C32.1544 52 30.3264 52 30.3264 52C31.1498 51.1767 32.4348 45.4596 32.4578 43.7976C32.4809 42.1355 33.5197 37.5676 32.8041 35.1207C32.0885 32.6738 32.0885 32.3737 32.6887 31.058C33.2889 29.7422 31.5427 28.6414 29.5113 26.5638C27.4799 24.4863 24.8479 21.0062 23.2474 18.662C21.8271 16.5816 21.0575 17.3566 20.7098 17.5652C20.3622 17.7737 19.5019 17.4088 18.937 17.852C18.3721 18.2952 18.365 19.1755 17.3072 18.5747Z" fill="#E1BC9A"/>
<path d="M47.8892 32.5032C47.9776 32.6045 48.1615 32.7225 48.3821 32.8433C48.1956 32.05 47.9541 31.2713 47.6351 30.5781C47.5837 31.4739 47.6535 32.233 47.8892 32.5032Z" fill="#AB5305"/>
<path d="M47.7547 33.8654C47.3321 33.1753 46.9321 32.2559 46.8472 31.7545C46.7575 31.2247 46.5623 30.3967 46.413 29.9149C46.1605 29.1 46.062 29.041 45.002 29.0742C44.3757 29.0936 43.4414 29.1847 42.9265 29.2764C42.0524 29.4321 41.9671 29.5411 41.6409 30.926C41.1159 33.1539 41.1788 33.5226 42.2909 34.7382C42.8562 35.3559 42.791 35.9561 43.3147 36.3298C44.2206 36.9763 45.5435 36.7809 46.2669 36.665C46.649 36.6037 47.1442 36.8542 47.4762 36.7086C47.6009 35.6446 47.7395 34.646 47.7547 33.8654Z" fill="#AB5305"/>
<path d="M37.0929 24.0104C37.2077 23.9249 36.9161 23.4927 36.8048 23.3723C36.3267 23.3652 35.791 23.3857 35.1143 23.2066C34.8061 23.125 34.4081 22.9478 33.9613 22.71C34.0368 23.5265 33.2569 24.2338 33.7647 24.3088C35.024 24.4947 36.3039 24.5982 37.0929 24.0104Z" fill="#AB5305"/>
<path d="M36.8997 25.1911C36.5491 25.8223 36.9832 30.7675 37.666 31.5421C38.6941 32.708 40.5388 33.0709 41.2086 30.4411C41.6445 28.7295 41.8211 27.5195 41.5735 26.4794C40.553 25.8215 39.6336 25.109 39.0154 24.54C38.8944 24.5585 38.7812 24.5753 38.6402 24.5979C37.9207 24.7133 37.0077 24.9968 36.8997 25.1911Z" fill="#AB5305"/>
<path d="M45.3536 28.255L45.3576 28.2528C45.2971 28.2335 45.24 28.2082 45.1772 28.1926C44.39 27.9977 43.5267 27.606 42.6816 27.1396C42.6898 27.1907 42.6934 27.2338 42.7021 27.286C42.9446 28.7352 43.5235 28.9466 45.3536 28.255Z" fill="#AB5305"/>
<path d="M47.8561 42.2505C47.2143 41.1083 47.2169 39.4385 47.3649 37.7904C45.9777 37.44 45.5573 37.4318 44.7704 37.5978C44.2202 37.7142 43.5599 37.2549 43.0765 37.2549C42.6456 37.2549 42.582 38.1645 42.582 38.5824C43.3944 40.1634 44.7238 41.4048 45.0496 42.2736C45.1415 42.5186 45.2003 43.0124 45.2288 43.6453C45.9177 43.824 46.6032 43.9426 47.2352 43.9928C47.4307 43.2615 47.6418 42.647 47.8561 42.2505Z" fill="#AB5305"/>
<path d="M32.4645 24.2661C33.2232 24.0299 33.2561 22.782 33.2561 22.3089C32.1803 21.6627 30.9559 20.7897 29.9741 20.0088C29.965 20.0592 29.9553 20.1088 29.9464 20.1595C29.6294 21.97 29.5296 22.8277 29.875 23.1159C30.1436 23.3401 31.5502 24.5506 32.4645 24.2661Z" fill="#AB5305"/>
<path d="M40.8904 34.4396C40.2987 33.9361 39.0334 33.3837 38.7668 33.1861C38.0604 32.6629 37.0753 32.7712 36.9476 33.7446C36.8215 34.7064 35.2002 37.6952 35.3905 38.4069C35.4686 38.6986 35.9605 39.1652 36.5557 39.6075C37.0687 38.5227 37.4799 37.489 37.4686 36.7811C38.7613 37.1505 40.187 37.2313 41.6821 36.5585C41.7247 36.1529 42.1094 35.4768 40.8904 34.4396Z" fill="#AB5305"/>
<path d="M34.917 39.798C34.0453 40.2126 33.0384 42.2376 32.8909 43.5291C32.7828 44.4765 32.7979 44.7026 33.9061 45.8905C34.1384 44.968 34.382 44.2523 34.6105 44.0515C34.6764 43.2667 35.4986 41.7615 36.2447 40.2523C35.7263 40.0797 35.2849 39.6232 34.917 39.798Z" fill="#AB5305"/>
<path d="M46.7684 46.1246C46.8165 45.8551 46.8678 45.5918 46.9208 45.3332C46.719 44.9114 46.069 44.5018 45.2452 44.1787C45.263 45.2637 45.2051 46.6307 45.0723 47.9262C45.1248 47.8777 45.1789 47.8267 45.2303 47.7799C45.9777 47.1 46.496 46.541 46.7684 46.1246Z" fill="#AB5305"/>
<path d="M32.2314 45.6681C32.0399 46.6183 31.6289 48.528 31.3691 49.4396C31.7097 49.4525 32.1929 49.3516 32.4487 49.662C32.7677 50.049 32.7648 50.767 32.9783 50.7647C33.115 49.9552 33.4886 47.7601 33.6653 46.9331C33.1463 46.5461 32.7533 45.5297 32.2314 45.6681Z" fill="#AB5305"/>
<path d="M46.5823 47.29C46.2645 47.6064 45.9526 47.9136 45.6816 48.1722C45.42 48.4216 45.1719 48.6837 44.9481 48.9384C44.8395 49.7101 44.701 50.4087 44.5332 50.9602C44.8314 51.0429 45.4342 50.1303 45.9399 50.636C46.1075 50.8036 46.1882 51.2759 46.2875 51.2922C46.2565 50.1997 46.3736 48.7432 46.5823 47.29Z" fill="#AB5305"/>
<path d="M28.924 21.7121C29.1219 21.1157 29.3306 20.3804 29.5213 19.6407C29.1033 19.2932 28.7507 18.9767 28.5118 18.7285C27.7342 17.9204 26.2118 16.5831 24.9747 15.5723C24.9033 15.6313 24.8309 15.7027 24.7429 15.8074C24.1523 16.5102 24.0714 18.9075 24.5573 20.5106C25.0026 21.1208 25.4801 21.7551 25.9708 22.3896C26.009 22.4003 26.0417 22.4114 26.083 22.4221C28.6627 23.0886 28.45 23.1417 28.924 21.7121Z" fill="#AB5305"/>
<path d="M30.4605 26.9474C30.7292 25.9072 30.8783 24.904 30.7031 24.7311C30.5462 24.5762 28.2082 23.8774 26.9688 23.5828C26.9428 23.5767 26.9484 23.6071 26.9671 23.6526C27.8425 24.735 28.7226 25.7562 29.5122 26.5638C29.6416 26.6962 29.7649 26.8139 29.8915 26.9386C30.185 27.1291 30.4024 27.1727 30.4605 26.9474Z" fill="#AB5305"/>
<path d="M33.9595 39.6074C34.0433 39.0224 34.4151 37.9817 34.9824 36.81C36.1267 34.447 36.4476 33.1275 35.6084 32.3882C34.9454 31.8041 33.6215 31.8273 32.313 32.0956C32.1681 32.7742 32.3148 33.4429 32.8055 35.1206C33.1683 36.3612 33.0798 38.1465 32.9017 39.8225C33.3882 40.2077 33.9113 39.9443 33.9595 39.6074Z" fill="#AB5305"/>
<path d="M23.6824 18.4131C23.6824 17.0464 23.027 16.3197 21.8234 16.3526C21.2687 16.368 20.3907 16.4789 19.8724 16.5993C19.3541 16.7199 18.7718 17.0318 18.5787 17.2928C18.344 17.6096 18.2046 18.1457 18.3791 18.5279C18.6071 18.2568 18.6825 18.0526 18.9379 17.8522C19.5028 17.409 20.3631 17.774 20.7107 17.5655C21.0584 17.3568 21.828 16.5819 23.2483 18.6623C23.2762 18.7031 23.3098 18.75 23.3383 18.7915C23.5485 18.6886 23.6824 18.5652 23.6824 18.4131Z" fill="#AB5305"/>
<path d="M33.891 31.3491C35.9275 31.3186 36.3964 30.9574 36.3726 29.4364C36.3396 27.3229 36.0972 25.8627 35.6868 25.6063C35.2616 25.3405 35.1602 24.9806 33.413 25.0548C32.6684 25.0864 32.0887 24.9806 31.7932 25.3407C31.5892 25.5894 31.3193 26.6741 31.17 27.3395C31.1224 27.5514 31.1733 27.8938 31.2944 28.2892C32.2915 29.2476 32.9241 29.994 32.7568 30.7798C33.1165 31.1271 33.5051 31.3548 33.891 31.3491Z" fill="#AB5305"/>
<path d="M20.8299 15.2479C21.5736 15.4182 22.297 14.7196 22.69 13.8569C22.6155 13.8372 22.3542 13.76 22.1565 13.5886C22.1565 13.5886 22.5413 12.8807 22.6952 12.7114C22.849 12.5421 22.3105 11.8804 21.9103 12.0189C21.8464 12.1849 21.2783 13.3514 19.8926 14.124C19.9975 14.4217 20.4556 15.1623 20.8299 15.2479Z" fill="#AB5305"/>
<path d="M49.0791 37.5429C48.8903 37.4861 48.7248 37.4906 48.5629 37.4918C48.4934 37.8047 48.2777 40.1912 50.8947 42.122C50.6428 38.7679 49.3471 37.9318 49.0791 37.5429Z" fill="#AB5305"/>
<path opacity="0.19" d="M17.3076 18.5737C18.3702 19.1661 18.3725 18.2942 18.9374 17.8509C19.5023 17.4078 20.3626 17.7727 20.7102 17.5642C21.0579 17.3556 21.8275 16.5806 23.2478 18.661C24.8483 21.0052 27.4803 24.4853 29.5117 26.5628C31.5431 28.6404 33.2893 29.7412 32.6891 31.0569C32.0889 32.3727 32.0889 32.6728 32.8045 35.1197C33.5201 37.5666 32.4814 42.1345 32.4583 43.7966C32.4352 45.4586 31.1502 51.1756 30.3269 51.999C30.3269 51.999 32.1548 51.999 32.8012 51.999C32.9166 51.0602 33.8476 44.7199 34.6094 44.0505C34.7325 42.5841 37.498 38.6036 37.4689 36.7802C38.7616 37.1495 40.3407 37.2621 41.9412 36.4311C42.0881 39.0774 44.587 41.0419 45.0487 42.2731C45.5104 43.5042 45.1718 50.8602 44.033 51.999C44.033 51.999 44.7927 51.999 46.3316 51.999C46.0546 49.6111 46.9318 43.9582 47.8551 42.2499C47.1364 40.9708 47.2245 39.0306 47.4218 37.1995L47.4211 37.1965C45.5578 37.8607 42.8841 35.499 42.1925 31.999C35.1114 30.2649 38.074 28.9706 34.5451 27.2649C29.8387 24.9902 23.2139 14.4225 21.0436 15.5714C18.8802 16.7168 18.4073 17.0151 17.848 16.884C17.2158 17.6308 16.8824 18.3367 17.3076 18.5737Z" fill="black"/>
</svg>
