<svg width="68" height="68" viewBox="0 0 68 68" fill="none" xmlns="http://www.w3.org/2000/svg">
<g clip-path="url(#clip0_2883_12621)">
<path opacity="0.4" d="M34 68C51.6731 68 66 53.6731 66 36C66 18.3269 51.6731 4 34 4C16.3269 4 2 18.3269 2 36C2 53.6731 16.3269 68 34 68Z" fill="black" fill-opacity="0.05"/>
<path d="M34 66C51.6731 66 66 51.6731 66 34C66 16.3269 51.6731 2 34 2C16.3269 2 2 16.3269 2 34C2 51.6731 16.3269 66 34 66Z" fill="black" fill-opacity="0.05"/>
<path d="M34 65C51.6731 65 66 50.6731 66 33C66 15.3269 51.6731 1 34 1C16.3269 1 2 15.3269 2 33C2 50.6731 16.3269 65 34 65Z" fill="black" fill-opacity="0.05"/>
<path d="M34 64C51.6731 64 66 49.6731 66 32C66 14.3269 51.6731 0 34 0C16.3269 0 2 14.3269 2 32C2 49.6731 16.3269 64 34 64Z" fill="white"/>
<path opacity="0.19" d="M34 49.0117C45.598 49.0117 55 48.3401 55 47.5117C55 46.6833 45.598 46.0117 34 46.0117C22.402 46.0117 13 46.6833 13 47.5117C13 48.3401 22.402 49.0117 34 49.0117Z" fill="#020202"/>
<path opacity="0.2" d="M36.3549 49.0117C45.8102 49.0117 53.4754 48.3401 53.4754 47.5117C53.4754 46.6833 45.8102 46.0117 36.3549 46.0117C26.8995 46.0117 19.2344 46.6833 19.2344 47.5117C19.2344 48.3401 26.8995 49.0117 36.3549 49.0117Z" fill="black"/>
<path d="M48.7652 40.5104C48.4461 42.8397 45.5903 46.6487 44.9657 47.1858C42.8057 47.1858 42.3633 47.1858 42.3633 47.1858C42.3633 45.6001 44.6346 45.7597 45.0249 44.4681C45.4153 43.1765 46.1888 39.8113 45.4862 37.5776C44.7835 35.3439 49.0695 38.29 48.7652 40.5104Z" fill="#54210A"/>
<path d="M29.7621 39.3411C29.5279 42.0476 32.7751 43.973 32.1714 45.3657C31.7574 46.3208 30.4136 45.6587 30.4136 47.1854C30.4136 47.1854 30.6218 47.1854 33.6406 47.1854C33.6406 47.1854 33.7187 46.6476 34.083 46.1531C33.7707 44.4876 32.8287 39.8353 32.905 37.5713L29.7621 39.3411Z" fill="#54210A"/>
<path d="M16.5842 26.0924C16.8425 25.5402 17.1015 24.3896 16.3885 23.6993C15.6755 23.009 14.8265 21.7962 14.3913 20.1426C13.9562 18.4889 13.9325 15.9421 14.086 15.9133C14.2394 15.8844 14.6039 19.4742 16.6342 21.246C18.6645 23.0178 19.1527 24.3373 18.6887 25.5823C18.1725 25.7823 16.5842 26.0924 16.5842 26.0924Z" fill="#A38B76"/>
<path d="M53.6125 39.0192C53.8033 38.2558 53.6686 31.7985 53.6092 29.4374C53.5514 27.1335 52.0479 26.1777 50.8531 25.9548C48.753 24.0325 45.7831 24.8071 43.9629 24.6837C41.9157 24.5449 38.8274 24.8572 34.4207 24.5449C30.0139 24.2326 28.776 22.4732 26.1377 23.2203C23.0933 24.0823 18.4938 23.1917 17.1059 24.9266C15.7179 26.6615 16.0302 28.3618 15.6832 29.4721C15.3363 30.5825 14.0871 32.5603 14.2606 33.0461C15.1801 34.1565 16.2297 34.3821 17.3228 33.5753C17.8953 34.2259 17.6611 35.2408 19.0403 35.5691C20.4196 35.8973 21.825 35.371 22.9701 37.1666C24.1151 38.9623 24.5459 39.9798 26.4717 40.3181C26.4717 42.3479 27.3161 45.1561 26.6915 45.9889C26.0669 46.8217 24.6616 46.5614 24.6616 48.0882C24.6616 48.0882 24.8698 48.0882 27.8886 48.0882C27.8886 48.0882 27.9667 47.5503 28.331 47.0559C28.0187 45.3903 29.2532 42.3869 29.8258 40.3049C30.9753 40.1367 33.0934 37.7652 35.4096 37.557C37.7258 37.3488 44.1798 38.572 46.0795 37.5917C48.0227 38.7715 50.3302 45.5378 49.0984 46.4053C47.8666 47.2727 47.9359 48.0882 47.9359 48.0882C47.9359 48.0882 48.04 48.0882 50.8159 48.0882C50.8159 48.0882 50.8333 47.6371 51.3538 47.1513C50.9374 46.0062 51.2844 40.5064 51.2844 40.5064C49.1331 37.9734 50.6598 36.169 51.5967 34.8158C52.0294 34.1909 52.5025 33.0676 52.6856 31.7484C52.8289 34.5787 52.7795 38.7352 52.5734 39.316C52.2871 40.1228 51.4509 42.9937 52.3878 45.1797C55.2153 43.8057 53.4216 39.7825 53.6125 39.0192Z" fill="#94410F"/>
<path d="M19.1416 24.5584C18.4154 24.9975 19.0479 26.7978 20.4382 26.4785C21.5505 26.1499 24.4846 25.0033 24.3493 23.8748C24.214 22.7462 22.8199 22.0193 21.7045 20.5698C20.5892 19.1203 20.3525 17.5745 20.1409 17.5999C19.9293 17.6253 20.5008 21.9702 21.788 23.384C20.9561 23.6351 19.761 24.1838 19.1416 24.5584Z" fill="#B89E83"/>
<path opacity="0.19" d="M17.323 33.5752C17.8955 34.2258 17.6613 35.2407 19.0406 35.569C20.4199 35.8973 21.8252 35.3709 22.9703 37.1665C24.1153 38.9622 24.5461 39.9797 26.4719 40.318C26.4719 42.3479 27.3163 45.156 26.6917 45.9888C26.0671 46.8216 24.6618 46.5613 24.6618 48.0881C24.6618 48.0881 24.87 48.0881 27.8889 48.0881C27.8889 48.0881 27.9669 47.5503 28.3312 47.0558C28.019 45.3902 29.2535 42.3868 29.826 40.3048C30.9755 40.1366 33.0937 37.7651 35.4098 37.5569C37.726 37.3487 44.18 38.5719 46.0798 37.5916C48.0229 38.7714 50.3304 45.5377 49.0986 46.4052C47.8668 47.2726 47.9361 48.0881 47.9361 48.0881C47.9361 48.0881 48.0403 48.0881 50.8162 48.0881C50.8162 48.0881 50.8335 47.637 51.354 47.1512C50.9377 46.0061 51.2846 40.5063 51.2846 40.5063C49.1333 37.9733 50.66 36.1689 51.5969 34.8157C52.0296 34.1908 52.5027 33.0675 52.6859 31.7483C52.8291 34.5786 52.7797 38.7351 52.5736 39.316C52.2873 40.1227 51.4512 42.9936 52.388 45.1796C52.6485 45.053 52.8581 44.8978 53.0453 44.7309C52.6045 42.9359 52.5442 40.9329 53.6023 39.2456L53.6028 39.2443C53.5979 39.1546 53.5986 39.0755 53.6127 39.0191C53.8036 38.2557 53.6688 31.7984 53.6094 29.4373C53.5825 28.3652 53.2363 27.5951 52.7601 27.0448C52.7672 29.8031 48.0545 32.2729 43.0568 28.7597C43.0568 28.7597 31.9554 33.0299 28.5749 29.6547C25.408 26.4928 24.2169 30.001 21.734 27.9599C21.734 27.9599 22.7237 27.7743 23.0205 26.8837C23.2432 26.2157 21.7029 25.883 20.9025 26.5514C20.6004 26.8037 20.565 27.3569 20.6578 28.0341C21.0289 30.7433 19.3712 31.9061 18.0352 31.7824C16.7001 31.6588 16.5701 33.9661 15.9062 34.0413C16.3653 34.0757 16.8395 33.9321 17.323 33.5752Z" fill="#020202"/>
<path opacity="0.19" d="M19.0418 35.5683C20.4211 35.8965 21.8264 35.3702 22.9715 37.1658C24.1165 38.9615 24.5473 39.979 26.4731 40.3173C26.4731 42.3471 27.3175 45.1552 26.6929 45.988C26.0683 46.8208 24.6631 46.5606 24.6631 48.0874C24.6631 48.0874 24.8712 48.0874 27.8901 48.0874C27.8901 48.0874 27.9681 47.5495 28.3324 47.0551C28.0202 45.3895 29.2547 42.3861 29.8272 40.3041C30.9768 40.1359 33.0949 37.7644 35.411 37.5562C37.7272 37.348 44.1812 38.5711 46.081 37.5909C48.0241 38.7706 50.3316 45.5369 49.0998 46.4044C47.868 47.2719 47.9373 48.0874 47.9373 48.0874C47.9373 48.0874 48.0415 48.0874 50.8174 48.0874C50.8174 48.0874 50.8348 47.6363 51.3552 47.1504C50.9389 46.0054 51.2859 40.5056 51.2859 40.5056C49.1345 37.9726 50.6612 36.1682 51.5981 34.815C51.9592 34.2935 52.3381 33.4151 52.5635 32.3753C51.6346 35.2949 48.0225 36.0371 44.4845 33.2661C40.0497 35.8454 37.5076 33.0434 34.1233 34.0083C29.9576 35.196 27.9857 36.8717 25.8091 34.0991C23.7309 31.4518 20.9744 31.4477 17.3242 33.5745C17.8967 34.2251 17.6625 35.24 19.0418 35.5683Z" fill="#020202"/>
</g>
<defs>
<clipPath id="clip0_2883_12621">
<rect width="64" height="68" fill="white" transform="translate(2)"/>
</clipPath>
</defs>
</svg>
