<svg width="68" height="68" viewBox="0 0 68 68" fill="none" xmlns="http://www.w3.org/2000/svg">
<path opacity="0.4" d="M34 68C51.6731 68 66 53.6731 66 36C66 18.3269 51.6731 4 34 4C16.3269 4 2 18.3269 2 36C2 53.6731 16.3269 68 34 68Z" fill="black" fill-opacity="0.05"/>
<path d="M34 66C51.6731 66 66 51.6731 66 34C66 16.3269 51.6731 2 34 2C16.3269 2 2 16.3269 2 34C2 51.6731 16.3269 66 34 66Z" fill="black" fill-opacity="0.05"/>
<path d="M34 65C51.6731 65 66 50.6731 66 33C66 15.3269 51.6731 1 34 1C16.3269 1 2 15.3269 2 33C2 50.6731 16.3269 65 34 65Z" fill="black" fill-opacity="0.05"/>
<path d="M34 64C51.6731 64 66 49.6731 66 32C66 14.3269 51.6731 0 34 0C16.3269 0 2 14.3269 2 32C2 49.6731 16.3269 64 34 64Z" fill="white"/>
<path opacity="0.2" d="M33.0879 52.8281C42.4767 52.8281 50.0879 52.1566 50.0879 51.3281C50.0879 50.4997 42.4767 49.8281 33.0879 49.8281C23.699 49.8281 16.0879 50.4997 16.0879 51.3281C16.0879 52.1566 23.699 52.8281 33.0879 52.8281Z" fill="black"/>
<path opacity="0.2" d="M31.8125 52.8281C38.9922 52.8281 44.8125 52.1566 44.8125 51.3281C44.8125 50.4997 38.9922 49.8281 31.8125 49.8281C24.6328 49.8281 18.8125 50.4997 18.8125 51.3281C18.8125 52.1566 24.6328 52.8281 31.8125 52.8281Z" fill="black"/>
<path d="M34.0156 38.5312C34.0156 38.5312 33.4719 41.008 34.2874 43.4847C35.1029 45.9614 38.4404 48.272 38.3951 48.861C38.3498 49.45 37.7631 49.903 36.4923 49.903C33.9552 49.903 33.5625 50.492 33.5625 51.2924C33.5625 51.2924 37.3531 51.2924 38.4253 51.2924C39.4976 51.2924 40.8316 49.7268 40.9524 47.3911C39.9053 46.2232 38.818 42.2765 40.147 40.3435L34.0156 38.5312Z" fill="#ACB6C1"/>
<path d="M26.8786 41.0378C27.2109 43.0917 27.2109 43.0917 27.2109 43.0917C26.4658 44.2898 24.5731 51.2921 24.5731 51.2921C22.2373 51.2921 21.5929 51.2921 21.5929 51.2921C21.5929 49.6308 22.9484 50.0253 23.3649 49.6057C23.6748 49.2935 22.9839 46.4484 23.4794 43.4953C23.5744 42.9291 22.2537 39.9067 21.6639 38.7953C19.6395 34.9802 26.8786 41.0378 26.8786 41.0378Z" fill="#ACB6C1"/>
<path d="M23.1442 31.9597C24.8658 32.7148 27.6748 32.0201 28.9132 31.0536C30.1515 30.087 34.6519 28.7494 36.8266 28.9048C39.0013 29.0601 40.9343 30.6307 41.9915 30.5401C43.0486 30.4495 47.7906 24.5295 43.6829 19.1532C39.5752 13.7769 30.2623 16.6865 27.4332 20.1499C25.4421 22.5874 23.2348 24.6503 21.332 23.2609C19.4291 21.8716 24.7798 15.7704 30.1689 13.5655C35.558 11.3606 42.1425 10.9981 46.0388 15.71C49.9351 20.4218 50.962 29.6944 43.8742 34.6881C44.8004 37.4266 43.109 39.118 41.78 41.0511C40.4511 42.9841 41.5384 46.9308 42.5855 48.0987C42.4647 50.4344 41.1306 52 40.0584 52C38.9862 52 35.1956 52 35.1956 52C35.1956 51.1996 35.5882 50.6106 38.1254 50.6106C39.3962 50.6106 39.9829 50.1576 40.0282 49.5686C40.0735 48.9796 36.736 46.669 35.9205 44.1923C35.105 41.7156 35.6486 39.2388 35.6486 39.2388C33.4739 41.3833 28.7621 42.0478 27.6144 41.7458C27.9466 43.7996 27.9466 43.7996 27.9466 43.7996C27.2016 44.9977 25.3088 52 25.3088 52C22.973 52 22.3287 52 22.3287 52C22.3287 50.2599 23.5514 51.205 24.1007 50.3136C24.5326 49.6126 23.9408 50.1304 24.302 43.5882C24.3504 42.7126 23.3347 40.7118 22.2102 39.1154C21.7205 38.4202 22.4921 33.4795 23.1442 31.9597Z" fill="#7E818A"/>
<path opacity="0.19" d="M41.7789 41.0509C42.6685 39.7569 43.7027 38.5642 44.0232 37.1C44.0232 37.0999 44.0232 37.1001 44.0232 37.1C42.3403 39.0158 37.1975 37.265 36.5342 33.9844C36.5342 33.9844 30.5421 37.7947 27.8789 38.531C25.2158 39.2674 24.624 36.0933 24.7017 33.9844L22.3148 35.4045C22.0524 37.0752 21.9405 38.734 22.2091 39.1153C23.3335 40.7117 24.3492 42.7126 24.3009 43.5881C23.9397 50.1303 24.5315 49.6124 24.0995 50.3135C23.5502 51.2049 22.3276 50.2598 22.3276 51.9998C22.3276 51.9998 22.9719 51.9998 25.3077 51.9998C25.3077 51.9998 27.2005 44.9976 27.9455 43.7995C27.9455 43.7995 27.9455 43.7995 27.6132 41.7456C28.761 42.0477 33.4728 41.3832 35.6475 39.2387C35.6475 39.2387 35.1039 41.7154 35.9193 44.1922C36.7348 46.6689 40.0724 48.9795 40.0271 49.5685C39.9818 50.1574 39.395 50.6105 38.1242 50.6105C35.5871 50.6105 35.1945 51.1994 35.1945 51.9998C35.1945 51.9998 38.985 51.9998 40.0573 51.9998C41.1295 51.9998 42.4635 50.4343 42.5844 48.0985C41.5372 46.9306 40.4499 42.984 41.7789 41.0509Z" fill="#21242E"/>
<path d="M22.7848 39.9828C21.96 38.5961 22.0254 36.4812 22.9377 36.0374C23.8501 35.5935 24.7378 34.5085 25.0337 32.8071C25.3297 31.1056 26.242 32.0673 25.7982 30.5384C25.3543 29.0096 24.9105 29.4535 24.9105 29.4535C24.0166 30.0823 24.22 30.6617 23.6282 30.4891C23.0364 30.3165 21.0862 30.2315 20.069 30.4781C19.3062 30.663 19.7937 30.0329 18.7272 29.7494C18.1548 29.5971 17.6607 31.6481 18.3019 32.1659C18.943 32.6838 19.0019 33.2538 19.1403 33.7194C19.5725 35.174 19.3572 35.4456 22.7848 39.9828Z" fill="#ACB6C1"/>
<path d="M23.938 33.3276C24.1668 32.8906 24.8292 31.8285 23.7661 30.5115C23.7239 30.5077 23.6825 30.5047 23.6285 30.489C23.0367 30.3164 21.0865 30.2313 20.0693 30.4779C20.0284 30.4879 20.0034 30.4868 19.9692 30.4923C19.6347 31.204 19.1706 32.3862 20.1925 33.4255C21.3139 34.5658 21.1363 34.3302 21.1552 34.7329C21.1741 35.1356 21.4182 35.3999 21.9579 35.4794C22.7634 35.5981 23.2746 35.0237 23.1547 34.4775C23.0348 33.9313 23.6952 33.7914 23.938 33.3276Z" fill="#414657"/>
<path d="M46.0388 15.71C42.1425 10.9981 35.558 11.3606 30.1689 13.5655C24.7798 15.7704 19.4291 21.8716 21.332 23.2609C23.2348 24.6503 25.4421 22.5874 27.4332 20.1499C30.2623 16.6865 39.5751 13.7769 43.6829 19.1532C46.9633 23.4467 44.6018 28.0778 42.9783 29.8189L42.9818 29.8202C42.9818 31.02 44.5896 33.1993 45.9322 32.8661C50.6827 27.679 49.5013 19.8971 46.0388 15.71Z" fill="#ACB6C1"/>
<path d="M44.894 26.5138C44.8906 26.5019 44.8873 26.5028 44.8839 26.4922C44.7577 26.8739 44.6132 27.2378 44.4522 27.5789L44.4512 27.5869C44.6711 28.8018 47.1453 29.9307 48.125 29.3981C48.2852 29.0099 48.4232 28.6167 48.5408 28.219C47.4807 28.4333 45.1127 27.2792 44.894 26.5138Z" fill="#414657"/>
<path d="M45.3264 22.9389C45.287 22.842 45.2644 22.8225 45.248 22.8308C45.3017 23.22 45.3327 23.6053 45.3265 23.982L45.3271 23.9859C45.2716 24.7829 48.8444 25.663 49.0648 24.6699C49.0702 24.1674 49.049 23.6675 49.0016 23.1713C48.9277 23.7789 45.5589 23.5106 45.3264 22.9389Z" fill="#414657"/>
<path d="M48.0379 19.1615C47.8367 18.5403 47.1219 17.1187 46.7241 16.6318C47.361 17.6668 44.2952 19.2137 43.3614 18.7642C43.3399 18.7539 43.3272 18.7505 43.3086 18.7425C43.4322 18.8809 43.5659 19.0022 43.6815 19.1535C43.9347 19.4848 44.1436 19.8183 44.3325 20.1522C44.8684 20.9496 48.4296 20.5362 48.0379 19.1615Z" fill="#414657"/>
<path d="M43.9231 13.7834C43.1174 13.2331 41.6312 12.5268 40.5782 12.3428C41.1281 13.1786 41.5403 14.7631 39.3281 16.4302C39.9175 16.5379 41.1504 17.0203 41.6263 17.3271C42.873 16.9172 44.6745 14.9913 43.9231 13.7834Z" fill="#414657"/>
<path d="M37.3979 12C36.5813 12.0257 35.4135 12.1283 34.5927 12.273C35.2519 13.241 35.1386 15.3809 34.2468 16.4893C34.2431 16.4939 34.2419 16.4968 34.2383 16.5014C34.8185 16.377 35.4255 16.2756 36.0163 16.2262C36.0276 16.2204 36.7672 16.1937 36.7672 16.1937C37.8069 15.5781 38.4578 12.5273 37.3979 12Z" fill="#414657"/>
<path d="M31.9645 12.915C31.6114 13.04 30.512 13.4242 30.1676 13.5651C29.8624 13.69 29.5576 13.8309 29.2539 13.9793C30.1393 14.539 30.9725 16.3449 30.6467 17.7468L30.6463 17.7494C31.05 17.5474 31.4772 17.365 31.9158 17.1947C31.9202 17.1894 32.5942 16.9499 32.5942 16.9499C33.2426 15.7791 33.1413 13.7321 31.9645 12.915Z" fill="#414657"/>
<path d="M25.6924 16.2444C22.3013 18.9029 19.9775 22.2725 21.3314 23.261C23.2342 24.6504 25.4415 22.5874 27.4326 20.15C27.6253 19.914 27.8535 19.6817 28.1028 19.4533L28.1007 19.4513C28.4467 18.0432 27.337 16.1689 25.6924 16.2444Z" fill="#414657"/>
</svg>
