<svg width="68" height="68" viewBox="0 0 68 68" fill="none" xmlns="http://www.w3.org/2000/svg">
<path opacity="0.4" d="M34 68C51.6731 68 66 53.6731 66 36C66 18.3269 51.6731 4 34 4C16.3269 4 2 18.3269 2 36C2 53.6731 16.3269 68 34 68Z" fill="black" fill-opacity="0.05"/>
<path d="M34 66C51.6731 66 66 51.6731 66 34C66 16.3269 51.6731 2 34 2C16.3269 2 2 16.3269 2 34C2 51.6731 16.3269 66 34 66Z" fill="black" fill-opacity="0.05"/>
<path d="M34 65C51.6731 65 66 50.6731 66 33C66 15.3269 51.6731 1 34 1C16.3269 1 2 15.3269 2 33C2 50.6731 16.3269 65 34 65Z" fill="black" fill-opacity="0.05"/>
<path d="M34 64C51.6731 64 66 49.6731 66 32C66 14.3269 51.6731 0 34 0C16.3269 0 2 14.3269 2 32C2 49.6731 16.3269 64 34 64Z" fill="white"/>
<path opacity="0.2" d="M33.8301 40.9219C45.4281 40.9219 54.8301 40.2503 54.8301 39.4219C54.8301 38.5934 45.4281 37.9219 33.8301 37.9219C22.2321 37.9219 12.8301 38.5934 12.8301 39.4219C12.8301 40.2503 22.2321 40.9219 33.8301 40.9219Z" fill="black"/>
<path opacity="0.2" d="M34.8945 40.9219C45.9402 40.9219 54.8945 40.2503 54.8945 39.4219C54.8945 38.5934 45.9402 37.9219 34.8945 37.9219C23.8488 37.9219 14.8945 38.5934 14.8945 39.4219C14.8945 40.2503 23.8488 40.9219 34.8945 40.9219Z" fill="black"/>
<path d="M38.4316 35.519C41.3938 35.3844 44.1134 37.7326 44.3867 38.0421C44.6599 38.3516 43.1644 38.6945 42.2297 38.4792C40.6049 38.0889 40.5023 39.4214 41.5535 39.4214C41.5535 39.4214 44.356 39.4214 45.1037 39.4214C45.8514 39.4214 46.7142 39.1523 47.4619 37.6452C46.8293 36.7032 45.3986 33.7626 47.1529 32.0401L44.6167 30.5625L38.4316 35.519Z" fill="#605D5E"/>
<path d="M23.0566 31.9414C24.6096 33.1129 23.3869 37.0793 22.8692 37.9286C22.3516 38.7779 22.0065 38.4265 20.7986 38.4558C19.5907 38.4851 19.8495 39.4223 20.5685 39.4223C20.5685 39.4223 21.2587 39.4223 23.1568 39.4223C25.6013 37.3136 28.7073 35.3221 31.6695 35.1756L23.0566 31.9414Z" fill="#605D5E"/>
<path d="M14.3037 28.8296C14.0353 28.4079 16.7632 26.6199 16.7632 26.0831C16.7632 25.5463 17.9721 24.2467 18.8541 23.7482C18.8592 23.3235 18.99 22.8076 19.5431 22.936C20.1388 23.0743 20.2878 23.319 20.9154 23.5424C21.5918 23.7831 25.0286 24.0575 27.0225 23.329C29.0165 22.6004 33.4082 19.3913 37.8091 20.4693C42.5968 21.6421 44.5873 24.7583 47.6814 26.5318C51.1708 28.5318 53.504 30.4694 53.504 35.9699C53.504 39.9472 50.341 42.319 48.0686 42.1569C48.1814 38.7233 50.7733 36.9851 48.6962 33.6199C48.4379 33.2015 47.6501 32.3732 46.8123 32.4446C45.8516 34.4892 44.2878 34.8616 43.4242 35.236C41.5602 36.0443 41.9176 37.6854 42.5503 38.692C41.8025 40.3025 40.9398 40.59 40.192 40.59C39.4443 40.59 36.6418 40.59 36.6418 40.59C35.5906 40.59 35.5475 39.1952 37.1724 39.6122C38.107 39.8423 39.485 39.5697 39.3868 39.1521C39.2984 38.7765 36.2984 38.436 35.6388 36.5318C35.3876 35.8063 33.9306 36.1451 32.7984 36.2001C31.6383 36.2564 30.5697 35.9964 29.7186 35.8031C29.1229 37.5246 28.4234 39.3304 26.9363 40.59C25.0383 40.59 24.348 40.59 24.348 40.59C23.6291 40.59 23.3702 39.6698 24.5781 39.641C25.786 39.6122 26.1311 39.9574 26.6488 39.1233C27.1664 38.2893 25.7025 33.8523 24.1495 32.702C22.5965 31.5516 19.5104 29.6617 18.36 29.5466C17.2097 29.4316 14.9793 30.2339 14.3037 28.8296Z" fill="#C1B6B8"/>
<path d="M53.1196 32.6107C52.7555 31.2086 52.1401 30.1353 51.3248 29.2383C50.8424 30.4963 49.1759 32.1802 47.8828 32.7914C48.257 33.0504 48.5549 33.3937 48.6947 33.6203C49.0729 34.2331 49.2931 34.791 49.4048 35.3159C50.7115 35.0809 52.6844 33.945 53.1196 32.6107Z" fill="#565354"/>
<path d="M53.2426 37.7923C53.2772 37.6952 53.3035 37.5921 53.3342 37.4921C53.4401 37.015 53.5021 36.509 53.5021 35.9707C53.5021 35.5737 53.4866 35.2001 53.4627 34.8389C52.5093 35.6608 50.672 36.2453 49.4899 36.1168C49.4994 36.8485 49.3202 37.5316 49.0801 38.226C50.2913 38.6858 52.1312 38.4796 53.2426 37.7923Z" fill="#565354"/>
<path d="M52.2769 39.8571C51.144 40.181 49.4002 40.192 48.5589 39.6885C48.3084 40.4324 48.0968 41.2325 48.0664 42.1577C49.4451 42.256 51.1478 41.4169 52.2769 39.8571Z" fill="#565354"/>
<path opacity="0.19" d="M50.9433 32.6185C50.2456 29.9831 48.3807 28.664 45.3169 28.2384C41.435 27.6993 36.7211 29.5576 35.5297 31.2119C34.3381 32.8662 30.6786 32.3243 29.3913 30.3023C28.1128 28.294 24.6998 27.7172 24.6432 28.8908C24.6074 29.6349 20.5856 29.5264 20.4795 28.361C16.6813 26.9361 14.1738 28.6257 14.3036 28.8297C14.9792 30.2339 17.2096 29.4316 18.3599 29.5467C19.5103 29.6617 22.5964 31.5517 24.1494 32.702C25.7024 33.8524 27.1663 38.2893 26.6487 39.1234C26.131 39.9574 25.7859 39.6123 24.578 39.641C23.3702 39.6698 23.629 40.59 24.348 40.59C24.348 40.59 25.0381 40.59 26.9363 40.59C28.4233 39.3304 29.1228 37.5247 29.7186 35.8031C30.5696 35.9964 31.6382 36.2564 32.7983 36.2002C33.9305 36.1452 35.3875 35.8064 35.6388 36.5318C36.2983 38.4361 39.2983 38.7765 39.3867 39.1521C39.4849 39.5697 38.1069 39.8424 37.1723 39.6123C35.5474 39.1953 35.5905 40.59 36.6418 40.59C36.6418 40.59 39.4442 40.59 40.1919 40.59C40.9397 40.59 41.8025 40.3025 42.5502 38.692C41.9175 37.6854 41.5602 36.0443 43.4241 35.236C44.2877 34.8616 45.8516 34.4892 46.8122 32.4446C47.65 32.3733 48.4378 33.2015 48.6961 33.6199C50.7732 36.9851 48.1813 38.7233 48.0685 42.1569C50.3409 42.3191 53.504 39.9472 53.504 35.9699C53.504 35.5378 53.4845 35.1349 53.4563 34.745L53.4373 34.7436C53.4139 35.4869 51.6631 35.3375 50.9433 32.6185Z" fill="black"/>
<path opacity="0.19" d="M18.3594 29.5466C19.5098 29.6617 22.5959 31.5516 24.1489 32.702C25.7018 33.8524 27.1658 38.2893 26.6481 39.1234C26.1305 39.9573 25.7853 39.6122 24.5775 39.641C23.3696 39.6697 23.6284 40.59 24.3474 40.59C24.3474 40.59 25.0376 40.59 26.9357 40.59C28.4228 39.3304 29.1223 37.5247 29.718 35.803C30.5691 35.9964 31.6376 36.2564 32.7978 36.2001C33.93 36.1451 35.387 35.8063 35.6382 36.5318C36.2978 38.436 39.2978 38.7764 39.3862 39.1521C39.4844 39.5697 38.1064 39.8423 37.1718 39.6122C35.5468 39.1953 35.59 40.59 36.6412 40.59C36.6412 40.59 39.4437 40.59 40.1914 40.59C40.9391 40.59 41.8019 40.3025 42.5496 38.692C42.3547 38.3819 42.1962 38.0095 42.1105 37.6218C42.106 37.6201 42.1023 37.6174 42.0978 37.6157C37.2765 37.5318 36.085 35.4041 35.6701 33.9999C35.0956 34.7977 30.4042 35.1169 29.7978 33.9999C29.1914 32.8828 25.0691 29.9626 24.6914 30.968C24.4453 31.6232 22.7822 30.9808 21.594 30.1861C20.3431 29.3493 18.3594 29.5466 18.3594 29.5466Z" fill="black"/>
<path d="M15.4112 28.4932C15.9535 28.2759 17.0493 28.5669 18.9585 28.9026C21.7029 29.3853 20.2136 26.887 18.5769 26.6545C17.6573 26.5239 17.2459 25.9324 17.0548 25.4355C16.8796 25.6907 16.7632 25.9226 16.7632 26.0832C16.7632 26.62 14.0353 28.4079 14.3037 28.8297C14.4305 29.0933 14.6245 29.26 14.8434 29.3888C15.0938 29.075 14.9012 28.6975 15.4112 28.4932Z" fill="#565354"/>
<path d="M19.7589 24.1409C19.8533 25.3413 20.49 28.0572 21.5017 26.1278C22.0077 25.1629 20.2937 23.2498 20.2937 23.2498C20.2906 23.2477 20.2878 23.2458 20.2848 23.2437C20.071 23.1232 19.8745 23.0126 19.5436 22.9358C19.3871 22.8995 19.2675 22.9186 19.1719 22.9687C19.1875 22.9745 19.6821 23.1654 19.7589 24.1409Z" fill="#565354"/>
</svg>
