<svg width="68" height="68" viewBox="0 0 68 68" fill="none" xmlns="http://www.w3.org/2000/svg">
<path opacity="0.4" d="M34 68C51.6731 68 66 53.6731 66 36C66 18.3269 51.6731 4 34 4C16.3269 4 2 18.3269 2 36C2 53.6731 16.3269 68 34 68Z" fill="black" fill-opacity="0.05"/>
<path d="M34 66C51.6731 66 66 51.6731 66 34C66 16.3269 51.6731 2 34 2C16.3269 2 2 16.3269 2 34C2 51.6731 16.3269 66 34 66Z" fill="black" fill-opacity="0.05"/>
<path d="M34 65C51.6731 65 66 50.6731 66 33C66 15.3269 51.6731 1 34 1C16.3269 1 2 15.3269 2 33C2 50.6731 16.3269 65 34 65Z" fill="black" fill-opacity="0.05"/>
<path d="M34 64C51.6731 64 66 49.6731 66 32C66 14.3269 51.6731 0 34 0C16.3269 0 2 14.3269 2 32C2 49.6731 16.3269 64 34 64Z" fill="white"/>
<path opacity="0.2" d="M36.5 53.1074C46.165 53.1074 54 52.4358 54 51.6074C54 50.779 46.165 50.1074 36.5 50.1074C26.835 50.1074 19 50.779 19 51.6074C19 52.4358 26.835 53.1074 36.5 53.1074Z" fill="black"/>
<path opacity="0.2" d="M38.082 53.1074C44.7094 53.1074 50.082 52.4358 50.082 51.6074C50.082 50.779 44.7094 50.1074 38.082 50.1074C31.4546 50.1074 26.082 50.779 26.082 51.6074C26.082 52.4358 31.4546 53.1074 38.082 53.1074Z" fill="black"/>
<path d="M25.9805 15.4754C25.9805 14.8714 27.9435 13.7892 28.17 13.5124C28.3965 13.2355 28.1448 12.7322 29.529 12.3547C30.9132 11.9772 31.8906 11.8212 33.971 12.2918C37.1421 13.009 36.5464 17.2476 36.7646 19.5021C36.8778 20.6724 37.4436 21.6331 37.8725 22.7405C38.3323 23.9277 37.956 27.3289 37.8725 28.3065C37.4688 33.0328 39.0284 39.4948 39.2411 43.0586C39.5431 48.1172 43.5618 50.5049 47.3103 50.5049C50.9816 50.5049 50.2266 51.9929 47.0744 51.9929C43.7578 51.9929 38.3351 50.6842 36.8251 44.7196C36.8251 44.7196 36.0806 46.6191 37.3452 47.4685C37.1942 49.7083 36.2317 51.9929 35.3257 51.9929C34.8311 51.9929 33.8694 51.9966 32.8976 52C32.8976 50.6307 34.7548 50.9415 34.7548 49.1856C34.7548 48.3544 33.5225 47.5109 32.8505 46.3685C32.7598 46.52 32.7156 46.9936 33.4548 47.9848C33.7579 48.3913 32.0268 51.3783 31.1588 51.3783C30.4511 51.3783 29.416 51.3828 28.9846 51.3828C28.9091 50.0992 30.1706 50.1587 30.7883 49.1485C31.6899 47.6738 30.7453 46.1388 29.5831 44.5913C28.1054 42.6236 29.4675 38.577 29.2916 37.1023C29.1598 35.9972 28.5836 36.062 28.2015 34.2626C27.6894 34.413 27.3149 34.5321 26.7405 34.0187C27.1213 32.9435 27.0987 31.6149 27.2333 30.5244C27.318 29.8382 27.8681 28.8656 27.9482 28.3066C28.1591 26.8346 28.3725 25.7456 28.6859 24.7341C29.4251 22.3486 30.1556 21.8001 30.2816 20.7605C30.483 19.0995 30.3847 17.7279 28.6859 17.1616C26.9872 16.5953 26.0874 16.3563 25.9805 15.4754Z" fill="#CEAF6E"/>
<path d="M33.4545 47.9849C32.7153 46.9937 32.7595 46.5201 32.8502 46.3687C31.8697 44.793 31.7577 42.6564 31.3937 40.5595C30.8597 37.4831 29.7124 36.1754 29.1762 35.0156C28.1088 32.7069 27.7482 30.9053 27.9479 28.3066C27.9047 28.8697 27.3177 29.8383 27.233 30.5245C27.0984 31.615 27.121 32.9436 26.7402 34.0188C27.1567 34.6036 27.7324 34.4517 28.209 34.2936C28.5911 36.0573 29.1604 36.0045 29.2913 37.1024C29.4672 38.5771 28.1051 42.6237 29.5827 44.5914C30.745 46.139 31.6896 47.6739 30.788 49.1486C30.1704 50.1588 28.9088 50.0993 28.9843 51.3829C29.4157 51.3829 30.4508 51.3784 31.1586 51.3784C32.0265 51.3784 33.7576 48.3914 33.4545 47.9849Z" fill="#89734C"/>
<path d="M26.1617 15.9511C26.1738 15.9691 26.1818 15.9895 26.1951 16.0069C26.25 16.0773 26.3158 16.1422 26.3904 16.2036C26.3939 16.2065 26.3963 16.2098 26.3998 16.2126C26.4792 16.2767 26.5691 16.3368 26.6697 16.3944C27.6301 16.7103 29.6789 16.8567 30.4476 16.3665C30.9401 16.0525 31.6629 16.3945 31.9764 16.9911C32.642 18.2576 32.5477 19.3721 32.0325 20.6085C31.5172 21.8449 31.2453 21.9133 31.7261 23.829C32.1894 25.6749 32.1894 26.2461 30.7863 27.5357C30.0183 28.2414 29.8508 28.7573 29.7258 29.7517C29.5849 30.872 29.7027 33.6386 29.8765 34.1307C30.7333 34.3827 31.5158 33.6793 31.6237 32.6584C31.758 31.3858 31.6148 31.1897 32.2373 30.0896C32.8598 28.9895 33.4275 29.0908 33.4275 29.0908C33.9195 29.606 34.1209 33.0555 33.4275 35.2485C32.7499 37.3915 31.4792 38.4053 31.198 40.1786C30.9069 42.0153 31.5564 44.3449 32.8505 46.3686C33.5225 47.5109 34.7549 48.3544 34.7549 49.1856C34.7549 50.9415 32.8976 50.6308 32.8976 52C33.8694 51.9966 34.8311 51.9929 35.3257 51.9929C36.2317 51.9929 37.1942 49.7084 37.3452 47.4684C36.0806 46.619 36.8251 44.7196 36.8251 44.7196C38.3351 50.6842 43.7578 51.9929 47.0744 51.9929C50.2266 51.9929 50.9816 50.5049 47.3104 50.5049C43.5618 50.5049 39.5431 48.1172 39.2411 43.0586C39.0284 39.4948 38.8819 30.0282 38.2763 25.9549C38.132 24.9844 37.99 23.5182 37.8725 22.7405C37.6951 21.5662 36.8778 20.6724 36.7646 19.5021C36.5464 17.2476 37.1421 13.009 33.9711 12.2918C31.8906 11.8212 30.9132 11.9772 29.529 12.3547C28.1449 12.7322 28.3965 13.2355 28.17 13.5124C27.9435 13.7892 25.9805 14.8714 25.9805 15.4754C25.9933 15.5813 26.019 15.6769 26.0548 15.7659C26.0821 15.8328 26.1213 15.8923 26.1617 15.9511Z" fill="#A78E59"/>
<path d="M34.2135 13.3669C33.8831 13.3493 33.5838 13.5047 33.3567 13.7746C32.5163 13.6362 31.7188 12.9285 30.5555 13.021C29.1963 13.1291 28.7046 13.5735 28.8595 14.3038C28.9775 14.8603 29.702 15.3295 31.0612 15.2215C31.6825 15.1721 32.4317 14.8555 33.0056 14.5328C32.9429 14.8289 32.9292 15.1636 32.9954 15.5321C33.2109 16.7335 33.3113 17.4516 33.9714 17.9076C34.6534 18.3786 35.476 16.9685 35.5429 15.7146C35.6098 14.4607 35.0146 13.4096 34.2135 13.3669Z" fill="#685436"/>
</svg>
