<svg width="68" height="68" viewBox="0 0 68 68" fill="none" xmlns="http://www.w3.org/2000/svg">
<g clip-path="url(#clip0_2883_12604)">
<path opacity="0.4" d="M34 68C51.6731 68 66 53.6731 66 36C66 18.3269 51.6731 4 34 4C16.3269 4 2 18.3269 2 36C2 53.6731 16.3269 68 34 68Z" fill="black" fill-opacity="0.05"/>
<path d="M34 66C51.6731 66 66 51.6731 66 34C66 16.3269 51.6731 2 34 2C16.3269 2 2 16.3269 2 34C2 51.6731 16.3269 66 34 66Z" fill="black" fill-opacity="0.05"/>
<path d="M34 65C51.6731 65 66 50.6731 66 33C66 15.3269 51.6731 1 34 1C16.3269 1 2 15.3269 2 33C2 50.6731 16.3269 65 34 65Z" fill="black" fill-opacity="0.05"/>
<path d="M34 64C51.6731 64 66 49.6731 66 32C66 14.3269 51.6731 0 34 0C16.3269 0 2 14.3269 2 32C2 49.6731 16.3269 64 34 64Z" fill="white"/>
<path opacity="0.2" d="M36.0607 41.9999C46.0019 41.9999 54.0609 40.8808 54.0609 39.5001C54.0609 38.1194 46.0019 37 36.0607 37C26.1195 37 18.0605 38.1194 18.0605 39.5001C18.0605 40.8808 26.1195 41.9999 36.0607 41.9999Z" fill="black"/>
<path opacity="0.19" d="M34.0001 41.9999C45.5981 41.9999 55.0004 40.8808 55.0004 39.5001C55.0004 38.1194 45.5981 37 34.0001 37C22.4021 37 13 38.1194 13 39.5001C13 40.8808 22.4021 41.9999 34.0001 41.9999Z" fill="#020202"/>
<path d="M42.6623 37.511C47.869 35.2467 53.9022 36.4421 54.4698 38.6107C55.0375 40.7795 41.9419 42.1672 38.9796 39.6528C38.9056 37.8924 42.6623 37.511 42.6623 37.511Z" fill="#474037"/>
<path d="M41.7731 40.9662C43.3455 40.9662 44.2722 39.3262 44.1472 37.7018C44.0225 36.0772 42.6478 35.3743 42.5853 34.2187C41.9918 28.8455 38.4853 23.5785 36.5839 21.9275C33.5141 19.2616 29.2776 19.6926 25.6851 21.2233C22.0927 22.754 21.3117 21.7856 19.8747 21.5044C18.4969 21.2349 15.3098 22.1141 14.1409 23.4536C14.0908 23.5111 14.0724 23.4985 14.0015 23.5153C13.6382 23.6011 13.4083 23.3163 13.0959 24.8157C12.5586 27.3691 14.4808 30.0088 16.1052 31.1335C17.7296 32.258 17.7505 32.9482 18.2815 33.6564C18.7131 34.2317 19.7706 34.7393 20.6036 35.364C21.4367 35.9888 26.9659 40.9662 30.6833 40.9662C35.0152 40.9662 34.1051 40.5079 37.431 40.5079C38.5405 40.5079 39.7114 40.9662 41.7731 40.9662Z" fill="#8D8479"/>
<path d="M21.1159 20.9206C20.562 20.7819 19.4542 20.9205 20.1466 21.8898C20.2389 22.2129 20.6174 22.7483 21.3928 22.3052C22.3621 21.7513 21.6698 21.0592 21.1159 20.9206Z" fill="#8D8479"/>
<path d="M13.0957 24.8158C13.4081 23.3163 13.6323 23.5719 14.0013 23.5154C14.09 23.5017 14.1064 23.4955 14.1407 23.4536C15.1613 24.8158 16.39 25.6277 18.3462 25.7674C21.3178 25.9491 21.6696 24.5212 21.6696 24.5212C21.2542 23.5152 21.9525 23.0783 22.9159 23.4535C23.8793 23.8286 23.7615 25.1775 22.9159 24.9095C23.8852 25.2167 26.2321 25.24 28.2153 24.9095C30.2771 24.5659 35.1192 24.3159 38.0244 27.596C40.9295 30.8761 41.8962 33.7945 42.725 34.7875C43.0898 35.6461 44.0438 36.3602 44.147 37.702C44.272 39.3261 43.3453 40.9664 41.7729 40.9664C39.7112 40.9664 38.5403 40.508 37.4308 40.508C34.1049 40.508 35.015 40.9664 30.6832 40.9664C30.1279 40.9664 29.53 40.8453 28.9156 40.6545C24.5878 40.6545 20.2806 40.6545 20.2806 40.6545C20.2806 39.332 21.3778 38.5081 25.4383 38.9683C23.1015 37.5075 21.0808 35.722 20.6034 35.3642C20.4762 35.2686 20.3388 35.18 20.2041 35.0894C19.2138 34.8168 18.2179 34.7346 17.9793 34.8227C17.5837 34.9684 16.4174 34.8019 15.5428 34.1352C14.6681 33.469 15.2928 32.5318 16.2716 32.2402C16.5809 32.1482 16.9967 32.2094 17.447 32.3444C17.174 31.9937 16.7826 31.6027 16.105 31.1334C14.4806 30.0088 12.545 27.5164 13.0957 24.8158Z" fill="#6E6458"/>
<path d="M44.0033 37.0178C40.173 39.4661 38.3334 34.8701 35.968 35.695C29.3253 38.012 24.0171 33.6389 21.3618 28.797C19.6124 29.3594 15.3038 29.405 14.0013 23.5156C13.6323 23.5722 13.4081 23.3166 13.0957 24.8161C12.6082 27.207 14.0691 29.4302 15.5378 30.6901C15.5232 30.698 15.5024 30.7005 15.4885 30.709C14.5403 31.2839 14.1412 32.4399 15.243 32.8999C15.2607 32.9075 15.2792 32.9117 15.297 32.9187C15.0431 33.3021 15.0501 33.7602 15.5428 34.1356C16.4175 34.8023 17.5837 34.9687 17.9794 34.823C18.218 34.7349 19.2139 34.8172 20.2042 35.0895C20.3388 35.1803 20.4762 35.2689 20.6035 35.3643C20.9445 35.6201 22.0799 36.6065 23.549 37.6806C20.6582 37.615 19.8081 38.4367 19.8081 39.644C19.8081 39.644 20.1144 39.644 20.6318 39.644C20.3938 39.9271 20.2807 40.2653 20.2807 40.6548C20.2807 40.6548 24.5878 40.6548 28.9157 40.6548C29.5301 40.8457 30.128 40.9667 30.6832 40.9667C35.015 40.9667 34.105 40.5081 37.4309 40.5081C38.5403 40.5081 39.7112 40.9667 41.773 40.9667C43.3454 40.9667 44.272 39.3265 44.1471 37.7021C44.1278 37.4519 44.0724 37.2294 44.0033 37.0178Z" fill="#595148"/>
</g>
<defs>
<clipPath id="clip0_2883_12604">
<rect width="64" height="68" fill="white" transform="translate(2)"/>
</clipPath>
</defs>
</svg>
