<svg width="68" height="68" viewBox="0 0 68 68" fill="none" xmlns="http://www.w3.org/2000/svg">
<g clip-path="url(#clip0_2883_12573)">
<path opacity="0.4" d="M34 68C51.6731 68 66 53.6731 66 36C66 18.3269 51.6731 4 34 4C16.3269 4 2 18.3269 2 36C2 53.6731 16.3269 68 34 68Z" fill="black" fill-opacity="0.05"/>
<path d="M34 66C51.6731 66 66 51.6731 66 34C66 16.3269 51.6731 2 34 2C16.3269 2 2 16.3269 2 34C2 51.6731 16.3269 66 34 66Z" fill="black" fill-opacity="0.05"/>
<path d="M34 65C51.6731 65 66 50.6731 66 33C66 15.3269 51.6731 1 34 1C16.3269 1 2 15.3269 2 33C2 50.6731 16.3269 65 34 65Z" fill="black" fill-opacity="0.05"/>
<path d="M34 64C51.6731 64 66 49.6731 66 32C66 14.3269 51.6731 0 34 0C16.3269 0 2 14.3269 2 32C2 49.6731 16.3269 64 34 64Z" fill="white"/>
<path opacity="0.19" d="M33.9785 51.1816C45.5765 51.1816 54.9785 50.5101 54.9785 49.6816C54.9785 48.8532 45.5765 48.1816 33.9785 48.1816C22.3805 48.1816 12.9785 48.8532 12.9785 49.6816C12.9785 50.5101 22.3805 51.1816 33.9785 51.1816Z" fill="#020202"/>
<path opacity="0.2" d="M36.2536 51.1816C44.6779 51.1816 51.5072 50.5101 51.5072 49.6816C51.5072 48.8532 44.6779 48.1816 36.2536 48.1816C27.8293 48.1816 21 48.8532 21 49.6816C21 50.5101 27.8293 51.1816 36.2536 51.1816Z" fill="black"/>
<path d="M35.0123 41.0349C34.5923 42.6577 34.0666 47.1088 34.5545 48.8706C34.7217 48.9496 34.8026 49.3135 34.7217 49.5429C34.1067 49.5429 28.873 49.5429 28.873 49.5429C28.873 48.407 31.4447 48.4533 32.3897 48.6156C33.0947 47.6651 32.3747 40.5713 32.3747 40.5713L35.0123 41.0349Z" fill="#97663E"/>
<path d="M38.8345 41.5379C38.3221 43.1606 37.6808 47.6117 38.2759 49.3736C38.4162 49.4177 38.5554 49.8452 38.4611 50.0459C37.7108 50.0459 32.4199 50.0459 32.4199 50.0459C32.4199 48.9099 34.6523 48.9563 35.8051 49.1186C36.6651 48.1681 35.7868 41.0742 35.7868 41.0742L38.8345 41.5379Z" fill="#BA7E4D"/>
<path d="M18.261 16.638C18.6673 15.2628 19.6675 14.7314 20.1051 14.6064C20.5427 14.4814 21.3241 13.5749 23.2932 14.1375C25.2623 14.7002 30.3882 18.6696 29.0442 23.5455C27.7002 28.4214 25.1372 30.6093 26.1687 31.2657C27.2001 31.922 31.3571 27.39 37.0457 26.7336C42.7342 26.0772 49.8292 39.0796 51.0795 39.2046C52.3297 39.3296 54.6426 39.6734 54.6426 39.6734C52.5797 41.205 43.5468 42.3927 42.0466 42.3614C40.5463 42.3302 38.681 43.1116 38.681 43.1116C38.681 44.4302 35.7329 44.5402 35.7329 43.1116C35.3372 42.9869 34.941 42.8902 34.941 42.8902C34.831 44.1002 31.971 43.6602 32.2503 42.1432C29.8437 41.7994 22.2617 39.8297 20.8552 35.3914C19.4487 30.9531 24.2933 26.2647 25.0747 24.4207C25.8561 22.5766 25.1372 19.2322 22.8243 17.732C21.5116 18.8572 16.9795 20.0449 18.261 16.638Z" fill="#D5DCE9"/>
<path opacity="0.1" d="M42.5578 42.3436C42.6734 42.3365 42.7881 42.3298 42.9275 42.3184C43.0261 42.3104 43.1446 42.2982 43.254 42.288C43.3602 42.278 43.4574 42.2699 43.573 42.258C43.714 42.2435 43.8727 42.2249 44.0262 42.2075C44.1288 42.1959 44.2232 42.1862 44.3307 42.1733C44.514 42.1514 44.7117 42.1255 44.9079 42.1001C44.998 42.0884 45.0821 42.0785 45.1746 42.0661C45.4159 42.0338 45.6685 41.9976 45.9234 41.9606C45.978 41.9526 46.0292 41.9459 46.0843 41.9378C46.3528 41.8981 46.6291 41.8549 46.9073 41.8104C46.9549 41.8028 47.0008 41.7961 47.0486 41.7883C47.3323 41.7423 47.6204 41.693 47.9092 41.6423C47.9535 41.6345 47.9971 41.6275 48.0415 41.6196C48.3257 41.5691 48.6107 41.5154 48.8949 41.4607C48.9451 41.4511 48.9955 41.4421 49.0456 41.4324C49.326 41.3775 49.6037 41.3198 49.8793 41.2611C49.9313 41.25 49.9845 41.2397 50.0364 41.2285C50.3049 41.1703 50.5669 41.1096 50.826 41.048C50.8821 41.0346 50.9404 41.022 50.9961 41.0085C51.2428 40.9487 51.4795 40.8864 51.7134 40.8237C51.7762 40.8068 51.8425 40.7906 51.9042 40.7735C52.1263 40.7121 52.3353 40.6486 52.5413 40.5848C52.6055 40.5649 52.6741 40.5457 52.7364 40.5256C52.9304 40.4631 53.1082 40.3989 53.2834 40.3343C53.3459 40.3112 53.4139 40.2888 53.4737 40.2655C53.6355 40.2026 53.7784 40.1381 53.9193 40.0734C53.977 40.047 54.0409 40.0211 54.0947 39.9944C54.2207 39.9319 54.3254 39.868 54.4291 39.8041C54.4721 39.7776 54.5207 39.7515 54.5596 39.7247C54.5663 39.7048 54.5713 39.6839 54.5778 39.6639C54.2549 39.6163 52.2297 39.3198 51.0804 39.2048C50.4368 39.1404 50.1806 38.091 47.4288 34.8219C42.4611 35.1978 36.6141 35.4191 29.9203 35.4541C22.4183 35.4934 22.2261 31.1283 25.0757 24.4209C24.2942 26.265 19.4496 30.9533 20.8561 35.3916C21.1199 36.2238 21.6007 36.9692 22.2238 37.6334C24.0932 39.6258 27.243 40.8871 29.6532 41.5675C30.7245 41.8699 31.6496 42.0574 32.2513 42.1434C31.9719 43.7706 34.9419 43.9906 34.9419 42.8906C34.9419 42.8906 35.3381 42.9871 35.7339 43.1118C35.7573 43.4652 35.9087 43.7133 36.1224 43.8687C36.7438 44.3206 37.9119 44.1551 38.3549 43.7919C38.5549 43.6279 38.6858 43.397 38.6819 43.1118C38.6819 43.1118 40.5472 42.3304 42.0475 42.3616C42.1408 42.3636 42.2637 42.3607 42.4118 42.3535C42.4537 42.3514 42.5119 42.3463 42.5578 42.3436Z" fill="#020202"/>
<path d="M21.1911 15.5009C18.8816 15.8386 16.773 16.5753 17.3922 18.4632C17.5595 19.0465 18.1955 18.939 18.1955 18.939C17.9946 19.6604 16.8399 20.9497 16.6056 21.3641C16.3713 21.7785 16.5387 22.4846 16.9905 22.4999C17.4424 22.5153 20.6388 19.7372 20.7894 19.3841C20.9401 19.0311 20.8397 16.4218 21.1911 16.0688C21.5425 15.7158 21.6593 15.4836 21.1911 15.5009Z" fill="#D1993B"/>
<path d="M27.6928 35.7571C27.2626 33.7713 30.9304 30.8139 34.0706 29.2907C37.2109 27.7675 39.9671 26.4877 42.418 28.2748C44.5427 29.8241 49.1089 35.4463 52.9667 35.3721C52.601 36.9817 41.5924 40.1935 36.9255 39.1425C32.2585 38.0915 28.1188 37.7238 27.6928 35.7571Z" fill="#E2E9F2"/>
</g>
<defs>
<clipPath id="clip0_2883_12573">
<rect width="64" height="68" fill="white" transform="translate(2)"/>
</clipPath>
</defs>
</svg>
