<svg width="68" height="68" viewBox="0 0 68 68" fill="none" xmlns="http://www.w3.org/2000/svg">
<path opacity="0.4" d="M34 68C51.6731 68 66 53.6731 66 36C66 18.3269 51.6731 4 34 4C16.3269 4 2 18.3269 2 36C2 53.6731 16.3269 68 34 68Z" fill="black" fill-opacity="0.05"/>
<path d="M34 66C51.6731 66 66 51.6731 66 34C66 16.3269 51.6731 2 34 2C16.3269 2 2 16.3269 2 34C2 51.6731 16.3269 66 34 66Z" fill="black" fill-opacity="0.05"/>
<path d="M34 65C51.6731 65 66 50.6731 66 33C66 15.3269 51.6731 1 34 1C16.3269 1 2 15.3269 2 33C2 50.6731 16.3269 65 34 65Z" fill="black" fill-opacity="0.05"/>
<path d="M34 64C51.6731 64 66 49.6731 66 32C66 14.3269 51.6731 0 34 0C16.3269 0 2 14.3269 2 32C2 49.6731 16.3269 64 34 64Z" fill="white"/>
<path opacity="0.2" d="M34 45C45.598 45 55 44.3284 55 43.5C55 42.6716 45.598 42 34 42C22.402 42 13 42.6716 13 43.5C13 44.3284 22.402 45 34 45Z" fill="black"/>
<path opacity="0.2" d="M35.9941 45C45.9353 45 53.9941 44.3284 53.9941 43.5C53.9941 42.6716 45.9353 42 35.9941 42C26.053 42 17.9941 42.6716 17.9941 43.5C17.9941 44.3284 26.053 45 35.9941 45Z" fill="black"/>
<path d="M40.4485 32.3896C39.7585 35.3286 43.6725 36.7319 44.1781 37.5117C44.6836 38.2916 44.1879 40.2003 43.6371 40.6724C42.7457 41.4364 42.0539 42.6338 42.0539 42.6338C42.5993 42.6338 44.2269 42.6338 44.2269 42.6338C44.2269 42.0548 45.4331 41.2396 45.4331 41.2396C45.4331 40.507 45.6951 39.5355 46.4442 38.1793C47.1933 36.8231 47.9077 34.2434 47.9077 34.2434L40.4485 32.3896Z" fill="#49342B"/>
<path d="M29.382 33.6797C29.728 35.7285 29.3022 41.609 29.3022 41.609C28.637 42.3274 28.4774 42.6334 28.4774 42.6334C27.6259 42.6334 26.0028 42.6334 26.0028 42.6334C26.637 41.4981 27.4808 41.3561 27.6582 40.8063C27.8356 40.2564 27.8565 38.9216 27.3066 37.5379C26.7567 36.1543 25.7988 34.0611 25.7988 34.0611L29.382 33.6797Z" fill="#49342B"/>
<path d="M53.0173 29.2296C51.2484 26.5807 50.9822 25.6162 49.591 24.7212C48.2614 23.8659 46.0724 22.0918 45.4072 21.3468C44.742 20.6018 41.7619 20.7614 39.9792 20.6816C38.1964 20.6018 32.3426 19.8834 30.347 20.0164C28.3513 20.1494 26.7549 21.4532 26.0099 21.9854C25.2648 22.5176 24.1206 22.3047 23.7215 22.6501C23.3224 22.9956 21.3002 23.7415 21.1938 23.7415C21.0873 23.7415 20.9809 22.6861 19.9077 22.4998C18.599 22.2727 18.6878 25.0255 17.9342 26.3442C17.1473 27.7213 15.6163 32.5521 15.1791 34.0822C14.9587 34.8536 14.623 35.3726 14.0643 35.6919C13.7801 35.9621 14.4988 36.1608 15.0288 36.4921C15.5723 36.832 16.2431 37.4271 16.3704 37.1315C16.3704 37.1315 16.4591 36.5816 17.4524 36.1559C18.4458 35.7301 21.3623 34.4203 21.9654 34.0301C22.5685 33.6398 26.9323 35.6443 29.2915 35.0589C29.2915 35.0589 30.2494 37.1521 30.7993 38.5357C31.3492 39.9193 31.3772 41.3121 31.1998 41.862C31.0224 42.4119 29.9612 42.6334 29.4955 43.6312C29.4955 43.6312 31.1186 43.6312 31.9701 43.6312C31.9701 43.6312 32.1297 43.3252 32.7949 42.6068C32.7949 42.6068 33.5843 36.9924 32.8747 34.6775C32.8747 34.6775 35.3227 34.0389 37.3183 34.0921C39.3139 34.1454 40.2719 33.826 41.8151 33.0544C42.506 34.5034 45.3816 37.09 45.8872 37.9681C46.3927 38.8461 47.7014 41.15 47.1467 41.7154C46.4548 42.4205 45.5635 43.9239 45.5635 43.9239C46.109 43.9239 47.6611 43.9239 47.6611 43.9239C47.6611 43.2719 48.9427 42.354 48.9427 42.354C48.9427 41.5291 48.81 39.1617 49.2211 37.5113C47.049 34.8254 52.3607 31.9619 49.6734 27.2893C50.241 28.1762 51.2192 28.0944 51.6035 29.8589C52.0141 31.7438 53.2788 34.7598 53.7597 35.9839C53.7597 35.9839 54.6449 31.6668 53.0173 29.2296Z" fill="#8D6751"/>
<path opacity="0.19" d="M15.0288 36.4919C15.5723 36.8317 16.2431 37.4269 16.3704 37.1313C16.3704 37.1313 16.4591 36.5813 17.4524 36.1556C18.4459 35.7299 21.3623 34.42 21.9654 34.0298C22.5685 33.6395 26.9323 35.644 29.2915 35.0586C29.2915 35.0586 30.2494 37.1518 30.7993 38.5354C31.3492 39.9191 31.3772 41.3119 31.1998 41.8617C31.0224 42.4116 29.9612 42.6331 29.4955 43.6309C29.4955 43.6309 31.1186 43.6309 31.9701 43.6309C31.9701 43.6309 32.1297 43.3249 32.7949 42.6065C32.7949 42.6065 33.5843 36.9922 32.8748 34.6772C32.8748 34.6772 35.3227 34.0387 37.3183 34.0919C39.314 34.1451 40.2719 33.8258 41.8151 33.0541C42.506 34.5032 45.3817 37.0898 45.8872 37.9678C46.3928 38.8458 47.7014 41.1497 47.1467 41.7151C46.4549 42.4202 45.5634 43.9236 45.5634 43.9236C46.109 43.9236 47.6611 43.9236 47.6611 43.9236C47.6611 43.2717 48.9427 42.3537 48.9427 42.3537C48.9427 41.5289 48.8101 39.1614 49.2211 37.511C48.1157 36.1442 48.9477 34.7298 49.678 33.0559C47.9676 34.1083 43.4309 30.7861 41.6609 28.6884C40.557 31.284 32.9704 32.265 32.0212 31.3589C30.0976 29.5228 29.3162 30.3261 28.1359 31.1786C26.9164 32.0592 23.0112 32.2663 23.316 30.0818C23.5783 28.202 21.9156 26.5116 20.8186 26.65C20.8186 26.65 21.4307 25.8631 21.1938 23.7412C21.0873 23.7412 20.9809 22.6858 19.9077 22.4996C18.599 22.2724 18.6878 25.0252 17.9342 26.344C17.1473 27.7211 15.6162 32.5519 15.1791 34.082C14.9587 34.8533 14.6231 35.3723 14.0643 35.6916C13.7801 35.9618 14.4988 36.1605 15.0288 36.4919Z" fill="black"/>
<path opacity="0.19" d="M15.0288 36.492C15.5723 36.8319 16.2431 37.427 16.3704 37.1314C16.3704 37.1314 16.4591 36.5815 17.4524 36.1557C18.4459 35.73 21.3623 34.4202 21.9654 34.03C22.5685 33.6397 26.9323 35.6442 29.2915 35.0588C29.2915 35.0588 30.2494 37.152 30.7993 38.5356C31.3492 39.9192 31.3772 41.312 31.1998 41.8619C31.0224 42.4117 29.9612 42.6333 29.4955 43.631C29.4955 43.631 31.1186 43.631 31.9701 43.631C31.9701 43.631 32.1297 43.325 32.7949 42.6066C32.7949 42.6066 33.5843 36.9923 32.8748 34.6774C32.8748 34.6774 35.3227 34.0388 37.3183 34.092C39.314 34.1453 40.2719 33.8259 41.8151 33.0543C42.506 34.5033 45.3817 37.0899 45.8872 37.968C46.3928 38.846 47.7014 41.1499 47.1467 41.7153C46.4549 42.4204 45.5634 43.9237 45.5634 43.9237C46.109 43.9237 47.6611 43.9237 47.6611 43.9237C47.6611 43.2719 48.9427 42.3539 48.9427 42.3539C48.9427 41.529 48.8101 39.1616 49.2211 37.5112C48.9276 37.1481 48.7789 36.7812 48.7206 36.4076C48.7178 36.4081 48.7154 36.4079 48.7126 36.4084C46.284 36.88 43.0969 33.4268 41.6773 31.8525C41.6773 31.8525 40.3439 33.2733 37.2236 33.2733C35.8131 33.2733 32.6769 33.9073 32.2179 33.0875C31.6662 32.1024 29.8849 32.7378 28.8845 33.4829C27.7367 34.3377 23.704 33.4701 22.4362 32.3891C21.1684 31.3081 20.6 33.0766 19.1137 34.0821C17.6278 35.0873 15.2985 33.681 15.6554 32.5106C15.4514 33.1603 15.2835 33.7168 15.1791 34.0821C14.9587 34.8535 14.6231 35.3725 14.0643 35.6918C13.7801 35.962 14.4988 36.1606 15.0288 36.492Z" fill="black"/>
</svg>
