<svg width="68" height="68" viewBox="0 0 68 68" fill="none" xmlns="http://www.w3.org/2000/svg">
<path opacity="0.4" d="M34 68C51.6731 68 66 53.6731 66 36C66 18.3269 51.6731 4 34 4C16.3269 4 2 18.3269 2 36C2 53.6731 16.3269 68 34 68Z" fill="black" fill-opacity="0.05"/>
<path d="M34 66C51.6731 66 66 51.6731 66 34C66 16.3269 51.6731 2 34 2C16.3269 2 2 16.3269 2 34C2 51.6731 16.3269 66 34 66Z" fill="black" fill-opacity="0.05"/>
<path d="M34 65C51.6731 65 66 50.6731 66 33C66 15.3269 51.6731 1 34 1C16.3269 1 2 15.3269 2 33C2 50.6731 16.3269 65 34 65Z" fill="black" fill-opacity="0.05"/>
<path d="M34 64C51.6731 64 66 49.6731 66 32C66 14.3269 51.6731 0 34 0C16.3269 0 2 14.3269 2 32C2 49.6731 16.3269 64 34 64Z" fill="white"/>
<path opacity="0.2" d="M34.0059 48C45.6038 48 55.0059 47.3284 55.0059 46.5C55.0059 45.6716 45.6038 45 34.0059 45C22.4079 45 13.0059 45.6716 13.0059 46.5C13.0059 47.3284 22.4079 48 34.0059 48Z" fill="black"/>
<path opacity="0.2" d="M37.128 48C46.4354 48 53.9806 47.3284 53.9806 46.5C53.9806 45.6716 46.4354 45 37.128 45C27.8205 45 20.2754 45.6716 20.2754 46.5C20.2754 47.3284 27.8205 48 37.128 48Z" fill="black"/>
<path d="M50.9471 26.9639C51.1031 28.6353 52.6763 32.465 51.662 34.6801C50.5441 33.0861 49.6733 27.0727 50.9471 26.9639Z" fill="#725741"/>
<path d="M47.1085 25.3203C46.9921 27.5764 45.7806 36.8442 46.5957 38.3434C45.766 39.8135 44.7326 44.5773 45.3148 46.1202C43.9466 46.1202 42.5526 46.1202 42.5526 46.1202C43.3386 45.1595 43.816 40.6823 43.816 37.2048C42.3876 34.4102 41.6211 29.9829 41.6211 29.9829L47.1085 25.3203Z" fill="#725741"/>
<path d="M30.5254 29.5537C32.2332 30.6017 33.7326 32.8485 34.2178 34.4205C34.703 35.9925 35.2227 37.6228 35.4944 39.4276C35.7661 41.2325 35.7558 45.6182 35.2561 46.1179H38.5941C38.5941 46.1179 36.8597 38.9184 37.7525 36.6672C36.9373 35.3863 35.9353 32.1111 36.0518 30.869L30.5254 29.5537Z" fill="#725741"/>
<path d="M14.1199 20.7846C13.6065 20.0527 14.8909 18.7141 15.1681 18.5587C15.4454 18.4032 17.8986 18.4981 18.5756 18.0167C19.2525 17.5353 19.8722 17.3043 20.4899 17.4132C21.0187 17.0043 21.9768 16.5327 21.7033 17.9796C22.8821 19.5449 23.9308 22.4943 24.1983 23.6796C24.6757 25.7953 26.9443 26.5579 29.6839 23.1575C32.4235 19.7572 33.5541 19.9129 34.9296 19.7277C36.305 19.5424 36.7525 17.1402 39.6182 17.2397C42.4839 17.3391 43.3306 19.8008 45.6398 20.8276C47.9491 21.8544 50.9466 24.7094 50.9466 26.9685C50.9466 30.5445 48.4253 35.9718 49.6845 38.9388C48.6737 41.0228 48.1625 45.5275 48.6908 47.0896C47.328 47.0896 45.2855 47.0896 45.2855 47.0896C46.1044 46.1568 47.0762 41.567 47.0762 38.059C45.6995 35.4714 45.572 32.0557 45.572 32.0557C42.9773 34.1258 38.509 33.5326 35.3163 32.645C35.1568 33.8823 34.0591 37.5339 34.8293 38.8422C33.859 41.0612 34.9043 47.0896 34.9043 47.0896H31.0272C31.5439 46.6075 32.4633 43.2585 32.4715 39.3114C32.4775 36.4236 31.6989 31.3036 29.7338 30.912C28.0375 30.5739 25.8058 32.0448 22.8262 30.2308C20.702 28.9376 20.0582 23.1365 19.4133 22.4151C18.7426 22.4355 18.395 22.3797 17.9125 22.0134C17.4301 21.6471 16.1451 20.9035 15.3415 20.9775C14.5379 21.0516 14.5039 21.332 14.1199 20.7846Z" fill="#C99C73"/>
<path opacity="0.2" d="M14.1199 20.7846C14.5039 21.3319 14.5378 21.0515 15.3415 20.9774C16.1451 20.9034 17.43 21.647 17.9125 22.0133C18.395 22.3796 18.7426 22.4354 19.4133 22.4149C20.0582 23.1364 20.702 28.9375 22.8262 30.2307C25.8058 32.0447 28.0375 30.5738 29.7338 30.9119C31.6989 31.3035 32.4775 36.4235 32.4715 39.3114C32.4633 43.2583 31.544 46.6074 31.0271 47.0895H34.9043C34.9043 47.0895 33.859 41.0611 34.8293 38.8422C34.0591 37.5338 35.1568 33.8822 35.3163 32.645C38.509 33.5325 42.9773 34.1257 45.572 32.0556C45.572 32.0556 45.6995 35.4713 47.0761 38.059C47.0761 41.5669 46.1044 46.1567 45.2855 47.0895C45.2855 47.0895 47.328 47.0895 48.6909 47.0895C48.1625 45.5274 48.6737 41.0228 49.6845 38.9387C48.4252 35.9717 50.9466 30.5444 50.9466 26.9685C50.9466 25.3149 49.3398 23.3448 47.5733 22.0034C47.8499 26.9691 37.7639 29.2885 36.0942 25.3257C34.56 21.6843 31.4572 27.7291 26.3233 28.1431C22.4996 28.4515 21.2308 23.3818 21.0652 21.6016C20.8996 19.8213 20.734 19.49 18.7674 20.0076C16.8008 20.5251 14.6686 19.3037 15.1681 18.5586C14.8908 18.714 13.6065 20.0526 14.1199 20.7846Z" fill="black"/>
<path opacity="0.2" d="M45.7409 28.7217C43.2981 32.2514 36.208 31.6405 35.5641 29.5603C35.2272 28.4722 35.0073 27.1951 32.0471 28.7838C29.4882 30.1571 26.6522 30.9723 23.7012 30.675C26.2474 31.7581 28.2081 30.6068 29.7337 30.9108C31.6989 31.3025 32.4775 36.4225 32.4715 39.3103C32.4633 43.2573 31.5439 46.6064 31.027 47.0885H34.9042C34.9042 47.0885 33.859 41.06 34.8292 38.8411C34.059 37.5327 35.1567 33.8812 35.3162 32.6439C38.5089 33.5315 42.9772 34.1247 45.5719 32.0546C45.5719 32.0546 45.6995 35.4702 47.0761 38.0579C47.0761 41.5659 46.1043 46.1557 45.2854 47.0885C45.2854 47.0885 47.3279 47.0885 48.6908 47.0885C48.1624 45.5263 48.6736 41.0217 49.6844 38.9377C48.6092 36.4042 50.2862 32.0801 50.8005 28.6434C50.1767 30.3774 46.3607 31.418 45.7409 28.7217Z" fill="black"/>
</svg>
