<svg width="68" height="68" viewBox="0 0 68 68" fill="none" xmlns="http://www.w3.org/2000/svg">
<path opacity="0.4" d="M34 68C51.6731 68 66 53.6731 66 36C66 18.3269 51.6731 4 34 4C16.3269 4 2 18.3269 2 36C2 53.6731 16.3269 68 34 68Z" fill="black" fill-opacity="0.05"/>
<path d="M34 66C51.6731 66 66 51.6731 66 34C66 16.3269 51.6731 2 34 2C16.3269 2 2 16.3269 2 34C2 51.6731 16.3269 66 34 66Z" fill="black" fill-opacity="0.05"/>
<path d="M34 65C51.6731 65 66 50.6731 66 33C66 15.3269 51.6731 1 34 1C16.3269 1 2 15.3269 2 33C2 50.6731 16.3269 65 34 65Z" fill="black" fill-opacity="0.05"/>
<path d="M34 64C51.6731 64 66 49.6731 66 32C66 14.3269 51.6731 0 34 0C16.3269 0 2 14.3269 2 32C2 49.6731 16.3269 64 34 64Z" fill="white"/>
<path opacity="0.2" d="M35 51.3564C46.0457 51.3564 55 50.6849 55 49.8564C55 49.028 46.0457 48.3564 35 48.3564C23.9543 48.3564 15 49.028 15 49.8564C15 50.6849 23.9543 51.3564 35 51.3564Z" fill="black"/>
<path opacity="0.2" d="M34 51.3564C41.732 51.3564 48 50.6849 48 49.8564C48 49.028 41.732 48.3564 34 48.3564C26.268 48.3564 20 49.028 20 49.8564C20 50.6849 26.268 51.3564 34 51.3564Z" fill="black"/>
<path d="M44.7078 44.3386L40.111 43.4983L33.4051 41.4159L27.5777 40.4954C27.5777 40.4954 23.1724 39.1623 21.6639 38.8981C20.6095 38.7135 19.3657 41.03 21.2442 42.0044C21.6912 42.2364 23.0031 42.2227 24.9695 42.6701C26.7222 43.0689 29.021 43.9144 31.282 44.3697C33.9022 44.8972 36.759 45.2395 39.1076 45.6864C42.014 46.2394 44.204 46.853 44.9394 46.9939C47.357 47.4576 45.977 44.6383 44.7078 44.3386Z" fill="#776B53"/>
<path d="M44.9394 46.9933C44.204 46.8523 42.0141 46.2387 39.1076 45.6858C36.759 45.2388 33.9022 44.8966 31.2821 44.3689C29.0211 43.9137 26.7221 43.0683 24.9696 42.6695C23.0032 42.2221 21.6911 42.2357 21.2443 42.0038C20.3225 41.5257 20.1547 40.7251 20.3452 40.0547C20.4679 40.112 20.5766 40.1855 20.6529 40.2948C20.8562 40.5868 21.2422 41.124 22.1085 41.3296C24.679 41.9397 29.4758 41.9511 30.3565 42.4322C31.5338 43.0752 35.6019 43.9957 37.0381 43.9651C38.4744 43.9348 42.0118 45.1886 43.1941 45.9163C44.3743 46.6428 46.2534 46.2764 46.1328 45.7539C46.4448 46.5162 46.2634 47.2473 44.9394 46.9933Z" fill="#5E5442"/>
<path d="M30.3886 36.4888C29.3793 37.4848 28.3566 40.3709 27.4415 40.4269C26.5264 40.4829 24.8457 40.5576 24.9204 41.9769C24.9951 43.3962 27.6147 44.1037 27.0935 43.2491C26.1184 41.6507 28.3939 40.6884 28.9542 40.7631C29.5144 40.8378 29.5518 40.8004 29.4957 40.1468C29.4397 39.4932 30.9488 37.1985 31.6398 36.825C32.3307 36.4515 31.28 35.6092 30.3886 36.4888Z" fill="#B88D0D"/>
<path d="M33.7471 37.0855C32.7378 38.0814 31.7151 40.9676 30.8 41.0236C29.8849 41.0796 28.3839 41.1562 28.2789 42.5736C28.1626 44.1437 30.9991 44.8875 30.4229 44.1786C29.0475 42.4865 31.7524 41.2851 32.3127 41.3598C32.8729 41.4345 32.9103 41.3971 32.8542 40.7435C32.7982 40.0899 34.3073 37.7952 34.9983 37.4217C35.6892 37.0482 34.6385 36.2059 33.7471 37.0855Z" fill="#E3AD0F"/>
<path d="M17 19.1099C17.0498 18.4376 19.739 18.6866 19.739 18.6866C20.735 17.6159 24.2361 15.885 26.6944 17.8485C28.9782 19.6727 28.5965 21.9562 30.6535 23.177C31.2568 23.5351 34.8864 25.2188 37.5258 27.8084C40.1652 30.398 43.1781 32.4647 45.0705 32.8631C46.9629 33.2615 55.0742 35.3168 54.9995 36.8481C54.9248 38.3794 50.2934 35.9019 44.4668 36.1011C38.7761 36.2957 39.1121 37.2323 35.2213 37.8959C31.9424 38.4552 29.0719 38.0192 26.3815 36.6987C23.8428 35.4527 21.396 33.2549 21.1898 30.4731C20.9976 27.8805 21.6101 26.1648 22.3483 24.3609C23.1647 22.3659 20.6852 21.0272 19.2161 20.4545C17.747 19.8818 17 19.832 17 19.1099Z" fill="#B1AAA0"/>
<path opacity="0.12" d="M45.0705 32.8632C44.2426 32.6889 43.1946 32.1816 42.0629 31.4646C39.9817 32.9599 36.3653 34.7845 31.5769 32.5423C24.5258 29.2404 26.1832 26.844 24.5518 22.4498C23.4209 19.4034 18.9747 19.7359 19.739 18.6867C19.739 18.6867 17.0498 18.4377 17 19.11C17 19.8321 17.747 19.8819 19.2161 20.4546C20.6852 21.0273 23.1647 22.366 22.3482 24.3611C21.61 26.1649 20.9975 27.8806 21.1898 30.4732C21.396 33.255 23.8427 35.4528 26.3814 36.6988C29.0718 38.0193 31.9424 38.4553 35.2213 37.896C39.112 37.2324 38.776 36.2957 44.4668 36.1012C50.2436 35.7776 54.9247 38.3795 54.9994 36.8482C55.0741 35.3169 46.9629 33.2616 45.0705 32.8632Z" fill="black"/>
<path d="M25.8454 25.7942C27.1087 24.2834 29.1964 23.7695 31.8711 24.2307C34.5457 24.6919 35.6863 25.9978 39.2971 28.3876C41.1375 29.6056 42.558 30.0009 45.2721 31.3073C47.2924 32.2798 45.0416 33.2078 38.2656 33.4749C28.5794 33.8569 21.5395 30.944 25.8454 25.7942Z" fill="#C9C2B8"/>
</svg>
