<svg width="68" height="68" viewBox="0 0 68 68" fill="none" xmlns="http://www.w3.org/2000/svg">
<path opacity="0.4" d="M34 68C51.6731 68 66 53.6731 66 36C66 18.3269 51.6731 4 34 4C16.3269 4 2 18.3269 2 36C2 53.6731 16.3269 68 34 68Z" fill="black" fill-opacity="0.05"/>
<path d="M34 66C51.6731 66 66 51.6731 66 34C66 16.3269 51.6731 2 34 2C16.3269 2 2 16.3269 2 34C2 51.6731 16.3269 66 34 66Z" fill="black" fill-opacity="0.05"/>
<path d="M34 65C51.6731 65 66 50.6731 66 33C66 15.3269 51.6731 1 34 1C16.3269 1 2 15.3269 2 33C2 50.6731 16.3269 65 34 65Z" fill="black" fill-opacity="0.05"/>
<path d="M34 64C51.6731 64 66 49.6731 66 32C66 14.3269 51.6731 0 34 0C16.3269 0 2 14.3269 2 32C2 49.6731 16.3269 64 34 64Z" fill="white"/>
<path opacity="0.2" d="M34.0059 44.6953C45.6038 44.6953 55.0059 44.0237 55.0059 43.1953C55.0059 42.3669 45.6038 41.6953 34.0059 41.6953C22.4079 41.6953 13.0059 42.3669 13.0059 43.1953C13.0059 44.0237 22.4079 44.6953 34.0059 44.6953Z" fill="black"/>
<path opacity="0.2" d="M33.4473 44.6953C43.3884 44.6953 51.4473 44.0237 51.4473 43.1953C51.4473 42.3669 43.3884 41.6953 33.4473 41.6953C23.5061 41.6953 15.4473 42.3669 15.4473 43.1953C15.4473 44.0237 23.5061 44.6953 33.4473 44.6953Z" fill="black"/>
<path d="M22.8037 39.2471C24.3824 39.9612 25.5295 42.0488 23.5467 42.1599C22.6084 42.2125 21.968 43.2876 22.5318 43.2876C22.5318 43.2876 25.3554 43.2876 25.8064 43.2876C27.1221 43.2876 28.7713 39.0778 29.9741 39.3033L22.8037 39.2471Z" fill="#3B2E27"/>
<path d="M34.8529 39.6893C35.8298 39.7746 36.5568 40.1728 36.3491 40.7614C36.1527 41.3179 36.0061 41.8586 34.5778 41.9338C33.1495 42.009 33.4502 43.287 34.0892 43.287C34.0892 43.287 34.0892 43.287 36.7955 43.287C39.5018 43.287 40.2159 38.6261 39.589 37.4717L34.8529 39.6893Z" fill="#3B2E27"/>
<path d="M14.5343 38.9315C13.127 37.3109 14.741 34.2518 16.5828 32.3724C18.4246 30.4931 21.284 28.559 22.3253 27.7262C26.7409 24.1948 30.8767 21.1973 38.2585 19.4198C42.7181 18.346 48.16 19.5019 50.457 20.9749C48.7259 20.8018 47.1506 21.0442 45.5984 21.9328C47.3987 21.8405 52.569 24.7026 53.1922 26.6414C52.1189 26.4106 49.6953 26.878 48.8529 27.8185C50.8148 28.511 52.9383 29.9189 54 32.6425C52.4766 32.6195 50.8379 33.3811 50.3762 34.3736C51.438 34.7429 52.6382 35.5046 53.3768 37.4717C50.1479 38.3245 45.1114 38.2145 44.1674 38.3456C44.6936 40.5257 43.0819 44.0809 40.3756 44.0809C37.6693 44.0809 37.6693 44.0809 37.6693 44.0809C37.0304 44.0809 36.7297 42.803 38.158 42.7278C39.5863 42.6526 39.9271 42.1408 40.2253 41.4874C40.5724 40.7268 38.499 39.4542 38.0104 39.567C37.5217 39.6797 34.4963 40.2996 32.8206 40.0967C31.6057 39.9496 30.0415 44.0809 28.599 44.0809C28.1479 44.0809 25.3782 44.0809 25.3782 44.0809C24.8144 44.0809 25.4543 42.9939 26.3931 42.9533C28.9106 42.8445 27.1824 40.886 25.6038 40.1718C24.0251 39.4577 21.7699 38.6683 19.4394 39.4201C17.109 40.1718 15.1545 39.6456 14.5343 38.9315Z" fill="#6D5B51"/>
<path d="M34 24.0323C35.4079 23.508 42.5467 24.5281 42.8748 25.3373C40.852 25.4527 38.4329 28.5352 38.7201 29.2496C40.0737 28.9264 43.0825 30.1498 45.483 31.5405C44.629 31.9559 43.071 32.0309 41.8015 34.4775C45.3329 34.1544 46.7778 35.8935 47.2025 36.4683C45.835 36.7626 44.6924 37.4717 44.17 38.3453C45.1194 38.2145 50.1503 38.3238 53.3768 37.4717C52.6382 35.5046 51.438 34.7429 50.3762 34.3737C50.8379 33.3811 52.4766 32.6195 54 32.6425C52.9383 29.919 50.8148 28.5109 48.8529 27.8186C49.6953 26.8779 52.1189 26.4106 53.1922 26.6414C52.5689 24.7025 47.3987 21.8404 45.5984 21.9328C47.1506 21.0442 48.7259 20.8018 50.457 20.9749C48.16 19.5019 42.7181 18.346 38.2585 19.4199C37.6411 19.5685 34.5309 20.848 34 24.0323Z" fill="#B7AEA5"/>
<path opacity="0.2" d="M54 32.6419C53.2032 30.598 51.8085 29.2952 50.3329 28.4795C53.1728 30.872 39.8543 34.8692 35.1541 29.9068C30.5147 37.1023 27.0179 31.2512 24.1789 32.7399C18.9844 35.4639 16.8736 32.9881 18.1142 30.968L18.1128 30.9682C17.5687 31.4274 17.0438 31.9013 16.5827 32.3718C14.741 34.2512 13.127 37.3103 14.5343 38.9308C15.1545 39.645 17.109 40.1711 19.4394 39.4194C21.7698 38.6677 24.0251 39.457 25.6038 40.1711C27.1824 40.8853 28.9106 42.8438 26.3931 42.9527C25.4543 42.9933 24.8144 44.0803 25.3783 44.0803C25.3783 44.0803 28.1479 44.0803 28.599 44.0803C30.0415 44.0803 31.6057 39.9489 32.8205 40.096C34.4962 40.2989 37.5218 39.6791 38.0104 39.5663C38.499 39.4535 40.5724 40.7261 40.2253 41.4867C39.9271 42.1402 39.5863 42.6519 38.158 42.7271C36.7297 42.8023 37.0303 44.0803 37.6693 44.0803C37.6693 44.0803 37.6693 44.0803 40.3756 44.0803C43.0819 44.0803 44.6936 40.5251 44.1674 38.3449C45.1114 38.2138 50.1479 38.3238 53.3768 37.4711C52.6382 35.504 51.4379 34.7423 50.3762 34.373C50.8379 33.3805 52.4766 32.6188 54 32.6419Z" fill="black"/>
<path opacity="0.2" d="M14.6836 39.0632C15.4196 39.7054 17.2573 40.125 19.4396 39.4211C21.77 38.6694 24.0252 39.4587 25.6039 40.1728C27.1826 40.887 28.9107 42.8455 26.3933 42.9544C25.4544 42.995 24.8146 44.082 25.3784 44.082C25.3784 44.082 28.1481 44.082 28.5991 44.082C30.0417 44.082 31.6058 39.9506 32.8207 40.0977C34.4964 40.3006 37.5219 39.6808 38.0106 39.568C38.4991 39.4552 40.5726 40.7278 40.2254 41.4884C39.9273 42.1419 39.5865 42.6536 38.1581 42.7288C36.7298 42.804 37.0305 44.082 37.6695 44.082C37.6695 44.082 37.6695 44.082 40.3758 44.082C42.552 44.082 44.0177 41.7835 44.2359 39.7494C41.2592 39.9604 38.2125 38.3464 36.5045 36.5213C34.5195 38.9217 28.5876 39.5911 24.9638 37.2829C21.0119 34.7658 20.1006 39.2476 14.6836 39.0632Z" fill="black"/>
</svg>
