<svg width="68" height="68" viewBox="0 0 68 68" fill="none" xmlns="http://www.w3.org/2000/svg">
<path opacity="0.4" d="M34 68C51.6731 68 66 53.6731 66 36C66 18.3269 51.6731 4 34 4C16.3269 4 2 18.3269 2 36C2 53.6731 16.3269 68 34 68Z" fill="black" fill-opacity="0.05"/>
<path d="M34 66C51.6731 66 66 51.6731 66 34C66 16.3269 51.6731 2 34 2C16.3269 2 2 16.3269 2 34C2 51.6731 16.3269 66 34 66Z" fill="black" fill-opacity="0.05"/>
<path d="M34 65C51.6731 65 66 50.6731 66 33C66 15.3269 51.6731 1 34 1C16.3269 1 2 15.3269 2 33C2 50.6731 16.3269 65 34 65Z" fill="black" fill-opacity="0.05"/>
<path d="M34 64C51.6731 64 66 49.6731 66 32C66 14.3269 51.6731 0 34 0C16.3269 0 2 14.3269 2 32C2 49.6731 16.3269 64 34 64Z" fill="white"/>
<path opacity="0.2" d="M34 37.5508C45.598 37.5508 55 36.8792 55 36.0508C55 35.2224 45.598 34.5508 34 34.5508C22.402 34.5508 13 35.2224 13 36.0508C13 36.8792 22.402 37.5508 34 37.5508Z" fill="black"/>
<path opacity="0.2" d="M35 37.5508C45.4934 37.5508 54 36.8792 54 36.0508C54 35.2224 45.4934 34.5508 35 34.5508C24.5066 34.5508 16 35.2224 16 36.0508C16 36.8792 24.5066 37.5508 35 37.5508Z" fill="black"/>
<path d="M27.114 26.4082C25.5975 27.4955 24.3386 30.8432 24.8536 33.3898C25.3686 35.9364 25.3086 36.1939 25.9252 36.1939C26.5418 36.1939 27.114 36.1939 27.114 36.1939C27.7149 36.1939 28.1441 34.8777 27.5146 34.8491C26.8851 34.8205 26.8279 33.8762 28.3444 33.1895C29.8609 32.5028 31.4919 30.2996 31.4919 30.2996L27.114 26.4082Z" fill="#543E39"/>
<path d="M37.5865 29.5494C37.1332 31.6265 38.8455 35.2737 41.3348 36.7044C43.8242 38.135 45.5696 34.0147 43.9386 31.7257C42.3077 29.4366 38.1302 27.0584 37.5865 29.5494Z" fill="#543E39"/>
<path d="M14.1527 31.0092C13.0081 30.2653 18.6163 22.8831 20.3904 21.7099C22.1644 20.5368 31.227 15.8234 38.1591 17.2749C46.085 18.9344 58.1025 26.7745 52.6088 36.7891C47.1151 46.8037 30.9772 49.8367 28.7454 46.2314C26.5136 42.6262 36.1848 37.9908 39.4467 35.4729C42.7086 32.9549 42.6943 33.2553 42.6943 33.2553C40.2908 33.9421 39.69 31.3669 39.69 31.3669C38.1448 32.4399 35.8987 31.7245 34.84 31.4098C34.8686 32.7546 34.2964 34.0708 34.697 34.9292C35.0975 35.7876 36.0418 35.0437 36.0418 35.0437C36.0418 35.9593 35.4981 36.8177 35.0117 36.8177C34.5253 36.8177 34.0961 36.8177 33.3521 36.8177C32.6082 36.8177 33.066 35.759 31.6067 34.4428C30.1475 33.1266 28.4879 32.1537 26.8569 28.6343C25.226 25.1149 21.6862 26.1906 20.2759 26.8889C17.3287 28.3482 14.8108 31.6959 14.1527 31.0092Z" fill="#9F7867"/>
<path d="M34.7831 22.7121C36.2997 21.8828 35.8705 20.537 38.4171 19.1064C35.6416 18.8202 31.3496 22.5686 28.8888 23.4555C26.4281 24.3426 22.5939 25.0579 21.832 26.3335L21.8332 26.3356C23.4843 25.949 25.6729 26.0786 26.8573 28.6345C27.413 29.8336 27.9715 30.7219 28.5248 31.4441C26.4019 25.8037 33.2685 23.5404 34.7831 22.7121Z" fill="#70574E"/>
<path opacity="0.2" d="M32.0502 20.1871C28.6667 20.5458 25.1187 23.8568 22.5221 23.907C22.5221 23.907 22.7795 23.0198 22.2216 22.6551C21.6637 22.2902 21.1701 23.2988 21.5349 24.007C19.2337 25.3707 16.8378 25.6643 17.6711 24.5555C15.5859 27.1369 13.3968 30.5187 14.1527 31.0101C14.8108 31.6968 17.3288 28.3491 20.2759 26.8898C21.6862 26.1915 25.226 25.1158 26.8569 28.6352C28.4879 32.1546 30.1475 33.1275 31.6067 34.4437C33.066 35.7599 32.6082 36.8185 33.3521 36.8185C34.0961 36.8185 34.5253 36.8185 35.0117 36.8185C35.4981 36.8185 36.0418 35.9602 36.0418 35.0445C36.0418 35.0445 35.0976 35.7885 34.6969 34.9301C34.2964 34.0717 34.8686 32.7555 34.84 31.4107C35.8987 31.7254 38.1448 32.4407 39.6899 31.3678C39.6899 31.3678 40.2682 33.8171 42.5358 33.2901C42.2617 33.4165 41.511 33.8803 39.4467 35.4737C36.1848 37.9917 26.5136 42.627 28.7454 46.2323C29.9784 48.2241 35.456 48.1854 41.038 46.067C34.6817 44.1993 48.3168 38.3609 48.4027 29.9085C48.4886 21.4532 35.4339 19.8285 32.0502 20.1871Z" fill="black"/>
<path opacity="0.2" d="M42.5355 33.292L42.5266 33.2928L42.5234 33.2946L42.5355 33.292Z" fill="black"/>
<path opacity="0.2" d="M41.0429 28.1268C40.1895 28.4272 36.6172 29.2856 34.7288 27.6975C32.8403 26.1095 30.7086 29.6576 25.5638 26.9404C25.563 26.9441 25.5633 26.9483 25.5625 26.952C26.0552 27.3338 26.5021 27.871 26.8561 28.6349C28.4871 32.1543 30.1466 33.1272 31.6059 34.4434C33.0651 35.7596 32.6073 36.8183 33.3513 36.8183C34.0952 36.8183 34.5244 36.8183 35.0108 36.8183C35.4973 36.8183 36.0409 35.9599 36.0409 35.0443C36.0409 35.0443 35.0967 35.7882 34.6961 34.9298C34.2955 34.0714 34.8678 32.7552 34.8392 31.4104C35.8979 31.7251 38.144 32.4405 39.6891 31.3675C39.6891 31.3675 40.2666 33.8083 42.5259 33.2906C42.6402 33.2224 43.632 32.6828 44.5726 31.9037C43.0857 32.5046 41.2097 29.5001 41.0429 28.1268Z" fill="black"/>
</svg>
