<svg width="68" height="68" viewBox="0 0 68 68" fill="none" xmlns="http://www.w3.org/2000/svg">
<g clip-path="url(#clip0_2877_12571)">
<path opacity="0.4" d="M34 68C51.6731 68 66 53.6731 66 36C66 18.3269 51.6731 4 34 4C16.3269 4 2 18.3269 2 36C2 53.6731 16.3269 68 34 68Z" fill="black" fill-opacity="0.05"/>
<path d="M34 66C51.6731 66 66 51.6731 66 34C66 16.3269 51.6731 2 34 2C16.3269 2 2 16.3269 2 34C2 51.6731 16.3269 66 34 66Z" fill="black" fill-opacity="0.05"/>
<path d="M34 65C51.6731 65 66 50.6731 66 33C66 15.3269 51.6731 1 34 1C16.3269 1 2 15.3269 2 33C2 50.6731 16.3269 65 34 65Z" fill="black" fill-opacity="0.05"/>
<path d="M34 64C51.6731 64 66 49.6731 66 32C66 14.3269 51.6731 0 34 0C16.3269 0 2 14.3269 2 32C2 49.6731 16.3269 64 34 64Z" fill="white"/>
<path opacity="0.2" d="M35.5 53C40.1944 53 44 52.3284 44 51.5C44 50.6716 40.1944 50 35.5 50C30.8056 50 27 50.6716 27 51.5C27 52.3284 30.8056 53 35.5 53Z" fill="black"/>
<path opacity="0.19" d="M35.5 53C44.6127 53 52 52.3284 52 51.5C52 50.6716 44.6127 50 35.5 50C26.3873 50 19 50.6716 19 51.5C19 52.3284 26.3873 53 35.5 53Z" fill="black"/>
<path d="M40.4164 33.3879C40.6168 34.0294 40.4274 34.795 40.3771 35.3965C40.3319 35.9368 42.3176 40.7848 42.3176 40.7848C42.6862 41.079 42.2561 41.9311 41.9796 42.2355C41.6673 42.5792 40.5994 42.3512 40.5994 42.3512C39.7104 42.5078 35.2995 43.112 34.4011 44.0952C34.2364 44.2755 33.9144 45.0745 33.604 45.6653C33.2105 46.4141 32.3704 47.6801 32.2461 47.3892C32.0444 46.9172 32.5684 43.0317 32.8985 42.6798C33.3252 42.2249 38.5973 41.2085 39.5662 41.0422C40.1384 40.8475 40.1418 40.5121 40.1418 40.5121C40.1418 40.5121 38.9994 35.7957 38.7628 35.6186C38.3457 35.3065 37.5189 35.0313 37.5513 34.1717C37.5836 33.3122 40.2703 32.7962 40.4164 33.3879Z" fill="#BE5679"/>
<path d="M39.3369 25.0544C36.6027 24.4315 34.0302 24.7045 31.7137 26.3983C31.2349 26.7484 30.6066 27.5581 30.4308 27.7676C30.0594 28.2106 29.4243 27.1718 29.6178 26.2218C29.8328 25.1666 30.3271 24.2509 30.8436 23.3374C31.4891 22.1957 32.1406 21.0613 32.4515 19.7693C32.713 18.6818 32.9208 17.6012 32.7157 16.4687C32.5108 15.3369 31.7299 13.5456 30.6863 12.6842C28.8873 11.1992 25.5332 12.3749 25.1512 13.8972C25.0695 14.2229 23.9653 14.4147 23.3289 14.9468C22.5645 15.5859 22.0351 16.6063 22.0008 17.6824C21.9568 19.0621 23.7222 21.3513 25.0697 21.7094C25.2675 21.762 25.4341 21.7138 25.5628 21.5964C25.7003 21.471 25.643 21.2962 25.5688 21.1461C25.4829 20.9723 25.4105 20.7864 25.2953 20.6334C24.7969 19.9714 24.6767 19.2315 24.7702 18.4275C24.8935 17.3683 25.2063 16.9944 26.2602 16.8481C26.8499 16.7662 27.286 16.5656 27.5681 15.9998C27.8328 15.4689 28.3837 15.3745 28.8944 15.7026C29.4465 16.0573 29.8322 16.5478 30.0072 17.1826C30.3105 18.2825 30.0148 19.3101 29.5185 20.272C28.9702 21.335 28.3328 22.3519 27.7462 23.3957C26.832 25.0229 26.1173 26.6971 26.282 28.6378C26.3807 29.8011 26.7128 30.8111 27.6277 31.5942C28.2491 32.126 28.9664 32.4388 29.746 32.6302C30.7215 32.8697 31.7003 33.0963 32.6533 33.4172C33.7482 33.7859 35.1466 34.3073 35.3444 35.5804C35.3762 35.7847 35.7001 36.3399 35.7038 36.4461C35.7642 38.1907 35.8793 39.9571 35.9279 41.702C36.0109 44.6817 35.8226 46.6403 35.6789 49.6087C35.667 49.8545 35.1086 50.5022 34.9052 50.5658C34.4273 50.7151 33.9464 50.6792 33.4615 50.6146C32.9793 50.5504 32.4934 50.4972 32.0158 50.6357C31.8336 50.6885 31.6179 51.1575 31.6217 51.4074C31.6252 51.6367 31.708 52 31.8766 52C32.4647 52 36.5828 52 37.3159 52C37.3508 51.8123 37.5213 51.1606 37.5963 50.9828C37.6744 50.7975 37.7018 50.6192 37.6493 50.4182C37.3739 49.3629 37.2923 48.2843 37.321 47.1998C37.3616 45.6655 37.4384 44.1323 37.4851 42.5981C37.5344 40.982 37.5514 39.3647 37.6133 37.7492C37.6391 37.0739 37.5381 36.3886 38.1538 35.8111C38.5266 35.4614 38.5239 34.8243 38.5522 34.2932C38.569 33.9792 38.6475 33.8598 38.9712 33.901C40.1302 34.0484 39.8849 33.5292 40.7157 32.8008C41.6467 31.9845 42.7361 31.7418 43.9251 32.0302C44.9452 32.2775 45.5519 33.0402 46.0633 33.8905C46.179 34.083 46.3172 34.2452 46.5671 34.1739C46.8108 34.1042 46.8966 33.9008 46.8547 33.6749C45.9328 28.7051 42.1482 25.6947 39.3369 25.0544Z" fill="#DA7698"/>
<path d="M46.769 34.0168C46.8015 33.9611 46.824 33.8991 46.833 33.83C46.833 33.8299 46.833 33.8301 46.833 33.83C46.4657 33.0371 45.6493 32.0985 44.591 31.4147C43.1401 30.4772 41.1546 31.364 39.0164 32.5042C36.8782 33.6444 35.3509 32.4282 34.3072 32.0228C33.2635 31.6174 31.8126 31.8708 29.9545 31.7187C28.0962 31.5667 26.7472 29.8944 26.3398 28.9062L26.3872 29.3563C26.3871 29.356 26.3872 29.3567 26.3872 29.3563C26.3872 29.3565 26.3873 29.3578 26.3874 29.358C26.4143 29.4949 26.4547 29.6244 26.4916 29.7559C26.495 29.7681 26.4992 29.7796 26.5028 29.7917C26.5309 29.8906 26.5592 29.9895 26.5945 30.0849C26.635 30.1952 26.6825 30.3019 26.7326 30.4078C26.7955 30.5397 26.8684 30.6672 26.948 30.7918C26.9979 30.8706 27.0449 30.9507 27.1021 31.0265C27.2533 31.2254 27.4214 31.4173 27.6278 31.594C28.2492 32.1258 28.9665 32.4386 29.7461 32.63C30.7215 32.8695 31.7003 33.0961 32.6534 33.417C33.7483 33.7857 35.1466 34.3071 35.3444 35.5802C35.3762 35.7845 35.7002 36.3398 35.7038 36.4459C35.7643 38.1905 35.8793 39.9569 35.9279 41.7018C36.011 44.6815 35.8226 46.6401 35.6789 49.6086C35.667 49.8543 35.1086 50.502 34.9053 50.5656C34.613 50.6569 34.3197 50.6749 34.025 50.6635C33.7521 50.674 33.478 50.6511 33.2026 50.6144C32.9975 50.5871 32.7917 50.565 32.5861 50.5556C32.3953 50.5615 32.2049 50.5807 32.0159 50.6355C31.8337 50.6883 31.618 51.1573 31.6218 51.4072C31.6252 51.6365 31.7081 51.9998 31.8766 51.9998C32.4648 51.9998 36.5829 51.9998 37.316 51.9998C37.3509 51.8121 37.5214 51.1604 37.5963 50.9826C37.6745 50.7973 37.7018 50.6189 37.6494 50.418C37.374 49.3627 37.2924 48.2841 37.3211 47.1996C37.3617 45.6653 37.4385 44.1321 37.4852 42.5979C37.5345 40.9818 37.5515 39.3645 37.6133 37.749C37.6392 37.0737 37.5382 36.3884 38.1538 35.8109C38.5267 35.4612 38.524 34.8241 38.5523 34.293C38.569 33.979 38.6475 33.8596 38.9713 33.9008C40.1302 34.0482 39.8849 33.529 40.7157 32.8006C41.6468 31.9843 42.7362 31.7416 43.9252 32.03C44.9453 32.2773 45.552 33.04 46.0633 33.8903C46.1791 34.0828 46.3172 34.245 46.5672 34.1737C46.661 34.1468 46.7117 34.0869 46.7604 34.0267C46.7629 34.0232 46.7665 34.0204 46.769 34.0168Z" fill="#C66485"/>
<path d="M31.6211 30.5221C31.6211 29.4009 34.0233 27.3341 36.0693 27.2345C41.2485 26.9825 43.0089 30.0375 43.0089 30.0375C41.8253 30.123 40.3075 31.5292 39.6966 32.0043C39.0857 32.4794 38.3793 33.2965 37.1671 33.154C35.9548 33.0115 31.7929 32.4034 31.6211 30.5221Z" fill="#F198B6"/>
<path d="M25.2953 20.6336C24.7969 19.9717 24.6767 19.2317 24.7702 18.4278C24.8935 17.3685 25.2063 16.9946 26.2602 16.8483C26.8499 16.7665 27.286 16.5659 27.5681 16C27.6255 15.885 27.7 15.7993 27.7812 15.727C27.8126 15.6981 27.8455 15.6755 27.8797 15.6527C27.9284 15.6218 27.9793 15.5987 28.0327 15.5799C28.1557 15.5335 28.2859 15.5161 28.4248 15.5346C28.2258 15.4478 28.0365 15.3976 27.918 15.4017C27.5489 15.4144 26.9889 16.0351 26.658 16.2885C26.3271 16.5419 25.5507 16.5419 25.2198 16.2885C24.8889 16.0351 25.398 14.2995 25.1512 13.8975C25.0695 14.2232 23.9653 14.4149 23.3289 14.947C22.5645 15.5862 22.0351 16.6066 22.0008 17.6827C21.9568 19.0623 23.7222 21.3515 25.0697 21.7097C25.2675 21.7623 25.4341 21.7141 25.5628 21.5966C25.7003 21.4712 25.643 21.2964 25.5688 21.1463C25.4829 20.9726 25.4105 20.7866 25.2953 20.6336Z" fill="#C66485"/>
</g>
<defs>
<clipPath id="clip0_2877_12571">
<rect width="64" height="68" fill="white" transform="translate(2)"/>
</clipPath>
</defs>
</svg>
