<svg width="68" height="68" viewBox="0 0 68 68" fill="none" xmlns="http://www.w3.org/2000/svg">
<path opacity="0.4" d="M34 68C51.6731 68 66 53.6731 66 36C66 18.3269 51.6731 4 34 4C16.3269 4 2 18.3269 2 36C2 53.6731 16.3269 68 34 68Z" fill="black" fill-opacity="0.05"/>
<path d="M34 66C51.6731 66 66 51.6731 66 34C66 16.3269 51.6731 2 34 2C16.3269 2 2 16.3269 2 34C2 51.6731 16.3269 66 34 66Z" fill="black" fill-opacity="0.05"/>
<path d="M34 65C51.6731 65 66 50.6731 66 33C66 15.3269 51.6731 1 34 1C16.3269 1 2 15.3269 2 33C2 50.6731 16.3269 65 34 65Z" fill="black" fill-opacity="0.05"/>
<path d="M34 64C51.6731 64 66 49.6731 66 32C66 14.3269 51.6731 0 34 0C16.3269 0 2 14.3269 2 32C2 49.6731 16.3269 64 34 64Z" fill="white"/>
<path opacity="0.2" d="M34.0059 41.626C45.6038 41.626 55.0059 40.9544 55.0059 40.126C55.0059 39.2975 45.6038 38.626 34.0059 38.626C22.4079 38.626 13.0059 39.2975 13.0059 40.126C13.0059 40.9544 22.4079 41.626 34.0059 41.626Z" fill="black"/>
<path opacity="0.2" d="M35.6803 41.626C45.6627 41.626 53.7551 40.9544 53.7551 40.126C53.7551 39.2975 45.6627 38.626 35.6803 38.626C25.6978 38.626 17.6055 39.2975 17.6055 40.126C17.6055 40.9544 25.6978 41.626 35.6803 41.626Z" fill="black"/>
<path d="M31.1372 36.482C31.0631 37.7417 30.737 39.7129 30.0997 40.1279C29.2846 40.1279 27.1504 40.1279 27.1504 40.1279C27.1504 39.1645 27.6691 38.9422 28.425 38.9126C29.1808 38.8829 29.0474 37.1341 28.7362 36.645C28.425 36.1559 27.7136 34.6146 27.8618 33.503C28.01 32.3915 31.1372 36.482 31.1372 36.482Z" fill="#5A4A3F"/>
<path d="M52.1095 30.5234C52.5985 31.7536 52.4059 33.4431 51.9613 34.0804C52.7023 35.518 52.8357 35.681 52.8357 35.681C52.5985 36.9112 52.3318 39.4159 52.5689 40.1272H49.5603C49.5603 39.4751 50.2421 39.5492 50.8052 39.3269C51.3684 39.1046 50.8052 37.9931 50.4644 37.4892C50.1235 36.9853 47.6484 33.784 47.6484 33.784L52.1095 30.5234Z" fill="#5A4A3F"/>
<path d="M14.3382 36.9114C14.1277 36.4171 14.2715 36.1333 14.7606 35.9333C15.2496 35.7332 17.0837 33.0321 17.1393 32.7653C17.1949 32.4986 16.539 32.1873 16.8058 31.4093C17.0726 30.6312 17.8729 31.1425 18.3953 30.6645C18.9178 30.1865 18.84 28.8416 19.1623 29.0861C19.4847 29.3306 19.4068 29.4418 19.4068 29.4418C20.0738 29.0528 19.8848 28.5748 20.4072 28.1858C20.9297 27.7967 23.6419 26.5073 24.6645 26.0071C25.6871 25.5069 29.9888 23.106 33.1456 23.2616C36.3024 23.4172 38.3255 23.2393 40.3263 23.0393C42.327 22.8392 49.152 23.9063 51.464 26.3517C53.776 28.7971 54.2429 30.0346 53.2944 31.2203C52.8497 31.5908 52.494 30.3014 52.494 30.3014C52.5533 31.6649 51.338 34.3919 50.1524 35.0588C49.8411 36.867 49.7819 37.2227 49.767 37.5487C49.767 37.5487 48.1516 39.8459 47.87 40.9871C47.1141 40.9871 44.565 40.9871 44.565 40.9871C44.565 39.8015 45.7358 40.2016 46.0619 39.7718C46.3879 39.342 46.9511 38.4972 46.9659 37.9192C46.9808 37.3412 46.84 36.2 46.5065 35.8666C46.173 35.5331 45.1949 36.6669 42.994 36.5113C40.7931 36.3557 36.1246 35.5776 35.1909 35.8443C34.2572 36.1111 33.5236 35.4442 33.5236 36.0889C33.5236 36.7336 34.335 39.694 33.6792 40.9871C33.0011 40.9871 30.6446 40.9871 30.6446 40.9871C30.6446 40.1461 31.545 40.0905 31.734 39.8015C31.9229 39.5125 31.9896 39.0567 31.7117 38.3009C31.4338 37.545 30.0777 36.7447 29.5331 35.6331C28.9884 34.5216 25.8094 34.9359 25.7538 35.14C25.6982 35.3441 25.2684 36.3334 24.809 36.452C24.3495 36.5706 24.2458 36.2 24.2458 36.2C23.8901 36.6002 23.2084 37.5339 21.7411 36.2741C20.926 36.2593 20.7481 37.3709 20.5555 37.608C20.3628 37.8451 19.2809 38.9567 17.6951 39.2531C16.1092 39.5495 16.2723 39.757 15.6943 39.3124C15.1163 38.8678 14.6083 37.5457 14.3382 36.9114Z" fill="#A88972"/>
<path opacity="0.19" d="M51.0132 25.9395C52.4173 28.0152 47.5283 33.1089 46.3953 32.0011C44.8392 33.5158 34.4795 32.2427 33.3902 31.0866C32.3008 29.9306 28.2548 27.2629 26.7209 28.8635C25.187 30.464 20.3637 28.8415 20.7585 27.9666C20.6054 28.0542 20.482 28.1298 20.4072 28.1855C19.8848 28.5745 20.0738 29.0525 19.4069 29.4415C19.4069 29.4415 19.4847 29.3304 19.1623 29.0858C18.84 28.8413 18.9178 30.1863 18.3953 30.6642C17.8729 31.1422 17.0726 30.6309 16.8058 31.409C16.5391 32.1871 17.1949 32.4983 17.1393 32.7651C17.0837 33.0319 15.2497 35.7329 14.7606 35.933C14.2715 36.1331 14.1277 36.4169 14.3382 36.9112C14.6083 37.5454 15.1162 38.8675 15.6943 39.3121C16.2723 39.7568 16.1092 39.5493 17.6951 39.2529C19.2809 38.9564 20.3628 37.8449 20.5555 37.6077C20.7481 37.3706 20.926 36.2591 21.7411 36.2739C23.2084 37.5337 23.8901 36.5999 24.2458 36.1998C24.2458 36.1998 24.3496 36.5703 24.809 36.4517C25.2685 36.3332 25.6982 35.3439 25.7538 35.1398C25.8094 34.9357 28.9884 34.5213 29.5331 35.6329C30.0778 36.7444 31.4338 37.5448 31.7118 38.3006C31.9896 39.0565 31.9229 39.5122 31.7339 39.8012C31.545 40.0902 30.6447 40.1458 30.6447 40.9869C30.6447 40.9869 33.0011 40.9869 33.6792 40.9869C34.335 39.6937 33.5235 36.7333 33.5235 36.0886C33.5235 35.4439 34.2572 36.1108 35.1909 35.8441C36.1246 35.5773 40.7931 36.3554 42.994 36.511C45.1949 36.6666 46.173 35.5328 46.5065 35.8663C46.84 36.1998 46.9807 37.341 46.9659 37.919C46.9511 38.497 46.3879 39.3418 46.0619 39.7715C45.7358 40.2014 44.565 39.8012 44.565 40.9869C44.565 40.9869 47.1142 40.9869 47.87 40.9869C48.1516 39.8457 49.767 37.5485 49.767 37.5485C49.7819 37.2224 49.8411 36.8667 50.1524 35.0586C51.338 34.3916 52.5533 31.6647 52.4941 30.3012C52.4941 30.3012 52.8497 31.5906 53.2944 31.22C54.2429 30.0344 53.776 28.7968 51.464 26.3514C51.3295 26.2091 51.1765 26.0725 51.0132 25.9395Z" fill="black"/>
<path opacity="0.19" d="M49.8172 37.069C48.1516 37.0673 46.6176 34.9776 46.173 33.955C44.7502 35.7002 35.8906 34.1357 34.3016 34.6664C32.4377 35.2888 31.6339 34.4218 30.1741 33.4585C28.3074 32.2267 25.3113 33.1258 25 34.0002C24.6888 34.8747 23.1326 35.3637 22.11 34.7116C21.0873 34.0595 19.9033 35.9484 18.9104 35.3852C17.9174 34.822 17.5913 33.3548 17.1393 32.7656C17.0837 33.0324 15.2497 35.7335 14.7606 35.9335C14.2715 36.1336 14.1277 36.4174 14.3382 36.9117C14.6083 37.546 15.1162 38.868 15.6943 39.3127C16.2723 39.7573 16.1092 39.5498 17.6951 39.2534C19.2809 38.957 20.3628 37.8454 20.5555 37.6083C20.7481 37.3712 20.926 36.2596 21.7411 36.2744C23.2084 37.5342 23.8901 36.6005 24.2458 36.2003C24.2458 36.2003 24.3496 36.5708 24.809 36.4523C25.2685 36.3337 25.6982 35.3444 25.7538 35.1403C25.8094 34.9362 28.9884 34.5219 29.5331 35.6334C30.0778 36.745 31.4338 37.5453 31.7118 38.3011C31.9896 39.057 31.9229 39.5127 31.7339 39.8018C31.545 40.0907 30.6447 40.1463 30.6447 40.9874C30.6447 40.9874 33.0011 40.9874 33.6792 40.9874C34.335 39.6943 33.5235 36.7338 33.5235 36.0891C33.5235 35.4445 34.2572 36.1114 35.1909 35.8446C36.1246 35.5779 40.7931 36.3559 42.994 36.5115C45.1949 36.6672 46.173 35.5334 46.5065 35.8668C46.84 36.2003 46.9807 37.3415 46.9659 37.9195C46.9511 38.4975 46.3879 39.3423 46.0619 39.7721C45.7358 40.2019 44.565 39.8018 44.565 40.9874C44.565 40.9874 47.1142 40.9874 47.87 40.9874C48.1516 39.8462 49.767 37.549 49.767 37.549C49.7728 37.4223 49.7858 37.2882 49.8172 37.069Z" fill="black"/>
</svg>
