<svg width="68" height="68" viewBox="0 0 68 68" fill="none" xmlns="http://www.w3.org/2000/svg">
<g clip-path="url(#clip0_2866_12562)">
<path d="M34 68C51.6731 68 66 53.6731 66 36C66 18.3269 51.6731 4 34 4C16.3269 4 2 18.3269 2 36C2 53.6731 16.3269 68 34 68Z" fill="black" fill-opacity="0.05"/>
<path d="M34 66C51.6731 66 66 51.6731 66 34C66 16.3269 51.6731 2 34 2C16.3269 2 2 16.3269 2 34C2 51.6731 16.3269 66 34 66Z" fill="black" fill-opacity="0.05"/>
<path d="M34 65C51.6731 65 66 50.6731 66 33C66 15.3269 51.6731 1 34 1C16.3269 1 2 15.3269 2 33C2 50.6731 16.3269 65 34 65Z" fill="black" fill-opacity="0.05"/>
<path d="M34 64C51.6731 64 66 49.6731 66 32C66 14.3269 51.6731 0 34 0C16.3269 0 2 14.3269 2 32C2 49.6731 16.3269 64 34 64Z" fill="white"/>
<path opacity="0.2" d="M35.5 45C45.7173 45 54 44.3284 54 43.5C54 42.6716 45.7173 42 35.5 42C25.2827 42 17 42.6716 17 43.5C17 44.3284 25.2827 45 35.5 45Z" fill="black"/>
<path opacity="0.2" d="M34 45C45.0457 45 54 44.3284 54 43.5C54 42.6716 45.0457 42 34 42C22.9543 42 14 42.6716 14 43.5C14 44.3284 22.9543 45 34 45Z" fill="black"/>
<path d="M26.7319 38.5777C26.8151 36.8267 27.1008 35.6308 27.6122 33.9797C27.6565 33.8269 28.0324 33.5525 28.2057 33.5893C28.7037 33.6949 29.4341 33.5308 29.2993 33.9975C28.7679 35.837 28.7519 37.9879 29.1242 39.764C28.6782 40.5891 28.4335 42.0418 28.307 43.2355C27.5744 43.2494 26.4184 43.2321 25.6855 43.2282C25.8256 42.6624 26.457 42.3212 26.2482 41.6648C26.2396 41.6276 26.2648 41.5265 26.3141 41.5298C26.8726 41.5664 26.7714 40.4042 26.7319 38.5777Z" fill="#E8A646"/>
<path opacity="0.4" d="M28.2057 33.5893C28.0324 33.5525 27.6565 33.8269 27.6122 33.9797C27.1008 35.6308 26.8151 36.8266 26.7319 38.5777C26.7714 40.4042 26.8726 41.5664 26.3141 41.5298C26.2648 41.5265 26.2396 41.6276 26.2482 41.6648C26.457 42.3212 25.8256 42.6623 25.6855 43.2282C26.4184 43.2321 27.5744 43.2493 28.3069 43.2355C28.4335 42.0418 28.6782 40.5891 29.1242 39.7639C28.7519 37.9879 28.768 35.837 29.2993 33.9974C29.4341 33.5308 28.7037 33.6949 28.2057 33.5893Z" fill="#191000"/>
<path d="M40.0391 32.2847C42.331 31.6225 43.6462 35.3138 44.7719 36.982C45.4735 38.1242 45.9955 38.9187 46.7069 40.0108C46.2006 40.7856 46.0385 41.9126 45.8068 43.3181C44.6316 43.2975 43.3484 43.2791 42.1734 43.2476C42.2408 41.7248 43.6373 41.4061 44.1532 41.3726C44.4447 41.3536 44.1471 39.4906 43.5414 38.6636C43.052 37.9952 41.7408 36.6281 41.1293 35.4871C40.4703 34.2575 40.3066 33.6948 40.0391 32.2847Z" fill="#E5A345"/>
<path opacity="0.4" d="M40.0391 32.2847C40.3067 33.6948 40.4703 34.2574 41.1293 35.4871C41.7408 36.6281 43.052 37.9952 43.5415 38.6635C44.1471 39.4906 44.4447 41.3536 44.1533 41.3725C43.6373 41.4061 42.2408 41.7248 42.1734 43.2476C43.3484 43.279 44.6316 43.2975 45.8068 43.318C46.0385 41.9126 46.2007 40.7856 46.7069 40.0108C45.9955 38.9187 45.4735 38.1242 44.772 36.9819C43.6462 35.3137 42.331 31.6224 40.0391 32.2847Z" fill="#191000"/>
<path d="M46.9842 30.9159C46.8464 33.525 48.1286 37.3101 48.8974 38.8525C48.7172 39.5076 48.3269 42.8977 48.2967 43.9828C47.2811 43.9865 45.6795 43.9928 44.6643 43.9754C44.6824 42.9585 45.9684 42.3678 46.6378 42.3749C46.9368 42.3781 46.4677 40.0758 45.7481 39.5164C44.572 38.2437 42.5224 36.6374 41.6106 35.1588C41.2381 34.5548 40.6901 33.781 40.0373 32.2847C37.1263 34.3493 30.394 35.0315 29.1313 34.6654C28.3605 35.3975 26.8889 39.6879 26.902 41.4532C26.6 41.7707 25.8133 42.9098 25.6622 43.9892C24.6217 43.9844 23.1679 43.9963 22.1274 43.9976C22.193 43.2442 22.8699 42.3992 23.976 42.3992C24.7689 42.3992 24.5891 38.544 24.6687 37.6794C24.6558 36.9135 24.5128 33.9636 23.6117 33.8548C21.0987 33.1517 18.509 30.0122 17.796 27.5076C17.7095 26.8914 16.5649 27.7467 16.2461 27.8656C15.7229 28.1718 15.5463 28.1219 15.1976 27.6343C14.7477 27.0053 14.5308 26.2517 14.101 25.6092C13.7787 25.1514 14.3353 24.7903 14.6563 24.507C15.0866 24.051 15.5954 23.7048 15.8623 23.0553C16.1768 22.2323 17.1149 21.7666 17.5362 20.9918C18.9274 17.6388 24.0531 19.1864 26.2964 20.7981C27.3386 21.502 28.2831 22.3232 29.1131 23.2733C29.5617 23.7869 30.0836 24.1504 30.7632 24.3318C33.1876 25.0856 35.0317 25.2349 37.5396 24.9103C41.4031 24.4575 44.75 23.8192 47.1447 27.7745C48.5075 30.2704 49.4129 35.1265 51.7889 34.6492C53.1585 34.3741 53.5856 32.1923 52.4693 31.4452C51.5678 31.0763 51.9934 29.3934 52.9339 30.0003C54.2094 30.8235 53.7164 31.6695 53.9199 32.5759C54.3004 34.271 53.2659 35.8692 51.7551 35.8936C48.9738 35.9384 47.9777 33.3872 46.9842 30.9159Z" fill="#FFC054"/>
<path d="M18.4547 24.2354C18.3278 25.2532 17.9015 26.4225 17.7821 27.4761C17.7852 27.4891 17.7949 27.493 17.7969 27.5076C18.5099 30.0122 21.0996 33.1518 23.6126 33.8548C23.6288 33.8567 23.6429 33.8661 23.6586 33.8698C24.4314 27.4075 27.3022 28.1056 29.4389 23.6029C29.3264 23.5007 29.2176 23.392 29.114 23.2733C28.284 22.3232 27.3396 21.502 26.2973 20.7981C24.054 19.1864 18.9283 17.6388 17.5371 20.9918C17.6116 22.4788 18.8179 22.7517 18.4547 24.2354Z" fill="#996A25"/>
<path d="M53.863 32.0284C53.8644 32.0239 54.4652 30.6891 53.0564 29.9302C51.8011 29.2541 51.484 30.5667 52.3235 31.5261C52.5007 31.7287 52.9375 31.9899 52.943 31.9911C53.1548 31.6469 53.6491 31.599 53.863 32.0284Z" fill="#996A25"/>
<path d="M20.588 21.4285C20.6185 21.6608 20.6281 22.1445 20.0013 22.6672C19.8503 22.3151 19.395 21.5694 19.0234 21.1762C19.3518 20.6187 20.3071 20.4491 20.588 21.4285Z" fill="#FFC054"/>
<path opacity="0.15" d="M14.0971 25.612C14.5268 26.2545 14.7438 27.008 15.1936 27.6371C15.5424 28.1246 15.719 28.1745 16.2423 27.8683C16.5609 27.7495 17.7057 26.8942 17.7921 27.5103C18.5051 30.015 21.0948 33.1545 23.6078 33.8575C24.509 33.9663 24.6519 36.9162 24.6648 37.6821C24.5852 38.5467 24.765 42.402 23.9721 42.402C22.866 42.402 22.1891 43.2469 22.1235 44.0003C23.164 43.9991 24.6178 43.9871 25.6583 43.992C25.8094 42.9126 26.596 41.7735 26.8981 41.456C26.885 39.6906 28.3566 35.4002 29.1274 34.6682C30.3901 35.0343 37.1223 34.3521 40.0334 32.2875C40.6862 33.7837 41.2343 34.5576 41.6067 35.1615C42.5185 36.6402 44.568 38.2465 45.7443 39.5191C46.4637 40.0785 46.9329 42.3809 46.6339 42.3776C45.9645 42.3705 44.6785 42.9612 44.6603 43.9782C45.6756 43.9956 47.2772 43.9893 48.2927 43.9855C48.323 42.9004 48.7133 39.5103 48.8935 38.8552C48.6487 38.3463 48.1995 37.1752 48.0296 36.6999C44.222 36.1407 41.7351 31.7385 40.8361 29.7878C38.2888 31.5016 28.9241 31.5726 26.1156 27.9141C23.273 28.325 19.5744 26.6052 18.3116 25.0098C18.0151 25.6109 17.381 25.8289 16.8673 25.4737C16.0324 26.7977 14.2023 26.6362 14.6524 24.5098C14.3315 24.793 13.7748 25.1541 14.0971 25.612Z" fill="#191000"/>
</g>
<defs>
<clipPath id="clip0_2866_12562">
<rect width="64" height="68" fill="white" transform="translate(2)"/>
</clipPath>
</defs>
</svg>
