<svg width="68" height="68" viewBox="0 0 68 68" fill="none" xmlns="http://www.w3.org/2000/svg">
<g clip-path="url(#clip0_2883_12582)">
<path opacity="0.4" d="M34 68C51.6731 68 66 53.6731 66 36C66 18.3269 51.6731 4 34 4C16.3269 4 2 18.3269 2 36C2 53.6731 16.3269 68 34 68Z" fill="black" fill-opacity="0.05"/>
<path d="M34 66C51.6731 66 66 51.6731 66 34C66 16.3269 51.6731 2 34 2C16.3269 2 2 16.3269 2 34C2 51.6731 16.3269 66 34 66Z" fill="black" fill-opacity="0.05"/>
<path d="M34 65C51.6731 65 66 50.6731 66 33C66 15.3269 51.6731 1 34 1C16.3269 1 2 15.3269 2 33C2 50.6731 16.3269 65 34 65Z" fill="black" fill-opacity="0.05"/>
<path d="M34 64C51.6731 64 66 49.6731 66 32C66 14.3269 51.6731 0 34 0C16.3269 0 2 14.3269 2 32C2 49.6731 16.3269 64 34 64Z" fill="white"/>
<path opacity="0.2" d="M34.0215 53.0001C40.6488 53.0001 46.0214 52.3285 46.0214 51.5002C46.0214 50.6717 40.6488 50 34.0215 50C27.394 50 22.0215 50.6717 22.0215 51.5002C22.0215 52.3285 27.394 53.0001 34.0215 53.0001Z" fill="black"/>
<path opacity="0.19" d="M33.9999 53.0001C45.5979 53.0001 55 52.3285 55 51.5002C55 50.6717 45.5979 50 33.9999 50C22.402 50 13 50.6717 13 51.5002C13 52.3285 22.402 53.0001 33.9999 53.0001Z" fill="#020202"/>
<path d="M46.6206 47.7493L41.4471 46.0684L34.0322 42.6282L27.4513 40.6644C27.4513 40.6644 22.5749 38.4447 20.8753 37.9065C19.6873 37.5303 17.8939 40.0106 19.9104 41.4255C20.3904 41.7623 21.906 41.9495 24.1055 42.77C26.0661 43.5013 28.5875 44.8325 31.1256 45.7077C34.0671 46.7217 37.3102 47.5586 39.9507 48.4377C43.2185 49.5254 45.6503 50.5722 46.4769 50.8486C49.1946 51.7577 48.0386 48.2914 46.6206 47.7493Z" fill="#776B53"/>
<path d="M46.477 50.8481C45.6504 50.5717 43.2186 49.5249 39.9509 48.4372C37.3103 47.5581 34.0672 46.7212 31.1259 45.7069C28.5877 44.832 26.066 43.5008 24.1057 42.7695C21.9062 41.949 20.3903 41.7617 19.9106 41.425C18.9211 40.7308 18.8514 39.7811 19.1749 39.0371C19.3075 39.1223 19.4217 39.2238 19.4928 39.3618C19.6821 39.7301 20.0443 40.4096 21.0121 40.7809C23.8834 41.8825 29.416 42.638 30.3577 43.3293C31.6165 44.2533 36.1676 45.9448 37.8294 46.1318C39.4912 46.319 43.3786 48.3129 44.63 49.3355C45.8793 50.3563 48.104 50.2244 48.0457 49.6029C48.2877 50.5307 47.9653 51.346 46.477 50.8481Z" fill="#5E5442"/>
<path d="M31.9 41.4274C32.5918 40.9905 33.0476 38.4463 33.0476 38.4463L34.7306 38.8554C34.5597 39.8736 33.3109 40.9862 35.8322 42.0904C36.5565 42.4075 36.9732 42.9834 37.1726 43.5972L35.2233 42.8308C34.8508 42.6425 34.3986 42.4961 33.8362 42.4371C32.6569 42.3136 32.3611 43.2901 32.2121 44.3493C32.0903 45.2158 32.4247 45.4894 32.1973 45.5168C30.6154 45.7081 30.5509 42.2797 31.9 41.4274Z" fill="#B88D0D"/>
<path d="M32.7238 42.1891C33.4157 41.7522 33.9651 39.3828 33.9651 39.3828L35.6481 39.792C35.4773 40.8101 34.2284 41.9227 36.7497 43.0269C37.474 43.344 37.8907 43.9199 38.0901 44.5337L36.1408 43.7673C35.7683 43.579 35.3161 43.4326 34.7537 43.3736C33.5744 43.2501 33.0851 44.1018 32.9361 45.1609C32.8143 46.0274 33.3422 46.4259 33.1148 46.4534C31.5329 46.6446 31.3747 43.0414 32.7238 42.1891Z" fill="#D1993B"/>
<path d="M46.0082 45.572C45.5466 45.7683 43.9227 43.6875 40.713 41.327C38.1692 41.6917 32.9254 41.7781 29.6508 38.5425C26.8374 35.7625 24.74 32.8439 24.1395 25.2491C21.8133 19.4392 23.6649 14.8018 29.4217 14.8411C35.0905 14.8798 36.6645 17.1013 37.8443 22.1227C42.3344 26.75 43.0205 32.4385 42.9593 36.2001C42.9183 38.7257 49.4305 44.7493 46.0082 45.572Z" fill="#6E6458"/>
<path d="M33.7721 22.9201C31.726 23.1573 29.6715 26.0173 30.1264 28.2502C30.9869 32.4745 37.5432 37.8991 45.9226 42.5844C49.0054 44.5536 44.614 21.6631 33.7721 22.9201Z" fill="#8D8479"/>
<path d="M35.6114 19.1516C35.8171 20.9002 34.4786 22.1079 32.8067 22.1738C31.1365 22.2397 30.8217 22.1203 29.7667 22.1379C28.8661 22.153 27.38 22.7475 26.441 22.5776C25.502 22.4077 24.076 21.7154 23.9123 19.535C23.7659 17.5848 26.2915 16.2817 29.5391 16.157C32.2831 16.0516 35.2577 16.1454 35.6114 19.1516Z" fill="#8D8479"/>
<path d="M29.6872 23.37C30.2101 23.4093 30.7376 19.3411 32.1371 18.3682C33.5365 17.3953 35.3961 17.308 35.6518 16.2251C35.9075 15.1423 36.2509 13.8906 36.9603 13.4424C37.5434 13.0099 34.0547 12.1874 33.0398 15.1484C31.9089 14.8641 28.0847 14.4299 26.0681 15.2819C24.8356 12.4044 20.9358 13.6808 21.7336 14.2237C22.7765 14.9334 23.381 15.89 23.6456 16.7109C23.9102 17.5319 26.2177 17.6761 27.3381 18.5384C28.8956 19.7371 29.1268 23.3289 29.6872 23.37Z" fill="#564D42"/>
<path opacity="0.19" d="M46.4096 42.6743C47.761 42.096 46.2006 32.9937 42.0001 27.3353C42.4816 28.2947 45.9151 35.5712 40.2225 37.2994C34.1329 39.1481 25.5848 31.0736 24.2031 25.9287C24.8742 33.0115 26.9239 35.8489 29.6501 38.5428C32.9246 41.7784 38.1685 41.692 40.7123 41.3273C43.922 43.6878 45.5459 45.7685 46.0075 45.5723C47.3657 45.2458 47.1504 44.0955 46.4096 42.6743Z" fill="#020202"/>
</g>
<defs>
<clipPath id="clip0_2883_12582">
<rect width="64" height="68" fill="white" transform="translate(2)"/>
</clipPath>
</defs>
</svg>
