<svg width="68" height="68" viewBox="0 0 68 68" fill="none" xmlns="http://www.w3.org/2000/svg">
<path opacity="0.4" d="M34 68C51.6731 68 66 53.6731 66 36C66 18.3269 51.6731 4 34 4C16.3269 4 2 18.3269 2 36C2 53.6731 16.3269 68 34 68Z" fill="black" fill-opacity="0.05"/>
<path d="M34 66C51.6731 66 66 51.6731 66 34C66 16.3269 51.6731 2 34 2C16.3269 2 2 16.3269 2 34C2 51.6731 16.3269 66 34 66Z" fill="black" fill-opacity="0.05"/>
<path d="M34 65C51.6731 65 66 50.6731 66 33C66 15.3269 51.6731 1 34 1C16.3269 1 2 15.3269 2 33C2 50.6731 16.3269 65 34 65Z" fill="black" fill-opacity="0.05"/>
<path d="M34 64C51.6731 64 66 49.6731 66 32C66 14.3269 51.6731 0 34 0C16.3269 0 2 14.3269 2 32C2 49.6731 16.3269 64 34 64Z" fill="white"/>
<path opacity="0.19" d="M34 42.7021C45.598 42.7021 55 42.0306 55 41.2021C55 40.3737 45.598 39.7021 34 39.7021C22.402 39.7021 13 40.3737 13 41.2021C13 42.0306 22.402 42.7021 34 42.7021Z" fill="#020202"/>
<path opacity="0.2" d="M34.1707 42.7021C44.5113 42.7021 52.8941 42.0306 52.8941 41.2021C52.8941 40.3737 44.5113 39.7021 34.1707 39.7021C23.83 39.7021 15.4473 40.3737 15.4473 41.2021C15.4473 42.0306 23.83 42.7021 34.1707 42.7021Z" fill="black"/>
<path d="M47.5575 30.4366C47.7143 31.5789 49.202 34.5014 49.7021 36.2154C49.8826 36.8338 50.3237 37.7049 50.5925 38.0633C50.8949 39.9447 51.4389 41.6582 49.6629 41.6582C47.4231 41.6582 48.0895 40.4039 49.3121 40.4039C49.5957 38.9704 48.319 37.8505 47.8263 37.5369C47.3335 37.2233 43.6154 34.4235 42.7866 33.102C41.9579 31.7805 47.0423 28.0176 47.0423 28.0176L47.5575 30.4366Z" fill="#D8B187"/>
<path d="M30.5137 32.5879C29.7521 34.7592 29.461 37.951 29.7969 39.2837C28.733 39.7989 29.6289 41.6579 27.8147 41.6579C26.134 41.6579 25.8828 41.2044 25.8828 40.818C25.8828 40.4316 26.622 40.0957 27.3947 40.0957C27.9491 38.9029 26.8067 37.1223 26.37 35.3752C25.9332 33.6281 30.5137 32.5879 30.5137 32.5879Z" fill="#D8B187"/>
<path d="M15.0021 28.8236C14.9573 28.1628 15.6516 27.4797 15.786 26.9421C15.9204 26.4046 15.674 26.2926 16.066 25.5646C16.458 24.8367 17.0291 24.1423 17.1411 24.1087C17.0179 23.3584 17.4883 23 17.6563 23C17.8243 23 18.2946 23.5824 18.653 23.616C19.0114 23.6496 19.9688 23.2156 21.464 23.5638C23.9339 24.139 24.5346 23.7076 26.1435 24.1281C27.1 24.3781 27.5887 24.938 28.3403 25.0383C30.3562 25.307 35.7766 24.2319 39.0692 24.5007C42.3617 24.7695 46.4255 25.3194 47.4909 26.8525C48.4093 28.174 48.6109 28.9356 48.7453 30.4139C48.8796 31.8922 49.014 35.0951 51.0299 35.9463C53.0457 36.7974 53.6505 34.8264 54.3225 34.6024C54.9944 34.3784 55.2856 34.8488 54.636 35.6775C53.9865 36.5062 51.2315 38.7909 48.7677 35.8119C46.3038 32.8329 46.8414 29.2939 46.8414 29.2939C46.595 31.3316 43.8624 34.3112 43.8624 34.3112C43.28 35.6551 42.6977 37.3126 43.6832 38.4773C43.0337 39.9556 40.973 42.173 39.7859 42.173C38.5988 42.173 37.7028 42.2626 37.6357 41.3891C37.5685 40.5155 39.3603 40.9411 39.8083 40.7395C40.2563 40.5379 41.1074 39.4628 41.1074 39.0149C41.1074 38.5669 39.6739 34.7144 39.4051 33.8632C38.1284 34.468 32.4616 34.7368 30.8265 34.58C29.1915 34.4232 27.0412 35.5655 25.7869 36.4838C24.5326 37.4022 23.2111 37.8949 21.576 38.4325C19.9409 38.9701 20.0753 40.6723 19.3138 40.9411C18.5522 41.2099 17.9699 41.4339 17.3203 40.7619C16.6708 40.09 17.9475 38.2757 19.1346 37.4022C20.3217 36.5286 21.352 34.7816 21.8896 34.4232C22.5391 33.2361 22.4585 30.4723 21.6836 29.9885C21.2272 29.7035 20.2167 29.2162 19.4061 28.9543C18.9835 28.8178 18.1286 29.5271 17.9139 29.6859C17.7914 29.7765 17.1261 30.1879 16.5773 30.1431C16.0285 30.0983 15.823 29.8852 15.4612 29.3611C15.2022 28.9859 15.0209 29.0028 15.0021 28.8236Z" fill="#F9A900"/>
<path d="M16.5769 30.1427C17.1257 30.1874 17.791 29.7761 17.9135 29.6855C18.1282 29.5267 18.9832 28.8173 19.4057 28.9538C20.0137 29.1502 20.7341 29.4735 21.2488 29.743C21.4204 29.8329 21.5692 29.9168 21.6832 29.988C21.776 30.0459 21.8572 30.1386 21.9288 30.2553C21.9864 30.3471 22.0324 30.4657 22.0774 30.5867C22.0861 30.6109 22.0978 30.6283 22.106 30.6535C22.4522 31.6781 22.388 33.511 21.8892 34.4228C22.791 33.8487 22.9152 32.5648 22.8124 31.1033C22.63 28.5077 20.9823 28.4622 19.9684 28.2188C18.9545 27.9754 18.687 26.7092 17.3779 27.2505C16.4705 27.6256 16.9141 29.4451 15.2734 29.1347C15.2741 29.1355 15.2744 29.1361 15.2751 29.137C15.275 29.1369 15.2751 29.1371 15.2751 29.137C15.3309 29.1921 15.3927 29.262 15.4609 29.3607C15.8226 29.8847 16.0281 30.0979 16.5769 30.1427Z" fill="#EEC89A"/>
<path d="M25.7873 36.4838C27.0417 35.5654 29.1919 34.4231 30.827 34.5799C32.4621 34.7367 38.1289 34.4679 39.4055 33.8632C39.1324 33.0636 38.5491 32.3204 37.2918 32.5877C36.0346 32.8551 31.0057 33.456 29.9106 32.8476C28.8156 32.2393 26.7066 35.1593 24.6383 36.2949C22.5699 37.4304 21.3938 37.7144 20.7129 38.9439L20.7266 38.9423C20.9448 38.7353 21.2117 38.5523 21.5764 38.4324C23.2115 37.8949 24.533 37.4021 25.7873 36.4838Z" fill="#EEC89A"/>
<path opacity="0.19" d="M54.3225 34.6024C53.6505 34.8264 53.0458 36.7974 51.0299 35.9463C49.0141 35.0952 48.8796 31.8922 48.7453 30.4139C48.6109 28.9356 48.4093 28.174 47.491 26.8526C46.6794 29.5162 39.5314 29.3981 38.9107 27.5167C38.9107 27.5167 37.8659 28.4735 33.8239 29.4266C29.7819 30.3796 27.2537 29.8003 25.4287 27.9465C23.6037 26.0926 20.4403 26.6426 19.5886 25.649C20.4606 25.1623 19.7914 24.0924 19.3453 24.0113C18.7613 23.9051 18.5342 24.3317 18.6964 25.0102C18.6964 25.0102 19.062 25.4437 18.23 26.1762C17.774 26.5777 16.8868 26.4903 15.8392 26.1976C15.8392 26.1977 15.8392 26.1976 15.8392 26.1976C15.8233 26.3303 15.8316 26.4426 15.8311 26.5674C15.831 26.5979 15.829 26.6308 15.8272 26.6636C15.8258 26.6879 15.8249 26.7116 15.8221 26.7378C15.8154 26.7998 15.8051 26.866 15.786 26.9422C15.6517 27.4797 14.9573 28.1629 15.0021 28.8236C15.0209 29.0028 15.2022 28.9859 15.4613 29.3612C15.823 29.8852 16.0286 30.0983 16.5773 30.1431C17.1261 30.1879 17.7914 29.7765 17.9139 29.686C18.1286 29.5272 18.9836 28.8178 19.4061 28.9543C20.2167 29.2162 21.2272 29.7035 21.6836 29.9885C22.4085 30.441 22.5173 32.873 21.9978 34.159C21.9684 34.2538 21.9334 34.3432 21.8896 34.4232C21.352 34.7816 20.3217 36.5287 19.1346 37.4022C17.9475 38.2757 16.6708 40.09 17.3203 40.7619C17.9699 41.4339 18.5522 41.2099 19.3138 40.9412C20.0753 40.6724 19.941 38.9701 21.576 38.4325C23.2111 37.895 24.5326 37.4022 25.7869 36.4839C27.0412 35.5655 29.1915 34.4232 30.8265 34.58C32.4617 34.7368 38.1284 34.468 39.4051 33.8633C39.6739 34.7144 41.1074 38.5669 41.1074 39.0149C41.1074 39.4629 40.2563 40.538 39.8083 40.7395C39.3603 40.9412 37.5685 40.5156 37.6357 41.3891C37.7029 42.2626 38.5988 42.173 39.7859 42.173C40.9731 42.173 43.0337 39.9556 43.6832 38.4773C42.6977 37.3126 43.2801 35.6551 43.8624 34.3112C43.8624 34.3112 46.595 31.3316 46.8414 29.2939C46.8414 29.2939 46.3038 32.8329 48.7677 35.8119C51.2315 38.7909 53.9865 36.5063 54.6361 35.6775C55.2856 34.8487 54.9945 34.3784 54.3225 34.6024Z" fill="black"/>
<path d="M31.1168 29.8539C31.6034 31.6666 32.2237 33.022 31.938 33.8205C32.8724 33.0843 32.3479 30.5557 32.4974 28.528C32.6389 26.6093 33.9401 24.8694 34.0814 24.6855C33.2904 24.7608 32.5089 24.8426 31.7764 24.9126C30.9381 26.3076 30.634 28.0559 31.1168 29.8539Z" fill="#564038"/>
<path d="M36.9291 33.2938C36.3208 30.7387 36.7827 29.1593 37.142 27.9099C37.5181 26.6023 38.4697 25.195 39.4048 24.5295C39.293 24.5198 39.18 24.5097 39.0697 24.5006C38.4079 24.4466 37.6582 24.4484 36.8693 24.4812C35.6597 26.3344 34.8026 29.0993 36.9291 33.2938Z" fill="#564038"/>
<path d="M40.053 29.3595C40.4296 30.4707 41.1312 31.7978 40.6993 34.064C41.6169 32.3072 42.0985 31.7675 41.5104 29.6181C41.1082 28.1481 42.1186 25.8883 44.1458 25.2095C43.4077 25.0366 42.6064 24.9001 41.7919 24.7891C40.4576 25.7711 39.4422 27.5574 40.053 29.3595Z" fill="#564038"/>
<path d="M44.0485 29.2347C44.2816 30.4861 43.8203 31.3868 43.8203 31.3868C44.7328 30.4337 44.596 28.7759 45.0826 27.8837C45.5678 26.9942 46.3851 26.4913 47.0418 26.3931C46.5961 26.0373 45.971 25.7443 45.2263 25.5049C44.307 26.6835 43.7806 27.7977 44.0485 29.2347Z" fill="#564038"/>
<path d="M26.8747 29.1924C26.8649 30.8228 26.8899 31.0783 26.4844 31.9351C27.3462 31.276 28.0255 29.2887 27.8836 27.8997C27.7389 26.4841 28.7548 25.4482 28.9259 25.1165C28.8953 25.1051 28.8493 25.0891 28.8068 25.0742C28.6378 25.0676 28.48 25.0567 28.3415 25.0382C27.7789 24.9631 27.3633 24.6305 26.7887 24.3631C26.7864 24.3621 26.7826 24.3607 26.7803 24.3596C26.7801 24.3595 26.7804 24.3597 26.7803 24.3596C26.1621 25.3585 26.8845 27.5549 26.8747 29.1924Z" fill="#564038"/>
<path d="M23.9278 28.8986C23.6967 27.6471 24.2551 24.7552 24.9888 23.9372C24.4837 23.9003 24.0016 23.9105 23.3855 23.8652C23.3834 23.8664 23.3805 23.8671 23.3785 23.8683C23.0277 24.9355 23.4838 28.0817 23.9278 28.8986Z" fill="#564038"/>
<path d="M21.135 26.8652C20.9238 25.7852 21.1908 24.228 21.9322 23.665C21.9305 23.6623 21.9263 23.6598 21.9244 23.6571C21.7725 23.6267 21.6325 23.6025 21.4642 23.5633C21.2039 23.5027 20.9659 23.4719 20.7384 23.4521C20.1316 24.1705 20.6561 26.3438 21.135 26.8652Z" fill="#564038"/>
</svg>
