<svg width="68" height="68" viewBox="0 0 68 68" fill="none" xmlns="http://www.w3.org/2000/svg">
<g clip-path="url(#clip0_2883_12579)">
<path opacity="0.4" d="M34 68C51.6731 68 66 53.6731 66 36C66 18.3269 51.6731 4 34 4C16.3269 4 2 18.3269 2 36C2 53.6731 16.3269 68 34 68Z" fill="black" fill-opacity="0.05"/>
<path d="M34 66C51.6731 66 66 51.6731 66 34C66 16.3269 51.6731 2 34 2C16.3269 2 2 16.3269 2 34C2 51.6731 16.3269 66 34 66Z" fill="black" fill-opacity="0.05"/>
<path d="M34 65C51.6731 65 66 50.6731 66 33C66 15.3269 51.6731 1 34 1C16.3269 1 2 15.3269 2 33C2 50.6731 16.3269 65 34 65Z" fill="black" fill-opacity="0.05"/>
<path d="M34 64C51.6731 64 66 49.6731 66 32C66 14.3269 51.6731 0 34 0C16.3269 0 2 14.3269 2 32C2 49.6731 16.3269 64 34 64Z" fill="white"/>
<path opacity="0.2" d="M36.5 44C46.7173 44 55 43.3284 55 42.5C55 41.6716 46.7173 41 36.5 41C26.2827 41 18 41.6716 18 42.5C18 43.3284 26.2827 44 36.5 44Z" fill="black"/>
<path opacity="0.19" d="M34.5 44C45.8218 44 55 43.3284 55 42.5C55 41.6716 45.8218 41 34.5 41C23.1782 41 14 41.6716 14 42.5C14 43.3284 23.1782 44 34.5 44Z" fill="#020202"/>
<path d="M47.9245 34.9222C46.8854 35.839 45.5437 39.3366 45.3894 41.6369C43.3711 41.6369 39.5176 41.6369 39.5176 41.6369C39.7243 40.3414 42.2404 39.9645 42.2404 39.9645C40.7735 37.9781 40.5256 33.6494 40.5256 33.6494L47.9245 34.9222Z" fill="#717682"/>
<path d="M32.5535 34.199C30.8421 36.2363 29.9865 39.4997 29.9865 41.637C28.1121 41.637 24.6895 41.637 24.6895 41.637C25.2361 40.0665 27.3787 39.7405 27.3787 39.7405C26.5638 37.1318 25.3821 29.1465 25.3821 29.1465L32.5535 29.9614V34.199Z" fill="#717682"/>
<path d="M30.4619 33.9854C29.6706 33.706 27.4736 30.624 26.6725 30.3794C25.4955 30.0199 24.6866 29.9797 22.9748 29.2487C22.8056 29.1764 20.8889 28.7369 19.9046 28.7774C18.0962 28.8519 17.0931 28.8182 15.7789 28.7687C15.2944 28.7504 15.0262 28.2595 14.7245 27.9128C14.4173 27.5331 14.1859 27.1066 14.0018 26.6588C13.8997 26.4102 18.0659 24.0835 18.3622 23.9359C18.3702 23.9304 18.5193 23.8788 18.7395 23.8056C18.7646 23.3368 18.728 22.735 18.9205 22.6579C19.1292 22.5745 19.5902 23.1557 20.0024 23.4039C20.3954 23.2843 20.7885 23.1703 21.0903 23.096C22.6436 22.7135 25.2424 22.9268 26.8254 22.7386C27.8547 22.6163 28.7237 22.1761 29.7284 21.9144C30.2146 21.7877 32.2505 22.3257 33.4771 22.6478C34.525 22.9228 37.1071 22.1501 38.1629 21.8954C39.6746 21.5307 40.9687 21.3188 42.3598 21.3032C43.9896 21.2849 45.6055 21.8596 46.4752 22.281C48.1625 23.0987 50.7399 24.6219 51.9352 26.6002C53.1168 28.556 51.8028 33.3389 51.6839 33.832L30.4619 33.9854Z" fill="#D5DCE9"/>
<path d="M35.2922 34.3325C35.4616 34.2951 36.1357 34.5269 36.4057 34.5703C38.0615 34.8365 39.7314 34.8393 41.4023 34.8108C42.1287 34.6785 44.5679 35.3748 45.0388 35.3914C47.6364 35.4831 51.8801 34.1689 51.9759 33.7717C52.0948 33.2786 53.1168 28.5562 51.9352 26.6004C51.5373 25.942 50.9795 25.3395 50.3592 24.7911C51.3732 27.4367 49.19 29.599 46.3529 28.0062C42.8691 26.0504 39.9965 27.3542 38.8963 28.271C37.7962 29.1877 36.0781 28.8007 34 28.0062C31.9219 27.2116 31.0731 28.0062 29.3618 28.0062C27.6504 28.0062 23.3924 26.5596 22.5164 25.8058C22.6183 25.0623 22.8895 23.9644 22.3737 23.7074C22.1546 23.5983 21.5792 24.3186 21.5385 24.6854C21.5385 24.6854 21.7829 25.5002 22.1497 25.9077C21.8645 26.7226 20.1637 27.0661 18.7473 27.1098C17.6209 27.1445 16.3128 27.568 16.0162 25.2695C14.9564 25.8975 13.9511 26.5354 14.0018 26.6591C14.1859 27.1069 14.4173 27.5333 14.7245 27.913C15.0262 28.2598 15.2944 28.7507 15.7789 28.7689C17.0931 28.8184 18.0962 28.8521 19.9046 28.7777C20.8889 28.7372 22.8056 29.1767 22.9748 29.2489C24.6866 29.98 25.4955 30.0202 26.6725 30.3796C27.4736 30.6243 29.9592 33.833 30.7505 34.1124C31.1506 34.1614 33.7301 34.6778 35.2922 34.3325Z" fill="#ACB6C7"/>
<path d="M34.0718 40.3213C33.5319 40.3722 32.3503 40.9427 32.1603 42.0224H36.2178C36.5125 41.415 37.052 40.3672 37.2008 39.8227C35.7187 38.1113 35.2046 34.4606 35.2927 34.3326C35.391 34.1897 36.1362 34.527 36.4062 34.5704C38.062 34.8366 39.7099 34.859 41.3756 34.9937C42.3986 35.0765 44.5684 35.3749 45.0393 35.3916C47.6369 35.4832 47.5277 35.7902 48.2158 37.076C48.7965 38.1608 49.8508 39.5369 50.5078 40.3213C49.6674 40.3213 48.3024 41.1056 48.1675 42.0224H52.418C52.6186 41.8487 52.7959 41.6393 52.9373 41.4128C53.346 40.7576 53.8672 39.9051 54.0005 39.0729C53.4654 38.4746 53.2647 37.7364 52.8321 36.7463C52.6886 36.418 51.8805 34.169 51.9764 33.7719C52.06 33.4251 52.5872 30.9889 52.4837 28.8922C52.4251 32.9759 48.659 32.3906 45.0393 31.3626C41.6812 30.4088 41.4594 32.1963 36.649 31.4377C34.0005 31.02 32.9818 29.5463 30.8834 29.5463C26.5745 29.7602 23.279 28.2628 21.6747 27.495C17.8089 28.3333 15.3208 28.5879 14.3398 27.3447C14.4542 27.5424 14.5798 27.7337 14.725 27.9131C15.0267 28.2599 15.2949 28.7508 15.7794 28.7691C17.0936 28.8186 18.0966 28.8523 19.9051 28.7778C20.8894 28.7373 22.8061 29.1768 22.9753 29.249C24.6871 29.9801 25.496 30.0203 26.673 30.3798C27.4741 30.6244 29.0236 33.6141 29.8444 34.9521C31.3316 37.3765 33.4479 39.7661 34.0718 40.3213Z" fill="#8892A2"/>
</g>
<defs>
<clipPath id="clip0_2883_12579">
<rect width="64" height="68" fill="white" transform="translate(2)"/>
</clipPath>
</defs>
</svg>
