<svg width="68" height="68" viewBox="0 0 68 68" fill="none" xmlns="http://www.w3.org/2000/svg">
<path opacity="0.4" d="M34 68C51.6731 68 66 53.6731 66 36C66 18.3269 51.6731 4 34 4C16.3269 4 2 18.3269 2 36C2 53.6731 16.3269 68 34 68Z" fill="black" fill-opacity="0.05"/>
<path d="M34 66C51.6731 66 66 51.6731 66 34C66 16.3269 51.6731 2 34 2C16.3269 2 2 16.3269 2 34C2 51.6731 16.3269 66 34 66Z" fill="black" fill-opacity="0.05"/>
<path d="M34 65C51.6731 65 66 50.6731 66 33C66 15.3269 51.6731 1 34 1C16.3269 1 2 15.3269 2 33C2 50.6731 16.3269 65 34 65Z" fill="black" fill-opacity="0.05"/>
<path d="M34 64C51.6731 64 66 49.6731 66 32C66 14.3269 51.6731 0 34 0C16.3269 0 2 14.3269 2 32C2 49.6731 16.3269 64 34 64Z" fill="white"/>
<path opacity="0.2" d="M34 43C45.598 43 55 41.8807 55 40.5C55 39.1193 45.598 38 34 38C22.402 38 13 39.1193 13 40.5C13 41.8807 22.402 43 34 43Z" fill="black"/>
<path opacity="0.2" d="M34 43C44.1643 43 52.4042 41.8807 52.4042 40.5C52.4042 39.1193 44.1643 38 34 38C23.8356 38 15.5957 39.1193 15.5957 40.5C15.5957 41.8807 23.8356 43 34 43Z" fill="black"/>
<path d="M52.7277 35.744C51.2774 33.3901 48.9027 31.7263 46.2786 30.9675C44.071 30.3291 36.2507 29.6968 33.5095 28.7438C32.4897 28.3892 29.196 26.5993 27.1553 23.8974C26.2922 22.2461 23.9279 19.2064 21.6387 19.0187C19.3495 18.8312 18.1102 20.1004 17.7734 20.6512C17.4141 21.2387 17.5587 21.2259 16.9666 21.6832C16.4787 21.9647 15.7635 23.0342 16.9654 23.9912C18.1674 24.9481 19.8944 25.9876 20.0185 27.1461C20.3017 29.1413 20.3856 32.3184 20.5143 32.833C20.6429 33.3477 20.9525 36.8714 19.8911 38.2706C18.8296 39.6697 14 39.2195 14 40.0863C14 40.9589 20.1901 40.9019 21.624 40.4766C23.1201 40.0329 23.184 38.8801 23.6826 37.6256C24.149 38.4941 26.2075 40.1024 27.1081 40.1024C27.9766 42.1448 31.8088 44.6612 34.0765 44.8703C36.3441 45.0794 34.6348 41.9841 33.9754 40.6491C36.1466 41.4694 41.0357 40.022 42.8852 40.0702C44.7347 40.1185 48.2246 39.6842 49.672 39.0409C49.077 39.8933 43.6571 41.5659 47.6617 41.8554C51.6662 42.1448 53.8214 40.0863 53.9661 39.2983C54.1109 38.5102 53.8089 37.4988 52.7277 35.744Z" fill="#AC9576"/>
<path opacity="0.2" d="M49.3932 41.8162C49.7165 41.7823 50.0386 41.7471 50.328 41.6844C50.373 41.6747 50.4085 41.6587 50.4526 41.6484C50.4787 41.64 50.5051 41.6319 50.5334 41.625C50.8364 41.5504 51.1333 41.4708 51.3968 41.372C51.4248 41.3614 51.4459 41.3479 51.4734 41.3372C51.7667 41.223 52.0416 41.0992 52.284 40.9655C52.9599 39.9108 52.6769 38.6908 51.0595 36.5566C49.864 34.9791 47.4608 33.4263 45.267 33.2783C38.6496 32.8322 35.7772 33.4181 29.6397 30.8757C26.706 29.6605 23.9625 24.7619 23.4695 22.4696C24.3569 22.8146 24.3772 22.285 23.5391 21.373C22.701 20.461 19.7679 19.4504 17.7734 20.6504C17.4141 21.2379 17.5587 21.2251 16.9666 21.6824C16.4787 21.9639 15.7635 23.0334 16.9655 23.9904C18.1674 24.9473 19.8944 25.9868 20.0185 27.1453C20.3017 29.1405 20.3856 32.3176 20.5143 32.8322C20.643 33.3469 20.9526 36.8706 19.8911 38.2698C18.8296 39.6689 14 39.2187 14 40.0855C14 40.958 20.1901 40.901 21.624 40.4758C23.1201 40.0321 23.184 38.8793 23.6826 37.6248C24.149 38.4933 26.2075 40.1015 27.1081 40.1015C27.9766 42.144 31.8088 44.6603 34.0764 44.8694C36.3441 45.0785 34.6348 41.9832 33.9754 40.6483C36.1466 41.4685 41.0357 40.0211 42.8852 40.0694C44.7347 40.1177 48.2246 39.6834 49.672 39.0401C49.077 39.8924 43.6571 41.5651 47.6617 41.8545C48.1648 41.891 48.6381 41.8899 49.0825 41.8593C49.1933 41.8516 49.2861 41.8274 49.3932 41.8162Z" fill="black"/>
<path opacity="0.2" d="M49.2986 41.8303C49.4292 41.8181 49.5501 41.797 49.6735 41.7782C49.7522 41.7674 49.8324 41.7582 49.909 41.7455C50.1075 41.7147 50.2899 41.6849 50.3837 41.6694C50.3977 41.6662 50.4097 41.6619 50.4227 41.6581C50.4267 41.6571 50.43 41.6558 50.4341 41.6548C46.6589 41.0933 54.6614 39.4494 49.4573 36.9123C48.3627 36.3787 45.3326 36.1507 41.0521 36.9274C36.738 37.7102 33.5088 35.6237 32.9059 38.0762C32.4315 40.0061 27.3976 37.1916 28.2179 35.9854C29.0381 34.7792 23.0954 32.8247 22.282 27.9827C21.4863 23.2459 18.4402 24.4696 16.3151 22.9414C16.3239 23.0338 16.3464 23.1284 16.3802 23.2242C16.3936 23.2626 16.4148 23.3015 16.4327 23.3402C16.4384 23.3524 16.4479 23.3649 16.4541 23.3772C16.4851 23.4386 16.5179 23.4999 16.5613 23.5617C16.5858 23.597 16.6101 23.6322 16.6391 23.6674C16.7285 23.7759 16.8311 23.8844 16.9655 23.9914C18.1674 24.9483 19.8944 25.9878 20.0185 27.1463C20.3017 29.1415 20.3856 32.3186 20.5143 32.8332C20.643 33.3479 20.9526 36.8716 19.8911 38.2708C18.8296 39.67 14 39.2198 14 40.0865C14 40.9591 20.1901 40.9021 21.624 40.4768C23.1201 40.0331 23.184 38.8803 23.6826 37.6259C24.149 38.4943 26.2075 40.1026 27.1081 40.1026C27.9766 42.1451 31.8088 44.6614 34.0764 44.8705C36.3441 45.0796 34.6348 41.9843 33.9754 40.6494C34.1111 40.7006 34.2574 40.7431 34.4129 40.7775C34.6218 40.8238 34.8523 40.8513 35.091 40.8712C35.1506 40.8762 35.2109 40.8806 35.2721 40.8841C35.5132 40.8978 35.7616 40.9046 36.0234 40.8981C36.4583 40.8874 36.9182 40.8503 37.3863 40.7993C37.401 40.7977 37.4158 40.7958 37.4305 40.7941C37.4553 40.7914 37.4802 40.7882 37.5051 40.7854C37.9426 40.7356 38.3863 40.6743 38.8255 40.6073C38.8781 40.5993 38.9305 40.5913 38.9828 40.5832C39.4318 40.5135 39.8758 40.4404 40.298 40.3712C40.2988 40.3711 40.2994 40.371 40.3002 40.3709C40.6495 40.3137 40.9821 40.2612 41.2967 40.2151C41.3051 40.2139 41.3139 40.2125 41.3224 40.2113C41.639 40.1652 41.933 40.1283 42.1988 40.1035C42.1986 40.1035 42.199 40.1035 42.1988 40.1035C42.2501 40.0988 42.3011 40.0946 42.3501 40.0908C42.3499 40.0908 42.3503 40.0908 42.3501 40.0908C42.5453 40.076 42.7296 40.0664 42.8852 40.0704C43.1103 40.0763 43.3614 40.0744 43.6285 40.0665C43.8959 40.0584 44.1809 40.0435 44.4764 40.0228C44.7961 40.0004 45.1267 39.9718 45.4637 39.9356C45.784 39.9011 46.1082 39.8608 46.4294 39.8151C47.0717 39.7236 47.7014 39.6106 48.2611 39.4801C48.5408 39.4149 48.8032 39.3454 49.0407 39.272C49.2783 39.1987 49.4911 39.1215 49.672 39.0411C49.6348 39.0943 49.5788 39.1509 49.5074 39.21C49.436 39.2692 49.3493 39.331 49.2505 39.3949C48.9193 39.6095 48.4543 39.8483 47.9868 40.0906C47.758 40.2091 47.5284 40.3284 47.3138 40.4464C47.1661 40.5276 47.0287 40.6077 46.9 40.6867C46.872 40.704 46.8471 40.7208 46.8215 40.7377C46.8112 40.7443 46.8015 40.7508 46.7914 40.7573C46.7052 40.8129 46.6264 40.8675 46.556 40.9211C46.5386 40.9343 46.5239 40.9472 46.5075 40.9603C46.491 40.9737 46.4733 40.9873 46.4578 41.0006C46.3971 41.0524 46.3497 41.1024 46.3098 41.1514C46.2956 41.1688 46.281 41.1862 46.268 41.2034C46.2647 41.2084 46.2589 41.2137 46.2557 41.2187C46.2136 41.2871 46.1896 41.353 46.2027 41.4136C46.2256 41.519 46.34 41.6114 46.5739 41.6865C46.8078 41.7616 47.1612 41.8194 47.6617 41.8556C48.1155 41.8884 48.5382 41.883 48.9443 41.8607C49.0658 41.854 49.1813 41.8413 49.2986 41.8303Z" fill="black"/>
<path opacity="0.2" d="M37.4305 40.7939C37.4553 40.7912 37.4802 40.788 37.5051 40.7852C37.9426 40.7354 38.3863 40.6741 38.8255 40.6071C38.8781 40.5991 38.9305 40.5911 38.9829 40.5829C39.2107 40.5475 39.4285 40.5115 39.6512 40.4752C38.1843 40.5948 36.1574 40.5127 34.6187 39.4912C33.2553 38.5861 34.0171 39.9529 32.528 40.3597C30.7972 40.8326 26.9119 39.3534 27.4123 37.7509C27.8157 36.4589 20.7764 35.6637 20.1201 27.9824L20.1199 27.9837L20.12 27.9855C20.1202 27.9879 20.1205 27.9906 20.1207 27.993C20.1464 28.2392 20.1703 28.4933 20.1923 28.7505C20.206 28.9096 20.2179 29.0686 20.2304 29.2287C20.2392 29.3426 20.2484 29.4554 20.2567 29.5687C20.27 29.7499 20.2822 29.9245 20.2942 30.1016C20.3007 30.1974 20.3072 30.2909 20.3135 30.3848C20.3311 30.6525 20.3478 30.9064 20.3636 31.1492C20.3687 31.2286 20.3738 31.3046 20.3788 31.3804C20.3895 31.5437 20.3999 31.6888 20.4102 31.8322C20.4156 31.908 20.4211 31.9852 20.4264 32.0545C20.4364 32.1831 20.4463 32.2897 20.4562 32.3927C20.4608 32.4404 20.4654 32.4969 20.47 32.5385C20.4844 32.6681 20.499 32.7719 20.5143 32.833C20.643 33.3477 20.9526 36.8714 19.8911 38.2706C18.8296 39.6697 14 39.2195 14 40.0863C14 40.9588 20.1901 40.9018 21.624 40.4766C23.1201 40.0329 23.184 38.8801 23.6826 37.6256C24.149 38.4941 26.2075 40.1023 27.1081 40.1023C27.9766 42.1448 31.8088 44.6612 34.0764 44.8702C36.3441 45.0793 34.6348 41.984 33.9754 40.6491C34.1111 40.7004 34.2574 40.7428 34.4129 40.7773C34.6218 40.8236 34.8523 40.8511 35.091 40.8709C35.1506 40.876 35.2109 40.8804 35.2721 40.8838C35.5132 40.8975 35.7616 40.9044 36.0234 40.8979C36.4583 40.8871 36.9182 40.85 37.3863 40.799C37.401 40.7974 37.4158 40.7956 37.4305 40.7939Z" fill="black"/>
</svg>
