<svg width="68" height="68" viewBox="0 0 68 68" fill="none" xmlns="http://www.w3.org/2000/svg">
<g clip-path="url(#clip0_2866_12566)">
<path opacity="0.4" d="M34 68C51.6731 68 66 53.6731 66 36C66 18.3269 51.6731 4 34 4C16.3269 4 2 18.3269 2 36C2 53.6731 16.3269 68 34 68Z" fill="black" fill-opacity="0.05"/>
<path d="M34 66C51.6731 66 66 51.6731 66 34C66 16.3269 51.6731 2 34 2C16.3269 2 2 16.3269 2 34C2 51.6731 16.3269 66 34 66Z" fill="black" fill-opacity="0.05"/>
<path d="M34 65C51.6731 65 66 50.6731 66 33C66 15.3269 51.6731 1 34 1C16.3269 1 2 15.3269 2 33C2 50.6731 16.3269 65 34 65Z" fill="black" fill-opacity="0.05"/>
<path d="M34 64C51.6731 64 66 49.6731 66 32C66 14.3269 51.6731 0 34 0C16.3269 0 2 14.3269 2 32C2 49.6731 16.3269 64 34 64Z" fill="white"/>
<path opacity="0.2" d="M34.0215 52C40.6489 52 46.0215 51.3284 46.0215 50.5C46.0215 49.6716 40.6489 49 34.0215 49C27.3941 49 22.0215 49.6716 22.0215 50.5C22.0215 51.3284 27.3941 52 34.0215 52Z" fill="black"/>
<path opacity="0.19" d="M34 52C45.598 52 55 51.3284 55 50.5C55 49.6716 45.598 49 34 49C22.402 49 13 49.6716 13 50.5C13 51.3284 22.402 52 34 52Z" fill="#020202"/>
<path d="M22.5635 35.6762L27.1291 34.8804L33.7966 32.8698L39.5833 32.0042C39.5833 32.0042 43.9631 30.7181 45.4613 30.4684C46.5085 30.2938 47.7232 32.6014 45.8523 33.5524C45.407 33.7787 44.1062 33.7546 42.1523 34.1823C40.4109 34.5635 38.1241 35.3832 35.8781 35.8163C33.2753 36.3182 30.4393 36.6345 28.1065 37.0585C25.2195 37.5832 23.0426 38.1739 22.3122 38.3078C19.9107 38.7479 21.3023 35.9631 22.5635 35.6762Z" fill="#776B53"/>
<path d="M22.3132 38.307C23.0436 38.1732 25.2205 37.5824 28.1074 37.0578C30.4403 36.6337 33.2762 36.3175 35.879 35.8156C38.1251 35.3825 40.4119 34.5627 42.1533 34.1816C44.1071 33.7538 45.408 33.778 45.8532 33.5517C46.7713 33.085 46.9441 32.2924 46.7606 31.626C46.6385 31.682 46.53 31.7539 46.4536 31.8616C46.2495 32.1497 45.8624 32.6793 45.0015 32.8761C42.4472 33.4601 37.69 33.4324 36.8128 33.9023C35.64 34.5306 31.5979 35.4102 30.1738 35.3683C28.7497 35.3264 25.2313 36.5412 24.0528 37.2532C22.8764 37.9641 21.0158 37.5854 21.1397 37.0682C20.8241 37.8216 20.998 38.5481 22.3132 38.307Z" fill="#5E5442"/>
<path d="M32.6004 33.1256C32.0433 32.7065 32.068 30.4678 32.068 30.4678L30.6104 30.6982C30.6847 31.5746 31.6678 32.6061 29.4501 33.3684C28.813 33.5874 28.4191 34.0474 28.207 34.5547L29.9156 34.0395C30.245 33.9054 30.6391 33.8125 31.1208 33.8016C32.1308 33.7787 32.6958 34.5425 32.7486 35.4522C32.7918 36.1965 32.1071 36.4917 32.2983 36.5308C33.6282 36.8031 33.6867 33.9431 32.6004 33.1256Z" fill="#D1993B"/>
<path d="M24.4755 12.8124C23.554 12.4355 24.8106 11.3045 26.4023 11.0323C27.9939 10.76 30.8422 10.5087 33.4601 14.467C36.078 18.4252 39.8477 36.4572 39.8477 36.4572C41.9421 44.3318 44.6228 49.9725 41.9421 50.8661C39.2613 51.7596 35.0105 32.7712 33.8409 31.4309C32.6712 30.0905 32.2524 29.7833 32.2524 29.7833C32.2803 30.7607 32.6433 31.738 31.3309 31.738C30.0184 31.738 30.0743 28.2475 30.0743 28.2475C28.343 26.5721 27.7287 26.6838 27.3377 22.5231C26.9468 18.3624 28.2872 16.296 28.2872 16.296C27.3098 16.659 25.9136 15.9609 25.9136 15.9609C25.1596 16.2401 26.1091 17.776 26.1091 17.776C24.3778 16.7707 23.4563 14.4949 24.4755 12.8124Z" fill="#005BCC"/>
<path d="M28.2878 16.2964C28.2878 16.2964 26.9474 18.3627 27.3384 22.5234C27.7293 26.6841 28.3436 26.5724 30.0749 28.2479C30.0749 28.2479 30.0191 31.7384 31.3315 31.7384C32.6439 31.7384 32.2809 30.761 32.253 29.7837C32.253 29.7837 32.6718 30.0909 33.8414 31.4312C35.0111 32.7716 39.2619 51.76 41.9427 50.8664C41.9893 50.8509 42.0221 50.8229 42.0655 50.8044C40.243 49.6971 36.8115 37.9608 35.8552 33.5084C34.8499 28.828 32.2669 20.5827 32.1832 18.0277C32.0994 15.4726 29.293 13.0432 27.8689 13.7133L26.3477 16.1403C26.8375 16.3185 27.6488 16.5337 28.2878 16.2964Z" fill="#9EA63E"/>
<path d="M28.9168 13.4197C28.7398 12.9174 28.8051 12.3027 27.2693 12.1213C25.7334 11.9397 25.4263 12.4843 25.9847 13.6012C25.2866 13.4337 25.5944 15.5174 26.3484 15.2382C26.3484 15.2382 27.5279 16.4632 28.5052 16.1002C29.5663 15.2904 29.0928 13.9194 28.9168 13.4197Z" fill="#D5DCE9"/>
<path d="M25.9141 15.9605C25.9141 15.9605 27.0393 16.9934 28.2876 16.2956C29.1066 15.818 27.9806 15.1631 27.1227 14.036C26.5702 13.3102 24.8153 12.7595 24.476 12.8121C22.5432 14.4712 24.488 16.834 26.1095 17.7756C26.1095 17.7756 25.1601 16.2397 25.9141 15.9605Z" fill="#D1993B"/>
<path d="M36.3086 20.4253C34.2365 17.6359 30.1037 19.1996 30.4946 22.9415C30.8856 26.6833 37.1406 33.6643 39.8492 36.4568C42.5579 39.2492 45.7209 40.6942 46.6627 39.7797C48.5895 37.9088 36.3086 20.4253 36.3086 20.4253Z" fill="#005BCC"/>
<path opacity="0.19" d="M46.6628 39.7811C47.7425 38.7328 44.3612 32.7827 41.1792 27.753C41.1806 27.7575 41.6107 31.8937 38.1478 30.4684C31.1024 27.5687 29.2375 25.3308 27.9683 16.957C27.3256 18.3786 27.183 20.8605 27.3394 22.524C27.7303 26.6847 28.3446 26.573 30.0759 28.2485C30.0759 28.2485 30.0201 31.739 31.3325 31.739C32.6449 31.739 32.2819 30.7616 32.254 29.7843C32.254 29.7843 32.6729 30.0915 33.8425 31.4318C35.0121 32.7722 39.2629 51.7606 41.9437 50.867C44.6244 49.9735 41.9437 44.3328 39.8494 36.4582C42.558 39.2506 45.7211 40.6956 46.6628 39.7811Z" fill="#252422"/>
</g>
<defs>
<clipPath id="clip0_2866_12566">
<rect width="64" height="68" fill="white" transform="translate(2)"/>
</clipPath>
</defs>
</svg>
