<svg width="68" height="68" viewBox="0 0 68 68" fill="none" xmlns="http://www.w3.org/2000/svg">
<g clip-path="url(#clip0_2883_12620)">
<path opacity="0.4" d="M34 68C51.6731 68 66 53.6731 66 36C66 18.3269 51.6731 4 34 4C16.3269 4 2 18.3269 2 36C2 53.6731 16.3269 68 34 68Z" fill="black" fill-opacity="0.05"/>
<path d="M34 66C51.6731 66 66 51.6731 66 34C66 16.3269 51.6731 2 34 2C16.3269 2 2 16.3269 2 34C2 51.6731 16.3269 66 34 66Z" fill="black" fill-opacity="0.05"/>
<path d="M34 65C51.6731 65 66 50.6731 66 33C66 15.3269 51.6731 1 34 1C16.3269 1 2 15.3269 2 33C2 50.6731 16.3269 65 34 65Z" fill="black" fill-opacity="0.05"/>
<path d="M34 64C51.6731 64 66 49.6731 66 32C66 14.3269 51.6731 0 34 0C16.3269 0 2 14.3269 2 32C2 49.6731 16.3269 64 34 64Z" fill="white"/>
<path opacity="0.2" d="M36.0204 49.9268C41.7723 49.9268 46.4353 49.2552 46.4353 48.4268C46.4353 47.5983 41.7723 46.9268 36.0204 46.9268C30.2684 46.9268 25.6055 47.5983 25.6055 48.4268C25.6055 49.2552 30.2684 49.9268 36.0204 49.9268Z" fill="black"/>
<path opacity="0.19" d="M34 49.9268C45.598 49.9268 55 49.2552 55 48.4268C55 47.5983 45.598 46.9268 34 46.9268C22.402 46.9268 13 47.5983 13 48.4268C13 49.2552 22.402 49.9268 34 49.9268Z" fill="#020202"/>
<path d="M35.495 48.1468C35.9056 48.2243 36.8031 48.2225 36.8031 48.9385C35.3091 48.9385 30.1113 48.9385 30.1113 48.9385C30.1113 47.9058 31.1302 47.6167 31.4745 47.6098C31.8187 47.6029 34.099 47.6855 34.099 47.6855L35.495 48.1468Z" fill="#53545C"/>
<path d="M35.7068 20.4294C36.1612 21.5653 39.9235 45.741 34.7086 48.1258C34.0772 48.4145 33.0105 48.2536 32.9183 47.8763C32.6911 46.9469 32.8084 47.217 31.5073 46.1431C30.2061 45.0691 28.4919 41.1242 27.2939 33.8129C26.096 26.5015 24.9808 23.0317 28.6571 18.5293C28.6158 17.5792 35.2524 19.2934 35.7068 20.4294Z" fill="#D5DCE9"/>
<path d="M29.8977 18.2815C29.666 17.5167 31.4673 15.4762 32.8718 16.0252C34.2762 16.5741 36.0662 19.4381 34.6067 19.741C33.1471 20.0439 32.7201 22.7649 31.1711 22.4345C29.6202 22.1036 29.1128 24.1884 27.3986 23.5068C26.7655 23.2551 27.7497 20.0164 29.2092 19.6859C30.6687 19.3555 30.011 18.6557 29.8977 18.2815Z" fill="#E2A807"/>
<path d="M41.2435 42.7902C41.6015 40.4771 41.7116 35.5202 40.4449 28.2502C39.1781 20.9801 36.087 20.0163 35.6326 18.8803C35.1782 17.7444 33.9597 15.6687 32.8134 14.6773C31.6671 13.686 29.8496 14.161 29.292 14.3882C28.7343 14.6154 27.0304 15.4209 26.2972 15.3796C25.564 15.3383 24.0046 15.4725 24.0356 16.0818C26.1801 15.9407 28.6723 17.5792 28.7137 18.5292C29.6224 18.3743 30.304 19.2831 31.0681 19.0662C31.8323 18.8493 31.4812 16.9079 32.4519 16.815C33.4226 16.722 35.0877 18.0749 34.6412 18.5499C33.6705 19.5826 31.2953 18.5912 30.717 21.2142C30.1387 23.8372 31.7153 25.6065 31.9356 26.9834C32.1559 28.3603 30.8616 32.2707 30.5587 34.7491C30.2558 37.2276 31.7153 40.422 32.6241 40.7524C33.5328 41.0829 33.5879 38.6596 33.4226 37.1174C33.2574 35.5753 33.8632 33.5925 34.359 33.1519C34.8546 32.7113 34.1662 36.3739 34.8822 38.2465C35.5981 40.1191 36.5345 39.2929 35.846 43.6439C35.1707 47.9121 34.5524 48.4495 33.2472 48.1591C33.3316 48.5558 35.6388 48.7041 35.9675 47.9561C36.3534 47.0781 40.5688 48.9381 44.2727 48.3254C42.9646 47.5406 40.8855 45.1034 41.2435 42.7902Z" fill="#53545C"/>
</g>
<defs>
<clipPath id="clip0_2883_12620">
<rect width="64" height="68" fill="white" transform="translate(2)"/>
</clipPath>
</defs>
</svg>
