<svg width="68" height="68" viewBox="0 0 68 68" fill="none" xmlns="http://www.w3.org/2000/svg">
<path opacity="0.4" d="M34 68C51.6731 68 66 53.6731 66 36C66 18.3269 51.6731 4 34 4C16.3269 4 2 18.3269 2 36C2 53.6731 16.3269 68 34 68Z" fill="black" fill-opacity="0.05"/>
<path d="M34 66C51.6731 66 66 51.6731 66 34C66 16.3269 51.6731 2 34 2C16.3269 2 2 16.3269 2 34C2 51.6731 16.3269 66 34 66Z" fill="black" fill-opacity="0.05"/>
<path d="M34 65C51.6731 65 66 50.6731 66 33C66 15.3269 51.6731 1 34 1C16.3269 1 2 15.3269 2 33C2 50.6731 16.3269 65 34 65Z" fill="black" fill-opacity="0.05"/>
<path d="M34 64C51.6731 64 66 49.6731 66 32C66 14.3269 51.6731 0 34 0C16.3269 0 2 14.3269 2 32C2 49.6731 16.3269 64 34 64Z" fill="white"/>
<path opacity="0.2" d="M34 50.3418C45.598 50.3418 55 49.6702 55 48.8418C55 48.0134 45.598 47.3418 34 47.3418C22.402 47.3418 13 48.0134 13 48.8418C13 49.6702 22.402 50.3418 34 50.3418Z" fill="black"/>
<path opacity="0.2" d="M35.8731 50.3418C45.92 50.3418 54.0646 49.6702 54.0646 48.8418C54.0646 48.0134 45.92 47.3418 35.8731 47.3418C25.8262 47.3418 17.6816 48.0134 17.6816 48.8418C17.6816 49.6702 25.8262 50.3418 35.8731 50.3418Z" fill="black"/>
<path d="M22.5254 27.8359C22.8829 30.3605 22.6589 31.3954 22.8503 32.4965C22.9537 33.0908 23.7318 35.7001 24.0669 36.1693C24.4021 36.6384 24.7819 37.264 25.3181 36.9065C25.8543 36.5491 25.0723 35.2086 24.5585 34.3596C24.0446 33.5107 24.6925 30.2041 24.6925 30.2041L22.5254 27.8359Z" fill="#776260"/>
<path d="M30.5 38.499C30.0979 40.0629 31.5833 47.51 31.5833 48.292C30.3768 48.292 20 48.292 20 48.292C20 47.1079 27.3174 47.1526 28.5015 47.2419C30.2426 47.2419 27.5 34.999 27.5 34.999L30.5 38.499Z" fill="#564447"/>
<path d="M22.6828 23.6135C22.9381 22.6286 22.4633 21.4528 22.3476 21.2453C22.0944 20.791 22.6237 18.6649 22.7203 18.4526C22.5152 18.3298 21.9678 18.2963 21.8114 17.9835C21.6551 17.6707 20.538 15.5929 21.0854 15.0791C21.6327 14.5652 23.4647 15.4477 23.6546 15.9057C23.8445 16.3637 24.336 17.0228 24.336 17.1792C24.336 17.3356 24.7047 17.3803 24.8275 17.2574C24.9504 17.1345 25.5983 15.9616 25.777 15.7382C25.9558 15.5148 27.8213 14.6556 28.2346 14.9232C28.6479 15.1908 27.8436 17.5366 27.4415 17.8606C27.0393 18.1846 26.6707 18.3298 26.6707 18.3298C26.9388 19.0447 27.1622 20.8432 27.1064 21.1448C27.0505 21.4464 26.7266 22.0496 26.7936 22.8204C26.8606 23.5912 28.1787 24.563 28.7373 25.1216C29.2958 25.6801 34.2333 27.7467 35.2386 28.4169C36.244 29.0872 39.7516 31.366 40.7123 35.8789C41.673 40.3919 42.6783 44.7038 46.2306 46.3794C49.7829 48.055 53.0386 47.7869 53.1279 48.2337C53.2173 48.6806 52.4638 49.1274 47.9956 49.1274C43.5273 49.1274 39.2824 45.4411 37.8302 42.3133C37.2494 43.5644 35.0599 43.5867 34.0992 41.643C33.2502 43.6091 34.0545 49.1274 34.0545 49.1274C32.0438 49.1274 21.0965 49.1274 21.0965 49.1274C21.0742 47.7199 29.3964 48.1109 30.4911 47.9768C31.5858 47.8428 31.4629 44.7038 31.4182 43.0282C31.3736 41.3526 30.8099 39.7501 29.0002 38.499C27.1906 37.2479 26.649 34.5552 26.649 34.5552C26.4479 35.3371 27.2404 37.1301 26.2797 37.2864C25.319 37.4428 24.6949 35.3785 25.0784 33.7094C25.3242 32.8842 25.0002 31.999 25.0002 31.999C24.33 30.9043 22.504 29.0872 22.303 27.5679C22.1019 26.0487 22.37 24.8199 22.6828 23.6135Z" fill="#A88D92"/>
<path opacity="0.19" d="M53.1272 48.2336C53.0378 47.7868 49.7821 48.0549 46.2298 46.3793C45.8711 46.2101 45.5447 46.0073 45.2353 45.7869C45.1919 45.7559 45.1462 45.7274 45.1037 45.6956C44.8157 45.4794 44.5505 45.2394 44.3019 44.982C44.2561 44.9347 44.2108 44.887 44.1664 44.8384C43.9257 44.575 43.7009 44.2949 43.4941 43.9956C43.4613 43.9482 43.4307 43.8984 43.3987 43.8502C43.1888 43.5334 42.9913 43.2036 42.8124 42.8534C42.807 42.8427 42.8022 42.8312 42.7968 42.8205C42.6183 42.4683 42.4562 42.0984 42.3039 41.7177C42.2851 41.6709 42.2651 41.6256 42.2468 41.5784C42.1011 41.2041 41.9674 40.8164 41.8414 40.42C41.8194 40.351 41.7973 40.282 41.7759 40.2124C41.6541 39.8167 41.5394 39.4125 41.4316 39.0003C41.4147 38.9359 41.3984 38.8705 41.3818 38.8057C41.2726 38.3788 41.1677 37.9467 41.0678 37.5077C41.0671 37.5045 41.0663 37.5015 41.0655 37.4984C37.1523 40.0786 31.8719 33.7944 32.1994 31.5893C31.6186 31.9244 26.8719 32.9433 27.6697 30.3263C28.2499 28.4233 28.2897 26.8306 27.2397 25.8476C26.1896 24.8646 25.0278 23.6208 25.1917 23.0996C25.3555 22.5783 25.1023 21.6548 24.3129 21.6251C23.6853 21.6014 22.7198 20.5424 22.4172 19.6826C22.4154 19.6924 22.4133 19.7014 22.4115 19.7112C22.3941 19.8038 22.3798 19.8966 22.3648 19.9896C22.3544 20.0545 22.3425 20.1197 22.3336 20.1835C22.3207 20.2759 22.3134 20.3615 22.3047 20.4489C22.2989 20.5081 22.2903 20.571 22.2868 20.6266C22.2812 20.716 22.284 20.7906 22.2856 20.8675C22.2865 20.9089 22.2829 20.9584 22.2862 20.9952C22.2955 21.1005 22.3145 21.1871 22.3469 21.2452C22.4625 21.4527 22.9374 22.6285 22.682 23.6134C22.3692 24.8199 22.1011 26.0486 22.3022 27.5679C22.5033 29.0871 24.3292 30.9043 24.9995 31.999C24.9995 31.999 25.3092 32.7017 25.0777 33.7093C24.6941 35.3784 25.3183 37.4427 26.279 37.2864C27.2397 37.13 26.4472 35.337 26.6482 34.5551C26.6482 34.5551 27.1898 37.2479 28.9995 38.499C30.809 39.7501 31.3728 41.3522 31.4175 43.0279C31.4258 43.3421 31.4369 43.7079 31.4423 44.0955C31.4458 44.3539 31.4469 44.6221 31.4427 44.8914C31.4366 45.2952 31.4189 45.7014 31.3812 46.0805C31.3686 46.2069 31.3538 46.3302 31.3365 46.4495C31.3018 46.688 31.2569 46.9101 31.1994 47.1071C31.0556 47.5995 30.8324 47.9348 30.4903 47.9767C29.3956 48.1108 21.0734 47.7198 21.0957 49.1273C21.0957 49.1273 32.0431 49.1273 34.0538 49.1273C34.0538 49.1273 33.2495 43.609 34.0984 41.6429C35.0591 43.5867 37.2486 43.5643 37.8295 42.3132C39.2817 45.441 43.5265 49.1273 47.9948 49.1273C48.8326 49.1273 49.5398 49.1116 50.1354 49.0831C50.5324 49.0641 50.8798 49.0396 51.1832 49.0101C51.3348 48.9954 51.4755 48.9794 51.6059 48.9624C51.8666 48.9283 52.0862 48.89 52.2701 48.848C53.0058 48.6805 53.1719 48.457 53.1272 48.2336Z" fill="#191000"/>
<path opacity="0.19" d="M50.1482 47.6219C49.0465 47.8019 47.536 47.8819 44.9995 47.1133C41.1526 45.9477 40.2619 38.9792 39.0314 40.3793C37.8009 41.7794 31.6803 38.4112 31.191 34.9219C30.8335 35.4878 28.9861 38.5596 27.9995 37.498C28.4314 38.0631 28.652 38.2579 28.9995 38.498C30.3567 39.4363 30.9995 40.498 31.2691 41.5789C31.3602 42.1105 31.4063 42.609 31.4175 43.0279C31.4258 43.3421 31.4369 43.7077 31.4423 44.0953C31.4458 44.3538 31.4469 44.622 31.4427 44.8912C31.4366 45.295 31.4189 45.7012 31.3812 46.0803C31.3686 46.2067 31.3538 46.33 31.3365 46.4493C31.3018 46.6878 31.2569 46.9099 31.1994 47.1069C31.0556 47.5993 30.8324 47.9346 30.4903 47.9766C29.3956 48.1106 21.0734 47.7196 21.0957 49.1271C21.0957 49.1271 32.0431 49.1271 34.0538 49.1271C34.0538 49.1271 33.2495 43.6088 34.0984 41.6428C35.0591 43.5865 37.2486 43.5641 37.8295 42.313C39.2817 45.4408 43.5265 49.1271 47.9948 49.1271C48.8326 49.1271 49.5398 49.1115 50.1354 49.0829C50.5324 49.064 50.8798 49.0394 51.1832 49.0099C51.3348 48.9952 51.4755 48.9792 51.6059 48.9622C51.8666 48.9282 52.0862 48.8898 52.2701 48.8478C53.0058 48.6803 53.1719 48.4569 53.1272 48.2335C53.0734 47.9646 51.8694 47.9522 50.1482 47.6219Z" fill="#191000"/>
</svg>
