<svg width="68" height="68" viewBox="0 0 68 68" fill="none" xmlns="http://www.w3.org/2000/svg">
<g clip-path="url(#clip0_2883_12587)">
<path opacity="0.4" d="M34 68C51.6731 68 66 53.6731 66 36C66 18.3269 51.6731 4 34 4C16.3269 4 2 18.3269 2 36C2 53.6731 16.3269 68 34 68Z" fill="black" fill-opacity="0.05"/>
<path d="M34 66C51.6731 66 66 51.6731 66 34C66 16.3269 51.6731 2 34 2C16.3269 2 2 16.3269 2 34C2 51.6731 16.3269 66 34 66Z" fill="black" fill-opacity="0.05"/>
<path d="M34 65C51.6731 65 66 50.6731 66 33C66 15.3269 51.6731 1 34 1C16.3269 1 2 15.3269 2 33C2 50.6731 16.3269 65 34 65Z" fill="black" fill-opacity="0.05"/>
<path d="M34 64C51.6731 64 66 49.6731 66 32C66 14.3269 51.6731 0 34 0C16.3269 0 2 14.3269 2 32C2 49.6731 16.3269 64 34 64Z" fill="white"/>
<path opacity="0.2" d="M37.385 44.5177C46.6456 44.5177 54.1528 43.8848 54.1528 43.104C54.1528 42.3233 46.6456 41.6904 37.385 41.6904C28.1244 41.6904 20.6172 42.3233 20.6172 43.104C20.6172 43.8848 28.1244 44.5177 37.385 44.5177Z" fill="black"/>
<path opacity="0.19" d="M34.0003 44.5177C45.1303 44.5177 54.1529 43.8848 54.1529 43.104C54.1529 42.3233 45.1303 41.6904 34.0003 41.6904C22.8703 41.6904 13.8477 42.3233 13.8477 43.104C13.8477 43.8848 22.8703 44.5177 34.0003 44.5177Z" fill="#020202"/>
<path d="M47.8318 32.7566C47.8318 33.7859 45.511 37.4912 45.3902 38.9175C45.2693 40.3438 45.2451 42.5606 44.9792 42.6573C44.254 42.6573 39.5762 42.6573 39.5762 42.6573C39.8784 41.4546 41.9373 41.1101 41.9373 41.1101C41.4538 39.6597 40.7728 35.6092 41.3047 34.0137C41.8365 32.4181 47.8318 30.7984 47.8318 32.7566Z" fill="#2D2E31"/>
<path d="M30.8131 33.5546C31.0669 36.0567 29.9598 41.9202 28.8357 42.6576C26.9863 42.6576 24.1035 42.6576 24.1035 42.6576C24.1035 42.6576 24.448 41.1104 26.9501 41.1104C27.4577 38.9528 26.6793 33.1195 25.4826 32.2854C24.286 31.4514 30.8131 33.5546 30.8131 33.5546Z" fill="#2D2E31"/>
<path d="M13.842 28.6044C13.842 28.3143 16.1265 27.0451 16.7248 26.4287C17.3231 25.8122 19.9589 23.7327 20.2427 23.5442C19.899 23.1463 18.6818 22.6039 20.4598 21.4608C22.1694 20.3617 22.0358 22.188 22.0861 22.4266C22.4897 22.3526 21.7471 22.4761 22.7443 22.3492C23.7415 22.2223 30.7887 20.8078 31.3927 20.8081C32.12 20.8083 33.8875 21.313 34.4206 21.3157C34.9455 21.3185 37.6479 20.1553 40.2406 19.7383C41.8611 19.4777 43.7554 19.3503 45.3879 19.6797C48.0692 20.2207 52.4144 23.7057 53.1755 25.9229C55 31.237 53.3883 36.476 54.1566 40.468C54.1096 41.1856 53.516 43.2723 53.516 43.2723H48.5481C48.5481 43.2723 49.3579 41.8218 50.9293 41.8218C50.1074 41.1691 48.6242 38.6414 48.0266 37.125C47.2998 35.2806 47.0835 33.6602 47.0835 33.6602C45.5993 34.6676 39.5758 35.4654 36.6649 34.4506C37.2394 36.8589 35.8167 42.9097 35.0189 43.2723C33.641 43.2723 28.9511 43.2723 28.9511 43.2723C28.9511 43.2723 29.9906 41.8218 31.4653 41.8218C32.2147 41.846 32.6256 35.2222 30.4499 34.5694C28.2742 33.9167 27.8753 35.0408 25.1194 33.264C22.3635 31.4872 23.0888 31.3672 21.602 31.3909C20.1153 31.4147 19.0585 30.3697 16.7394 31.0186C15.8606 31.2645 14.6216 30.1999 14.4947 29.5744C14.1502 29.1483 13.8329 28.9126 13.842 28.6044Z" fill="#53545C"/>
<path d="M53.1756 25.9228C53.0106 25.4422 52.1801 23.9972 50.9181 22.9609C49.4369 29.5061 35.9673 29.5637 32.1945 26.6043C24.1032 27.5267 18.5823 28.5644 18.5311 28.6169L16.579 27.8802C16.4294 28.0343 16.3203 26.7776 16.022 26.9878C15.8728 27.0929 15.7128 27.2018 15.5497 27.3114C15.382 27.4241 15.212 27.5368 15.0462 27.6475C15.0266 27.6606 15.0093 27.6725 14.9899 27.6855C14.8638 27.7697 14.7398 27.8529 14.6246 27.9319C14.6032 27.9466 14.5843 27.9601 14.5635 27.9745C14.4498 28.0531 14.3463 28.1272 14.2533 28.1964C14.2351 28.21 14.2148 28.2245 14.1975 28.2377C14.107 28.3068 14.0361 28.3672 13.9779 28.422C13.9746 28.4251 13.9688 28.4293 13.9656 28.4323C13.9526 28.4449 13.9426 28.456 13.9315 28.4677C13.8792 28.5229 13.842 28.5716 13.842 28.6043C13.8397 28.6813 13.8579 28.7539 13.8917 28.826C13.9398 28.9282 14.0233 29.0308 14.1212 29.143C14.231 29.269 14.3575 29.4044 14.4948 29.5742C14.5582 29.887 14.8997 30.3095 15.3351 30.6231C15.7706 30.9367 16.3001 31.1414 16.7394 31.0185C19.0585 30.3695 20.1153 31.4145 21.6021 31.3908C23.0888 31.3671 22.3635 31.4871 25.1195 33.2639C27.8754 35.0407 28.2742 33.9166 30.45 34.5693C32.6257 35.222 32.2147 41.8459 31.4653 41.8217C29.9906 41.8217 28.9511 43.2722 28.9511 43.2722C28.9511 43.2722 33.641 43.2722 35.0189 43.2722C35.8167 42.9096 37.2394 36.8588 36.6649 34.4505C39.5759 35.4653 45.5994 34.6675 47.0835 33.6601C47.0835 33.6601 47.2998 35.2805 48.0266 37.1248C48.6242 38.6413 50.1074 41.169 50.9293 41.8217C49.358 41.8217 48.5481 43.2722 48.5481 43.2722H53.516C53.516 43.2722 54.1096 41.1855 54.1566 40.4679C53.3883 36.4759 55 31.2369 53.1756 25.9228Z" fill="#484A51"/>
<path d="M25.2117 33.1067C28.6656 32.7651 33.6165 32.4429 34.5309 30.6173C35.1542 29.3728 32.1344 23.8193 31.0628 23.6599C30.2117 23.5333 26.4458 23.6174 24.85 24.7344C24.85 24.7344 25.6798 22.2344 23.4474 23.189C21.2312 24.1367 22.7436 25.0642 23.2224 25.1811C21.8607 26.4524 17.9883 26.8514 16.7943 26.3598L16.1797 26.8715L16.6931 31.0235C16.708 31.0201 16.7244 31.023 16.7391 31.0189C19.0583 30.37 20.115 31.415 21.6018 31.3913C23.0489 31.3682 22.4098 31.4859 24.9158 33.1306C25.0159 33.1217 25.1098 33.1168 25.2117 33.1067Z" fill="#484A51"/>
<path opacity="0.2" d="M14.1914 29.2239C14.2851 29.3285 14.386 29.4402 14.4944 29.5743C14.6213 30.1999 15.8604 31.2645 16.7391 31.0186C19.0582 30.3696 20.115 31.4146 21.6017 31.3909C23.0885 31.3672 22.3632 31.4872 25.1191 33.264C27.8751 35.0408 28.2739 33.9167 30.4496 34.5694C32.6254 35.2221 32.2144 41.8459 31.465 41.8218C29.9903 41.8218 28.9508 43.2723 28.9508 43.2723C28.9508 43.2723 33.6407 43.2723 35.0186 43.2723C35.8164 42.9097 37.2391 36.8589 36.6646 34.4506C39.5756 35.4654 45.5991 34.6676 47.0832 33.6602C47.0832 33.6602 47.2995 35.2806 48.0263 37.1249C48.6239 38.6414 50.1071 41.1691 50.929 41.8218C49.3577 41.8218 48.5478 43.2723 48.5478 43.2723H53.5157C53.5157 43.2723 54.1093 41.1856 54.1563 40.468C53.9446 39.3682 53.9157 38.171 53.9437 36.9064L54.1563 31.8572C52.4696 34.6009 49.2542 32.9654 47.8312 30.3271C46.7223 31.3774 44.5389 31.825 41.201 32.0894C38.8675 32.2741 32.796 31.2597 32.3944 30.8836C32.0415 30.5531 31.1799 26.9094 29.9989 26.5567C28.5744 26.1311 26.0136 27.2133 23.1904 28.0508C20.712 28.7859 15.528 30.7273 14.1914 29.2239Z" fill="black"/>
<path d="M25.1192 33.2645C27.2735 34.6535 27.9901 34.2719 29.2385 34.35C29.3461 34.3501 29.4459 34.3569 29.5359 34.3779C29.6823 34.3955 29.8359 34.4199 30.0011 34.4555C30.6953 34.5271 30.9776 34.294 31.2787 33.9917C32.1907 33.076 32.569 30.6805 30.699 31.0105C26.9697 32.61 24.4451 32.2503 23.7924 31.7318C23.1508 31.4263 22.7702 31.3809 22.6074 31.4917C23.0141 31.6665 23.348 32.1226 25.1192 33.2645Z" fill="#B1AAA0"/>
</g>
<defs>
<clipPath id="clip0_2883_12587">
<rect width="64" height="68" fill="white" transform="translate(2)"/>
</clipPath>
</defs>
</svg>
