<svg width="68" height="68" viewBox="0 0 68 68" fill="none" xmlns="http://www.w3.org/2000/svg">
<g clip-path="url(#clip0_2883_12611)">
<path opacity="0.4" d="M34 68C51.6731 68 66 53.6731 66 36C66 18.3269 51.6731 4 34 4C16.3269 4 2 18.3269 2 36C2 53.6731 16.3269 68 34 68Z" fill="black" fill-opacity="0.05"/>
<path d="M34 66C51.6731 66 66 51.6731 66 34C66 16.3269 51.6731 2 34 2C16.3269 2 2 16.3269 2 34C2 51.6731 16.3269 66 34 66Z" fill="black" fill-opacity="0.05"/>
<path d="M34 65C51.6731 65 66 50.6731 66 33C66 15.3269 51.6731 1 34 1C16.3269 1 2 15.3269 2 33C2 50.6731 16.3269 65 34 65Z" fill="black" fill-opacity="0.05"/>
<path d="M34 64C51.6731 64 66 49.6731 66 32C66 14.3269 51.6731 0 34 0C16.3269 0 2 14.3269 2 32C2 49.6731 16.3269 64 34 64Z" fill="white"/>
<path opacity="0.2" d="M37 46.8907C46.9411 46.8907 55 46.2578 55 45.4771C55 44.6964 46.9411 44.0635 37 44.0635C27.0589 44.0635 19 44.6964 19 45.4771C19 46.2578 27.0589 46.8907 37 46.8907Z" fill="black"/>
<path opacity="0.19" d="M34 46.8907C45.598 46.8907 55 46.2578 55 45.4771C55 44.6964 45.598 44.0635 34 44.0635C22.402 44.0635 13 44.6964 13 45.4771C13 46.2578 22.402 46.8907 34 46.8907Z" fill="#020202"/>
<path d="M27.5947 28.049C27.5947 28.049 28.1833 29.795 28.6539 31.5628C29.3214 34.0709 27.2639 36.6412 27.2542 38.3408C27.2406 40.7047 25.8873 45.2939 25.4551 45.5059C27.0565 45.5059 29.4574 45.5059 29.4574 45.5059C29.4574 45.5059 29.0769 43.533 29.4244 42.0429C29.7219 40.767 30.653 39.5929 31.468 38.4698C32.1796 37.4894 32.755 35.9869 33.125 34.9897C34.267 36.263 27.0429 27.0399 27.5947 28.049Z" fill="#535760"/>
<path d="M50.8269 32.1377C50.5592 33.6323 50.562 37.3239 51.2069 39.1175C51.8518 40.9112 53.1013 42.9064 53.1013 42.9064C53.1013 42.9064 52.6418 44.4375 53.1695 45.5061C50.2271 45.5061 49.0733 45.5061 49.0733 45.5061C49.3997 44.3367 49.3356 42.2473 48.9456 41.1663C48.482 39.8815 46.8779 38.1981 45.9922 37.2835C45.9944 35.9583 50.8269 32.1377 50.8269 32.1377Z" fill="#535760"/>
<path d="M16.168 44.2773C16.4023 43.9411 20.0903 42.3618 21.5011 36.1344C22.6524 31.0519 22.0487 29.5639 22.8044 29.1105C23.5602 28.657 23.597 29.1714 23.9396 29.1008C24.2822 29.0303 24.6047 28.0931 24.6047 28.0931C25.1287 28.3753 26.8216 28.0931 27.5269 29.0807C29.7035 33.1113 48.9702 38.7946 51.7414 29.988C51.4944 27.8513 51.0107 27.0351 50.1794 25.6898C49.3481 24.3446 48.7888 23.2261 46.5518 21.7448C44.7086 20.5244 40.536 20.6112 39.2965 20.4449C38.0571 20.2786 32.8893 17.976 31.3762 17.6033C29.8647 17.231 24.7861 17.3318 22.7506 18.4598C22.2032 18.7631 21.1131 20.0822 20.4178 22.2436C19.7225 24.4051 18.6088 28.0574 18.604 29.6651C18.599 31.3378 18.4967 35.4405 18.4579 36.9607C18.4075 38.9357 17.8533 40.7193 17.0975 41.8076C16.7075 42.3691 15.1628 43.3795 14.5078 43.7826C15.2787 44.4371 15.9337 44.6135 16.168 44.2773Z" fill="#8F99A8"/>
<path d="M50.9452 31.5189C50.9654 32.587 51.9473 36.9577 52.7535 37.4212C52.7549 38.4693 53.6591 38.7658 54.6379 38.4693C54.4464 37.3083 53.8294 36.9785 53.3233 36.8739C52.2336 35.1913 51.7414 32.3402 51.7312 29.7872C51.6695 29.2494 51.5044 28.1506 51.1231 27.379C51.223 29.9147 46.1911 32.2339 42.7443 29.6381C40.9909 30.6811 34.9434 31.4332 34.1557 26.2151C33.0674 24.1595 29.166 26.5565 25.0079 26.4324C23.9185 26.4 24.0406 27.7626 22.65 27.9439C21.2594 28.1253 21.7913 30.6523 21.3076 34.4008C20.8696 37.795 18.7861 43.6311 14.5078 43.7822C14.7263 44.1175 15.4853 45.0217 15.7271 45.2333C16.0294 44.8572 16.0651 44.5608 16.3745 44.2922C17.1479 43.621 20.0903 42.3614 21.5011 36.134C22.6524 31.0515 22.0486 29.5636 22.8044 29.1101C23.5602 28.6567 23.597 29.171 23.9396 29.1005C24.2822 29.0299 24.6047 28.0928 24.6047 28.0928C25.1287 28.3749 26.8216 28.0928 27.5269 29.0803C27.5269 29.0803 28.3647 31.0935 29.2904 32.8087C30.3182 34.7132 30.1519 36.9081 30.4127 38.7338C30.7755 41.2731 30.3976 45.7321 30.0046 46.0344C31.3498 46.0344 34.0403 46.0344 34.0403 46.0344C34.0403 46.0344 33.088 42.7813 33.1939 41.122C33.2846 39.7012 33.8736 39.8156 34.4996 38.4693C35.046 37.294 35.2457 36.3759 35.4523 35.2416C36.7824 36.4105 40.4654 36.6177 43.4481 36.5371C43.8512 37.6254 44.7274 40.1178 44.4251 42.2339C44.1228 44.35 43.3272 46.0344 43.3272 46.0344C44.4961 46.0293 47.0959 46.0344 48.4462 46.0344C48.2233 45.3636 47.9327 44.6362 48.2148 43.6693C47.8013 41.8777 47.9451 39.7623 48.2447 38.7137C48.4561 37.9737 50.3886 34.883 50.9452 31.5189Z" fill="#727984"/>
<path d="M50.6284 26.4322L49.3155 24.3259C48.7446 23.511 48.0006 22.7039 46.5522 21.7448C44.7091 20.5244 40.5364 20.6112 39.297 20.4449C38.0575 20.2787 32.8898 17.976 31.3767 17.6033C29.8651 17.2309 24.7865 17.3318 22.751 18.4598C22.2036 18.7631 21.1135 20.0822 20.4182 22.2436C20.3414 22.4825 20.2588 22.742 20.1738 23.0126C20.4194 22.2423 24.2838 19.6936 26.8018 20.0519C29.3204 20.4103 37.8468 22.18 40.7178 21.7448C44.5066 21.1704 49.1663 24.06 50.6284 26.4322Z" fill="#A9B2C0"/>
<path d="M27.2949 17.8151C28.6654 17.6135 31.0551 16.6207 33.4332 17.4093C35.8113 18.198 38.5113 21.8408 38.3289 22.7123C37.7848 25.3121 31.8899 28.3717 29.139 28.9173C29.0987 26.6601 29.0684 19.3064 27.2949 17.8151Z" fill="#A9B2C0"/>
<path d="M23.4736 28.8073C24.367 29.0278 23.9829 29.9462 23.3222 30.7736C21.5117 33.0407 17.0385 35.8301 16.4735 35.35C16.4157 35.2955 16.562 35.1424 16.8111 34.9674C17.565 34.4375 18.8943 33.5271 19.9155 32.4063C21.7784 30.3617 22.0143 28.4578 23.4736 28.8073Z" fill="#DEE3EB"/>
</g>
<defs>
<clipPath id="clip0_2883_12611">
<rect width="64" height="68" fill="white" transform="translate(2)"/>
</clipPath>
</defs>
</svg>
