<svg width="68" height="68" viewBox="0 0 68 68" fill="none" xmlns="http://www.w3.org/2000/svg">
<g clip-path="url(#clip0_2883_12628)">
<path opacity="0.4" d="M34 68C51.6731 68 66 53.6731 66 36C66 18.3269 51.6731 4 34 4C16.3269 4 2 18.3269 2 36C2 53.6731 16.3269 68 34 68Z" fill="black" fill-opacity="0.05"/>
<path d="M34 66C51.6731 66 66 51.6731 66 34C66 16.3269 51.6731 2 34 2C16.3269 2 2 16.3269 2 34C2 51.6731 16.3269 66 34 66Z" fill="black" fill-opacity="0.05"/>
<path d="M34 65C51.6731 65 66 50.6731 66 33C66 15.3269 51.6731 1 34 1C16.3269 1 2 15.3269 2 33C2 50.6731 16.3269 65 34 65Z" fill="black" fill-opacity="0.05"/>
<path d="M34 64C51.6731 64 66 49.6731 66 32C66 14.3269 51.6731 0 34 0C16.3269 0 2 14.3269 2 32C2 49.6731 16.3269 64 34 64Z" fill="white"/>
<path opacity="0.19" d="M34 46C45.598 46 55 45.3284 55 44.5C55 43.6716 45.598 43 34 43C22.402 43 13 43.6716 13 44.5C13 45.3284 22.402 46 34 46Z" fill="#020202"/>
<path opacity="0.2" d="M36.5 46C46.7173 46 55 45.3284 55 44.5C55 43.6716 46.7173 43 36.5 43C26.2827 43 18 43.6716 18 44.5C18 45.3284 26.2827 46 36.5 46Z" fill="black"/>
<path d="M51.0056 34.9512C51.2856 37.4712 52.2832 41.0938 53.5257 42.3713C52.5982 43.8239 52.3707 44.4364 52.5457 45.0314C49.8156 45.0314 49.7806 45.0314 49.7806 45.0314C50.2628 44.0864 51.1291 44.0365 50.9531 42.4588C50.7947 41.0379 50.0081 39.5538 49.3956 39.2563C49.1266 39.1256 46.7881 37.6987 47.0156 36.4212C47.2386 35.1688 51.0056 34.9512 51.0056 34.9512Z" fill="#AB7B46"/>
<path d="M49.4793 37.6925C48.3243 38.2875 44.7542 41.5425 44.7892 44.4126C42.6542 44.4126 40.8691 44.4126 40.8691 44.4126C40.8691 43.7126 42.3742 43.3276 43.2142 42.3476C44.0542 41.3675 44.3692 38.4975 44.4042 37.5175C44.4392 36.5374 49.4793 37.6925 49.4793 37.6925Z" fill="#8E6339"/>
<path d="M33.1572 37.0869C33.1572 37.0869 31.5822 40.377 32.4572 42.372C32.0372 43.2471 31.6172 44.2971 31.7922 45.0321C30.8472 45.0321 28.5371 45.0321 28.5371 45.0321C28.5371 43.7021 29.8671 43.7721 30.2171 42.8971C30.5672 42.022 29.2721 38.557 29.0971 37.0869C28.9221 35.6169 33.1572 37.0869 33.1572 37.0869Z" fill="#AB7B46"/>
<path d="M27.3056 37.944C27.3056 37.944 25.7306 40.6225 26.6056 42.2467C26.1856 42.959 25.7656 43.8139 25.9406 44.4123C24.9956 44.4123 22.6855 44.4123 22.6855 44.4123C22.6855 43.3295 24.0156 43.3865 24.3656 42.6741C24.7156 41.9617 23.4206 39.1408 23.2456 37.944C23.0706 36.7472 27.3056 37.944 27.3056 37.944Z" fill="#8E6339"/>
<path d="M16.9228 34.6044C15.6892 28.3043 16.0052 24.1685 20.1453 21.5477C24.001 19.107 28.9321 18.4792 31.9031 19.4111C35.4864 20.5351 34.8653 22.0362 41.3294 20.8768C44.7752 20.2588 48.9134 19.5541 51.6435 24.3142C54.3735 29.0743 57.1497 39.0544 52.4636 40.1407C49.7755 40.7639 48.1895 39.3105 46.1909 39.9915C40.198 42.0335 33.4425 39.7077 29.0897 39.9915C26.6459 40.1509 26.3491 41.3669 21.869 41.3639C17.4483 41.3609 17.3138 36.6016 16.9228 34.6044Z" fill="#6B5147"/>
<path opacity="0.19" d="M52.4647 40.1393C55.8689 39.3502 55.3294 33.8711 53.736 29.1057C50.8818 31.9205 45.9231 31.1518 43.5944 27.1565C41.7177 28.35 40.5138 29.3417 36.5943 29.5832C33.257 29.7889 33.5603 25.9622 29.9436 25.8222C26.1627 25.6758 26.7808 29.7773 21.544 29.6299L16.3301 30.3375C16.4121 31.6352 16.6204 33.0529 16.9239 34.603C17.3149 36.6001 17.4494 41.3595 21.8701 41.3625C26.3502 41.3655 26.6469 40.1494 29.0908 39.9901C33.4436 39.7063 40.1991 42.032 46.192 39.9901C48.1906 39.3091 49.7766 40.7625 52.4647 40.1393Z" fill="black"/>
<path opacity="0.19" d="M54.4286 31.5157C54.9405 36.2369 48.0773 37.4121 44.7139 33.5683C41.5633 37.0871 35.7999 35.7994 33.2798 34.1194C30.7597 32.4393 28.3802 37.6588 26.2335 34.952C25.7825 34.3833 24.0096 31.1393 23.19 30.9693C21.1108 30.538 19.2487 34.1342 17.0215 35.18C17.3694 37.3883 17.8275 41.3618 21.8696 41.3645C26.3496 41.3675 26.6464 40.1515 29.0903 39.9921C33.4431 39.7084 40.1986 42.0341 46.1914 39.9921C48.1901 39.3111 49.7761 40.7645 52.4642 40.1414C54.6918 39.6249 55.7327 36.8319 54.4286 31.5157Z" fill="black"/>
<path d="M14.084 27.8847C15.4178 27.0069 16.5443 27.2682 19.0675 27.2227C21.2972 26.7467 23.0054 25.9877 24.3494 26.3975C24.8003 27.503 22.7072 28.2888 22.7878 28.7749C22.8685 29.2611 24.3439 33.1967 23.626 34.6775C22.9081 36.1584 22.4339 36.3478 22.8062 37.4894C22.3964 38.6037 22.1091 38.7764 20.7836 38.9764C19.5851 39.1572 19.0423 39.0616 18.3232 38.2341C18.3181 37.2448 17.6319 36.6115 16.8297 35.6409C15.5137 34.0488 15.8621 30.6485 15.9342 29.7171C16.0083 28.7604 14.149 28.73 14.084 27.8847Z" fill="#564038"/>
<path opacity="0.19" d="M14.084 27.8847C15.4178 27.0069 16.5443 27.2682 19.0675 27.2227C21.2972 26.7467 23.0054 25.9877 24.3494 26.3975C24.8003 27.503 22.7072 28.2888 22.7878 28.7749C22.8685 29.2611 24.3439 33.1967 23.626 34.6775C22.9081 36.1584 22.4339 36.3478 22.8062 37.4894C22.3324 38.3353 22.0916 38.7041 20.7661 38.9041C19.5676 39.0849 18.9461 38.9495 18.3232 38.2341C18.3181 37.2448 17.6319 36.6115 16.8297 35.6409C15.5137 34.0488 15.8621 30.6485 15.9342 29.7171C16.0083 28.7604 14.149 28.73 14.084 27.8847Z" fill="#57423A"/>
<path d="M18.3644 37.3016C19.1661 36.7109 20.193 37.7767 20.5046 37.7426C20.8851 37.701 21.664 36.4377 22.1873 36.6099C23.4132 37.0132 22.8997 39.174 21.0155 39.6472C19.3757 40.059 17.5058 38.2515 18.3644 37.3016Z" fill="#AB7B46"/>
<path d="M19.4276 27.1846C19.8853 27.0702 19.4276 26.8413 20.343 26.7269C21.8307 26.6124 23.6616 28.1001 24.1192 29.7021C24.577 31.5329 25.1389 31.2939 25.9353 31.2024C26.7318 31.1108 26.488 30.4208 27.0601 30.0775C27.289 29.9631 27.7811 32.5463 26.0646 32.8895C24.6477 33.1729 23.4327 33.135 22.9749 31.3042C22.4028 29.4732 20.9152 29.1299 20.4575 29.2444C19.9998 29.3587 20.1142 29.4732 19.7709 29.5876C19.4276 29.7021 19.542 29.3587 19.1987 29.4732C18.8555 29.5876 16.6813 29.7021 16.9101 32.334C17.084 34.3334 15.5369 34.5768 14.6872 34.5768C13.5624 34.5768 13 33.8147 13 32.3272C13.3433 31.8694 13.9772 33.0492 14.5071 33.0492C15.638 33.0492 15.5369 31.6474 15.5369 31.1897C15.5369 30.7319 15.5369 27.8712 18.0544 27.0702C19.4276 26.7269 18.8555 27.1846 19.4276 27.1846Z" fill="#AB7B46"/>
</g>
<defs>
<clipPath id="clip0_2883_12628">
<rect width="64" height="68" fill="white" transform="translate(2)"/>
</clipPath>
</defs>
</svg>
