<svg width="68" height="68" viewBox="0 0 68 68" fill="none" xmlns="http://www.w3.org/2000/svg">
<g clip-path="url(#clip0_2883_12613)">
<path opacity="0.4" d="M34 68C51.6731 68 66 53.6731 66 36C66 18.3269 51.6731 4 34 4C16.3269 4 2 18.3269 2 36C2 53.6731 16.3269 68 34 68Z" fill="black" fill-opacity="0.05"/>
<path d="M34 66C51.6731 66 66 51.6731 66 34C66 16.3269 51.6731 2 34 2C16.3269 2 2 16.3269 2 34C2 51.6731 16.3269 66 34 66Z" fill="black" fill-opacity="0.05"/>
<path d="M34 65C51.6731 65 66 50.6731 66 33C66 15.3269 51.6731 1 34 1C16.3269 1 2 15.3269 2 33C2 50.6731 16.3269 65 34 65Z" fill="black" fill-opacity="0.05"/>
<path d="M34 64C51.6731 64 66 49.6731 66 32C66 14.3269 51.6731 0 34 0C16.3269 0 2 14.3269 2 32C2 49.6731 16.3269 64 34 64Z" fill="white"/>
<path opacity="0.19" d="M34 53C45.598 53 55 52.3284 55 51.5C55 50.6716 45.598 50 34 50C22.402 50 13 50.6716 13 51.5C13 52.3284 22.402 53 34 53Z" fill="#020202"/>
<path opacity="0.2" d="M38.2335 53C46.6467 53 53.467 52.3284 53.467 51.5C53.467 50.6716 46.6467 50 38.2335 50C29.8203 50 23 50.6716 23 51.5C23 52.3284 29.8203 53 38.2335 53Z" fill="black"/>
<path d="M50.8008 28.2393C51.584 28.4155 53.8639 30.6231 53.8802 32.3055C53.8966 33.9878 51.0364 33.5528 51.0996 32.0318C51.1628 30.5109 50.8008 28.2393 50.8008 28.2393Z" fill="#573D2C"/>
<path d="M50.4349 43.469C50.0146 44.1493 48.568 48.2369 48.7977 49.0985C47.8786 49.7591 47.6548 51.2018 47.6548 51.2018C46.0463 51.2018 44.6969 51.2018 44.6969 51.2018C44.6681 49.8424 46.4426 49.6442 47.4478 47.4901C48.4531 45.336 48.4531 43.2393 47.3617 42.0904C46.2702 40.9415 45.2362 37.897 44.4608 37.5811C43.6853 37.2651 48.4244 36.4609 48.4244 36.4609L50.4349 43.469Z" fill="#493326"/>
<path d="M31.3332 38.8271C31.5343 40.8663 32.6544 44.8874 32.5395 46.6968C32.4247 48.5063 31.0918 49.5087 31.0918 51.2032C31.0918 51.2032 31.3694 51.2032 33.4374 51.2032C33.4374 51.2032 33.899 49.4733 34.5596 49.0999C34.5596 49.0999 33.9565 47.7787 34.0618 45.6629C34.1957 42.9729 35.1819 40.6653 34.8373 38.4824L31.3332 38.8271Z" fill="#493326"/>
<path d="M18.2091 23.5946C19.1282 23.1638 21.3111 23.1638 21.7419 23.451C22.661 22.9053 22.7041 22.5319 22.9482 23.0058C23.1923 23.4798 22.9626 24.0255 22.8477 24.1547C23.3934 24.6717 26.5097 26.8689 27.874 27.1131C29.2383 27.3572 30.4905 26.3706 32.7308 26.7153C34.9711 27.0599 39.5095 27.4052 41.7936 26.0951C42.6919 25.5798 47.5053 25.0882 50.1477 27.4721C52.7901 29.856 52.5316 32.9867 50.7796 35.9163C49.0276 38.8459 52.5316 42.7808 52.5316 42.7808C52.0721 45.0785 52.0433 48.3815 52.5316 49.9899C51.3253 50.9952 51.3253 52.0005 51.3253 52.0005C50.0903 52.0005 48.7978 52.0005 48.7978 52.0005C48.7978 50.5356 50.5219 50.5805 50.6073 48.2379C50.8083 42.7233 48.2521 42.4936 46.0979 37.8981C43.3407 39.9373 37.625 39.3342 36.9644 39.2193C36.3038 39.1044 34.2646 39.3054 33.4316 39.7363C33.7763 41.9191 32.3115 44.2456 32.6562 46.9167C33.0008 49.5878 33.1732 49.9899 33.1732 49.9899C32.5126 50.3633 32.2541 52.0005 32.2541 52.0005C30.1861 52.0005 29.2383 52.0005 29.2383 52.0005C29.2383 50.3059 31.019 49.7602 31.1339 47.9507C31.2488 46.1412 30.1286 42.1202 29.9276 40.0809C28.3479 40.2533 22.4312 31.9814 21.4834 29.8273C21.0813 29.0805 19.7505 29.6071 19.1761 30.1241C19.9803 31.1963 21.2441 30.9091 21.0909 32.058C20.9377 33.2069 20.4973 33.609 21.1292 34.1834C18.9655 34.4706 20.0569 32.6133 19.8271 31.8474C19.5973 31.0814 17.9889 32.1154 17.3187 30.6793C16.2273 31.9622 14.8104 30.3538 15.021 29.339C15.2316 28.3242 16.9932 26.0264 17.3187 25.6626C17.6443 25.2988 17.1754 23.8627 18.2091 23.5946Z" fill="#966847"/>
<path opacity="0.19" d="M17.3187 30.6788C17.9889 32.1149 19.5973 31.0809 19.8271 31.8468C20.0569 32.6128 18.9654 34.4701 21.1292 34.1828C20.4973 33.6085 20.9377 33.2064 21.0908 32.0575C21.244 30.9086 19.9803 31.1958 19.1761 30.1235C19.7505 29.6065 21.0813 29.08 21.4834 29.8267C22.4312 31.9809 28.3479 40.2527 29.9276 40.0804C30.1286 42.1197 31.2488 46.1407 31.1339 47.9502C31.019 49.7596 29.2382 50.3053 29.2382 52C29.2382 52 30.1861 52 32.254 52C32.254 52 32.5125 50.3628 33.1732 49.9894C33.1732 49.9894 33.0008 49.5873 32.6562 46.9162C32.3115 44.2451 33.7763 41.9186 33.4316 39.7358C34.2646 39.3049 36.3038 39.1039 36.9644 39.2188C37.625 39.3337 43.3406 39.9368 46.0979 37.8976C48.252 42.493 50.8083 42.7228 50.6072 48.2374C50.5218 50.5799 48.7978 50.5351 48.7978 52C48.7978 52 50.0902 52 51.3253 52C51.3253 52 51.3253 50.9947 52.5316 49.9894C52.0433 48.381 52.0721 45.078 52.5316 42.7802C52.5316 42.7802 49.0275 38.8454 50.7796 35.9157C51.6369 34.4823 52.133 33.001 52.1102 31.5823C48.8081 35.2299 46.4688 33.3936 44.7515 31.247C35.8778 36.4615 34.7328 29.3864 30.5345 31.1039C28.3508 31.9972 26.2415 32.9645 24.0463 29.5773C22.9378 27.8669 21.5774 25.4883 20.7067 26.2377C18.3809 28.2393 17.5868 27.5377 17.3187 25.6621C16.9932 26.0259 15.2316 28.3236 15.021 29.3385C14.8104 30.3533 16.2273 31.9617 17.3187 30.6788Z" fill="black"/>
<path opacity="0.19" d="M50.7802 35.9156C49.175 37.3403 46.2787 36.5902 45.086 35.1113C43.7025 36.8288 37.6 38.0607 34.471 36.7333C31.342 35.4059 31.537 36.8978 29.3424 36.4614C27.1478 36.0249 22.8924 30.8912 21.9372 28.7731C20.7108 26.0535 19.3644 29.3797 18.1311 28.8138C16.8787 28.2392 17.8726 30.4001 15.0566 29.9308C15.5986 31.4529 16.8379 31.3654 17.3193 30.6787C17.9895 32.1148 19.5979 31.0808 19.8277 31.8467C20.0575 32.6127 18.966 34.47 21.1297 34.1828C20.4979 33.6084 20.9383 33.2063 21.0914 32.0574C21.2446 30.9085 19.9809 31.1957 19.1767 30.1234C19.7511 29.6065 21.0818 29.0799 21.484 29.8267C22.4318 31.9808 28.3485 40.2527 29.9282 40.0804C30.1292 42.1196 31.2494 46.1406 31.1345 47.9501C31.0196 49.7595 29.2388 50.3052 29.2388 51.9999C29.2388 51.9999 30.1867 51.9999 32.2546 51.9999C32.2546 51.9999 32.5131 50.3627 33.1737 49.9893C33.1737 49.9893 33.0014 49.5872 32.6568 46.9161C32.3121 44.245 33.7769 41.9185 33.4322 39.7357C34.2652 39.3048 36.3044 39.1038 36.965 39.2187C37.6256 39.3336 43.3412 39.9367 46.0985 37.8975C48.2526 42.4929 50.8089 42.7227 50.6078 48.2373C50.5224 50.5798 48.7983 50.535 48.7983 51.9999C48.7983 51.9999 50.0908 51.9999 51.3259 51.9999C51.3259 51.9999 51.3259 50.9946 52.5322 49.9893C52.0439 48.3809 52.0727 45.0779 52.5322 42.7801C52.5322 42.7801 49.0281 38.8453 50.7802 35.9156Z" fill="black"/>
<path d="M18.732 23.6829C18.9809 24.0276 20.1681 23.8935 20.4744 23.6829C20.7808 23.4723 20.9148 20.2746 24.2274 17.996C27.54 15.7174 31.3312 15.2196 32.6524 15.9663C33.2843 16.3876 33.4567 17.1726 33.7247 17.0769C33.9928 16.9812 33.5907 16.0812 33.3035 15.7557C33.0163 15.4302 32.2886 14.7026 31.5993 14.7983C30.91 14.8941 30.6419 14.3962 29.9909 14.5685C29.3399 14.7409 28.8995 14.1124 28.325 14.532C27.7506 14.9515 27.1187 14.2813 26.5251 14.7217C25.9316 15.1621 25.4337 14.6834 24.955 15.2579C24.4763 15.8323 23.7678 15.2579 23.3083 15.9089C22.8488 16.5599 22.2169 16.2727 21.7573 17.1726C21.2978 18.0726 18.1958 22.783 18.732 23.6829Z" fill="#573D2C"/>
<path d="M17.8943 24.0089C18.2949 24.2346 19.8331 23.9801 20.0197 23.7934C20.2064 23.6068 20.2495 18.7576 23.6004 15.9428C26.9513 13.1281 31.1595 12.5991 32.1703 14.3523C32.3674 14.6942 32.5757 14.7565 32.6935 14.6567C32.8686 14.5086 32.5504 13.5117 31.7382 13.0132C30.7279 12.3931 29.9192 11.8643 29.3256 12.0941C28.732 12.3239 28.1959 12.4579 27.8129 12.1707C27.43 11.8835 26.8364 11.9792 26.4726 12.3047C26.1088 12.6303 25.5152 12.2665 24.711 12.8409C23.9068 13.4153 23.3706 13.0898 22.8919 13.7791C22.4132 14.4685 21.6856 14.2195 21.4175 14.9854C21.1495 15.7514 20.6133 15.3684 20.4027 15.9045C20.1921 16.4407 19.8666 16.2109 19.7325 17.0151C19.5985 17.8193 18.9858 17.513 18.89 18.3555C18.7943 19.198 18.4113 18.7767 18.4305 19.4852C18.4496 20.1937 18.1433 20.0213 18.1241 20.6341C18.105 21.2468 17.722 21.4766 17.8943 22.0701C18.0667 22.6637 17.5497 22.6254 17.588 23.0275C17.6263 23.4296 17.699 23.8988 17.8943 24.0089Z" fill="#966847"/>
</g>
<defs>
<clipPath id="clip0_2883_12613">
<rect width="64" height="68" fill="white" transform="translate(2)"/>
</clipPath>
</defs>
</svg>
