<svg width="68" height="68" viewBox="0 0 68 68" fill="none" xmlns="http://www.w3.org/2000/svg">
<path opacity="0.4" d="M34 68C51.6731 68 66 53.6731 66 36C66 18.3269 51.6731 4 34 4C16.3269 4 2 18.3269 2 36C2 53.6731 16.3269 68 34 68Z" fill="black" fill-opacity="0.05"/>
<path d="M34 66C51.6731 66 66 51.6731 66 34C66 16.3269 51.6731 2 34 2C16.3269 2 2 16.3269 2 34C2 51.6731 16.3269 66 34 66Z" fill="black" fill-opacity="0.05"/>
<path d="M34 65C51.6731 65 66 50.6731 66 33C66 15.3269 51.6731 1 34 1C16.3269 1 2 15.3269 2 33C2 50.6731 16.3269 65 34 65Z" fill="black" fill-opacity="0.05"/>
<path d="M34 64C51.6731 64 66 49.6731 66 32C66 14.3269 51.6731 0 34 0C16.3269 0 2 14.3269 2 32C2 49.6731 16.3269 64 34 64Z" fill="white"/>
<path opacity="0.2" d="M34 43.0781C45.598 43.0781 55 42.4066 55 41.5781C55 40.7497 45.598 40.0781 34 40.0781C22.402 40.0781 13 40.7497 13 41.5781C13 42.4066 22.402 43.0781 34 43.0781Z" fill="black"/>
<path opacity="0.2" d="M35.4043 43.0781C46.2268 43.0781 55.0001 42.4066 55.0001 41.5781C55.0001 40.7497 46.2268 40.0781 35.4043 40.0781C24.5819 40.0781 15.8086 40.7497 15.8086 41.5781C15.8086 42.4066 24.5819 43.0781 35.4043 43.0781Z" fill="black"/>
<path d="M33.793 37.2354C33.7584 38.8205 35.024 40.0913 34.0469 40.193C33.4948 40.2505 30.457 40.4853 30.457 41.9187C32.9423 41.9187 36.6065 41.9187 36.6065 41.9187C36.6065 41.9187 40.9717 39.123 41.0354 39.1875C41.0992 39.252 34.9178 37.1875 34.9178 37.1875L33.793 37.2354Z" fill="#332B25"/>
<path d="M19.3203 32.4883C20.0411 35.5689 22.3777 37.7739 22.2809 39.9678C22.253 40.5997 19.3203 40.2482 19.3203 41.9191C19.6303 41.9191 24.4198 41.9191 24.4198 41.9191L26.8122 37.6568L21.2269 33.1086L19.3203 32.4883Z" fill="#332B25"/>
<path d="M19.7939 33.7424C21.5854 36.795 22.4079 36.4716 22.7637 37.7932C23.1196 39.1149 23.2003 40.4451 22.8381 40.6357C22.4759 40.8263 20.4437 41.0643 20.4437 42.4085C20.4437 42.4085 23.9527 42.4085 24.2877 42.4085C25.3211 41.8912 25.4012 41.4058 25.9271 40.8263C26.921 39.7311 27.633 36.4551 30.7552 36.7525C32.4533 36.9142 35.3964 37.881 35.4757 38.6481C35.6093 39.9393 36.5834 40.6206 36.2845 40.7402C35.8079 40.9308 31.6473 41.0345 31.6473 42.4872C32.2827 42.4872 39.8695 42.4872 39.8695 42.4872C41.0006 42.4872 41.2755 39.8585 41.7202 40.5066C42.165 41.1547 42.2495 42.4872 49.1119 42.4872C55.9744 42.4872 53.949 40.8535 52.834 40.7402C51.9858 40.654 49.8363 40.7119 47.5869 38.3101C45.3376 35.9082 45.7569 31.0663 43.2407 28.1688C40.7245 25.2713 37.0084 24.7352 35.1784 25.1927C33.3484 25.6502 26.5477 28.1316 24.7177 26.8163C22.8877 25.501 23.0607 22.499 20.8929 21.8227C19.1516 21.2794 15.6959 21.4121 15.4098 22.545C15.2146 23.3182 13.9974 22.9799 14 23.7179C14.0036 24.7331 14.9994 26.1318 16.7214 26.4547C18.4434 26.7776 18.9313 32.2727 19.7939 33.7424Z" fill="#5E5045"/>
<path opacity="0.19" d="M52.8341 40.7397C51.986 40.6536 49.8364 40.7115 47.587 38.3096C47.3443 38.0505 47.1376 37.7582 46.95 37.4477C46.932 37.4179 46.9116 37.3902 46.894 37.36C46.7192 37.0593 46.5673 36.7359 46.4289 36.399C46.4092 36.351 46.3883 36.3038 46.3692 36.2551C46.2368 35.9183 46.1175 35.5672 46.007 35.2059C45.9903 35.1516 45.9736 35.097 45.9574 35.0424C45.8457 34.6665 45.74 34.2823 45.637 33.8918C45.6369 33.8918 45.637 33.8918 45.637 33.8918C44.0687 36.7657 37.7872 34.5035 37.5207 31.7359C30.334 34.0387 29.4915 34.3851 28.5065 32C27.5155 29.6003 22.9683 32.7748 20.8189 23.533C21.5262 23.41 21.5262 22.8565 21.211 22.5336C20.9103 22.2256 19.9825 22.0232 19.7554 22.6413C20.0835 23.2357 18.8124 23.5432 17.9515 23.7091L16.5156 26.3974C16.5855 26.4147 16.649 26.4406 16.7215 26.4542C17.152 26.5349 17.5053 26.939 17.8067 27.5225C17.9574 27.8143 18.0951 28.1509 18.2229 28.5145C18.3507 28.8781 18.4687 29.2686 18.58 29.668C18.6725 30.0003 18.7598 30.3379 18.8448 30.6723C18.9261 30.9919 19.0048 31.3033 19.0825 31.6063C19.0993 31.6717 19.116 31.7353 19.1326 31.7994C19.2084 32.0904 19.2836 32.3665 19.3595 32.6208C19.3707 32.6585 19.3823 32.6924 19.3936 32.7291C19.4729 32.9867 19.5529 33.2252 19.6362 33.4214C19.6876 33.5425 19.7401 33.6501 19.794 33.742C21.5854 36.7945 22.408 36.4711 22.7638 37.7928C23.1197 39.1144 23.2003 40.4446 22.8382 40.6352C22.476 40.8259 20.4438 41.0639 20.4438 42.408C20.4438 42.408 23.9528 42.408 24.2878 42.408C25.3212 41.8907 25.4013 41.4053 25.9271 40.8259C26.9211 39.7307 27.633 36.4547 30.7553 36.752C32.4534 36.9137 35.3965 37.8805 35.4759 38.6476C35.6094 39.9388 36.5835 40.6202 36.2846 40.7397C35.808 40.9304 31.6474 41.0341 31.6474 42.4867C32.2828 42.4867 39.8697 42.4867 39.8697 42.4867C41.0007 42.4867 41.2756 39.858 41.7204 40.5061C42.1651 41.1543 42.2496 42.4867 49.112 42.4867C55.9745 42.4867 53.9491 40.853 52.8341 40.7397Z" fill="#191000"/>
<path opacity="0.19" d="M52.8336 40.7397C51.9855 40.6536 49.8359 40.7115 47.5865 38.3097C47.4391 38.1522 47.3044 37.9832 47.1783 37.806C47.1505 37.7668 47.1269 37.7237 47.1001 37.6836C47.003 37.5391 46.909 37.3915 46.8232 37.2362C46.8045 37.2022 46.788 37.1658 46.7698 37.1314C46.6799 36.9618 46.5942 36.788 46.5151 36.6078C46.5063 36.5877 46.4982 36.5667 46.4896 36.5463C46.4033 36.3458 46.3219 36.1399 46.2459 35.9286C46.2459 35.9283 46.246 35.9289 46.2459 35.9286C46.245 35.9292 46.2435 35.9281 46.2425 35.9287C43.9624 40.1593 34.9921 37.4954 35.0665 33.9457C35.0665 33.9457 28.5742 37.1874 27.8801 34.5703C27.1839 31.9453 22.3049 35.8228 19.96 26.8643L18.8418 30.6608C18.8569 30.7204 18.8712 30.7765 18.8862 30.8358C18.8874 30.8407 18.8886 30.8453 18.8898 30.8502C18.914 30.9458 18.9376 31.0386 18.9614 31.133C18.9918 31.2538 19.0226 31.3756 19.0526 31.493C19.0684 31.5551 19.084 31.6135 19.0997 31.6745C19.1605 31.9105 19.221 32.136 19.2815 32.3512C19.2941 32.3963 19.3068 32.4438 19.3195 32.4877C19.3866 32.7196 19.4543 32.9305 19.5234 33.1233C19.5351 33.1562 19.547 33.1866 19.5588 33.2175C19.5626 33.2275 19.5664 33.2376 19.5701 33.2474C19.6426 33.4372 19.7161 33.6103 19.7935 33.742C21.5849 36.7946 22.4075 36.4711 22.7633 37.7928C23.1192 39.1145 23.1998 40.4446 22.8377 40.6353C22.4755 40.8259 20.4433 41.0639 20.4433 42.408C20.4433 42.408 23.9523 42.408 24.2873 42.408C25.3207 41.8907 25.4008 41.4053 25.9266 40.8259C26.9206 39.7307 27.6325 36.4547 30.7548 36.752C32.4529 36.9138 35.396 37.8805 35.4754 38.6477C35.6089 39.9388 36.583 40.6202 36.2841 40.7397C35.8075 40.9304 31.6469 41.0341 31.6469 42.4867C32.2823 42.4867 39.8692 42.4867 39.8692 42.4867C41.0002 42.4867 41.2751 39.858 41.7199 40.5062C42.1646 41.1543 42.2491 42.4867 49.1115 42.4867C55.974 42.4867 53.9486 40.8531 52.8336 40.7397Z" fill="#191000"/>
<path d="M22.5089 37.1883C20.2728 34.2502 21.0943 27.3362 20.2059 24.9791C19.2027 22.3177 14.9288 24.7876 14.0391 24.0496C14.0582 24.1485 14.0905 24.2502 14.1255 24.3519C14.1357 24.3815 14.1432 24.4107 14.1548 24.4404C14.1891 24.5288 14.2335 24.6175 14.2793 24.7059C14.3028 24.7509 14.3252 24.7957 14.3516 24.8404C14.3974 24.9182 14.4499 24.9948 14.5044 25.0709C14.5442 25.1262 14.5858 25.1809 14.6302 25.2348C14.6844 25.3011 14.7422 25.3658 14.8032 25.4294C14.8616 25.4899 14.9243 25.5481 14.9888 25.6056C15.0494 25.6598 15.1107 25.7138 15.1766 25.7648C15.2557 25.8257 15.3415 25.8815 15.4279 25.9369C15.4922 25.9782 15.5544 26.0211 15.6226 26.0588C15.729 26.1176 15.8441 26.1674 15.96 26.2165C16.02 26.242 16.0759 26.2718 16.1385 26.2944C16.3225 26.3609 16.5158 26.4167 16.7209 26.4551C17.5818 26.6166 18.1343 28.0711 18.5794 29.6689C18.9688 31.0671 19.276 32.5749 19.6356 33.4223C19.687 33.5434 19.7395 33.651 19.7934 33.7429C21.2472 36.2202 22.0628 36.4741 22.5089 37.1883Z" fill="#A09A95"/>
</svg>
