<svg width="68" height="68" viewBox="0 0 68 68" fill="none" xmlns="http://www.w3.org/2000/svg">
<g clip-path="url(#clip0_2883_12614)">
<path opacity="0.4" d="M34 68C51.6731 68 66 53.6731 66 36C66 18.3269 51.6731 4 34 4C16.3269 4 2 18.3269 2 36C2 53.6731 16.3269 68 34 68Z" fill="black" fill-opacity="0.05"/>
<path d="M34 66C51.6731 66 66 51.6731 66 34C66 16.3269 51.6731 2 34 2C16.3269 2 2 16.3269 2 34C2 51.6731 16.3269 66 34 66Z" fill="black" fill-opacity="0.05"/>
<path d="M34 65C51.6731 65 66 50.6731 66 33C66 15.3269 51.6731 1 34 1C16.3269 1 2 15.3269 2 33C2 50.6731 16.3269 65 34 65Z" fill="black" fill-opacity="0.05"/>
<path d="M34 64C51.6731 64 66 49.6731 66 32C66 14.3269 51.6731 0 34 0C16.3269 0 2 14.3269 2 32C2 49.6731 16.3269 64 34 64Z" fill="white"/>
<path opacity="0.19" d="M34 46.3877C45.598 46.3877 55 45.7161 55 44.8877C55 44.0593 45.598 43.3877 34 43.3877C22.402 43.3877 13 44.0593 13 44.8877C13 45.7161 22.402 46.3877 34 46.3877Z" fill="#020202"/>
<path opacity="0.2" d="M35.4583 46.3877C45.7 46.3877 54.0025 45.7161 54.0025 44.8877C54.0025 44.0593 45.7 43.3877 35.4583 43.3877C25.2166 43.3877 16.9141 44.0593 16.9141 44.8877C16.9141 45.7161 25.2166 46.3877 35.4583 46.3877Z" fill="black"/>
<path d="M38.6504 32.6409C38.9405 33.7599 41.5809 36.0391 43.5138 36.569C45.4467 37.099 45.2908 39.6866 44.5114 41.0895C43.732 42.4924 43.2644 44.02 43.6385 44.3629C44.8232 44.2071 45.7896 42.773 45.7896 42.773C45.3843 41.6818 47.7537 37.5355 47.7537 37.5355L42.7032 29.4922L38.6504 32.6409Z" fill="#684F35"/>
<path d="M32.844 33.3469C32.2594 33.8488 30.7961 38.1281 31.5443 41.5886C30.9364 42.1732 30.4921 44.675 30.4921 44.675C26.7277 44.675 26.377 44.675 26.377 44.675C26.377 43.4358 28.4813 43.6618 28.4813 43.6618C29.2295 42.9681 29.4633 41.9861 29.2763 39.835C29.0892 37.6839 28.7522 32.7031 28.7522 32.7031L32.844 33.3469Z" fill="#684F35"/>
<path d="M51.164 27.871C50.3919 26.297 48.5255 24.9849 47.3217 24.3209C46.196 23.6999 43.7874 22.9022 40.5176 23.1518C39.2227 23.2507 33.1557 24.8885 27.2662 24.4732C26.0229 24.3855 22.4956 23.0542 21.0873 21.755C20.9344 21.5066 21.49 19.4646 19.8288 18.1055C17.3119 18.3068 17.9412 21.4781 18.2587 21.975C17.7238 22.0514 15.8661 24.4262 15.7515 24.6745C15.6368 24.9229 15.6985 25.7389 15.6221 25.9299C15.5457 26.121 13.3867 28.2354 13.3867 28.592C13.3867 28.592 13.5589 29.1146 14.6033 29.3185C15.3931 29.3949 17.6082 28.0396 18.4697 27.9465C21.2634 27.6445 22.3283 29.6966 24.1327 30.4382C25.618 31.0487 27.0375 32.8398 27.6563 34.0106C28.1505 34.9454 24.5431 37.5429 23.8183 38.1976C23.0934 38.8523 23.4909 39.9279 23.7014 41.471C23.9118 43.0142 23.7949 44.1132 25.1744 45.4693C25.5018 45.0952 26.2032 43.2714 25.7122 41.8452C25.7122 41.8452 25.0107 40.793 25.2211 40.0916C25.4316 39.39 29.7263 36.2549 30.8276 35.7473C30.7574 35.5836 30.6387 34.2896 30.6766 33.8596C31.8223 35.0755 40.1392 33.5332 42.1032 31.382C42.9216 34.4685 45.501 37.2338 48.4625 39.0394C50.2558 40.1327 49.3978 43.5053 48.9302 44.5574C48.9302 44.5574 47.1532 44.3704 47.1532 45.3758C47.1532 45.3758 48.6964 45.3758 50.6371 45.3758C50.6371 45.3758 51.5957 40.6994 51.3619 38.5249C49.5381 37.8001 48.6964 34.3864 49.5147 32.7497C49.7018 35.158 52.6649 40.8231 54.071 40.4428C56.072 39.9017 51.9496 29.4725 51.164 27.871Z" fill="#A57F54"/>
<path d="M25.2913 26.521C27.3048 27.6285 28.4166 25.4303 30.6648 26.8516C32.8545 28.2359 37.9871 27.861 41.4245 25.6812C42.9724 24.6996 44.3175 24.0944 45.4166 24.3531C46.9395 24.7115 47.4592 24.961 48.9751 26.9275C51.3982 30.0707 53.5653 35.2832 52.977 36.9271C52.1687 39.1856 50.9691 36.9673 50.6157 36.2239C51.6549 38.4802 53.1774 40.6847 54.0718 40.4427C56.0727 39.9016 51.9505 29.4724 51.1648 27.8709C50.3927 26.297 48.5263 24.9848 47.3225 24.3208C46.1968 23.6998 43.7882 22.9021 40.5184 23.1517C39.2235 23.2506 33.1565 24.8884 27.267 24.4731C26.0237 24.3854 22.4964 23.0542 21.0881 21.7549C20.7105 23.0888 23.2778 25.4136 25.2913 26.521Z" fill="#5B5651"/>
<path opacity="0.25" d="M51.3616 38.5253C49.5378 37.8005 48.6961 34.3868 49.5145 32.7501C49.7015 35.1584 52.6646 40.8235 54.0708 40.4432C55.8084 39.9733 52.9306 32.0534 51.628 28.9265C50.0304 33.2826 43.7263 32.2884 42.7026 29.4922C41.4945 30.7698 33.9573 32.0396 32.3627 31.7878C29.34 31.3105 30.6606 29.306 27.3289 29.6081C23.9972 29.9101 23.1074 28.909 21.8924 27.9217C20.6774 26.9345 19.0861 25.9334 17.7647 26.9402C16.7793 27.691 14.9486 28.5923 13.4863 28.7552C13.6226 28.9262 13.9313 29.1878 14.6031 29.3189C15.3929 29.3954 17.6079 28.04 18.4695 27.9469C21.2632 27.6448 22.3281 29.6969 24.1325 30.4386C25.6178 31.0491 27.0372 32.8403 27.6561 34.011C28.1502 34.9458 24.5428 37.5433 23.818 38.198C23.0932 38.8527 23.4907 39.9283 23.7011 41.4714C23.9115 43.0146 23.7946 44.1136 25.1742 45.4697C25.5015 45.0956 26.203 43.2718 25.7119 41.8456C25.7119 41.8456 25.0105 40.7934 25.2209 40.092C25.4314 39.3904 29.7261 36.2554 30.8274 35.7476C30.7572 35.584 30.6385 34.2901 30.6764 33.86C31.822 35.0759 40.1389 33.5336 42.103 31.3825C42.9214 34.4689 45.5008 37.2342 48.4623 39.0398C50.2556 40.1331 49.3976 43.5057 48.9299 44.5579C48.9299 44.5579 47.1529 44.3708 47.1529 45.3762C47.1529 45.3762 48.6961 45.3762 50.6368 45.3762C50.6368 45.3762 51.5954 40.6998 51.3616 38.5253Z" fill="black"/>
</g>
<defs>
<clipPath id="clip0_2883_12614">
<rect width="64" height="68" fill="white" transform="translate(2)"/>
</clipPath>
</defs>
</svg>
