<svg width="68" height="68" viewBox="0 0 68 68" fill="none" xmlns="http://www.w3.org/2000/svg">
<path opacity="0.4" d="M34 68C51.6731 68 66 53.6731 66 36C66 18.3269 51.6731 4 34 4C16.3269 4 2 18.3269 2 36C2 53.6731 16.3269 68 34 68Z" fill="black" fill-opacity="0.05"/>
<path d="M34 66C51.6731 66 66 51.6731 66 34C66 16.3269 51.6731 2 34 2C16.3269 2 2 16.3269 2 34C2 51.6731 16.3269 66 34 66Z" fill="black" fill-opacity="0.05"/>
<path d="M34 65C51.6731 65 66 50.6731 66 33C66 15.3269 51.6731 1 34 1C16.3269 1 2 15.3269 2 33C2 50.6731 16.3269 65 34 65Z" fill="black" fill-opacity="0.05"/>
<path d="M34 64C51.6731 64 66 49.6731 66 32C66 14.3269 51.6731 0 34 0C16.3269 0 2 14.3269 2 32C2 49.6731 16.3269 64 34 64Z" fill="white"/>
<path opacity="0.2" d="M34.0898 47.7734C45.6878 47.7734 55.0898 47.1019 55.0898 46.2734C55.0898 45.445 45.6878 44.7734 34.0898 44.7734C22.4919 44.7734 13.0898 45.445 13.0898 46.2734C13.0898 47.1019 22.4919 47.7734 34.0898 47.7734Z" fill="black"/>
<path opacity="0.2" d="M36.0898 47.7734C46.5833 47.7734 55.0898 47.1019 55.0898 46.2734C55.0898 45.445 46.5833 44.7734 36.0898 44.7734C25.5964 44.7734 17.0898 45.445 17.0898 46.2734C17.0898 47.1019 25.5964 47.7734 36.0898 47.7734Z" fill="black"/>
<path d="M21.8613 30.3213C22.8568 31.7883 23.1269 34.361 23.9953 36.8098C24.8823 39.3109 24.782 41.2823 24.9946 41.849C25.2755 42.5978 25.0994 44.5515 24.6278 44.6039C24.1563 44.6563 23.3879 45.0579 23.3879 45.8877C23.3879 45.8877 25.6582 45.8877 27.0204 45.8877C27.0204 45.4228 26.741 43.5735 27.3697 42.4907C26.4266 39.9409 25.5927 34.7116 25.9376 34.2476L21.8613 30.3213Z" fill="#8E5C2F"/>
<path d="M34.2511 33.1319C34.2511 33.1319 34.0066 34.1948 34.8623 35.9762C35.7181 37.7575 38.3377 38.7704 39.4379 40.1152C40.5382 41.4599 39.6999 42.6999 39.2633 43.7652C38.8267 44.8305 38.0932 45.0924 37.5867 44.7606C37.0803 44.4288 36.3642 44.813 36.3642 45.8873C36.3642 45.8873 39.4903 45.8873 40.381 45.8873C40.381 45.8873 42.0052 41.4424 42.922 40.4994C42.922 40.4994 42.1623 39.7135 41.1145 38.3513C40.0666 36.9891 40.7608 34.7755 41.717 32.7715L34.2511 33.1319Z" fill="#8E5C2F"/>
<path d="M23.8581 36.4062C24.817 38.888 24.7825 41.2824 24.9951 41.8491C25.276 42.5979 25.0962 44.5516 24.6247 44.604C24.1532 44.6564 23.3848 45.0581 23.3848 45.8878C23.3848 45.8878 25.6551 45.8878 27.0173 45.8878C27.0173 45.4229 26.7379 43.5737 27.3666 42.4908C26.0895 39.8753 25.7568 38.6153 23.8581 36.4062Z" fill="#4C3D35"/>
<path d="M39.4194 40.1152C40.5196 41.46 39.6814 42.6999 39.2447 43.7652C38.8081 44.8305 38.0746 45.0925 37.5682 44.7607C37.0617 44.4288 36.3457 44.8131 36.3457 45.8873C36.3457 45.8873 39.4718 45.8873 40.3624 45.8873C41.324 43.4753 41.3579 41.1543 39.4194 40.1152Z" fill="#4C3D35"/>
<path d="M15.0039 24.1488C14.9045 23.5769 16.7154 22.7866 17.3441 22.2627C17.9728 21.7388 17.5712 21.1974 18.2523 20.5163C18.9334 19.8352 19.6669 19.5558 19.8939 18.7873C20.1209 18.0189 19.5097 16.1852 20.1733 16.0105C20.837 15.8359 22.6882 17.8792 23.3867 18.7349C24.0853 19.5907 25.2379 21.1974 25.8492 22.8565C26.4604 24.5156 26.5827 25.2141 28.8006 25.3888C31.0186 25.5634 40.1631 25.2433 42.3353 26.524C44.6755 27.9036 45.9051 28.9645 47.4362 31.654C49.1412 34.6492 50.4406 37.8459 51.9098 39.3295C54.1259 41.5675 55 42.6973 55 45.1088C53.0615 46.864 50.4976 46.6341 48.5072 45.0461C46.0701 43.1018 43.7842 36.0925 44.1429 33.5183C43.1867 35.5224 42.4925 37.7359 43.5404 39.0981C44.5882 40.4603 45.3479 41.2462 45.3479 41.2462C44.431 42.1893 42.8069 46.6341 42.8069 46.6341C41.9162 46.6341 38.7901 46.6341 38.7901 46.6341C38.7901 45.5599 39.5061 45.1757 40.0126 45.5075C40.5191 45.8393 41.2526 45.5773 41.6892 44.512C42.1258 43.4467 42.9641 42.2068 41.8638 40.862C40.7636 39.5173 38.1439 38.5044 37.2882 36.723C36.4325 34.9417 36.677 33.8788 36.677 33.8788C35.0353 35.029 29.3071 34.313 28.8006 34.9941C28.4556 35.458 29.2896 40.6874 30.2327 43.2371C29.604 44.3199 29.8834 46.1692 29.8834 46.6341C28.5212 46.6341 26.2509 46.6341 26.2509 46.6341C26.2509 45.8044 27.0193 45.4027 27.4908 45.3503C27.9623 45.2979 27.9726 43.2 27.6916 42.4513C27.479 41.8846 26.8621 39.4474 25.8492 37.0548C24.8363 34.6622 24.3822 34.2431 23.3867 32.7761C22.3913 31.3091 21.0291 29.1086 20.837 27.7988C20.6449 26.489 20.802 25.2491 19.7891 25.1617C18.7762 25.0744 17.6236 25.2491 16.6106 25.4237C15.5977 25.5983 15.0738 24.5505 15.0039 24.1488Z" fill="#DA964A"/>
<path d="M24.9401 35.1327C24.4365 34.1258 24.2774 33.8566 23.8058 32.8979C23.3217 31.9138 22.9151 30.3307 22.985 28.8986C23.1213 26.106 23.2819 25.6678 22.269 24.7946C21.2561 23.9214 21.6752 22.4544 20.767 22.2099C19.8589 21.9653 16.2962 24.5151 15.1016 24.4453C15.3011 24.9143 15.7944 25.5639 16.6105 25.4232C17.6235 25.2486 18.7761 25.0739 19.7891 25.1613C20.802 25.2486 20.6448 26.4886 20.8369 27.7984C21.029 29.1082 22.3912 31.3087 23.3867 32.7757C24.0326 33.7277 24.4521 34.2455 24.9428 35.1406C24.9413 35.1375 24.9416 35.1358 24.9401 35.1327Z" fill="#E6E6E8"/>
<path d="M32.0666 33.1775C30.9402 33.1512 29.0481 33.3771 28.8008 34.9937C29.3073 34.3126 35.0355 35.0286 36.6772 33.8784C36.6772 33.8784 36.7677 33.3465 36.9784 32.6797C36.6379 33.0334 33.193 33.2036 32.0666 33.1775Z" fill="#E6E6E8"/>
<path d="M53.1535 40.6445C54.1955 42.162 50.498 44.9402 46.3184 41.9468C46.3181 41.9568 46.3194 41.9679 46.3191 41.9779C46.981 43.3066 47.7365 44.4305 48.5077 45.0458C50.498 46.6337 53.0619 46.8636 55.0004 45.1085C55.0004 43.2187 54.4522 42.1102 53.1535 40.6445Z" fill="#E6E6E8"/>
<path opacity="0.2" d="M44.8363 40.6832C44.6758 40.4998 44.4827 40.2738 44.2641 40.0086C44.0455 39.7434 43.8015 39.4389 43.5396 39.0983C43.2776 38.7578 43.1245 38.3641 43.0572 37.9336C42.9899 37.5033 43.0082 37.0362 43.0893 36.5491C43.1396 36.2468 43.2204 35.9355 43.3134 35.6217C43.4241 35.2485 43.5596 34.8713 43.7136 34.4941C43.7902 34.3065 43.8702 34.1206 43.954 33.9344C44.0165 33.7956 44.0766 33.6557 44.142 33.5186C44.142 33.5185 44.142 33.5186 44.142 33.5186C44.1203 33.6748 44.1091 33.8486 44.1063 34.0354C44.1076 34.7934 44.2853 35.9506 44.5892 37.2687C45.3452 40.2426 46.8901 43.7568 48.5064 45.0463C50.4968 46.6343 53.0607 46.8642 54.9992 45.109C54.9992 42.6975 54.1251 41.5677 51.909 39.3297C51.1299 38.5429 50.3973 37.2687 49.6279 35.804C49.0376 34.8019 48.4868 33.6946 47.9095 32.5154C47.8581 32.4205 47.8051 32.326 47.753 32.2312C47.139 31.07 46.3479 30.143 45.6241 29.2546C45.7083 32.0093 38.2924 32.5871 37.8419 30.4472C36.0867 31.5632 28.5952 32.7828 28.2761 29.6447C28.0504 27.4256 26.7749 28.5984 24.8065 26.7298C22.8257 24.8493 23.7423 21.7302 21.3179 22.8621C17.5334 24.6291 16.0273 24.5045 16.6128 22.7501C16.6001 22.7578 16.5867 22.7659 16.5739 22.7736C16.3693 22.8973 16.1574 23.025 15.9537 23.1547C15.9237 23.1737 15.8945 23.1929 15.8651 23.212C15.7659 23.2765 15.6718 23.3412 15.5829 23.4055C15.5637 23.4195 15.5427 23.4335 15.5241 23.4474C15.4242 23.5221 15.3356 23.5962 15.2592 23.6693C15.2419 23.6859 15.229 23.702 15.2132 23.7185C15.158 23.7759 15.1136 23.8322 15.0792 23.8876C15.0668 23.9076 15.0541 23.9274 15.0448 23.9471C15.0119 24.0164 14.9919 24.0845 15.0031 24.149C15.073 24.5507 15.5969 25.5985 16.6098 25.4239C17.1163 25.3366 17.6577 25.2492 18.1991 25.1946C18.4698 25.1673 18.7405 25.1483 19.0069 25.1415C19.2732 25.1346 19.5351 25.1401 19.7884 25.1619C20.4215 25.2165 20.5974 25.7214 20.6873 26.412C20.7232 26.6883 20.7454 26.9944 20.7775 27.3132C20.7936 27.4726 20.8122 27.6353 20.8362 27.799C21.0043 28.9451 22.0682 30.7731 22.9985 32.195C23.1314 32.3981 23.2616 32.593 23.386 32.7763C24.3814 34.2433 24.8355 34.6624 25.8484 37.055C26.3548 38.2513 26.7623 39.4588 27.0697 40.438C27.3772 41.4172 27.5846 42.1681 27.6908 42.4514C27.7633 42.6444 27.8154 42.9278 27.8462 43.2419C27.8901 43.6895 27.8898 44.2002 27.8349 44.6076C27.8162 44.7462 27.7912 44.8729 27.7598 44.9807C27.7155 45.133 27.6529 45.2274 27.5815 45.2865C27.5518 45.3111 27.5247 45.3467 27.49 45.3505C27.3132 45.3702 27.0946 45.4389 26.8905 45.5609C26.8225 45.6016 26.756 45.6482 26.6932 45.7009C26.5677 45.8063 26.4569 45.9359 26.3775 46.091C26.2981 46.2462 26.2501 46.4269 26.2501 46.6343C26.2501 46.6343 28.5204 46.6343 29.8826 46.6343C29.8826 46.4018 29.8128 45.8233 29.8215 45.1675C29.8302 44.5118 29.9175 43.7787 30.2318 43.2373C30.1933 43.1329 30.1552 43.0178 30.1171 42.905C30.0833 42.8051 30.0499 42.7043 30.0165 42.5986C29.9274 42.3159 29.8402 42.0147 29.7557 41.6993C29.733 41.6145 29.7106 41.5296 29.6882 41.443C29.5496 40.9054 29.4198 40.3384 29.3027 39.77C29.2479 39.504 29.1949 39.2381 29.1463 38.9755C28.9856 38.1081 28.861 37.2769 28.7891 36.5981C28.7352 36.0891 28.711 35.6656 28.7236 35.377C28.7278 35.2808 28.736 35.1997 28.7487 35.1353C28.7613 35.0709 28.7782 35.0232 28.7998 34.9942C29.2113 34.4409 33.07 34.8098 35.3831 34.3507C35.9169 34.2447 36.3683 34.0946 36.6762 33.879C36.6762 33.879 36.6418 34.0285 36.6439 34.3092C36.6468 34.6836 36.7146 35.2914 37.0155 36.0896C37.0907 36.2891 37.1804 36.5005 37.2874 36.7232C37.8223 37.8365 39.0461 38.6497 40.1574 39.4313C40.8242 39.9002 41.4504 40.3579 41.863 40.8622C41.9529 40.9721 42.011 41.0801 42.0763 41.1885C42.1756 41.3534 42.2509 41.5166 42.3008 41.678C42.3231 41.7505 42.3518 41.8234 42.3655 41.8951C42.5161 42.6831 42.1732 43.4254 41.8664 44.1047C41.8038 44.2431 41.743 44.379 41.6884 44.5122C41.5792 44.7785 41.4515 44.9947 41.3134 45.1638C41.1754 45.333 41.0269 45.4552 40.8763 45.5338C40.575 45.691 40.265 45.6736 40.0118 45.5077C39.5054 45.1758 38.7893 45.5601 38.7893 46.6343C38.7893 46.6343 41.9152 46.6343 42.806 46.6343C42.806 46.6343 43.117 45.7836 43.5435 44.7475C43.6044 44.5995 43.6677 44.4477 43.7328 44.294C43.863 43.9867 44.0003 43.6721 44.1402 43.3656C44.4201 42.7526 44.7103 42.1723 44.9747 41.7487C45.1068 41.5369 45.2325 41.3643 45.3471 41.2464C45.3471 41.2464 45.2996 41.1973 45.2121 41.1023C45.1245 41.0074 44.9968 40.8666 44.8363 40.6832Z" fill="black"/>
<path d="M25.8496 37.0547C26.8625 39.4473 27.4795 41.8844 27.692 42.4511C27.973 43.1999 27.9628 45.2977 27.4912 45.3501C27.0197 45.4025 26.2513 45.8042 26.2513 46.6339C26.2513 46.6339 28.5217 46.6339 29.8838 46.6339C29.8838 46.169 29.6044 44.3198 30.2331 43.237C29.4116 41.151 27.243 37.712 25.8496 37.0547Z" fill="#634F47"/>
<path d="M41.8647 40.8623C42.9649 42.207 42.1267 43.447 41.69 44.5123C41.2535 45.5776 40.5199 45.8396 40.0135 45.5077C39.507 45.1759 38.791 45.5601 38.791 46.6344C38.791 46.6344 41.9171 46.6344 42.8077 46.6344C43.7694 44.2224 43.8032 41.9014 41.8647 40.8623Z" fill="#634F47"/>
<path d="M20.1729 16.0105C20.1135 16.0262 20.0751 16.069 20.0346 16.1092C19.905 16.5448 21.1804 18.5714 21.1804 19.3891C22.358 19.3015 22.7017 17.9449 22.7017 17.9449C21.8537 17.0131 20.6746 15.8785 20.1729 16.0105Z" fill="#634F47"/>
</svg>
