<svg width="68" height="68" viewBox="0 0 68 68" fill="none" xmlns="http://www.w3.org/2000/svg">
<path opacity="0.4" d="M34 68C51.6731 68 66 53.6731 66 36C66 18.3269 51.6731 4 34 4C16.3269 4 2 18.3269 2 36C2 53.6731 16.3269 68 34 68Z" fill="black" fill-opacity="0.05"/>
<path d="M34 66C51.6731 66 66 51.6731 66 34C66 16.3269 51.6731 2 34 2C16.3269 2 2 16.3269 2 34C2 51.6731 16.3269 66 34 66Z" fill="black" fill-opacity="0.05"/>
<path d="M34 65C51.6731 65 66 50.6731 66 33C66 15.3269 51.6731 1 34 1C16.3269 1 2 15.3269 2 33C2 50.6731 16.3269 65 34 65Z" fill="black" fill-opacity="0.05"/>
<path d="M34 64C51.6731 64 66 49.6731 66 32C66 14.3269 51.6731 0 34 0C16.3269 0 2 14.3269 2 32C2 49.6731 16.3269 64 34 64Z" fill="white"/>
<path opacity="0.2" d="M34 48.9451C43.9411 48.9451 52 48.2981 52 47.4999C52 46.7017 43.9411 46.0547 34 46.0547C24.0589 46.0547 16 46.7017 16 47.4999C16 48.2981 24.0589 48.9451 34 48.9451Z" fill="black"/>
<path opacity="0.2" d="M34.5293 49C41.1567 49 46.5293 48.3284 46.5293 47.5C46.5293 46.6716 41.1567 46 34.5293 46C27.9019 46 22.5293 46.6716 22.5293 47.5C22.5293 48.3284 27.9019 49 34.5293 49Z" fill="black"/>
<path d="M46.4159 28.1794C42.5535 26.8516 36.9106 27.5494 35.349 28.3076C35.349 28.3076 35.2689 28.0508 35.0286 27.8502C35.4526 27.6165 35.7512 27.1817 35.7512 26.6634C35.7512 26.3129 35.6096 26.0009 35.3934 25.7583C36.2407 24.3202 37.6738 22.5822 40.4322 22.3263C40.5292 22.3174 40.6326 22.2259 40.6062 22.1083C40.5648 21.9245 40.399 21.9209 40.302 21.9272C37.4115 22.1954 35.9131 23.9824 35.0258 25.4746C34.8302 25.3675 34.617 25.2905 34.3783 25.2905C34.3136 25.2905 34.2583 25.3187 34.196 25.3273C33.892 23.6039 33.1259 21.3309 30.4387 20.0529C30.3486 20.011 30.1452 19.9352 30.0303 20.1098C29.9313 20.2602 29.9947 20.4362 30.0833 20.4782C32.6317 21.6902 33.3605 23.8745 33.6501 25.529C33.2711 25.7735 33.0054 26.1789 33.0054 26.6634C33.0054 27.0402 33.1582 27.3809 33.404 27.629C33.2445 27.6533 33.0526 27.7078 32.867 27.8474C31.7505 25.5239 26.0473 23.3965 22.6978 23.0796C19.3483 22.7628 14.8673 23.8491 15.003 26.2481C15.003 26.2481 15 27.4824 15.7272 28.0285C16.4984 28.6075 16.2462 29.7849 17.1757 29.9899C18.2189 30.2198 17.6097 32.4737 18.7448 32.4643C19.8439 32.4552 20.0997 34.4699 21.0683 34.6068C21.6485 34.6888 20.4874 36.2266 21.4606 36.6889C22.2423 37.0602 21.3629 39.1229 22.4564 39.2237C23.6602 39.3346 23.2602 41.1592 24.2367 41.1247C25.2323 41.0896 24.9178 42.7458 25.8663 42.6034C26.8952 42.4487 27.0706 43.5859 27.9484 43.2974C28.9739 42.9604 28.5262 44.0956 29.7288 43.7501C30.2225 43.6081 31.0574 42.8075 31.2302 42.0156C31.1592 42.8416 31.701 44.3112 32.6257 44.0518C33.7228 43.7439 33.8306 45.1134 35.0095 44.5044C36.2652 43.8558 36.5512 44.8984 37.484 44.1423C38.2319 43.536 39.4369 44.2062 40.0187 43.2069C40.6464 42.129 42.0654 42.4189 42.2517 41.336C42.4372 40.2582 43.6233 40.8602 44.1226 39.7065C44.4999 38.8351 46.3066 39.4107 46.5945 38.4993C46.922 37.462 48.0747 37.1185 48.5283 37.1113C49.7444 37.0922 52.8434 35.6328 52.9943 33.6713C53.1452 31.7099 50.2785 29.507 46.4159 28.1794Z" fill="#484D69"/>
<path d="M31.6056 29.5739C32.4128 28.3182 27.5192 24.8788 23.7517 24.6686C19.7818 24.447 17.4067 24.7693 17.9005 26.4303C18.1874 27.395 19.4759 26.9366 19.4759 26.9366C18.9062 27.2003 18.574 27.7553 18.7691 28.2131C19.0433 28.8565 20.0244 28.6456 20.0244 28.6456C19.5286 28.9673 19.2532 29.3245 19.5286 29.8693C19.766 30.3387 20.6257 30.1963 20.6257 30.1963C20.1774 30.6499 20.141 31.2396 20.4364 31.5877C20.7318 31.9358 21.554 31.7153 21.554 31.7153C21.1567 32.4854 21.4961 33.0405 21.827 33.3816C22.841 34.4264 25.0273 32.7773 27.4793 31.5782C29.3347 30.6709 31.2784 30.0828 31.6056 29.5739Z" fill="#005BCC"/>
<path d="M31.419 31.5872C31.8499 31.8128 31.0406 34.6514 30.9465 36.3058C30.8523 37.9601 30.7959 41.4567 29.2336 41.4567C27.6713 41.4567 27.7842 39.5768 27.7842 39.5768C27.5584 40.4416 27.0815 40.4917 26.7553 40.404C26.429 40.3162 25.8518 39.4515 26.2784 38.2483C25.9898 39.2133 25.2243 38.7371 24.735 38.0603C24.2456 37.3836 24.7099 36.3559 25.1491 35.9047C24.5844 36.4937 23.9723 36.4033 23.8189 36.0175C23.4801 35.1653 25.0738 34.4008 27.2823 33.3606C29.4908 32.3203 31.1159 31.3334 31.419 31.5872Z" fill="#005BCC"/>
<path d="M36.118 30.587C35.8537 29.1092 41.7263 27.8066 45.3056 29.067C49.0773 30.3953 51.1581 31.6122 50.0578 32.9636C49.4187 33.7485 48.3995 32.825 48.3995 32.825C48.8265 33.29 48.9205 33.9337 48.5625 34.2833C48.0592 34.7748 47.2298 34.1998 47.2298 34.1998C47.5659 34.6902 47.6836 35.1282 47.2174 35.5276C46.8156 35.8718 46.0723 35.4073 46.0723 35.4073C46.3134 36.0017 46.1192 36.5634 45.7105 36.7725C45.3017 36.9816 44.6235 36.4591 44.6235 36.4591C44.6949 37.3277 44.1652 37.712 43.7262 37.9007C42.381 38.4791 40.9882 36.1031 39.1748 34.0423C37.8026 32.483 36.2251 31.186 36.118 30.587Z" fill="#005BCC"/>
<path d="M35.3787 32.1624C34.8565 32.2013 34.5231 35.2862 33.9509 36.9268C33.3787 38.5674 32.0267 41.9756 33.5904 42.6263C35.154 43.277 35.7982 41.4102 35.7982 41.4102C35.6759 42.3414 36.133 42.5885 36.4949 42.6395C36.8568 42.6904 37.7828 42.0937 37.8405 40.7514C37.7406 41.8058 38.6986 41.6636 39.461 41.2123C40.2234 40.761 40.1727 39.5728 39.9148 38.9532C40.2427 39.7585 40.8918 39.9259 41.2007 39.6163C41.8831 38.9325 40.596 37.5287 38.8046 35.602C37.0132 33.6752 35.7843 32.043 35.3787 32.1624Z" fill="#005BCC"/>
<path opacity="0.2" d="M52.9943 33.6699C53.1452 31.7085 50.2785 29.5056 46.4159 28.1779C46.1348 28.0813 44.1079 27.669 43.8102 27.593C50.3998 30.3703 46.1789 34.8977 39.7355 35.5322C36.361 35.8646 36.7463 40.4624 31.6943 39.779C27.3172 39.1869 28.9966 33.8427 25.9214 32.8475C20.1778 30.9888 18.8856 22.2856 25.515 23.623C25.1491 23.559 23.0253 23.1092 22.6978 23.0782C19.3483 22.7614 14.8673 23.8477 15.003 26.2467C15.003 26.2467 15 27.481 15.7272 28.0271C16.4984 28.6061 16.2462 29.7835 17.1757 29.9884C18.2189 30.2184 17.6097 32.4723 18.7448 32.4629C19.8439 32.4538 20.0997 34.4685 21.0683 34.6054C21.6485 34.6874 20.4874 36.2252 21.4606 36.6875C22.2423 37.0588 21.3629 39.1215 22.4564 39.2222C23.6602 39.3332 23.2602 41.1578 24.2367 41.1233C25.2323 41.0882 24.9178 42.7444 25.8663 42.602C26.8952 42.4473 27.0706 43.5845 27.9484 43.296C28.9739 42.959 28.5262 44.0942 29.7288 43.7486C30.2225 43.6067 31.0574 42.8061 31.2302 42.0142C31.1592 42.8402 31.701 44.3098 32.6257 44.0503C33.7228 43.7425 33.8306 45.112 35.0095 44.503C36.2652 43.8544 36.5512 44.897 37.484 44.1409C38.2319 43.5346 39.4369 44.2048 40.0187 43.2055C40.6464 42.1275 42.0654 42.4175 42.2517 41.3346C42.4372 40.2568 43.6233 40.8587 44.1226 39.7051C44.4999 38.8337 46.3066 39.4093 46.5945 38.4979C46.922 37.4606 48.0747 37.1171 48.5283 37.1099C49.7444 37.0908 52.8434 35.6314 52.9943 33.6699Z" fill="black"/>
</svg>
