<svg width="68" height="68" viewBox="0 0 68 68" fill="none" xmlns="http://www.w3.org/2000/svg">
<path opacity="0.4" d="M34 68C51.6731 68 66 53.6731 66 36C66 18.3269 51.6731 4 34 4C16.3269 4 2 18.3269 2 36C2 53.6731 16.3269 68 34 68Z" fill="black" fill-opacity="0.05"/>
<path d="M34 66C51.6731 66 66 51.6731 66 34C66 16.3269 51.6731 2 34 2C16.3269 2 2 16.3269 2 34C2 51.6731 16.3269 66 34 66Z" fill="black" fill-opacity="0.05"/>
<path d="M34 65C51.6731 65 66 50.6731 66 33C66 15.3269 51.6731 1 34 1C16.3269 1 2 15.3269 2 33C2 50.6731 16.3269 65 34 65Z" fill="black" fill-opacity="0.05"/>
<path d="M34 64C51.6731 64 66 49.6731 66 32C66 14.3269 51.6731 0 34 0C16.3269 0 2 14.3269 2 32C2 49.6731 16.3269 64 34 64Z" fill="white"/>
<path opacity="0.2" d="M34.0059 42.957C45.6038 42.957 55.0059 42.2855 55.0059 41.457C55.0059 40.6286 45.6038 39.957 34.0059 39.957C22.4079 39.957 13.0059 40.6286 13.0059 41.457C13.0059 42.2855 22.4079 42.957 34.0059 42.957Z" fill="black"/>
<path opacity="0.2" d="M35.735 42.957C45.095 42.957 52.6828 42.2855 52.6828 41.457C52.6828 40.6286 45.095 39.957 35.735 39.957C26.3749 39.957 18.7871 40.6286 18.7871 41.457C18.7871 42.2855 26.3749 42.957 35.735 42.957Z" fill="black"/>
<path d="M44.7505 27.167C45.1299 29.2456 43.3788 32.1866 44.7603 33.8941C45.8958 35.2975 47.6596 36.4292 49.4277 36.8792C49.1057 38.5766 48.9887 40.9471 47.4084 40.9471C45.828 40.9471 45.0671 40.9471 44.1111 40.9471C43.1551 40.9471 44.3257 40.0399 44.7354 39.7862C45.1452 39.5326 46.1792 40.2155 46.7255 39.7862C47.2718 39.357 47.6815 38.8692 47.4084 38.6741C47.1352 38.479 42.6689 37.3474 40.8349 35.2989C39.001 33.2503 39.5668 29.3872 39.5668 29.3872L44.7505 27.167Z" fill="#5B544D"/>
<path d="M23.8187 30.2852C25.0478 31.6825 25.0019 33.4753 24.9593 34.3274C24.9363 34.788 23.7774 39.5038 23.0945 39.6508C22.4117 39.7979 20.1875 40.0921 20.1875 40.947C20.1875 40.947 23.0508 40.947 24.7482 40.947C25.0833 40.947 25.3592 40.0911 25.5061 39.4364C25.9128 37.6244 27.2216 35.8083 27.9955 34.3294C27.7028 34.0261 27.5819 32.2874 27.8453 31.8462L23.8187 30.2852Z" fill="#5B544D"/>
<path d="M19.0024 29.4652C18.105 28.9774 18.0659 27.9434 18.1635 27.6312C18.261 27.319 18.6903 26.5386 18.4561 25.8753C18.222 25.2119 17.6757 24.2949 18.3976 24.1388C19.1195 23.9828 19.1454 22.559 20.134 22.0317C21.3315 21.3931 23.2226 21.649 23.8605 22.3829C24.4751 23.0901 25.1878 23.6603 26.0099 23.4897C26.7727 23.3314 31.9378 22.0903 34.318 22.5975C36.6983 23.1048 40.1097 23.1417 41.732 23.0853C43.9756 23.0072 55.1007 23.6177 55.4585 30.5739C55.8096 37.4026 50.2083 35.4873 48.7984 34.1972C47.6855 33.1788 49.1033 33.3421 50.4568 34.0216C51.9567 34.7746 53.4001 34.1541 53.7903 32.8274C54.1805 31.5007 53.683 28.3205 50.1321 26.6816C46.5813 25.0428 46.9803 25.5692 43.6245 25.0168C46.1608 27.5531 44.4281 31.0277 41.0843 32.3195C37.9885 33.5155 41.8127 39.63 42.1932 40.7714C39.6666 42.2011 39.0618 42.3517 35.4329 42.3517C33.4135 42.3517 33.6038 41.7079 34.0574 41.386C35.2169 40.5631 35.7987 40.3763 37.6863 41.0055C38.3559 41.2287 40.216 40.64 39.9544 40.0983C38.6388 37.3738 37.0136 36.2552 36.2357 35.2761C35.5123 34.3655 35.6203 32.8697 35.9862 32.2844C34.5522 33.016 31.3915 32.2259 31.1281 32.6941C30.8647 33.1624 30.9856 35.0073 31.2783 35.3293C30.5044 36.8986 29.1956 38.8259 28.7889 40.7487C28.642 41.4434 28.7967 42.3517 28.2014 42.3517C26.504 42.3517 23.4703 42.3517 23.4703 42.3517C23.4703 41.4445 25.6945 41.1323 26.3773 40.9762C27.0602 40.8202 28.2191 35.8159 28.2421 35.3271C28.2847 34.4229 25.4799 32.2746 24.2507 30.7919C23.0216 29.3091 22.3247 28.7271 21.3528 28.8186C20.609 28.8887 19.9194 29.8944 19.0024 29.4652Z" fill="#A99A8E"/>
<path opacity="0.19" d="M41.0843 32.3198C42.6415 31.7183 43.841 30.6412 44.431 29.4081C44.4214 29.3891 44.4133 29.3708 44.4035 29.3518C41.9099 30.783 39.8716 30.2134 37.9993 28.8518C36.349 30.2134 31.1482 31.3624 30.0418 28.5964C29.4473 27.1101 27.8716 26.2097 25.7014 27.1672C23.5312 28.1246 21.1932 25.7871 21.7038 24.7658C22.2145 23.7445 20.2357 23.4254 18.693 23.976L18.6897 23.9717C18.6579 24.0009 18.624 24.0264 18.589 24.049C18.5308 24.0894 18.4692 24.1236 18.398 24.139C18.3979 24.139 18.3981 24.139 18.398 24.139C18.2175 24.178 18.1159 24.2648 18.0693 24.3831C18.046 24.4422 18.0363 24.5092 18.0372 24.5823C18.0415 24.9473 18.3099 25.461 18.4562 25.8756C18.6903 26.5389 18.261 27.3193 18.1635 27.6315C18.0904 27.8656 18.094 28.5058 18.479 29.017C18.6074 29.1874 18.7781 29.3435 19.0024 29.4655C19.1171 29.5191 19.2281 29.5504 19.3362 29.5638C20.0926 29.6579 20.702 28.8803 21.3527 28.819C21.4742 28.8075 21.5914 28.8066 21.7059 28.8167C22.5072 28.887 23.1752 29.4947 24.2507 30.7922C24.6348 31.2556 25.1728 31.7839 25.7297 32.319C26.1752 32.747 26.6327 33.1794 27.0333 33.5862C27.7343 34.2981 28.2607 34.9318 28.2421 35.3275C28.2191 35.8162 27.0602 40.8205 26.3773 40.9766C25.6944 41.1326 23.4703 41.4448 23.4703 42.3521C23.4703 42.3521 26.504 42.3521 28.2014 42.3521C28.7648 42.3521 28.642 41.4437 28.7889 40.749C28.8398 40.5086 28.9047 40.2683 28.9809 40.0285C29.5143 38.35 30.6011 36.7028 31.2782 35.3296C30.9856 35.0077 30.8647 33.1627 31.128 32.6945C31.161 32.6359 31.2392 32.5971 31.3536 32.5725C31.4681 32.5479 31.6187 32.5374 31.7966 32.5358C32.2413 32.5318 32.8561 32.5828 33.4997 32.604C33.7573 32.6124 34.0193 32.6162 34.277 32.6096C34.9213 32.5934 35.538 32.5134 35.9861 32.2847C35.8032 32.5774 35.6849 33.0977 35.7025 33.6586C35.7069 33.7988 35.7198 33.9416 35.7424 34.084C35.7785 34.3115 35.8473 34.5346 35.9371 34.7482C35.9955 34.8873 36.0668 35.019 36.1512 35.1439C36.1806 35.1874 36.203 35.2352 36.2358 35.2764C36.4317 35.5231 36.6818 35.7789 36.9667 36.0667C37.4946 36.5997 38.1433 37.2533 38.7956 38.1567C39.1893 38.7019 39.584 39.3315 39.9544 40.0986C40.1833 40.5727 38.7877 41.0826 37.9867 41.0532C37.8723 41.049 37.77 41.0338 37.6863 41.0059C36.9784 40.7699 36.4542 40.6487 36.0143 40.6328C35.2811 40.6062 34.7821 40.872 34.0574 41.3863C33.8873 41.507 33.7542 41.673 33.7608 41.8333C33.7652 41.9402 33.8317 42.0446 33.9907 42.1314C34.2291 42.2615 34.6756 42.3521 35.4329 42.3521C39.0618 42.3521 39.6666 42.2014 42.1932 40.7717C41.8127 39.6304 37.9885 33.5159 41.0843 32.3198Z" fill="black"/>
<path opacity="0.19" d="M40.0252 35.4722C37.8443 35.6786 36.7913 32.1171 36.9988 31C36.1211 31.4788 31.8976 32.0425 30.6849 31.1968C29.4721 30.351 27.4774 31.6277 26.2487 30.8617C25.02 30.0957 23.137 28.5478 22.2913 28.1808C21.4489 27.8153 20.4488 28.8108 19.8516 29.4966C20.3829 29.3207 20.8563 28.865 21.3522 28.8183C22.3242 28.7267 23.021 29.3087 24.2502 30.7915C25.4793 32.2743 28.2841 34.4225 28.2416 35.3268C28.2186 35.8155 27.0596 40.8198 26.3768 40.9759C25.6939 41.1319 23.4698 41.4441 23.4698 42.3513C23.4698 42.3513 26.5034 42.3513 28.2009 42.3513C28.7961 42.3513 28.6415 41.443 28.7884 40.7483C29.1951 38.8255 30.5038 36.8982 31.2778 35.3289C30.9851 35.007 30.8642 33.162 31.1276 32.6938C31.3909 32.2255 34.5516 33.0157 35.9857 32.284C35.6198 32.8694 35.5118 34.3651 36.2352 35.2757C37.0131 36.2548 38.6382 37.3734 39.9539 40.0979C40.2155 40.6397 38.3553 41.2283 37.6858 41.0052C35.7982 40.3759 35.2164 40.5627 34.0568 41.3856C33.6032 41.7075 33.413 42.3513 35.4323 42.3513C39.0612 42.3513 39.666 42.2007 42.1926 40.771C41.9639 40.085 40.4986 37.6048 40.0322 35.4733C40.0298 35.4735 40.0276 35.472 40.0252 35.4722Z" fill="black"/>
</svg>
