<svg width="68" height="68" viewBox="0 0 68 68" fill="none" xmlns="http://www.w3.org/2000/svg">
<path opacity="0.4" d="M34 68C51.6731 68 66 53.6731 66 36C66 18.3269 51.6731 4 34 4C16.3269 4 2 18.3269 2 36C2 53.6731 16.3269 68 34 68Z" fill="black" fill-opacity="0.05"/>
<path d="M34 66C51.6731 66 66 51.6731 66 34C66 16.3269 51.6731 2 34 2C16.3269 2 2 16.3269 2 34C2 51.6731 16.3269 66 34 66Z" fill="black" fill-opacity="0.05"/>
<path d="M34 65C51.6731 65 66 50.6731 66 33C66 15.3269 51.6731 1 34 1C16.3269 1 2 15.3269 2 33C2 50.6731 16.3269 65 34 65Z" fill="black" fill-opacity="0.05"/>
<path d="M34 64C51.6731 64 66 49.6731 66 32C66 14.3269 51.6731 0 34 0C16.3269 0 2 14.3269 2 32C2 49.6731 16.3269 64 34 64Z" fill="white"/>
<path opacity="0.2" d="M34.0059 43.2764C45.6038 43.2764 55.0059 42.6048 55.0059 41.7764C55.0059 40.9479 45.6038 40.2764 34.0059 40.2764C22.4079 40.2764 13.0059 40.9479 13.0059 41.7764C13.0059 42.6048 22.4079 43.2764 34.0059 43.2764Z" fill="black"/>
<path opacity="0.2" d="M37.4796 43.2764C46.84 43.2764 54.428 42.6048 54.428 41.7764C54.428 40.9479 46.84 40.2764 37.4796 40.2764C28.1193 40.2764 20.5312 40.9479 20.5312 41.7764C20.5312 42.6048 28.1193 43.2764 37.4796 43.2764Z" fill="black"/>
<path d="M21.3392 25.321C21.2246 24.3039 21.1673 23.4301 21.9838 23.3585C22.8003 23.2868 23.0152 24.2036 22.9436 24.6477C22.872 25.0918 21.3392 25.321 21.3392 25.321Z" fill="#424248"/>
<path d="M37.9926 33.118C37.6679 34.073 37.5513 35.0751 38.6151 36.9529C39.2836 39.5506 39.4634 40.2806 39.4634 41.1783C37.305 41.1783 35.8917 41.1783 35.8917 41.1783C35.8917 40.0219 36.8986 40.4049 37.166 39.851C37.4334 39.2971 36.6175 38.2942 35.8917 37.5684C35.1659 36.8426 33.5423 35.4101 33.0457 33.882C32.5491 32.354 37.9926 32.6179 37.9926 33.118Z" fill="#424248"/>
<path d="M49.6583 34.3026C49.7729 35.0046 50.4032 36.2509 50.5894 36.5087C50.1454 37.4398 48.9492 39.9611 49.293 41.1787H45.8407C45.8407 40.1616 47.2015 39.8178 47.2015 39.8178C48.0969 38.1131 48.5123 36.1076 47.1228 34.9902C45.7332 33.8729 44.8164 32.8701 44.8164 32.8701L49.6583 34.3026Z" fill="#424248"/>
<path d="M13.8891 30.0765C13.531 29.9619 13.3448 29.833 14.0467 28.9305C14.7486 28.028 16.0665 27.1398 16.8258 26.4522C17.585 25.7646 19.2897 24.7905 20.7079 24.59C22.1261 24.3894 22.4985 24.2462 22.7134 24.1316C22.9283 24.017 23.5586 23.974 23.5586 23.974C23.8165 22.7993 25.0198 22.2406 25.3063 22.5271C25.5928 22.8136 26.0512 22.9569 25.8649 23.888C27.4837 23.6588 32.9559 22.8996 33.9443 22.7134C34.9328 22.5271 41.0496 22.0544 42.5108 21.8395C43.9719 21.6247 47.6105 21.8395 51.3637 24.5613C55.1169 27.2831 54.4293 29.8616 54.2861 30.2627C54.1428 30.6638 53.4695 31.9244 53.0398 31.7525C52.0657 32.4831 51.4497 34.1592 51.5643 34.8611C51.6789 35.563 52.3092 36.8093 52.4954 37.0672C52.0513 37.9983 51.3207 41.0066 51.6645 42.2242H48.2122C48.2122 41.2071 49.5731 40.8633 49.5731 40.8633C50.0601 39.1013 49.702 37.2391 48.3125 36.1217C46.9229 35.0044 46.0061 34.0016 46.0061 34.0016C44.3444 34.9041 42.9262 34.9327 41.1212 34.7895C39.3163 34.6462 36.4512 33.2567 35.692 33.3283C34.9328 33.3999 34.7036 34.0589 33.5432 34.9471C32.3829 35.8352 28.0042 40.3667 27.8705 42.2242C26.7245 42.2242 24.0122 42.2242 24.0122 42.2242C24.0122 40.6819 25.9222 40.7965 26.4953 39.9752C27.0683 39.1539 28.8064 34.5889 28.9401 33.7485C29.0738 32.9081 28.157 31.8767 27.8896 31.5902C27.6222 31.3037 24.3751 30.4824 23.8594 30.5015C23.3437 30.5206 22.828 30.7498 21.7202 31.1318C20.6124 31.5138 18.8552 30.597 18.053 30.5206C17.2508 30.4442 16.544 30.3296 16.2002 29.833C15.0351 30.6543 14.4621 30.9312 13.8891 30.0765Z" fill="#85828A"/>
<path d="M51.3628 24.5613C47.6096 21.8395 43.9711 21.6247 42.5099 21.8395C41.3261 22.0136 37.0878 22.3569 34.9952 22.58C35.9299 23.9119 35.8177 26.4331 34.9952 28.0375C34.1726 29.642 33.432 30.8484 36.2854 33.4158C36.289 33.419 36.2934 33.4217 36.297 33.4249C37.4551 33.7233 39.637 34.6717 41.1204 34.7895C42.8288 34.925 44.193 34.8971 45.7429 34.1295C44.7298 33.3 47.9276 31.0545 49.4146 30.6352C50.9044 30.215 52.4897 30.024 53.1392 29.5846C53.7858 29.1472 54.4204 29.3345 54.4259 29.3361C54.4315 28.2647 53.9647 26.4482 51.3628 24.5613Z" fill="#C3BEBA"/>
<path opacity="0.2" d="M54.286 30.263C54.3905 29.9706 54.7761 28.5194 53.5282 26.701C52.8827 28.9372 47.2754 30.157 46.1303 28.9355C43.4945 30.6163 35.396 31.3613 32.7983 28.6872C31.346 27.1923 25.8458 28.8783 24.9673 27.3885C24.0886 25.8986 21.8348 27.3885 21.8348 26.3953C21.8348 25.4053 19.2194 25.0297 17.695 25.8118C17.5258 25.9194 17.3679 26.0273 17.2241 26.1326C17.2195 26.136 17.214 26.1395 17.2094 26.143C17.0642 26.2499 16.9344 26.3542 16.8258 26.4526C16.0665 27.1401 14.7486 28.0283 14.0467 28.9308C13.3448 29.8333 13.531 29.9622 13.8891 30.0768C14.4621 30.9315 15.0351 30.6546 16.2002 29.8333C16.5441 30.3299 17.2508 30.4445 18.053 30.5209C18.8552 30.5973 20.6124 31.5141 21.7202 31.1321C22.828 30.7501 23.3437 30.5209 23.8594 30.5018C24.3751 30.4827 27.6222 31.304 27.8896 31.5905C28.157 31.877 29.0738 32.9084 28.9401 33.7488C28.8064 34.5892 27.0683 39.1542 26.4953 39.9755C25.9223 40.7968 24.0122 40.6822 24.0122 42.2246C24.0122 42.2246 26.7245 42.2246 27.8705 42.2246C28.0042 40.3671 32.3829 35.8355 33.5432 34.9474C34.7036 34.0592 34.9328 33.4002 35.692 33.3286C36.4512 33.257 39.3163 34.6465 41.1213 34.7898C42.9262 34.933 44.3444 34.9044 46.0061 34.0019C46.0061 34.0019 46.923 35.0046 48.3125 36.122C49.702 37.2394 50.0602 39.1016 49.5731 40.8636C49.5731 40.8636 48.2122 41.2075 48.2122 42.2246H51.6646C51.3208 41.0069 52.0514 37.9986 52.4954 37.0675C52.3092 36.8096 51.6789 35.5634 51.5643 34.8614C51.4497 34.1595 52.0657 32.4834 53.0398 31.7529C53.4695 31.9247 54.1428 30.6641 54.286 30.263Z" fill="black"/>
<path opacity="0.2" d="M18.0526 30.5209C18.8548 30.5973 20.612 31.5141 21.7199 31.1322C22.8277 30.7501 23.3434 30.5209 23.8591 30.5018C24.3748 30.4827 27.6218 31.304 27.8892 31.5905C28.1566 31.877 29.0734 32.9084 28.9397 33.7488C28.8061 34.5892 27.0679 39.1542 26.4949 39.9755C25.9219 40.7968 24.0119 40.6822 24.0119 42.2246C24.0119 42.2246 26.7241 42.2246 27.8701 42.2246C28.0038 40.3671 32.3825 35.8355 33.5429 34.9474C34.7032 34.0592 34.9324 33.4003 35.6916 33.3286C36.4509 33.257 39.3159 34.6466 41.1209 34.7898C42.9259 34.9331 44.344 34.9044 46.0058 34.0019C46.0058 34.0019 46.9226 35.0047 48.3121 36.122C49.7016 37.2394 50.0598 39.1017 49.5727 40.8637C49.5727 40.8637 48.2118 41.2075 48.2118 42.2246H51.6642C51.3204 41.007 52.051 37.9987 52.495 37.0675C52.3088 36.8097 51.6785 35.5634 51.5639 34.8614C51.4922 34.4223 51.7065 33.6022 52.1154 32.8706C50.8621 33.5581 47.0942 33.7485 45.662 32.0011C45.662 32.0011 44.1487 33.3646 40.4242 33.1926C36.6997 33.0207 33.918 31.4825 32.7433 30.8522C31.5687 30.2219 30.42 32.068 28.0993 30.435C25.7786 28.8019 23.9164 29.7187 21.5384 29.8173C19.1604 29.9159 17.5274 28.2862 16.1808 29.2316C14.8345 30.177 13.5767 29.7622 13.6773 29.4713C13.448 29.8961 13.6196 29.9907 13.8888 30.0769C14.4618 30.9316 15.0348 30.6546 16.1999 29.8333C16.5437 30.3299 17.2504 30.4445 18.0526 30.5209Z" fill="black"/>
</svg>
