<svg width="68" height="68" viewBox="0 0 68 68" fill="none" xmlns="http://www.w3.org/2000/svg">
<g clip-path="url(#clip0_2883_12603)">
<path opacity="0.4" d="M34 68C51.6731 68 66 53.6731 66 36C66 18.3269 51.6731 4 34 4C16.3269 4 2 18.3269 2 36C2 53.6731 16.3269 68 34 68Z" fill="black" fill-opacity="0.05"/>
<path d="M34 66C51.6731 66 66 51.6731 66 34C66 16.3269 51.6731 2 34 2C16.3269 2 2 16.3269 2 34C2 51.6731 16.3269 66 34 66Z" fill="black" fill-opacity="0.05"/>
<path d="M34 65C51.6731 65 66 50.6731 66 33C66 15.3269 51.6731 1 34 1C16.3269 1 2 15.3269 2 33C2 50.6731 16.3269 65 34 65Z" fill="black" fill-opacity="0.05"/>
<path d="M34 64C51.6731 64 66 49.6731 66 32C66 14.3269 51.6731 0 34 0C16.3269 0 2 14.3269 2 32C2 49.6731 16.3269 64 34 64Z" fill="white"/>
<path opacity="0.2" d="M34.9961 51.5098C41.0712 51.5098 45.9961 50.8382 45.9961 50.0098C45.9961 49.1813 41.0712 48.5098 34.9961 48.5098C28.921 48.5098 23.9961 49.1813 23.9961 50.0098C23.9961 50.8382 28.921 51.5098 34.9961 51.5098Z" fill="black"/>
<path opacity="0.19" d="M34.2129 51.5098C44.154 51.5098 52.2129 50.8382 52.2129 50.0098C52.2129 49.1813 44.154 48.5098 34.2129 48.5098C24.2718 48.5098 16.2129 49.1813 16.2129 50.0098C16.2129 50.8382 24.2718 51.5098 34.2129 51.5098Z" fill="#020202"/>
<path d="M28.3209 36.7833C27.8877 35.1165 29.4834 26.6288 30.5697 24.3256C31.656 22.0224 32.3209 20.599 33.105 20.2589C33.8891 19.9188 35.5172 21.1755 34.9275 25.3029C34.3379 29.4304 33.795 34.2015 35.2014 37.4155C32.5872 38.1717 30.0755 38.1116 28.3209 36.7833Z" fill="#87817B"/>
<path d="M42.1133 34.6168C42.7183 32.1161 43.2427 30.9096 43.2427 29.3751C43.2427 27.8405 43.9687 22.113 44.2107 20.8223C44.4527 19.5315 44.6141 14.409 45.7031 13.804C46.7921 13.1989 48.2442 14.2477 48.1635 17.2324C48.0829 20.2172 48.5669 24.7751 48.6879 26.7515C48.8089 28.7279 47.1955 34.0118 47.1955 34.0118L42.1133 34.6168Z" fill="#87817B"/>
<path d="M17.2971 31.2348C19.2259 30.4502 19.5669 30.2929 20.3736 29.7283C21.1803 29.1636 23.439 27.8728 24.5684 27.7115C25.6978 27.5502 28.4406 26.2594 29.0456 25.8561C29.6506 25.4527 34.4505 23.315 35.2975 23.315C36.1445 23.315 41.5494 19.6445 42.1141 19.5638C42.6788 19.4832 43.3645 19.2008 43.9695 18.5958C44.5745 17.9908 46.1073 17.6278 47.1963 16.8614C48.2854 16.095 49.6568 15.7724 50.2618 15.0867C50.8668 14.401 49.8181 12.6504 48.608 13.0618C47.398 13.4733 47.2367 13.5943 46.1476 14.3606C45.0586 15.127 43.7678 14.7236 43.1225 15.3287C42.4771 15.9337 40.7831 17.4261 39.4117 17.8698C38.0403 18.3135 35.5798 19.1202 35.0152 19.8865C34.4505 20.6529 31.143 21.8226 29.3279 22.7906C27.5129 23.7587 26.6658 23.5973 25.6978 24.162C24.7297 24.7267 18.1148 27.7518 16.8241 28.5182C15.5334 29.2846 15.8098 31.8398 17.2971 31.2348Z" fill="#776B53"/>
<path d="M30.9006 23.396C29.4214 23.8397 19.8766 28.6885 16.0608 29.6164C15.8264 30.5781 16.2765 31.6501 17.2968 31.2351C19.2256 30.4505 19.5665 30.2933 20.3732 29.7285C21.1799 29.1639 23.4387 27.8732 24.568 27.7118C25.6975 27.5505 28.4402 26.2598 29.0453 25.8564C29.6503 25.4531 34.4501 23.3153 35.2971 23.3153C36.1442 23.3153 41.5491 19.6448 42.1138 19.5641C42.6784 19.4835 43.3642 19.2011 43.9692 18.5961C44.5742 17.9911 46.107 17.6281 47.196 16.8617C48.285 16.0954 49.6564 15.7727 50.2614 15.087C50.5343 14.7777 50.4597 14.256 50.1967 13.8096C46.5711 15.2542 42.9236 18.1381 42.1138 18.6365C41.0651 19.2818 32.514 22.912 30.9006 23.396Z" fill="#5E5442"/>
<path d="M38.201 16.0953C40.3791 15.3693 41.5286 19.544 41.5891 21.9641C41.6496 24.3842 42.6177 30.9184 44.0697 32.915C45.8243 31.0092 52.1771 31.3419 52.2073 35.6679C52.2073 38.2997 49.5351 40.256 48.2746 40.2358C47.6697 40.2261 41.8916 44.8945 41.1354 45.4088C40.3791 45.923 38.1909 48.0003 33.8045 48.0003C29.418 48.0003 26.4938 46.0743 24.2854 42.9584C22.0771 39.8425 19.3242 31.9167 19.3242 29.8596C19.3242 27.8025 19.5057 25.9572 19.9897 25.2009C20.4738 24.4447 21.3208 23.8396 21.7443 23.8396C22.1678 23.8396 23.2434 23.8704 23.3196 25.6242C23.6401 32.9957 28.6175 35.8294 30.5172 36.4241C34.2482 37.5923 38.1102 35.8191 38.1102 35.8191C36.2952 32.9453 35.4985 29.4059 36.2952 25.0194C37.1894 20.0957 36.0834 16.9121 38.201 16.0953Z" fill="#B1AAA0"/>
<path d="M49.1367 33.7769C50.1047 34.1648 51.0728 34.3668 51.4056 34.9718C51.7383 35.5769 51.451 37.0138 51.2543 37.3163C51.0577 37.6188 50.2409 39.3583 47.8208 38.8742C45.4007 38.3902 44.7654 37.1953 44.5537 36.076C44.3419 34.9567 45.3705 33.7013 45.9301 33.4593C46.4898 33.2173 47.6783 33.2082 49.1367 33.7769Z" fill="#D9D8DE"/>
<path d="M44.6077 34.8034C45.0339 34.5547 46.1401 34.6332 46.6319 34.7348C47.2101 34.8543 47.5425 34.6876 47.7222 34.8034C48.0429 35.0103 47.7845 35.5717 48.5527 35.8001C49.321 36.0285 49.483 35.1895 49.8407 35.516C50.1636 35.8107 50.1636 35.8107 50.6002 36.2037C51.0727 36.6289 51.8924 37.0978 50.8957 38.219C49.8991 39.3402 48.0835 39.1049 47.1457 38.8247C46.5042 38.633 44.8425 38.1659 44.4173 36.3484C44.234 35.565 44.266 35.0029 44.6077 34.8034Z" fill="#5C5648"/>
<path opacity="0.1" d="M24.2854 42.9578C26.4937 46.0736 29.418 47.9996 33.8044 47.9996C38.1909 47.9996 40.379 45.9224 41.1353 45.4081C41.8916 44.8938 47.6697 40.2255 48.2746 40.2352C49.5351 40.2553 52.2073 38.2991 52.2073 35.6672C52.2073 33.7657 50.8839 32.8935 50.8839 32.8935C51.2619 34.4572 49.9989 39.9931 44.5254 36.7663C44.0092 37.7142 39.4513 45.6602 27.9559 40.215C22.7797 37.7631 19.9902 27.2889 20.6146 24.4678C20.5118 24.562 20.4124 24.6663 20.3169 24.7743C20.2963 24.7977 20.2757 24.821 20.2557 24.845C20.1602 24.9584 20.069 25.0764 19.9897 25.2003C19.5057 25.9566 19.3242 27.8019 19.3242 29.859C19.3242 31.9161 22.0771 39.8419 24.2854 42.9578Z" fill="black"/>
</g>
<defs>
<clipPath id="clip0_2883_12603">
<rect width="64" height="68" fill="white" transform="translate(2)"/>
</clipPath>
</defs>
</svg>
