<svg width="68" height="68" viewBox="0 0 68 68" fill="none" xmlns="http://www.w3.org/2000/svg">
<path opacity="0.4" d="M34 68C51.6731 68 66 53.6731 66 36C66 18.3269 51.6731 4 34 4C16.3269 4 2 18.3269 2 36C2 53.6731 16.3269 68 34 68Z" fill="black" fill-opacity="0.05"/>
<path d="M34 66C51.6731 66 66 51.6731 66 34C66 16.3269 51.6731 2 34 2C16.3269 2 2 16.3269 2 34C2 51.6731 16.3269 66 34 66Z" fill="black" fill-opacity="0.05"/>
<path d="M34 65C51.6731 65 66 50.6731 66 33C66 15.3269 51.6731 1 34 1C16.3269 1 2 15.3269 2 33C2 50.6731 16.3269 65 34 65Z" fill="black" fill-opacity="0.05"/>
<path d="M34 64C51.6731 64 66 49.6731 66 32C66 14.3269 51.6731 0 34 0C16.3269 0 2 14.3269 2 32C2 49.6731 16.3269 64 34 64Z" fill="white"/>
<path opacity="0.19" d="M34 43.5195C45.598 43.5195 55 42.848 55 42.0195C55 41.1911 45.598 40.5195 34 40.5195C22.402 40.5195 13 41.1911 13 42.0195C13 42.848 22.402 43.5195 34 43.5195Z" fill="#020202"/>
<path opacity="0.2" d="M34.4805 43.5195C44.5445 43.5195 52.7031 42.848 52.7031 42.0195C52.7031 41.1911 44.5445 40.5195 34.4805 40.5195C24.4164 40.5195 16.2578 41.1911 16.2578 42.0195C16.2578 42.848 24.4164 43.5195 34.4805 43.5195Z" fill="black"/>
<path d="M47.4687 30.7699C48.0104 33.3126 46.5774 35.2858 47.4687 37.2559C47.0867 39.8901 45.4315 41.5282 45.1004 41.7496C44.1582 41.7496 41.2043 41.7496 41.2043 41.7496C40.8477 40.6649 40.7092 39.7077 42.7272 39.8806C44.5352 40.0356 41.0005 35.3965 41.7645 32.7179C42.5284 30.0394 45.839 28.6138 46.6283 29.1983C47.3159 29.7074 47.3414 30.1723 47.4687 30.7699Z" fill="#514639"/>
<path d="M29.3726 35.6179C27.6102 35.972 23.1833 39.0564 22.3572 41.7496C21.1455 41.7496 18.2266 41.7496 18.2266 41.7496C18.2266 40.3993 18.8599 39.8385 19.989 39.8385C21.118 39.8385 21.0844 33.8069 20.0242 31.6595C22.2701 28.135 29.3726 35.6179 29.3726 35.6179Z" fill="#514639"/>
<path d="M16.25 27.9496C16.25 27.4814 16.4428 27.6467 16.7732 27.0546C17.1037 26.4625 16.4428 25.4024 17.503 24.3422C18.1649 23.6803 19.2776 23.0506 20.3854 22.7781C20.8558 21.7603 22.3776 22.1822 22.2807 22.745C23.7815 23.1856 24.4286 22.7863 25.5439 23.2682C26.6591 23.7501 30.776 23.1443 35.7327 22.9791C40.6895 22.8138 46.3346 24.2458 48.3999 27.2198C50.4652 30.1939 52.1774 35.2697 51.9847 37.7756C51.7919 40.2815 50.849 41.7323 49.6097 41.7488C47.0625 41.7826 48.5927 33.5259 46.7752 30.8823C45.894 33.4984 44.1867 35.8941 44.6273 37.7391C43.2504 40.4378 42.5069 42.448 41.6257 42.448C40.7445 42.448 39.0647 42.448 39.0647 42.448C38.3763 42.448 37.4951 40.2175 38.872 40.2175C40.2489 40.2175 40.8807 39.8081 40.9908 38.8718C41.101 37.9355 39.4509 38.3858 38.3687 35.7123C37.9872 34.77 35.7127 34.9146 36.0911 35.5403C37.0791 37.1738 35.8338 41.0711 34.8975 42.6408C33.5206 42.6408 30.9558 42.6408 30.9558 42.6408C30.9558 41.5944 31.6463 41.0426 32.2539 41.0161C32.7613 40.9939 31.3871 38.9086 29.748 38.0971C25.9993 36.2411 20.8409 33.8531 18.8454 29.8703C17.4616 30.0149 16.8765 29.3746 16.25 27.9496Z" fill="#91826D"/>
<path opacity="0.19" d="M39.2188 27.1978C35.8443 28.362 32.8249 24.983 30.7504 26.5001C27.3007 29.0227 25.9791 24.5585 23.5717 23.8269C22.6677 23.5522 17.489 25.5249 18.8466 29.8708C20.842 33.8535 26.0004 36.2416 29.7492 38.0975C31.3882 38.909 32.7625 40.9943 32.255 41.0165C31.6475 41.043 30.957 41.5948 30.957 42.6412C30.957 42.6412 33.5218 42.6412 34.8986 42.6412C35.8349 41.0716 37.0802 37.1743 36.0922 35.5408C35.7138 34.915 37.9884 34.7704 38.3698 35.7127C39.452 38.3862 41.1022 37.936 40.992 38.8722C40.8819 39.8085 40.25 40.2179 38.8731 40.2179C37.4963 40.2179 38.3775 42.4484 39.0659 42.4484C39.0659 42.4484 40.7457 42.4484 41.6269 42.4484C42.5081 42.4484 43.2516 40.4382 44.6284 37.7395C44.1878 35.8946 45.8952 33.4988 46.7764 30.8827C48.5938 33.5263 47.0636 41.783 49.6108 41.7493C50.8502 41.7328 51.7931 40.2819 51.9858 37.7761C52.1622 35.4828 50.7418 31.0416 48.9168 28.0241C48.4609 29.8756 40.6374 31.672 39.2188 27.1978Z" fill="#020202"/>
<path opacity="0.19" d="M44.5718 36.805C43.0155 36.8014 39.7767 33.391 38.6483 31.7468C38.4227 32.4883 35.8435 32.3217 34.3194 31.7988C31.7509 30.9176 30.5884 35.6156 27.3966 32.9827C24.2049 30.3497 21.271 28.2649 18.8457 29.8703C20.8412 33.8531 25.9996 36.2412 29.7483 38.0971C31.3873 38.9086 32.7616 40.9939 32.2542 41.0161C31.6466 41.0426 30.9561 41.5944 30.9561 42.6408C30.9561 42.6408 33.5209 42.6408 34.8978 42.6408C35.834 41.0712 37.0794 37.1738 36.0914 35.5404C35.7129 34.9146 37.9875 34.77 38.3689 35.7123C39.4512 38.3858 41.1013 37.9356 40.9911 38.8718C40.881 39.8081 40.2491 40.2175 38.8723 40.2175C37.4954 40.2175 38.3766 42.448 39.065 42.448C39.065 42.448 40.7448 42.448 41.626 42.448C42.5072 42.448 43.2507 40.4378 44.6276 37.7391C44.5572 37.4442 44.5569 37.1306 44.5841 36.809C44.5797 36.8088 44.5762 36.805 44.5718 36.805Z" fill="#020202"/>
<path d="M16.2286 24.155C15.7263 23.4164 16.5978 22.4489 17.2478 22.9696C17.7795 22.5708 19.3822 22.172 19.6259 22.2495C19.8696 22.3271 20.2426 22.5265 20.4531 22.5154C20.6636 22.5043 21.0439 22.1796 21.2876 22.1242C21.5314 22.0688 23.0195 22.1166 23.3519 22.2274C23.8356 21.7251 24.9693 22.0944 24.7145 22.9475C25.2463 23.4792 26.5055 27.2569 25.1466 28.409C23.7876 29.5612 21.6163 29.4467 21.0255 29.2842C20.3866 29.5981 19.3414 30.194 17.6318 29.6646C15.3423 28.9556 16.1416 25.056 16.2286 24.155Z" fill="#91826D"/>
<path d="M16 28.4413C16.2782 26.9569 18.5522 24.9119 19.4223 25.0539C20.0841 25.1619 19.9152 25.4584 20.5038 25.4165C21.0707 25.3761 20.8266 25.0358 21.8701 24.7265C22.9136 24.4171 25.9369 27.1506 25.9353 27.7121C25.9336 28.2736 24.6464 30.3492 22.694 30.4103C20.7416 30.4714 19.8029 31.242 17.9102 30.2704C16.0176 29.2989 16 28.4413 16 28.4413Z" fill="#A39482"/>
<path d="M25.7886 28.1761C25.8759 27.9866 25.9355 27.8172 25.9358 27.7116C25.9371 27.2498 23.8946 25.3225 22.5879 24.8232C23.4797 25.3029 25.7284 28.101 25.7886 28.1761Z" fill="#5F5242"/>
<path d="M18.7415 25.2314C17.7054 25.7344 16.2218 27.2569 16 28.4409C16 28.4409 16.0055 28.6581 16.2506 28.9973C16.2519 28.9949 17.8814 25.8193 18.7415 25.2314Z" fill="#5F5242"/>
<path d="M22.4375 25.8311C23.0776 26.2042 24.4796 28.6953 24.8717 29.4077C25.1183 29.1729 25.3272 28.9294 25.4915 28.6899C25.2403 28.3473 23.6849 26.2776 22.4375 25.8311Z" fill="#5F5242"/>
<path d="M19.237 26.0186C18.1209 26.5243 17.0101 28.7561 16.6836 29.456C16.859 29.6122 17.0739 29.777 17.3532 29.9516C17.7263 28.9122 18.6687 26.4122 19.237 26.0186Z" fill="#5F5242"/>
<g opacity="0.19">
<path d="M25.7886 28.1761C25.8759 27.9866 25.9355 27.8172 25.9358 27.7116C25.9371 27.2498 23.8946 25.3225 22.5879 24.8232C23.4797 25.3029 25.7284 28.101 25.7886 28.1761Z" fill="#020202"/>
<path d="M18.7415 25.2314C17.7054 25.7344 16.2218 27.2569 16 28.4409C16 28.4409 16.0055 28.6581 16.2506 28.9973C16.2519 28.9949 17.8814 25.8193 18.7415 25.2314Z" fill="#020202"/>
<path d="M22.4375 25.8311C23.0776 26.2042 24.4796 28.6953 24.8717 29.4077C25.1183 29.1729 25.3272 28.9294 25.4915 28.6899C25.2403 28.3473 23.6849 26.2776 22.4375 25.8311Z" fill="#020202"/>
<path d="M19.237 26.0186C18.1209 26.5243 17.0101 28.7561 16.6836 29.456C16.859 29.6122 17.0739 29.777 17.3532 29.9516C17.7263 28.9122 18.6687 26.4122 19.237 26.0186Z" fill="#020202"/>
</g>
<path d="M21.8701 24.7265C20.8266 25.0359 21.0707 25.3762 20.5038 25.4165C19.9152 25.4584 20.0841 25.1619 19.4223 25.0539C18.5522 24.9119 16.2781 26.9569 16 28.4413C16 28.4413 16.0218 29.1197 17.354 29.9525C17.6496 28.9317 18.7995 25.8904 19.4335 25.8904C20.0676 25.8904 19.8419 26.1054 20.519 26.0731C21.1959 26.0409 21.1422 25.6218 21.6258 25.568C22.1095 25.5143 23.2648 26.5775 24.8721 29.408C25.5394 28.7728 25.9343 28.0189 25.9353 27.7121C25.9369 27.1506 22.9136 24.4171 21.8701 24.7265Z" fill="#5F5242"/>
</svg>
