<svg width="68" height="68" viewBox="0 0 68 68" fill="none" xmlns="http://www.w3.org/2000/svg">
<g clip-path="url(#clip0_2883_12627)">
<path opacity="0.4" d="M34 68C51.6731 68 66 53.6731 66 36C66 18.3269 51.6731 4 34 4C16.3269 4 2 18.3269 2 36C2 53.6731 16.3269 68 34 68Z" fill="black" fill-opacity="0.05"/>
<path d="M34 66C51.6731 66 66 51.6731 66 34C66 16.3269 51.6731 2 34 2C16.3269 2 2 16.3269 2 34C2 51.6731 16.3269 66 34 66Z" fill="black" fill-opacity="0.05"/>
<path d="M34 65C51.6731 65 66 50.6731 66 33C66 15.3269 51.6731 1 34 1C16.3269 1 2 15.3269 2 33C2 50.6731 16.3269 65 34 65Z" fill="black" fill-opacity="0.05"/>
<path d="M34 64C51.6731 64 66 49.6731 66 32C66 14.3269 51.6731 0 34 0C16.3269 0 2 14.3269 2 32C2 49.6731 16.3269 64 34 64Z" fill="white"/>
<path opacity="0.2" d="M35.0859 45C43.3702 45 50.0859 44.3284 50.0859 43.5C50.0859 42.6716 43.3702 42 35.0859 42C26.8017 42 20.0859 42.6716 20.0859 43.5C20.0859 44.3284 26.8017 45 35.0859 45Z" fill="black"/>
<path opacity="0.19" d="M34 45C45.598 45 55 44.3284 55 43.5C55 42.6716 45.598 42 34 42C22.402 42 13 42.6716 13 43.5C13 44.3284 22.402 45 34 45Z" fill="#020202"/>
<path d="M36.3906 31.8928C36.6592 32.9288 39.1038 35.039 40.8934 35.5296C42.6829 36.0203 42.5386 38.416 41.817 39.7149C41.0954 41.0138 40.6625 42.4281 41.0088 42.7456C42.1057 42.6013 43.0005 41.2736 43.0005 41.2736C42.6252 40.2633 44.8189 36.4244 44.8189 36.4244L40.1429 28.9775L36.3906 31.8928Z" fill="#535760"/>
<path d="M31.0148 32.5462C30.4736 33.0109 29.1188 36.9729 29.8115 40.1768C29.2487 40.718 28.8374 43.0343 28.8374 43.0343C25.3521 43.0343 25.0273 43.0343 25.0273 43.0343C25.0273 41.887 26.9757 42.0963 26.9757 42.0963C27.6684 41.4541 27.8849 40.5448 27.7117 38.5532C27.5385 36.5616 27.2264 31.9502 27.2264 31.9502L31.0148 32.5462Z" fill="#535760"/>
<path d="M50.6921 32.4267C49.9128 31.7772 47.9636 28.4104 47.2362 26.9277C46.5214 25.4705 45.139 23.6246 44.0245 23.0098C42.9822 22.4349 40.7523 21.6963 37.7249 21.9274C36.5261 22.019 33.1387 22.417 32.0533 22.0357C31.1866 21.7312 29.5996 21.7042 29.0009 21.8192C28.367 21.941 27.5301 21.8756 26.4966 21.7358C26.2611 21.7161 24.6561 21.1428 23.5251 21.0627C22.8289 21.0134 20.5887 21.1512 19.7927 21.3104C19.6512 21.0804 18.7313 20.0544 18.466 20.0014C18.2006 19.9483 17.4577 21.4519 17.5108 22.0179C17.0155 22.0887 15.1758 24.1584 15.0696 24.3883C14.9635 24.6183 15.1404 25.5027 15.0696 25.6796C14.9989 25.8566 13 27.8142 13 28.1443C13 28.1443 13.8491 29.2529 14.8161 29.4416C15.5473 29.5124 17.1507 28.4533 17.953 28.451C18.9062 28.4482 20.7937 30.3357 22.4643 31.0224C23.8395 31.5876 25.6385 32.0772 26.2115 33.1611C26.669 34.0266 23.3291 36.4315 22.658 37.0376C21.987 37.6438 22.355 38.6396 22.5498 40.0684C22.7446 41.4971 22.6364 42.5146 23.9136 43.7701C24.2167 43.4238 24.8661 41.7352 24.4115 40.4148C24.4115 40.4148 23.7621 39.4406 23.9569 38.7912C24.1517 38.1417 28.128 35.2391 29.1476 34.769C29.0827 34.6175 28.9727 33.4195 29.0078 33.0213C30.0686 34.147 37.2095 32.4497 39.0279 30.458C39.7856 33.3156 44.0678 36.4748 45.4749 37.817C46.882 39.1592 46.3409 41.9518 45.9079 42.9259C45.9079 42.9259 44.2626 42.7527 44.2626 43.6836C44.2626 43.6836 45.6914 43.6836 47.4882 43.6836C47.4882 43.6836 48.3757 39.354 48.1593 37.3407C46.4707 36.6697 45.6914 33.5091 46.4491 31.9937C46.6223 34.2235 48.3974 35.5006 49.6746 35.9336C50.9518 36.3666 54.3289 36.1068 55 34.8079C54.2856 34.8512 51.4714 33.0761 50.6921 32.4267Z" fill="#ACB6C7"/>
<path d="M19.7105 25.0299C19.1745 26.8475 13.7588 28.2647 13.0605 28.2882C13.3233 28.5911 14.0007 29.2939 14.7563 29.4414C15.4875 29.5122 17.0909 28.4531 17.8932 28.4508C18.3572 28.4495 19.0444 28.8981 19.8182 29.436C19.8186 29.4363 19.8192 29.4362 19.8196 29.4365C19.8204 29.437 19.8208 29.4377 19.8216 29.4383C19.8224 29.4388 19.8231 29.4393 19.8239 29.4398C20.0339 29.5858 20.2493 29.7367 20.4697 29.8889C20.475 29.8926 20.48 29.8962 20.4854 29.8999C20.5201 29.9238 20.556 29.9468 20.5909 29.9707C20.7646 30.0896 20.9395 30.2084 21.1161 30.3218C21.2175 30.3868 21.3191 30.4442 21.4208 30.5052C21.5349 30.5743 21.6491 30.6474 21.7629 30.7102C21.9786 30.8289 22.1933 30.9354 22.4045 31.0222C22.3651 29.1981 22.9826 29.9001 23.2622 28.1291C23.4963 26.6468 25.4074 25.6384 27.9606 24.657C29.4156 24.0978 33.2616 24.6283 35.263 24.424C38.2819 24.1158 40.2731 22.4899 43.2791 24.3408C45.3764 25.6342 45.9374 27.348 47.5435 30.0384C49.0815 32.6148 50.4621 35.9354 54.1582 35.511C54.3314 35.4191 54.4854 35.3162 54.6164 35.2026C54.6233 35.1965 54.6293 35.19 54.6357 35.1838C54.6372 35.1824 54.6385 35.181 54.6399 35.1796C54.7654 35.0666 54.8699 34.9439 54.9402 34.8077C54.2258 34.8511 51.4116 33.0759 50.6323 32.4265C50.5349 32.3453 50.4192 32.2217 50.2899 32.0646C50.1606 31.9074 50.0176 31.7169 49.8658 31.5018C49.7899 31.3943 49.7117 31.2806 49.6319 31.162C49.4723 30.9247 49.3062 30.6674 49.138 30.399C48.8858 29.9966 48.6292 29.5694 48.3841 29.1478C48.139 28.7261 47.9053 28.3101 47.6987 27.93C47.6299 27.8032 47.5641 27.6805 47.5018 27.5629C47.3774 27.3277 47.2674 27.1129 47.1765 26.9276C46.4616 25.4703 45.0792 23.6244 43.9648 23.0097C42.9225 22.4347 40.6925 21.6961 37.6652 21.9273C37.5153 21.9387 37.3313 21.9549 37.1218 21.9739C35.0227 22.1395 35.3061 23.2899 30.8957 23.0025C30.1684 22.9551 28.4633 23.3525 27.5227 23.2996C26.7059 23.2538 25.2846 22.6948 24.5691 22.688C21.6247 22.6596 20.0795 23.2981 19.7105 25.0299Z" fill="#D5DCE9"/>
<path opacity="0.25" d="M50.6927 32.4266C50.6384 32.3814 50.5772 32.3201 50.5124 32.25C50.4917 32.2277 50.4691 32.2005 50.4475 32.1758C50.4005 32.1223 50.3523 32.0658 50.3013 32.0022C50.2752 31.9697 50.2484 31.9352 50.2214 31.9003C50.169 31.8328 50.1153 31.7614 50.0597 31.6855C50.0337 31.6499 50.0079 31.6148 49.9812 31.5775C49.9147 31.4846 49.8464 31.3866 49.7765 31.2844C49.7599 31.2599 49.7438 31.2372 49.7269 31.2124C49.541 30.9378 49.3463 30.6357 49.1489 30.3189C49.1474 30.3165 49.1459 30.3141 49.1444 30.3117C49.046 30.1536 48.9473 29.9925 48.8489 29.8294C48.8448 29.8227 48.8409 29.8161 48.8368 29.8094C48.7379 29.6453 48.6399 29.4806 48.5428 29.3151C48.4358 29.3771 48.3288 29.4391 48.3288 29.4391C44.5097 31.4263 40.2869 30.7376 38.8655 28.4656C37.7469 29.6484 33.4826 31.0522 32.0062 30.8191C29.2076 30.3772 29.7122 27.6332 26.7715 28.6054C23.7887 29.5914 20.483 29.5597 19.0781 28.903C19.7308 29.2614 20.9677 30.3602 22.4649 31.0223C23.8248 31.6237 25.6392 32.0771 26.2122 33.1611C26.6697 34.0265 23.3298 36.4315 22.6587 37.0376C21.9876 37.6438 22.3556 38.6396 22.5505 40.0683C22.7453 41.4971 22.6371 42.5146 23.9143 43.7701C24.2174 43.4238 24.8668 41.7352 24.4122 40.4147C24.4122 40.4147 23.7628 39.4405 23.9575 38.7911C24.1524 38.1416 28.1287 35.239 29.1483 34.7689C29.0833 34.6174 28.9734 33.4194 29.0085 33.0212C30.0692 34.1469 37.2102 32.4496 39.0286 30.458C39.7863 33.3156 44.0684 36.4747 45.4756 37.817C46.8827 39.1591 46.3415 41.9517 45.9085 42.9259C45.9085 42.9259 44.2633 42.7527 44.2633 43.6835C44.2633 43.6835 45.6921 43.6835 47.4889 43.6835C47.4889 43.6835 48.3764 39.3539 48.16 37.3407C46.4714 36.6696 45.6921 33.509 46.4497 31.9937C46.6229 34.2234 48.3981 35.5006 49.6753 35.9336C50.9525 36.3665 54.3296 36.1068 55.0007 34.8079C54.2863 34.8512 51.4721 33.0761 50.6927 32.4266Z" fill="black"/>
</g>
<defs>
<clipPath id="clip0_2883_12627">
<rect width="64" height="68" fill="white" transform="translate(2)"/>
</clipPath>
</defs>
</svg>
