<svg width="68" height="68" viewBox="0 0 68 68" fill="none" xmlns="http://www.w3.org/2000/svg">
<path opacity="0.4" d="M34 68C51.6731 68 66 53.6731 66 36C66 18.3269 51.6731 4 34 4C16.3269 4 2 18.3269 2 36C2 53.6731 16.3269 68 34 68Z" fill="black" fill-opacity="0.05"/>
<path d="M34 66C51.6731 66 66 51.6731 66 34C66 16.3269 51.6731 2 34 2C16.3269 2 2 16.3269 2 34C2 51.6731 16.3269 66 34 66Z" fill="black" fill-opacity="0.05"/>
<path d="M34 65C51.6731 65 66 50.6731 66 33C66 15.3269 51.6731 1 34 1C16.3269 1 2 15.3269 2 33C2 50.6731 16.3269 65 34 65Z" fill="black" fill-opacity="0.05"/>
<path d="M34 64C51.6731 64 66 49.6731 66 32C66 14.3269 51.6731 0 34 0C16.3269 0 2 14.3269 2 32C2 49.6731 16.3269 64 34 64Z" fill="white"/>
<path opacity="0.2" d="M34 42.0772C45.598 42.0772 55 41.4056 55 40.5772C55 39.7487 45.598 39.0771 34 39.0771C22.402 39.0771 13 39.7487 13 40.5772C13 41.4056 22.402 42.0772 34 42.0772Z" fill="black"/>
<path opacity="0.2" d="M34 42.0772C43.9411 42.0772 52 41.4056 52 40.5771C52 39.7487 43.9411 39.0771 34 39.0771C24.0589 39.0771 16 39.7487 16 40.5771C16 41.4056 24.0589 42.0772 34 42.0772Z" fill="black"/>
<path d="M46.4762 29.6953C46.8001 31.3429 50.7927 36.2678 50.7927 36.2678C50.4652 38.1217 50.7927 40.5777 50.7927 40.5777C43.7185 40.5777 45.2823 40.5777 45.2823 40.5777C45.3624 39.311 46.8723 39.0573 48.2141 38.8865C48.8261 38.8087 48.3247 37.9431 47.2815 37.5605C45.7988 37.0168 42.9919 36.791 41.7835 35.7025C41.0768 35.0659 40.4232 34.2953 39.8695 33.5578C38.8103 32.1471 46.1943 28.2616 46.4762 29.6953Z" fill="#543F3F"/>
<path d="M23.0546 32.8477C23.3989 33.0729 23.876 35.1911 23.876 35.5294C23.876 35.8676 22.4023 38.7909 21.5326 38.8875C20.6628 38.9842 17.7637 39.3707 17.7637 40.5787H24.8666C24.8666 40.5787 26.8767 35.3539 29.0703 33.7174L23.0546 32.8477Z" fill="#543F3F"/>
<path d="M44.7845 24.5216C44.0113 23.7355 37.7299 22.4569 35.6521 22.5052C33.5744 22.5535 20.9632 27.2405 19.9606 27.8324C18.9579 28.4243 17.4721 28.3035 16.6507 29.4873C16.34 29.9351 15.0562 31.4805 15.3461 32.2898C15.0562 33.1233 13.9129 34.0032 14.0053 34.2105C14.6455 35.648 16.3004 35.1769 17.3393 34.7541C18.3782 34.3313 21.8618 32.7428 23.4173 33.5564C27.7729 35.8346 28.2082 34.7398 30.0564 36.7582L30.0582 36.7595C31.8723 39.0765 31.1919 39.9035 30.2543 39.9001C29.223 39.8963 27.6773 40.4155 27.484 41.4946C27.484 41.4946 30.6715 41.4946 32.8298 41.4946C32.8298 41.4946 35.2712 38.1801 33.5638 34.8769C32.9162 33.6241 37.6332 33.3553 38.3097 33.7394C38.5106 34.9791 39.9042 36.9526 41.7403 37.7579C43.0451 38.3302 41.1356 39.9001 40.3697 39.9001C39.7542 39.9001 37.0695 39.884 37.0695 41.4946C38.4547 41.4946 43.9631 41.4946 43.9631 41.4946C44.865 40.5926 47.8608 34.0212 46.0408 30.0913C47.4903 31.8308 48.7949 33.4736 53.1437 36.711C57.2024 28.9316 45.5575 25.3077 44.7845 24.5216Z" fill="#916F6E"/>
<path opacity="0.2" d="M53.5575 35.7747C53.6152 35.6222 53.6747 35.4691 53.7203 35.32C53.7472 35.2322 53.7641 35.1473 53.7867 35.0607C53.8099 34.9728 53.8327 34.8852 53.8517 34.7986C53.8631 34.7521 53.8773 34.7048 53.8863 34.6591C53.904 34.5686 53.9125 34.4811 53.9259 34.392C53.9292 34.3698 53.9315 34.3478 53.935 34.3255C53.9492 34.2237 53.9681 34.1204 53.9768 34.0204C53.9845 33.9312 53.9838 33.8447 53.9873 33.7569C53.992 33.6391 53.9991 33.5206 53.9964 33.4053C53.9943 33.3173 53.9847 33.2318 53.9785 33.1453C53.9771 33.1255 53.9751 33.106 53.9734 33.0863C53.9671 32.9944 53.9618 32.9023 53.9497 32.8126C53.9384 32.7276 53.9205 32.6451 53.9052 32.5616C53.8856 32.4543 53.8674 32.3465 53.8416 32.2416C53.8215 32.1595 53.7957 32.0797 53.772 31.9991C53.7417 31.8964 53.7123 31.7932 53.6765 31.6927C53.6484 31.6138 53.6153 31.537 53.5838 31.4595C53.5437 31.3606 53.504 31.2616 53.4588 31.1651C53.4237 31.0902 53.3846 31.0172 53.3465 30.9437C53.3449 30.9405 53.3431 30.9374 53.3415 30.9343C53.2936 30.842 53.246 30.7496 53.1937 30.6595C53.1523 30.5883 53.1076 30.5187 53.0636 30.4487C53.0207 30.3804 52.9767 30.3127 52.9314 30.2458C52.9159 30.2224 52.9015 30.1985 52.8855 30.1754C52.8385 30.1075 52.7891 30.0413 52.7398 29.9749C52.6996 29.9205 52.6582 29.8668 52.6164 29.8134C52.5905 29.7796 52.5657 29.7452 52.5389 29.7119C52.487 29.6474 52.433 29.5842 52.3791 29.521C52.3281 29.4611 52.2757 29.4023 52.2234 29.3433C52.2015 29.319 52.1808 29.2938 52.1587 29.2696C52.1029 29.2086 52.0455 29.1487 51.988 29.0891C51.9513 29.051 51.9134 29.0139 51.8764 28.9763C51.8335 28.9331 51.7919 28.8892 51.7483 28.8467C51.6903 28.7903 51.6312 28.7347 51.5719 28.6794C51.5265 28.6371 51.4802 28.5958 51.4341 28.5541C51.3941 28.5178 51.3547 28.4808 51.3141 28.4451C51.254 28.3923 51.1932 28.3401 51.1321 28.2883C51.0421 28.2122 50.9515 28.137 50.8597 28.0632C50.7984 28.014 50.7369 27.9655 50.6748 27.9174C50.6659 27.9104 50.6567 27.9037 50.6477 27.8968C50.5624 27.8308 50.4767 27.7654 50.3901 27.7014C50.329 27.6562 50.2679 27.6115 50.2064 27.5673C50.107 27.496 50.0072 27.4258 49.9069 27.357C49.8478 27.3165 49.7887 27.2761 49.7295 27.2365C49.7177 27.2286 49.7059 27.2212 49.6941 27.2134C49.603 27.1527 49.5118 27.0927 49.4205 27.0341C49.3632 26.9973 49.3059 26.9607 49.2486 26.9247C49.1429 26.8583 49.0373 26.7936 48.932 26.73C48.878 26.6974 48.824 26.6647 48.7702 26.6328C48.6607 26.5679 48.5518 26.5048 48.4435 26.4428C48.395 26.4151 48.3465 26.3871 48.2984 26.36C48.2904 26.3556 48.2826 26.3514 48.2746 26.3469C48.1694 26.2878 48.0648 26.23 47.9613 26.1736C47.9198 26.151 47.878 26.128 47.8367 26.1058C47.7175 26.0416 47.6001 25.9796 47.4844 25.9191C47.4549 25.9037 47.4249 25.8878 47.3956 25.8726C47.2618 25.8033 47.1304 25.7362 47.0026 25.6719C46.9947 25.6679 46.9865 25.6637 46.9786 25.6597C46.779 25.5594 46.5902 25.4667 46.4095 25.3786C46.3549 25.352 46.2994 25.3248 46.2468 25.2993C46.1716 25.2628 46.1014 25.2288 46.0306 25.1946C45.7916 25.079 45.5794 24.976 45.3985 24.8851C45.3872 24.8795 45.375 24.8733 45.3639 24.8677C45.1529 24.7611 44.9854 24.6703 44.8802 24.5977C44.88 24.5975 44.8803 24.5979 44.8802 24.5977C45.7605 26.4517 39.9308 30.8559 38.1064 28.3824C38.0212 28.5101 32.0212 32.0421 29.8936 30.0846C27.7659 28.1271 23.5319 30.4888 20.0638 30.1697C20.0638 30.1697 20.617 29.3612 19.7872 29.1697C18.9574 28.9782 18.6595 29.8931 19.0212 30.2761C18.4919 31.462 15.774 31.909 15.3541 31.7203C15.354 31.7205 15.3542 31.7201 15.3541 31.7203C15.3312 31.8187 15.3166 31.9146 15.3122 32.0058C15.3105 32.1062 15.3153 32.2041 15.3461 32.2901C15.0562 33.1236 13.9129 34.0034 14.0053 34.2108C14.6455 35.6483 16.3004 35.1771 17.3393 34.7543C18.3782 34.3315 21.8618 32.743 23.4173 33.5566C27.7729 35.8349 28.2082 34.7401 30.0564 36.7584C30.057 36.759 30.0577 36.7592 30.0582 36.7598C31.8723 39.0768 31.1919 39.9037 30.2543 39.9003C29.2229 39.8965 27.6772 40.4157 27.484 41.4948C27.484 41.4948 30.6715 41.4948 32.8298 41.4948C32.8298 41.4948 35.2712 38.1804 33.5638 34.8771C32.9162 33.6243 37.6332 33.3555 38.3097 33.7396C38.3346 33.8931 38.3782 34.0579 38.4382 34.2302C38.4965 34.3973 38.5721 34.572 38.6606 34.75C38.6634 34.7556 38.6648 34.7607 38.6675 34.7662C39.1596 35.6672 40.1159 36.8112 41.211 37.4777C41.3838 37.5789 41.558 37.6782 41.7403 37.7582C43.0451 38.3304 41.1356 39.9003 40.3697 39.9003C40.3013 39.9003 40.2048 39.9004 40.0919 39.9023C40.0868 39.9024 40.0826 39.9023 40.0773 39.9025C39.9638 39.9045 39.8302 39.9093 39.6866 39.9178C39.6775 39.9183 39.6689 39.9188 39.6596 39.9193C39.5146 39.9284 39.3578 39.9424 39.196 39.9626C39.1861 39.9638 39.1763 39.965 39.1664 39.9663C39.0022 39.9875 38.8333 40.0157 38.6658 40.053C38.6589 40.0545 38.652 40.0562 38.6451 40.0577C38.4742 40.0965 38.305 40.1445 38.1448 40.2048C38.143 40.2055 38.1413 40.2064 38.1395 40.207C37.6487 40.3929 37.2405 40.6913 37.1138 41.1712C37.0965 41.2776 37.0695 41.3777 37.0695 41.4948C38.4547 41.4948 43.9631 41.4948 43.9631 41.4948C44.865 40.5929 47.8608 34.0215 46.0408 30.0916C47.4903 31.8311 48.7949 33.4739 53.1437 36.7112C53.2687 36.4716 53.3783 36.236 53.4743 36.0041C53.5065 35.9264 53.5286 35.8514 53.5575 35.7747Z" fill="#1E1A1C"/>
<path opacity="0.2" d="M44.1979 41.1984C44.2214 41.1645 44.247 41.1229 44.2717 41.0851C44.3433 40.975 44.4188 40.8506 44.4987 40.7092C44.5152 40.6799 44.5319 40.65 44.5487 40.6201C44.5555 40.6078 44.562 40.5967 44.5688 40.5842C45.2479 39.3387 46.138 37.1096 46.4747 34.8151C46.4747 34.815 46.4747 34.8152 46.4747 34.8151C44.5442 35.9979 38.4474 33.5544 38.2081 31.1289C38.2081 31.1289 31.9688 33.3311 30.6921 32.597C29.4155 31.863 27.2454 33.6821 26.2879 32.8475C25.3304 32.0129 21.3092 31.5119 19.9049 32.5332C18.5198 33.5405 15.4005 35.2582 14.7168 34.9893C14.7175 34.9897 14.7183 34.9898 14.719 34.9902C14.8903 35.078 15.0775 35.1262 15.2712 35.1519C15.3005 35.1556 15.3298 35.1591 15.3591 35.1624C15.372 35.1635 15.3846 35.1661 15.3976 35.1669C15.4826 35.1732 15.5686 35.1754 15.6555 35.1727C15.7028 35.171 15.7504 35.1668 15.7981 35.1628C15.9342 35.152 16.0704 35.1327 16.2063 35.106C16.2735 35.0925 16.3409 35.0811 16.4074 35.0647C16.4744 35.0484 16.5399 35.0292 16.6057 35.0105C16.6848 34.9877 16.7632 34.9644 16.8397 34.939C16.8889 34.9228 16.9383 34.9068 16.9861 34.8898C17.1088 34.8461 17.2293 34.8011 17.34 34.7561C18.3788 34.3333 21.8625 32.7448 23.418 33.5584C27.7736 35.8367 28.2089 34.7418 30.0571 36.7602C30.0577 36.7607 30.0583 36.761 30.0589 36.7615C31.873 39.0786 31.1926 39.9055 30.2549 39.9021C29.2236 39.8983 27.6779 40.4175 27.4847 41.4966C27.4847 41.4966 30.6722 41.4966 32.8304 41.4966C32.8304 41.4966 35.2719 38.1821 33.5645 34.8789C32.9169 33.6261 37.6339 33.3573 38.3104 33.7414C38.3353 33.8948 38.3789 34.0597 38.4389 34.232C38.4972 34.399 38.5728 34.5737 38.6613 34.7518C38.6641 34.7573 38.6655 34.7625 38.6682 34.768C39.1603 35.669 40.1166 36.813 41.2117 37.4795C41.3845 37.5806 41.5587 37.68 41.741 37.7599C43.0458 38.3322 41.1363 39.9021 40.3704 39.9021C40.3023 39.9021 40.2058 39.9021 40.0936 39.904C40.0876 39.9041 40.0828 39.9041 40.0767 39.9042C39.9641 39.9063 39.8315 39.9111 39.6893 39.9195C39.6781 39.9201 39.6674 39.9207 39.6561 39.9213C39.5125 39.9304 39.3572 39.9444 39.1972 39.9643C39.1849 39.9658 39.1729 39.9673 39.1605 39.9689C38.9985 39.9899 38.8318 40.0179 38.6666 40.0547C38.6562 40.0569 38.6459 40.0594 38.6356 40.0618C38.468 40.1002 38.3023 40.1475 38.145 40.2068C38.1389 40.2091 38.133 40.2118 38.1268 40.2141C37.6386 40.4016 37.2339 40.701 37.1113 41.1821C37.0956 41.2858 37.0702 41.3829 37.0702 41.4966C38.4554 41.4966 43.9637 41.4966 43.9637 41.4966C44.0075 41.4528 44.0599 41.3848 44.1128 41.3153C44.1407 41.2778 44.1683 41.2411 44.1979 41.1984Z" fill="#1E1A1C"/>
</svg>
