<svg width="68" height="68" viewBox="0 0 68 68" fill="none" xmlns="http://www.w3.org/2000/svg">
<g clip-path="url(#clip0_2883_12580)">
<path opacity="0.4" d="M34 68C51.6731 68 66 53.6731 66 36C66 18.3269 51.6731 4 34 4C16.3269 4 2 18.3269 2 36C2 53.6731 16.3269 68 34 68Z" fill="black" fill-opacity="0.05"/>
<path d="M34 66C51.6731 66 66 51.6731 66 34C66 16.3269 51.6731 2 34 2C16.3269 2 2 16.3269 2 34C2 51.6731 16.3269 66 34 66Z" fill="black" fill-opacity="0.05"/>
<path d="M34 65C51.6731 65 66 50.6731 66 33C66 15.3269 51.6731 1 34 1C16.3269 1 2 15.3269 2 33C2 50.6731 16.3269 65 34 65Z" fill="black" fill-opacity="0.05"/>
<path d="M34 64C51.6731 64 66 49.6731 66 32C66 14.3269 51.6731 0 34 0C16.3269 0 2 14.3269 2 32C2 49.6731 16.3269 64 34 64Z" fill="white"/>
<path opacity="0.2" d="M34 51C40.0751 51 45 50.3284 45 49.5C45 48.6716 40.0751 48 34 48C27.9249 48 23 48.6716 23 49.5C23 50.3284 27.9249 51 34 51Z" fill="black"/>
<path opacity="0.19" d="M34 51C45.598 51 55 50.3284 55 49.5C55 48.6716 45.598 48 34 48C22.402 48 13 48.6716 13 49.5C13 50.3284 22.402 51 34 51Z" fill="#020202"/>
<path d="M40.1843 40.514C40.3053 42.1468 38.9263 47.648 38.8295 48.3513C39.144 49.0044 38.9747 49.4817 38.9747 49.4817H32.4141C32.4141 48.5523 36.0914 48.4518 36.0914 48.4518C37.0107 46.9195 37.9784 42.2975 38.2687 40.0116C38.559 37.7257 40.1843 40.514 40.1843 40.514Z" fill="#97663E"/>
<path d="M36.5535 40.9928C36.6747 42.5793 35.2922 48.2185 35.1952 48.9019C35.5105 49.5365 35.3407 50.0003 35.3407 50.0003L28.7832 50.0003C28.7832 49.0972 32.4699 48.9995 32.4699 48.9995C33.3916 47.5107 34.3618 42.7257 34.6528 40.5046C34.9439 38.2835 36.5535 40.9928 36.5535 40.9928Z" fill="#BA7E4D"/>
<path d="M26.5622 18.7596C25.8121 18.2692 26.2708 17.2647 26.9372 16.6825C27.682 16.0318 31.2358 13.9129 32.7937 15.7016C34.3515 17.4903 34.3804 20.8368 32.3321 23.0871C30.2838 25.3373 29.5033 25.767 29.5048 27.9338C29.5061 29.7081 32.2092 27.7308 37.7427 28.9885C42.2578 30.0147 46.9572 31.9221 49.209 40.0506C49.786 41.6084 51.8055 43.1663 50.5938 44.1472C49.3821 45.1281 47.7089 42.3585 45.6894 42.3585C43.6699 42.3585 38.9675 43.3106 37.2654 42.0989C36.5441 41.5796 36.6595 42.6182 35.6209 42.6182C34.5823 42.6182 34.0631 41.2622 33.8611 40.541C33.6592 40.0217 31.2358 39.7332 29.2163 37.3676C27.1969 35.0019 24.4562 29.5493 26.1583 26.8375C32.2672 17.7427 28.6538 19.7333 26.5622 18.7596Z" fill="#D5DCE9"/>
<path d="M26.5625 18.7593C26.1774 18.2352 26.9556 17.0067 28.2538 17.0499C29.552 17.0932 28.9212 18.3358 29.6568 18.8334C30.3925 19.3311 31.4994 18.359 31.6833 18.6295C31.8672 18.8999 27.161 28.2143 22.4875 29.6211C17.814 31.0279 17.6633 29.917 18.2333 28.9287C18.8033 27.9405 24.644 20.2739 26.5625 18.7593Z" fill="#D1993B"/>
<path opacity="0.13" d="M46.6721 34.4732C47.7092 37.3673 44.7397 38.4204 37.2654 36.6478C29.791 34.8752 26.9684 32.9177 25.628 28.7695C25.5347 31.6273 27.6051 35.4798 29.2163 37.3673C31.2358 39.7329 33.6592 40.0214 33.8611 40.5408C34.063 41.262 34.5823 42.6179 35.6209 42.6179C36.6595 42.6179 36.5441 41.5793 37.2654 42.0986C38.9675 43.3103 43.6699 42.3583 45.6894 42.3583C47.1173 42.3583 48.3711 43.7382 49.412 44.2026C50.453 44.6671 51.0699 43.9205 50.9499 43.0288C50.1721 41.4732 49.5416 40.9547 49.2647 40.1769C48.6166 37.9732 47.4499 35.251 46.6721 34.4732Z" fill="black"/>
<path d="M22.4875 29.6216C27.161 28.2148 31.8672 18.9004 31.6833 18.63C31.632 18.5545 31.5043 18.5794 31.3373 18.6385C29.4317 21.3812 27.1066 24.2279 24.5058 25.9182C20.1233 28.7665 20.4947 25.938 21.3883 24.6814C19.8266 26.6713 18.4908 28.4828 18.2333 28.9293C17.6633 29.9176 17.814 31.0285 22.4875 29.6216Z" fill="#BF8525"/>
<path d="M29.4608 31.9239C30.1146 31.1731 31.1089 31.0194 32.9851 30.7265C36.0633 30.2459 42.3995 31.2383 45.1758 35.9499C47.9522 40.6615 48.1659 40.509 47.5741 40.7316C46.9824 40.9542 42.1521 38.4084 38.3421 38.4876C33.0895 38.5967 27.4836 34.1943 29.4608 31.9239Z" fill="#F0F2F5"/>
</g>
<defs>
<clipPath id="clip0_2883_12580">
<rect width="64" height="68" fill="white" transform="translate(2)"/>
</clipPath>
</defs>
</svg>
