<svg width="68" height="68" viewBox="0 0 68 68" fill="none" xmlns="http://www.w3.org/2000/svg">
<path opacity="0.4" d="M34 68C51.6731 68 66 53.6731 66 36C66 18.3269 51.6731 4 34 4C16.3269 4 2 18.3269 2 36C2 53.6731 16.3269 68 34 68Z" fill="black" fill-opacity="0.05"/>
<path d="M34 66C51.6731 66 66 51.6731 66 34C66 16.3269 51.6731 2 34 2C16.3269 2 2 16.3269 2 34C2 51.6731 16.3269 66 34 66Z" fill="black" fill-opacity="0.05"/>
<path d="M34 65C51.6731 65 66 50.6731 66 33C66 15.3269 51.6731 1 34 1C16.3269 1 2 15.3269 2 33C2 50.6731 16.3269 65 34 65Z" fill="black" fill-opacity="0.05"/>
<path d="M34 64C51.6731 64 66 49.6731 66 32C66 14.3269 51.6731 0 34 0C16.3269 0 2 14.3269 2 32C2 49.6731 16.3269 64 34 64Z" fill="white"/>
<path opacity="0.2" d="M34.0059 44.25C45.6038 44.25 55.0059 43.5784 55.0059 42.75C55.0059 41.9216 45.6038 41.25 34.0059 41.25C22.4079 41.25 13.0059 41.9216 13.0059 42.75C13.0059 43.5784 22.4079 44.25 34.0059 44.25Z" fill="black"/>
<path opacity="0.2" d="M36 44.25C45.9411 44.25 54 43.5784 54 42.75C54 41.9216 45.9411 41.25 36 41.25C26.0589 41.25 18 41.9216 18 42.75C18 43.5784 26.0589 44.25 36 44.25Z" fill="black"/>
<path d="M47.9989 37.6178C48.939 39.2012 49.6952 40.1712 50.3769 40.985C49.505 40.985 48.0887 41.7988 47.9487 42.75H52.3589C52.567 42.5697 52.7509 42.3525 52.8976 42.1175C53.3217 41.4377 53.8624 40.5532 54.0007 39.6898C53.3691 38.5694 52.5848 37.1807 52.2043 35.5319C51.7097 33.3886 51.9084 31.3995 51.6052 29.2217C47.7268 25.8004 45.6826 27.1876 44.7031 31.69C44.7031 31.69 47.1332 36.1598 47.9989 37.6178Z" fill="#5A4A3F"/>
<path d="M30.0516 34.7925C29.7346 38.1957 25.4914 42.7504 25.4914 42.7504C22.9337 42.7504 20.6523 42.7504 20.6523 42.7504C20.6523 41.2232 22.1664 40.966 23.5271 40.8809C24.4995 39.6127 25.1265 37.308 24.281 35.1519C24.075 34.6268 23.5344 34.3637 22.7379 33.1226C22.2834 32.4145 21.9455 31.7725 21.9455 31.7725L30.0516 34.7925Z" fill="#5A4A3F"/>
<path d="M50.6266 24.8147C49.8973 23.1976 45.8071 21.5805 43.3022 20.5976C40.7974 19.6147 38.6731 21.4854 35.3438 21.5171C32.0146 21.5488 30.7464 20.3756 28.7805 20.2806C26.8147 20.1854 23.2635 23.1501 21.5037 22.4049C20.7903 20.9147 18.5955 22.0038 19.1733 23.2293C17.8133 23.7371 16.4183 25.7453 16.1136 26.828C15.8147 27.8901 16.2245 28.0171 15.7014 29.0316C15.1782 30.0463 13.9099 31.0133 14.0051 31.917C15.0514 33.0267 15.9814 32.7731 16.9326 32.6885C17.8839 32.604 18.6631 32.3778 19.892 31.6317C21.3012 30.7761 22.5564 32.2589 23.5475 33.0927C24.7889 34.137 25.8485 34.1522 26.2526 34.8913C27.3254 36.8533 30.8954 41.3815 31.5427 41.9576C30.9826 42.0104 29.7566 42.6022 29.5595 43.7225H33.7693C34.075 43.0923 34.6348 42.0052 34.7892 41.4402C33.2514 39.6646 32.718 35.8768 32.8094 35.744C36.0013 36.6107 40.6586 36.3468 42.9256 35.031C42.5448 37.741 44.796 39.9922 43.4326 41.9681C42.1009 41.9681 40.7534 42.3486 40.7534 43.7225C40.7534 43.7225 43.7145 43.7225 45.6169 43.7225C45.6169 43.7225 47.0095 41.7946 47.8364 40.0023C48.7382 38.0475 50.1333 34.7923 50.8802 32.3292C51.1307 31.5033 51.2639 30.6507 51.3231 29.8142C51.5267 29.9418 51.7447 29.9646 51.9512 29.7615C52.6276 29.096 51.2325 25.6396 50.6266 24.8147Z" fill="#A88972"/>
<path opacity="0.19" d="M44.0639 27.995C42.117 29.9791 35.5106 30.7451 33.066 27.995C30.6214 25.245 28.4894 29.213 26.3932 27.9622C25.5766 27.4749 24.1225 25.3249 22.9282 24.9525C23.2365 24.5493 22.9521 23.2371 21.6596 23.6041C20.6822 23.8816 20.7739 25.0163 21.117 25.2557C18.8936 27.7238 16.4202 27.1381 16.3922 26.1529C16.2711 26.397 16.1691 26.6306 16.1135 26.8279C15.8148 27.8901 16.2246 28.017 15.7014 29.0316C15.1782 30.0462 13.9099 31.0133 14.0051 31.9169C15.0514 33.0267 15.9815 32.773 16.9326 32.6884C17.8839 32.6039 18.6632 32.3778 19.892 31.6316C21.3012 30.776 22.5563 32.2588 23.5476 33.0927C24.7889 34.137 25.8485 34.1521 26.2526 34.8912C27.3254 36.8532 30.8954 41.3814 31.5427 41.9575C30.9826 42.0103 29.7566 42.6022 29.5595 43.7225H33.7692C34.075 43.0922 34.6348 42.0051 34.7892 41.4401C33.2514 39.6646 32.718 35.8768 32.8094 35.744C36.0012 36.6107 40.6586 36.3467 42.9256 35.031C42.5448 37.741 44.796 39.9922 43.4326 41.968C42.1009 41.968 40.7534 42.3485 40.7534 43.7225C40.7534 43.7225 43.7145 43.7225 45.6169 43.7225C45.6169 43.7225 47.0095 41.7945 47.8364 40.0022C48.7382 38.0474 50.1333 34.7922 50.8803 32.3291C51.1307 31.5033 51.2639 30.6506 51.3231 29.8141C51.5267 29.9417 51.7448 29.9645 51.9512 29.7614C52.6276 29.096 51.2325 25.6395 50.6266 24.8146C51.1893 28.331 46.9043 30.011 44.0639 27.995Z" fill="black"/>
<path opacity="0.19" d="M43.7447 32.7236C42.1489 33.9045 34.5851 34.7342 33.066 32.8513C31.5469 30.9683 28.4574 33.9045 25.9042 32.6917C23.3511 31.4789 22.234 27.8087 19.4255 29.7875C16.6217 31.7629 14.3731 30.8733 14.7037 30.4119C14.2962 30.9299 13.9541 31.4327 14.005 31.9168C15.0514 33.0265 15.9814 32.7729 16.9326 32.6883C17.8838 32.6038 18.6631 32.3776 19.892 31.6315C21.3011 30.7759 22.5563 32.2587 23.5475 33.0925C24.7889 34.1368 25.8484 34.152 26.2525 34.8911C27.3254 36.8531 30.8954 41.3813 31.5427 41.9573C30.9826 42.0102 29.7566 42.602 29.5595 43.7223H33.7692C34.075 43.0921 34.6347 42.0049 34.7892 41.44C33.2514 39.6644 32.718 35.8766 32.8094 35.7438C36.0012 36.6105 40.6586 36.3466 42.9256 35.0308C42.5448 37.7408 44.7959 39.9921 43.4325 41.9679C42.1009 41.9679 40.7533 42.3484 40.7533 43.7223C40.7533 43.7223 43.7145 43.7223 45.6169 43.7223C45.6169 43.7223 47.0095 41.7944 47.8363 40.0021C48.3651 38.856 49.0618 37.2619 49.6996 35.6436C47.3639 36.623 43.7766 34.638 43.7447 32.7236Z" fill="black"/>
</svg>
