<svg width="68" height="68" viewBox="0 0 68 68" fill="none" xmlns="http://www.w3.org/2000/svg">
<g clip-path="url(#clip0_2865_15454)">
<path opacity="0.4" d="M34 68C51.6731 68 66 53.6731 66 36C66 18.3269 51.6731 4 34 4C16.3269 4 2 18.3269 2 36C2 53.6731 16.3269 68 34 68Z" fill="black" fill-opacity="0.05"/>
<path d="M34 66C51.6731 66 66 51.6731 66 34C66 16.3269 51.6731 2 34 2C16.3269 2 2 16.3269 2 34C2 51.6731 16.3269 66 34 66Z" fill="black" fill-opacity="0.05"/>
<path d="M34 65C51.6731 65 66 50.6731 66 33C66 15.3269 51.6731 1 34 1C16.3269 1 2 15.3269 2 33C2 50.6731 16.3269 65 34 65Z" fill="black" fill-opacity="0.05"/>
<path d="M34 64C51.6731 64 66 49.6731 66 32C66 14.3269 51.6731 0 34 0C16.3269 0 2 14.3269 2 32C2 49.6731 16.3269 64 34 64Z" fill="white"/>
<path opacity="0.19" d="M32.5605 51.9404C41.6732 51.9404 49.0605 51.2689 49.0605 50.4404C49.0605 49.6121 41.6732 48.9404 32.5605 48.9404C23.4478 48.9404 16.0605 49.6121 16.0605 50.4404C16.0605 51.2689 23.4478 51.9404 32.5605 51.9404Z" fill="#020202"/>
<path opacity="0.2" d="M32.6698 51.8004C37.5907 51.8004 41.5798 51.1602 41.5798 50.3704C41.5798 49.5806 37.5907 48.9404 32.6698 48.9404C27.7489 48.9404 23.7598 49.5806 23.7598 50.3704C23.7598 51.1602 27.7489 51.8004 32.6698 51.8004Z" fill="black"/>
<path d="M34.431 35.8501C33.9411 36.9367 34.0685 40.4646 34.431 41.5644C34.622 42.1436 34.5145 42.6936 34.431 43.2826C34.0412 46.0317 33.6546 49.7699 33.6546 49.7699C35.861 49.9615 35.861 50.4801 35.861 50.4801C30.8714 50.4801 29.041 50.4801 29.041 50.4801C29.041 50.4801 29.041 49.0622 31.4448 49.5097C32.2221 47.7226 32.5843 44.9359 32.7849 43.4469C32.341 42.6701 32.3604 42.2483 32.561 41.7901C32.7615 41.332 30.801 35.0801 30.801 35.0801L34.431 35.8501Z" fill="#53545C"/>
<path d="M22.6166 13.4473C23.1897 12.7543 25.1194 12.4402 25.9606 12.8609C26.8699 13.3155 27.1418 14.2094 27.1706 15.0609C27.1995 15.9124 26.8192 18.4059 26.8406 19.4609C26.9109 22.9086 27.852 23.0792 30.9375 23.611C34.8309 24.2821 38.7616 27.5579 39.7177 28.9723C40.9224 30.7548 41.3824 31.4701 41.9832 32.483C42.6527 33.6117 43.5291 36.4668 44.1174 39.0362C44.9131 42.5115 39.9298 37.881 38.977 37.368C37.4759 36.5597 32.51 36.1826 31.6129 35.7598C28.1214 34.1133 25.7825 30.3676 24.8869 26.1651C23.7612 20.8829 24.3673 18.4872 24.5116 17.3326C24.656 16.178 24.5998 14.9359 22.9978 14.7338C21.3958 14.5318 22.5703 13.5033 22.6166 13.4473Z" fill="#D5DCE9"/>
<path opacity="0.19" d="M41.9823 32.4821C41.6179 31.8677 41.3043 31.3615 40.8457 30.6613C41.6105 32.0588 39.1183 33.4401 34.3173 32.3192C29.0195 31.082 24.3625 24.6705 24.9147 19.6383C25.3064 16.0683 24.7773 14.9906 23.4785 14.4893C23.278 14.4119 22.768 14.423 22.2402 14.4324C22.2661 14.465 22.2998 14.496 22.3405 14.5254C22.3425 14.5268 22.3438 14.5284 22.3458 14.5298C22.3837 14.5565 22.4309 14.5809 22.4829 14.604C22.4907 14.6074 22.4962 14.6114 22.5043 14.6147C22.5543 14.6355 22.6149 14.6536 22.6786 14.6707C22.6934 14.6747 22.7046 14.6796 22.72 14.6833C22.8014 14.703 22.8929 14.7198 22.9969 14.7329C24.1321 14.876 24.4896 15.5422 24.551 16.3287C24.5599 16.442 24.5639 16.5572 24.5619 16.6743C24.5618 16.6764 24.5619 16.6784 24.5619 16.6805C24.5578 16.8957 24.5378 17.1153 24.5107 17.3318C24.4296 17.9808 24.2026 19.0221 24.2192 20.7478C24.2193 20.7575 24.2196 20.7676 24.2197 20.7773C24.2216 20.9424 24.2259 21.1143 24.2325 21.2922C24.2799 22.5579 24.4569 24.1509 24.886 26.1642C24.993 26.6662 25.1266 27.159 25.2747 27.6447C25.2974 27.7193 25.3188 27.7944 25.3424 27.8685C25.4968 28.3513 25.6697 28.825 25.8637 29.2854C25.8795 29.323 25.8964 29.3597 25.9125 29.3972C26.3346 30.3779 26.8428 31.3021 27.4372 32.1395C27.7523 32.5837 28.0922 33.0026 28.4537 33.3946C28.4658 33.4076 28.478 33.4201 28.4901 33.4331C28.852 33.822 29.2354 34.1842 29.6421 34.5126C29.6447 34.5148 29.6473 34.5166 29.6499 34.5186C29.9039 34.7236 30.1685 34.9128 30.4396 35.0917C30.5025 35.133 30.5672 35.1711 30.6309 35.2109C30.846 35.3455 31.0661 35.4716 31.2913 35.5891C31.3817 35.6359 31.4728 35.6815 31.5648 35.7255C31.6338 35.7587 31.7042 35.7894 31.7744 35.8206C32.7341 36.136 35.7814 36.4389 37.7234 36.9315C39.0916 37.0866 38.7986 37.123 39.8291 37.6779C40.3918 37.9808 41.0308 38.5084 41.6816 39.3548C43.1591 40.3692 44.5679 41.0071 44.1165 39.0353C43.5282 36.466 42.6518 33.6108 41.9823 32.4821Z" fill="#020202"/>
<path d="M44.3313 39.7004C44.2133 39.185 43.1213 34.6404 42.6813 34.0904C43.1213 37.5004 42.1082 38.3804 39.6904 36.8729C37.4013 35.4455 34.6502 36.8729 28.959 33.9121C30.4713 35.4104 32.1213 36.1804 33.6613 36.5104C33.9978 37.8208 35.3393 41.7267 35.1728 42.1074C34.9722 42.5656 34.6513 43.1104 35.0976 44.009C34.8969 45.498 34.5348 48.2847 33.7575 50.0718C31.3536 49.6243 31.3536 51.0422 31.3536 51.0422C31.3536 51.0422 33.184 51.0422 38.1736 51.0422C38.1736 51.0422 38.1736 50.5237 35.9672 50.3321C35.9672 50.3321 36.5714 46.5747 36.9613 43.8256C37.0465 43.2248 37.1846 42.7848 36.9613 42.1074C36.6516 41.1679 36.5138 38.4579 36.7855 37.01C37.8138 37.1742 37.6143 37.1117 38.6727 37.6816C39.6255 38.1946 41.0309 39.6941 42.1082 41.9634C42.7277 43.2685 42.9244 46.6006 43.4929 46.6006C43.4929 46.6006 45.1272 43.1758 44.3313 39.7004Z" fill="#696A73"/>
<path d="M22.5668 13.497C23.2107 12.6403 24.8005 12.4968 25.4107 12.6403C26.3908 12.8708 27.6072 14.2104 27.0607 16.1604C27.007 17.0734 26.8741 17.9161 26.8407 19.4604C26.7558 23.3876 22.9097 25.8404 27.5007 32.2204C25.7407 30.0204 24.1234 27.8204 23.9807 26.0604C23.7131 22.7604 23.827 21.4133 23.9807 19.0204C24.1344 16.6275 23.7665 15.7818 22.7707 15.5004C21.7749 15.2189 20.9007 15.3904 19.4707 15.0604C19.7245 14.4217 21.7941 13.7797 22.5668 13.497Z" fill="#696A73"/>
</g>
<defs>
<clipPath id="clip0_2865_15454">
<rect width="64" height="68" fill="white" transform="translate(2)"/>
</clipPath>
</defs>
</svg>
