<svg width="68" height="68" viewBox="0 0 68 68" fill="none" xmlns="http://www.w3.org/2000/svg">
<g clip-path="url(#clip0_2883_12638)">
<path opacity="0.4" d="M34 68C51.6731 68 66 53.6731 66 36C66 18.3269 51.6731 4 34 4C16.3269 4 2 18.3269 2 36C2 53.6731 16.3269 68 34 68Z" fill="black" fill-opacity="0.05"/>
<path d="M34 66C51.6731 66 66 51.6731 66 34C66 16.3269 51.6731 2 34 2C16.3269 2 2 16.3269 2 34C2 51.6731 16.3269 66 34 66Z" fill="black" fill-opacity="0.05"/>
<path d="M34 65C51.6731 65 66 50.6731 66 33C66 15.3269 51.6731 1 34 1C16.3269 1 2 15.3269 2 33C2 50.6731 16.3269 65 34 65Z" fill="black" fill-opacity="0.05"/>
<path d="M34 64C51.6731 64 66 49.6731 66 32C66 14.3269 51.6731 0 34 0C16.3269 0 2 14.3269 2 32C2 49.6731 16.3269 64 34 64Z" fill="white"/>
<path opacity="0.19" d="M34 53C42.8366 53 50 52.3284 50 51.5C50 50.6716 42.8366 50 34 50C25.1634 50 18 50.6716 18 51.5C18 52.3284 25.1634 53 34 53Z" fill="#020202"/>
<path opacity="0.2" d="M34.5 53C39.7467 53 44 52.3284 44 51.5C44 50.6716 39.7467 50 34.5 50C29.2533 50 25 50.6716 25 51.5C25 52.3284 29.2533 53 34.5 53Z" fill="black"/>
<path d="M34.7179 45.0426C34.2236 46.2784 33.6048 49.6681 34.179 51.0099C34.3759 51.0701 34.4711 51.3472 34.3759 51.5219C33.652 51.5219 28.8867 51.5219 28.8867 51.5219C28.8867 50.6568 31.0406 50.6921 32.1529 50.8157C32.9827 50.0919 32.1352 44.6895 32.1352 44.6895L34.7179 45.0426Z" fill="#97663E"/>
<path d="M36.7476 45.5211C36.2532 46.7569 35.6344 50.1467 36.2086 51.4884C36.3439 51.522 36.4783 51.8476 36.3873 52.0004C35.6634 52.0004 30.7598 52.0004 30.7598 52.0004C30.7598 51.1353 32.9137 51.1706 34.0259 51.2942C34.8557 50.5704 34.0083 45.168 34.0083 45.168L36.7476 45.5211Z" fill="#BA7E4D"/>
<path d="M25.6764 13.2125C26.3649 12.4445 27.7685 12.6564 28.6953 13.3184C29.6222 13.9805 31.0523 18.8532 30.9464 21.9252C30.8404 24.9972 30.2513 29.7728 30.9519 31.044C31.6525 32.3151 34.0183 31.7502 37.1609 34.2925C40.3035 36.8348 42.7398 37.7882 44.9997 37.4704C47.2595 37.1526 45.2822 38.9887 43.8698 39.2712C42.4574 39.5537 41.5746 40.9661 41.504 41.99C41.4334 43.014 38.2908 45.9094 35.5719 45.9801C32.8531 46.0507 32.1116 45.627 31.2288 44.9561C30.3461 44.2852 29.8517 43.014 28.0156 41.7782C26.1795 40.5423 23.4253 37.3644 23.2135 34.7162C23.0016 32.068 24.52 30.6556 25.0496 30.02C25.5793 29.3844 27.8391 26.5596 28.0156 23.4877C28.1922 20.4157 28.0863 17.8028 25.1908 16.5669C22.2954 15.3311 25.6764 13.2125 25.6764 13.2125Z" fill="#D5DCE9"/>
<path d="M25.0011 12.0203C25.5643 11.9052 26.7357 12.2852 26.5371 13.0002C26.3384 13.7152 26.0206 15.5557 25.3056 15.7014C24.5906 15.847 23.677 15.3704 23.1076 15.2247C22.5382 15.079 21.7437 15.132 21.6113 14.9069C21.8099 14.1522 22.6309 14.1153 23.3856 13.8689C24.1404 13.6225 24.5376 13.3577 24.6038 13.212C24.4582 12.9472 24.3559 12.1522 25.0011 12.0203Z" fill="#D1993B"/>
<path opacity="0.1" d="M44.9997 37.4698C43.5008 37.6806 41.9189 37.3173 40.1101 36.317C40.1086 36.3186 40.1031 36.3244 40.1031 36.3244C41.7969 39.5842 32.6488 42.0152 27.7257 37.5417C23.0105 33.2571 28.9391 26.3175 28.0241 23.335C28.024 23.335 28.0241 23.335 28.0241 23.335C28.0213 23.3857 28.0186 23.4361 28.0157 23.4871C27.8391 26.559 25.5793 29.3839 25.0496 30.0194C24.52 30.655 23.0017 32.0674 23.2135 34.7157C23.4254 37.3639 26.1796 40.5417 28.0157 41.7776C29.8518 43.0135 30.3461 44.2846 31.2289 44.9555C32.1116 45.6264 32.8531 46.0501 35.572 45.9795C38.2908 45.9088 41.4334 43.0135 41.504 41.9895C41.5746 40.9655 42.4574 39.5531 43.8698 39.2706C45.2822 38.9881 47.2595 37.152 44.9997 37.4698Z" fill="black"/>
<path d="M30.2396 32.3283C31.6144 31.8626 36.5214 35.5692 38.5694 36.8403C40.6173 38.1115 41.8866 37.4409 41.5688 38.3236C41.251 39.2064 39.5378 42.1308 34.7709 40.2241C30.0041 38.3173 28.8159 32.8106 30.2396 32.3283Z" fill="#F0F2F5"/>
</g>
<defs>
<clipPath id="clip0_2883_12638">
<rect width="64" height="68" fill="white" transform="translate(2)"/>
</clipPath>
</defs>
</svg>
