<svg width="68" height="68" viewBox="0 0 68 68" fill="none" xmlns="http://www.w3.org/2000/svg">
<g clip-path="url(#clip0_2883_12639)">
<path opacity="0.4" d="M34 68C51.6731 68 66 53.6731 66 36C66 18.3269 51.6731 4 34 4C16.3269 4 2 18.3269 2 36C2 53.6731 16.3269 68 34 68Z" fill="black" fill-opacity="0.05"/>
<path d="M34 66C51.6731 66 66 51.6731 66 34C66 16.3269 51.6731 2 34 2C16.3269 2 2 16.3269 2 34C2 51.6731 16.3269 66 34 66Z" fill="black" fill-opacity="0.05"/>
<path d="M34 65C51.6731 65 66 50.6731 66 33C66 15.3269 51.6731 1 34 1C16.3269 1 2 15.3269 2 33C2 50.6731 16.3269 65 34 65Z" fill="black" fill-opacity="0.05"/>
<path d="M34 64C51.6731 64 66 49.6731 66 32C66 14.3269 51.6731 0 34 0C16.3269 0 2 14.3269 2 32C2 49.6731 16.3269 64 34 64Z" fill="white"/>
<path opacity="0.2" d="M35.0859 45C43.3702 45 50.0859 44.3284 50.0859 43.5C50.0859 42.6716 43.3702 42 35.0859 42C26.8017 42 20.0859 42.6716 20.0859 43.5C20.0859 44.3284 26.8017 45 35.0859 45Z" fill="black"/>
<path opacity="0.19" d="M34 45C45.598 45 55 44.3284 55 43.5C55 42.6716 45.598 42 34 42C22.402 42 13 42.6716 13 43.5C13 44.3284 22.402 45 34 45Z" fill="#020202"/>
<path d="M36.3906 31.8928C36.6592 32.9288 39.1038 35.039 40.8934 35.5296C42.6829 36.0203 42.5386 38.416 41.817 39.7149C41.0954 41.0138 40.6625 42.4281 41.0088 42.7456C42.1057 42.6013 43.0005 41.2735 43.0005 41.2735C42.6252 40.2633 44.8189 36.4244 44.8189 36.4244L40.1429 28.9775L36.3906 31.8928Z" fill="#7F7873"/>
<path d="M31.0148 32.5462C30.4736 33.0109 29.1188 36.9729 29.8115 40.1768C29.2487 40.718 28.8374 43.0343 28.8374 43.0343C25.3521 43.0343 25.0273 43.0343 25.0273 43.0343C25.0273 41.887 26.9757 42.0963 26.9757 42.0963C27.6684 41.4541 27.8849 40.5448 27.7117 38.5532C27.5385 36.5616 27.2264 31.9502 27.2264 31.9502L31.0148 32.5462Z" fill="#7F7873"/>
<path d="M50.6921 32.4267C49.9128 31.7772 47.9636 28.4104 47.2362 26.9277C46.5214 25.4705 45.139 23.6246 44.0245 23.0098C42.9822 22.4349 40.7523 21.6963 37.7249 21.9274C36.5261 22.019 33.1387 22.417 32.0533 22.0357C31.1866 21.7312 29.5996 21.7042 29.0009 21.8192C28.367 21.941 27.5301 21.8756 26.4966 21.7358C26.2611 21.7161 24.6561 21.1428 23.5251 21.0627C22.8289 21.0134 20.5887 21.1512 19.7927 21.3104C19.6512 21.0804 18.7313 20.0544 18.466 20.0014C18.2006 19.9483 17.4577 21.4519 17.5108 22.0179C17.0155 22.0887 15.1758 24.1584 15.0696 24.3883C14.9635 24.6183 15.1404 25.5027 15.0696 25.6796C14.9989 25.8566 13 27.8142 13 28.1443C13 28.1443 13.8491 29.2529 14.8161 29.4416C15.5473 29.5124 17.1507 28.4533 17.953 28.451C18.9062 28.4482 20.7937 30.3357 22.4643 31.0224C23.8395 31.5876 25.6385 32.0772 26.2115 33.1611C26.669 34.0266 23.3291 36.4315 22.658 37.0376C21.987 37.6438 22.355 38.6396 22.5498 40.0684C22.7446 41.4971 22.6364 42.5146 23.9136 43.7701C24.2167 43.4238 24.8661 41.7352 24.4115 40.4148C24.4115 40.4148 23.7621 39.4406 23.9569 38.7912C24.1517 38.1417 28.128 35.2391 29.1476 34.769C29.0827 34.6175 28.9727 33.4195 29.0078 33.0213C30.0686 34.147 37.2095 32.4497 39.0279 30.458C39.7856 33.3156 44.0678 36.4748 45.4749 37.817C46.882 39.1592 46.3409 41.9518 45.9079 42.9259C45.9079 42.9259 44.2626 42.7527 44.2626 43.6836C44.2626 43.6836 45.6914 43.6836 47.4882 43.6836C47.4882 43.6836 48.3757 39.354 48.1593 37.3407C46.4707 36.6697 45.6914 33.5091 46.4491 31.9937C46.6223 34.2235 48.3974 35.5006 49.6746 35.9336C50.9518 36.3666 54.3289 36.1068 55 34.8079C54.2856 34.8512 51.4714 33.0761 50.6921 32.4267Z" fill="#CEC2B7"/>
<path d="M16.9145 25.4044C17.5436 25.5645 20.6195 25.0052 20.6195 26.2636C20.6195 27.5219 18.2864 28.3704 19.88 29.4366C19.8808 29.4371 19.8813 29.4379 19.8821 29.4384C20.0979 29.5885 20.3191 29.7436 20.5458 29.9001C20.5806 29.924 20.6164 29.9469 20.6514 29.9709C20.825 30.0898 21 30.2086 21.1765 30.3219C21.2809 30.3889 21.3855 30.4477 21.4902 30.5108C21.6012 30.5778 21.7122 30.6491 21.823 30.7101C22.0388 30.829 22.2536 30.9355 22.4649 31.0224C22.6499 31.0984 22.8438 31.1732 23.0397 31.2482C23.4918 31.4208 23.9592 31.5971 24.4009 31.7924C24.4072 31.7952 24.4136 31.7978 24.4199 31.8007C24.6302 31.8941 24.8328 31.9925 25.024 32.0979L25.0273 32.0968C22.9242 31.2038 25.8626 26.3647 29.1483 27.153C32.4339 27.9413 31.8048 29.8601 36.0691 27.153C40.3335 24.446 41.2424 23.0477 43.3396 24.341C45.4368 25.6344 45.9979 27.3481 47.6039 30.0386C49.1419 32.615 50.5226 35.9356 54.2186 35.5112C54.3918 35.4193 54.5458 35.3163 54.6768 35.2028C54.6853 35.1953 54.6922 35.1873 54.7004 35.1798C54.8258 35.0667 54.9303 34.9441 55.0007 34.8079C54.2863 34.8512 51.4721 33.0761 50.6927 32.4267C49.9134 31.7772 47.9642 28.4104 47.2369 26.9277C46.5221 25.4705 45.1397 23.6245 44.0252 23.0098C42.9829 22.4349 40.753 21.6963 37.7256 21.9274C36.5268 22.0189 33.1394 22.417 32.0539 22.0357C31.1872 21.7312 29.6002 21.7042 29.0016 21.8192C28.3676 21.9409 27.5308 21.8756 26.4973 21.7358C26.2618 21.7161 24.6568 21.1428 23.5258 21.0627C22.8296 21.0134 20.5894 21.1512 19.7934 21.3104C19.6519 21.0804 18.732 20.0544 18.4667 20.0014C18.2013 19.9483 17.4584 21.4519 17.5114 22.0179C17.0162 22.0887 15.1765 24.1584 15.0703 24.3883C16.2154 24.0964 16.2853 25.2443 16.9145 25.4044Z" fill="#7F7E7D"/>
<path opacity="0.25" d="M50.6923 32.4269C50.638 32.3816 50.5768 32.3204 50.512 32.2503C50.4913 32.2279 50.4687 32.2007 50.447 32.1761C50.4001 32.1226 50.3519 32.066 50.3009 32.0024C50.2748 31.9699 50.248 31.9354 50.221 31.9005C50.1686 31.833 50.1149 31.7616 50.0593 31.6857C50.0333 31.6501 50.0075 31.6151 49.9808 31.5777C49.9143 31.4849 49.846 31.3868 49.7761 31.2846C49.7595 31.2601 49.7434 31.2375 49.7265 31.2126C49.5406 30.938 49.3459 30.636 49.1485 30.3192C49.147 30.3168 49.1455 30.3144 49.144 30.312C49.0456 30.1539 48.9469 29.9928 48.8485 29.8297C48.8444 29.823 48.8405 29.8163 48.8364 29.8096C48.7375 29.6455 48.6395 29.4808 48.5424 29.3153C48.4354 29.3773 48.3284 29.4393 48.3284 29.4393C44.5093 31.4266 40.2865 30.7378 38.8651 28.4658C37.7465 29.6486 33.4822 31.0524 32.0058 30.8193C29.2072 30.3775 29.8557 28.326 26.7711 28.6056C23.6864 28.8852 21.1085 28.4309 19.9836 27.5168C18.8587 26.6028 17.9626 26.1939 17.3335 27.1532C16.7044 28.1125 15.2132 28.8268 13.8594 28.9776C13.8593 28.9775 13.8594 28.9776 13.8594 28.9776C13.9829 29.0695 14.1189 29.1528 14.2578 29.2278C14.2901 29.2449 14.3222 29.2619 14.355 29.2776C14.5038 29.3496 14.6575 29.4107 14.8164 29.4417C15.5475 29.5125 17.151 28.4535 17.9533 28.4511C18.9065 28.4483 20.7939 30.3359 22.4645 31.0225C23.8398 31.5878 25.6388 32.0773 26.2118 33.1613C26.6693 34.0268 23.3294 36.4317 22.6583 37.0378C21.9872 37.644 22.3552 38.6398 22.5501 40.0685C22.7449 41.4973 22.6366 42.5148 23.9139 43.7703C24.217 43.424 24.8664 41.7354 24.4118 40.4149C24.4118 40.4149 23.7623 39.4408 23.9571 38.7914C24.152 38.1419 28.1283 35.2392 29.1479 34.7692C29.0829 34.6176 28.973 33.4196 29.0081 33.0215C30.0688 34.1472 37.2097 32.4499 39.0282 30.4582C39.7859 33.3158 44.068 36.475 45.4752 37.8172C46.8823 39.1594 46.3411 41.952 45.9081 42.9261C45.9081 42.9261 44.2629 42.7529 44.2629 43.6838C44.2629 43.6838 45.6917 43.6838 47.4885 43.6838C47.4885 43.6838 48.376 39.3541 48.1595 37.3409C46.471 36.6698 45.6917 33.5092 46.4493 31.9939C46.6225 34.2236 48.3977 35.5008 49.6749 35.9338C50.9521 36.3668 54.3292 36.107 55.0003 34.8081C54.2859 34.8514 51.4717 33.0763 50.6923 32.4269Z" fill="black"/>
<path d="M19.5352 22.4363C20.9682 21.947 22.9956 22.3489 24.0209 23.0946C25.0462 23.8403 27.7493 24.4928 29.1941 23.4675C30.6388 22.4422 32.9691 24.1665 35.812 23.6539C38.6158 23.1483 38.8492 21.5824 41.7803 22.2067C40.6851 21.956 39.3196 21.8058 37.7247 21.9276C36.5259 22.0191 33.1385 22.4172 32.0531 22.0359C31.1864 21.7314 29.5994 21.7044 29.0007 21.8194C28.3668 21.9411 27.5299 21.8758 26.4964 21.736C26.2609 21.7163 24.6559 21.1431 23.5249 21.0629C22.8287 21.0136 20.5885 21.1514 19.7925 21.3106C19.9065 21.6426 19.9854 22.0768 19.5352 22.4363Z" fill="#615E57"/>
</g>
<defs>
<clipPath id="clip0_2883_12639">
<rect width="64" height="68" fill="white" transform="translate(2)"/>
</clipPath>
</defs>
</svg>
