<svg width="68" height="68" viewBox="0 0 68 68" fill="none" xmlns="http://www.w3.org/2000/svg">
<path opacity="0.4" d="M34 68C51.6731 68 66 53.6731 66 36C66 18.3269 51.6731 4 34 4C16.3269 4 2 18.3269 2 36C2 53.6731 16.3269 68 34 68Z" fill="black" fill-opacity="0.05"/>
<path d="M34 66C51.6731 66 66 51.6731 66 34C66 16.3269 51.6731 2 34 2C16.3269 2 2 16.3269 2 34C2 51.6731 16.3269 66 34 66Z" fill="black" fill-opacity="0.05"/>
<path d="M34 65C51.6731 65 66 50.6731 66 33C66 15.3269 51.6731 1 34 1C16.3269 1 2 15.3269 2 33C2 50.6731 16.3269 65 34 65Z" fill="black" fill-opacity="0.05"/>
<path d="M34 64C51.6731 64 66 49.6731 66 32C66 14.3269 51.6731 0 34 0C16.3269 0 2 14.3269 2 32C2 49.6731 16.3269 64 34 64Z" fill="white"/>
<path opacity="0.2" d="M34.0059 42.582C45.6038 42.582 55.0059 41.9105 55.0059 41.082C55.0059 40.2536 45.6038 39.582 34.0059 39.582C22.4079 39.582 13.0059 40.2536 13.0059 41.082C13.0059 41.9105 22.4079 42.582 34.0059 42.582Z" fill="black"/>
<path opacity="0.2" d="M37.128 42.582C46.4354 42.582 53.9806 41.9105 53.9806 41.082C53.9806 40.2536 46.4354 39.582 37.128 39.582C27.8205 39.582 20.2754 40.2536 20.2754 41.082C20.2754 41.9105 27.8205 42.582 37.128 42.582Z" fill="black"/>
<path d="M32.7104 36.1513C32.7583 37.1885 32.0721 38.7683 32.12 39.0715C32.1678 39.3747 31.5774 39.63 31.721 39.9491C31.8647 40.2683 32.1359 40.747 32.1359 41.0821C31.4657 41.0821 28.7051 41.0821 28.7051 41.0821C28.7051 40.1087 29.7742 40.1725 30.1253 39.5023C30.4764 38.8321 29.1519 35.3374 29.2955 33.8853C29.4391 32.4332 32.7104 36.1513 32.7104 36.1513Z" fill="#49403B"/>
<path d="M52.7047 31.0928C52.8359 31.8589 52.7367 34.3321 52.5771 34.9704C52.4175 35.6087 53.5345 37.2045 53.9813 37.7949C53.4707 38.4651 52.3222 39.8375 53.2715 40.9066C52.3377 40.9066 50.1835 40.9066 50.1835 40.9066C50.1835 40.396 51.2207 40.6034 51.2845 40.1406C51.3484 39.6779 51.0771 37.6034 49.5611 35.146C48.0452 32.6885 52.7047 31.0928 52.7047 31.0928Z" fill="#49403B"/>
<path d="M21.7789 27.9439C21.2789 27.4226 20.8001 27.8056 20.3321 27.2843C19.864 26.7631 19.1406 25.9971 19.6299 24.9652C19.9301 24.3322 21.2789 26.5396 22.9491 26.7843C24.562 27.0206 21.7789 27.9439 21.7789 27.9439Z" fill="#574C46"/>
<path d="M19.0449 37.7953C18.3641 37.1357 18.8322 36.7101 18.6407 36.3059C18.4492 35.9016 16.5981 35.157 15.3215 33.0931C14.0449 31.0293 13.912 29.8325 14.0715 29.7846C14.2311 29.7367 14.9332 32.5931 17.4226 33.2953C18.4279 33.5187 18.9066 33.3591 18.8268 32.9282C18.7471 32.4974 18.2843 32.3219 18.2524 31.7793C17.7737 30.9016 17.6726 30.9336 17.8109 30.6995C17.9492 30.4655 19.2045 31.3697 19.7577 31.4016C20.3109 31.4336 20.7258 31.3378 21.0237 30.5719C21.3215 29.8059 21.0768 27.7953 21.8854 27.0399C22.6939 26.2846 22.9598 26.3272 22.9598 26.3272C23.3118 26.354 24.3841 25.0546 24.5875 24.7633C25.2577 23.7421 26.9173 23.0719 28.1513 22.9867C29.3854 22.9016 30.5343 22.2846 32.1088 22.4761C33.6832 22.6676 36.0237 23.5187 37.8747 23.3484C39.7258 23.1782 42.0024 23.0506 42.5768 22.7953C43.1513 22.5399 44.5768 23.4336 46.8322 23.6676C49.0875 23.9016 49.6407 23.7101 50.4066 24.3484C51.1726 24.9867 52.9385 26.7314 53.4066 28.008C53.8747 29.2846 53.3588 32.7846 53.5183 33.5027C53.6779 34.2208 53.7098 34.6676 53.279 34.8591C52.7683 34.3165 53.1433 33.6463 53.1753 33.3671C53.2072 33.0878 53.1354 31.907 53.0715 31.0373C52.88 31.9149 52.3694 33.3272 51.2045 34.3804C50.0396 35.4336 49.8641 35.2899 49.6407 35.7048C49.4173 36.1197 48.7949 37.6995 48.9066 38.9123C47.7577 39.5187 46.3854 40.1729 47.5662 41.5612C46.6247 41.5612 43.7683 41.5612 43.7683 41.5612C43.7683 40.7474 44.3747 41.258 45.2364 40.5559C46.0981 39.8538 46.0024 38.8644 46.2737 38.0027C46.5449 37.141 47.5662 34.5559 46.8162 32.9601C45.3322 35.1782 42.38 36.4548 40.4971 36.4389C38.6141 36.4229 35.6939 36.0878 34.7045 35.4655C34.6247 36.6144 34.9279 36.7261 35.1513 36.9495C34.88 37.6516 35.1194 38.8804 34.8481 39.2155C34.5768 39.5506 35.5981 40.8431 35.5981 41.5612C34.9119 41.5612 31.6726 41.5612 31.6726 41.5612C31.6726 40.8431 32.0077 40.6676 32.6141 40.5718C33.2205 40.4761 33.4439 39.8218 33.1726 38.8165C32.9013 37.8112 31.8162 36.1357 31.0343 35.4016C30.2524 34.6676 28.9119 34.4442 28.3694 34.2687C27.8268 34.0931 27.6034 33.8857 27.0609 34.157C27.0609 34.157 26.2311 34.4921 25.896 33.8857C25.0822 33.9336 25.513 34.0133 24.6673 35.2101C23.8215 36.407 21.8588 38.0665 20.7258 38.1463C19.5928 38.2261 19.646 38.1463 19.0449 37.7953Z" fill="#917D7C"/>
<path opacity="0.2" d="M21.0237 30.5721C20.7258 31.338 20.3109 31.4338 19.7577 31.4019C19.2045 31.3699 17.9492 30.4657 17.8109 30.6997C17.6726 30.9338 17.7737 30.9019 18.2524 31.7795C18.2843 32.3221 18.7471 32.4976 18.8268 32.9285C18.9066 33.3593 18.4279 33.5189 17.4226 33.2955C14.9332 32.5933 14.2311 29.7369 14.0715 29.7849C13.912 29.8327 14.0449 31.0295 15.3215 33.0933C16.5981 35.1572 18.4492 35.9019 18.6407 36.3061C18.8321 36.7103 18.3641 37.1359 19.0449 37.7955C19.646 38.1465 19.5928 38.2263 20.7258 38.1465C21.8587 38.0667 23.8215 36.4072 24.6673 35.2103C25.513 34.0135 25.0821 33.9338 25.896 33.8859C26.2311 34.4922 27.0609 34.1572 27.0609 34.1572C27.6034 33.8859 27.8268 34.0933 28.3694 34.2689C28.912 34.4444 30.2524 34.6678 31.0343 35.4019C31.8162 36.1359 32.9013 37.8114 33.1726 38.8167C33.4439 39.8221 33.2204 40.4763 32.6141 40.5721C32.0077 40.6678 31.6726 40.8433 31.6726 41.5614C31.6726 41.5614 34.912 41.5614 35.5981 41.5614C35.5981 40.8433 34.5768 39.5508 34.8481 39.2157C35.1194 38.8806 34.88 37.6519 35.1513 36.9497C34.9279 36.7263 34.6247 36.6146 34.7045 35.4657C35.6939 36.088 38.6141 36.4231 40.4971 36.4391C42.38 36.455 45.3321 35.1785 46.8162 32.9603C47.5662 34.5561 46.5449 37.1412 46.2737 38.0029C46.0024 38.8646 46.0981 39.8539 45.2364 40.5561C44.3747 41.2582 43.7684 40.7476 43.7684 41.5614C43.7684 41.5614 46.6247 41.5614 47.5662 41.5614C46.3854 40.1731 47.7577 39.5189 48.9066 38.9125C48.7949 37.6997 49.4173 36.1199 49.6407 35.705C49.8641 35.2902 50.0396 35.4338 51.2045 34.3806C52.3694 33.3274 52.88 31.9152 53.0715 31.0375C53.1354 31.9072 53.2071 33.088 53.1753 33.3672C53.1434 33.6465 52.7684 34.3167 53.279 34.8593C53.7098 34.6678 53.6779 34.221 53.5184 33.5029C53.3587 32.7849 53.8747 29.2849 53.4066 28.0082C53.2626 27.6155 52.9889 27.1786 52.6662 26.7432C51.8399 29.4048 48.7537 29.7355 47.5419 27.9444C46.6908 29.2582 37.6087 31.9976 35.7577 29.7849C33.9066 27.5721 31.3854 29.9869 30.0449 28.3486C28.7045 26.7103 27.4492 28.5402 25.5981 29.6222C23.7471 30.7043 21.3171 28.4016 21.8854 27.0402C21.0768 27.7955 21.3215 29.8061 21.0237 30.5721Z" fill="black"/>
<path opacity="0.2" d="M52.4953 32.6565C50.7541 33.0501 47.7653 31.7934 47.2547 30.6657C47.2547 30.6657 44.1908 33.9041 40.2151 34.2203C37.0675 34.4707 35.3566 33.906 34.463 32.7358C33.5694 31.5656 31.6194 32.6459 30.1726 32.114C28.7258 31.582 27.8747 30.2842 26.3003 31.4543C24.7258 32.6246 23.1992 31.8906 22.0662 32.1778C20.9332 32.465 21.7151 35.7203 19.0343 35.1937C16.3534 34.6671 14.263 30.6778 14.0715 29.7842C13.912 29.832 14.0449 31.0288 15.3215 33.0927C16.5981 35.1565 18.4492 35.9012 18.6407 36.3054C18.8321 36.7097 18.3641 37.1352 19.0449 37.7948C19.646 38.1459 19.5928 38.2256 20.7258 38.1459C21.8587 38.066 23.8215 36.4065 24.6673 35.2097C25.513 34.0129 25.0821 33.9331 25.896 33.8852C26.2311 34.4916 27.0609 34.1565 27.0609 34.1565C27.6034 33.8852 27.8268 34.0927 28.3694 34.2682C28.912 34.4437 30.2524 34.6671 31.0343 35.4012C31.8162 36.1352 32.9013 37.8107 33.1726 38.816C33.4439 39.8214 33.2204 40.4756 32.6141 40.5714C32.0077 40.6671 31.6726 40.8427 31.6726 41.5607C31.6726 41.5607 34.912 41.5607 35.5981 41.5607C35.5981 40.8427 34.5768 39.5501 34.8481 39.215C35.1194 38.8799 34.88 37.6512 35.1513 36.949C34.9279 36.7256 34.6247 36.614 34.7045 35.465C35.6939 36.0873 38.6141 36.4224 40.4971 36.4384C42.38 36.4543 45.3321 35.1778 46.8162 32.9597C47.5662 34.5554 46.5449 37.1406 46.2737 38.0023C46.0024 38.864 46.0981 39.8533 45.2364 40.5554C44.3747 41.2576 43.7684 40.7469 43.7684 41.5607C43.7684 41.5607 46.6247 41.5607 47.5662 41.5607C46.3854 40.1724 47.7577 39.5182 48.9066 38.9118C48.7949 37.699 49.4173 36.1193 49.6407 35.7043C49.8641 35.2895 50.0396 35.4331 51.2045 34.3799C51.7823 33.8574 52.1985 33.2466 52.4953 32.6565C52.4953 32.6566 52.4953 32.6564 52.4953 32.6565Z" fill="black"/>
<path opacity="0.2" d="M17.4219 33.2951C17.2802 33.2552 17.146 33.2063 17.0156 33.1534C18.1673 33.6571 19.5908 33.5165 19.9592 32.6568C19.3958 32.323 18.5392 31.4593 18.0088 30.6849C17.9132 30.6603 17.8367 30.6546 17.8102 30.6994C17.6719 30.9335 17.773 30.9015 18.2517 31.7792C18.2836 32.3218 18.7464 32.4973 18.8262 32.9281C18.9059 33.359 18.4272 33.5185 17.4219 33.2951Z" fill="black"/>
<path opacity="0.2" d="M25.0352 27.9907C25.7398 27.8317 26.0062 27.8056 26.4487 27.2625C26.8913 26.7194 27.5771 25.9196 27.0388 24.9123C26.7086 24.2945 25.9006 26.4358 24.2236 26.6284C23.4451 26.7179 24.6485 28.078 25.0352 27.9907Z" fill="black"/>
</svg>
