<svg width="68" height="68" viewBox="0 0 68 68" fill="none" xmlns="http://www.w3.org/2000/svg">
<g clip-path="url(#clip0_2883_12629)">
<path opacity="0.4" d="M34 68C51.6731 68 66 53.6731 66 36C66 18.3269 51.6731 4 34 4C16.3269 4 2 18.3269 2 36C2 53.6731 16.3269 68 34 68Z" fill="black" fill-opacity="0.05"/>
<path d="M34 66C51.6731 66 66 51.6731 66 34C66 16.3269 51.6731 2 34 2C16.3269 2 2 16.3269 2 34C2 51.6731 16.3269 66 34 66Z" fill="black" fill-opacity="0.05"/>
<path d="M34 65C51.6731 65 66 50.6731 66 33C66 15.3269 51.6731 1 34 1C16.3269 1 2 15.3269 2 33C2 50.6731 16.3269 65 34 65Z" fill="black" fill-opacity="0.05"/>
<path d="M34 64C51.6731 64 66 49.6731 66 32C66 14.3269 51.6731 0 34 0C16.3269 0 2 14.3269 2 32C2 49.6731 16.3269 64 34 64Z" fill="white"/>
<path opacity="0.19" d="M34 41.501C45.598 41.501 55 40.8294 55 40.001C55 39.1725 45.598 38.501 34 38.501C22.402 38.501 13 39.1725 13 40.001C13 40.8294 22.402 41.501 34 41.501Z" fill="#020202"/>
<path opacity="0.2" d="M32.7684 41.501C43.6861 41.501 52.5367 40.8294 52.5367 40.001C52.5367 39.1725 43.6861 38.501 32.7684 38.501C21.8506 38.501 13 39.1725 13 40.001C13 40.8294 21.8506 41.501 32.7684 41.501Z" fill="black"/>
<path d="M23.1208 33.9374C24.1368 36.0145 26.6527 38.448 26.908 38.831C25.6953 38.831 24.8868 39.4076 24.8868 40.0012C26.5463 40.0012 28.8655 40.0012 28.8655 40.0012C29.8868 38.9799 29.2697 36.448 28.8655 35.9799C27.674 35.7885 26.8655 31.4268 26.8655 31.4268C26.8655 31.4268 22.1634 31.9799 23.1208 33.9374Z" fill="#603214"/>
<path d="M37.0682 33.9373C38.0841 36.0143 40.132 38.4479 40.3873 38.8309C39.1746 38.8309 38.281 39.15 38.1107 40.0011C39.7703 40.0011 42.0895 40.0011 42.0895 40.0011C43.0682 39.4053 43.3661 39.0649 43.3661 37.9585C43.9937 33.6607 42.1214 28.5117 42.1214 28.5117C42.1214 28.5117 36.1107 31.9798 37.0682 33.9373Z" fill="#603214"/>
<path d="M13.3547 34.1712C13.0143 33.8095 13.2058 32.618 13.2483 32.0223C13.2909 31.4266 12.759 30.7032 13.3547 29.0861C13.9505 27.4691 15.6739 26.6393 15.6739 26.6393C16.2058 25.9585 17.1207 24.2138 17.9079 24.1925C18.6952 24.1712 18.1845 25.9585 18.2483 26.5117C19.5675 25.9159 25.0356 25.3627 27.2696 24.8946C29.5037 24.4266 35.2483 22.9372 38.4824 24.001C41.7164 25.0649 47.993 28.2457 50.2909 29.618C52.5888 30.9904 55.11 34.0223 54.9186 36.2563C54.7271 38.4904 53.1313 39.001 51.376 36.5755C49.6207 34.15 44.3866 31.884 41.8334 30.3202C41.8334 35.7138 37.2058 39.017 35.1952 40.3734C33.7909 40.3734 31.5249 40.3734 30.9079 40.3734C30.9079 39.2883 32.7696 38.9212 33.6473 38.9212C34.6277 38.9212 36.6313 34.0436 34.6207 33.9585C31.0498 33.8073 25.6845 34.2138 24.1207 34.0542C23.4505 35.7776 21.2803 39.6074 19.0781 40.3734C16.6845 40.3734 14.3228 40.3734 14.3228 40.3734C14.3228 38.4266 16.2377 39.1606 16.9717 38.8095C17.7058 38.4585 19.876 35.8095 19.4292 33.6074C19.1739 32.5542 16.3334 34.5649 15.1207 34.501C13.9079 34.4372 13.3547 34.1712 13.3547 34.1712Z" fill="#AD5D29"/>
<path opacity="0.3" d="M36.1486 30.4674C36.1486 30.4674 34.6167 32.3078 32.3827 32.4355C29.2594 32.614 28.0193 32.107 26.6593 31.4262C25.2993 30.7453 24.4891 32.4036 22.0635 30.3198C20.2597 28.7701 18.4772 31.8192 16.6262 32.4576L15.5463 30.4475L13.0996 30.9718C13.1548 31.4101 13.2692 31.7322 13.2485 32.0219C13.2059 32.6177 13.0144 33.8092 13.3549 34.1709C13.3549 34.1709 13.908 34.4369 15.1208 34.5006C16.3336 34.5645 19.174 32.5539 19.4293 33.607C19.8762 35.8092 17.7059 38.4581 16.9719 38.8092C16.2379 39.1602 14.3229 38.4262 14.3229 40.373C14.3229 40.373 16.6846 40.373 19.0782 40.373C21.2804 39.607 23.4506 35.7773 24.1208 34.0539C25.6846 34.2134 31.05 33.807 34.6208 33.9581C36.6315 34.0432 34.6279 38.9209 33.6474 38.9209C32.7698 38.9209 30.908 39.2879 30.908 40.373C31.5251 40.373 33.791 40.373 35.1953 40.373C37.2059 39.0166 41.8336 35.7134 41.8336 30.3198C41.5103 31.5217 37.1792 32.7079 36.1486 30.4674Z" fill="black"/>
<path opacity="0.3" d="M46.6245 27.6334C48.0424 28.3699 46.2315 32.7311 44.8691 31.9993C45.4287 32.3091 45.4287 32.3091 46.0047 32.6174C47.3696 33.3969 49.0855 28.904 47.7398 28.2101C46.3941 27.5163 46.6245 27.6334 46.6245 27.6334Z" fill="black"/>
<path opacity="0.3" d="M49.4282 29.1221C50.8461 29.8585 48.8976 34.2278 47.5352 33.496C48.0948 33.8058 48.0665 33.8841 48.6425 34.1923C50.0074 34.9719 51.8894 30.5923 50.5943 29.8081C49.9575 29.4225 49.4282 29.1221 49.4282 29.1221Z" fill="black"/>
<path opacity="0.3" d="M50.2004 35.3472C50.1792 35.3262 50.1639 35.3198 50.1445 35.3035C50.6406 35.7207 51.0654 36.1456 51.3768 36.5759C53.1321 39.0014 54.7278 38.4908 54.9193 36.2567C55.045 34.7899 53.999 32.9816 52.6169 31.5225C53.5662 32.6917 51.1492 36.2861 50.2004 35.3472Z" fill="black"/>
<path d="M13.1527 33.3656C13.1527 33.3656 15.2764 33.9953 15.8326 33.4637C16.8746 32.4678 13.2118 32.4623 14.2368 31.0541C15.1193 29.8417 16.5028 31.6073 16.514 32.7924C17.5134 32.469 17.7648 31.8582 17.5241 31.0647C16.9599 29.2051 13.2661 29.7296 13.0859 30.8689C13.134 31.3628 13.2761 31.7461 13.2448 32.0581C13.2065 32.4399 13.1432 32.7714 13.1527 33.3656Z" fill="#E5C8B5"/>
<path d="M17.8909 24.1937C17.1096 24.2189 16.194 25.964 15.666 26.6398C16.0575 28.0101 16.2415 28.2503 16.7326 28.7889C17.167 29.2653 18.6018 29.2799 18.9609 28.9842C19.3199 28.6885 18.2698 27.3779 18.2487 26.5119C18.1853 25.9628 18.7303 24.1665 17.8909 24.1937Z" fill="#E5C8B5"/>
</g>
<defs>
<clipPath id="clip0_2883_12629">
<rect width="64" height="68" fill="white" transform="translate(2)"/>
</clipPath>
</defs>
</svg>
