<svg width="68" height="68" viewBox="0 0 68 68" fill="none" xmlns="http://www.w3.org/2000/svg">
<g clip-path="url(#clip0_2883_12595)">
<path opacity="0.4" d="M34 68C51.6731 68 66 53.6731 66 36C66 18.3269 51.6731 4 34 4C16.3269 4 2 18.3269 2 36C2 53.6731 16.3269 68 34 68Z" fill="black" fill-opacity="0.05"/>
<path d="M34 66C51.6731 66 66 51.6731 66 34C66 16.3269 51.6731 2 34 2C16.3269 2 2 16.3269 2 34C2 51.6731 16.3269 66 34 66Z" fill="black" fill-opacity="0.05"/>
<path d="M34 65C51.6731 65 66 50.6731 66 33C66 15.3269 51.6731 1 34 1C16.3269 1 2 15.3269 2 33C2 50.6731 16.3269 65 34 65Z" fill="black" fill-opacity="0.05"/>
<path d="M34 64C51.6731 64 66 49.6731 66 32C66 14.3269 51.6731 0 34 0C16.3269 0 2 14.3269 2 32C2 49.6731 16.3269 64 34 64Z" fill="white"/>
<path opacity="0.2" d="M34 44.1875C45.0457 44.1875 54 43.5159 54 42.6875C54 41.8591 45.0457 41.1875 34 41.1875C22.9543 41.1875 14 41.8591 14 42.6875C14 43.5159 22.9543 44.1875 34 44.1875Z" fill="black"/>
<path opacity="0.19" d="M34 44.1875C45.598 44.1875 55 43.5159 55 42.6875C55 41.8591 45.598 41.1875 34 41.1875C22.402 41.1875 13 41.8591 13 42.6875C13 43.5159 22.402 44.1875 34 44.1875Z" fill="#020202"/>
<path d="M24.373 32.7578C24.0752 34.8429 19.8624 37.9067 19.7773 38.2897C19.6922 38.6727 19.4528 40.8216 19.006 40.9972C18.0326 41.077 16.5805 41.1248 16.373 42.4174C18.0007 42.4174 20.905 42.4174 20.905 42.4174C21.0486 41.9706 23.2188 40.327 24.4316 40.0716C25.6443 39.8163 29.0113 35.3004 29.0113 35.3004L24.373 32.7578Z" fill="#2D2E31"/>
<path d="M42.2028 33.8213C41.7773 34.6724 38.4581 37.9064 38.373 38.2894C38.2879 38.6724 38.0485 40.8213 37.6017 40.9968C36.6283 41.0766 35.1762 41.1245 34.9688 42.417C36.5964 42.417 39.5007 42.417 39.5007 42.417C39.6443 41.9702 41.8145 40.3266 43.0273 40.0713C44.24 39.816 47.607 35.3 47.607 35.3L42.2028 33.8213Z" fill="#2D2E31"/>
<path d="M22.276 33.566C22.7508 33.3675 26.7441 34.2362 27.7335 35.3532C28.7228 36.4702 30.6377 39.917 29.8079 41.6085C28.3079 41.6723 27.0632 42.1511 26.9356 42.9809C29.0101 42.9809 32.2654 42.9809 32.2654 42.9809C32.2654 42.9809 33.6058 40.8426 33.893 40.7787C33.542 39.2468 34.3398 36.0553 33.5101 34.2681C34.9143 35.417 43.3718 36.7575 44.8079 36.2787C45.893 37.5553 50.1058 39.8213 49.9143 41.1298C48.6377 41.1617 46.8824 42.1192 46.8824 42.9809C48.1909 42.9809 51.8292 42.9809 51.8292 42.9809C51.8292 42.9809 52.3398 41.3851 52.9143 40.9702C52.6909 39.7575 51.6058 32.4809 50.4569 29.1298C49.3079 25.7787 47.4569 26.417 45.9569 25.1085C44.4569 23.8 43.8505 22.683 42.0313 22.2043C40.2122 21.7255 38.9675 22.5872 36.7335 21.566C34.4994 20.5447 31.3718 18.9489 29.4249 20.3851C27.4781 21.8213 27.1327 23.0425 25.6271 23.3851C22.3079 24.1404 22.276 25.5234 20.9037 26.1617C19.5313 26.8 18.0313 26.0979 16.9462 27.0234C15.8611 27.9489 15.7654 29.0979 16.9462 29.1298C16.2122 29.8319 15.7015 30.8851 15.7015 32.1936C15.7015 33.5021 15.7335 33.9489 15.5739 34.4915C15.4143 35.034 14.776 36.2894 15.2654 36.5234C15.7547 36.7575 16.3505 36.6617 16.4462 36.8106C16.542 36.9596 16.9143 37.3213 17.0952 37.2468C17.276 37.1723 18.733 35.8314 19.1164 35.8426C20.2155 35.8745 21.5632 33.8638 22.276 33.566Z" fill="#53545C"/>
<path d="M52.9149 40.9701C52.9016 40.8974 52.8847 40.8 52.8652 40.6861C52.8594 40.6515 52.8519 40.6065 52.8455 40.5685C52.5554 38.8454 51.7269 33.5723 50.7999 30.2544C48.3466 31.4285 43.5426 30.5675 41.2872 28.0143C37.5851 28.3973 33.4253 27.376 31.5104 26.3973C28.5693 24.894 26.9998 27.759 25.553 28.1845C24.1062 28.61 22.8242 28.4557 21.5476 27.6898C20.271 26.9238 18.8987 26.8813 18.0157 27.8175C16.9285 28.9701 17.8349 29.5303 18.8455 29.243C16.8026 30.2522 17.5172 32.3117 16.0099 35.6647C15.9588 35.7786 15.7716 34.9875 15.557 34.543C15.3773 35.1075 14.7901 36.2957 15.266 36.5233C15.7554 36.7573 16.3511 36.6616 16.4469 36.8105C16.5426 36.9595 16.9149 37.3212 17.0958 37.2467C17.1636 37.2187 17.4108 37.0127 17.7137 36.7667C18.0165 36.5207 18.375 36.2346 18.6649 36.0467C18.8583 35.9214 19.0213 35.8396 19.1171 35.8425C19.6666 35.8584 20.2783 35.3638 20.8417 34.8278C21.4051 34.2919 21.9202 33.7148 22.2766 33.5658C22.7515 33.3674 26.7447 34.2361 27.7341 35.3531C28.0433 35.7021 28.4428 36.2787 28.8208 36.9582C28.8964 37.094 28.9711 37.2341 29.044 37.3772C29.19 37.6634 29.3288 37.9621 29.4535 38.2653C29.5158 38.4169 29.5746 38.5696 29.6289 38.7225C29.7376 39.0281 29.8284 39.3343 29.8944 39.633C30.0591 40.3798 30.0678 41.0798 29.8085 41.6084C29.246 41.6323 28.7194 41.7146 28.2742 41.8519C27.9774 41.9433 27.7167 42.0593 27.5056 42.1987C27.189 42.4078 26.9841 42.6695 26.9362 42.9808C29.0107 42.9808 32.266 42.9808 32.266 42.9808C32.266 42.9808 33.6064 40.8425 33.8936 40.7786C33.5426 39.2467 34.3405 36.0552 33.5107 34.268C33.774 34.4834 34.2852 34.7056 34.9517 34.9212C37.8396 35.8556 43.6417 36.6675 44.8085 36.2786C45.8936 37.5552 50.1064 39.8212 49.9149 41.1297C48.6383 41.1616 46.883 42.1191 46.883 42.9808C48.1915 42.9808 51.8298 42.9808 51.8298 42.9808C51.8298 42.9808 52.0293 42.3574 52.3192 41.7886C52.4931 41.4473 52.6995 41.1257 52.9149 40.9701Z" fill="#484A51"/>
<path opacity="0.2" d="M52.9143 40.9699C52.9138 40.9668 52.9127 40.9608 52.9122 40.9576C52.8973 40.8767 52.8785 40.7681 52.8566 40.6389C52.8494 40.596 52.8397 40.5375 52.8317 40.4896C52.8154 40.3924 52.7989 40.2938 52.7797 40.1776C52.7524 40.0128 52.7214 39.8255 52.6885 39.6265C52.6769 39.557 52.6641 39.4798 52.6519 39.4065C52.6243 39.2404 52.5949 39.0635 52.5641 38.8798C52.551 38.8021 52.5374 38.7218 52.5239 38.6412C52.494 38.464 52.4623 38.278 52.4299 38.0885C52.4132 37.991 52.3964 37.8931 52.3791 37.7928C52.345 37.5955 52.3092 37.3913 52.2728 37.1845C52.2567 37.0931 52.2409 37.0029 52.2244 36.9099C52.1821 36.6723 52.1379 36.4283 52.0929 36.1823C52.0798 36.1106 52.0672 36.0405 52.0539 35.9682C51.995 35.6488 51.9342 35.3248 51.8713 34.9981C48.817 36.3308 44.3958 33.4464 42.7438 32.5037C41.2866 33.1414 35.2225 32.2056 33.0524 31.1524C30.8821 30.0992 29.5736 31.28 27.946 31.8545C26.3183 32.429 22.9034 31.7268 21.18 31.8545C19.4566 31.9821 18.7242 33.352 17.8715 34.6311C17.5082 35.176 16.4841 34.7321 15.604 34.3732C15.5942 34.4124 15.5856 34.4513 15.5739 34.4912C15.4143 35.0337 14.776 36.289 15.2654 36.5231C15.7548 36.7571 16.3505 36.6614 16.4462 36.8103C16.542 36.9592 16.9143 37.3209 17.0952 37.2465C17.163 37.2185 17.4102 37.0125 17.7131 36.7665C18.0159 36.5205 18.3743 36.2344 18.6643 36.0465C18.8577 35.9212 19.0206 35.8394 19.1165 35.8422C19.666 35.8582 20.2777 35.3635 20.8411 34.8276C21.4045 34.2917 21.9196 33.7146 22.276 33.5656C22.7509 33.3672 26.7441 34.2359 27.7335 35.3529C28.0427 35.7019 28.4422 36.2785 28.8201 36.958C28.8958 37.0938 28.9705 37.2338 29.0434 37.377C29.1893 37.6632 29.3282 37.9619 29.4529 38.2651C29.5152 38.4167 29.574 38.5694 29.6283 38.7222C29.7369 39.0279 29.8278 39.3341 29.8937 39.6328C30.0585 40.3796 30.0672 41.0796 29.8079 41.6082C29.2454 41.6321 28.7188 41.7144 28.2736 41.8516C27.9767 41.9431 27.7161 42.0591 27.505 42.1985C27.1884 42.4075 26.9835 42.6693 26.9356 42.9805C29.0101 42.9805 32.2654 42.9805 32.2654 42.9805C32.2654 42.9805 33.6058 40.8422 33.893 40.7784C33.542 39.2465 34.3398 36.055 33.5101 34.2678C33.7734 34.4832 34.2846 34.7053 34.9511 34.921C37.839 35.8554 43.6411 36.6673 44.8079 36.2784C45.893 37.555 50.1058 39.8209 49.9143 41.1295C48.6377 41.1614 46.8824 42.1189 46.8824 42.9805C48.1909 42.9805 51.8292 42.9805 51.8292 42.9805C51.8292 42.9805 52.0287 42.3572 52.3185 41.7884C52.4925 41.4471 52.6989 41.1254 52.9143 40.9699Z" fill="#020202"/>
<path d="M17.5631 34.255C16.3612 33.9837 16.212 32.8188 15.9993 32.8401C15.7865 32.8614 15.9142 33.4826 15.6816 33.9023C15.6633 34.1149 15.6309 34.2982 15.574 34.4916C15.4144 35.0342 15.0497 35.73 15.5391 35.964C16.0284 36.1981 16.9781 36.172 17.1588 36.0103C17.7653 35.4678 18.6652 34.5038 17.5631 34.255Z" fill="#B1AAA0"/>
</g>
<defs>
<clipPath id="clip0_2883_12595">
<rect width="64" height="68" fill="white" transform="translate(2)"/>
</clipPath>
</defs>
</svg>
