<svg width="32" height="32" viewBox="0 0 32 32" fill="none" xmlns="http://www.w3.org/2000/svg">
<path d="M16.0001 5.75535L13.121 3.83594L11.8148 5.79527L14.8227 7.8005V13.9616L9.4871 10.8811L9.25444 7.2735L6.90452 7.42503L7.12722 10.8781L4.0254 12.4118L5.06912 14.5227L8.30969 12.9204L13.6453 16.0009L8.30969 19.0814L5.06912 17.4792L4.02539 19.59L7.12717 21.1237L6.90452 24.5768L9.25444 24.7283L9.4871 21.1208L14.8227 18.0402V24.2013L11.8148 26.2066L13.121 28.1659L16.0001 26.2465L18.8792 28.1659L20.1855 26.2066L17.1775 24.2013V18.0403L22.5132 21.1208L22.7458 24.7283L25.0958 24.5768L24.8731 21.1237L27.9749 19.59L26.9312 17.4792L23.6906 19.0814L18.3549 16.0009L23.6906 12.9204L26.9312 14.5227L27.9749 12.4118L24.873 10.8781L25.0958 7.42503L22.7458 7.2735L22.5132 10.8811L17.1775 13.9616V7.8005L20.1855 5.79527L18.8792 3.83594L16.0001 5.75535Z" fill="#656565"/>
</svg>
