<svg width="32" height="32" viewBox="0 0 32 32" fill="none" xmlns="http://www.w3.org/2000/svg">
<path fill-rule="evenodd" clip-rule="evenodd" d="M26.6665 25.5996H4.7998V27.1996C4.7998 28.0828 5.49954 28.7996 6.36171 28.7996H25.1046C25.9667 28.7996 26.6665 28.0828 26.6665 27.1996V25.5996Z" fill="#656565"/>
<path fill-rule="evenodd" clip-rule="evenodd" d="M4.7998 15.4673H26.6665V13.334H4.7998V15.4673Z" fill="#656565"/>
<path fill-rule="evenodd" clip-rule="evenodd" d="M26.6665 10.1298C26.6665 10.1298 19.9386 8.88663 15.7331 6.40039C11.5277 8.88663 4.7998 10.1298 4.7998 10.1298V11.7337H26.6665V10.1298Z" fill="#656565"/>
<path fill-rule="evenodd" clip-rule="evenodd" d="M14.3999 8.53255H16.5332V3.19922H14.3999V8.53255Z" fill="#656565"/>
<path fill-rule="evenodd" clip-rule="evenodd" d="M16.5332 5.33255H19.1999V3.19922H16.5332V5.33255Z" fill="#656565"/>
<path fill-rule="evenodd" clip-rule="evenodd" d="M4.7998 23.9997H7.46647V17.0664H4.7998V23.9997Z" fill="#656565"/>
<path fill-rule="evenodd" clip-rule="evenodd" d="M9.6001 23.9997H12.2668V17.0664H9.6001V23.9997Z" fill="#656565"/>
<path fill-rule="evenodd" clip-rule="evenodd" d="M14.3999 23.9997H17.0666V17.0664H14.3999V23.9997Z" fill="#656565"/>
<path fill-rule="evenodd" clip-rule="evenodd" d="M19.2002 23.9997H21.8669V17.0664H19.2002V23.9997Z" fill="#656565"/>
<path fill-rule="evenodd" clip-rule="evenodd" d="M24 23.9997H26.6667V17.0664H24V23.9997Z" fill="#656565"/>
</svg>
