<svg width="116" height="116" viewBox="0 0 116 116" fill="none" xmlns="http://www.w3.org/2000/svg">
<path d="M58 116C90.0325 116 116 90.0325 116 58C116 25.9675 90.0325 0 58 0C25.9675 0 0 25.9675 0 58C0 90.0325 25.9675 116 58 116Z" fill="black" fill-opacity="0.02"/>
<path d="M58 114C88.9279 114 114 88.9279 114 58C114 27.0721 88.9279 2 58 2C27.0721 2 2 27.0721 2 58C2 88.9279 27.0721 114 58 114Z" fill="black" fill-opacity="0.02"/>
<path d="M58 112C87.8234 112 112 87.8234 112 58C112 28.1766 87.8234 4 58 4C28.1766 4 4 28.1766 4 58C4 87.8234 28.1766 112 58 112Z" fill="black" fill-opacity="0.02"/>
<path d="M58 110C86.7188 110 110 86.7188 110 58C110 29.2812 86.7188 6 58 6C29.2812 6 6 29.2812 6 58C6 86.7188 29.2812 110 58 110Z" fill="black" fill-opacity="0.02"/>
<path d="M58 108C85.6142 108 108 85.6142 108 58C108 30.3858 85.6142 8 58 8C30.3858 8 8 30.3858 8 58C8 85.6142 30.3858 108 58 108Z" fill="#6DC234"/>
<path fill-rule="evenodd" clip-rule="evenodd" d="M40 52C49.4286 70.8571 70.7543 70.8829 88 70.8571V62.2857C88 44.2857 70.9643 37.3986 58 40.8571C45.1429 44.2857 34.0043 34 28 28C28 58 28 88 58 88C70 88 76.8614 82.8571 83.7143 75.1429C65.7143 75.1429 46 76 40 52Z" stroke="#6DC234" stroke-width="5"/>
<path fill-rule="evenodd" clip-rule="evenodd" d="M40 52C49.4286 70.8571 70.7543 70.8829 88 70.8571V62.2857C88 44.2857 70.9643 37.3986 58 40.8571C45.1429 44.2857 34.0043 34 28 28C28 58 28 88 58 88C70 88 76.8614 82.8571 83.7143 75.1429C65.7143 75.1429 46 76 40 52Z" fill="white"/>
</svg>
