<svg width="18" height="18" viewBox="0 0 18 18" fill="none" xmlns="http://www.w3.org/2000/svg">
<path d="M2.34848 7.57387C2.5372 6.93694 3.12238 6.5 3.78668 6.5H15.9863C16.9904 6.5 17.711 7.46733 17.4236 8.42939L15.631 14.4294C15.4412 15.0647 14.8568 15.5 14.1937 15.5H2.0089C1.00624 15.5 0.285861 14.5352 0.570706 13.5739L2.34848 7.57387Z" fill="#FAA400" stroke="white" stroke-linejoin="round"/>
<path d="M12.411 12.7529V8.35559H10.4194V9.24922H11.4347V12.7529H10.3413V13.6465H13.2645L13.6439 12.7529H12.411Z" fill="white"/>
<path d="M8.98028 9.10193C8.48378 8.59518 7.80319 8.34998 6.95524 8.34998H4.53969L4.2998 9.22725H5.16449V13.6409H6.95524C7.80319 13.6409 8.48378 13.3957 8.98028 12.8998C9.4712 12.3985 9.71108 11.7665 9.71108 11.0036C9.71108 10.2408 9.4712 9.60323 8.98028 9.10193ZM8.17696 9.69041C8.50052 9.97376 8.67346 10.4042 8.67346 10.9982C8.67346 11.6084 8.50052 12.0389 8.17138 12.3277C7.83666 12.6165 7.41826 12.7691 6.89945 12.7691H6.15749V9.23815H6.89945C7.42384 9.23815 7.84224 9.39617 8.17696 9.69041Z" fill="white"/>
</svg>
