<svg width="18" height="18" viewBox="0 0 18 18" fill="none" xmlns="http://www.w3.org/2000/svg">
<path d="M2.34848 7.57387C2.5372 6.93694 3.12238 6.5 3.78668 6.5H15.9863C16.9904 6.5 17.711 7.46733 17.4236 8.42939L15.631 14.4294C15.4412 15.0647 14.8568 15.5 14.1937 15.5H2.0089C1.00624 15.5 0.285861 14.5352 0.570706 13.5739L2.34848 7.57387Z" fill="#E74182" stroke="white" stroke-linejoin="round"/>
<path d="M11.5159 12.7738L12.3437 11.9621C12.7307 11.5805 13.0371 11.2419 13.2521 10.9408C13.4725 10.6183 13.5854 10.2797 13.5854 9.91417C13.5854 9.5164 13.4295 9.14551 13.1231 8.83375C12.8113 8.50586 12.3652 8.34998 11.8115 8.34998C11.4245 8.34998 11.0644 8.43598 10.7365 8.60261C10.4247 8.76925 10.1721 8.94125 9.99469 9.12939L9.91943 9.21002L10.5376 9.82817L10.6182 9.75292C10.758 9.62391 10.93 9.50565 11.145 9.39815C11.3439 9.29064 11.5643 9.23152 11.8115 9.23152C12.0534 9.23152 12.2362 9.29602 12.392 9.4304C12.5372 9.55941 12.6178 9.73141 12.6178 9.9518C12.6178 10.1507 12.5426 10.3603 12.3867 10.5861C12.2254 10.8118 11.9137 11.1666 11.446 11.6343L10.1398 12.9243V13.65H13.5585L13.881 12.7684C13.881 12.7738 11.5159 12.7738 11.5159 12.7738Z" fill="white"/>
<path d="M8.83038 9.10193C8.33388 8.59518 7.65329 8.34998 6.80533 8.34998H4.38978L4.1499 9.22725H5.01459V13.6409H6.80533C7.65329 13.6409 8.33388 13.3957 8.83038 12.8998C9.3213 12.3985 9.56118 11.7665 9.56118 11.0036C9.56118 10.2408 9.3213 9.60323 8.83038 9.10193ZM8.02705 9.69041C8.35062 9.97376 8.52355 10.4042 8.52355 10.9982C8.52355 11.6084 8.35062 12.0389 8.02148 12.3277C7.68676 12.6165 7.26836 12.7691 6.74955 12.7691H6.00759V9.23815H6.74955C7.27394 9.23815 7.69234 9.39617 8.02705 9.69041Z" fill="white"/>
</svg>
