<svg width="18" height="18" viewBox="0 0 18 18" fill="none" xmlns="http://www.w3.org/2000/svg">
<path d="M2.34848 7.57387C2.5372 6.93694 3.12238 6.5 3.78668 6.5H15.9863C16.9904 6.5 17.711 7.46733 17.4236 8.42939L15.631 14.4294C15.4412 15.0647 14.8568 15.5 14.1937 15.5H2.0089C1.00624 15.5 0.285861 14.5352 0.570706 13.5739L2.34848 7.57387Z" fill="#D26439" stroke="white" stroke-linejoin="round"/>
<path d="M11.554 13.7051C11.2553 13.7051 10.9543 13.6631 10.651 13.5791C10.3523 13.4904 10.1353 13.3784 10 13.2431L10.329 12.5781C10.469 12.6901 10.6463 12.7881 10.861 12.8721C11.0757 12.9514 11.295 12.9911 11.519 12.9911C12.317 12.9911 12.716 12.6667 12.716 12.0181C12.716 11.7427 12.6063 11.5211 12.387 11.3531C12.1723 11.1851 11.8807 11.1011 11.512 11.1011C11.2553 11.1011 11.0383 11.1151 10.861 11.1431L12.149 9.14108H10.217V8.45508H13.542L12.086 10.5341C12.38 10.5434 12.639 10.6134 12.863 10.7441C13.0917 10.8747 13.2667 11.0474 13.388 11.2621C13.5093 11.4721 13.57 11.7054 13.57 11.9621C13.57 12.2981 13.4907 12.5991 13.332 12.8651C13.1733 13.1264 12.9423 13.3317 12.639 13.4811C12.3357 13.6304 11.974 13.7051 11.554 13.7051Z" fill="white"/>
<path d="M8.83087 9.10205C8.33437 8.5953 7.65377 8.3501 6.80582 8.3501H4.39027L4.15039 9.22738H5.01508V13.641H6.80582C7.65377 13.641 8.33437 13.3958 8.83087 12.9C9.32179 12.3987 9.56167 11.7666 9.56167 11.0037C9.56167 10.2409 9.32179 9.60335 8.83087 9.10205ZM8.02754 9.69054C8.3511 9.97388 8.52404 10.4043 8.52404 10.9983C8.52404 11.6086 8.3511 12.039 8.02196 12.3278C7.68725 12.6166 7.26885 12.7692 6.75004 12.7692H6.00808V9.23827H6.75004C7.27443 9.23827 7.69282 9.39629 8.02754 9.69054Z" fill="white"/>
</svg>
