<svg width="18" height="18" viewBox="0 0 18 18" fill="none" xmlns="http://www.w3.org/2000/svg">
<path d="M2.34848 7.57387C2.5372 6.93694 3.12238 6.5 3.78668 6.5H15.9863C16.9904 6.5 17.711 7.46733 17.4236 8.42939L15.631 14.4294C15.4412 15.0647 14.8568 15.5 14.1937 15.5H2.0089C1.00624 15.5 0.285861 14.5352 0.570706 13.5739L2.34848 7.57387Z" fill="#5FAE86" stroke="white" stroke-linejoin="round"/>
<path d="M12.7243 12.3451H10V11.572L11.527 8.30005H12.473L11.1216 11.572H12.7243L12.773 10.3422H13.673V11.572H14.5V12.3451H13.673V13.7H12.7243V12.3451Z" fill="white"/>
<path d="M8.83087 9.10205C8.33437 8.5953 7.65377 8.3501 6.80582 8.3501H4.39027L4.15039 9.22738H5.01508V13.641H6.80582C7.65377 13.641 8.33437 13.3958 8.83087 12.9C9.32179 12.3987 9.56167 11.7666 9.56167 11.0037C9.56167 10.2409 9.32179 9.60335 8.83087 9.10205ZM8.02754 9.69054C8.3511 9.97388 8.52404 10.4043 8.52404 10.9983C8.52404 11.6086 8.3511 12.039 8.02196 12.3278C7.68725 12.6166 7.26885 12.7692 6.75004 12.7692H6.00808V9.23827H6.75004C7.27443 9.23827 7.69282 9.39629 8.02754 9.69054Z" fill="white"/>
</svg>
