<svg width="33" height="33" viewBox="0 0 33 33" fill="none" xmlns="http://www.w3.org/2000/svg">
<path d="M32.5 26C32.5 29.5899 29.5899 32.5 26 32.5C22.4101 32.5 19.5 29.5899 19.5 26C19.5 22.4101 22.4101 19.5 26 19.5C29.5899 19.5 32.5 22.4101 32.5 26Z" fill="#69D3D5" stroke="white"/>
<path d="M22.8954 28H22.0196V25.6046C22.0196 25.5389 22.0196 25.4577 22.0196 25.361C22.0235 25.2643 22.0273 25.1638 22.0312 25.0594C22.0351 24.955 22.0389 24.8622 22.0428 24.781C22.0235 24.8042 21.9809 24.8467 21.9152 24.9086C21.8533 24.9666 21.7953 25.0188 21.7412 25.0652L21.2656 25.448L20.8422 24.9202L22.1762 23.8588H22.8954V28ZM26.2145 28H25.3387V25.6046C25.3387 25.5389 25.3387 25.4577 25.3387 25.361C25.3426 25.2643 25.3465 25.1638 25.3503 25.0594C25.3542 24.955 25.3581 24.8622 25.3619 24.781C25.3426 24.8042 25.3001 24.8467 25.2343 24.9086C25.1725 24.9666 25.1145 25.0188 25.0603 25.0652L24.5847 25.448L24.1613 24.9202L25.4953 23.8588H26.2145V28ZM30.1949 28L29.8933 27.014H28.3853L28.0837 28H27.1383L28.5999 23.8414H29.6729L31.1403 28H30.1949ZM29.3829 25.3146C29.3635 25.2489 29.3384 25.1657 29.3075 25.0652C29.2765 24.9647 29.2456 24.8622 29.2147 24.7578C29.1837 24.6534 29.1586 24.5625 29.1393 24.4852C29.1199 24.5625 29.0929 24.6592 29.0581 24.7752C29.0271 24.8873 28.9962 24.9956 28.9653 25.1C28.9382 25.2005 28.9169 25.2721 28.9015 25.3146L28.6057 26.2774H29.6845L29.3829 25.3146Z" fill="white"/>
<path d="M11.5651 20.4947L9.49127 24.036L7.3704 20.487C7.17516 20.1603 6.8114 19.9728 6.43203 20.0032C6.05265 20.0336 5.72344 20.2768 5.58279 20.6304L2.35353 28.75H2C1.44772 28.75 1 29.1977 1 29.75V31C1 31.5523 1.44772 32 2 32H7.304H9.5H11.696H14.348H17C17.5523 32 18 31.5523 18 31V29.75C18 29.1977 17.5523 28.75 17 28.75H16.6422L13.355 20.625C13.2121 20.2716 12.8807 20.0303 12.5006 20.0026C12.1205 19.975 11.7577 20.1658 11.5651 20.4947Z" fill="white" stroke="white" stroke-width="2" stroke-linejoin="round"/>
<path d="M15.968 29.75L12.428 21L9.5 26L6.512 21L3.032 29.75H2V31H7.304V29.75H6.512L7.256 27.4266L9.5 30.8991L11.696 27.4266L12.488 29.75H11.696V31H17V29.75H15.968Z" fill="#F24D4F"/>
</svg>
