<svg width="33" height="33" viewBox="0 0 33 33" fill="none" xmlns="http://www.w3.org/2000/svg">
<path d="M32.5 26C32.5 29.5899 29.5899 32.5 26 32.5C22.4101 32.5 19.5 29.5899 19.5 26C19.5 22.4101 22.4101 19.5 26 19.5C29.5899 19.5 32.5 22.4101 32.5 26Z" fill="#FFCC31" stroke="white"/>
<path d="M23.4458 23.2775C23.7558 23.2775 24.0383 23.325 24.2933 23.42C24.5533 23.515 24.7608 23.6575 24.9158 23.8475C25.0758 24.0375 25.1558 24.2775 25.1558 24.5675C25.1558 24.7825 25.1133 24.9725 25.0283 25.1375C24.9433 25.2975 24.8283 25.4375 24.6833 25.5575C24.5433 25.6775 24.3808 25.7825 24.1958 25.8725C24.3858 25.9725 24.5658 26.09 24.7358 26.225C24.9108 26.355 25.0508 26.51 25.1558 26.69C25.2658 26.865 25.3208 27.0725 25.3208 27.3125C25.3208 27.6075 25.2408 27.865 25.0808 28.085C24.9258 28.305 24.7058 28.475 24.4208 28.595C24.1408 28.715 23.8158 28.775 23.4458 28.775C23.0458 28.775 22.7058 28.7175 22.4258 28.6025C22.1458 28.4875 21.9308 28.3225 21.7808 28.1075C21.6358 27.8925 21.5633 27.6375 21.5633 27.3425C21.5633 27.0975 21.6083 26.885 21.6983 26.705C21.7933 26.525 21.9183 26.37 22.0733 26.24C22.2283 26.105 22.4008 25.9925 22.5908 25.9025C22.4308 25.8025 22.2858 25.69 22.1558 25.565C22.0258 25.435 21.9208 25.29 21.8408 25.13C21.7658 24.965 21.7283 24.775 21.7283 24.56C21.7283 24.275 21.8083 24.0375 21.9683 23.8475C22.1283 23.6575 22.3383 23.515 22.5983 23.42C22.8633 23.325 23.1458 23.2775 23.4458 23.2775ZM22.6133 27.275C22.6133 27.47 22.6808 27.63 22.8158 27.755C22.9558 27.88 23.1608 27.9425 23.4308 27.9425C23.6208 27.9425 23.7758 27.915 23.8958 27.86C24.0208 27.805 24.1133 27.7275 24.1733 27.6275C24.2383 27.5275 24.2708 27.4125 24.2708 27.2825C24.2708 27.1475 24.2308 27.03 24.1508 26.93C24.0708 26.825 23.9708 26.7325 23.8508 26.6525C23.7358 26.5675 23.6158 26.49 23.4908 26.42L23.3933 26.3675C23.2383 26.4375 23.1008 26.5175 22.9808 26.6075C22.8658 26.6975 22.7758 26.7975 22.7108 26.9075C22.6458 27.0125 22.6133 27.135 22.6133 27.275ZM23.4383 24.1025C23.2533 24.1025 23.0983 24.15 22.9733 24.245C22.8533 24.34 22.7933 24.475 22.7933 24.65C22.7933 24.77 22.8233 24.8775 22.8833 24.9725C22.9433 25.0625 23.0233 25.1425 23.1233 25.2125C23.2233 25.2775 23.3308 25.34 23.4458 25.4C23.5608 25.345 23.6658 25.285 23.7608 25.22C23.8608 25.155 23.9408 25.0775 24.0008 24.9875C24.0608 24.8925 24.0908 24.78 24.0908 24.65C24.0908 24.475 24.0283 24.34 23.9033 24.245C23.7833 24.15 23.6283 24.1025 23.4383 24.1025ZM29.5453 28.7L29.1553 27.425H27.2053L26.8153 28.7H25.5928L27.4828 23.3225H28.8703L30.7678 28.7H29.5453ZM28.4953 25.2275C28.4703 25.1425 28.4378 25.035 28.3978 24.905C28.3578 24.775 28.3178 24.6425 28.2778 24.5075C28.2378 24.3725 28.2053 24.255 28.1803 24.155C28.1553 24.255 28.1203 24.38 28.0753 24.53C28.0353 24.675 27.9953 24.815 27.9553 24.95C27.9203 25.08 27.8928 25.1725 27.8728 25.2275L27.4903 26.4725H28.8853L28.4953 25.2275Z" fill="#565656" fill-opacity="0.8"/>
<path d="M11.5651 20.4947L9.49127 24.036L7.3704 20.487C7.17516 20.1603 6.8114 19.9728 6.43203 20.0032C6.05265 20.0336 5.72344 20.2768 5.58279 20.6304L2.35353 28.75H2C1.44772 28.75 1 29.1977 1 29.75V31C1 31.5523 1.44772 32 2 32H7.304H9.5H11.696H14.348H17C17.5523 32 18 31.5523 18 31V29.75C18 29.1977 17.5523 28.75 17 28.75H16.6422L13.355 20.625C13.2121 20.2716 12.8807 20.0303 12.5006 20.0026C12.1205 19.975 11.7577 20.1658 11.5651 20.4947Z" fill="white" stroke="white" stroke-width="2" stroke-linejoin="round"/>
<path d="M15.968 29.75L12.428 21L9.5 26L6.512 21L3.032 29.75H2V31H7.304V29.75H6.512L7.256 27.4266L9.5 30.8991L11.696 27.4266L12.488 29.75H11.696V31H17V29.75H15.968Z" fill="#F24D4F"/>
</svg>
