<svg width="33" height="33" viewBox="0 0 33 33" fill="none" xmlns="http://www.w3.org/2000/svg">
<path d="M32.5 26C32.5 29.5899 29.5899 32.5 26 32.5C22.4101 32.5 19.5 29.5899 19.5 26C19.5 22.4101 22.4101 19.5 26 19.5C29.5899 19.5 32.5 22.4101 32.5 26Z" fill="#2DC4F2" stroke="white"/>
<path d="M25.1625 27.59H24.5175V28.7H23.415V27.59H21.1275V26.8025L23.475 23.345H24.5175V26.7125H25.1625V27.59ZM23.415 25.805C23.415 25.72 23.415 25.62 23.415 25.505C23.42 25.385 23.425 25.2675 23.43 25.1525C23.435 25.0325 23.44 24.9275 23.445 24.8375C23.45 24.7425 23.455 24.6775 23.46 24.6425H23.43C23.385 24.7425 23.3375 24.84 23.2875 24.935C23.2375 25.03 23.1775 25.1275 23.1075 25.2275L22.125 26.7125H23.415V25.805ZM29.2445 28.7L28.8545 27.425H26.9045L26.5145 28.7H25.292L27.182 23.3225H28.5695L30.467 28.7H29.2445ZM28.1945 25.2275C28.1695 25.1425 28.137 25.035 28.097 24.905C28.057 24.775 28.017 24.6425 27.977 24.5075C27.937 24.3725 27.9045 24.255 27.8795 24.155C27.8545 24.255 27.8195 24.38 27.7745 24.53C27.7345 24.675 27.6945 24.815 27.6545 24.95C27.6195 25.08 27.592 25.1725 27.572 25.2275L27.1895 26.4725H28.5845L28.1945 25.2275Z" fill="white"/>
<path d="M11.5651 20.4947L9.49127 24.036L7.3704 20.487C7.17516 20.1603 6.8114 19.9728 6.43203 20.0032C6.05265 20.0336 5.72344 20.2768 5.58279 20.6304L2.35353 28.75H2C1.44772 28.75 1 29.1977 1 29.75V31C1 31.5523 1.44772 32 2 32H7.304H9.5H11.696H14.348H17C17.5523 32 18 31.5523 18 31V29.75C18 29.1977 17.5523 28.75 17 28.75H16.6422L13.355 20.625C13.2121 20.2716 12.8807 20.0303 12.5006 20.0026C12.1205 19.975 11.7577 20.1658 11.5651 20.4947Z" fill="white" stroke="white" stroke-width="2" stroke-linejoin="round"/>
<path d="M15.968 29.75L12.428 21L9.5 26L6.512 21L3.032 29.75H2V31H7.304V29.75H6.512L7.256 27.4266L9.5 30.8991L11.696 27.4266L12.488 29.75H11.696V31H17V29.75H15.968Z" fill="#F24D4F"/>
</svg>
