<svg width="33" height="33" viewBox="0 0 33 33" fill="none" xmlns="http://www.w3.org/2000/svg">
<g clip-path="url(#clip0_1_32)">
<path d="M32.5 26C32.5 29.5899 29.5899 32.5 26 32.5C22.4101 32.5 19.5 29.5899 19.5 26C19.5 22.4101 22.4101 19.5 26 19.5C29.5899 19.5 32.5 22.4101 32.5 26Z" fill="#2D73B4" stroke="white"/>
<path d="M24.2933 29H22.9796V25.4069C22.9796 25.2561 22.9825 25.0589 22.9883 24.8153C22.9999 24.5717 23.0086 24.3571 23.0144 24.1715C22.9854 24.2063 22.9216 24.2701 22.823 24.3629C22.7302 24.4499 22.6432 24.5282 22.562 24.5978L21.8486 25.172L21.2135 24.3803L23.2145 22.7882H24.2933V29ZM30.1246 24.1802C30.1246 24.6094 29.9941 24.9516 29.7331 25.2068C29.4779 25.462 29.1618 25.636 28.7848 25.7288V25.7549C29.2836 25.8129 29.6606 25.9637 29.9158 26.2073C30.1768 26.4509 30.3073 26.7786 30.3073 27.1904C30.3073 27.55 30.2174 27.8748 30.0376 28.1648C29.8636 28.449 29.591 28.6752 29.2198 28.8434C28.8544 29.0058 28.3817 29.087 27.8017 29.087C27.1289 29.087 26.5315 28.9739 26.0095 28.7477V27.6341C26.2763 27.7675 26.5547 27.869 26.8447 27.9386C27.1405 28.0082 27.4131 28.043 27.6625 28.043C28.1323 28.043 28.46 27.9618 28.6456 27.7994C28.837 27.637 28.9327 27.4079 28.9327 27.1121C28.9327 26.9381 28.8892 26.7931 28.8022 26.6771C28.7152 26.5553 28.5615 26.4654 28.3411 26.4074C28.1265 26.3436 27.8249 26.3117 27.4363 26.3117H26.9665V25.3025H27.445C27.8278 25.3025 28.1178 25.2677 28.315 25.1981C28.518 25.1227 28.6543 25.0241 28.7239 24.9023C28.7993 24.7747 28.837 24.6297 28.837 24.4673C28.837 24.2469 28.7674 24.0758 28.6282 23.954C28.4948 23.8264 28.2686 23.7626 27.9496 23.7626C27.6538 23.7626 27.3957 23.8148 27.1753 23.9192C26.9607 24.0178 26.778 24.1164 26.6272 24.215L26.0182 23.3102C26.2618 23.1362 26.546 22.9912 26.8708 22.8752C27.2014 22.7592 27.5929 22.7012 28.0453 22.7012C28.6833 22.7012 29.1879 22.8317 29.5591 23.0927C29.9361 23.3479 30.1246 23.7104 30.1246 24.1802Z" fill="white"/>
<path d="M11.5651 20.4947L9.49127 24.036L7.3704 20.487C7.17516 20.1603 6.8114 19.9728 6.43203 20.0032C6.05265 20.0336 5.72345 20.2768 5.58279 20.6304L2.35353 28.75H2C1.44772 28.75 1 29.1977 1 29.75V31C1 31.5523 1.44772 32 2 32H7.304H9.5H11.696H14.348H17C17.5523 32 18 31.5523 18 31V29.75C18 29.1977 17.5523 28.75 17 28.75H16.6422L13.355 20.625C13.2121 20.2716 12.8807 20.0303 12.5006 20.0026C12.1205 19.975 11.7577 20.1658 11.5651 20.4947Z" fill="white" stroke="white" stroke-width="2" stroke-linejoin="round"/>
<path d="M15.968 29.75L12.428 21L9.5 26L6.512 21L3.032 29.75H2V31H7.304V29.75H6.512L7.256 27.4266L9.5 30.8991L11.696 27.4266L12.488 29.75H11.696V31H17V29.75H15.968Z" fill="#F24D4F"/>
</g>
<defs>
<clipPath id="clip0_1_32">
<rect width="33" height="33" fill="white"/>
</clipPath>
</defs>
</svg>
