<svg width="22" height="22" viewBox="0 0 22 22" fill="none" xmlns="http://www.w3.org/2000/svg">
<path fill-rule="evenodd" clip-rule="evenodd" d="M16 14H11H6V15.3333C6 15.3333 7.25 18 11 18C14.75 18 16 15.3333 16 15.3333V14Z" stroke="white" stroke-width="2"/>
<path d="M10.5 13C11.8807 13 13 11.8807 13 10.5C13 9.11929 11.8807 8 10.5 8C9.11929 8 8 9.11929 8 10.5C8 11.8807 9.11929 13 10.5 13Z" fill="white"/>
<path fill-rule="evenodd" clip-rule="evenodd" d="M11 12C9.896 12 9 11.1053 9 10C9 8.89467 9.896 8 11 8C12.104 8 13 8.89467 13 10C13 11.1053 12.104 12 11 12ZM11 5C6.33333 5 4 7.28571 4 9.57143C4 11.8571 6.33333 13 6.33333 13H15.6667C15.6667 13 18 11.8571 18 9.57143C18 7.28571 15.6667 5 11 5Z" fill="#7A7A79" stroke="white" stroke-width="2"/>
<path fill-rule="evenodd" clip-rule="evenodd" d="M16 14H11H6V15.3333C6 15.3333 7.25 18 11 18C14.75 18 16 15.3333 16 15.3333V14Z" fill="#7A7A79"/>
<path fill-rule="evenodd" clip-rule="evenodd" d="M11 12C9.896 12 9 11.1053 9 10C9 8.89467 9.896 8 11 8C12.104 8 13 8.89467 13 10C13 11.1053 12.104 12 11 12ZM11 5C6.33333 5 4 7.28571 4 9.57143C4 11.8571 6.33333 13 6.33333 13H15.6667C15.6667 13 18 11.8571 18 9.57143C18 7.28571 15.6667 5 11 5Z" fill="#7A7A79"/>
</svg>
