<svg width="60" height="60" viewBox="0 0 60 60" fill="none" xmlns="http://www.w3.org/2000/svg">
<path d="M39 36C40.6569 36 42 34.6569 42 33H44C45.1046 33 46 32.1046 46 31V27.4415C46 26.5807 45.4491 25.8164 44.6325 25.5442L40.6393 24.2131L38.8627 19.7717C37.9515 17.4937 35.7453 16 33.2919 16H26.7081C24.2547 16 22.0484 17.4937 21.1373 19.7717L19.3607 24.2131L15.3675 25.5442C14.5509 25.8164 14 26.5807 14 27.4415V31C14 32.1046 14.8954 33 16 33H18C18 34.6569 19.3431 36 21 36M39 36C37.3431 36 36 34.6569 36 33H24C24 34.6569 22.6569 36 21 36M39 36H21M39 36H46.8285L56.8285 46H51.1716L45.1716 40H45V46H41V40H19V46H15V40H14.8285L8.82848 46H3.17163L13.1716 36H21M26.7081 20C25.8903 20 25.1549 20.4979 24.8512 21.2572L23.7541 24H36.2459L35.1488 21.2572C34.8451 20.4979 34.1097 20 33.2919 20H26.7081Z" stroke="white" stroke-width="5" stroke-linejoin="round"/>
<path fill-rule="evenodd" clip-rule="evenodd" d="M24.8512 21.2572C25.1549 20.4979 25.8903 20 26.7081 20H33.2919C34.1097 20 34.8451 20.4979 35.1488 21.2572L36.2459 24H23.7541L24.8512 21.2572ZM19.3607 24.2131L21.1373 19.7717C22.0484 17.4937 24.2547 16 26.7081 16H33.2919C35.7453 16 37.9515 17.4937 38.8627 19.7717L40.6393 24.2131L44.6325 25.5442C45.4491 25.8164 46 26.5807 46 27.4415V31C46 32.1046 45.1046 33 44 33H42C42 34.6569 40.6569 36 39 36C37.3431 36 36 34.6569 36 33H24C24 34.6569 22.6569 36 21 36C19.3431 36 18 34.6569 18 33H16C14.8954 33 14 32.1046 14 31V27.4415C14 26.5807 14.5509 25.8164 15.3675 25.5442L19.3607 24.2131ZM21 36H39H46.0001H46.8285L47.4143 36.5858L56.8285 46H51.1716L45.1716 40H45V46H41V40H19V46H15V40H14.8285L8.82848 46H3.17163L12.5858 36.5858L13.1716 36H14.0001H21Z" fill="#646464"/>
</svg>
