<svg width="60" height="60" viewBox="0 0 60 60" fill="none" xmlns="http://www.w3.org/2000/svg">
<path fill-rule="evenodd" clip-rule="evenodd" d="M40.8947 7L43.3158 14.2973L53 19.1622V42.2703C53 47.4209 48.4751 52 43.3158 52H16.6842C11.5249 52 7 47.4209 7 42.2703V19.1622L16.6842 14.2973L19.1053 7H40.8947ZM30 19C22.8318 19 17 24.8318 17 32C17 39.1682 22.8318 45 30 45C37.1682 45 43 39.1682 43 32C43 24.8318 37.1682 19 30 19Z" stroke="white" stroke-width="5"/>
<path fill-rule="evenodd" clip-rule="evenodd" d="M29.3846 40C25.5887 40 22 36.4113 22 31.3846C22 27.5887 25.5887 24 29.3846 24C34.4113 24 38 27.5887 38 31.3846C38 36.4113 34.4113 40 29.3846 40Z" stroke="white" stroke-width="7"/>
<path fill-rule="evenodd" clip-rule="evenodd" d="M40.8947 7L43.3158 14.2973L53 19.1622V42.2703C53 47.4209 48.4751 52 43.3158 52H16.6842C11.5249 52 7 47.4209 7 42.2703V19.1622L16.6842 14.2973L19.1053 7H40.8947ZM30 19C22.8318 19 17 24.8318 17 32C17 39.1682 22.8318 45 30 45C37.1682 45 43 39.1682 43 32C43 24.8318 37.1682 19 30 19Z" fill="#7A7A79"/>
<path fill-rule="evenodd" clip-rule="evenodd" d="M29.3846 40C25.5887 40 22 36.4113 22 31.3846C22 27.5887 25.5887 24 29.3846 24C34.4113 24 38 27.5887 38 31.3846C38 36.4113 34.4113 40 29.3846 40Z" fill="#7A7A79"/>
</svg>
