<svg width="60" height="60" viewBox="0 0 60 60" fill="none" xmlns="http://www.w3.org/2000/svg">
<path fill-rule="evenodd" clip-rule="evenodd" d="M41 13V46H37H21C20.0952 46.5 18.5714 45 19 44C18.5714 42 20.0952 40.5 21 41H37V9H20C16.7291 9 14 11.6865 14 15V45C14 48.3135 16.7291 51 20 51H37H46V46V13H41Z" stroke="white" stroke-width="5"/>
<path fill-rule="evenodd" clip-rule="evenodd" d="M41 13V46H37H21C20.0952 46.5 18.5714 45 19 44C18.5714 42 20.0952 40.5 21 41H37V9H20C16.7291 9 14 11.6865 14 15V45C14 48.3135 16.7291 51 20 51H37H46V46V13H41Z" fill="#7A7A79"/>
</svg>
