<svg width="14" height="14" viewBox="0 0 14 14" fill="none" xmlns="http://www.w3.org/2000/svg">
<path fill-rule="evenodd" clip-rule="evenodd" d="M6 4L3 6V7H11V6L8.001 4H6Z" stroke="white" stroke-width="2"/>
<path fill-rule="evenodd" clip-rule="evenodd" d="M7 2L6 3V4H8.001V3L7 2Z" stroke="white" stroke-width="2"/>
<path fill-rule="evenodd" clip-rule="evenodd" d="M5 11H6V6.99902H5V11Z" stroke="white" stroke-width="2"/>
<path fill-rule="evenodd" clip-rule="evenodd" d="M8 11H9V6.99902H8V11Z" stroke="white" stroke-width="2"/>
<path fill-rule="evenodd" clip-rule="evenodd" d="M3 11H4V6.99902H3V11Z" stroke="white" stroke-width="2"/>
<path fill-rule="evenodd" clip-rule="evenodd" d="M10 11H11V6.99902H10V11Z" stroke="white" stroke-width="2"/>
<path fill-rule="evenodd" clip-rule="evenodd" d="M3 12H11V10H3V12Z" stroke="white" stroke-width="2"/>
<path fill-rule="evenodd" clip-rule="evenodd" d="M6 4L3 6V7H11V6L8.001 4H6Z" fill="#7A7A79"/>
<path fill-rule="evenodd" clip-rule="evenodd" d="M7 2L6 3V4H8.001V3L7 2Z" fill="#7A7A79"/>
<path fill-rule="evenodd" clip-rule="evenodd" d="M5 11H6V6.99902H5V11Z" fill="#7A7A79"/>
<path fill-rule="evenodd" clip-rule="evenodd" d="M8 11H9V6.99902H8V11Z" fill="#7A7A79"/>
<path fill-rule="evenodd" clip-rule="evenodd" d="M3 11H4V6.99902H3V11Z" fill="#7A7A79"/>
<path fill-rule="evenodd" clip-rule="evenodd" d="M10 11H11V6.99902H10V11Z" fill="#7A7A79"/>
<path fill-rule="evenodd" clip-rule="evenodd" d="M3 12H11V10H3V12Z" fill="#7A7A79"/>
</svg>
