<svg width="30" height="30" viewBox="0 0 30 30" fill="none" xmlns="http://www.w3.org/2000/svg">
<path d="M5.5 21C4.67157 21 4 20.3284 4 19.5C4 18.6716 4.67157 18 5.5 18H8.228C8.31258 18 8.39293 17.9667 8.45234 17.9073L17.9073 8.45234C17.9667 8.39293 18 8.31258 18 8.228V5.5C18 4.67157 18.6716 4 19.5 4C20.3284 4 21 4.67157 21 5.5V8.228C21 9.1079 20.6509 9.95141 20.0287 10.5737L10.5737 20.0287C9.95141 20.6509 9.1079 21 8.228 21H5.5Z" stroke="white" stroke-width="3"/>
<path fill-rule="evenodd" clip-rule="evenodd" d="M17.5 22.5C17.5 24.157 16.157 25.5 14.5 25.5C12.843 25.5 11.5 24.157 11.5 22.5C11.5 20.843 12.843 19.5 14.5 19.5C16.157 19.5 17.5 20.843 17.5 22.5Z" stroke="white" stroke-width="3"/>
<path fill-rule="evenodd" clip-rule="evenodd" d="M25.5 14.5C25.5 16.157 24.157 17.5 22.5 17.5C20.843 17.5 19.5 16.157 19.5 14.5C19.5 12.843 20.843 11.5 22.5 11.5C24.157 11.5 25.5 12.843 25.5 14.5Z" stroke="white" stroke-width="3"/>
<path d="M5.5 21C4.67157 21 4 20.3284 4 19.5C4 18.6716 4.67157 18 5.5 18H8.228C8.31258 18 8.39293 17.9667 8.45234 17.9073L17.9073 8.45234C17.9667 8.39293 18 8.31258 18 8.228V5.5C18 4.67157 18.6716 4 19.5 4C20.3284 4 21 4.67157 21 5.5V8.228C21 9.1079 20.6509 9.95141 20.0287 10.5737L10.5737 20.0287C9.95141 20.6509 9.1079 21 8.228 21H5.5Z" fill="#7A7A79"/>
<path fill-rule="evenodd" clip-rule="evenodd" d="M17.5 22.5C17.5 24.157 16.157 25.5 14.5 25.5C12.843 25.5 11.5 24.157 11.5 22.5C11.5 20.843 12.843 19.5 14.5 19.5C16.157 19.5 17.5 20.843 17.5 22.5Z" fill="#7A7A79"/>
<path fill-rule="evenodd" clip-rule="evenodd" d="M25.5 14.5C25.5 16.157 24.157 17.5 22.5 17.5C20.843 17.5 19.5 16.157 19.5 14.5C19.5 12.843 20.843 11.5 22.5 11.5C24.157 11.5 25.5 12.843 25.5 14.5Z" fill="#7A7A79"/>
</svg>
