<svg width="60" height="60" viewBox="0 0 60 60" fill="none" xmlns="http://www.w3.org/2000/svg">
<path d="M5.5 18C5.5 15.5147 7.51472 13.5 10 13.5H50C52.4853 13.5 54.5 15.5147 54.5 18V33.5275C56.75 33.7762 58.5 35.6837 58.5 38V42C58.5 44.3163 56.75 46.2238 54.5 46.4725V54.5H45.5V46.5H14.5V54.5H5.5V46.4725C3.25003 46.2238 1.5 44.3163 1.5 42V38C1.5 35.6837 3.25003 33.7762 5.5 33.5275V18Z" fill="white"/>
<path d="M10 16C8.89543 16 8 16.8954 8 18V32H52V18C52 16.8954 51.1046 16 50 16H10Z" fill="#7A7A79"/>
<path d="M6 36C4.89543 36 4 36.8954 4 38V42C4 43.1046 4.89543 44 6 44H8V52H12V44H48V52H52V44H54C55.1046 44 56 43.1046 56 42V38C56 36.8954 55.1046 36 54 36H6Z" fill="#7A7A79"/>
</svg>
