<svg width="60" height="60" viewBox="0 0 60 60" fill="none" xmlns="http://www.w3.org/2000/svg">
<path d="M37.5057 8.5C37.5006 8.64282 37.5 8.80373 37.5 9C37.4982 9.01277 37.4609 9.27295 38.1136 9.88872C38.8455 10.5792 40.2164 11.4877 42.6723 12.6599C44.9291 13.7371 46.5 16.0126 46.5 18.6374V22C46.5 24.5408 45.9486 28.4181 44.262 32.002C42.9913 34.7023 41 37.3752 38.0078 39.0723C38.619 39.3366 39.3194 39.5 40 39.5H42.5V45.5H46C48.4853 45.5 50.5 47.5147 50.5 50V58.5H9.5V50C9.5 47.5147 11.5147 45.5 14 45.5H17.5V39.5H20C20.6806 39.5 21.381 39.3366 21.9922 39.0723C19 37.3752 17.0087 34.7023 15.738 32.002C14.0514 28.4181 13.5 24.5408 13.5 22V18.6374C13.5 16.0126 15.0709 13.7371 17.3277 12.6599C19.7836 11.4877 21.1545 10.5792 21.8864 9.88872C22.5391 9.27295 22.5019 9.01325 22.5001 9.00048C22.5001 8.80421 22.4994 8.64282 22.4943 8.5H19.4549L15.9549 1.5H44.0451L40.5451 8.5H37.5057Z" fill="white"/>
<path d="M20 4H40L39 6H37C35 6 35 7.8 35 9C35 10.7491 36.5296 12.4981 41.5954 14.9161C43.0395 15.6053 44 17.0373 44 18.6374V22C44 26.5 42 36 34 38C34 40 37 42 40 42V44H20V42C23 42 26 40 26 38C18 36 16 26.5 16 22V18.6374C16 17.0373 16.9605 15.6053 18.4046 14.9161C23.4704 12.4981 25 10.7491 25 9C25 7.8 25 6 23 6H21L20 4Z" fill="#D91928"/>
<path d="M12 50C12 48.8954 12.8954 48 14 48H46C47.1046 48 48 48.8954 48 50V56H12V50Z" fill="#D91928"/>
</svg>
