<svg width="60" height="60" viewBox="0 0 60 60" fill="none" xmlns="http://www.w3.org/2000/svg">
<path fill-rule="evenodd" clip-rule="evenodd" d="M20.7151 40.5C20.7151 37.4622 18.221 35 15.1437 35C12.0664 35 9.57227 37.4622 9.57227 40.5C9.57227 43.5378 12.0664 46 15.1437 46C18.221 46 20.7151 43.5378 20.7151 40.5Z" stroke="white" stroke-width="5"/>
<path fill-rule="evenodd" clip-rule="evenodd" d="M50.43 40.5C50.43 37.4622 47.9358 35 44.8585 35C41.7813 35 39.2871 37.4622 39.2871 40.5C39.2871 43.5378 41.7813 46 44.8585 46C47.9358 46 50.43 43.5378 50.43 40.5Z" stroke="white" stroke-width="5"/>
<path fill-rule="evenodd" clip-rule="evenodd" d="M11.6199 26.1592C7.06986 27.6571 4 31.8609 4 36.5946V39.9963H7.50403C7.50403 35.9465 11.0404 32.3339 15.1429 32.3339C19.2471 32.3339 23.0227 35.9465 23.0227 39.9963H37.0161C37.0161 35.9465 40.7547 32.3339 44.8571 32.3339C48.9614 32.3339 52.4442 35.9465 52.4442 39.9963H56V25.0006H45.0288V21.0088H41.137L30 32.0333H26.0245V25.0006L22.0625 21.0088L11.6199 26.1592Z" stroke="white" stroke-width="5"/>
<path fill-rule="evenodd" clip-rule="evenodd" d="M21.5723 17.6667L24.0947 14.8677L31.5353 22.5442L29.0008 25.0001L21.5723 17.6667Z" stroke="white" stroke-width="5"/>
<path fill-rule="evenodd" clip-rule="evenodd" d="M20.7151 40.5C20.7151 37.4622 18.221 35 15.1437 35C12.0664 35 9.57227 37.4622 9.57227 40.5C9.57227 43.5378 12.0664 46 15.1437 46C18.221 46 20.7151 43.5378 20.7151 40.5Z" fill="#7A7A79"/>
<path fill-rule="evenodd" clip-rule="evenodd" d="M50.43 40.5C50.43 37.4622 47.9358 35 44.8585 35C41.7813 35 39.2871 37.4622 39.2871 40.5C39.2871 43.5378 41.7813 46 44.8585 46C47.9358 46 50.43 43.5378 50.43 40.5Z" fill="#7A7A79"/>
<path fill-rule="evenodd" clip-rule="evenodd" d="M11.6199 26.1592C7.06986 27.6571 4 31.8609 4 36.5946V39.9963H7.50403C7.50403 35.9465 11.0404 32.3339 15.1429 32.3339C19.2471 32.3339 23.0227 35.9465 23.0227 39.9963H37.0161C37.0161 35.9465 40.7547 32.3339 44.8571 32.3339C48.9614 32.3339 52.4442 35.9465 52.4442 39.9963H56V25.0006H45.0288V21.0088H41.137L30 32.0333H26.0245V25.0006L22.0625 21.0088L11.6199 26.1592Z" fill="#7A7A79"/>
<path fill-rule="evenodd" clip-rule="evenodd" d="M21.5723 17.6667L24.0947 14.8677L31.5353 22.5442L29.0008 25.0001L21.5723 17.6667Z" fill="#7A7A79"/>
</svg>
