<svg width="14" height="14" viewBox="0 0 14 14" fill="none" xmlns="http://www.w3.org/2000/svg">
<path fill-rule="evenodd" clip-rule="evenodd" d="M2 8H11V7H2V8Z" fill="#7A7A79" stroke="white" stroke-width="2"/>
<path fill-rule="evenodd" clip-rule="evenodd" d="M2 10H3V8H2V10Z" fill="#7A7A79" stroke="white" stroke-width="2"/>
<path fill-rule="evenodd" clip-rule="evenodd" d="M4 10H5V8H4V10Z" fill="#7A7A79" stroke="white" stroke-width="2"/>
<path fill-rule="evenodd" clip-rule="evenodd" d="M6 10H7V8H6V10Z" fill="#7A7A79" stroke="white" stroke-width="2"/>
<path fill-rule="evenodd" clip-rule="evenodd" d="M8 10H9V8H8V10Z" fill="#7A7A79" stroke="white" stroke-width="2"/>
<path fill-rule="evenodd" clip-rule="evenodd" d="M10 10H11V8H10V10Z" fill="#7A7A79" stroke="white" stroke-width="2"/>
<path fill-rule="evenodd" clip-rule="evenodd" d="M11 5C11 5 8 5 6.5 3C5 5 2 5 2 5V6H11V5Z" fill="#7A7A79" stroke="white" stroke-width="2"/>
<path d="M11 10H2V12H11V10Z" fill="#7A7A79" stroke="white" stroke-width="2"/>
<path fill-rule="evenodd" clip-rule="evenodd" d="M2 8H11V7H2V8Z" fill="#7A7A79"/>
<path fill-rule="evenodd" clip-rule="evenodd" d="M2 10H3V8H2V10Z" fill="#7A7A79"/>
<path fill-rule="evenodd" clip-rule="evenodd" d="M4 10H5V8H4V10Z" fill="#7A7A79"/>
<path fill-rule="evenodd" clip-rule="evenodd" d="M6 10H7V8H6V10Z" fill="#7A7A79"/>
<path fill-rule="evenodd" clip-rule="evenodd" d="M8 10H9V8H8V10Z" fill="#7A7A79"/>
<path fill-rule="evenodd" clip-rule="evenodd" d="M10 10H11V8H10V10Z" fill="#7A7A79"/>
<path fill-rule="evenodd" clip-rule="evenodd" d="M11 5C11 5 8 5 6.5 3C5 5 2 5 2 5V6H11V5Z" fill="#7A7A79"/>
<path d="M11 11H2V12H11V11Z" fill="#7A7A79"/>
</svg>
