<svg width="14" height="14" viewBox="0 0 14 14" fill="none" xmlns="http://www.w3.org/2000/svg">
<path fill-rule="evenodd" clip-rule="evenodd" d="M2.31583 2.10555C2.66835 1.40051 3.40212 0.968303 4.18967 1.00182L7.58094 1.14613C8.05915 1.16648 9.0677 1.33988 9.43609 2.32223L9.43793 2.32718L9.82891 2.13169C10.5699 1.76122 11.4708 2.06155 11.8413 2.8025C12.2118 3.54344 11.9115 4.44443 11.1705 4.81491L10.4152 5.19258L10.2107 8.05565C10.2037 8.15258 10.1828 8.247 10.1493 8.33629C10.6636 8.69818 10.9997 9.29638 10.9997 9.97308C10.9997 11.0776 10.1043 11.973 8.99976 11.973C8.62226 11.973 8.26918 11.8684 7.96793 11.6866C7.78345 11.8677 7.53291 11.973 7.26738 11.973H5.34701C4.36936 11.973 3.535 11.2662 3.37428 10.3019L2.64583 5.93118C1.98833 5.77204 1.5 5.17968 1.5 4.47327C1.5 4.00205 1.71729 3.58158 2.05714 3.3066C1.96766 3.05349 1.98282 2.77157 2.10555 2.52612L2.31583 2.10555Z" fill="white"/>
<path d="M8.5 2.99974H3L3.21029 2.57916C3.38655 2.22663 3.75345 2.01052 4.14723 2.02728L7.53862 2.17159C7.93959 2.18866 8.29152 2.44379 8.43244 2.81957L8.5 2.99974Z" fill="#7A7A79"/>
<path d="M10.9472 3.2765C11.0707 3.52349 10.9706 3.82383 10.7236 3.94732L9.45859 4.57983L9.21348 8.01137C9.14334 8.00393 9.07212 8.00011 9 8.00011C7.89543 8.00011 7 8.89554 7 10.0001C7 10.3644 7.09739 10.7059 7.26756 11.0001H5.34713C4.85829 11.0001 4.4411 10.6467 4.36073 10.1645L3.5 5.00011H3C2.72386 5.00011 2.5 4.77625 2.5 4.50011C2.5 4.22397 2.72386 4.00011 3 4.00011H8.38197L10.2764 3.05289C10.5234 2.9294 10.8237 3.02951 10.9472 3.2765Z" fill="#7A7A79"/>
<path d="M9 11C9.55228 11 10 10.5523 10 10C10 9.44771 9.55228 9 9 9C8.44772 9 8 9.44771 8 10C8 10.5523 8.44772 11 9 11Z" fill="#7A7A79"/>
</svg>
