<svg width="116" height="117" viewBox="0 0 116 117" fill="none" xmlns="http://www.w3.org/2000/svg">
<path d="M58 117C90.0325 117 116 91.0325 116 59C116 26.9675 90.0325 1 58 1C25.9675 1 0 26.9675 0 59C0 91.0325 25.9675 117 58 117Z" fill="black" fill-opacity="0.02"/>
<path d="M58 115C88.9279 115 114 89.9279 114 59C114 28.0721 88.9279 3 58 3C27.0721 3 2 28.0721 2 59C2 89.9279 27.0721 115 58 115Z" fill="black" fill-opacity="0.02"/>
<path d="M58 113C87.8234 113 112 88.8234 112 59C112 29.1766 87.8234 5 58 5C28.1766 5 4 29.1766 4 59C4 88.8234 28.1766 113 58 113Z" fill="black" fill-opacity="0.02"/>
<path d="M58 111C86.7188 111 110 87.7188 110 59C110 30.2812 86.7188 7 58 7C29.2812 7 6 30.2812 6 59C6 87.7188 29.2812 111 58 111Z" fill="black" fill-opacity="0.02"/>
<path d="M58 109C85.6142 109 108 86.6142 108 59C108 31.3858 85.6142 9 58 9C30.3858 9 8 31.3858 8 59C8 86.6142 30.3858 109 58 109Z" fill="white"/>
<path d="M73.5417 52.0416V65.2623L78.675 75.2623V89.125H36.325V75.2623L41.4583 65.2623V52.0416L33.7583 42.0416V27.875H81.2417V42.0416L73.5417 52.0416Z" fill="white"/>
<path d="M52.3667 31H62.6333V36H70.3333V31H78.0333V41L70.3333 51H44.6667L36.9667 41V31H44.6667V36H52.3667V31Z" fill="#7A7A79"/>
<path fill-rule="evenodd" clip-rule="evenodd" d="M44.6667 56V66L39.5333 76V86H75.4667V76L70.3333 66V56H44.6667ZM54.9333 68.5C54.9333 67.1193 56.0824 66 57.5 66C58.9176 66 60.0667 67.1193 60.0667 68.5V76H54.9333V68.5Z" fill="#7A7A79"/>
</svg>
