<svg width="22" height="22" viewBox="0 0 22 22" fill="none" xmlns="http://www.w3.org/2000/svg">
<path fill-rule="evenodd" clip-rule="evenodd" d="M15 19H7C4.791 19 3 17.209 3 15H19C19 17.209 17.209 19 15 19Z" stroke="white" stroke-width="2"/>
<path fill-rule="evenodd" clip-rule="evenodd" d="M13 14H9C7.343 14 6 12.657 6 11H16C16 12.657 14.657 14 13 14Z" stroke="white" stroke-width="2"/>
<path fill-rule="evenodd" clip-rule="evenodd" d="M16.496 5.96729C16.338 5.96729 16.173 5.97829 16 6.00029C14.017 6.25329 12 8.00029 12 10.0003C12.666 9.00029 13.279 8.66629 13.855 8.66629C15.008 8.66629 16.011 10.0003 17 10.0003C18 10.0003 19 9.00029 19 8.00029C19 7.13229 18.166 5.96729 16.496 5.96729ZM16.496 6.96729C17.558 6.96729 18 7.64029 18 8.00029C18 8.44829 17.448 9.00029 17 9.00029C16.818 9.00029 16.396 8.72829 16.09 8.53029C15.609 8.22129 15.035 7.85229 14.366 7.71829C14.9 7.33229 15.528 7.06829 16.127 6.99129C16.256 6.97529 16.379 6.96729 16.496 6.96729Z" stroke="white" stroke-width="2"/>
<path fill-rule="evenodd" clip-rule="evenodd" d="M5.504 5.96729C3.834 5.96729 3 7.13229 3 8.00029C3 9.00029 4 10.0003 5 10.0003C5.989 10.0003 6.992 8.66629 8.145 8.66629C8.721 8.66629 9.334 9.00029 10 10.0003C10 8.00029 7.983 6.25329 6 6.00029C5.827 5.97829 5.662 5.96729 5.504 5.96729ZM5.504 6.96729C5.621 6.96729 5.744 6.97529 5.873 6.99129C6.472 7.06829 7.1 7.33229 7.634 7.71829C6.965 7.85229 6.391 8.22129 5.91 8.53029C5.603 8.72829 5.182 9.00029 5 9.00029C4.552 9.00029 4 8.44829 4 8.00029C4 7.64029 4.442 6.96729 5.504 6.96729Z" stroke="white" stroke-width="2"/>
<path fill-rule="evenodd" clip-rule="evenodd" d="M11 3C9.896 3 9 3.896 9 5C9 6.104 11 8 11 10C11 8 13 6.104 13 5C13 3.896 12.104 3 11 3ZM11 4C11.552 4 12 4.449 12 4.998C11.99 5.215 11.609 5.857 11.358 6.282C11.242 6.478 11.121 6.684 11 6.898C10.879 6.684 10.758 6.478 10.642 6.282C10.391 5.857 10.01 5.215 10 5C10 4.449 10.448 4 11 4Z" stroke="white" stroke-width="2"/>
<path fill-rule="evenodd" clip-rule="evenodd" d="M15 19H7C4.791 19 3 17.209 3 15H19C19 17.209 17.209 19 15 19Z" fill="#7A7A79"/>
<path fill-rule="evenodd" clip-rule="evenodd" d="M13 14H9C7.343 14 6 12.657 6 11H16C16 12.657 14.657 14 13 14Z" fill="#7A7A79"/>
<path fill-rule="evenodd" clip-rule="evenodd" d="M16.496 5.96729C16.338 5.96729 16.173 5.97829 16 6.00029C14.017 6.25329 12 8.00029 12 10.0003C12.666 9.00029 13.279 8.66629 13.855 8.66629C15.008 8.66629 16.011 10.0003 17 10.0003C18 10.0003 19 9.00029 19 8.00029C19 7.13229 18.166 5.96729 16.496 5.96729ZM16.496 6.96729C17.558 6.96729 18 7.64029 18 8.00029C18 8.44829 17.448 9.00029 17 9.00029C16.818 9.00029 16.396 8.72829 16.09 8.53029C15.609 8.22129 15.035 7.85229 14.366 7.71829C14.9 7.33229 15.528 7.06829 16.127 6.99129C16.256 6.97529 16.379 6.96729 16.496 6.96729Z" fill="#7A7A79"/>
<path fill-rule="evenodd" clip-rule="evenodd" d="M5.504 5.96729C3.834 5.96729 3 7.13229 3 8.00029C3 9.00029 4 10.0003 5 10.0003C5.989 10.0003 6.992 8.66629 8.145 8.66629C8.721 8.66629 9.334 9.00029 10 10.0003C10 8.00029 7.983 6.25329 6 6.00029C5.827 5.97829 5.662 5.96729 5.504 5.96729ZM5.504 6.96729C5.621 6.96729 5.744 6.97529 5.873 6.99129C6.472 7.06829 7.1 7.33229 7.634 7.71829C6.965 7.85229 6.391 8.22129 5.91 8.53029C5.603 8.72829 5.182 9.00029 5 9.00029C4.552 9.00029 4 8.44829 4 8.00029C4 7.64029 4.442 6.96729 5.504 6.96729Z" fill="#7A7A79"/>
<path fill-rule="evenodd" clip-rule="evenodd" d="M11 3C9.896 3 9 3.896 9 5C9 6.104 11 8 11 10C11 8 13 6.104 13 5C13 3.896 12.104 3 11 3ZM11 4C11.552 4 12 4.449 12 4.998C11.99 5.215 11.609 5.857 11.358 6.282C11.242 6.478 11.121 6.684 11 6.898C10.879 6.684 10.758 6.478 10.642 6.282C10.391 5.857 10.01 5.215 10 5C10 4.449 10.448 4 11 4Z" fill="#7A7A79"/>
</svg>
