<svg width="14" height="14" viewBox="0 0 14 14" fill="none" xmlns="http://www.w3.org/2000/svg">
<path d="M10.2929 1.29289C10.6834 0.90237 11.3166 0.90237 11.7071 1.29289C12.7106 2.29638 13.2445 4.09158 13.3117 5.77253C13.3796 7.46948 12.9876 9.42664 11.7071 10.7071L9.70711 12.7071C9.51957 12.8946 9.26522 13 9 13H3C2.59554 13 2.2309 12.7564 2.07612 12.3827C1.92134 12.009 2.0069 11.5789 2.29289 11.2929L3.58579 10L0.292893 6.70711C-0.097631 6.31658 -0.097631 5.68342 0.292893 5.29289L1.29289 4.29289C1.68342 3.90237 2.31658 3.90237 2.70711 4.29289L3 4.58579L4.29289 3.29289C4.68342 2.90237 5.31658 2.90237 5.70711 3.29289L6.70711 4.29289C6.90237 4.48816 7 4.74408 7 5C7 4.73478 7.10536 4.48043 7.29289 4.29289L10.2929 1.29289Z" fill="white"/>
<path fill-rule="evenodd" clip-rule="evenodd" d="M9 12L11 10C13 8 12.5 3.5 11 2L8 5V7L3 12H9ZM9.5 6.14998C9.85898 6.14998 10.15 5.85896 10.15 5.49998C10.15 5.14099 9.85898 4.84998 9.5 4.84998C9.14102 4.84998 8.85 5.14099 8.85 5.49998C8.85 5.85896 9.14102 6.14998 9.5 6.14998Z" fill="#7A7A79"/>
<path d="M6.79291 6.79291L5.5 5.5L6 5L5 4L3 6L2 5L1 6L4.29291 9.29291L6.79291 6.79291Z" fill="#7A7A79"/>
</svg>
