<svg width="60" height="60" viewBox="0 0 60 60" fill="none" xmlns="http://www.w3.org/2000/svg">
<path d="M26.5186 7.29699C27.392 3.36632 31.2474 0.854913 35.1957 1.64459L36.1805 1.84154C39.9371 2.59286 42.2325 6.41363 41.1316 10.0831L39.9869 13.8987C39.7509 14.6855 39.3196 15.3587 38.7624 15.8823C40.8096 17.5108 41.5267 20.4998 40.0895 22.9635L37.7489 26.9759C40.5833 28.7174 41.9967 32.2 41.0007 35.5197L37.9599 45.6549H46C48.4853 45.6549 50.5 47.6697 50.5 50.1549V54.1549C50.5 56.6402 48.4853 58.6549 46 58.6549H14C11.5147 58.6549 9.5 56.6402 9.5 54.1549V50.1549C9.5 47.6697 11.5147 45.6549 14 45.6549H21.8646L18.768 36.3642C17.7682 33.3647 18.7581 30.0682 21.2256 28.114L20.0475 18.6892C19.5758 14.9151 22.9853 11.8129 26.6982 12.638L27.1709 12.743L27.2752 12.4996C26.4232 10.967 26.1113 9.12961 26.5186 7.29699Z" fill="white"/>
<path d="M33.7273 14.0641L35.0443 14.5031C36.1147 14.8599 37.2682 14.2611 37.5924 13.1804L38.7371 9.36474C39.4145 7.10663 38.002 4.75538 35.6902 4.29303L34.7055 4.09607C32.0907 3.57312 29.5375 5.23629 28.959 7.83936C28.6018 9.44666 29.079 11.0605 30.1213 12.2053L28.6522 15.6332L26.1558 15.0785C24.1307 14.6284 22.2709 16.3206 22.5282 18.3791L23.8859 29.2405L22.883 29.9927C21.1614 31.284 20.4592 33.532 21.1397 35.5737L25.3331 48.155H14C12.8954 48.155 12 49.0504 12 50.155V54.155C12 55.2596 12.8954 56.155 14 56.155H46C47.1046 56.155 48 55.2596 48 54.155V50.155C48 49.0504 47.1046 48.155 46 48.155H34.5998L38.6062 34.8013C39.3828 32.2128 37.962 29.4756 35.3982 28.621L34.1397 28.2016L37.93 21.7039C38.9539 19.9486 37.9732 17.7045 35.9895 17.2637L33.3538 16.678L33.7273 14.0641Z" fill="#D91928"/>
</svg>
