<svg width="14" height="14" viewBox="0 0 14 14" fill="none" xmlns="http://www.w3.org/2000/svg">
<g clip-path="url(#clip0_1362_1205)">
<path d="M0.599517 7.64177C1.04465 7.19663 1.67338 6.98705 2.29657 7.07608L3.47972 7.2451L4.14895 6.40857L0.301197 4.92867C-0.0147475 4.80715 -0.247768 4.53404 -0.318039 4.20291C-0.388311 3.87178 -0.286291 3.52757 -0.0469305 3.28821L0.261401 2.97988C0.916022 2.32526 1.8362 2.00954 2.75482 2.12437L7.52112 2.72016L8.64405 1.59723C8.95704 1.28424 9.33861 1.04841 9.75857 0.90844L10.1732 0.770244C10.9436 0.513424 11.793 0.713948 12.3673 1.28821C12.9416 1.86248 13.1421 2.71191 12.8853 3.48237L12.7471 3.89696C12.6071 4.31688 12.3713 4.69845 12.0583 5.01144L10.9354 6.13437L11.5312 10.9007C11.646 11.8193 11.3303 12.7395 10.6756 13.3941L10.3673 13.7024C10.1279 13.9418 9.78367 14.0438 9.45258 13.9735C9.12145 13.9033 8.84835 13.6702 8.72683 13.3543L7.24692 9.50655L6.41039 10.1758L6.57941 11.3589C6.66844 11.9821 6.45886 12.6108 6.01373 13.056L5.36728 13.7024C5.12221 13.9475 4.76773 14.0482 4.43042 13.9686C4.09312 13.8889 3.82109 13.6403 3.71149 13.3115L3.34834 12.2221C2.84565 12.2583 2.33308 12.0824 1.95307 11.7024C1.57305 11.3224 1.3972 10.8098 1.43341 10.3072L0.343948 9.944C0.0151565 9.83441 -0.233446 9.56238 -0.313073 9.22507C-0.3927 8.88777 -0.291998 8.53328 -0.0469305 8.28821L0.599517 7.64177Z" fill="white"/>
<path d="M0.660156 3.99529L5.78369 5.96588L3.90375 8.31581L2.15513 8.066C1.84354 8.02149 1.52917 8.12628 1.30661 8.34885L0.660156 8.99529L2.79174 9.70582L2.60189 9.94313C2.35041 10.2575 2.37551 10.7106 2.66016 10.9953C2.94481 11.2799 3.39797 11.305 3.71232 11.0536L3.94963 10.8637L4.66016 12.9953L5.30661 12.3488C5.52917 12.1263 5.63396 11.8119 5.58945 11.5003L5.33965 9.7517L7.68957 7.87176L9.66016 12.9953L9.96846 12.687C10.4049 12.2505 10.6154 11.6371 10.5389 11.0247L9.88236 5.77307L11.3512 4.30431C11.5544 4.10109 11.7075 3.85335 11.7984 3.5807L11.9366 3.16611C12.0736 2.75499 11.9666 2.30173 11.6602 1.99529C11.3538 1.68886 10.9005 1.58186 10.4894 1.7189L10.0748 1.8571C9.80206 1.94798 9.55436 2.10109 9.35114 2.30431L7.88238 3.77307L2.63077 3.11662C2.01836 3.04007 1.4049 3.25055 0.968486 3.68696L0.660156 3.99529Z" fill="#7A7A79"/>
</g>
<defs>
<clipPath id="clip0_1362_1205">
<rect width="14" height="14" fill="white"/>
</clipPath>
</defs>
</svg>
