<svg width="60" height="60" viewBox="0 0 60 60" fill="none" xmlns="http://www.w3.org/2000/svg">
<g clip-path="url(#clip0_1362_1027)">
<path fill-rule="evenodd" clip-rule="evenodd" d="M52 44.9999H46C42.9726 44.3735 40.8065 42.2187 40 38.9999C40.8065 36.9017 42.9726 34.747 46 34.9999C47.9952 34.747 50.1613 32.5923 50 29.9999V27.9999V23.9999H32L36 17.9999L46 15.9999V9.99993C42.1339 7.75924 37.5629 6.38106 32 6.99993L13 11.9999C14.0903 15.3706 16.2661 17.6456 20 17.9999L28 19.9999L25 23.9999H5V29.9999H21.3684L15 38.9999L19 42.2369L27.3684 29.9999H31V34.9999L39 53.9999L55 46.9999L52 44.9999Z" stroke="white" stroke-width="5"/>
<path fill-rule="evenodd" clip-rule="evenodd" d="M52 44.9999H46C42.9726 44.3735 40.8064 42.2187 40 38.9999C40.8064 36.9017 42.9726 34.747 46 34.9999C47.9952 34.747 50.1613 32.5923 50 29.9999V27.9999V23.9999H32L36 17.9999L46 15.9999V9.99993C42.1339 7.75924 37.5629 6.38106 32 6.99993L13 11.9999C14.0903 15.3706 16.2661 17.6456 20 17.9999L28 19.9999L25 23.9999H5V29.9999H21.3684L15 38.9999L19 42.2369L27.3684 29.9999H31V34.9999L39 53.9999L55 46.9999L52 44.9999Z" fill="#7A7A79"/>
</g>
<defs>
<clipPath id="clip0_1362_1027">
<rect width="60" height="60" fill="white"/>
</clipPath>
</defs>
</svg>
