<svg width="60" height="60" viewBox="0 0 60 60" fill="none" xmlns="http://www.w3.org/2000/svg">
<path fill-rule="evenodd" clip-rule="evenodd" d="M30.0012 6H29.9372C16.6822 6.035 5.96517 16.809 6.00009 30.063C6.03517 43.297 16.7722 54 29.9982 54H30.0632C43.3172 53.965 54.0342 43.191 54.0003 29.937C53.9642 16.703 43.2272 5.999 30.0012 6ZM30.0022 11C40.4502 11 48.9722 19.501 49.0002 29.95C49.0272 40.427 40.5262 48.972 30.0502 49H29.9982C19.5502 49 11.0272 40.499 11.0001 30.05C10.9862 24.975 12.9502 20.198 16.5292 16.601C20.1082 13.002 24.8752 11.014 29.9492 11H30.0012H30.0022Z" stroke="white" stroke-width="6"/>
<path fill-rule="evenodd" clip-rule="evenodd" d="M30.0011 16H29.9631C22.2311 16.021 15.9801 22.305 16 30.037C16.0211 37.756 22.2841 44 29.9991 44H30.0371C37.7691 43.979 44.0211 37.695 44.0001 29.963C43.9801 22.244 37.7161 16 30.0011 16ZM30.0011 16V21C34.9501 21 38.9871 25.027 39.0001 29.977C39.0061 32.38 38.0761 34.643 36.3811 36.347C34.6861 38.052 32.4281 38.994 29.9991 39C25.0501 39 21.0131 34.973 21.0001 30.023C20.9941 27.62 21.9241 25.357 23.6191 23.653C25.3141 21.948 27.5721 21.006 29.9771 21L30.0011 16Z" stroke="white" stroke-width="6"/>
<path fill-rule="evenodd" clip-rule="evenodd" d="M30 26H29.989C27.78 26.006 25.994 27.801 26 30.011C26.006 32.216 27.795 34 30 34H30.011C32.22 33.994 34.006 32.199 34 29.989C33.994 27.784 32.205 26 30 26Z" stroke="white" stroke-width="6"/>
<path fill-rule="evenodd" clip-rule="evenodd" d="M30.0012 6H29.9372C16.6822 6.035 5.96517 16.809 6.00009 30.063C6.03517 43.297 16.7722 54 29.9982 54H30.0632C43.3172 53.965 54.0342 43.191 54.0003 29.937C53.9642 16.703 43.2272 5.999 30.0012 6ZM30.0022 11C40.4502 11 48.9722 19.501 49.0002 29.95C49.0272 40.427 40.5262 48.972 30.0502 49H29.9982C19.5502 49 11.0272 40.499 11.0001 30.05C10.9862 24.975 12.9502 20.198 16.5292 16.601C20.1082 13.002 24.8752 11.014 29.9492 11H30.0012H30.0022Z" fill="#7A7A79"/>
<path fill-rule="evenodd" clip-rule="evenodd" d="M30.0011 16H29.9631C22.2311 16.021 15.9801 22.305 16 30.037C16.0211 37.756 22.2841 44 29.9991 44H30.0371C37.7691 43.979 44.0211 37.695 44.0001 29.963C43.9801 22.244 37.7161 16 30.0011 16ZM30.0011 16V21C34.9501 21 38.9871 25.027 39.0001 29.977C39.0061 32.38 38.0761 34.643 36.3811 36.347C34.6861 38.052 32.4281 38.994 29.9991 39C25.0501 39 21.0131 34.973 21.0001 30.023C20.9941 27.62 21.9241 25.357 23.6191 23.653C25.3141 21.948 27.5721 21.006 29.9771 21L30.0011 16Z" fill="#7A7A79"/>
<path fill-rule="evenodd" clip-rule="evenodd" d="M30 26H29.989C27.78 26.006 25.994 27.801 26 30.011C26.006 32.216 27.795 34 30 34H30.011C32.22 33.994 34.006 32.199 34 29.989C33.994 27.784 32.205 26 30 26Z" fill="#7A7A79"/>
</svg>
