<svg width="60" height="60" viewBox="0 0 60 60" fill="none" xmlns="http://www.w3.org/2000/svg">
<path d="M1.91988 42.6133C1.40845 43.3805 1.36077 44.3668 1.79582 45.1797C2.23087 45.9926 3.07802 46.5001 4 46.5001H56C56.922 46.5001 57.7691 45.9926 58.2042 45.1797C58.6392 44.3668 58.5916 43.3805 58.0801 42.6133L42 18.4932L36 27.4932L24 9.49316L1.91988 42.6133Z" fill="white"/>
<path fill-rule="evenodd" clip-rule="evenodd" d="M24 14L4 44H44L24 14ZM25 28L21 30L24 18.5069L31 29L29 30L25 28Z" fill="#7A7A79"/>
<path d="M47.0043 44H55.9998L41.9998 23L37.502 29.7466L47.0043 44Z" fill="#7A7A79"/>
</svg>
