<svg width="60" height="60" viewBox="0 0 60 60" fill="none" xmlns="http://www.w3.org/2000/svg">
<path d="M20 5.5C14.7533 5.5 10.5 9.75329 10.5 15C10.5 19.3815 13.4662 23.0702 17.5 24.1676V37.5275C15.25 37.7762 13.5 39.6837 13.5 42V43.5275C11.25 43.7762 9.5 45.6837 9.5 48V54.5H50.5V48C50.5 45.6837 48.75 43.7762 46.5 43.5275V42C46.5 39.6837 44.75 37.7762 42.5 37.5275V24.1676C46.5338 23.0702 49.5 19.3815 49.5 15C49.5 9.75329 45.2467 5.5 40 5.5H20Z" fill="white"/>
<path d="M13 15C13 18.866 16.134 22 20 22C22.7614 22 25 19.7614 25 17C25 14.7909 23.2091 13 21 13C19.8954 13 19 13.8954 19 15C19 16.1046 19.8954 17 21 17V19.5C18.5147 19.5 16.5 17.4853 16.5 15C16.5 12.5147 18.5147 10.5 21 10.5C24.5899 10.5 27.5 13.4101 27.5 17C27.5 21.1421 24.1421 24.5 20 24.5V37.5H40V24.5C35.8579 24.5 32.5 21.1421 32.5 17C32.5 13.4101 35.4101 10.5 39 10.5C41.4853 10.5 43.5 12.5147 43.5 15C43.5 17.4853 41.4853 19.5 39 19.5V17C40.1046 17 41 16.1046 41 15C41 13.8954 40.1046 13 39 13C36.7909 13 35 14.7909 35 17C35 19.7614 37.2386 22 40 22C43.866 22 47 18.866 47 15C47 11.134 43.866 8 40 8H20C16.134 8 13 11.134 13 15Z" fill="#D91928"/>
<path d="M18 40C16.8954 40 16 40.8954 16 42V43.5H44V42C44 40.8954 43.1046 40 42 40H18Z" fill="#D91928"/>
<path d="M14 46C12.8954 46 12 46.8954 12 48V52H48V48C48 46.8954 47.1046 46 46 46H14Z" fill="#D91928"/>
</svg>
