<svg width="60" height="60" viewBox="0 0 60 60" fill="none" xmlns="http://www.w3.org/2000/svg">
<path fill-rule="evenodd" clip-rule="evenodd" d="M32.6654 11.9999C27.7877 14.3599 26.6946 18.2205 26.6946 18.2205L40.9334 30.0005L43 10C43 10 36.7987 10 32.6654 11.9999ZM25.2713 23.8461L21.0014 21.0333V26.0021L31.3332 32.0004L21 38.0002L27.1999 42L39.5044 33.6909L26.6946 22.4397L25.2713 23.8461Z" stroke="white" stroke-width="5"/>
<path fill-rule="evenodd" clip-rule="evenodd" d="M15.4444 8L14 10.8889L25.5556 21L27 18.1111L15.4444 8Z" stroke="white" stroke-width="5"/>
<path fill-rule="evenodd" clip-rule="evenodd" d="M44.6125 28.0007L38.1527 22L36 26.0009C36 26.0009 40.3025 29.9991 42.4597 32.0002C44.0639 33.4895 43.8815 34 46.7652 34C49.6459 34 48.9179 30.0005 48.9179 30.0005L44.6125 28.0007Z" stroke="white" stroke-width="5"/>
<path fill-rule="evenodd" clip-rule="evenodd" d="M52.3143 50.8414C48.61 50.8414 44.9142 51.6431 39.9705 48.7651C27.1719 41.3051 5 28 5 28V32.4448C5 32.4448 34.7094 50.0719 35.8568 50.8414C40.36 53.3354 47.0986 55.1154 50.2575 54.9942C55.401 54.797 54.3712 50.8414 52.3143 50.8414Z" stroke="white" stroke-width="5"/>
<path fill-rule="evenodd" clip-rule="evenodd" d="M55 9C55 11.7624 52.7613 14 50.0007 14C47.2401 14 45 11.7624 45 9C45 6.23761 47.2401 4 50.0007 4C52.7613 4 55 6.23761 55 9Z" stroke="white" stroke-width="5"/>
<path fill-rule="evenodd" clip-rule="evenodd" d="M32.6654 11.9999C27.7877 14.3599 26.6946 18.2205 26.6946 18.2205L40.9334 30.0005L43 10C43 10 36.7987 10 32.6654 11.9999ZM25.2713 23.8461L21.0014 21.0333V26.0021L31.3332 32.0004L21 38.0002L27.1999 42L39.5044 33.6909L26.6946 22.4397L25.2713 23.8461Z" fill="#7A7A79"/>
<path fill-rule="evenodd" clip-rule="evenodd" d="M15.4444 8L14 10.8889L25.5556 21L27 18.1111L15.4444 8Z" fill="#7A7A79"/>
<path fill-rule="evenodd" clip-rule="evenodd" d="M48.9179 30.0005L44.6125 28.0007L38.1527 22L36 26.0009C36 26.0009 40.3025 29.9991 42.4597 32.0002C44.0639 33.4895 43.8815 34 46.7652 34C49.6459 34 48.9179 30.0005 48.9179 30.0005Z" fill="#7A7A79"/>
<path fill-rule="evenodd" clip-rule="evenodd" d="M52.3143 50.8414C48.61 50.8414 44.9142 51.6431 39.9705 48.7651C27.1719 41.3051 5 28 5 28V32.4448C5 32.4448 34.7094 50.0719 35.8568 50.8414C40.36 53.3354 47.0986 55.1154 50.2575 54.9942C55.401 54.797 54.3712 50.8414 52.3143 50.8414Z" fill="#7A7A79"/>
<path fill-rule="evenodd" clip-rule="evenodd" d="M55 9C55 11.7624 52.7613 14 50.0007 14C47.2401 14 45 11.7624 45 9C45 6.23761 47.2401 4 50.0007 4C52.7613 4 55 6.23761 55 9Z" fill="#7A7A79"/>
</svg>
