<svg width="14" height="14" viewBox="0 0 14 14" fill="none" xmlns="http://www.w3.org/2000/svg">
<path fill-rule="evenodd" clip-rule="evenodd" d="M4 13V4C4 2.897 4.897 2 6 2C7.103 2 8 2.897 8 4H9C9 2.343 7.656 1 6 1C4.344 1 3 2.343 3 4V13H4Z" stroke="white" stroke-width="2"/>
<path fill-rule="evenodd" clip-rule="evenodd" d="M9 4H8C6.896 4 6 4.896 6 6V7H11V6C11 4.896 10.104 4 9 4Z" stroke="white" stroke-width="2"/>
<path fill-rule="evenodd" clip-rule="evenodd" d="M6 13H7V12H6V13Z" stroke="white" stroke-width="2"/>
<path fill-rule="evenodd" clip-rule="evenodd" d="M8 13H9V12H8V13Z" stroke="white" stroke-width="2"/>
<path fill-rule="evenodd" clip-rule="evenodd" d="M10 13H11V12H10V13Z" stroke="white" stroke-width="2"/>
<path fill-rule="evenodd" clip-rule="evenodd" d="M6 11H7V10H6V11Z" stroke="white" stroke-width="2"/>
<path fill-rule="evenodd" clip-rule="evenodd" d="M8 11H9V10H8V11Z" stroke="white" stroke-width="2"/>
<path fill-rule="evenodd" clip-rule="evenodd" d="M10 11H11V10H10V11Z" stroke="white" stroke-width="2"/>
<path fill-rule="evenodd" clip-rule="evenodd" d="M6 9H11V8H6V9Z" stroke="white" stroke-width="2"/>
<path fill-rule="evenodd" clip-rule="evenodd" d="M4 13V4C4 2.897 4.897 2 6 2C7.103 2 8 2.897 8 4H9C9 2.343 7.656 1 6 1C4.344 1 3 2.343 3 4V13H4Z" fill="#7A7A79"/>
<path fill-rule="evenodd" clip-rule="evenodd" d="M9 4H8C6.896 4 6 4.896 6 6V7H11V6C11 4.896 10.104 4 9 4Z" fill="#7A7A79"/>
<path fill-rule="evenodd" clip-rule="evenodd" d="M6 13H7V12H6V13Z" fill="#7A7A79"/>
<path fill-rule="evenodd" clip-rule="evenodd" d="M8 13H9V12H8V13Z" fill="#7A7A79"/>
<path fill-rule="evenodd" clip-rule="evenodd" d="M10 13H11V12H10V13Z" fill="#7A7A79"/>
<path fill-rule="evenodd" clip-rule="evenodd" d="M6 11H7V10H6V11Z" fill="#7A7A79"/>
<path fill-rule="evenodd" clip-rule="evenodd" d="M8 11H9V10H8V11Z" fill="#7A7A79"/>
<path fill-rule="evenodd" clip-rule="evenodd" d="M10 11H11V10H10V11Z" fill="#7A7A79"/>
<path fill-rule="evenodd" clip-rule="evenodd" d="M6 9H11V8H6V9Z" fill="#7A7A79"/>
</svg>
