<svg width="92" height="92" viewBox="0 0 92 92" fill="none" xmlns="http://www.w3.org/2000/svg">
<g filter="url(#filter0_d_1244_8459)">
<path d="M46 84C66.9868 84 84 66.9868 84 46C84 25.0132 66.9868 8 46 8C25.0132 8 8 25.0132 8 46C8 66.9868 25.0132 84 46 84Z" fill="white"/>
</g>
<path d="M48 32L56 16L64 32H60L68 48H64L72 64H60V68H52V64H40L48 48H44L52 32H48Z" fill="#F28B3D"/>
<path d="M40 52H16V56H20V68H24V56H32V68H36V56H40V52Z" fill="#F28B3D"/>
<defs>
<filter id="filter0_d_1244_8459" x="1" y="1" width="90" height="90" filterUnits="userSpaceOnUse" color-interpolation-filters="sRGB">
<feFlood flood-opacity="0" result="BackgroundImageFix"/>
<feColorMatrix in="SourceAlpha" type="matrix" values="0 0 0 0 0 0 0 0 0 0 0 0 0 0 0 0 0 0 127 0" result="hardAlpha"/>
<feOffset/>
<feGaussianBlur stdDeviation="3.5"/>
<feColorMatrix type="matrix" values="0 0 0 0 0 0 0 0 0 0 0 0 0 0 0 0 0 0 0.15 0"/>
<feBlend mode="normal" in2="BackgroundImageFix" result="effect1_dropShadow_1244_8459"/>
<feBlend mode="normal" in="SourceGraphic" in2="effect1_dropShadow_1244_8459" result="shape"/>
</filter>
</defs>
</svg>
