<svg width="40" height="40" viewBox="0 0 40 40" fill="none" xmlns="http://www.w3.org/2000/svg">
<g clip-path="url(#clip0_4351_746)">
<path d="M0 0H12.5C17.0718 0 20.9611 2.92183 22.4025 7H37V15H40V24H38V26C38 29.3163 35.6939 32.094 32.5978 32.8168C31.3814 36.9682 27.5448 40 23 40H21.5C15.1487 40 10 34.8513 10 28.5V28H0V0Z" fill="white"/>
<path fill-rule="evenodd" clip-rule="evenodd" d="M3 3H12.5C16.6421 3 20 6.35786 20 10.5C20 14.6421 16.6421 18 12.5 18H7V25H3V3ZM7 14V7H12.5C14.433 7 16 8.567 16 10.5C16 12.433 14.433 14 12.5 14H7Z" fill="#D91928"/>
<path d="M37 18H34V10H31V18H26V10H23V18H20V21H22V26C22 28.2091 23.7909 30 26 30H27C27 32.2091 25.2091 34 23 34H21.5C18.4624 34 16 31.5376 16 28.5V24H13V28.5C13 33.1944 16.8056 37 21.5 37H23C26.866 37 30 33.866 30 30H31C33.2091 30 35 28.2091 35 26V21H37V18Z" fill="#D91928"/>
</g>
<defs>
<clipPath id="clip0_4351_746">
<rect width="40" height="40" fill="white"/>
</clipPath>
</defs>
</svg>
