<svg width="60" height="60" viewBox="0 0 60 60" fill="none" xmlns="http://www.w3.org/2000/svg">
<path fill-rule="evenodd" clip-rule="evenodd" d="M19 56H41V49H19V56Z" stroke="white" stroke-width="5"/>
<path fill-rule="evenodd" clip-rule="evenodd" d="M35 50H26L25.999 29H19V22H35V50Z" stroke="white" stroke-width="5"/>
<path fill-rule="evenodd" clip-rule="evenodd" d="M36 10C36 13.8656 32.8656 17 29 17C25.1344 17 22 13.8656 22 10C22 6.13444 25.1344 3 29 3C32.8656 3 36 6.13444 36 10Z" stroke="white" stroke-width="5"/>
<path fill-rule="evenodd" clip-rule="evenodd" d="M19 56H41V49H19V56Z" fill="#7A7A79"/>
<path fill-rule="evenodd" clip-rule="evenodd" d="M19 29H35V22H19V29Z" fill="#7A7A79"/>
<path fill-rule="evenodd" clip-rule="evenodd" d="M26 50H35V29H26V50Z" fill="#7A7A79"/>
<path fill-rule="evenodd" clip-rule="evenodd" d="M36 10C36 13.8656 32.8656 17 29 17C25.1344 17 22 13.8656 22 10C22 6.13444 25.1344 3 29 3C32.8656 3 36 6.13444 36 10Z" fill="#7A7A79"/>
</svg>
