<svg width="17" height="17" viewBox="0 0 17 17" fill="none" xmlns="http://www.w3.org/2000/svg">
<path d="M4 4.5C4 3.57043 4 3.10564 4.08775 2.72117C4.38692 1.41044 5.41044 0.386922 6.72118 0.087752C7.10564 0 7.57043 0 8.5 0C9.42957 0 9.89436 0 10.2788 0.087752C11.5896 0.386922 12.6131 1.41044 12.9122 2.72117C13 3.10564 13 3.57043 13 4.5V12.5C13 13.4296 13 13.8944 12.9122 14.2788C12.6131 15.5896 11.5896 16.6131 10.2788 16.9123C9.89436 17 9.42957 17 8.5 17C7.57043 17 7.10564 17 6.72118 16.9123C5.41044 16.6131 4.38692 15.5896 4.08775 14.2788C4 13.8944 4 13.4296 4 12.5V4.5Z" fill="#6B6559"/>
<path d="M5 4.5C5 3.56936 5 3.10404 5.12236 2.72746C5.36965 1.96636 5.96636 1.36965 6.72746 1.12236C7.10404 1 7.56936 1 8.5 1C9.43064 1 9.89596 1 10.2725 1.12236C11.0336 1.36965 11.6303 1.96636 11.8776 2.72746C12 3.10404 12 3.56936 12 4.5V12.5C12 13.4306 12 13.896 11.8776 14.2726C11.6303 15.0336 11.0336 15.6304 10.2725 15.8776C9.89596 16 9.43064 16 8.5 16C7.56936 16 7.10404 16 6.72746 15.8776C5.96636 15.6304 5.36965 15.0336 5.12236 14.2726C5 13.896 5 13.4306 5 12.5V4.5Z" fill="white"/>
<path d="M8.49922 6.04922C9.35526 6.04922 10.0492 5.35526 10.0492 4.49922C10.0492 3.64318 9.35526 2.94922 8.49922 2.94922C7.64318 2.94922 6.94922 3.64318 6.94922 4.49922C6.94922 5.35526 7.64318 6.04922 8.49922 6.04922Z" fill="#F8888B" stroke="#F74044" stroke-width="0.1"/>
<path d="M8.49922 10.0492C9.35526 10.0492 10.0492 9.35526 10.0492 8.49922C10.0492 7.64318 9.35526 6.94922 8.49922 6.94922C7.64318 6.94922 6.94922 7.64318 6.94922 8.49922C6.94922 9.35526 7.64318 10.0492 8.49922 10.0492Z" fill="#F4BA36" stroke="#F4A900" stroke-width="0.1"/>
<path d="M8.49922 14.0492C9.35526 14.0492 10.0492 13.3553 10.0492 12.4992C10.0492 11.6432 9.35526 10.9492 8.49922 10.9492C7.64318 10.9492 6.94922 11.6432 6.94922 12.4992C6.94922 13.3553 7.64318 14.0492 8.49922 14.0492Z" fill="#6ABD7B" stroke="#00BD26" stroke-width="0.1"/>
</svg>
