<svg width="60" height="60" viewBox="0 0 60 60" fill="none" xmlns="http://www.w3.org/2000/svg">
<path fill-rule="evenodd" clip-rule="evenodd" d="M3 27C9.07486 27 14 32.8197 14 40V27H3Z" stroke="white" stroke-width="5"/>
<path fill-rule="evenodd" clip-rule="evenodd" d="M30 27C23.9251 27 19 32.8197 19 40V27H30Z" stroke="white" stroke-width="5"/>
<path fill-rule="evenodd" clip-rule="evenodd" d="M41 48H46V27H41V48Z" stroke="white" stroke-width="5"/>
<path fill-rule="evenodd" clip-rule="evenodd" d="M31 27C37.0749 27 42 32.8197 42 40V27H31Z" stroke="white" stroke-width="5"/>
<path fill-rule="evenodd" clip-rule="evenodd" d="M57 27C50.9251 27 46 32.8197 46 40V27H57Z" stroke="white" stroke-width="5"/>
<path fill-rule="evenodd" clip-rule="evenodd" d="M3 27H57V21H3V27Z" stroke="white" stroke-width="5"/>
<path fill-rule="evenodd" clip-rule="evenodd" d="M3 18H57V13H3V18Z" stroke="white" stroke-width="5"/>
<path fill-rule="evenodd" clip-rule="evenodd" d="M14 48H19V27H14V48Z" stroke="white" stroke-width="5"/>
<path fill-rule="evenodd" clip-rule="evenodd" d="M3 27C9.07486 27 14 32.8197 14 40V27H3Z" fill="#7A7A79"/>
<path fill-rule="evenodd" clip-rule="evenodd" d="M30 27C23.9251 27 19 32.8197 19 40V27H30Z" fill="#7A7A79"/>
<path fill-rule="evenodd" clip-rule="evenodd" d="M41 48H46V27H41V48Z" fill="#7A7A79"/>
<path fill-rule="evenodd" clip-rule="evenodd" d="M31 27C37.0749 27 42 32.8197 42 40V27H31Z" fill="#7A7A79"/>
<path fill-rule="evenodd" clip-rule="evenodd" d="M57 27C50.9251 27 46 32.8197 46 40V27H57Z" fill="#7A7A79"/>
<path fill-rule="evenodd" clip-rule="evenodd" d="M3 27H57V21H3V27Z" fill="#7A7A79"/>
<path fill-rule="evenodd" clip-rule="evenodd" d="M3 18H57V13H3V18Z" fill="#7A7A79"/>
<path fill-rule="evenodd" clip-rule="evenodd" d="M14 48H19V27H14V48Z" fill="#7A7A79"/>
</svg>
