<svg width="60" height="60" viewBox="0 0 60 60" fill="none" xmlns="http://www.w3.org/2000/svg">
<path fill-rule="evenodd" clip-rule="evenodd" d="M7.71484 33.7145L15.1434 26.2859L33.7148 44.8573L26.2863 52.2859L7.71484 33.7145Z" stroke="white" stroke-width="5"/>
<path fill-rule="evenodd" clip-rule="evenodd" d="M26.2852 15.1429L33.7137 7.71436L52.2852 26.2858L44.8566 33.7144L26.2852 15.1429Z" stroke="white" stroke-width="5"/>
<path fill-rule="evenodd" clip-rule="evenodd" d="M35.5714 18.8572L41.1429 24.4286L22.5714 43L17 37.4286L35.5714 18.8572Z" stroke="white" stroke-width="5"/>
<path fill-rule="evenodd" clip-rule="evenodd" d="M43.2498 4.00024L39 8.25006L51.7516 20.9995L55.9993 16.7497L43.2498 4.00024Z" stroke="white" stroke-width="5"/>
<path fill-rule="evenodd" clip-rule="evenodd" d="M4 43.2499L16.7496 55.9994L20.9994 51.7517L8.24986 39L4 43.2499Z" stroke="white" stroke-width="5"/>
<path fill-rule="evenodd" clip-rule="evenodd" d="M7.71484 33.7145L15.1434 26.2859L33.7148 44.8573L26.2863 52.2859L7.71484 33.7145Z" fill="#7A7A79"/>
<path fill-rule="evenodd" clip-rule="evenodd" d="M26.2852 15.1429L33.7137 7.71436L52.2852 26.2858L44.8566 33.7144L26.2852 15.1429Z" fill="#7A7A79"/>
<path fill-rule="evenodd" clip-rule="evenodd" d="M35.5714 18.8572L41.1429 24.4286L22.5714 43L17 37.4286L35.5714 18.8572Z" fill="#7A7A79"/>
<path fill-rule="evenodd" clip-rule="evenodd" d="M43.2498 4.00024L39 8.25006L51.7516 20.9995L55.9993 16.7497L43.2498 4.00024Z" fill="#7A7A79"/>
<path fill-rule="evenodd" clip-rule="evenodd" d="M4 43.2499L16.7496 55.9994L20.9994 51.7517L8.24986 39L4 43.2499Z" fill="#7A7A79"/>
</svg>
