<svg width="60" height="60" viewBox="0 0 60 60" fill="none" xmlns="http://www.w3.org/2000/svg">
<path fill-rule="evenodd" clip-rule="evenodd" d="M47.3771 42.2217H12.6245C11.6164 42.2217 10.8005 41.4065 10.8005 40.4061C10.8005 37.9329 12.1174 35.5911 14.241 34.2987L29.9992 24.6901L45.759 34.2987C47.8826 35.5911 49.2011 37.9329 49.2011 40.4061C49.2011 41.4065 48.3836 42.2217 47.3771 42.2217ZM48.2622 30.224L34.5999 21.8926C37.5656 20.2682 39.6002 17.1648 39.6002 13.555C39.6002 8.27813 35.3022 4 29.9992 4C24.6978 4 20.3998 8.27813 20.3998 13.555H25.2003C25.2003 10.9212 27.3531 8.77676 29.9992 8.77676C32.6469 8.77676 34.7997 10.9212 34.7997 13.555C34.7997 15.4364 33.6395 16.9583 32.0845 17.8118C26.8568 20.6751 11.7378 30.224 11.7378 30.224C8.19893 32.3761 6 36.2779 6 40.4061C6 44.0403 8.97186 47 12.6245 47H47.3771C51.0281 47 54 44.0403 54 40.4061C54 36.2779 51.8011 32.3761 48.2622 30.224Z" stroke="white" stroke-width="5"/>
<path fill-rule="evenodd" clip-rule="evenodd" d="M39.5789 38H20.4211C17.9792 38 16 40.1264 16 42.75V57H44V42.75C44 40.1264 42.0208 38 39.5789 38Z" stroke="white" stroke-width="5"/>
<path fill-rule="evenodd" clip-rule="evenodd" d="M47.3771 42.2217H12.6245C11.6164 42.2217 10.8005 41.4065 10.8005 40.4061C10.8005 37.9329 12.1174 35.5912 14.241 34.2987L29.9992 24.6901L45.759 34.2987C47.8826 35.5912 49.2011 37.9329 49.2011 40.4061C49.2011 41.4065 48.3836 42.2217 47.3771 42.2217ZM48.2622 30.224L34.5999 21.8926C37.5656 20.2682 39.6002 17.1648 39.6002 13.555C39.6002 8.27813 35.3022 4 29.9992 4C24.6978 4 20.3998 8.27813 20.3998 13.555H25.2003C25.2003 10.9212 27.3531 8.77676 29.9992 8.77676C32.6469 8.77676 34.7997 10.9212 34.7997 13.555C34.7997 15.4364 33.6395 16.9583 32.0845 17.8118C26.8568 20.6751 11.7378 30.224 11.7378 30.224C8.19893 32.3761 6 36.2779 6 40.4061C6 44.0403 8.97186 47 12.6245 47H47.3771C51.0281 47 54 44.0403 54 40.4061C54 36.2779 51.8011 32.3761 48.2622 30.224Z" fill="#7A7A79"/>
<path fill-rule="evenodd" clip-rule="evenodd" d="M39.5789 38H20.4211C17.9792 38 16 40.1264 16 42.75V57H44V42.75C44 40.1264 42.0208 38 39.5789 38Z" fill="#7A7A79"/>
</svg>
