<svg width="40" height="40" viewBox="0 0 40 40" fill="none" xmlns="http://www.w3.org/2000/svg">
<path fill-rule="evenodd" clip-rule="evenodd" d="M12.5 0H0V28H10V21H11C11 23.2091 12.7909 25 15 25V27C15 28.7937 15.6746 30.4297 16.784 31.6684C16.2863 32.4955 16 33.4643 16 34.5C16 37.5376 18.4624 40 21.5 40C23.2079 40 24.734 39.2215 25.7428 38H30.2572C31.266 39.2215 32.7921 40 34.5 40C37.5376 40 40 37.5376 40 34.5C40 33.1711 39.5287 31.9523 38.7442 31.0016C39.5357 29.8675 40 28.488 40 27V21C40 17.134 36.866 14 33 14H25V21H23C23 19.3238 21.969 17.8884 20.5065 17.2934C22.0617 15.4623 23 13.0907 23 10.5C23 4.70101 18.299 0 12.5 0Z" fill="white" fill-opacity="0.7"/>
<path fill-rule="evenodd" clip-rule="evenodd" d="M3 3H7H12.5C16.6421 3 20 6.35786 20 10.5C20 14.6421 16.6421 18 12.5 18H7V25H3V3ZM7 14V7H12.5C14.433 7 16 8.567 16 10.5C16 12.433 14.433 14 12.5 14H7ZM28 17H31C34.3137 17 37 19.6863 37 23V24V26C37 28.7614 34.7614 31 32 31H23C20.2386 31 18 28.7614 18 26V25V24V23C18 22.4477 17.5523 22 17 22H15C14.4477 22 14 21.5523 14 21C14 20.4477 14.4477 20 15 20H17C18.6569 20 20 21.3431 20 23V24H28V17ZM23.95 35C23.7184 36.1411 22.7095 37 21.5 37C20.1193 37 19 35.8807 19 34.5C19 33.1193 20.1193 32 21.5 32C22.3179 32 23.0441 32.3928 23.5002 33H31.4998C31.9559 32.3928 32.6821 32 33.5 32C34.8807 32 36 33.1193 36 34.5C36 35.8807 34.8807 37 33.5 37C32.2905 37 31.2816 36.1411 31.05 35H23.95Z" fill="#D91928"/>
</svg>
