<svg width="60" height="60" viewBox="0 0 60 60" fill="none" xmlns="http://www.w3.org/2000/svg">
<path fill-rule="evenodd" clip-rule="evenodd" d="M12 55H47V50H12V55Z" stroke="white" stroke-width="5"/>
<path fill-rule="evenodd" clip-rule="evenodd" d="M36 43H22V32.0257C22 28.7083 24.9435 26 29 26C33.0565 26 36 28.7083 36 32.0257V43ZM43.0191 20.0332V9.05548H38.1423L34.0107 15.0409H25.0538L21.4832 19.1388L18.0345 15.0409V5H12V47H47V20.0332H43.0191Z" stroke="white" stroke-width="5"/>
<path fill-rule="evenodd" clip-rule="evenodd" d="M12 55H47V50H12V55Z" fill="#7A7A79"/>
<path fill-rule="evenodd" clip-rule="evenodd" d="M36 43H22V32.0257C22 28.7083 24.9435 26 29 26C33.0565 26 36 28.7083 36 32.0257V43ZM43.0191 20.0332V9.05548H38.1423L34.0107 15.0409H25.0538L21.4832 19.1388L18.0345 15.0409V5H12V47H47V20.0332H43.0191Z" fill="#7A7A79"/>
</svg>
