<svg width="60" height="60" viewBox="0 0 60 60" fill="none" xmlns="http://www.w3.org/2000/svg">
<path fill-rule="evenodd" clip-rule="evenodd" d="M28 56H33V49H28V56Z" stroke="white" stroke-width="5"/>
<path fill-rule="evenodd" clip-rule="evenodd" d="M28.9131 23L19 47.1579C19 47.1579 21.8888 50 30.5 50C39.1112 50 42 47.1579 42 47.1579L32.1238 23H28.9131Z" stroke="white" stroke-width="5"/>
<path fill-rule="evenodd" clip-rule="evenodd" d="M30.5 19.8246L25.2467 23L26.675 17.0745L22 13.1115L28.136 12.6246L30.5 7L32.864 12.6246L39 13.1115L34.325 17.0745L35.7533 23L30.5 19.8246Z" stroke="white" stroke-width="5"/>
<path fill-rule="evenodd" clip-rule="evenodd" d="M28 56H33V49H28V56Z" fill="#7A7A79"/>
<path fill-rule="evenodd" clip-rule="evenodd" d="M28.9131 23L19 47.1579C19 47.1579 21.8888 50 30.5 50C39.1112 50 42 47.1579 42 47.1579L32.1238 23H28.9131Z" fill="#7A7A79"/>
<path fill-rule="evenodd" clip-rule="evenodd" d="M30.5 19.8246L25.2467 23L26.675 17.0745L22 13.1115L28.136 12.6246L30.5 7L32.864 12.6246L39 13.1115L34.325 17.0745L35.7533 23L30.5 19.8246Z" fill="#7A7A79"/>
</svg>
