<svg width="60" height="60" viewBox="0 0 60 60" fill="none" xmlns="http://www.w3.org/2000/svg">
<path fill-rule="evenodd" clip-rule="evenodd" d="M30 48C23.3824 48 18 42.6159 18 36H22.8C22.9471 39.8884 26.1116 43.0529 30 43.2V48ZM30 6C30 6 12 23.142 12 36C12 46.1043 20.0604 54 30 54C39.9396 54 48 46.1043 48 36C48 23.142 30 6 30 6Z" stroke="white" stroke-width="5"/>
<path fill-rule="evenodd" clip-rule="evenodd" d="M30 48C23.3824 48 18 42.6159 18 36H22.8C22.9471 39.8884 26.1116 43.0529 30 43.2V48ZM30 6C30 6 12 23.142 12 36C12 46.1043 20.0604 54 30 54C39.9396 54 48 46.1043 48 36C48 23.142 30 6 30 6Z" fill="#7A7A79"/>
</svg>
