<svg width="22" height="22" viewBox="0 0 22 22" fill="none" xmlns="http://www.w3.org/2000/svg">
<path fill-rule="evenodd" clip-rule="evenodd" d="M14.417 11.3921C14.417 11.3921 13.479 9.99512 12.294 9.99512C11.041 9.99512 11 10.9421 11 10.9421C11 10.9421 11.014 12.4411 11.014 12.6511C10.231 12.6511 9.735 12.5761 8.88 12.6531C7.882 12.7431 7.546 13.7191 7.546 13.7191L6 16.0001H8L8.88 15.1841C8.88 15.1841 9.776 15.2061 10.269 15.2061C12.811 15.2061 12.708 14.8611 12.708 13.1291C12.708 11.8571 14.417 11.3921 14.417 11.3921Z" stroke="white" stroke-width="2"/>
<path fill-rule="evenodd" clip-rule="evenodd" d="M17 8L11 7L5 8V9H17V8Z" stroke="white" stroke-width="2"/>
<path fill-rule="evenodd" clip-rule="evenodd" d="M10 7H12V5H10V7ZM9 6C9 7.104 9.896 8 11 8C12.104 8 13 7.104 13 6C13 4.896 12.104 4 11 4C9.896 4 9 4.896 9 6Z" stroke="white" stroke-width="2"/>
<path fill-rule="evenodd" clip-rule="evenodd" d="M5 17H6V9H5V17Z" stroke="white" stroke-width="2"/>
<path fill-rule="evenodd" clip-rule="evenodd" d="M5 18H17V17H5V18Z" stroke="white" stroke-width="2"/>
<path fill-rule="evenodd" clip-rule="evenodd" d="M16 17H17V9H16V17Z" stroke="white" stroke-width="2"/>
<path fill-rule="evenodd" clip-rule="evenodd" d="M14 17H15V12H14V17Z" stroke="white" stroke-width="2"/>
<path fill-rule="evenodd" clip-rule="evenodd" d="M14 10H15V9H14V10Z" stroke="white" stroke-width="2"/>
<path fill-rule="evenodd" clip-rule="evenodd" d="M12 10H13V9H12V10Z" stroke="white" stroke-width="2"/>
<path fill-rule="evenodd" clip-rule="evenodd" d="M9 17H10V16H9V17Z" stroke="white" stroke-width="2"/>
<path fill-rule="evenodd" clip-rule="evenodd" d="M7 17H8V16H7V17Z" stroke="white" stroke-width="2"/>
<path fill-rule="evenodd" clip-rule="evenodd" d="M12 17H13V15H12V17Z" stroke="white" stroke-width="2"/>
<path fill-rule="evenodd" clip-rule="evenodd" d="M7 12H8V9H7V12Z" stroke="white" stroke-width="2"/>
<path fill-rule="evenodd" clip-rule="evenodd" d="M9 12H10V9H9V12Z" stroke="white" stroke-width="2"/>
<path fill-rule="evenodd" clip-rule="evenodd" d="M14.417 11.3921C14.417 11.3921 13.479 9.99512 12.294 9.99512C11.041 9.99512 11 10.9421 11 10.9421C11 10.9421 11.014 12.4411 11.014 12.6511C10.231 12.6511 9.735 12.5761 8.88 12.6531C7.882 12.7431 7.546 13.7191 7.546 13.7191L6 16.0001H8L8.88 15.1841C8.88 15.1841 9.776 15.2061 10.269 15.2061C12.811 15.2061 12.708 14.8611 12.708 13.1291C12.708 11.8571 14.417 11.3921 14.417 11.3921Z" fill="#7A7A79"/>
<path fill-rule="evenodd" clip-rule="evenodd" d="M17 8L11 7L5 8V9H17V8Z" fill="#7A7A79"/>
<path fill-rule="evenodd" clip-rule="evenodd" d="M10 7H12V5H10V7ZM9 6C9 7.104 9.896 8 11 8C12.104 8 13 7.104 13 6C13 4.896 12.104 4 11 4C9.896 4 9 4.896 9 6Z" fill="#7A7A79"/>
<path fill-rule="evenodd" clip-rule="evenodd" d="M5 17H6V9H5V17Z" fill="#7A7A79"/>
<path fill-rule="evenodd" clip-rule="evenodd" d="M5 18H17V17H5V18Z" fill="#7A7A79"/>
<path fill-rule="evenodd" clip-rule="evenodd" d="M16 17H17V9H16V17Z" fill="#7A7A79"/>
<path fill-rule="evenodd" clip-rule="evenodd" d="M14 17H15V12H14V17Z" fill="#7A7A79"/>
<path fill-rule="evenodd" clip-rule="evenodd" d="M14 10H15V9H14V10Z" fill="#7A7A79"/>
<path fill-rule="evenodd" clip-rule="evenodd" d="M12 10H13V9H12V10Z" fill="#7A7A79"/>
<path fill-rule="evenodd" clip-rule="evenodd" d="M9 17H10V16H9V17Z" fill="#7A7A79"/>
<path fill-rule="evenodd" clip-rule="evenodd" d="M7 17H8V16H7V17Z" fill="#7A7A79"/>
<path fill-rule="evenodd" clip-rule="evenodd" d="M12 17H13V15H12V17Z" fill="#7A7A79"/>
<path fill-rule="evenodd" clip-rule="evenodd" d="M7 12H8V9H7V12Z" fill="#7A7A79"/>
<path fill-rule="evenodd" clip-rule="evenodd" d="M9 12H10V9H9V12Z" fill="#7A7A79"/>
</svg>
