<svg width="14" height="14" viewBox="0 0 14 14" fill="none" xmlns="http://www.w3.org/2000/svg">
<path d="M10 2C10 1.44772 10.4477 1 11 1H12C12.5523 1 13 1.44772 13 2V7.5C13 10.5376 10.5376 13 7.5 13H5.5C4.11929 13 3 11.8807 3 10.5V10C1.34315 10 0 8.65685 0 7V5.5C0 4.11943 1.11899 3 2.49984 3H8.50016C9.06295 3 9.58224 3.18595 10 3.49974V2Z" fill="white"/>
<path d="M12 2V7.5C12 9.98528 9.98528 12 7.5 12H5.5C4.67157 12 4 11.3284 4 10.5V10H7V11H7.5C9.433 11 11 9.433 11 7.5V2H12Z" fill="#7A7A79"/>
<path fill-rule="evenodd" clip-rule="evenodd" d="M2.49984 4C1.67141 4 1 4.67157 1 5.5V7C1 8.10457 1.89543 9 3 9H3.77721C4.202 9 4.57228 8.7109 4.6753 8.29879L4.87873 7.48507C4.95 7.19999 5.20615 7 5.5 7C5.79385 7 6.05 7.19999 6.12127 7.48507L6.3247 8.29879C6.42772 8.7109 6.798 9 7.22279 9H8C9.10457 9 10 8.10457 10 7V5.5C10 4.67157 9.32859 4 8.50016 4H2.49984ZM2.5 5H5C5 5 4.5 6 3 6H2.49994C2.2238 6 2 5.77614 2 5.5C2 5.22386 2.22386 5 2.5 5Z" fill="#7A7A79"/>
</svg>
