<svg width="60" height="60" viewBox="0 0 60 60" fill="none" xmlns="http://www.w3.org/2000/svg">
<path d="M13.5 20.3503C13.5 16.5475 16.7502 13.557 20.5398 13.8728L36.5398 15.2061C38.9164 15.4041 40.9058 16.8638 41.8717 18.8935L58.0398 17.2767L58.9354 26.232L42.5 27.8755V30.5342L52.8214 29.7402C55.8846 29.5046 58.5 31.9266 58.5 34.9988C58.5 36.2326 58.0674 37.4273 57.2776 38.3751L50.3193 46.725C48.3244 49.119 45.3692 50.5031 42.253 50.5031H14C10.695 50.5031 7.58297 48.9471 5.6 46.3031L2.6 42.3031C1.88598 41.3511 1.5 40.1931 1.5 39.0031V38.7812C1.5 35.9072 3.71268 33.5178 6.57817 33.2974L13.5 32.7649V20.3503Z" fill="white"/>
<path d="M16 31.0683V20.3504C16 18.0102 18.0001 16.1699 20.3322 16.3642L36.3322 17.6975C38.3752 17.8678 39.9536 19.5533 39.999 21.5933L55.801 20.0131L56.199 23.9932L40 25.6131V29.2221L16 31.0683Z" fill="#D91928"/>
<path d="M48.3988 45.1247L55.357 36.7747C55.7725 36.2762 56 35.6478 56 34.9988C56 33.3829 54.6243 32.109 53.0132 32.2329L6.76991 35.7901C5.20692 35.9103 4 37.2137 4 38.7813V39.0032C4 39.6523 4.21053 40.2839 4.6 40.8032L7.6 44.8032C9.11084 46.8176 11.4819 48.0032 14 48.0032H42.253C44.6272 48.0032 46.8788 46.9486 48.3988 45.1247Z" fill="#D91928"/>
</svg>
