<svg width="60" height="60" viewBox="0 0 60 60" fill="none" xmlns="http://www.w3.org/2000/svg">
<path d="M34.5 15.1211C35.0077 15.2647 35.5054 15.432 35.9918 15.6216L42.0791 5.07818L49.8733 9.57818L43.2125 21.1151C43.3967 21.3609 43.5743 21.6121 43.7448 21.8683L53.6297 16.1613L58.1297 23.9555L46.7943 30.5H58.5V39.5H46.5V46.5H50.5V55.5H9.5V46.5H13.5V39.5H1.5V30.5H13.2059L1.82615 23.9299L6.32615 16.1357L16.2552 21.8682C16.4257 21.6122 16.6031 21.3611 16.7872 21.1154L10.1374 9.59763L17.9317 5.09763L24.0078 15.6218C24.4944 15.432 24.9922 15.2647 25.5 15.1211V2.5H34.5V15.1211Z" fill="white"/>
<path d="M56 37H48V33H56V37Z" fill="#7A7A79"/>
<path d="M54.7146 23.0405L47.5884 27.1548C47.2948 25.8057 46.85 24.5131 46.2725 23.2957L52.7146 19.5764L54.7146 23.0405Z" fill="#7A7A79"/>
<path d="M46.4583 10.4932L42.239 17.8012C41.2556 16.8888 40.1701 16.0851 39.0014 15.4089L42.9942 8.49324L46.4583 10.4932Z" fill="#7A7A79"/>
<path d="M32 5V13.1099C31.3433 13.0373 30.676 13 30 13C29.324 13 28.6567 13.0373 28 13.1099V5H32Z" fill="#7A7A79"/>
<path d="M17.0166 8.5127L20.9982 15.4091C19.8296 16.0853 18.7441 16.8891 17.7607 17.8015L13.5525 10.5127L17.0166 8.5127Z" fill="#7A7A79"/>
<path d="M4 37V33H12V37H4Z" fill="#7A7A79"/>
<path d="M13.7275 23.2956C13.1501 24.513 12.7052 25.8056 12.4117 27.1547L5.24121 23.0148L7.24121 19.5507L13.7275 23.2956Z" fill="#7A7A79"/>
<path d="M30 17C22.268 17 16 23.268 16 31V45H28V37H24V33H36V37H32V45H44V31C44 23.268 37.732 17 30 17Z" fill="#7A7A79"/>
<path d="M48 49V53H12V49H48Z" fill="#7A7A79"/>
</svg>
