<svg width="14" height="14" viewBox="0 0 14 14" fill="none" xmlns="http://www.w3.org/2000/svg">
<path fill-rule="evenodd" clip-rule="evenodd" d="M4.5 7C3.119 7 2 8.119 2 9.5C2 10.881 3.119 12 4.5 12C5.881 12 7 10.881 7 9.5C7 8.119 5.881 7 4.5 7ZM4.5 8C5.327 8 6 8.673 6 9.5C6 10.327 5.327 11 4.5 11C3.673 11 3 10.327 3 9.5C3 8.673 3.673 8 4.5 8Z" stroke="white" stroke-width="2"/>
<path fill-rule="evenodd" clip-rule="evenodd" d="M10.5 7C9.119 7 8 8.119 8 9.5C8 10.881 9.119 12 10.5 12C11.881 12 13 10.881 13 9.5C13 8.119 11.881 7 10.5 7ZM10.5 8C11.327 8 12 8.673 12 9.5C12 10.327 11.327 11 10.5 11C9.673 11 9 10.327 9 9.5C9 8.673 9.673 8 10.5 8Z" stroke="white" stroke-width="2"/>
<path fill-rule="evenodd" clip-rule="evenodd" d="M5.98167 7.631L5.01367 7.379C5.03867 7.282 5.65867 5 9.99967 5V6C6.50167 6 6.00167 7.564 5.98167 7.631Z" stroke="white" stroke-width="2"/>
<path fill-rule="evenodd" clip-rule="evenodd" d="M10.0137 7.62115L9.01367 3.62115L9.98467 3.37915L10.9847 7.37915L10.0137 7.62115Z" stroke="white" stroke-width="2"/>
<path fill-rule="evenodd" clip-rule="evenodd" d="M6.147 6.854C5.907 6.617 5.145 6 4.5 6V5C5.672 5 6.736 6.029 6.853 6.146L6.147 6.854Z" stroke="white" stroke-width="2"/>
<path fill-rule="evenodd" clip-rule="evenodd" d="M10 4H7V2L10 4Z" stroke="white" stroke-width="2"/>
<path fill-rule="evenodd" clip-rule="evenodd" d="M9 4H12V2L9 4Z" stroke="white" stroke-width="2"/>
<path fill-rule="evenodd" clip-rule="evenodd" d="M4 10H5V9H4V10Z" stroke="white" stroke-width="2"/>
<path fill-rule="evenodd" clip-rule="evenodd" d="M10 10H11V9H10V10Z" stroke="white" stroke-width="2"/>
<path fill-rule="evenodd" clip-rule="evenodd" d="M4.5 7C3.119 7 2 8.119 2 9.5C2 10.881 3.119 12 4.5 12C5.881 12 7 10.881 7 9.5C7 8.119 5.881 7 4.5 7ZM4.5 8C5.327 8 6 8.673 6 9.5C6 10.327 5.327 11 4.5 11C3.673 11 3 10.327 3 9.5C3 8.673 3.673 8 4.5 8Z" fill="#7A7A79"/>
<path fill-rule="evenodd" clip-rule="evenodd" d="M10.5 7C9.119 7 8 8.119 8 9.5C8 10.881 9.119 12 10.5 12C11.881 12 13 10.881 13 9.5C13 8.119 11.881 7 10.5 7ZM10.5 8C11.327 8 12 8.673 12 9.5C12 10.327 11.327 11 10.5 11C9.673 11 9 10.327 9 9.5C9 8.673 9.673 8 10.5 8Z" fill="#7A7A79"/>
<path fill-rule="evenodd" clip-rule="evenodd" d="M5.98167 7.631L5.01367 7.379C5.03867 7.282 5.65867 5 9.99967 5V6C6.50167 6 6.00167 7.564 5.98167 7.631Z" fill="#7A7A79"/>
<path fill-rule="evenodd" clip-rule="evenodd" d="M10.0137 7.62115L9.01367 3.62115L9.98467 3.37915L10.9847 7.37915L10.0137 7.62115Z" fill="#7A7A79"/>
<path fill-rule="evenodd" clip-rule="evenodd" d="M6.147 6.854C5.907 6.617 5.145 6 4.5 6V5C5.672 5 6.736 6.029 6.853 6.146L6.147 6.854Z" fill="#7A7A79"/>
<path fill-rule="evenodd" clip-rule="evenodd" d="M10 4H7V2L10 4Z" fill="#7A7A79"/>
<path fill-rule="evenodd" clip-rule="evenodd" d="M9 4H12V2L9 4Z" fill="#7A7A79"/>
<path fill-rule="evenodd" clip-rule="evenodd" d="M4 10H5V9H4V10Z" fill="#7A7A79"/>
<path fill-rule="evenodd" clip-rule="evenodd" d="M10 10H11V9H10V10Z" fill="#7A7A79"/>
</svg>
