<svg width="14" height="14" viewBox="0 0 14 14" fill="none" xmlns="http://www.w3.org/2000/svg">
<path d="M7 3L7.1644 3.0274C8.942 3.32366 10.1815 4.23331 10.9571 5.39659C11.5027 6.21506 11.8034 7.13373 11.9289 8.01379H13V11.0138H1V8.01379H2.0711C2.19663 7.13373 2.4973 6.21506 3.04295 5.39659C3.81847 4.23331 5.058 3.32366 6.8356 3.0274L7 3Z" fill="white"/>
<path fill-rule="evenodd" clip-rule="evenodd" d="M7 4.01367C4 4.51367 3 7.01367 3 9.01367H2V10.0137H12V9.01367H11C11 7.01367 10 4.51367 7 4.01367ZM6.7986 5.86437C6.46494 7.31942 6.27069 8.16654 5 9.01367H9C7.72931 8.16654 7.53506 7.31942 7.2014 5.86437C7.14119 5.60179 7.07644 5.31942 7 5.01367C6.92356 5.31942 6.85881 5.60179 6.7986 5.86437Z" fill="#7A7A79"/>
</svg>
