<svg width="60" height="60" viewBox="0 0 60 60" fill="none" xmlns="http://www.w3.org/2000/svg">
<path fill-rule="evenodd" clip-rule="evenodd" d="M19.6 26.2C25.5714 38.1429 39.0777 38.1591 50 38.1429V32.7143C50 21.3143 39.2107 16.9524 31 19.1429C22.8571 21.3143 15.8027 14.8 12 11C12 30 12 49 31 49C38.6 49 42.9456 45.7429 47.2857 40.8571C35.8857 40.8571 23.4 41.4 19.6 26.2Z" stroke="white" stroke-width="5"/>
<path fill-rule="evenodd" clip-rule="evenodd" d="M19.6 26.2C25.5714 38.1429 39.0777 38.1591 50 38.1429V32.7143C50 21.3143 39.2107 16.9524 31 19.1429C22.8571 21.3143 15.8027 14.8 12 11C12 30 12 49 31 49C38.6 49 42.9456 45.7429 47.2857 40.8571C35.8857 40.8571 23.4 41.4 19.6 26.2Z" fill="#7A7A79"/>
</svg>
