<svg width="60" height="60" viewBox="0 0 60 60" fill="none" xmlns="http://www.w3.org/2000/svg">
<path fill-rule="evenodd" clip-rule="evenodd" d="M20.5005 18C20.5005 20.3012 21.6964 22.3231 23.5005 23.4782V24.1751L15.1717 26.8403C12.7607 27.6119 11.017 29.713 10.703 32.2249L9.26562 43.7236L15.5005 45.8019V46C15.5005 48.4853 17.5153 50.5 20.0005 50.5H22.5948L20.5775 51.1724C18.74 51.785 17.5005 53.5046 17.5005 55.4415V58.5H42.5005V55.4415C42.5005 53.5046 41.2611 51.785 39.4236 51.1724L37.4062 50.5H40.0005C42.4858 50.5 44.5005 48.4853 44.5005 46V45.8019L50.8177 43.6962L48.8625 31.9646C48.4666 29.5897 46.7905 27.6281 44.5064 26.8667L36.5005 24.1981V20.5051L37.994 18.713C38.9674 17.5448 39.5005 16.0724 39.5005 14.5518V12C39.5005 7.30558 35.695 3.5 31.0005 3.5H29.0005C24.3061 3.5 20.5005 7.30558 20.5005 12V18ZM29.0005 8.5C27.0675 8.5 25.5005 10.067 25.5005 12V16.5H33.3296L34.1529 15.5121C34.3775 15.2425 34.5005 14.9027 34.5005 14.5518V12C34.5005 10.067 32.9335 8.5 31.0005 8.5H29.0005Z" fill="white"/>
<path d="M23 12V18C23 20.2091 24.7909 22 27 22H30.1265C31.3136 22 32.4394 21.4727 33.1994 20.5607L36.0729 17.1125C36.6719 16.3937 37 15.4875 37 14.5518V12C37 8.68629 34.3137 6 31 6H29C25.6863 6 23 8.68629 23 12Z" fill="#7A7A79"/>
<path d="M34.0008 25.9999V23.2197C32.8912 24.0431 31.5358 24.4999 30.1273 24.4999H27.0008C26.6607 24.4999 26.3268 24.4738 26.0008 24.4235V25.9999L21.25 27.5201C24.296 36.9045 31.5387 43.9999 42.0008 43.9999V46.0139V45.9999V43.9999L48.0008 41.9999L46.3967 32.3755C46.1531 30.914 45.1217 29.7069 43.7161 29.2383L34.0008 25.9999Z" fill="#7A7A79"/>
<path d="M15.9331 29.2215L17.4399 28.7393C20.7269 38.8578 28.6274 47.2663 40.4262 47.9546C40.2888 47.9844 40.1462 48.0001 40 48.0001H20C18.8954 48.0001 18 47.1047 18 46.0001V44.0001L12 42.0001L13.1831 32.5351C13.3764 30.9893 14.4494 29.6963 15.9331 29.2215Z" fill="#7A7A79"/>
<path d="M26 50.5H34V52L38.6325 53.5442C39.4491 53.8164 40 54.5807 40 55.4415V56H20V55.4415C20 54.5807 20.5509 53.8164 21.3675 53.5442L26 52V50.5Z" fill="#7A7A79"/>
</svg>
