<svg width="60" height="60" viewBox="0 0 60 60" fill="none" xmlns="http://www.w3.org/2000/svg">
<path fill-rule="evenodd" clip-rule="evenodd" d="M14.5296 13.9782C16.6784 12.4154 21.3484 9.5 30 9.5C38.6073 9.5 43.4837 12.3854 45.5617 14.0478L46.5 14.7984V16V43.0744C47.4573 43.2671 48.2192 43.4518 48.7352 43.6106L50.5 44.1536V46V48V50.5H48H12H9.5V48V46V44.0481L11.3937 43.5746C11.9343 43.4395 12.6456 43.2805 13.5 43.1117V16V14.7269L14.5296 13.9782Z" fill="white"/>
<path fill-rule="evenodd" clip-rule="evenodd" d="M30 12C22 12 17.8333 14.6667 16 16V42.6638C19.658 42.0694 24.6844 41.5 30 41.5C35.1651 41.5 40.2982 42.0396 44 42.6284V16C42.3333 14.6667 38 12 30 12ZM24 21V18H36V21H24ZM26 27V24H34V27H26ZM30 44C22 44 14.6667 45.3333 12 46V48H48V46C45.8333 45.3333 38 44 30 44Z" fill="#7A7A79"/>
</svg>
