<svg width="60" height="60" viewBox="0 0 60 60" fill="none" xmlns="http://www.w3.org/2000/svg">
<path fill-rule="evenodd" clip-rule="evenodd" d="M47.5451 24.5L46.5 26.5902V41.4098L47.5451 43.5H50.5V47.5H54.5V56.5H5.5V47.5H9.5V43.5H12.4549L13.5 41.4098V26.5902L12.4549 24.5H9.5V15.5H11.8811C12.5128 13.2933 13.9197 10.8629 16.0257 8.80551C19.0775 5.82398 23.7021 3.5 30 3.5C36.2979 3.5 40.9225 5.82398 43.9743 8.80551C46.0803 10.8629 47.4872 13.2933 48.1189 15.5H50.5V24.5H47.5451ZM22.5 26.5902L23.5451 24.5H24.4549L25.5 26.5902V41.4098L24.4549 43.5H23.5451L22.5 41.4098V26.5902ZM35.5451 24.5L34.5 26.5902V41.4098L35.5451 43.5H36.4549L37.5 41.4098V26.5902L36.4549 24.5H35.5451Z" fill="white"/>
<path fill-rule="evenodd" clip-rule="evenodd" d="M30 6C18.7273 6 14 14.25 14 18H12V22H14L16 26V42L14 46H12V50H8V54H52V50H48V46H46L44 42V26L46 22H48V18H46C46 14.25 41.2727 6 30 6ZM38 46L40 42V26L38 22H34L32 26V42L34 46H38ZM26 46L28 42V26L26 22H22L20 26V42L22 46H26Z" fill="#D91928"/>
</svg>
