<svg width="60" height="60" viewBox="0 0 60 60" fill="none" xmlns="http://www.w3.org/2000/svg">
<path fill-rule="evenodd" clip-rule="evenodd" d="M30 49V40.6875C36.1212 41.0833 41.0833 36.1212 40.6875 30H49C49 40.4769 40.4769 49 30 49ZM30 11V19.3125C23.8788 18.9167 18.9167 23.8788 19.3125 30H11C11 19.5231 19.5231 11 30 11ZM24 30.5455C24 26.691 26.6925 24 30.5455 24C33.3075 24 36 26.691 36 30.5455C36 33.3075 33.3075 36 30.5455 36C26.6925 36 24 33.3075 24 30.5455ZM30 6C16.7456 6 6 16.7456 6 30C6 43.2544 16.7456 54 30 54C43.2544 54 54 43.2544 54 30C54 16.7456 43.2544 6 30 6Z" stroke="white" stroke-width="5"/>
<path fill-rule="evenodd" clip-rule="evenodd" d="M30 49V40.6875C36.1212 41.0833 41.0833 36.1212 40.6875 30H49C49 40.4769 40.4769 49 30 49ZM30 11V19.3125C23.8788 18.9167 18.9167 23.8788 19.3125 30H11C11 19.5231 19.5231 11 30 11ZM24 30.5455C24 26.691 26.6925 24 30.5455 24C33.3075 24 36 26.691 36 30.5455C36 33.3075 33.3075 36 30.5455 36C26.6925 36 24 33.3075 24 30.5455ZM30 6C16.7456 6 6 16.7456 6 30C6 43.2544 16.7456 54 30 54C43.2544 54 54 43.2544 54 30C54 16.7456 43.2544 6 30 6Z" fill="#7A7A79"/>
</svg>
