<svg width="60" height="60" viewBox="0 0 60 60" fill="none" xmlns="http://www.w3.org/2000/svg">
<path fill-rule="evenodd" clip-rule="evenodd" d="M20.5 18C20.5 20.3012 21.6959 22.3231 23.5 23.4782V24.1751L15.1712 26.8403C12.7602 27.6119 11.0165 29.713 10.7025 32.2249L9.26514 43.7236L15.5 45.8019V46C15.5 48.4853 17.5148 50.5 20 50.5H22.5943L20.577 51.1724C18.7395 51.785 17.5 53.5046 17.5 55.4415V58.5H42.5V55.4415C42.5 53.5046 41.2606 51.785 39.4231 51.1724L37.4057 50.5H40C42.4853 50.5 44.5 48.4853 44.5 46V45.8019L50.8172 43.6962L48.862 31.9646C48.4661 29.5897 46.79 27.6281 44.5059 26.8667L36.5 24.1981V20.5051L37.9935 18.713C38.9669 17.5448 39.5 16.0724 39.5 14.5518V12C39.5 7.30558 35.6945 3.5 31 3.5H29C24.3056 3.5 20.5 7.30558 20.5 12V18ZM29 8.5C27.067 8.5 25.5 10.067 25.5 12V16.5H33.3291L34.1524 15.5121C34.377 15.2425 34.5 14.9027 34.5 14.5518V12C34.5 10.067 32.933 8.5 31 8.5H29Z" fill="white"/>
<path d="M23 12V18C23 20.2091 24.7909 22 27 22H30.1265C31.3136 22 32.4394 21.4727 33.1994 20.5607L36.0729 17.1125C36.6719 16.3937 37 15.4875 37 14.5518V12C37 8.68629 34.3137 6 31 6H29C25.6863 6 23 8.68629 23 12Z" fill="#D91928"/>
<path d="M34 26V23.2198C32.8904 24.0432 31.535 24.5 30.1265 24.5H27C26.6599 24.5 26.326 24.4739 26 24.4236V26L21.2492 27.5202C24.2952 36.9046 31.5379 44 42 44V46.014L42 46L42 44L48 42L46.3959 32.3756C46.1523 30.9141 45.1209 29.707 43.7153 29.2384L34 26Z" fill="#D91928"/>
<path d="M15.9331 29.2214L17.4399 28.7392C20.7269 38.8577 28.6274 47.2662 40.4262 47.9545C40.2888 47.9843 40.1462 48 40 48H20C18.8954 48 18 47.1046 18 46V44L12 42L13.1831 32.535C13.3764 30.9892 14.4494 29.6962 15.9331 29.2214Z" fill="#D91928"/>
<path d="M26 50.5H34V52L38.6325 53.5442C39.4491 53.8164 40 54.5807 40 55.4415V56H20V55.4415C20 54.5807 20.5509 53.8164 21.3675 53.5442L26 52V50.5Z" fill="#D91928"/>
</svg>
