<svg width="32" height="32" viewBox="0 0 32 32" fill="none" xmlns="http://www.w3.org/2000/svg">
<path d="M10.6665 2.13379H21.3332L20.7999 3.20046H19.7332C18.6665 3.20046 18.6665 4.16046 18.6665 4.80046C18.6665 5.73331 19.4823 6.66611 22.1841 7.95571C22.9543 8.32328 23.4665 9.08702 23.4665 9.9404V11.7338C23.4665 14.1338 22.3999 19.2005 18.1332 20.2671C18.1332 21.3338 19.7332 22.4005 21.3332 22.4005V23.4671H10.6665V22.4005C12.2665 22.4005 13.8665 21.3338 13.8665 20.2671C9.59987 19.2005 8.5332 14.1338 8.5332 11.7338V9.9404C8.5332 9.08702 9.04547 8.32328 9.81566 7.95571C12.5174 6.66611 13.3332 5.73331 13.3332 4.80046C13.3332 4.16046 13.3332 3.20046 12.2665 3.20046H11.1999L10.6665 2.13379Z" fill="#656565"/>
<path d="M6 26C6 25.7239 6.49744 25 7.11111 25H24.8889C25.5026 25 26 25.7239 26 26V27.5H6V26Z" fill="#656565"/>
</svg>
