<svg width="116" height="116" viewBox="0 0 116 116" fill="none" xmlns="http://www.w3.org/2000/svg">
<path d="M58 116C90.0325 116 116 90.0325 116 58C116 25.9675 90.0325 0 58 0C25.9675 0 0 25.9675 0 58C0 90.0325 25.9675 116 58 116Z" fill="black" fill-opacity="0.02"/>
<path d="M58 114C88.9279 114 114 88.9279 114 58C114 27.0721 88.9279 2 58 2C27.0721 2 2 27.0721 2 58C2 88.9279 27.0721 114 58 114Z" fill="black" fill-opacity="0.02"/>
<path d="M58 112C87.8234 112 112 87.8234 112 58C112 28.1766 87.8234 4 58 4C28.1766 4 4 28.1766 4 58C4 87.8234 28.1766 112 58 112Z" fill="black" fill-opacity="0.02"/>
<path d="M58 110C86.7188 110 110 86.7188 110 58C110 29.2812 86.7188 6 58 6C29.2812 6 6 29.2812 6 58C6 86.7188 29.2812 110 58 110Z" fill="black" fill-opacity="0.02"/>
<path d="M58 108C85.6142 108 108 85.6142 108 58C108 30.3858 85.6142 8 58 8C30.3858 8 8 30.3858 8 58C8 85.6142 30.3858 108 58 108Z" fill="white"/>
<path fill-rule="evenodd" clip-rule="evenodd" d="M41.391 87.998L51.7866 88C51.7866 88 51.8359 82.7621 51.7866 78.1335C51.7315 72.7555 47.7895 67.2415 42.5316 66.429C35.1816 65.295 28.9978 71.6866 30.2744 79.0939C31.1885 84.393 36.076 88.0533 41.391 87.998Z" stroke="white" stroke-width="5"/>
<path fill-rule="evenodd" clip-rule="evenodd" d="M80.0976 87.998L69.7013 88C69.7013 88 69.654 82.7621 69.7033 78.1355C69.7584 72.7555 73.7006 67.2415 78.9589 66.429C86.3074 65.295 92.4916 71.6866 91.215 79.0939C90.3008 84.393 85.4149 88.0533 80.0976 87.998Z" stroke="white" stroke-width="5"/>
<path fill-rule="evenodd" clip-rule="evenodd" d="M39.0426 28H25V34.383H39.0426C42.8462 33.8213 45.6219 36.4331 45.4255 39.4894V76.5106H51.8085V39.4894C51.8085 33.2139 46.2674 28 39.0426 28Z" stroke="white" stroke-width="5"/>
<path fill-rule="evenodd" clip-rule="evenodd" d="M36.4893 28V34.383H50.5319C54.3356 33.9362 57.1113 36.5995 56.9149 39.4894V79.0638H63.2979V39.4894C63.2979 33.3168 57.7567 28 50.5319 28H36.4893Z" stroke="white" stroke-width="5"/>
<path d="M72.234 33.1064H59.4681V79.0638H72.234V33.1064Z" fill="white"/>
<path fill-rule="evenodd" clip-rule="evenodd" d="M63.2979 28H49.2553V34.383H63.2979C67.1015 33.8213 69.8772 36.4331 69.6808 39.4894V76.5106H76.0638V39.4894C76.0638 33.2139 70.5227 28 63.2979 28Z" stroke="white" stroke-width="5"/>
<path fill-rule="evenodd" clip-rule="evenodd" d="M51.8085 88H69.6808V79.0638H51.8085V88Z" stroke="white" stroke-width="5"/>
<path fill-rule="evenodd" clip-rule="evenodd" d="M41.391 87.998L51.7866 88C51.7866 88 51.8359 82.7621 51.7866 78.1335C51.7315 72.7555 47.7895 67.2415 42.5316 66.429C35.1816 65.295 28.9978 71.6866 30.2744 79.0939C31.1885 84.393 36.076 88.0533 41.391 87.998Z" fill="#72B8EB"/>
<path fill-rule="evenodd" clip-rule="evenodd" d="M80.0976 87.998L69.7013 88C69.7013 88 69.654 82.7621 69.7033 78.1355C69.7584 72.7555 73.7006 67.2415 78.9589 66.429C86.3074 65.295 92.4916 71.6866 91.215 79.0939C90.3008 84.393 85.4149 88.0533 80.0976 87.998Z" fill="#72B8EB"/>
<path fill-rule="evenodd" clip-rule="evenodd" d="M39.0426 28H25V34.383H39.0426C42.8462 33.8213 45.6219 36.4331 45.4255 39.4894V76.5106H51.8085V39.4894C51.8085 33.2139 46.2674 28 39.0426 28Z" fill="#72B8EB"/>
<path fill-rule="evenodd" clip-rule="evenodd" d="M37.766 28V34.383H51.8085C55.6122 33.9362 58.3879 36.5995 58.1915 39.4894V79.0638H64.5745V39.4894C64.5745 33.3168 59.0334 28 51.8085 28H37.766Z" fill="#72B8EB"/>
<path fill-rule="evenodd" clip-rule="evenodd" d="M63.2979 28H49.2553V34.383H63.2979C67.1015 33.8213 69.8772 36.4331 69.6808 39.4894V76.5106H76.0638V39.4894C76.0638 33.2139 70.5227 28 63.2979 28Z" fill="#72B8EB"/>
<path fill-rule="evenodd" clip-rule="evenodd" d="M51.8085 88H69.6808V79.0638H51.8085V88Z" fill="#72B8EB"/>
</svg>
